<?xml version="1.0" standalone="no"?>
<!DOCTYPE svg PUBLIC "-//W3C//DTD SVG 20010904//EN"
 "http://www.w3.org/TR/2001/REC-SVG-20010904/DTD/svg10.dtd">
<svg version="1.0" xmlns="http://www.w3.org/2000/svg"
 width="1721.000000pt" height="1721.000000pt" viewBox="0 0 1721.000000 1721.000000"
 preserveAspectRatio="xMidYMid meet">
<metadata>
Created by potrace 1.16, written by Peter Selinger 2001-2019
</metadata>
<g transform="translate(0.000000,1721.000000) scale(0.100000,-0.100000)"
fill="#000000" stroke="none">
<path d="M9105 17167 c-44 -23 -112 -68 -150 -100 -37 -33 -88 -68 -112 -80
-24 -12 -43 -26 -43 -32 0 -6 -87 -78 -192 -160 -524 -404 -1064 -843 -1628
-1324 -113 -96 -311 -278 -440 -405 -129 -128 -415 -393 -635 -591 -551 -496
-986 -920 -1790 -1745 -212 -218 -223 -228 -315 -275 -80 -41 -114 -67 -220
-169 -69 -67 -312 -295 -540 -508 -228 -212 -476 -446 -550 -518 -167 -164
-234 -223 -380 -335 -200 -154 -339 -275 -361 -315 -12 -21 -43 -52 -68 -68
-62 -40 -272 -257 -702 -722 -357 -386 -572 -603 -836 -845 -79 -71 -143 -138
-143 -147 0 -9 46 -68 103 -131 215 -239 550 -630 707 -827 237 -296 350 -430
479 -563 116 -119 159 -150 384 -276 32 -18 64 -43 72 -55 8 -12 34 -33 57
-46 81 -45 105 -68 127 -128 32 -82 83 -170 131 -225 45 -51 76 -61 82 -24 3
18 43 -16 253 -224 138 -135 307 -291 376 -346 143 -115 174 -148 191 -204 8
-28 26 -52 56 -77 38 -31 87 -93 215 -272 37 -52 101 -105 287 -239 175 -126
231 -184 347 -361 42 -63 101 -153 131 -198 89 -134 361 -422 1061 -1119 359
-359 655 -653 657 -653 16 0 -3 40 -36 76 -22 24 -40 49 -40 56 1 19 93 -83
323 -357 111 -131 249 -293 307 -359 182 -208 195 -223 234 -300 41 -80 71
-114 124 -140 33 -17 38 -30 23 -54 -6 -10 5 -26 35 -54 24 -22 59 -70 79
-106 41 -75 81 -122 104 -122 20 0 71 -50 71 -70 0 -9 18 -33 39 -55 22 -21
39 -41 38 -44 -1 -4 12 -23 28 -43 21 -26 105 -77 290 -181 143 -79 272 -156
286 -171 34 -34 80 -57 100 -51 9 3 32 -14 62 -49 51 -59 55 -70 32 -84 -12
-6 -5 -15 35 -41 27 -18 56 -42 65 -54 8 -11 17 -19 19 -16 3 3 -13 34 -36 69
-61 97 -190 322 -186 326 6 5 132 -148 157 -191 13 -22 60 -95 104 -162 76
-113 84 -122 122 -130 32 -6 44 -15 57 -42 9 -18 29 -48 45 -65 15 -17 1 -5
-32 27 -34 31 -64 57 -68 57 -16 0 -5 -40 22 -77 15 -21 74 -84 130 -138 70
-69 101 -106 101 -122 0 -20 -4 -22 -25 -17 -15 4 -25 2 -25 -5 0 -6 11 -11
25 -11 26 0 53 -23 88 -74 20 -29 61 -35 71 -11 4 12 23 6 100 -32 88 -43 96
-46 125 -33 34 14 41 39 12 47 -10 2 -24 16 -32 29 -19 35 1 50 91 69 120 25
140 48 100 113 -24 38 -34 41 -28 7 8 -39 -14 -31 -86 31 -45 38 -66 62 -66
78 0 33 -48 122 -75 140 -13 9 -30 13 -37 11 -16 -6 -62 69 -55 89 3 7 -3 18
-14 24 -10 7 -28 30 -39 52 -22 43 -62 75 -83 67 -8 -3 -52 38 -110 103 -88
99 -97 112 -97 148 0 72 20 91 54 53 17 -18 16 -20 -3 -26 -26 -8 -27 -27 -2
-49 17 -15 19 -15 25 -1 4 12 17 7 61 -30 88 -71 115 -53 50 35 -35 47 -98
103 -107 94 -9 -8 -170 166 -165 179 2 7 14 12 26 11 11 0 21 2 21 6 0 13 -67
70 -82 70 -9 0 -27 14 -40 31 -58 79 -180 188 -388 344 -124 94 -260 205 -302
247 -69 71 -87 83 -110 79 -5 0 -8 6 -8 14 0 8 6 15 14 15 23 0 31 22 13 35
-9 6 -19 23 -22 38 -4 15 -29 43 -61 68 -30 23 -78 67 -106 98 -28 31 -73 75
-100 98 -27 24 -43 43 -36 43 29 0 110 -33 115 -47 6 -14 73 -53 93 -53 35 0
-30 83 -112 142 -53 39 -100 98 -77 98 14 0 11 33 -7 58 -8 12 -68 62 -132
111 -64 49 -139 112 -165 140 -27 28 -56 51 -66 51 -11 0 -55 54 -122 147 -57
81 -120 164 -140 185 -39 41 -75 49 -87 20 -6 -17 -9 -16 -30 10 -19 22 -20
28 -8 28 24 0 20 46 -9 109 -28 60 -27 86 5 76 28 -9 25 5 -9 52 -42 59 -90
92 -122 86 -36 -7 -76 30 -139 128 -41 64 -49 83 -39 90 8 5 20 9 27 9 19 0
15 8 -27 46 -29 25 -45 52 -60 97 l-20 62 25 -29 c102 -117 278 -306 282 -301
7 7 -224 351 -350 520 -264 356 -523 620 -766 784 -106 71 -246 142 -344 175
l-73 25 -7 63 c-11 112 -74 240 -208 430 -90 127 -167 201 -295 283 -149 95
-427 305 -610 460 -452 383 -935 875 -1607 1637 -122 139 -284 321 -359 403
-75 83 -147 168 -161 191 l-26 40 52 29 c28 16 158 118 288 227 216 180 461
379 676 548 45 35 82 68 82 73 0 9 -33 -13 -122 -81 -32 -24 -58 -40 -58 -37
0 7 228 276 453 533 93 106 167 195 165 197 -2 2 -28 -2 -58 -10 -30 -8 -57
-15 -60 -15 -3 0 8 12 23 28 16 15 50 61 77 102 27 41 97 128 157 194 59 65
128 142 153 172 31 37 53 53 70 53 14 1 59 26 102 59 74 54 98 82 61 68 -10
-4 7 15 37 41 94 82 283 258 539 502 310 295 390 366 432 382 22 8 79 61 158
146 87 93 130 133 146 133 12 0 51 19 86 41 35 23 57 34 50 25 -8 -9 -12 -19
-9 -22 3 -2 31 28 63 67 32 40 140 156 239 258 100 102 197 208 216 234 19 27
138 146 265 265 557 525 1147 1113 1606 1602 217 231 240 257 237 268 -4 12
293 388 408 517 45 50 129 133 186 183 57 50 119 112 138 139 19 26 88 118
154 203 65 85 141 188 168 228 51 75 108 187 108 210 0 8 34 51 76 95 42 45
133 152 202 237 69 85 157 190 195 233 53 60 67 81 57 87 -11 7 -1 27 43 92
85 123 78 132 -48 65z"/>
<path d="M17110 17170 c-41 -22 -104 -65 -140 -96 -36 -30 -89 -69 -118 -86
-29 -16 -51 -32 -48 -35 3 -3 -57 -53 -132 -111 -736 -567 -1816 -1459 -1991
-1645 -107 -114 -380 -368 -807 -754 -467 -421 -1011 -949 -1519 -1473 -198
-204 -364 -378 -368 -385 -11 -21 -120 -95 -209 -144 -59 -32 -113 -76 -225
-184 -82 -78 -305 -289 -498 -467 -192 -179 -440 -413 -550 -520 -139 -136
-264 -245 -410 -360 -184 -144 -255 -208 -366 -327 -14 -15 -56 -53 -93 -83
-69 -57 -310 -307 -713 -745 -268 -291 -608 -628 -894 -887 l-41 -37 154 -173
c281 -316 532 -610 709 -833 208 -261 327 -401 455 -535 81 -84 114 -110 222
-173 70 -41 145 -84 167 -95 22 -11 46 -30 53 -41 7 -12 43 -41 80 -65 80 -51
80 -52 117 -141 33 -79 115 -207 148 -230 12 -8 30 -15 40 -15 15 0 18 5 14
26 -5 30 -12 36 333 -301 118 -116 267 -252 330 -302 111 -87 160 -145 160
-188 0 -9 25 -39 56 -67 30 -28 69 -72 86 -97 139 -205 164 -229 429 -422 182
-133 210 -165 401 -454 101 -152 154 -221 269 -345 128 -140 1483 -1510 1502
-1518 4 -2 7 7 7 20 0 15 -15 39 -40 63 -22 21 -40 45 -40 52 0 19 125 -119
328 -362 213 -255 335 -397 423 -491 42 -46 83 -105 112 -162 43 -83 93 -142
119 -142 6 0 20 -7 29 -16 14 -13 16 -21 8 -36 -9 -16 -3 -26 34 -61 24 -23
59 -70 76 -103 32 -62 84 -124 103 -124 21 0 68 -42 68 -61 0 -12 18 -38 40
-60 22 -22 40 -45 40 -52 1 -32 79 -86 331 -227 151 -85 280 -162 287 -172 17
-24 70 -51 86 -45 7 3 37 -22 66 -55 49 -55 52 -62 36 -73 -15 -12 -14 -15 16
-36 18 -12 48 -36 66 -53 17 -16 32 -26 32 -21 0 4 -22 42 -48 84 -44 69 -168
281 -179 306 -5 11 87 -87 117 -125 11 -14 43 -63 71 -110 99 -164 156 -238
192 -245 37 -8 67 -32 67 -54 0 -8 12 -29 27 -45 15 -17 2 -7 -29 23 -32 30
-61 52 -65 48 -19 -20 61 -124 187 -243 82 -78 100 -117 47 -107 -20 4 -28 2
-24 -4 4 -6 23 -14 42 -17 21 -4 39 -15 46 -29 30 -58 82 -87 95 -52 5 11 24
5 95 -30 94 -48 114 -52 142 -31 23 18 22 23 -13 56 -48 45 -27 66 90 90 100
20 126 60 75 117 l-25 28 7 -35 6 -34 -30 19 c-49 32 -123 104 -123 121 0 27
-53 125 -79 145 -13 11 -31 17 -38 15 -17 -7 -53 50 -53 82 0 12 -7 25 -15 29
-9 3 -24 22 -34 42 -25 48 -66 85 -85 78 -11 -5 -46 27 -116 105 -93 103 -100
114 -100 153 0 61 37 88 60 44 10 -17 8 -21 -9 -26 -26 -7 -27 -25 -2 -47 17
-16 20 -16 28 -2 8 14 17 9 62 -29 45 -38 91 -58 91 -40 0 32 -120 175 -146
175 -19 0 -88 64 -136 124 -30 37 -36 51 -26 57 7 5 22 6 33 2 18 -5 19 -4 5
13 -36 48 -55 64 -76 64 -16 0 -35 16 -62 53 -61 81 -140 150 -362 317 -113
85 -243 192 -290 238 -46 47 -98 91 -115 98 -29 13 -29 14 -7 20 24 7 30 39 8
47 -7 3 -16 18 -19 34 -3 15 -17 35 -30 43 -45 27 -277 260 -259 260 27 -1
104 -39 118 -59 18 -25 72 -47 85 -34 13 13 -68 103 -131 144 -29 19 -53 43
-59 60 -6 18 -6 29 0 29 19 0 8 30 -23 66 -18 21 -83 74 -143 119 -61 45 -126
100 -146 123 -19 22 -47 45 -61 51 -16 6 -54 49 -99 113 -105 149 -179 242
-198 250 -33 13 -51 9 -51 -14 l0 -21 -25 23 c-28 27 -32 40 -10 40 22 0 18
30 -11 94 -28 61 -28 93 -1 88 34 -6 17 32 -40 89 -49 48 -62 56 -85 52 -17
-3 -38 1 -54 11 -25 17 -134 174 -134 194 0 6 9 14 20 17 27 8 25 19 -5 39
-14 9 -31 27 -40 39 -14 22 -47 117 -40 117 2 0 67 -72 146 -160 79 -88 145
-156 147 -150 4 12 -233 364 -354 526 -392 524 -757 836 -1117 954 -60 19 -68
25 -63 43 17 66 -48 225 -164 400 -82 124 -220 287 -242 287 -26 0 -413 280
-613 445 -495 406 -967 883 -1740 1760 -131 149 -288 324 -348 389 -94 104
-157 183 -157 201 0 2 19 14 42 26 24 12 171 128 328 259 157 130 386 316 508
414 228 181 293 246 115 115 l-98 -73 50 60 c118 140 415 486 484 564 42 47
85 95 95 108 l19 22 -34 -6 c-19 -4 -52 -13 -73 -21 l-40 -13 42 38 c23 22 42
44 42 49 0 40 380 473 415 473 22 0 41 11 123 73 29 22 51 46 48 52 -2 7 52
63 120 124 69 62 220 203 336 314 398 380 482 457 533 482 36 18 85 62 170
155 78 84 127 130 141 130 11 0 46 16 78 35 35 21 56 29 52 20 -11 -29 9 -14
44 32 19 26 122 137 228 247 106 109 217 232 247 272 30 40 67 82 82 94 66 51
564 530 942 905 532 528 1104 1126 1083 1133 -14 4 337 441 448 556 52 54 127
126 165 159 43 37 117 122 193 221 249 326 322 436 347 520 11 37 33 67 92
130 43 44 118 131 167 191 50 61 135 164 190 229 55 67 95 121 88 124 -15 5 2
37 57 111 41 54 52 91 29 91 -7 0 -47 -19 -88 -40z"/>
</g>
</svg>
