<?xml version="1.0" encoding="UTF-8"?>
<svg version="1.1" xmlns="http://www.w3.org/2000/svg" viewBox="0 0 530 1181" width="530" height="1181">
<path d="M0 0 C1.20390381 0.00506058 1.20390381 0.00506058 2.43212891 0.01022339 C29.43704281 0.17388345 54.02028464 6.45725091 77.75 19.4375 C78.95157088 20.07079093 80.15339073 20.70360973 81.35546875 21.3359375 C99.37651865 31.01261988 115.36948196 45.22819212 127.75 61.4375 C128.48734375 62.35917969 129.2246875 63.28085937 129.984375 64.23046875 C155.07217319 96.28229367 163.60299437 134.9306205 164.03125 174.86450195 C164.04913188 176.25283757 164.06737265 177.64116859 164.0859375 179.02949524 C164.13514128 182.7876231 164.17923778 186.54579491 164.22232056 190.30399728 C164.26971925 194.36547599 164.32170441 198.42689661 164.37304688 202.48832703 C164.45980458 209.40242389 164.54345285 216.3165527 164.625 223.23071289 C164.70580063 230.08068084 164.78885035 236.93061476 164.875 243.78051758 C164.88531126 244.60057067 164.89562252 245.42062376 164.90624624 246.26552695 C164.92171355 247.49552002 164.92171355 247.49552002 164.93749332 248.75036144 C165.22954094 271.97917122 165.49746215 295.20822818 165.75 318.4375 C165.76616434 319.92416569 165.76616434 319.92416569 165.78265524 321.44086504 C166.47462345 385.25545405 166.95090552 449.06946032 167.22003841 512.88722324 C167.2756233 526.01686942 167.33796066 539.14645299 167.40853065 552.27602744 C167.89585778 642.95801107 167.89585778 642.95801107 167.44172859 680.00441551 C167.39090666 684.1760892 167.34890026 688.34781752 167.3089447 692.51960754 C167.28345688 695.10934548 167.25787096 697.69908245 167.23217773 700.28881836 C167.22017554 701.51104379 167.20817335 702.73326921 167.19580746 703.99253178 C167.12201611 710.87906102 166.9934614 717.76164459 166.81878471 724.64631939 C166.72686859 728.7008567 166.68217278 732.75487079 166.65097809 736.81028557 C166.62651664 738.60126461 166.58130021 740.39212582 166.51165009 742.18191719 C166.01155594 752.24944964 166.01155594 752.24944964 170.33651733 761.00701904 C172.3415156 763.137607 174.45867563 765.04805009 176.71330261 766.90963745 C181.43611159 770.8410835 184.98327276 775.61368057 188.75 780.4375 C189.52730469 781.39785156 190.30460937 782.35820313 191.10546875 783.34765625 C231.22819771 833.80406103 248.53150021 899.24330989 241.73461914 963.05395508 C236.07680633 1009.85527111 218.66336198 1053.80568889 188.75 1090.4375 C188.08411865 1091.25782715 188.08411865 1091.25782715 187.40478516 1092.09472656 C176.22304141 1105.77137472 163.865754 1118.76793697 149.75 1129.4375 C149.18458496 1129.86869141 148.61916992 1130.29988281 148.03662109 1130.74414062 C117.92835984 1153.62737931 83.73453827 1169.49869435 46.75 1177.4375 C45.21061768 1177.77418701 45.21061768 1177.77418701 43.64013672 1178.11767578 C12.87441132 1184.53479443 -21.55646266 1183.80758051 -52.25 1177.4375 C-53.27351562 1177.22851074 -54.29703125 1177.01952148 -55.3515625 1176.80419922 C-95.40050961 1168.34449283 -133.81762945 1149.29858839 -163.98046875 1121.5234375 C-166.0776005 1119.59595324 -168.21376355 1117.72988643 -170.375 1115.875 C-187.02614157 1101.33456651 -200.95708366 1083.28812347 -212.15478516 1064.29296875 C-213.19557361 1062.529707 -214.25929958 1060.78004381 -215.32421875 1059.03125 C-229.34897681 1035.44540933 -238.08586343 1009.29901658 -243.25 982.4375 C-243.41371094 981.64988281 -243.57742187 980.86226562 -243.74609375 980.05078125 C-249.5809147 951.26244977 -248.3920866 918.04917952 -242.25 889.4375 C-242.05744629 888.52726074 -241.86489258 887.61702148 -241.66650391 886.67919922 C-234.61196767 854.29433988 -220.97721872 823.10806123 -201.25 796.4375 C-200.8286377 795.86064453 -200.40727539 795.28378906 -199.97314453 794.68945312 C-194.82304245 787.66713509 -189.28818344 781.07270969 -183.37890625 774.6796875 C-182.92828056 774.18414981 -182.47765487 773.68861213 -182.01337385 773.17805815 C-180.25 771.4375 -180.25 771.4375 -177.58276033 769.36622667 C-172.25529861 764.89885888 -168.74775532 761.36495455 -168.02335525 754.24994254 C-167.83818781 750.1270859 -167.89107477 746.02786015 -167.9822998 741.90319824 C-167.98243757 740.05049454 -167.97757845 738.19778479 -167.96812916 736.34510517 C-167.95819402 732.36913358 -167.98244976 728.39540962 -168.03392124 724.41976261 C-168.11630869 718.04079655 -168.12310698 711.66304139 -168.11937714 705.28362274 C-168.11995686 697.50356712 -168.1389425 689.72398198 -168.18267527 681.94404712 C-168.25742064 668.60638612 -168.21880426 655.27300139 -168.09399414 641.93579102 C-168.08526777 640.99029682 -168.0765414 640.04480261 -168.0675506 639.07065707 C-168.0320459 635.25580428 -167.99586892 631.44095908 -167.95845315 627.62612453 C-167.86338242 617.88594377 -167.79332099 608.14562641 -167.72573036 598.40522176 C-167.69790718 594.40061155 -167.6693872 590.39600641 -167.64088026 586.39140102 C-167.62641571 584.35901966 -167.61198361 582.32663806 -167.59758338 580.29425624 C-167.52162053 569.57659438 -167.44347186 558.85894864 -167.36525899 548.141303 C-167.22499308 528.9164755 -167.08588144 509.69163986 -166.94775391 490.46679688 C-166.93553786 488.76662341 -166.93553786 488.76662341 -166.92307502 487.032103 C-166.8901139 482.44432117 -166.85715851 477.8565393 -166.82420978 473.26875737 C-166.66836946 451.56979365 -166.51214799 429.87083268 -166.35546875 408.171875 C-166.34337883 406.49712258 -166.34337883 406.49712258 -166.33104467 404.78853679 C-166.06069863 367.34697347 -165.78400564 329.90546056 -165.49917603 292.46400452 C-165.46997635 288.6233013 -165.44079311 284.78259796 -165.41162109 280.94189453 C-165.40456469 280.01342284 -165.39750828 279.08495114 -165.39023805 278.12834394 C-165.29053813 264.99464281 -165.19562811 251.86091564 -165.10467738 238.72715122 C-165.02953959 227.89010434 -164.94852543 217.0531158 -164.85951471 206.2161727 C-164.815852 200.88551278 -164.77482577 195.55487686 -164.74229431 190.22413635 C-164.71371328 185.54339882 -164.67676042 180.86280903 -164.63274193 176.18219185 C-164.61895928 174.56521035 -164.60814794 172.94819938 -164.60102272 171.33117485 C-164.53204481 156.3183704 -163.57143921 141.15354437 -160.125 126.5 C-159.91399658 125.59306396 -159.70299316 124.68612793 -159.4855957 123.75170898 C-149.18651651 81.90557368 -119.77620382 44.14260072 -83.13745117 21.95849609 C-71.09294161 14.91580199 -58.71868967 9.54474013 -45.3125 5.6875 C-44.67046631 5.50074707 -44.02843262 5.31399414 -43.36694336 5.12158203 C-29.08045823 1.27661578 -14.7486916 -0.12155727 0 0 Z M-73.25 25.4375 C-74.36181641 25.97165527 -74.36181641 25.97165527 -75.49609375 26.51660156 C-91.42670915 34.29292569 -104.53485183 44.16141081 -117.25 56.4375 C-117.91515625 57.03949219 -118.5803125 57.64148437 -119.265625 58.26171875 C-141.0550325 78.4729215 -152.14190736 110.06169553 -157.25 138.4375 C-157.42137765 139.2450001 -157.5927553 140.05250019 -157.76932621 140.88446999 C-158.4412608 145.85125581 -158.39259723 150.75446127 -158.38633728 155.76107788 C-158.38875535 156.91423976 -158.39117343 158.06740165 -158.39366478 159.25550783 C-158.39912005 162.46715066 -158.39996257 165.67875481 -158.398568 168.89040083 C-158.39805912 171.67300847 -158.40100457 174.45560868 -158.40386246 177.23821458 C-158.41240142 185.7600992 -158.41020174 194.28196278 -158.40509534 202.80384874 C-158.40260729 206.96313455 -158.40145938 211.12241946 -158.40071133 215.28170589 C-158.38353208 303.96721545 -157.69111695 392.64884139 -156.99680345 481.33114287 C-156.86292272 498.43671616 -156.73339663 515.54231772 -156.60717773 532.64794922 C-156.59458436 534.35454607 -156.59458436 534.35454607 -156.58173657 536.09561963 C-156.57335123 537.23201011 -156.56496589 538.36840058 -156.55632645 539.53922713 C-156.39940421 560.8015923 -156.23890704 582.06392922 -156.07672139 603.32625485 C-156.02862225 609.63994416 -155.9811315 615.95363766 -155.93416781 622.26733551 C-155.58155721 669.66188289 -155.13582266 717.0495483 -154.25 764.4375 C-157.22 764.4375 -160.19 764.4375 -163.25 764.4375 C-160.89046906 766.79703094 -159.47104383 766.92891413 -156.25 767.4375 C-156.930625 768.11296875 -157.61125 768.7884375 -158.3125 769.484375 C-201.36061915 812.59295499 -230.0367077 868.3995487 -230.44018555 930.34448242 C-230.43043038 943.16897474 -230.03560774 955.73146184 -228.25 968.4375 C-228.15348145 969.14310059 -228.05696289 969.84870117 -227.95751953 970.57568359 C-225.1489528 990.33710963 -219.20124768 1009.17794565 -211.25 1027.4375 C-210.78255371 1028.53288086 -210.78255371 1028.53288086 -210.30566406 1029.65039062 C-199.99983156 1053.62099363 -184.34922133 1074.78102234 -166.25 1093.4375 C-165.73469727 1093.97858398 -165.21939453 1094.51966797 -164.68847656 1095.07714844 C-156.79290939 1103.36142046 -148.46999914 1110.66072165 -139.25 1117.4375 C-138.19039063 1118.21867187 -137.13078125 1118.99984375 -136.0390625 1119.8046875 C-127.79718651 1125.6859274 -119.1725331 1130.67308233 -110.25 1135.4375 C-109.61223633 1135.78167969 -108.97447266 1136.12585937 -108.31738281 1136.48046875 C-56.24650327 1164.37272028 6.07261244 1168.52272431 62.36450195 1151.65380859 C92.26075619 1142.00660184 120.40936512 1125.7990079 143.4765625 1104.5234375 C145.5889424 1102.5852745 147.74998072 1100.72726729 149.9375 1098.875 C153.23854865 1095.99648558 156.10226735 1092.9102081 158.92578125 1089.56640625 C160.15919972 1088.12697784 161.42913567 1086.71817879 162.73046875 1085.33984375 C202.31470951 1043.30411995 219.57452269 984.50549892 217.89794922 927.69384766 C217.08754952 909.85703053 213.44656634 892.61918033 208.75 875.4375 C208.54068848 874.6527832 208.33137695 873.86806641 208.11572266 873.05957031 C200.65135582 845.80637837 185.27463385 818.60851011 166.75 797.4375 C166.01265625 796.591875 165.2753125 795.74625 164.515625 794.875 C160.09111284 789.8862883 155.51494149 785.10105976 150.75 780.4375 C145.305 782.9125 145.305 782.9125 139.75 785.4375 C139.64287493 690.24946735 139.621174 595.06202291 140.125 499.875 C140.13003886 498.91746338 140.13507772 497.95992677 140.14026928 496.97337389 C140.3922343 449.23231905 140.76063526 401.49300532 141.26171875 353.75390625 C141.27857302 352.14694197 141.27857302 352.14694197 141.29576778 350.50751376 C141.53469382 327.77500733 141.78564203 305.04266373 142.05537415 282.31050193 C142.30955335 260.86254193 142.54319898 239.41449129 142.72817707 217.96581268 C142.74277206 216.27489844 142.75752513 214.58398555 142.77243328 212.89307404 C142.8655021 202.30841783 142.93853414 191.72396343 142.97689629 181.13896179 C142.98794863 178.20683806 143.00574314 175.27489185 143.03016853 172.34284973 C143.40270433 125.88441142 130.57792371 87.10003194 97.75 53.4375 C70.81294195 26.4188145 32.74815484 10.98189236 -5.30078125 10.37109375 C-29.11552833 10.48053215 -51.78262346 15.0851646 -73.25 25.4375 Z " fill="#000000" transform="translate(246.25,-0.4375)"/>
<path d="M0 0 C1.16982422 1.07894531 1.16982422 1.07894531 2.36328125 2.1796875 C3.27722656 3.00210938 4.19117188 3.82453125 5.1328125 4.671875 C24.84452885 23.27800944 30.63939163 47.12790892 31.46036911 73.27138519 C31.68638008 81.68302276 31.84704151 90.09600036 32.00477624 98.50913596 C32.06212835 101.5406303 32.12194024 104.5720743 32.18172354 107.60352153 C32.36080604 116.68772058 32.53303087 125.77204159 32.70322418 134.85641098 C32.78466712 139.20286625 32.86701102 143.54930388 32.94966459 147.89573628 C34.29490531 218.64683655 35.37432596 289.40019282 36.21825886 360.15899086 C36.32147762 368.80056022 36.43022334 377.44204531 36.54296875 386.08349609 C37.8864067 489.77448336 37.45998767 593.48243866 37.36328125 697.1796875 C38.15184509 697.48595566 38.94040894 697.79222382 39.75286865 698.10777283 C43.58614182 699.68183118 46.42970667 702.12908004 49.61328125 704.7421875 C50.30639404 705.3108252 50.99950684 705.87946289 51.71362305 706.46533203 C85.98487701 735.11374821 107.05511623 772.92838061 113.36328125 817.1796875 C113.49476563 818.04078125 113.62625 818.901875 113.76171875 819.7890625 C118.13103012 854.0350165 110.11408523 891.22285548 93.36328125 921.1796875 C92.82550049 922.15010986 92.82550049 922.15010986 92.27685547 923.14013672 C87.39782709 931.8525334 81.98687711 939.66910576 75.36328125 947.1796875 C74.63238281 948.02015625 73.90148437 948.860625 73.1484375 949.7265625 C70.92223411 952.24620219 68.65497498 954.71954449 66.36328125 957.1796875 C65.64011719 957.96859375 64.91695313 958.7575 64.171875 959.5703125 C41.12640338 983.74661098 10.59269483 997.99345177 -21.63671875 1005.1796875 C-23.20099609 1005.53160156 -23.20099609 1005.53160156 -24.796875 1005.890625 C-66.66061481 1013.66612445 -113.27432464 1004.01471576 -148.43017578 979.95214844 C-155.94136896 974.56565218 -162.93917968 968.54234962 -169.63671875 962.1796875 C-170.16910156 961.67985352 -170.70148438 961.18001953 -171.25 960.66503906 C-184.22872644 948.41142206 -194.39981623 935.03930062 -202.63671875 919.1796875 C-202.96768555 918.54901367 -203.29865234 917.91833984 -203.63964844 917.26855469 C-223.78752856 878.34169348 -227.24795984 832.41117721 -214.41845703 790.58300781 C-206.67998409 766.79239955 -194.45877233 745.62167534 -177.04443359 727.64306641 C-175.64437397 726.18764542 -174.274809 724.70766754 -172.90625 723.22265625 C-163.96683829 713.71469858 -153.46062911 706.39562774 -142.63671875 699.1796875 C-142.16247499 696.10862713 -142.16247499 696.10862713 -142.21922302 692.40869045 C-142.21051585 691.70189667 -142.20180868 690.99510289 -142.19283766 690.26689112 C-142.16705004 687.87862924 -142.16265546 685.4907916 -142.15795898 683.10240173 C-142.14371967 681.38804184 -142.12814485 679.67369259 -142.11133766 677.95935595 C-142.06880639 673.24415997 -142.04469403 668.52901843 -142.0233376 663.81368561 C-141.99704736 658.74428756 -141.95345872 653.67503829 -141.91148376 648.60575008 C-141.84148873 639.92147911 -141.78102298 631.23718642 -141.72625732 622.55280685 C-141.64338298 609.55021283 -141.53084501 596.54798059 -141.41064453 583.54568481 C-141.37088641 579.21464408 -141.33125642 574.88360218 -141.29167175 570.55255985 C-141.28176191 569.46991884 -141.27185206 568.38727782 -141.26164192 567.2718295 C-141.14772198 554.76725727 -141.04321158 542.26260785 -140.93920898 529.75794983 C-140.92951556 528.59381686 -140.91982214 527.42968389 -140.90983498 526.23027416 C-140.8701158 521.45992309 -140.83041445 516.68957188 -140.79076642 511.91922021 C-140.68652532 499.38506681 -140.58055227 486.85092818 -140.47447455 474.31679022 C-140.28458226 451.87729728 -140.09551182 429.43779749 -139.90722656 406.99829102 C-139.89887797 406.0033806 -139.89887797 406.0033806 -139.89036073 404.98837098 C-139.76620279 390.19205025 -139.64217767 375.39572841 -139.51825676 360.5994057 C-139.46758369 354.54909917 -139.41689947 348.49879273 -139.36621094 342.44848633 C-139.3606493 341.78459977 -139.35508767 341.12071322 -139.3493575 340.43670889 C-139.15611002 317.36983828 -138.96166076 294.30297795 -138.76626873 271.23612541 C-138.66082722 258.78279121 -138.55597147 246.32945266 -138.45266724 233.87610054 C-138.41322687 229.12699985 -138.37374887 224.37789947 -138.33422852 219.62879944 C-138.32458513 218.46985833 -138.31494175 217.31091721 -138.30500615 216.11685667 C-138.15714433 198.38565263 -137.99942048 180.65455468 -137.83314312 162.92351379 C-137.7167785 150.51369767 -137.61143571 138.103912 -137.52606362 125.69384195 C-137.47171464 117.85875312 -137.40772194 110.02378282 -137.33625251 102.18883155 C-137.29567482 97.6943652 -137.25976176 93.19999092 -137.23670769 88.70539773 C-137.21562518 84.60120177 -137.181146 80.49733336 -137.13655162 76.39332755 C-137.12287523 74.92157511 -137.11393695 73.44976814 -137.11057973 71.97795598 C-137.04525683 47.1113039 -130.26850654 25.24641503 -112.63671875 7.1796875 C-111.79109375 6.2928125 -110.94546875 5.4059375 -110.07421875 4.4921875 C-109.26984375 3.7290625 -108.46546875 2.9659375 -107.63671875 2.1796875 C-107.12496094 1.66148438 -106.61320312 1.14328125 -106.0859375 0.609375 C-78.13478051 -26.08487771 -28.6520895 -24.75155294 0 0 Z M-108.63671875 9.1796875 C-109.30832031 9.74816406 -109.97992188 10.31664063 -110.671875 10.90234375 C-123.04943691 22.13516005 -130.95200677 41.12562134 -131.81799126 57.63565636 C-131.88402371 61.78546426 -131.88622647 65.93073739 -131.86499023 70.08081055 C-131.86399151 71.69353774 -131.86379633 73.30626559 -131.86432838 74.918993 C-131.86285998 79.34417811 -131.84804217 83.76922951 -131.83042455 88.19437623 C-131.81671753 92.00273199 -131.81028382 95.81108863 -131.80348653 99.61946195 C-131.71175947 148.62943079 -131.25552489 197.63850545 -130.80249822 246.64618862 C-130.70824125 256.89104358 -130.62040634 267.13594686 -130.53388602 277.38086969 C-130.44886912 287.42519038 -130.36032539 297.4694756 -130.26887316 307.51373976 C-130.21491715 313.44170454 -130.16219306 319.36967295 -130.11284065 325.29767799 C-130.06685953 330.80056558 -130.01645283 336.30339517 -129.96262932 341.80621147 C-129.94372556 343.81292947 -129.92635796 345.81966264 -129.91067505 347.82640839 C-129.8889789 350.5705544 -129.86162417 353.31458983 -129.832901 356.05867004 C-129.82803195 356.84176963 -129.82316289 357.62486922 -129.81814629 358.4316991 C-129.7696012 362.47740346 -129.60934279 366.51300645 -129.32733822 370.54931164 C-129.27395572 371.35792713 -129.22057321 372.16654263 -129.16557306 372.99966162 C-128.33135542 376.43844617 -126.2301328 377.83484543 -123.36694336 379.71704102 C-122.65159424 380.13783936 -121.93624512 380.5586377 -121.19921875 380.9921875 C-120.4729126 381.45230225 -119.74660645 381.91241699 -118.99829102 382.38647461 C-105.84741924 390.59316795 -94.22455245 395.69505357 -78.5546875 392.08203125 C-67.31416005 389.28679883 -56.21900365 385.93536292 -45.17456055 382.45288086 C-29.14180565 377.42893056 -12.34179887 377.21489623 2.92578125 384.8046875 C3.71082031 385.23007812 4.49585938 385.65546875 5.3046875 386.09375 C7.46143996 387.3029269 7.46143996 387.3029269 10.36328125 388.1796875 C10.38297439 386.97765214 10.40266752 385.77561678 10.42295742 384.53715611 C10.89452774 355.7560125 11.3671319 326.974886 11.840945 298.19377923 C11.89974867 294.62178068 11.95854393 291.04978198 12.01733398 287.4777832 C12.02903413 286.76690764 12.04073428 286.05603208 12.05278898 285.32361483 C12.24018158 273.93684062 12.42689914 262.55005544 12.61335009 251.16326577 C12.80585848 239.40749812 12.99913192 227.6517432 13.19306093 215.8959989 C13.30146719 209.32329865 13.4095394 202.75059322 13.5167675 196.17787361 C13.98552957 167.45874609 14.49168713 138.74106623 15.09692329 110.02446169 C15.47281631 92.55415228 15.47281631 92.55415228 15.65844727 75.08105469 C15.67042146 73.33585808 15.69150585 71.59070866 15.7199707 69.84570312 C16.06187113 48.37664862 11.51205698 29.36860804 -3.63671875 13.1796875 C-17.28567095 -0.78521267 -34.3843127 -9.71704002 -54.13623047 -10.11328125 C-74.46150447 -10.25133711 -93.29200674 -4.68304025 -108.63671875 9.1796875 Z M-128.63671875 384.1796875 C-128.75516496 438.55804705 -128.64943853 492.92841006 -128.13671875 547.3046875 C-127.73439689 589.97276005 -127.54612996 632.63508589 -127.57421875 675.3046875 C-127.57507477 676.60618996 -127.57593079 677.90769241 -127.57681274 679.24863434 C-127.58792621 694.89233369 -127.6076457 710.53601145 -127.63671875 726.1796875 C-130.27671875 722.5496875 -132.91671875 718.9196875 -135.63671875 715.1796875 C-145.39310368 719.08224147 -153.00617934 727.09326125 -160.63671875 734.1796875 C-161.24128906 734.73011719 -161.84585938 735.28054688 -162.46875 735.84765625 C-187.48270329 759.57283443 -202.76822837 796.74952598 -203.91796875 830.86328125 C-204.66729858 869.12073206 -194.09556952 907.50629762 -167.63671875 936.1796875 C-167.05035645 936.81519531 -166.46399414 937.45070313 -165.85986328 938.10546875 C-146.18432904 959.1421421 -122.58689906 974.54384877 -94.63671875 982.1796875 C-93.49589844 982.49421875 -92.35507813 982.80875 -91.1796875 983.1328125 C-63.05538203 989.93869425 -33.74510953 987.92176544 -6.63671875 978.1796875 C-5.94578125 977.93234863 -5.25484375 977.68500977 -4.54296875 977.43017578 C30.94077596 964.44175544 60.26837197 936.37384388 76.24951172 902.28955078 C78.16645506 897.99591399 79.82834072 893.62169535 81.36328125 889.1796875 C81.58999512 888.52419922 81.81670898 887.86871094 82.05029297 887.19335938 C94.49259334 850.2838659 91.15366036 811.34772817 74.18188477 776.49707031 C70.74053548 769.6646669 66.96910423 763.30515065 62.36328125 757.1796875 C61.74066406 756.34824219 61.11804688 755.51679687 60.4765625 754.66015625 C58.49739381 752.11092274 56.45398562 749.63823572 54.36328125 747.1796875 C53.55246094 746.22191406 52.74164063 745.26414062 51.90625 744.27734375 C43.99388417 735.17598935 34.87243207 727.18210511 24.36328125 721.1796875 C23.69941406 721.79457031 23.03554688 722.40945313 22.3515625 723.04296875 C21.02705078 724.25533203 21.02705078 724.25533203 19.67578125 725.4921875 C18.80566406 726.29269531 17.93554688 727.09320312 17.0390625 727.91796875 C14.36328125 730.1796875 14.36328125 730.1796875 9.36328125 733.1796875 C9.69328125 625.9296875 10.02328125 518.6796875 10.36328125 408.1796875 C4.91960227 406.62435065 0.93906099 405.89277824 -4.52734375 405.94921875 C-5.63450745 405.9492263 -5.63450745 405.9492263 -6.76403809 405.94923401 C-9.13844762 405.95270929 -11.51240123 405.97153658 -13.88671875 405.9921875 C-15.52506403 406.00038045 -17.16341042 406.00835495 -18.80175781 406.01611328 C-32.43107525 406.10081814 -45.93254713 406.33442904 -59.44921875 408.2421875 C-79.75715935 410.91858611 -97.62565924 410.38469744 -114.5625 397.7421875 C-118.55142372 394.48736726 -121.86737609 390.76757056 -125.15625 386.81640625 C-126.5577259 385.06779865 -126.5577259 385.06779865 -128.63671875 384.1796875 Z " fill="#000000" transform="translate(297.63671875,96.8203125)"/>
<path d="M0 0 C0.99 0 1.98 0 3 0 C2.96519531 1.48886719 2.96519531 1.48886719 2.9296875 3.0078125 C2.54000181 26.45874843 7.95284169 47.38171998 24.25 64.875 C40.51185344 80.06958154 64.97222269 88.97180077 86 95 C86 95.99 86 96.98 86 98 C84.46163292 98.65365399 82.91911234 99.29753603 81.375 99.9375 C80.51648438 100.29714844 79.65796875 100.65679688 78.7734375 101.02734375 C65.16709817 105.79914444 49.80408967 103.09705218 36.8125 97.66796875 C18.32259772 87.95585253 5.37916724 68.85438765 -1.1875 49.5 C-6.19725809 33.00998797 -5.15970496 16.28531878 0 0 Z " fill="#000000" transform="translate(165,923)"/>
<path d="M0 0 C2.47883672 0.42593053 4.96022838 0.83318902 7.44262695 1.23779297 C9.04111165 1.50365558 10.63942603 1.77054476 12.23754883 2.03857422 C12.96885513 2.15949432 13.70016144 2.28041443 14.45362854 2.40499878 C18.58311738 3.12104091 22.45133369 4.11397289 26.38989258 5.54638672 C26.38989258 6.53638672 26.38989258 7.52638672 26.38989258 8.54638672 C0.61085928 13.45348919 0.61085928 13.45348919 -11.79760742 15.35888672 C-12.96888184 15.54414917 -12.96888184 15.54414917 -14.16381836 15.7331543 C-25.06788596 17.35354725 -35.94817816 16.59766984 -45.42260742 10.29638672 C-46.14448242 9.71888672 -46.86635742 9.14138672 -47.61010742 8.54638672 C-47.23606228 6.03494076 -46.9423414 4.83972501 -45.00854492 3.13232422 C-44.34081055 2.73271484 -43.67307617 2.33310547 -42.98510742 1.92138672 C-42.3328418 1.51662109 -41.68057617 1.11185547 -41.00854492 0.69482422 C-28.22595679 -5.42582873 -13.39415259 -2.3042836 0 0 Z " fill="#000000" transform="translate(503.610107421875,693.45361328125)"/>
<path d="M0 0 C2.49098053 0.42081163 4.98361436 0.83031086 7.47680664 1.23779297 C9.08824322 1.50406453 10.69957515 1.77097036 12.31079102 2.03857422 C13.4080526 2.21995438 13.4080526 2.21995438 14.52748108 2.40499878 C19.70350251 3.28233049 24.81687827 4.3656726 29.93188477 5.54638672 C29.93188477 6.53638672 29.93188477 7.52638672 29.93188477 8.54638672 C21.40881179 10.86289876 12.84529933 12.54897321 4.1237793 13.90893555 C2.06424335 14.23272982 0.00803207 14.57373804 -2.04858398 14.91552734 C-16.0692366 17.17190725 -30.05386714 18.90938537 -42.25561523 10.29638672 C-43.15280273 9.43013672 -43.15280273 9.43013672 -44.06811523 8.54638672 C-43.85717773 6.71044922 -43.85717773 6.71044922 -43.06811523 4.54638672 C-29.4215392 -4.91733076 -15.28626092 -2.58312641 0 0 Z " fill="#000000" transform="translate(500.068115234375,576.45361328125)"/>
<path d="M0 0 C2.47883672 0.42593053 4.96022838 0.83318902 7.44262695 1.23779297 C9.04111165 1.50365558 10.63942603 1.77054476 12.23754883 2.03857422 C12.96885513 2.15949432 13.70016144 2.28041443 14.45362854 2.40499878 C18.58311738 3.12104091 22.45133369 4.11397289 26.38989258 5.54638672 C26.38989258 6.53638672 26.38989258 7.52638672 26.38989258 8.54638672 C0.61085928 13.45348919 0.61085928 13.45348919 -11.79760742 15.35888672 C-12.96888184 15.54414917 -12.96888184 15.54414917 -14.16381836 15.7331543 C-25.06788596 17.35354725 -35.94817816 16.59766984 -45.42260742 10.29638672 C-46.14448242 9.71888672 -46.86635742 9.14138672 -47.61010742 8.54638672 C-47.23606228 6.03494076 -46.9423414 4.83972501 -45.00854492 3.13232422 C-44.34081055 2.73271484 -43.67307617 2.33310547 -42.98510742 1.92138672 C-42.3328418 1.51662109 -41.68057617 1.11185547 -41.00854492 0.69482422 C-28.22595679 -5.42582873 -13.39415259 -2.3042836 0 0 Z " fill="#000000" transform="translate(503.610107421875,460.45361328125)"/>
<path d="M0 0 C2.49098053 0.42081163 4.98361436 0.83031086 7.47680664 1.23779297 C9.08824322 1.50406453 10.69957515 1.77097036 12.31079102 2.03857422 C13.4080526 2.21995438 13.4080526 2.21995438 14.52748108 2.40499878 C19.70350251 3.28233049 24.81687827 4.3656726 29.93188477 5.54638672 C29.93188477 6.53638672 29.93188477 7.52638672 29.93188477 8.54638672 C21.16540672 10.68661653 12.38282084 12.46086391 3.47558594 13.90893555 C1.49739729 14.23339261 -0.47752969 14.57427473 -2.45288086 14.91552734 C-16.41361374 17.20177977 -30.13223456 18.8540672 -42.25561523 10.29638672 C-43.15280273 9.43013672 -43.15280273 9.43013672 -44.06811523 8.54638672 C-43.85717773 6.71044922 -43.85717773 6.71044922 -43.06811523 4.54638672 C-29.4215392 -4.91733076 -15.28626092 -2.58312641 0 0 Z " fill="#000000" transform="translate(500.068115234375,343.45361328125)"/>
<path d="M0 0 C2.47883672 0.42593053 4.96022838 0.83318902 7.44262695 1.23779297 C9.04111165 1.50365558 10.63942603 1.77054476 12.23754883 2.03857422 C12.96885513 2.15949432 13.70016144 2.28041443 14.45362854 2.40499878 C18.58311738 3.12104091 22.45133369 4.11397289 26.38989258 5.54638672 C26.38989258 6.53638672 26.38989258 7.52638672 26.38989258 8.54638672 C-0.53182536 13.42781303 -0.53182536 13.42781303 -12.36010742 15.35888672 C-13.45415894 15.54414917 -13.45415894 15.54414917 -14.5703125 15.7331543 C-25.31326072 17.44634471 -36.11901956 16.4840461 -45.42260742 10.29638672 C-46.14448242 9.71888672 -46.86635742 9.14138672 -47.61010742 8.54638672 C-47.23606228 6.03494076 -46.9423414 4.83972501 -45.00854492 3.13232422 C-44.34081055 2.73271484 -43.67307617 2.33310547 -42.98510742 1.92138672 C-42.3328418 1.51662109 -41.68057617 1.11185547 -41.00854492 0.69482422 C-28.22595679 -5.42582873 -13.39415259 -2.3042836 0 0 Z " fill="#000000" transform="translate(503.610107421875,227.45361328125)"/>
</svg>
