<?xml version="1.0" encoding="UTF-8"?>
<svg version="1.1" xmlns="http://www.w3.org/2000/svg" viewBox="0 0 875 1181" width="875" height="1181">
<path d="M0 0 C23.29188245 -0.14823444 46.58355377 -0.26381583 69.87584871 -0.31917858 C74.97519998 -0.33203629 80.07445426 -0.35402325 85.17375183 -0.38041687 C91.68771382 -0.41380552 98.20145413 -0.42597226 104.71551895 -0.42194748 C107.01805183 -0.42344455 109.32059242 -0.43150551 111.62307358 -0.44701004 C132.36835909 -0.57811837 149.0479321 2.78715861 164.39009094 17.92341614 C180.20392899 34.49962201 183.62246171 55.56972485 183.56904602 77.61457825 C183.5658908 80.33316874 183.58939521 83.05066291 183.61470032 85.76911926 C183.69552958 107.88329911 178.57157903 127.35167139 162.94087219 143.84919739 C149.62761278 156.43421013 134.42463994 161.07707572 116.51118469 161.35310364 C115.38767609 161.37388474 114.26416748 161.39466583 113.10661316 161.41607666 C109.53059287 161.48126963 105.95450142 161.54031623 102.37837219 161.59919739 C99.94867744 161.64241138 97.51898979 161.68602659 95.08930969 161.73005676 C89.14407162 161.83691993 83.19876334 161.93874166 77.25337219 162.03669739 C77.26225464 163.26633713 77.27113708 164.49597687 77.2802887 165.76287842 C77.36236712 177.51074557 77.42180387 189.25855251 77.46062088 201.00664425 C77.48124966 207.04242089 77.50909836 213.07796108 77.55513 219.11360168 C78.20234698 306.33660279 58.64675448 389.19970492 2.25337219 458.03669739 C1.54309875 458.93904114 0.83282532 459.84138489 0.10102844 460.77107239 C-13.57312062 477.98471255 -29.4522709 494.46003898 -46.74662781 508.03669739 C-47.84133811 508.94151924 -48.93366165 509.84923412 -50.02397156 510.75935364 C-77.24363099 533.31483261 -109.48640592 551.67438983 -142.84819031 563.36384583 C-151.60122373 566.48433782 -157.83433719 569.99840364 -162.74662781 578.03669739 C-164.63138705 583.69097511 -164.6870436 589.74773206 -162.18412781 595.22419739 C-155.09535513 607.35549908 -142.24231152 611.62657337 -129.87162781 616.72419739 C-97.84411872 629.97380885 -68.65526529 648.03721999 -42.74662781 671.03669739 C-41.43447028 672.16209682 -40.12202462 673.2871605 -38.80912781 674.41169739 C-17.45133949 693.2487167 1.45180589 714.28684824 17.25337219 738.03669739 C17.6624884 738.65125793 18.07160461 739.26581848 18.49311829 739.89900208 C31.85307427 760.12283247 43.44345631 781.44180606 52.25337219 804.03669739 C52.6226886 804.97207336 52.992005 805.90744934 53.37251282 806.87117004 C62.81803778 831.05219669 69.4212769 856.36375948 73.25337219 882.03669739 C73.45803101 883.37529564 73.45803101 883.37529564 73.66682434 884.74093628 C77.42033975 910.54692603 76.60262873 936.62409369 76.45936584 962.62910461 C76.42823173 968.89189074 76.41488154 975.15471495 76.39985657 981.41755676 C76.36804095 993.62403485 76.31709469 1005.83034695 76.25337219 1018.03669739 C76.91337219 1017.70669739 77.57337219 1017.37669739 78.25337219 1017.03669739 C79.74088686 1016.9268574 81.23310714 1016.87764919 82.7245636 1016.85969543 C83.65378632 1016.8468602 84.58300903 1016.83402496 85.54039001 1016.82080078 C86.55168976 1016.81341385 87.5629895 1016.80602692 88.60493469 1016.79841614 C89.65176422 1016.79034439 90.69859375 1016.78227264 91.77714539 1016.7739563 C94.00488117 1016.76009561 96.23263837 1016.74938239 98.46040344 1016.74153137 C101.81630656 1016.72451215 105.17117358 1016.68066857 108.52680969 1016.63630676 C130.07234685 1016.47987284 147.52857549 1019.49909747 163.46040344 1035.12263489 C180.08308078 1052.1116988 183.80437061 1072.75714992 183.69941711 1095.58552551 C183.69090537 1098.40072344 183.71977608 1101.21388572 183.75141907 1104.02888489 C183.84114458 1126.80041947 177.94540808 1145.55611493 162.01509094 1162.40388489 C148.76305379 1175.28720742 132.62198526 1179.37672487 114.59712219 1179.51325989 C111.50132265 1179.54225263 108.40552375 1179.57131268 105.30972522 1179.60041362 C101.70213681 1179.63426609 98.09454597 1179.66780172 94.48694801 1179.70062256 C77.7150882 1179.85336813 60.94371295 1180.01887392 44.172773 1180.25316107 C-29.10946683 1181.26962566 -102.39427622 1181.22499037 -175.6819575 1181.22188503 C-189.18212152 1181.22150213 -202.68226162 1181.22933678 -216.18241882 1181.24250793 C-297.26288628 1181.32007782 -378.32077102 1181.11353634 -492.4946456 1179.09917974 C-495.6063984 1179.0393917 -498.71816185 1178.98019445 -501.82992935 1178.92117691 C-522.62803141 1178.52564782 -543.42419995 1178.0765468 -564.21983337 1177.56697083 C-568.93454482 1177.45304365 -573.64936565 1177.34435443 -578.3642152 1177.23632663 C-584.43215267 1177.0972209 -590.50000085 1176.95461202 -596.56781578 1176.81024361 C-599.03502377 1176.75171882 -601.50224852 1176.69389516 -603.96949196 1176.63688469 C-656.41857025 1175.41486161 -656.41857025 1175.41486161 -672.84428406 1160.06404114 C-687.4880778 1144.45802686 -692.35535777 1126.23474171 -692.05912781 1105.28669739 C-692.05072876 1104.23403687 -692.05072876 1104.23403687 -692.04216003 1103.16011047 C-691.84603092 1078.73021247 -688.93126777 1057.97005992 -671.35209656 1039.51325989 C-658.02418743 1026.84475256 -642.99025537 1023.67368633 -625.07865906 1023.84138489 C-623.9178331 1023.84421478 -622.75700714 1023.84704468 -621.56100464 1023.84996033 C-617.89360255 1023.86105648 -614.22645471 1023.8861411 -610.55912781 1023.91169739 C-608.05587615 1023.92174085 -605.55262063 1023.9308643 -603.04936218 1023.93904114 C-596.9483656 1023.9609611 -590.84751488 1023.99433178 -584.74662781 1024.03669739 C-584.74884842 1023.43584824 -584.75106903 1022.83499908 -584.75335693 1022.21594238 C-585.0826072 928.4719591 -585.10645513 837.02178063 -532.74662781 755.03669739 C-532.07373718 753.98224426 -531.40084656 752.92779114 -530.70756531 751.84138489 C-528.76322298 748.8745199 -526.77013167 745.95007866 -524.74662781 743.03669739 C-523.62707703 741.41054504 -523.62707703 741.41054504 -522.48490906 739.75154114 C-510.36028953 722.33509748 -496.4347221 706.68824435 -481.49662781 691.66169739 C-480.84718201 691.00749817 -480.19773621 690.35329895 -479.52861023 689.67927551 C-475.09775701 685.26361379 -470.49746351 681.10436701 -465.74662781 677.03669739 C-465.18733582 676.54943176 -464.62804382 676.06216614 -464.05180359 675.56013489 C-434.17738785 649.68620011 -398.05655288 629.95559788 -360.76274109 617.20393372 C-352.04892217 614.12559254 -345.55369322 610.21638759 -340.75444031 602.16169739 C-336.79611553 593.8154622 -336.14916113 584.55828444 -339.24662781 575.78669739 C-345.91632271 561.44452128 -358.66805903 557.35605503 -372.49662781 551.91169739 C-403.68695409 539.37981286 -432.05137175 522.74609294 -457.74662781 501.03669739 C-458.66444031 500.30322083 -459.58225281 499.56974426 -460.52787781 498.81404114 C-468.106226 492.65175028 -475.07672124 485.92155031 -481.99662781 479.03669739 C-482.91935486 478.12315491 -483.84208191 477.20961243 -484.79277039 476.26838684 C-490.87041756 470.16345873 -496.37891337 463.76786698 -501.74662781 457.03669739 C-503.22256173 455.26316876 -504.70136181 453.492018 -506.18412781 451.72419739 C-511.36167857 445.38012739 -516.11423487 438.7845614 -520.74662781 432.03669739 C-521.17169617 431.42149231 -521.59676453 430.80628723 -522.03471375 430.17243958 C-545.68509981 395.66672206 -562.86992682 355.46622769 -571.25688171 314.4243927 C-571.75308061 312.00523756 -572.28590568 309.59598654 -572.82084656 307.18513489 C-579.61867958 275.44850493 -579.14231285 243.3609338 -578.95262146 211.08833313 C-578.92141499 205.20071211 -578.90812234 199.3130499 -578.89311218 193.42536926 C-578.8613535 181.96237377 -578.81045052 170.49955623 -578.74662781 159.03669739 C-579.50645966 159.03833389 -580.2662915 159.0399704 -581.04914856 159.04165649 C-610.24536227 159.09615021 -610.24536227 159.09615021 -623.62162781 158.72419739 C-624.904245 158.70163879 -626.18686218 158.6790802 -627.50834656 158.65583801 C-645.8214427 158.14559471 -660.89661779 153.89981795 -674.05131531 140.89607239 C-680.65535604 133.89004657 -685.44652475 126.08937736 -688.74662781 117.03669739 C-689.00846863 116.34777405 -689.27030945 115.65885071 -689.54008484 114.9490509 C-692.39632369 106.28636798 -692.2011575 97.58763149 -692.13774109 88.56867981 C-692.12176261 85.87194916 -692.13759759 83.17673987 -692.15678406 80.48005676 C-692.18434467 58.01970702 -688.0978335 39.5155387 -672.43412781 22.52888489 C-660.87022989 11.30733921 -647.2465198 6.84188735 -631.43293762 6.4397583 C-630.20594339 6.4026403 -628.97894917 6.3655223 -627.7147733 6.32727951 C-613.19290356 5.91595254 -598.66662941 5.75621923 -584.14013298 5.61178738 C-580.01509856 5.56998115 -575.89010952 5.52404323 -571.76511288 5.47868729 C-563.67079701 5.3903227 -555.57644637 5.30568449 -547.48207754 5.22232848 C-537.88427183 5.12333165 -528.2865096 5.02037454 -518.68874595 4.91739389 C-498.02691553 4.69589548 -477.36502686 4.48017578 -456.70311897 4.26604302 C-455.11479743 4.24958183 -455.11479743 4.24958183 -453.49438858 4.23278809 C-452.43371972 4.22179629 -451.37305086 4.21080448 -450.28024052 4.1994796 C-439.54905533 4.08820295 -428.81788179 3.97582025 -418.0867091 3.86334546 C-358.64015775 3.24035373 -299.1934788 2.63042835 -239.74662781 2.03669739 C-238.87555889 2.02799712 -238.00448997 2.01929685 -237.10702503 2.01033294 C-160.94566428 1.24990764 -84.78402752 0.53357486 -8.62029076 0.05480385 C-5.74685944 0.03669885 -2.87342965 0.01836692 0 0 Z M-670.55912781 27.16169739 C-681.25910003 41.1922513 -684.43062345 56.71450776 -683.74662781 74.03669739 C-683.71421707 75.69943558 -683.68304732 77.36219827 -683.65287781 79.02497864 C-683.17058999 98.46064376 -680.01581241 115.12970558 -666.16850281 129.74372864 C-654.06441165 141.20356978 -641.76411832 143.36114403 -625.55411625 142.99296379 C-624.57890239 142.96445398 -623.60368853 142.93594418 -622.59892273 142.90657043 C-621.5318254 142.88062868 -620.46472807 142.85468693 -619.36529446 142.82795906 C-617.04358996 142.77069865 -614.72195602 142.71051826 -612.40039444 142.64772987 C-608.62452154 142.54564285 -604.84851963 142.45125072 -601.07240295 142.35864258 C-595.58182749 142.22331472 -590.09134429 142.08489142 -584.60090637 141.94410706 C-569.7151256 141.56335259 -554.82855624 141.21503297 -539.94194031 140.86872864 C-539.17423569 140.85082275 -538.40653107 140.83291687 -537.61556268 140.81446838 C-503.51580609 140.01975027 -469.414424 139.41035321 -435.30912781 138.91169739 C-434.62232972 138.90163052 -433.93553164 138.89156365 -433.22792149 138.88119173 C-389.58977293 138.24246897 -345.95043264 137.77059201 -302.30912781 137.41169739 C-300.43616468 137.39602848 -300.43616468 137.39602848 -298.52536392 137.38004303 C-239.40583993 136.88683906 -180.29463896 136.96571067 -121.17590612 137.42378372 C-115.97491955 137.46402694 -110.77392388 137.50288413 -105.57292175 137.5410614 C-71.03783424 137.79493533 -36.50383214 138.09192779 -1.97016525 138.50004768 C14.20867512 138.69092615 30.38773181 138.85975608 46.56698608 139.01139832 C48.38639531 139.02853262 50.20580242 139.04589374 52.02520752 139.0634613 C63.1934991 139.17126697 74.36161333 139.26405401 85.5303421 139.31151485 C89.82964697 139.32982206 94.12866483 139.35397801 98.42781067 139.39585876 C102.35574843 139.43376397 106.28329947 139.45228153 110.21141434 139.45571136 C111.63225785 139.46013263 113.05310068 139.47127965 114.47382736 139.49002838 C128.35626884 139.66487584 138.82958055 136.42135715 149.25337219 127.03669739 C161.62672738 113.16920119 163.68216202 96.18247398 163.62837219 78.34919739 C163.62749603 77.64081726 163.62661987 76.93243713 163.62571716 76.20259094 C163.55489977 58.86629787 161.24525894 43.48177644 148.94087219 30.16169739 C136.72115731 19.00338313 123.14709332 17.58956788 107.30732727 17.55354309 C105.61248095 17.53891804 103.91764538 17.52300015 102.22282219 17.50590324 C97.60865097 17.46295592 92.99453396 17.43790334 88.38022208 17.41585326 C83.3992797 17.38877261 78.41848537 17.34463945 73.43765259 17.30239868 C64.97427445 17.23269422 56.51087729 17.17274215 48.04737854 17.11976624 C35.85857418 17.04321138 23.67000539 16.94583846 11.48139954 16.84284973 C7.48526141 16.80939609 3.48912161 16.77614617 -0.50701904 16.74299622 C-2.00912555 16.73053018 -2.00912555 16.73053018 -3.54157764 16.7178123 C-14.23081662 16.62956989 -24.92010343 16.54775294 -35.60939562 16.46625566 C-67.13960211 16.22574881 -98.66974196 15.97743836 -130.19975281 15.71247864 C-131.25548988 15.70360941 -131.25548988 15.70360941 -132.33255497 15.694561 C-188.49570394 15.22215004 -244.65769832 14.64780825 -300.81965259 14.05139652 C-304.03989506 14.01720444 -307.26013787 13.98304491 -310.48038077 13.94889331 C-353.37888574 13.49385585 -396.27733289 13.03359016 -439.17566931 12.56291991 C-455.52073282 12.38363052 -471.86581685 12.20628933 -488.21091497 12.03018445 C-497.73710438 11.92744556 -507.26327811 11.82353827 -516.78942108 11.71657372 C-535.30079081 11.50909833 -553.81212904 11.31093048 -572.32401121 11.15457767 C-573.84006286 11.14173918 -575.35611435 11.12888177 -576.87216568 11.11600494 C-577.98298602 11.1065722 -577.98298602 11.1065722 -579.11624718 11.0969489 C-584.20960599 11.05268149 -589.30278902 10.99820761 -594.39599228 10.93883514 C-601.03539325 10.86152917 -607.67472624 10.80507143 -614.31446636 10.76382661 C-616.68603766 10.74589731 -619.0575697 10.72113172 -621.42898667 10.68867469 C-640.52455846 10.43391364 -657.14267971 11.77421852 -670.55912781 27.16169739 Z M-574.74662781 159.03669739 C-574.76942383 169.34821304 -574.78768244 179.65971134 -574.79843998 189.97124672 C-574.80360887 194.76179075 -574.81059429 199.55231632 -574.82206726 204.34284973 C-575.116741 241.33487603 -575.116741 241.33487603 -572.05912781 278.16169739 C-571.79857605 280.11692322 -571.79857605 280.11692322 -571.53276062 282.11164856 C-567.18770931 313.71260856 -558.3398133 343.76878052 -545.74662781 373.03669739 C-545.20401306 374.29788391 -545.20401306 374.29788391 -544.6504364 375.58454895 C-531.29537411 406.12640076 -512.12665214 435.14606379 -489.23490906 459.39607239 C-486.96165555 461.80850468 -484.79100378 464.28133775 -482.62162781 466.78669739 C-466.84349664 484.30857924 -448.37321666 499.08623088 -428.74662781 512.03669739 C-427.40471375 512.93581848 -427.40471375 512.93581848 -426.03569031 513.85310364 C-404.52287315 527.93483726 -381.76548321 538.82936015 -357.57597351 547.46296692 C-345.47173267 551.91165495 -336.18230566 559.14970247 -330.57084656 570.98200989 C-326.67550495 580.69267191 -325.96471236 592.00049231 -329.37162781 602.03669739 C-334.42407451 613.65556436 -341.47743001 621.1050013 -353.30912781 625.92341614 C-355.14335236 626.62413807 -356.97779345 627.32446867 -358.81886292 628.00700378 C-362.15519084 629.24823038 -365.46841731 630.54814315 -368.78178406 631.84919739 C-369.45234329 632.11202011 -370.12290253 632.37484283 -370.81378174 632.64562988 C-399.93547273 644.16673255 -425.96526775 660.68900636 -450.18412781 680.41169739 C-451.00783875 681.07943176 -451.83154968 681.74716614 -452.68022156 682.43513489 C-460.94413713 689.35087189 -468.69069089 696.79885815 -476.30912781 704.41169739 C-477.19020203 705.28052551 -478.07127625 706.14935364 -478.97904968 707.04450989 C-485.00663779 713.05875278 -490.47424314 719.35423419 -495.74662781 726.03669739 C-496.31131775 726.74213684 -496.87600769 727.44757629 -497.45780945 728.1743927 C-510.61906795 744.7029655 -521.90632752 762.35089303 -531.74662781 781.03669739 C-532.1006366 781.70620422 -532.45464539 782.37571106 -532.81938171 783.06550598 C-546.4702992 809.07976027 -555.89734073 836.75433053 -562.1738739 865.42634583 C-562.65447874 867.61672388 -563.15717104 869.79962126 -563.67240906 871.98200989 C-568.38087582 893.1821833 -569.19192593 914.88664719 -569.03959656 936.51716614 C-569.03397817 938.92238089 -569.02971875 941.32759915 -569.0267334 943.7328186 C-569.01546073 949.96161443 -568.98615246 956.19018911 -568.95262146 962.41889954 C-568.92153386 968.81555696 -568.90814674 975.21225129 -568.89311218 981.60896301 C-568.86125977 994.08496986 -568.81028592 1006.56081501 -568.74662781 1019.03669739 C-563.79662781 1019.03669739 -558.84662781 1019.03669739 -553.74662781 1019.03669739 C-553.73854095 1017.95215775 -553.7304541 1016.8676181 -553.72212219 1015.75021362 C-553.64385018 1005.41245786 -553.55592508 995.07482079 -553.45910072 984.73722172 C-553.40964555 979.42553252 -553.3633219 974.11385853 -553.32475281 968.80207825 C-552.57594217 867.07754839 -552.57594217 867.07754839 -516.74662781 826.03669739 C-515.9151825 825.07118958 -515.08373718 824.10568176 -514.22709656 823.11091614 C-486.56092796 791.58113015 -445.1141025 770.25517449 -403.1395874 767.27502441 C-398.07273176 766.96891169 -393.00465683 766.71094266 -387.93412781 766.47419739 C-359.03667749 765.23561936 -359.03667749 765.23561936 -330.80912781 759.34919739 C-329.9556073 759.09718567 -329.10208679 758.84517395 -328.22270203 758.58552551 C-311.56293783 753.40179382 -298.67737501 745.03424823 -290.33647156 729.39216614 C-275.24090452 696.38503943 -274.91310171 648.78670176 -273.80961609 613.0337677 C-273.75106582 611.17740651 -273.66970149 609.32180338 -273.58647156 607.46638489 C-273.15588078 591.92767417 -276.77813087 577.56571802 -287.12162781 565.72419739 C-288.64452843 564.14340137 -290.18509893 562.57934768 -291.74662781 561.03669739 C-292.63414734 560.11630676 -292.63414734 560.11630676 -293.53959656 559.17732239 C-308.82503248 544.4655121 -333.53352231 536.35924199 -352.99662781 528.72419739 C-380.68781875 517.85803385 -406.05492659 501.99660976 -429.1401825 483.33454895 C-430.69338209 482.07971475 -432.25502468 480.83535331 -433.81694031 479.59138489 C-438.49735146 475.82920154 -442.93110585 472.00872956 -447.09819031 467.68513489 C-448.76124793 466.02207727 -450.50097372 464.53967779 -452.30912781 463.03669739 C-509.09444303 413.81544926 -541.76884802 334.48845012 -547.74662781 261.03669739 C-548.0177701 256.35605836 -548.18518192 251.67608463 -548.32475281 246.98982239 C-548.34502974 246.33856825 -548.36530666 245.68731411 -548.38619804 245.016325 C-548.89180916 228.49930829 -548.86329287 211.98174274 -548.81529236 195.45875549 C-548.80479594 191.44112203 -548.80044031 187.42348143 -548.79545593 183.40583801 C-548.78494284 175.61610398 -548.76746021 167.82641191 -548.74662781 160.03669739 C-561.61662781 159.54169739 -561.61662781 159.54169739 -574.74662781 159.03669739 Z M-544.74662781 160.03669739 C-544.7936215 169.98380122 -544.82882867 179.93087731 -544.85025215 189.87807083 C-544.86055058 194.50032305 -544.87444346 199.12249765 -544.89750671 203.7447052 C-545.15245657 256.29739683 -539.67544614 304.97182551 -519.74662781 354.03669739 C-515.79176852 352.39200831 -512.89890525 349.66363312 -509.74662781 346.84919739 C-496.13266145 334.98591173 -481.87910848 324.219063 -465.74662781 316.03669739 C-464.79916687 315.54943176 -463.85170593 315.06216614 -462.87553406 314.56013489 C-435.91840412 301.50214921 -404.96365192 300.1619819 -376.75834656 309.69685364 C-354.74778606 317.47861459 -334.73483776 329.14622611 -314.74662781 341.03669739 C-289.46553355 356.02202077 -265.24002027 370.36669506 -235.57475281 373.87263489 C-234.58765697 373.99253847 -234.58765697 373.99253847 -233.58061981 374.11486435 C-210.52090472 376.91255501 -187.38030578 379.04370398 -164.26249695 381.29396057 C-159.23941493 381.78446412 -154.21692811 382.28092131 -149.19441223 382.77718258 C-103.31572144 387.65110192 -103.31572144 387.65110192 -57.24662781 389.22419739 C-55.62048981 389.21595662 -53.99435042 389.20798532 -52.36820984 389.20027161 C-43.78351742 389.14668789 -35.19915539 389.0327459 -26.62162781 388.66169739 C-25.84754578 388.63100159 -25.07346375 388.60030579 -24.27592468 388.56867981 C-19.15268794 388.33233246 -19.15268794 388.33233246 -14.74662781 386.03669739 C-13.21454776 383.78030712 -11.9047101 381.61604116 -10.62162781 379.22419739 C-10.23692322 378.52133606 -9.85221863 377.81847473 -9.45585632 377.09431458 C3.5153639 353.04704536 13.0021282 328.35238534 20.25337219 302.03669739 C20.47509094 301.24730774 20.69680969 300.45791809 20.92524719 299.64460754 C23.58077424 290.05196466 25.04920596 280.32243005 26.44087219 270.47419739 C26.69175598 268.69940002 26.69175598 268.69940002 26.94770813 266.88874817 C28.83073779 252.80096853 29.37578929 238.65340691 29.78852844 224.45857239 C29.83176705 223.03044622 29.87518237 221.60232539 29.91876221 220.17420959 C30.00856907 217.21305362 30.09662985 214.25185293 30.18330383 211.29060364 C30.29346351 207.53006459 30.40755054 203.76965713 30.52288151 200.00927353 C30.6126321 197.07163036 30.70056419 194.13393488 30.7879467 191.1962204 C30.82932065 189.81058041 30.87117049 188.42495452 30.91354561 187.03934479 C31.1671027 178.70227452 31.30966129 170.37768566 31.25337219 162.03669739 C6.7951736 161.98591067 -17.66079123 161.97619091 -42.11772156 162.25544739 C-43.5859093 162.27202172 -43.5859093 162.27202172 -45.0837574 162.28893089 C-49.18769358 162.33530128 -53.29162748 162.38186824 -57.39555836 162.42870617 C-109.32370484 163.01533998 -161.25299794 163.20264189 -213.18412781 163.22419739 C-214.53188325 163.22476458 -214.53188325 163.22476458 -215.90686607 163.22534323 C-273.75445371 163.24661684 -331.59155762 162.8542027 -389.43412781 162.09919739 C-390.2739525 162.08825531 -391.11377719 162.07731322 -391.97905111 162.06603956 C-420.92934603 161.68797151 -449.87930656 161.28087296 -478.82719421 160.74714661 C-480.10206223 160.72373294 -481.37693026 160.70031927 -482.69043064 160.6761961 C-488.5556664 160.56781742 -494.4208102 160.45633625 -500.28585815 160.33822632 C-515.10746483 160.04859085 -529.92235631 159.98542215 -544.74662781 160.03669739 Z M35.25337219 162.03669739 C35.20738641 172.25703818 35.34641065 182.4403203 35.68171692 192.65406799 C38.66790106 286.73921729 23.91254291 377.67735901 -42.48100281 449.56013489 C-44.35808942 451.61198473 -46.18037417 453.69330693 -47.99662781 455.79841614 C-57.63099629 466.83339831 -68.1821987 477.05303071 -79.74662781 486.03669739 C-80.83787336 486.93707614 -81.9262425 487.84094841 -83.01225281 488.74763489 C-108.91849442 510.22998666 -138.84868642 526.84889723 -170.18412781 538.97419739 C-192.71733847 547.78379161 -218.40499218 558.17621308 -229.74662781 581.03669739 C-243.84312117 615.23170667 -232.63290841 687.21272225 -219.05912781 721.23200989 C-216.94563162 725.74834996 -214.59370509 729.94310181 -211.74662781 734.03669739 C-211.33154968 734.65931458 -210.91647156 735.28193176 -210.48881531 735.92341614 C-198.61246827 751.74669288 -175.02240811 755.40511418 -156.74662781 758.03669739 C-146.41182594 759.32759703 -136.01890161 759.93272586 -125.62162781 760.45857239 C-110.71189215 761.22344467 -96.20625188 762.00227503 -81.74662781 766.03669739 C-81.09097839 766.21039856 -80.43532898 766.38409973 -79.7598114 766.56306458 C-52.76732773 773.80119774 -29.52625882 787.2415706 -8.99272156 806.01325989 C-7.21937185 807.61081667 -5.42978799 809.12053231 -3.55912781 810.59919739 C20.8489518 831.75286638 36.57409126 864.51010825 40.45649719 896.12654114 C40.58188244 897.14317998 40.58188244 897.14317998 40.70980072 898.18035698 C43.31635549 920.04377787 42.93277057 942.13938308 42.99159241 964.12239075 C43.01149589 969.99690863 43.05342203 975.87127092 43.09321594 981.74568176 C43.16754028 993.17597118 43.2184147 1004.60622425 43.25337219 1016.03669739 C46.88337219 1016.03669739 50.51337219 1016.03669739 54.25337219 1016.03669739 C54.30022374 1004.75121146 54.33550438 993.46574959 54.35699654 982.18018532 C54.36732448 976.93684519 54.38127595 971.69357278 54.4042511 966.45027161 C54.76203763 882.54554602 38.47262236 804.3121947 -14.74662781 737.03669739 C-15.37826843 736.21040833 -16.00990906 735.38411926 -16.66069031 734.53279114 C-30.36875572 716.82897048 -46.96727612 699.64039632 -64.74662781 686.03669739 C-65.71213562 685.26583801 -66.67764343 684.49497864 -67.67240906 683.70075989 C-92.44587072 664.14114009 -120.0950255 649.00029268 -149.37162781 637.34919739 C-157.10591279 634.26299762 -164.07190199 631.09517721 -170.74662781 626.03669739 C-171.39244812 625.57005676 -172.03826843 625.10341614 -172.70365906 624.62263489 C-182.22797066 617.19408684 -188.96432239 604.93673656 -190.74662781 593.03669739 C-191.80418727 578.33488714 -188.98955584 565.80209782 -179.74662781 554.03669739 C-171.15742336 544.33534496 -159.20719026 539.94407548 -147.43412781 535.34919739 C-107.11464396 519.60391202 -71.05998019 495.96450962 -40.74662781 465.03669739 C-35.74662781 460.03669739 -35.74662781 460.03669739 -34.20365906 458.56404114 C-29.86036927 454.35989565 -26.02152842 449.86161552 -22.24272156 445.14607239 C-20.52654932 443.0082428 -18.79690558 440.89828737 -17.03178406 438.80232239 C3.30716313 414.40182365 18.2060264 386.28956303 30.25337219 357.03669739 C30.59207336 356.2166925 30.93077454 355.39668762 31.27973938 354.55183411 C41.31321963 329.85605278 47.48371783 303.42046615 50.94087219 277.03669739 C51.12033386 275.6864447 51.12033386 275.6864447 51.30342102 274.30891418 C53.29217051 257.93309806 53.4017234 241.40020179 53.35102844 224.92732239 C53.3491559 223.09502705 53.34773597 221.2627312 53.34674072 219.43043518 C53.34298123 214.68286171 53.33320984 209.93532043 53.32203674 205.1877594 C53.31167863 200.31319107 53.30721274 195.43861738 53.30220032 190.56404114 C53.29157937 181.05491037 53.27403865 171.54581163 53.25337219 162.03669739 C47.31337219 162.03669739 41.37337219 162.03669739 35.25337219 162.03669739 Z M-494.74662781 342.03669739 C-496.19011076 343.04526522 -497.63416474 344.05301609 -499.07865906 345.06013489 C-508.08187948 351.32132173 -508.08187948 351.32132173 -516.74662781 358.03669739 C-514.92297305 364.01279331 -512.72901407 369.48679257 -509.74662781 374.97419739 C-509.35636414 375.69873108 -508.96610046 376.42326477 -508.56401062 377.16975403 C-498.46351148 395.69728506 -486.73562218 412.89799736 -473.37162781 429.22419739 C-472.81306091 429.90683655 -472.25449402 430.58947571 -471.67900085 431.2928009 C-468.46600468 435.15307427 -465.09570433 438.73803234 -461.50761414 442.25007629 C-459.67718541 444.10715066 -457.97855754 446.03763691 -456.28178406 448.01716614 C-452.8011343 452.04448436 -449.07768458 455.72337993 -445.18412781 459.34919739 C-444.48940369 459.99727356 -443.79467957 460.64534973 -443.0789032 461.31306458 C-436.5930496 467.2931914 -429.80653516 472.75554039 -422.74662781 478.03669739 C-422.15559265 478.48464661 -421.5645575 478.93259583 -420.95561218 479.39411926 C-394.08863532 499.7391447 -365.04147303 515.27058896 -333.2898407 526.62019348 C-325.86812888 529.29409246 -318.79299104 532.4992663 -311.74662781 536.03669739 C-311.0369989 536.39022278 -310.32737 536.74374817 -309.59623718 537.10798645 C-301.02825105 541.40691933 -293.04031516 545.73899675 -285.74662781 552.03669739 C-284.9358075 552.6515802 -284.12498718 553.26646301 -283.28959656 553.89997864 C-272.24213675 563.18256007 -265.43587455 577.87301314 -263.74662781 592.03669739 C-263.62545593 592.94161926 -263.50428406 593.84654114 -263.37944031 594.77888489 C-260.16050414 626.26165083 -265.38636583 659.9364701 -269.18412781 691.22419739 C-269.28141174 692.04706238 -269.37869568 692.86992737 -269.47892761 693.71772766 C-271.86044573 713.67258523 -275.19572535 732.74100352 -287.74662781 749.03669739 C-288.89131531 750.61450989 -288.89131531 750.61450989 -290.05912781 752.22419739 C-300.25151491 762.890649 -315.06850662 769.09444569 -329.12162781 772.84919739 C-329.80217224 773.03176086 -330.48271667 773.21432434 -331.18388367 773.40242004 C-343.95199441 776.54475931 -357.00074328 778.11777283 -370.09819031 778.99372864 C-371.17716583 779.06600174 -372.25614136 779.13827484 -373.36781311 779.21273804 C-377.80694178 779.50293103 -382.24626802 779.7844863 -386.68754578 780.03987122 C-434.75578229 782.86261077 -473.532962 801.29823304 -505.74662781 837.03669739 C-523.12104346 857.46014767 -531.81096719 879.5995028 -534.74662781 906.03669739 C-534.83653992 906.74197571 -534.92645203 907.44725403 -535.01908875 908.17390442 C-538.0571832 932.69889364 -536.72708421 957.8947805 -536.308815 982.54589081 C-536.24339288 986.44781384 -536.1820987 990.34980179 -536.1204071 994.25178528 C-535.99974374 1001.84682336 -535.87467572 1009.44177982 -535.74662781 1017.03669739 C-449.42058231 1017.16407092 -363.09950205 1016.98459465 -235.0635121 1016.21980779 C-220.90980773 1016.13191598 -206.75608465 1016.04788841 -192.6023407 1015.96662903 C-175.73077392 1015.86976161 -158.85922073 1015.77091964 -141.98768455 1015.66885179 C-140.17387601 1015.65788029 -138.36006747 1015.64690924 -136.54625893 1015.63593864 C-135.65603896 1015.63055114 -134.765819 1015.62516363 -133.84862268 1015.61961286 C-127.78446012 1015.58302092 -121.72029121 1015.54766437 -115.65611839 1015.51281929 C-71.01500896 1015.25532794 -26.38244746 1014.77795092 18.25337219 1014.03669739 C18.2638897 1011.01474547 18.27425967 1007.99279316 18.2845459 1004.97084045 C18.28751663 1004.12162333 18.29048736 1003.2724062 18.29354811 1002.39745522 C18.91516379 952.31594538 18.91516379 952.31594538 15.50337219 902.41169739 C15.35867493 901.15204163 15.21397766 899.89238586 15.06489563 898.59455872 C13.46645509 886.70070794 9.9726913 875.15866806 4.19087219 864.59919739 C3.81511047 863.90237854 3.43934875 863.20555969 3.05220032 862.48762512 C-5.22816545 847.62744528 -16.57895675 833.78807864 -29.74662781 823.03669739 C-30.71858093 822.21556458 -31.69053406 821.39443176 -32.69194031 820.54841614 C-60.60859348 797.40309379 -92.91981045 787.95059224 -128.66667175 786.20353699 C-160.49513905 784.60688329 -194.46573072 781.84971015 -220.74662781 762.03669739 C-221.40920593 761.55716614 -222.07178406 761.07763489 -222.75444031 760.58357239 C-245.84182629 742.56919947 -249.09259917 709.11701773 -252.47843933 682.26454163 C-253.88792244 670.55595194 -254.85636243 658.79436676 -255.74662781 647.03669739 C-255.8416156 645.84512024 -255.93660339 644.65354309 -256.0344696 643.42585754 C-256.73511487 634.00852817 -256.99677312 624.61782952 -257.04179382 615.17634583 C-257.05332572 613.50340831 -257.07379681 611.83050793 -257.10331726 610.15779114 C-257.48504417 588.35457388 -252.87059403 569.35416541 -238.25834656 552.58357239 C-225.41842872 539.56393564 -208.58962008 531.6201209 -191.74662781 525.03669739 C-189.82869257 524.22719645 -187.91206039 523.41460242 -185.99662781 522.59919739 C-182.17216557 520.9974574 -178.32790188 519.51137669 -174.42582703 518.10969543 C-138.10335935 504.96796738 -103.3220792 484.68768177 -75.07475281 458.21638489 C-73.07189729 456.34122821 -71.02943477 454.55626335 -68.93412781 452.78669739 C-58.95047769 444.07668165 -49.87895496 434.48637795 -41.74662781 424.03669739 C-40.85608829 422.92360666 -39.96408613 421.81168502 -39.07084656 420.70075989 C-32.9397355 413.03899992 -27.22459764 405.17925995 -21.74662781 397.03669739 C-25.29857543 395.85271485 -26.42061286 396.3055112 -29.94584656 397.36482239 C-30.98201111 397.66879944 -32.01817566 397.97277649 -33.08573914 398.28596497 C-34.1907074 398.61620667 -35.29567566 398.94644836 -36.43412781 399.28669739 C-100.40947414 417.73614185 -173.27468988 410.43467895 -237.74662781 397.03669739 C-238.89695496 396.80224915 -240.0472821 396.5678009 -241.23246765 396.32624817 C-252.37436054 394.01703913 -263.1167049 391.27392961 -273.62162781 386.84919739 C-274.36823669 386.53555237 -275.11484558 386.22190735 -275.88407898 385.89875793 C-291.17106061 379.02946669 -305.32537425 369.54703219 -319.22166443 360.26371765 C-323.34551302 357.5109719 -327.48401159 354.78040614 -331.62162781 352.04841614 C-332.42293121 351.51895889 -333.22423462 350.98950165 -334.04981995 350.44400024 C-388.58225111 314.45423922 -438.1795144 301.86482012 -494.74662781 342.03669739 Z M-670.79740906 1044.45075989 C-673.26873878 1047.72935763 -675.19006521 1051.13749295 -677.05912781 1054.78669739 C-677.38477722 1055.41753235 -677.71042664 1056.04836731 -678.04594421 1056.69831848 C-682.90403098 1066.7757538 -684.21731145 1076.82728515 -683.99662781 1087.91169739 C-683.98277039 1089.05356506 -683.96891296 1090.19543274 -683.95463562 1091.37190247 C-683.90596007 1094.59436143 -683.83178688 1097.81502339 -683.74662781 1101.03669739 C-683.73115906 1101.79933899 -683.71569031 1102.56198059 -683.69975281 1103.34773254 C-683.29852368 1120.111587 -678.58536472 1135.06877283 -666.99662781 1147.41169739 C-658.4474203 1155.51780572 -648.59546036 1160.3657413 -636.75444031 1160.30232239 C-635.94171158 1160.30505157 -635.12898285 1160.30778076 -634.29162598 1160.31059265 C-631.48481339 1160.31476741 -628.67840153 1160.30155339 -625.87162781 1160.28669739 C-624.84973358 1160.28426025 -623.82783936 1160.28182312 -622.77497864 1160.27931213 C-599.23638773 1160.21599886 -575.7086186 1159.59932466 -552.1782074 1159.02806091 C-498.98699804 1157.73872693 -445.78748262 1156.95353833 -392.58657837 1156.19319725 C-384.96814416 1156.08406131 -377.34979555 1155.97043509 -369.73149109 1155.85261536 C-279.27867879 1154.46257569 -188.77844001 1154.50702145 11.66196215 1156.28941119 C15.0126119 1156.32481297 18.36326361 1156.36002293 21.71391582 1156.39519024 C39.38259084 1156.58098509 39.38259084 1156.58098509 46.94005394 1156.66635704 C57.05888011 1156.78063005 67.17759967 1156.88541724 77.29677409 1156.9638378 C82.74494648 1157.00813272 88.19219993 1157.07803418 93.63987756 1157.16337299 C97.29329158 1157.21670048 100.94675137 1157.25286394 104.60040426 1157.28533745 C106.30608 1157.30410278 108.01169668 1157.32989719 109.71714258 1157.36360359 C125.65615917 1157.67225765 137.57419156 1155.32941345 149.40571594 1143.97029114 C164.29835794 1128.46752228 163.7990244 1107.57275577 163.52680969 1087.41560364 C163.14081753 1072.25299068 158.97757466 1059.24442307 148.69087219 1047.72419739 C140.88076696 1040.40413798 130.42645628 1035.99514407 119.77667236 1035.84166527 C118.14135339 1035.81484975 118.14135339 1035.81484975 116.47299767 1035.78749251 C115.28540163 1035.77283895 114.0978056 1035.75818538 112.8742218 1035.74308777 C110.98598159 1035.71455699 110.98598159 1035.71455699 109.05959511 1035.68544984 C105.59270279 1035.63348203 102.12575367 1035.58768527 98.65875745 1035.54326084 C96.45124566 1035.51450366 94.24376407 1035.48403663 92.03628349 1035.45298076 C59.42075016 1034.99416044 26.80371658 1034.70758836 -5.8139054 1034.44748486 C-14.30429296 1034.37963274 -22.79465381 1034.30865418 -31.28501408 1034.23748026 C-35.755036 1034.20000962 -40.22505877 1034.16264044 -44.69508171 1034.12529087 C-45.59289413 1034.11778893 -46.49070656 1034.11028699 -47.41572542 1034.10255772 C-56.65286571 1034.025448 -65.89001428 1033.94935027 -75.12716325 1033.87328865 C-113.88531363 1033.55408862 -152.64340112 1033.22750321 -191.40143281 1032.89420357 C-193.37784532 1032.87720746 -195.35425789 1032.86021942 -197.33067054 1032.8432394 C-254.3170728 1032.35358903 -311.30274626 1031.81614267 -368.28792632 1031.20007491 C-370.74934232 1031.17347124 -373.21075881 1031.14691189 -375.67217541 1031.12036324 C-404.9550604 1030.80441119 -434.23789052 1030.48353851 -463.52055359 1030.14759827 C-496.79456671 1029.76600783 -530.06859824 1029.39853165 -563.34344482 1029.09566498 C-567.53754368 1029.05740022 -571.73162178 1029.01753632 -575.9256897 1028.97602081 C-586.79631934 1028.86890501 -597.66667996 1028.78012866 -608.53773117 1028.73023033 C-611.60950308 1028.71552461 -614.68097844 1028.69194174 -617.75261307 1028.6594944 C-621.82219091 1028.61692246 -625.89118809 1028.60636857 -629.96098328 1028.59992981 C-631.1018124 1028.58346342 -632.24264153 1028.56699703 -633.41804123 1028.55003166 C-647.53267684 1028.60130165 -661.02484582 1034.10333999 -670.79740906 1044.45075989 Z " fill="#000000" transform="translate(691.7466278076172,-0.0366973876953125)"/>
</svg>
