<?xml version="1.0" encoding="UTF-8"?>
<svg version="1.1" xmlns="http://www.w3.org/2000/svg" viewBox="0 0 1015 1181">
<path d="M0 0 C1.41788257 -0.00702659 2.83576485 -0.01411337 4.25364685 -0.02125549 C8.76155049 -0.04064911 13.26940259 -0.0456903 17.77734375 -0.046875 C18.54670258 -0.04731686 19.3160614 -0.04775871 20.10873413 -0.04821396 C44.42683508 -0.05553278 68.53528721 0.39301351 92.71484375 3.203125 C93.46741455 3.28798157 94.21998535 3.37283813 94.99536133 3.46026611 C144.75599633 9.07247558 195.47760838 19.06932517 240.71484375 41.203125 C241.51470703 41.59081055 242.31457031 41.97849609 243.13867188 42.37792969 C270.40966272 55.72912448 294.88190264 73.92397508 306.7421875 102.6953125 C310.90858383 115.02170163 310.17582139 131.08891049 305.71484375 143.203125 C305.19447289 144.12289627 305.19447289 144.12289627 304.66358948 145.06124878 C303.56495008 147.54152303 303.5386874 149.08948436 303.68334961 151.78564453 C303.72682022 152.68717255 303.77029083 153.58870056 303.81507874 154.51754761 C303.87352463 155.48886627 303.93197052 156.46018494 303.9921875 157.4609375 C304.04519516 158.47987091 304.09820282 159.49880432 304.15281677 160.5486145 C304.80969392 172.79628561 305.66048845 185.03399748 306.49508667 197.27059937 C307.21360319 207.9578397 307.88756443 218.57934512 307.55859375 229.29296875 C307.52885719 230.43146271 307.52885719 230.43146271 307.4985199 231.59295654 C307.40038694 235.0421772 307.24425307 238.46110446 306.98852539 241.90380859 C306.70844544 248.92895055 307.63806937 253.15090333 312.3125 258.46875 C313.22612917 259.45697085 314.14692088 260.43862065 315.07495117 261.41333008 C318.77676038 265.32534097 321.64582363 269.64753895 324.58984375 274.140625 C325.17789795 275.03322021 325.76595215 275.92581543 326.37182617 276.84545898 C336.66173136 292.64213069 345.33750792 308.85893394 352.71484375 326.203125 C359.91132236 325.7303122 367.08328713 325.18367689 374.2578125 324.44921875 C419.80111962 319.96745161 467.23782283 320.05611718 512.71484375 325.203125 C513.47899597 325.28798157 514.24314819 325.37283813 515.03045654 325.46026611 C564.02227115 330.93629304 614.02731579 340.79213811 658.71484375 362.203125 C659.39160156 362.52104004 660.06835938 362.83895508 660.765625 363.16650391 C676.52292436 370.58945731 690.88597036 379.3647161 703.71484375 391.203125 C704.63265625 392.05003906 705.55046875 392.89695312 706.49609375 393.76953125 C718.28842515 405.11787427 728.40084737 420.10993987 729.05078125 436.93359375 C729.07999943 439.08577856 729.09239775 441.23824338 729.08984375 443.390625 C729.09113281 444.51178711 729.09242188 445.63294922 729.09375 446.78808594 C729.00702823 453.54647112 728.38054524 459.12764947 725.65722656 465.38206482 C722.76758861 474.03231018 724.86377038 484.85774517 725.58984375 493.82421875 C725.7737594 496.23064492 725.95674807 498.63714207 726.13891602 501.04370117 C726.28117111 502.90555557 726.28117111 502.90555557 726.42630005 504.80502319 C729.1207134 540.62177008 729.1207134 540.62177008 729.2590332 558.54788208 C729.27100496 560.07960914 729.29117152 561.61129979 729.32055664 563.14279175 C729.67488306 584.03191784 721.12816853 599.77330098 707.21484375 614.92578125 C696.98812052 625.49438622 685.51421515 633.96395206 672.71484375 641.203125 C671.98861816 641.61675293 671.26239258 642.03038086 670.51416016 642.45654297 C615.17053333 673.61793088 549.19249876 682.23954825 486.71484375 686.203125 C485.67054199 686.27370117 484.62624023 686.34427734 483.55029297 686.41699219 C420.90385243 690.53459861 356.24316669 685.71149593 294.96484375 672.078125 C293.87034912 671.83940674 292.77585449 671.60068848 291.64819336 671.35473633 C286.94417687 670.29748654 282.40186902 669.15877098 277.87890625 667.48046875 C270.83769775 664.85373971 270.83769775 664.85373971 263.63378906 666.13867188 C258.95605693 669.05984159 254.92702956 672.71055745 250.83544922 676.38574219 C247.52647399 679.2215713 243.95465587 681.56352947 240.27734375 683.890625 C239.57722168 684.33656006 238.87709961 684.78249512 238.15576172 685.24194336 C195.63524941 711.96453233 145.17131327 730.18966462 94.5234375 730.40625 C93.4610939 730.41195007 92.39875031 730.41765015 91.30421448 730.42352295 C89.05771871 730.43293124 86.8112094 730.43949025 84.56469727 730.44335938 C81.21409136 730.45294829 77.86413118 730.48396322 74.51367188 730.515625 C35.10227619 730.70952721 -3.1820708 721.87936176 -39.28515625 706.203125 C-39.99365723 705.89971191 -40.7021582 705.59629883 -41.43212891 705.28369141 C-64.49316 695.30655141 -86.05023055 681.32296053 -105.28515625 665.203125 C-106.290625 664.38199219 -107.29609375 663.56085937 -108.33203125 662.71484375 C-122.53653852 650.96535924 -136.12634748 637.90602003 -147.28515625 623.203125 C-148.2822467 621.94403785 -149.28109045 620.68633808 -150.28125 619.4296875 C-191.24760536 567.53203797 -212.01075768 503.07161014 -211.28515625 437.203125 C-211.81520264 437.05182129 -212.34524902 436.90051758 -212.89135742 436.74462891 C-219.28555082 434.78327098 -224.83220921 431.93782312 -230.59765625 428.578125 C-231.51973877 428.04469482 -232.44182129 427.51126465 -233.3918457 426.96166992 C-244.38412123 420.50898862 -254.00597608 412.94637892 -263.28515625 404.203125 C-264.04570312 403.51863281 -264.80625 402.83414062 -265.58984375 402.12890625 C-274.95641703 393.3619233 -281.76564569 382.56331089 -285.28515625 370.203125 C-285.46102264 369.59410339 -285.63688904 368.98508179 -285.81808472 368.35760498 C-286.33222048 365.98602992 -286.41222433 363.85315624 -286.41455078 361.42675781 C-286.41766266 360.47361191 -286.42077454 359.520466 -286.42398071 358.53843689 C-286.42199677 357.50481522 -286.42001282 356.47119354 -286.41796875 355.40625 C-286.41928802 354.32110611 -286.4206073 353.23596222 -286.42196655 352.11793518 C-286.42389091 348.56296989 -286.4175225 345.00808238 -286.41015625 341.453125 C-286.40927002 340.24272552 -286.40838379 339.03232605 -286.4074707 337.7852478 C-286.39244403 320.30185744 -286.18863064 302.83336615 -285.64111328 285.35839844 C-285.39748431 277.53944781 -285.2247941 269.72536963 -285.19140625 261.90234375 C-285.18492065 261.10665482 -285.17843506 260.31096588 -285.17175293 259.49116516 C-285.16857525 255.55219834 -285.50371351 252.06950862 -286.28515625 248.203125 C-286.39274014 245.31192098 -286.44886628 242.44605304 -286.453125 239.5546875 C-286.45726913 238.66624146 -286.46141327 237.77779541 -286.46568298 236.86242676 C-286.4755626 233.85095329 -286.47529189 230.83961263 -286.47265625 227.828125 C-286.47271667 226.78009705 -286.4727771 225.73206909 -286.47283936 224.65228271 C-286.45533143 202.7604513 -285.99923703 180.87803306 -285.47327042 158.99346161 C-285.41037258 156.33726057 -285.35050198 153.68100614 -285.29135132 151.02471924 C-285.19608783 146.78176212 -285.09133283 142.53913593 -284.97946358 138.29658508 C-284.93914754 136.72435857 -284.90154852 135.15205952 -284.86695671 133.57969666 C-284.3276092 109.4669398 -278.38288897 92.05452648 -260.96484375 74.78271484 C-201.58757481 18.94391687 -99.47008935 5.49207469 0 0 Z M-100.53515625 19.453125 C-101.29380981 19.55506165 -102.05246338 19.65699829 -102.83410645 19.76202393 C-155.26516956 26.86041218 -212.6979786 39.71349233 -254.28515625 74.203125 C-255.19007813 74.94304687 -256.095 75.68296875 -257.02734375 76.4453125 C-269.3776873 86.99378222 -278.92341454 101.35165852 -280.53515625 117.74609375 C-281.20605753 132.27529964 -274.43044293 145.41481319 -265.22265625 156.265625 C-231.78611562 191.56918059 -178.6603565 204.00857863 -132.58544922 212.06858826 C-128.11808469 212.8533455 -123.69276425 213.75289009 -119.26171875 214.7265625 C-110.46874594 216.49627711 -103.37710434 217.83196607 -95.56274414 212.71606445 C-92.7228991 210.57548274 -90.03680124 208.29124131 -87.36572266 205.94482422 C-83.85931283 203.00951236 -80.03613009 200.6170664 -76.16015625 198.203125 C-75.38075684 197.71223389 -74.60135742 197.22134277 -73.79833984 196.71557617 C-64.78323037 191.12919694 -55.36808685 186.30809967 -45.90625 181.53125 C-43.58569738 180.35541112 -41.27714706 179.160031 -38.97265625 177.953125 C-14.24567418 165.10503174 12.31785517 156.99107919 39.71484375 152.203125 C41.0910791 151.9553833 41.0910791 151.9553833 42.49511719 151.70263672 C71.76468998 146.66460238 104.51307933 146.8466811 133.71484375 152.203125 C135.13120117 152.46053467 135.13120117 152.46053467 136.57617188 152.72314453 C165.94218295 158.24778582 193.03209934 168.13583161 219.76391602 181.29858398 C221.85298458 182.31148154 221.85298458 182.31148154 224.71484375 183.203125 C227.36102584 182.22216047 229.80735886 181.1765545 232.33984375 179.953125 C233.09040039 179.59323486 233.84095703 179.23334473 234.61425781 178.86254883 C254.73650393 168.93772693 277.45149046 154.01976068 285.71484375 132.203125 C289.02928698 121.56026457 287.63300183 112.08470029 282.71484375 102.203125 C264.0020235 66.71149106 216.39044246 49.58536518 180.70703125 38.26171875 C148.2307302 28.31453894 114.61960034 21.85688676 80.90234375 17.953125 C79.6078833 17.80206299 78.31342285 17.65100098 76.97973633 17.49536133 C72.56152521 17.01386349 68.14202759 16.59213701 63.71484375 16.203125 C62.73718048 16.11592194 61.75951721 16.02871887 60.75222778 15.93887329 C40.91897977 14.22693894 21.1840337 13.85760596 1.28930664 13.88745117 C-2.03602702 13.89206284 -5.36099308 13.88520921 -8.6862793 13.86694336 C-39.4397234 13.69992628 -70.04359709 15.24686997 -100.53515625 19.453125 Z M-279.28515625 143.203125 C-279.43525803 168.00686753 -279.12315673 192.7796437 -278.41308594 217.57373047 C-278.30112748 221.51368338 -278.21605123 225.45377643 -278.13671875 229.39453125 C-277.65150722 248.91204632 -271.90557371 262.28980096 -257.88427734 276.07275391 C-237.22054204 295.6997928 -209.29279851 308.09656571 -182.28515625 316.203125 C-181.81057983 315.31343018 -181.81057983 315.31343018 -181.32641602 314.40576172 C-175.06666715 302.70595256 -168.77867658 291.16439144 -161.28515625 280.203125 C-160.89650391 279.63190918 -160.50785156 279.06069336 -160.10742188 278.47216797 C-154.02131903 269.57577529 -147.36292879 261.32497889 -140.28515625 253.203125 C-139.681875 252.48769531 -139.07859375 251.77226563 -138.45703125 251.03515625 C-133.10575477 244.73571671 -127.16842875 238.99945259 -121.28515625 233.203125 C-124.31385768 231.18399071 -126.41172666 230.50738988 -129.90234375 229.609375 C-131.62686768 229.15522217 -131.62686768 229.15522217 -133.38623047 228.69189453 C-134.63162598 228.36560059 -135.87702148 228.03930664 -137.16015625 227.703125 C-160.57461564 221.42453959 -183.31024178 213.48099668 -205.28515625 203.203125 C-206.58138916 202.60032715 -206.58138916 202.60032715 -207.90380859 201.98535156 C-224.91487746 193.99642575 -241.14439698 184.66776756 -255.28515625 172.203125 C-256.04699219 171.584375 -256.80882812 170.965625 -257.59375 170.328125 C-266.3651286 163.03131091 -273.7562581 153.70193435 -278.28515625 143.203125 C-278.61515625 143.203125 -278.94515625 143.203125 -279.28515625 143.203125 Z M-27.28515625 178.203125 C-28.0215332 178.45562012 -28.75791016 178.70811523 -29.51660156 178.96826172 C-58.66458405 189.01766978 -83.44655871 206.72416156 -106.78515625 226.515625 C-107.39746094 227.0317334 -108.00976562 227.5478418 -108.640625 228.07958984 C-111.27497026 230.33284302 -113.35057875 232.30125875 -115.28515625 235.203125 C-114.681875 235.22890625 -114.07859375 235.2546875 -113.45703125 235.28125 C-112.25820312 235.36632812 -112.25820312 235.36632812 -111.03515625 235.453125 C-110.24625 235.49953125 -109.45734375 235.5459375 -108.64453125 235.59375 C-105.37108687 236.43920914 -104.36771296 237.51488447 -102.28515625 240.203125 C-100.72029898 243.21258011 -99.43344503 246.31105498 -98.16015625 249.453125 C-97.81339844 250.27425781 -97.46664062 251.09539062 -97.109375 251.94140625 C-95.02878893 256.97148216 -93.47243655 261.89096365 -92.28515625 267.203125 C-96.57276259 268.55115775 -99.30325264 267.30718929 -103.28515625 265.578125 C-104.6233688 265.00704066 -105.96191551 264.43673879 -107.30078125 263.8671875 C-107.96787109 263.58133789 -108.63496094 263.29548828 -109.32226562 263.00097656 C-111.12831925 262.26687417 -112.97969178 261.64698889 -114.83203125 261.0390625 C-122.622393 258.39793986 -122.622393 258.39793986 -124.69140625 254.66796875 C-125.45249335 252.16272371 -125.9825149 249.80079662 -126.28515625 247.203125 C-133.61826147 252.74369339 -138.8424143 259.89593916 -144.28515625 267.203125 C-144.77177734 267.85216797 -145.25839844 268.50121094 -145.75976562 269.16992188 C-178.59722693 313.28577148 -201.38136666 371.57044681 -200.28515625 427.203125 C-199.58390625 426.873125 -198.88265625 426.543125 -198.16015625 426.203125 C-191.12546971 423.75627751 -185.80381721 426.27874603 -179.28515625 429.015625 C-178.40859375 429.37205078 -177.53203125 429.72847656 -176.62890625 430.09570312 C-172.94173827 431.60888577 -169.34704135 433.17197524 -165.78515625 434.96484375 C-163.45143321 436.35107502 -163.45143321 436.35107502 -161.28515625 436.203125 C-161.28515625 437.523125 -161.28515625 438.843125 -161.28515625 440.203125 C-162.12175781 440.47253906 -162.95835937 440.74195313 -163.8203125 441.01953125 C-167.50438671 442.27801432 -171.11426098 443.68331786 -174.72265625 445.140625 C-175.6672168 445.51864258 -175.6672168 445.51864258 -176.63085938 445.90429688 C-179.79861384 447.17725885 -182.93825427 448.48968927 -186.05859375 449.875 C-189.48426667 451.28508328 -191.62415582 451.60990283 -195.28515625 451.203125 C-196.63502204 450.57060261 -197.97208611 449.90886505 -199.28515625 449.203125 C-199.49446529 457.97174242 -198.99973968 466.35045596 -197.66015625 475.015625 C-197.48266846 476.17852051 -197.30518066 477.34141602 -197.12231445 478.53955078 C-193.02785404 504.13470553 -185.44183236 528.81899146 -174.28515625 552.203125 C-173.96434082 552.88181641 -173.64352539 553.56050781 -173.31298828 554.25976562 C-161.16787988 579.79595089 -145.39349208 602.37820109 -126.28515625 623.203125 C-125.33962891 622.09517578 -125.33962891 622.09517578 -124.375 620.96484375 C-120.80389363 617.39876534 -116.47595828 615.84343019 -111.84765625 614.015625 C-111.01427734 613.67337891 -110.18089844 613.33113281 -109.32226562 612.97851562 C-97.59242263 608.203125 -97.59242263 608.203125 -92.28515625 608.203125 C-93.62212686 615.24019071 -95.81065397 621.45525129 -98.66015625 628.015625 C-99.24023438 629.4068457 -99.24023438 629.4068457 -99.83203125 630.82617188 C-103.38558304 639.09593082 -103.38558304 639.09593082 -107.28515625 642.203125 C-93.64234981 654.39732917 -79.10514754 664.9793271 -63.28515625 674.203125 C-62.63530762 674.58678223 -61.98545898 674.97043945 -61.31591797 675.36572266 C-23.41365262 697.63054582 19.85849677 709.76439868 63.71484375 711.203125 C63.97265625 710.21441406 64.23046875 709.22570313 64.49609375 708.20703125 C65.6966418 704.00616991 67.40897897 700.11126074 69.21484375 696.140625 C71.29182908 691.54779342 73.21020991 687.02547644 74.71484375 682.203125 C76.9921875 682.265625 76.9921875 682.265625 79.71484375 683.203125 C81.17183079 685.577923 82.23068521 687.6566124 83.27734375 690.203125 C83.57326416 690.88286377 83.86918457 691.56260254 84.17407227 692.26293945 C84.76302587 693.61825785 85.34481672 694.97671424 85.91894531 696.33837891 C86.93493749 698.71879248 88.04701732 701.05062544 89.15234375 703.390625 C90.60418911 706.47048105 90.71484375 707.5528425 90.71484375 711.203125 C143.25984107 707.67555504 194.6939737 690.39753788 236.71484375 658.203125 C237.31264648 657.74663574 237.91044922 657.29014648 238.52636719 656.81982422 C245.45280247 651.50641921 252.25474111 646.08141715 258.71484375 640.203125 C257.46145394 633.70828688 255.59306843 627.62701203 253.30395508 621.43334961 C252.09641189 618.02049567 251.28666759 615.63940339 252.71484375 612.203125 C259.82456049 613.84096551 266.58445772 615.75671645 273.33984375 618.53125 C276.04934263 619.29775297 277.15150765 619.33720703 279.71484375 618.203125 C319.99724508 583.21450947 340.80979593 516.20534995 345.71484375 465.203125 C346.01955792 460.15705841 345.93240615 455.2614507 345.71484375 450.203125 C336.30984375 445.253125 336.30984375 445.253125 326.71484375 440.203125 C327.71484375 435.203125 327.71484375 435.203125 329.26538086 433.91699219 C329.91772705 433.61438477 330.57007324 433.31177734 331.2421875 433 C331.95181641 432.6596875 332.66144531 432.319375 333.39257812 431.96875 C334.13830078 431.63359375 334.88402344 431.2984375 335.65234375 430.953125 C336.39419922 430.6025 337.13605469 430.251875 337.90039062 429.890625 C339.27470123 429.24271792 340.65256776 428.60226459 342.03491211 427.97167969 C343.27249881 427.40549411 344.49757239 426.81176068 345.71484375 426.203125 C348.85219699 372.17093028 321.98911864 311.85221529 289.1640625 270.34375 C287.57636166 268.30784653 286.03354697 266.23580633 284.546875 264.125 C282.72345588 261.59972324 280.99955072 259.31948514 278.71484375 257.203125 C274.91685776 256.78112656 272.86715623 257.72348224 269.40625 259.1640625 C268.57996094 259.50695312 267.75367188 259.84984375 266.90234375 260.203125 C266.06316406 260.55890625 265.22398437 260.9146875 264.359375 261.28125 C260.21817683 262.72485822 256.07310269 263.01766717 251.71484375 263.203125 C252.85230809 255.83507244 255.10756901 249.19148163 257.88671875 242.3046875 C258.94106007 239.37202208 258.94106007 239.37202208 258.17578125 237.1015625 C224.73897027 193.65158888 155.47771743 170.8860308 103.74243164 163.96386719 C99.37190812 163.42179976 95.12843504 163.07331349 90.71484375 163.203125 C90.76084717 164.07348389 90.80685059 164.94384277 90.85424805 165.84057617 C90.61579072 171.59236745 87.90713031 176.34974685 85.52734375 181.515625 C85.04458984 182.62486328 84.56183594 183.73410156 84.06445312 184.87695312 C83.58427734 185.92947266 83.10410156 186.98199219 82.609375 188.06640625 C82.17471924 189.02844971 81.74006348 189.99049316 81.29223633 190.98168945 C79.71484375 193.203125 79.71484375 193.203125 77.03393555 194.02416992 C76.26863525 194.0832251 75.50333496 194.14228027 74.71484375 194.203125 C74.48796875 193.44 74.26109375 192.676875 74.02734375 191.890625 C72.90877157 188.74796982 71.66276421 185.79518902 70.27734375 182.765625 C69.84164063 181.81171875 69.4059375 180.8578125 68.95703125 179.875 C68.2312695 178.31392755 67.4925494 176.7585363 66.72265625 175.21875 C64.52604536 170.65816738 64.45412836 167.15671744 64.71484375 162.203125 C33.24243574 161.67723226 2.33127163 167.82590536 -27.28515625 178.203125 Z M291.71484375 164.203125 C290.42421531 165.6439691 289.15841139 167.10705479 287.90234375 168.578125 C276.85710388 180.92792076 263.0860021 190.1434997 248.71484375 198.203125 C251.92614939 200.78652172 255.16517408 203.33053568 258.42163086 205.85668945 C265.82051872 211.61277163 272.97577494 217.6116175 280.05029297 223.76025391 C282.92735475 226.25415756 285.82157113 228.72806525 288.71484375 231.203125 C289.77492404 216.80512126 290.79252863 202.4048817 291.70611572 187.99682617 C291.79468173 186.60192166 291.88398656 185.20706384 291.97406006 183.81225586 C292.10091455 181.84243334 292.2243422 179.87239107 292.34765625 177.90234375 C292.41871582 176.77658936 292.48977539 175.65083496 292.56298828 174.4909668 C292.72159071 171.05704572 292.74044283 167.64020934 292.71484375 164.203125 C292.38484375 164.203125 292.05484375 164.203125 291.71484375 164.203125 Z M-279.28515625 267.203125 C-279.47159355 287.41292811 -279.04926819 307.59908351 -278.48471069 327.7999115 C-278.34368048 332.86645361 -278.22956727 337.93235493 -278.13671875 343 C-277.67286219 364.00997341 -272.92491556 378.29791311 -257.62060547 393.40917969 C-248.76966866 401.76574889 -238.43696672 408.12099422 -227.91015625 414.140625 C-227.29293701 414.49415039 -226.67571777 414.84767578 -226.03979492 415.21191406 C-220.97228879 418.01621644 -215.69148446 420.14085353 -210.28515625 422.203125 C-210.19540527 421.4409668 -210.1056543 420.67880859 -210.01318359 419.89355469 C-206.5167743 390.74665077 -201.68855456 361.77877676 -190.16308594 334.55249023 C-189.11013337 332.1527658 -189.11013337 332.1527658 -189.28515625 329.203125 C-189.97327393 328.92227051 -190.6613916 328.64141602 -191.37036133 328.35205078 C-223.64287536 315.1143859 -256.62736264 299.76506775 -276.5 269.765625 C-277.08910156 268.92 -277.67820312 268.074375 -278.28515625 267.203125 C-278.61515625 267.203125 -278.94515625 267.203125 -279.28515625 267.203125 Z M356.71484375 338.203125 C356.98578857 339.03614136 356.98578857 339.03614136 357.26220703 339.88598633 C377.50645275 402.72243696 381.28351459 473.43332882 356.5625 535.83203125 C355.54652815 538.25426726 355.54652815 538.25426726 355.71484375 541.203125 C372.54602315 546.81351813 395.44427803 543.44875584 413.15234375 543.453125 C413.97308128 543.45356686 414.79381882 543.45400871 415.63942719 543.45446396 C442.43227039 543.4620157 469.0420281 542.97059304 495.71484375 540.203125 C496.54604736 540.11826843 497.37725098 540.03341187 498.23364258 539.94598389 C550.79776903 534.53452742 604.5190096 525.11053683 652.46484375 502.015625 C653.62387207 501.45794434 654.78290039 500.90026367 655.97705078 500.32568359 C676.70746514 490.01037457 698.56149934 474.85130391 706.71484375 452.203125 C709.89571952 441.50381558 706.9517281 431.09198131 701.96484375 421.515625 C690.6805136 403.05683653 671.48007245 390.95575212 652.71484375 381.203125 C651.95381348 380.80625488 651.1927832 380.40938477 650.40869141 380.00048828 C596.38054158 352.20922819 531.89762279 341.08039726 471.71484375 337.203125 C470.44534378 337.12089691 469.17584381 337.03866882 467.86787415 336.95394897 C457.20006925 336.29543589 446.58073378 336.05434815 435.89453125 336.0703125 C434.2546487 336.06963553 432.61476625 336.06866227 430.97488403 336.06741333 C427.57162502 336.06595563 424.16839259 336.06802836 420.76513672 336.07275391 C416.45134814 336.07845917 412.13762171 336.0751547 407.82383537 336.06918144 C404.44849192 336.06553096 401.07316269 336.06673463 397.69781876 336.06930923 C396.10895912 336.06996568 394.52009809 336.06919624 392.93124008 336.06682968 C374.6974249 335.80181929 374.6974249 335.80181929 356.71484375 338.203125 Z M711.71484375 487.203125 C710.90144531 488.07453125 710.08804687 488.9459375 709.25 489.84375 C654.72117908 547.01458077 560.26587102 562.76456868 484.71484375 568.203125 C483.49104004 568.2973877 482.26723633 568.39165039 481.00634766 568.48876953 C467.21415537 569.44048358 453.40985564 569.44469743 439.58984375 569.453125 C437.64046402 569.45513412 437.64046402 569.45513412 435.65170288 569.45718384 C405.40988814 569.450451 375.65842043 567.45493196 345.71484375 563.203125 C345.43511719 563.74388672 345.15539062 564.28464844 344.8671875 564.84179688 C334.07667626 585.53806682 321.69646614 605.26730182 306.71484375 623.203125 C306.03639404 624.03166992 306.03639404 624.03166992 305.34423828 624.87695312 C297.09200877 634.94805307 288.03116176 644.11811359 278.71484375 653.203125 C281.76451375 654.89580315 284.53595778 655.70572619 287.95703125 656.3515625 C289.53145996 656.64957764 289.53145996 656.64957764 291.13769531 656.95361328 C292.84650879 657.26274658 292.84650879 657.26274658 294.58984375 657.578125 C295.79092773 657.79581543 296.99201172 658.01350586 298.22949219 658.23779297 C311.33305685 660.55846309 324.46555993 662.49334577 337.69018555 663.97595215 C339.03110267 664.12640716 340.37176768 664.27912775 341.7121582 664.4342041 C423.12221959 673.80860589 508.47816986 667.24730308 680.56640625 603.734375 C692.72478443 594.08606497 704.38491136 583.02697365 707.71484375 567.203125 C707.94807752 564.74465551 708.14354318 562.29913228 708.30322266 559.8359375 C708.37900291 558.73279205 708.37900291 558.73279205 708.45631409 557.60736084 C708.62184685 555.18119078 708.78190884 552.7546988 708.94140625 550.328125 C709.05433481 548.63947637 709.16740444 546.95083717 709.28060913 545.26220703 C709.51677345 541.72509878 709.75001608 538.1878117 709.98144531 534.65039062 C710.27843604 530.11708506 710.5845207 525.58444472 710.89303017 521.0519104 C711.12899029 517.56579609 711.35919141 514.07931911 711.58774948 510.5927124 C711.69819618 508.92123145 711.81065442 507.24988216 711.92515945 505.57867432 C712.08451669 503.24290189 712.23588763 500.90674218 712.38525391 498.5703125 C712.45842079 497.53532623 712.45842079 497.53532623 712.5330658 496.47943115 C712.73506532 493.18990969 712.77787969 490.346805 711.71484375 487.203125 Z " fill="#000000" transform="translate(286.28515625,450.796875)"/>
<path d="M0 0 C0.76957031 0.71671875 1.53914063 1.4334375 2.33203125 2.171875 C4.40222547 4.09659611 6.52953109 5.92497487 8.6875 7.75 C12.03049688 10.66337479 14.93876717 13.79672254 17.80078125 17.1796875 C18.87963297 18.45446861 19.97922626 19.71220028 21.10546875 20.9453125 C59.74216493 63.34472732 73.40669372 119.21824944 71.5 175.1875 C71.20789155 180.93918422 70.51489956 186.51328885 69.5 192.1875 C69.37109375 192.950625 69.2421875 193.71375 69.109375 194.5 C63.96427594 224.60835747 52.72379907 255.46940163 34.5 280.1875 C34.06075195 280.79754883 33.62150391 281.40759766 33.16894531 282.03613281 C26.48588077 291.31640727 19.4631408 299.9652197 11.5 308.1875 C10.99887695 308.7144043 10.49775391 309.24130859 9.98144531 309.78417969 C-29.41194333 351.14110172 -84.0531159 372.71638609 -140.67578125 374.1484375 C-186.87753871 374.76489814 -231.1410733 360.06338304 -268.5 333.1875 C-269.14195312 332.7347168 -269.78390625 332.28193359 -270.4453125 331.81542969 C-287.03080672 320.0247507 -301.61315162 304.64456264 -313.5 288.1875 C-314.38558594 287.02927734 -314.38558594 287.02927734 -315.2890625 285.84765625 C-347.143747 242.8966717 -359.46839483 185.8357691 -351.90844727 133.31811523 C-348.13681869 109.6810404 -340.97472745 87.22638452 -329.5 66.1875 C-329.18063477 65.5903418 -328.86126953 64.99318359 -328.53222656 64.37792969 C-318.9039976 46.44107675 -306.41351795 30.71435477 -291.9375 16.4375 C-291.04353516 15.54417969 -290.14957031 14.65085937 -289.22851562 13.73046875 C-284.66930445 9.20127432 -280.0451158 4.80930156 -275.16918945 0.62255859 C-273.1913665 -1.07784266 -271.28787777 -2.8521865 -269.375 -4.625 C-200.25424851 -65.93415972 -90.98837722 -66.43723712 0 0 Z M-192.5 -29.8125 C-193.40782227 -29.61382324 -194.31564453 -29.41514648 -195.25097656 -29.21044922 C-221.34666467 -23.30774782 -246.48782621 -13.19999091 -268.5 2.1875 C-269.43328125 2.82558594 -270.3665625 3.46367188 -271.328125 4.12109375 C-284.7940506 13.72702235 -295.82282831 25.84478913 -305.5 39.1875 C-305.91169434 39.74953125 -306.32338867 40.3115625 -306.74755859 40.890625 C-331.72145343 75.38921715 -347.10215454 120.34488426 -344.5 163.1875 C-344.45746094 163.98446289 -344.41492188 164.78142578 -344.37109375 165.60253906 C-342.2743262 202.57822838 -331.56067538 239.98186442 -309.5 270.1875 C-308.99291504 270.88343262 -308.48583008 271.57936523 -307.96337891 272.29638672 C-306.28204798 274.5840831 -304.58390807 276.85783724 -302.875 279.125 C-302.34849854 279.82367187 -301.82199707 280.52234375 -301.27954102 281.2421875 C-298.13404175 285.32325861 -294.8097878 289.02694061 -291.09399414 292.59790039 C-289.4697541 294.21766252 -288.01368814 295.91231594 -286.5625 297.6875 C-283.23328898 301.63160488 -279.46633604 304.89886526 -275.5 308.1875 C-274.78328125 308.79207031 -274.0665625 309.39664062 -273.328125 310.01953125 C-248.65873578 330.34280325 -220.3285025 344.45989353 -189.125 351.5 C-188.47354004 351.64719482 -187.82208008 351.79438965 -187.15087891 351.94604492 C-174.43752967 354.61587951 -161.88272648 355.56845549 -148.9375 355.5 C-148.19776947 355.49784485 -147.45803894 355.4956897 -146.69589233 355.49346924 C-97.72153807 355.26579478 -54.08529878 337.33357843 -17.5 305.1875 C-16.73042969 304.54039062 -15.96085937 303.89328125 -15.16796875 303.2265625 C-10.45001449 299.23930479 -6.42826428 294.94834437 -2.5 290.1875 C-1.86602295 289.43799072 -1.86602295 289.43799072 -1.21923828 288.67333984 C28.10482215 253.93968943 45.06212654 210.74525219 44.8125 165.125 C44.81034485 164.40894592 44.8081897 163.69289185 44.80596924 162.95513916 C44.54921447 109.44180598 22.72080226 60.26460906 -14.5 22.1875 C-17.07681649 19.73362323 -19.75742039 17.45289085 -22.5 15.1875 C-23.80324219 14.05248047 -23.80324219 14.05248047 -25.1328125 12.89453125 C-50.88792721 -9.2548674 -81.51971783 -22.65933275 -114.5 -29.8125 C-115.30002441 -29.99329102 -116.10004883 -30.17408203 -116.92431641 -30.36035156 C-140.60720498 -35.52734048 -168.88636002 -35.02511033 -192.5 -29.8125 Z " fill="#000000" transform="translate(513.5,727.8125)"/>
<path d="M0 0 C1.0745192 0.00406357 1.0745192 0.00406357 2.17074585 0.00820923 C21.1357494 0.11666512 37.10849422 3.82493437 53.625 13.4375 C52.83817565 17.45929644 52.04467501 21.47974805 51.25 25.5 C51.02828125 26.63373047 50.8065625 27.76746094 50.578125 28.93554688 C49.47155146 34.51723398 48.31336901 40.00158295 46.625 45.4375 C42.9020664 44.09034221 39.93186593 42.37955938 36.6875 40.125 C19.29437882 28.94869723 -1.69179056 27.39001861 -21.55029297 31.58618164 C-40.63965076 36.10490732 -55.75640641 46.98808449 -66.375 63.4375 C-68.08156847 66.22909238 -69.68939205 69.06197748 -71.25 71.9375 C-71.60723145 72.58847656 -71.96446289 73.23945312 -72.33251953 73.91015625 C-75.6682917 80.34556758 -77.15125427 86.21032637 -79.375 93.4375 C-41.425 93.4375 -3.475 93.4375 35.625 93.4375 C32.17045455 115.89204545 32.17045455 115.89204545 30.625 117.4375 C29.1575104 117.53315123 27.68543116 117.55938309 26.21482849 117.55775452 C25.26265442 117.55912918 24.31048035 117.56050385 23.32945251 117.56192017 C22.27641434 117.55832489 21.22337616 117.55472961 20.13842773 117.55102539 C19.03612823 117.55117142 17.93382874 117.55131744 16.79812622 117.5514679 C13.13492908 117.55076821 9.47178206 117.54297324 5.80859375 117.53515625 C3.27653532 117.53329227 0.74447652 117.53186827 -1.7875824 117.53086853 C-7.78348249 117.52743346 -13.77936089 117.51954269 -19.77525228 117.50951904 C-26.59981058 117.49835677 -33.42436972 117.49284717 -40.24893486 117.48782361 C-54.29096848 117.47736004 -68.33297919 117.45901501 -82.375 117.4375 C-82.375 124.3675 -82.375 131.2975 -82.375 138.4375 C-46.405 138.4375 -10.435 138.4375 26.625 138.4375 C22.625 159.4375 22.625 159.4375 21.625 161.4375 C-11.375 161.4375 -44.375 161.4375 -78.375 161.4375 C-70.86512407 185.21877379 -64.14899351 203.52904496 -42.375 216.4375 C-31.34855498 222.0271182 -19.74909063 225.70692638 -7.375 226.4375 C-6.71757812 226.47875 -6.06015625 226.52 -5.3828125 226.5625 C12.81032358 227.11172675 31.65116453 222.54815741 45.625 210.4375 C45.955 210.4375 46.285 210.4375 46.625 210.4375 C46.625 222.3175 46.625 234.1975 46.625 246.4375 C32.38822418 252.36948992 32.38822418 252.36948992 26.25 253.6875 C25.50016846 253.84879395 24.75033691 254.01008789 23.9777832 254.17626953 C-6.53842556 260.21024845 -40.57753239 255.77537449 -67.07421875 239.03125 C-71.36851939 236.05659013 -75.41690918 232.84454931 -79.375 229.4375 C-79.97957031 228.91800781 -80.58414063 228.39851562 -81.20703125 227.86328125 C-97.75223855 212.4805007 -108.39722633 188.37222205 -112.375 166.4375 C-112.375 164.7875 -112.375 163.1375 -112.375 161.4375 C-120.955 161.4375 -129.535 161.4375 -138.375 161.4375 C-137.49210856 153.49147703 -136.11057873 146.20987432 -134.375 138.4375 C-128.435 138.4375 -122.495 138.4375 -116.375 138.4375 C-116.375 131.5075 -116.375 124.5775 -116.375 117.4375 C-123.635 117.4375 -130.895 117.4375 -138.375 117.4375 C-137.53683922 109.05589225 -136.21479303 101.59658213 -134.375 93.4375 C-127.775 93.4375 -121.175 93.4375 -114.375 93.4375 C-114.148125 91.931875 -113.92125 90.42625 -113.6875 88.875 C-108.77904005 62.4031677 -94.08790931 37.50307816 -72.125 21.75 C-62.38434591 15.32506915 -52.50645158 9.9065422 -41.4375 6.125 C-40.77145752 5.89466064 -40.10541504 5.66432129 -39.41918945 5.42700195 C-26.48037241 1.27163643 -13.51297858 -0.12087166 0 0 Z " fill="#000000" transform="translate(387.375,760.5625)"/>
</svg>
