<?xml version="1.0" encoding="utf-8"?>
<!-- Generator: Adobe Illustrator 16.0.0, SVG Export Plug-In . SVG Version: 6.00 Build 0)  -->
<!DOCTYPE svg PUBLIC "-//W3C//DTD SVG 1.1//EN" "http://www.w3.org/Graphics/SVG/1.1/DTD/svg11.dtd">
<svg version="1.1" xmlns="http://www.w3.org/2000/svg" xmlns:xlink="http://www.w3.org/1999/xlink" x="0px" y="0px"
	 width="400.152px" height="400px" viewBox="0 0 400.152 400" enable-background="new 0 0 400.152 400" xml:space="preserve">
<g id="Calque_1">
</g>
<g id="Calque_2">
</g>
<g id="Calque_3">
</g>
<g id="Calque_4">
</g>
<g id="Calque_5">
</g>
<g id="Calque_6">
</g>
<g id="Calque_7">
</g>
<g id="Calque_8">
</g>
<g id="Calque_9">
</g>
<g id="Calque_10">
</g>
<g id="Calque_11">
</g>
<g id="Calque_12">
</g>
<g id="Calque_13">
</g>
<g id="Calque_14">
</g>
<g id="Calque_15">
</g>
<g id="Calque_16">
</g>
<g id="Calque_17">
	<g>
		<g>
			<g>
				<g>
					<g>
						<path fill="#202020" d="M400.056,206.646c0.21-0.859,0.092-2.813-0.488-2.427l-0.412,3.311L400.056,206.646z"/>
						<path fill="#202020" d="M396.152,200.515c-0.683,1.604-1.47,4.424-1.027,7.464c0.676-3.182,0.839-1.854,1.566-5.64
							c0.581-0.386,1.014,1.062,0.916,2.28c0.205-0.85,0.901,0.728,1.214-1.351c-0.755-2.563-1.712-2.666-2.712-0.552
							C395.896,201.989,396.104,201.125,396.152,200.515z"/>
						<path fill="#202020" d="M339.427,195.354l0.365,0.394C339.692,195.529,339.567,195.41,339.427,195.354z"/>
						<path fill="#202020" d="M304.28,193.537c0.268-0.08,0.38-0.407,0.394-0.708C304.425,193.047,304.221,193.249,304.28,193.537z"
							/>
						<path fill="#202020" d="M298.28,189.89c0.129,0.105,0.236,0.151,0.354,0.225C298.499,189.81,298.363,189.641,298.28,189.89z"
							/>
						<path fill="#202020" d="M339.427,195.354l-0.938-1.04C338.422,195.393,338.969,195.114,339.427,195.354z"/>
						<path fill="#202020" d="M388.33,208.498c0.196-0.161,0.36-0.469,0.51-0.869c-0.161,0.142-0.317,0.262-0.479,0.35
							C388.351,208.15,388.342,208.294,388.33,208.498z"/>
						<path fill="#202020" d="M354.92,192.671l0.286-0.005c0.084-0.376,0.162-0.833,0.236-1.346L354.92,192.671z"/>
						<path fill="#202020" d="M366.811,192.163c-0.269-0.122-0.362,2.688-0.465,3.916c0.151-1.157,0.351-1.709,0.586-1.927
							C366.937,193.618,366.901,192.979,366.811,192.163z"/>
						<path fill="#202020" d="M385.665,197.109l0.334-0.391C385.912,196.841,385.766,196.953,385.665,197.109z"/>
						<path fill="#202020" d="M346.41,192.063c-0.021-0.417-0.063-0.783-0.108-1.006
							C346.302,191.411,346.344,191.745,346.41,192.063z"/>
						<path fill="#202020" d="M13.839,213.186c0.01-0.2-0.004-0.327-0.001-0.5C13.769,212.969,13.747,213.169,13.839,213.186z"/>
						<path fill="#202020" d="M0.056,199.265l0.191-0.151c0.02-0.532,0.041-1.055,0.041-1.574L0.056,199.265z"/>
						<path fill="#202020" d="M287.298,186.289c0.021,0.031,0.029,0.031,0.049,0.054
							C287.636,186.022,287.472,186.079,287.298,186.289z"/>
						<path fill="#202020" d="M186.481,188.361c1.143,2.513-1.858,3.228-0.139,6.016
							C186.183,193.278,187.905,189.995,186.481,188.361z"/>
						<path fill="#202020" d="M388.021,208.13c-0.16,0.031-0.323,0.056-0.487,0.029C387.757,208.249,387.906,208.237,388.021,208.13
							z"/>
						<path fill="#202020" d="M186.343,194.377c0,0.013,0,0.024,0,0.024l0.177,0.264
							C186.446,194.546,186.405,194.479,186.343,194.377z"/>
						<path fill="#202020" d="M261.994,187.979c0.052,0.495,0.153,0.871,0.258,1.23
							C262.243,188.921,262.186,188.569,261.994,187.979z"/>
						<path fill="#202020" d="M280.845,191.978l-0.466-0.376C280.563,191.857,280.714,191.945,280.845,191.978z"/>
						<path fill="#202020" d="M252.207,191.945c-0.254-0.215-0.34-0.603-0.687-0.227c0.032,0.144,0.064,0.244,0.105,0.344
							C251.751,191.677,251.918,191.499,252.207,191.945z"/>
						<path fill="#202020" d="M242.02,191.963c0.054,0.215,0.125,0.376,0.188,0.566c0.102-0.057,0.219-0.101,0.323-0.151
							L242.02,191.963z"/>
						<path fill="#202020" d="M44.799,211.833c-0.223-0.791-0.362-1.662-0.471-2.524C44.485,211.306,42.989,212.019,44.799,211.833z
							"/>
						<path fill="#202020" d="M388.324,206.919c-0.06,0.71-0.146,1.06-0.303,1.211c0.117-0.032,0.229-0.088,0.339-0.151
							C388.391,207.561,388.396,207.165,388.324,206.919z"/>
						<path fill="#202020" d="M251.793,214.121l-1.619-0.415C250.626,213.977,251.215,214.121,251.793,214.121z"/>
						<path fill="#202020" d="M117.884,211.433l-0.371,0.337C117.656,211.833,117.788,211.753,117.884,211.433z"/>
						<path fill="#202020" d="M245.37,214.121c-0.288-0.991-0.595-1.567-0.911-1.943c-0.066,0.22-0.144,0.4-0.188,0.725
							L245.37,214.121z"/>
						<path fill="#202020" d="M44.325,209.277c0.003,0.024,0.003,0.031,0.003,0.031S44.328,209.301,44.325,209.277z"/>
						<path fill="#202020" d="M33.664,215.954c1.542,0.081,0.725-3.615,1.052-5.737c1.841-1.047,0.852,2.723,1.479,4.612
							c1.149-0.979,2.031-4.37,2.888-4.227c0.063,0.608,0.23,0.83,0.035,1.592c1.216-2.937,3.607-0.144,5.023-3.833
							c0.104,0.327,0.158,0.638,0.185,0.916c-0.229-1.849-0.265-3.73-0.218-5.068c0.691-0.063,1.283-2.334,1.544,0.08
							c-0.424-0.07-0.459,0.903-0.658,1.658l0.725-1.05c0.652,3.472-0.988,1.201-0.988,3.771c1.412-1.13,3.059-4.004,4.141-3.022
							c0.227,3.396-2.531,1.143-1.086,4.163l-1.676-1.299c1.28,5.358-1.018-0.374,0.158,5.358c2.204,0.984,2.466-1.73,4.664-0.739
							c0.495-1.888-0.163-2.791,0.332-4.681c3.125-3.391,2.46,8.54,4.758,4.017c0.595-2.264,0.825-6.561,2.461-4.287l-0.558,3.84
							c2.134,0.379,1.218-5.52,3.453-2.937c-0.397,1.509-1.677,1.271-1.354,1.729c1.448,3.032,1.024-2.178,2.138-2.178l0.23,3.4
							c2.271-0.534,4.774-2.99,7.291-3.61c-0.14,1.011-0.571,2.075,0.018,3.115c3.174-1.699,6.774,0.415,9.836,2.432l1.17-2.935
							c0.271,0.034,0.505,1.325,0.21,1.895c1.193,1.113,0.062-1.86,0.636-3.016c0.679-0.205,0.896,1.688,0.466,2.568
							c2.105-2.487,5.997-5.361,8.215-2.217l-0.432,0.872c1.727,1.191,1.949-6.016,3.551-3.279l-0.307,0.521
							c3.748,1.271,7.891-1.416,10.751,3.015c0.544-4.229,3.711,1.885,3.952-4.011c2.14,2.922,1.527,3.975,4.541,5.939
							c0.806,0.271,1.201-3.682,2.196-4.297l0.024,3.084l1.351-3.235l0.72,3.687l0.934-0.791c-0.372-0.181-0.79-1.384-0.734-2.272
							c1.459-1.395,3.556,2.148,3.592,3.728l3.45-2.607c-0.077,1.24-0.654,1.665-1.111,2.456c1.842-3.145,0.335,3.247,2.022,0.364
							c-0.227-0.698,0.122-1.836,0.16-2.459c0.842,1.863,2.757,1.88,4.174,1.094l-0.272,2.127c2.56,0.539,5.396-1.021,8.268-0.981
							c-1.03-0.989-0.794-4.673,0.049-5.027l0.337,3.252c0.543-2.009-0.88-1.226,0.236-3.688c1.073,0.376,0.722,3.703,0.105,4.763
							l1.305-1.128c0.076,0.972-0.229,1.484-0.31,2.725c0.535-2.023,2.252,3.27,3.024-0.244l0.073,0.97
							c2.871,0.026,4.173-1.094,6.513-1.258c0.045-2.813,0.96-2.188,1.656-4.46c1.719,0.896,3.627,3.107,5.698,2.868
							c1.455-1.398,0.425-2.38,1.079-4.05c0.107,2.559,2.175,2.319,1.103,4.157c2.485-0.415,3.175-0.508,6.317-2.588
							c-0.341-1.052-0.724-1.506-0.525-2.38c0.57-0.42,1.298,1.074,1.217,2.305l-0.151,0.264c3.528-3.838,8.144,7.468,10.953,2.129
							l-0.157,0.264l2.914-2.781c1.341,0.442-0.804,1.924,0.188,3.509c3.144-4.272,4.967,0.62,7.555-2.227
							c2.004,7.556,7.109-0.532,9.814,4.292l-0.156-1.78c0.698-1.745,0.846,1.019,1.36,1.426c-0.073-1.382-0.759-1.599-0.324-2.565
							c5.921-2.144,12.221,2.6,18.292,4.206c2.22,0.477,1.26-9.206,4.059-4.958l-0.795,3.303c4.48-3.967,9.161,0.137,13.547-3.225
							c-0.261,0.762-0.269,1.753-0.696,1.74c0.927,2.4,3.426,0.117,3.441-1.841c0.683,0.223,0.158,1.771,0.579,2.767
							c0.93,1.416,2.332-3.064,2.826-0.677c0.084,0.391-0.261,0.779-0.431,0.965c0.605-1.162,2.821,0.295,2.241-2.474
							c1.646,1.321,3.149-1.232,4.462,0.408c0.856-3.096,2.818,1.491,3.09-2.889c-0.118,4.524,2.887,3.65,3.927,1.521
							c-0.348,1.367,0.905,1.418,0.498,3.311c1.188-0.063,2.275-0.903,2.068-3.228c2.188,5.412,4.399-4.355,5.631,2.58
							c3.529-2.432,6.794-4.074,9.968-5.137c-0.114,4.512-3.508,0.452-3.372,5.186c3.012-1.857,4.748-5.729,7.733-4.641
							c0.773,0.615-0.438,1.955-0.699,2.727c3.008-1.857,5.816,0.41,8.493-2.046c-0.008,0.42-0.297,0.879-0.569,1.224
							c0.528-0.149,1.227,0.656,1.167-1.387l-0.514,0.554c-0.843-2.976,2.095-6.216,2.189-7.788
							c-0.896,5.877,2.644,1.478,1.221,8.904c0.348-0.389,0.783-1.36,0.703-2.732c0.516,0.4,0.68,1.201,0.156,2.762
							c1.89-1.116,1.219-3.296,2.931-3.25c-0.006,0.994-0.352,1.377-0.528,2.544c0.866-1.936,1.737-3.872,3.185-3.032
							c-0.088,0.599,0.08,1.377-0.351,1.362c2.484-0.3,4.234-5.153,6.96-3.283c-0.804,4.312,0.928,1.418,1.072,5.151l1.466-1.113
							l-0.589-1.812c1.284,0.063,2.419-2.656,3.522-1.434l-0.954,1.538l2.406-0.708l-1.362-1.416c1.3-1.924-0.139-4.724,1.57-3.684
							c-0.348,0.376,1.284,0.046,1.953,2.246c0,0-0.004,0-0.004,0.01c0.635-1.189,1.289-2.441,2.238-1.514
							c0.246,1.193-0.199,4.128-0.038,4.924c0.626-3.12,3.007-0.866,3.8-4.191c-0.264,0.781-0.277,2.741-0.19,3.14l0.525-2.534
							c0.595,0.811,0.683,1.203,0.585,2.766c1.789,0.464-0.568-4.736,1.556-2.695c-0.167,0.205-0.087,0.584-0.435,0.97
							c2.133,1.064,4.12-1.609,6.08-0.361c0.578,3.757-1.712,0.92-1.051,4.089c2.826-0.681,5.851-4.502,8.585-3.618l-0.51-0.415
							c0.379-5.303,2.036,2.62,3.419,0.12c-0.339,0.393-0.443,2.944-0.353,2.354c1.873,0.852,3.828-1.304,6.665-2.974l-0.352,1.364
							c1.104,1.216,2.906,0.701,4.099,1.321c0.354-1.36,1.035-1.141,0.621-3.12c3.676,7.759,7.011-4.16,10.271,2.305
							c-0.39,0.015-0.929,1.191-0.619,1.191l2.777-1.25c-0.22-2.31-0.364-1.399-0.947-3.198c0.352-1.37,1.136-2.432,1.824-2.432
							c-1.249,1.53,0.011,3.711,0.55,5c-0.09-0.708,0.095-1.489,0.049-2.21c1.451,4.111,0.243-4.648,2.225-1.88l-0.105,1.214
							c0.741-0.62,1.425-2.225,2.225-1.878c0.331,2.674-0.789,1.248-0.84,3.447c1.122-0.153,2.215-5.063,3.231-2.399
							c-0.477,0.744-1.163,0.757-1.64,1.496c1.106,3.14,1.235,2.342,2.058,2.84l-0.081-0.071l1.901,1.421l-0.484-0.85
							c1.405-6.97,2.861-1.274,4.755-5.84c-1.84,4.321-0.304,2.5-0.445,5.53c0.483,0.84,1.219,1.782,1.009,2.634
							c0.895-2.443,1.493,1.924,2.757-1.647c0.057,0.972,0.957,0.095,0.755,2.544c1.163-0.767-0.274-1.697-0.177-2.92
							c1.793-3.333,4.215,4.04,6.793-0.532c2.225-1.88,2.636-5.169,4.699-6.807c0.697,1.56-0.57,3.552-0.57,3.552
							c1.124,1.436,1.97,1.172,3.028,0.057c-0.214,0.85,0.007,1.569,0.33,2.663c0.85-0.254,0.567-3.55,1.688-2.111
							c-0.192,1.086-0.438,2.827-0.849,3.918c1.002-0.898,1.99-2.72,3.027-3.599c0.275,1.699-0.626,2.578-0.991,3.687
							c1.165-0.764,3.019-1.538,3.379-4.229l-0.748-0.959c0.425-0.132,0.219,2.31-0.094,2.8c-0.999,2.109-1.44-0.93-1.497-1.911
							l0.738-0.625c-0.759-5.721-2.966,0.918-4.452,0.586l0.619-4.16l-1.523,3.452c-0.324-1.082-0.547-3.406,0.188-4.028
							c-1.065-2.054-0.943,1.479-1.858-0.813c-0.102-0.356-0.056-0.557,0.038-0.72l-1.041,1.237
							c0.204-0.874-0.173-2.937,0.466-2.336c-1.868-2.4-3.013,3.12-3.716-0.032l0.155-0.256c-2.593,1.406-0.25,3.057-2.195,6.638
							l-1.309-7.531l-0.255,3.052c-0.268-0.11-0.797-0.34-0.699-1.561c-0.995,2.09,0.17,1.328-0.407,3.301
							c-1.288-2.78-3.55,1.302-3.84-3.564c-0.462,2.322,1.23,1.792-0.144,3.406c-0.393-5.232-1.589,0.896-2.766-1.504
							c0.361-2.7,1.476-1.27,0.299-3.682c-0.709,4.565-2.29-0.999-3.282-0.125c-0.047,3.633-2.157,1.517-3.821,2.725
							c0.104-1.218-3.133-1.994-4.682-3.308l0.046-0.61c-0.3,3.672-1.897,2.979-3.061,3.74c0.046-2.202,0.255-3.066,0.885-4.051
							l-1.093,0.018c-0.258,1.177-0.6,1.797-1.309,2.217l0.275-2.744c-1.455,0.151-2.931,3.232-4.804,1.398
							c-0.105,2.562,1.489,7.132-0.491,8.841c-0.072-1.385-0.146-3.753,0.372-4.319c-0.17,0.179-0.605,1.15-0.947,0.56l0.791-2.329
							c-0.853-1.023-0.446,1.945-1.128,1.729c0.014-1.976-0.504-1.409-0.406-2.977c0.174-0.19,0.595,0.818,0.855,0.042
							c-0.769-0.354-1.698-1.526-2.005-3.021c0.066,1.123,0,2.659-0.563,2.915c-1.455,0.145-0.498-2.375-1.347-3.389
							c-0.353,1.37-1.281-0.051-1.306,2.9c-0.426-0.015-0.504-1.392-0.669-2.192c-0.753,1.304-3.519,0.374-2.669,3.514l0.193,0.207
							c-0.036,0.062-0.079,0.063-0.124,0.13c0.007,0,0,0,0.007,0h-0.007c-2.468,2.935-5.128-1.673-7.577-0.41l0.004-0.986
							c-1.463,1.128-3.255,0.666-4.299,2.79c-0.432-0.002-1.021-1.804-0.836-2.979c-1.117,0.742-1.242,1.851-2.857,0.223
							c1.124-1.724-0.388-1.526,1.151-1.263c-1.452-0.852-1.781-2.434-3.341,0.267c0.531-2.532-1.093-3.187-1.783-2.432l1.018,1.812
							c-0.776,0.368-1.455,0.144-2.145-0.071l0.373-3.327c-2.972-4.048-5.36,6.887-7.622,0.112c-0.786,2.326,1.614,1.638,0.911,4.36
							c-1.367-0.449-2.792-5.225-3.22-5.234c-1.873-1.844-1.747,4.86-3.707,3.601c0.251,1.185,0.487,4.354-0.978,5.472
							c-1.368-0.439-1.682-4.979-0.817-5.931c0.328-0.1,0.486,0.278,0.473,0.679c0.441-0.432,1.021-0.939,0.479-2.227l-0.177,1.187
							c-0.679-1.211-2.562-1.084-2.119-3.032c-1.034,1.133-0.442,1.948,0.323,2.563c-1.754-1.719-2.741-0.051-4.547-1.206
							c0.287,0.654,0.552,2.049,0.266,2.036c-2.649-1.47-1.166,2.251-2.961,2.771c-1.021-1.81,0.365-4.319-1.441-2.803
							c-1.104-1.226-0.234-3.149,0.205-4.116c-1.646,2.287-3.076-1.504-4.017-1.924l0.866-0.957
							c-0.518,0.568-0.943,0.552-1.375,0.547l0.495,2.373c-0.509-0.413-0.94-0.425-0.931-1.411c-0.525,1.555,0.401,3.947-0.64,6.074
							c-0.679-1.206-2.067,1.294-2.302-1.855c2.135,1.069-0.235-3.164,1.571-3.672c-0.349,0.376-0.773,0.361-1.284-0.057
							c-0.077-0.352,0.072-0.651,0.211-0.832c-2.043-2.815-0.938,3.562-3.056,3.488c0.269-1.774-0.491-3.366-0.836-2.988
							c0.853,0.037,0.407,2.962-0.375,4.321c-1.357-1.382-1.476,1.028-2.187,0.867l0.812,0.651c-0.274,1.772-0.953,1.541-1.899,2.1
							c-0.081-1.382,0.858-0.949,0.521-1.56c-1.051,3.12-2.375-3.23-3.839-1.128c-0.679-1.204-0.066-3.335-0.662-4.15
							c-1.643,2.302-1.778-2.432-3.504-0.53c0.497,2.386,0.584,1.802-0.632,4.129l2.838-1.68l-1.82,3.469
							c0.855,0.034,1.807-1.501,2.319-1.094c-0.868,1.946-0.778,1.353-0.368,3.333c-1.172-3.579-2.323,2.085-3.678-0.332
							l0.041-5.908c-2.036-2.632-3.617,3.032-6.262,1.545l0.85,1.028c-0.354,2.349-1.632,0.327-2.488,1.279
							c0.08-1.976-0.456-2.69-0.821-3.921c0.045,1.465-1.935-0.135-2.175,3.809l-1.181-2.601c-2.135-1.064-2.437,5.625-4.488,4.954
							c0.618-2.146-0.314-3.545,1.06-5.081c-0.686-0.02-1.301-0.381-1.312,0.989c-0.4-1.238-1.9,2.658-2.53,0.783
							c-0.289,0.867-0.384,2.935-1.152,2.771c-0.084-0.4,0.003-0.977,0.003-0.977c-0.003,0.977-1.204,1.328-0.532,3.513
							c-2.11-6.159-5.899,0.447-7.737-4.841c-1.495,0.661-3.297,1.296-4.654,1.44c0.087-0.591,0.004-0.984,0.261-0.779
							c-1.872-1.836-1.15,5.667-3.281,3.618c-1.089-3.19,1.131-1.726,0.452-2.935c-0.296-6.496-2.571,0.887-4.006-2.905l0.348-0.383
							c-1.097-2.207-2.675,2.461-4.466,1.997c0,0,0.087-0.574,0.011-0.981c-1.225,3.313-3.544,4.409-5.267,5.329
							c0.537-2.541,0.783-1.345,0.456-3.928c-0.772,0.366,0.226,4.147-1.315,4.87c-0.501-1.392-1.613-2.607-1.761-5.363l1.454-0.149
							c-0.745-3.566-1.883,0.122-2.648-0.498l0.098-1.558c-2.229,0.506-2.259,4.434-4.654,4.153l0.248,1.179
							c-1.31,3.892-1.098-2.188-2.403,0.706l-0.396-3.948c-0.863,0.952-3.024,3.816-4.573,4.559
							c0.877-2.928,2.689-4.424,3.812-6.162c-0.856-0.029-2.91,0.29-3.356,2.238c0.346-0.381,0.78-1.348,1.121-0.739
							c-1.051,3.103-2.433,4.629-4.139,4.561c0.303-7.651-4.446-1.929-5.684-7.874c-3.018,2.832-5.986-1.206-9.503-0.752
							c1.247,5.952-1.025,0.169-0.811,6.284c-0.818,0.389-1.131,0.288-1.204-0.107l-2.481-3.652
							c-0.588-1.779,0.779-1.348,0.703-2.72c-1.793-0.469-0.752-2.59-1.938-4.216c0.243,2.188-0.623,3.132-1.646,2.297l1.439,2.82
							c-2.506,3.254-2.166-5.132-4.691-1.909l0.799-1.924c-1.296,1.135-4.781-0.039-6.052,4.873
							c-0.229-0.706-0.532-2.378,0.038-2.82c-3.098-0.737-6.895,5.228-9.302,2.202l0.235-1.494
							c-0.578,0.433-1.006,2.811-1.729,1.304c0.037-0.617,0.232-1.491-0.035-1.579c-0.306,0.515-1.535,2.619-2.301,1.748
							l0.654-1.683c-3.021-1.958-4.637,4.097-7.17,5.122c0.007-4.401-2.371-5.832-3.558-6.545l0.042-0.623
							c-3.519-0.544-5.977,3.647-9.234,5.376c-2.022-4.777-6.85-2.002-10.101-4.68c0.498,0.798-0.08,3.43-0.658,3.872
							c-0.763-0.894-2.108,3.054-1.987-0.981l0.271,0.075c-0.574-3.96-2.142-2.907-3.366-3.015l-0.201,5.28
							c-3.201-7.681-8.389,2.822-10.136-4.058c-0.772,1.321-1.729,1.307-2.495,2.625l0.041-2.832
							c-2.14-0.723-3.209-1.077-5.854-0.403l0.54-2.023c-1.493-0.188-1.885,8.164-3.262,8.33l-0.414-4.227
							c-2.604,0.066-5.238-3.645-7.812,0.188c0.043-0.62,0.119-1.841,0.541-2.012c-1.226-0.11-4.741-2.861-4.296,2.939
							c-0.031-3.777-2.687-0.369-4.093,1.296l0.219-2.785c-1.187,3.56-1.225,4.533-2.882,5.52c-0.393-0.363-0.344-2.231,0.178-1.519
							c-1.309-1.46-1.02,2.64-2.606,1.155l0.592-1.78c-1.348-0.215-1.24,0.74-1.981,2.815c-0.847,1.118-2.555-0.703-2.753-3.223
							c-0.182,1.535-0.919,3.591-1.713,2.863c-0.106-0.952,0.182-1.543,0.327-1.831c-2.252-1.896-3.348,3.24-4.896,0.503
							c-0.032-0.923-0.133-1.384-0.262-1.662c1.789,0.065,3.229,0.22,3.095,0.422c0-2.568-1.444-3.02-0.295-6.567
							c-1.16,1.937-3.144,6.146-4.552,4.937c-0.068-0.249-0.135-0.493-0.187-0.889l0.146-0.288c-0.324-0.256-0.615-0.017-0.89,0.415
							c-0.449-0.422-0.735-0.734-1.166-0.771c-0.167-2.126-1.657-1.147-2.378-1.25c0.06,2.811-0.884,2.358,0,4.678
							c-0.114-0.197,0.137-0.334,0.615-0.451c0.108-0.083,0.236-0.125,0.307-0.291c-0.014,0.072-0.031,0.158-0.049,0.247
							c0.473-0.081,1.09-0.145,1.791-0.188c-0.569,1.429-1.164,2.63-1.961,1.069c-0.369,1.807-0.776,3.665-1.006,4.536
							c-0.985-3.921-2.886-6.04-3.15-8.457c-2.199,1.577-5.183,1.04-6.565,6.321c-0.626,0.679-0.719-1.514-0.952-2.344
							c0.36-0.53,0.79-0.449,0.985-1.209c-1.25,1.355-3.705,0.527-4.004,4.217c-1.576-1.665,0.886-3.396-1.279-2.793l0.292-1.128
							c-4.261-5.896-6.927,9.416-11.65,1.848c0.327,0.464,0.49,0.679,0.558,1.297c-5.386-3.338-11.098,3.132-16.412-2.161
							c-1.511-1.066-1.674,1.289-2.597,3.081l-0.326-3.02l-1.577,3.483c-2.234,2.552-3.87-7.409-6.7-2.585l0.365,2.033
							c-1.017-0.386-3.219,1.199-3.049-1.14c-0.104,0.371-0.334,2.114-0.731,1.055l-0.03-1.58l-2.496,2.708
							c-1.936-1.143,0.303-6.272-2.522-6.58c-1.049,0.608-2.989,4.6-2.595,5.657c0.424,0.078,1.082,0.986,1.114,2.568l-0.96,0.822
							c-0.175,4.656-0.912,9.424,1.444,12.676l1.643-2.847l0.528,2.259l-1.382,0.142c0.784,2.126,1.281,0.246,1.838-1.045
							c0.132,1.201,0.362,2.041,0.688,2.487l1.612-4.448c0.195,1.824-0.724,3.616,0.358,4.622c0.756-2.065-0.724-4.085,0.526-5.442
							c0.786,2.117,0.557,3.841,1.479,2.034c0.13,1.198-0.065,1.963-0.432,2.49c0.821-1.438,2.173-0.608,2.597-3.084
							c0.818,2.612,2.771-0.679,2.69,3.729c0.258-1.055,1.445-3.46,2.2-3.643c-1.378,5.275,2.822,0.31,2.457,5.967
							c1.021-4.744,3.684-2.107,5.489-4.739c-0.102,0.376-0.3,1.141-0.459,0.898c1.017,0.394,1.312,1.824,1.965,2.72
							c0.131-3.918,1.714-4.814,2.566-7.231c1.246,3.782-0.757,4.6-0.365,8.232c-0.063-3.176,2.165-3.171,1.741-5.815
							c0.952,2.339,0.82,1.136,1.312,4.383c0.167-4.9,0.887-0.828,1.677-3.838c1.379,2.414,0.355,4.59,1.87,3.098
							C35.011,214.219,33.664,215.954,33.664,215.954z M69.686,207.482c0,0.027,0,0.047,0,0.057
							c-0.311,0.066-0.575,0.123-0.743,0.158C69.097,207.658,69.312,207.603,69.686,207.482z M72.713,207.438
							c-0.368-0.109-0.827-0.129-1.313-0.109c-0.105-0.972,0.009-1.971,0.313-1.919C71.548,206.057,72.262,206.618,72.713,207.438z
							 M66.31,187.959c0.479-0.398,0.64,0.153,0.705,0.729c-0.226,0.049-0.49,0.145-0.838,0.337
							c-0.015,0.091-0.04,0.249-0.056,0.345C66.166,188.833,66.219,188.33,66.31,187.959z"/>
						<path fill="#202020" d="M65.448,191.646c-0.068,0.063-0.107,0.181-0.197,0.205c0.098,0.246,0.191,0.459,0.285,0.632
							c0.059-0.302,0.117-0.607,0.17-0.881C65.619,191.616,65.529,191.631,65.448,191.646z"/>
						<path fill="#202020" d="M339.856,195.811l-0.064-0.063c0.054,0.112,0.103,0.222,0.134,0.4
							C339.884,196.011,339.884,195.923,339.856,195.811z"/>
						<polygon fill="#202020" points="114.513,212.817 114.509,212.109 114.244,212.729 						"/>
						<path fill="#202020" d="M356.528,205.459c0.032,0.246,0.095,0.503,0.219,0.72
							C356.737,205.993,356.644,205.737,356.528,205.459z"/>
						<path fill="#202020" d="M363.73,206.089l1.019,1.001C364.308,206.521,363.987,206.25,363.73,206.089z"/>
						<path fill="#202020" d="M369.268,207.482c0.07-0.493,0.09-0.864,0.108-1.203c-0.004-0.01-0.008-0.01-0.011-0.022
							L369.268,207.482z"/>
						<path fill="#202020" d="M281.227,210.786c-0.074,0.015-0.147,0.051-0.214,0.127
							C280.512,211.457,280.853,211.242,281.227,210.786z"/>
						<path fill="#202020" d="M307.427,204.219c-0.278,0.51-0.553,1.011-0.842,1.328
							C307.051,205.762,307.413,205.817,307.427,204.219z"/>
						<path fill="#202020" d="M251.97,214.17c0.002-0.03,0.001-0.016,0.004-0.049c-0.063,0.01-0.118,0-0.181,0L251.97,214.17z"/>
						<path fill="#202020" d="M305.366,205.498c0.467,0.559,0.856,0.439,1.219,0.049
							C306.202,205.358,305.752,205.07,305.366,205.498z"/>
						<path fill="#202020" d="M393.267,208.757l0.268,0.117c-0.005-0.186,0.012-0.337,0.031-0.451L393.267,208.757z"/>
						<path fill="#202020" d="M393.565,208.423l0.297-0.332C393.726,208.091,393.608,208.112,393.565,208.423z"/>
						<path fill="#202020" d="M394.485,207.383l-0.623,0.708C394.077,208.098,394.344,208.186,394.485,207.383z"/>
						<path fill="#202020" d="M385.937,207.458l-0.084,1.021C385.898,208.269,385.929,207.939,385.937,207.458z"/>
						<path fill="#202020" d="M383.709,207.754c0.531,0.231,1.333,2.175,2.075,1.535l0.068-0.811
							C385.505,209.995,384.214,206.035,383.709,207.754z"/>
						<path fill="#202020" d="M374.412,195.153l1.866,0.815c-0.326-1.086-0.756-2.546,0.094-2.808
							C374.019,189.922,376.857,195.591,374.412,195.153z"/>
						<path fill="#202020" d="M368.624,193.579c1.003-0.506-0.012-1.577,0.041-2.19
							C368.029,192.378,367.875,192.629,368.624,193.579z"/>
						<path fill="#202020" d="M326.797,193.569l0.102-2.559C326.125,191.379,326.891,192.002,326.797,193.569z"/>
						<polygon fill="#202020" points="318.802,206.789 319.554,208.379 319.912,206.035 						"/>
						<polygon fill="#202020" points="314.078,188.569 314.416,188.203 313.127,189.131 						"/>
						<path fill="#202020" d="M243.831,189.478l0.234,3.151C244.588,192.063,244.697,188.522,243.831,189.478z"/>
						<path fill="#202020" d="M213.505,192.686c-0.33-1.575-1.183-2.588-1.709-1.04
							C212.479,191.862,213.158,193.091,213.505,192.686z"/>
						<polygon fill="#202020" points="122.556,187.554 123.166,186.499 122.017,187.378 						"/>
					</g>
				</g>
			</g>
		</g>
	</g>
</g>
<g id="Calque_18">
</g>
<g id="Calque_19">
</g>
<g id="Calque_20">
</g>
<g id="Calque_21">
</g>
<g id="Calque_22">
</g>
<g id="Calque_23">
</g>
<g id="Calque_24">
</g>
<g id="Calque_25">
</g>
<g id="Calque_26">
</g>
<g id="Calque_27">
</g>
</svg>
