<?xml version="1.0" encoding="UTF-8"?>
<svg version="1.1" xmlns="http://www.w3.org/2000/svg" width="1181" height="1181">
<path d="M0 0 C4.25843584 0.13189846 6.8630813 3.34090064 9.75 6.125 C10.31219238 6.65561035 10.87438477 7.1862207 11.45361328 7.73291016 C12.67069543 8.8822105 13.88494883 10.03451218 15.09667969 11.18945312 C17.67283684 13.6400408 20.27017108 16.06763528 22.86694336 18.49633789 C24.89646152 20.39507859 26.92316675 22.2967804 28.94921875 24.19921875 C37.41462529 32.14505107 45.897136 40.07224275 54.4375 47.9375 C60.64904088 53.65863087 66.80830884 59.43463953 72.96484375 65.21484375 C76.78136551 68.79734645 80.60835067 72.36850519 84.4375 75.9375 C91.92742074 82.92177208 99.38467007 89.94050084 106.83837891 96.96337891 C110.4122783 100.33061053 113.98718315 103.69677351 117.5625 107.0625 C118.26616699 107.72491699 118.96983398 108.38733398 119.69482422 109.06982422 C124.45788362 113.55225227 129.22713802 118.02801285 134 122.5 C141.63064102 129.64961563 149.24626716 136.81509103 156.85888672 143.98388672 C160.40529863 147.32325611 163.95269669 150.66157757 167.5 154 C168.91667145 155.33332826 170.33333811 156.66666159 171.75 158 C172.45125 158.66 173.1525 159.32 173.875 160 C210 194 246.125 228 282.25 262 C282.9519751 262.66064453 283.6539502 263.32128906 284.37719727 264.00195312 C285.78669279 265.32861343 287.1960365 266.65543504 288.60522461 267.98242188 C292.25534949 271.41922503 295.90846975 274.85276094 299.56640625 278.28125 C300.31921875 278.98765625 301.07203125 279.6940625 301.84765625 280.421875 C303.26983909 281.75626878 304.69293801 283.08968726 306.1171875 284.421875 C310.21260778 288.26688496 314.21521963 292.18734987 318.15673828 296.19018555 C319.9807781 297.9811269 321.86634831 299.65593061 323.8125 301.3125 C327.20195627 304.2225047 330.36451107 307.32160325 333.5 310.5 C336.55336953 313.59492611 339.62323755 316.61934337 342.9375 319.4375 C346.476791 322.45352827 349.73494445 325.69447901 353 329 C356.24451876 332.28467991 359.47922358 335.50734004 363 338.5 C367.08874765 341.9754355 370.80816684 345.78100237 374.57592773 349.59545898 C377.9058233 352.95060894 381.33931399 356.09725452 384.94140625 359.16015625 C388.07230281 361.95835792 390.98829695 364.96773656 393.93603516 367.95556641 C396.52022318 370.56120739 399.14209158 373.06053109 401.9375 375.4375 C406.04426535 378.93710497 409.78724806 382.75982009 413.57568359 386.59521484 C416.90566329 389.95044557 420.33922489 393.09717875 423.94140625 396.16015625 C427.07230281 398.95835792 429.98829695 401.96773656 432.93603516 404.95556641 C435.52022318 407.56120739 438.14209158 410.06053109 440.9375 412.4375 C444.99654291 415.896438 448.71728898 419.65835029 452.43725586 423.47436523 C455.1522343 426.23729031 457.9393359 428.84642995 460.875 431.375 C465.8453353 435.67443452 470.40103784 440.35027686 475 445.0390625 C478.23997537 448.31700634 481.50697069 451.49135561 485 454.5 C489.93462131 458.75032812 494.44253389 463.39258338 499 468.0390625 C502.87539047 471.95986771 506.85496085 475.65675095 511.03125 479.25390625 C514.99672457 482.77090453 518.64859394 486.60961697 522.35546875 490.39453125 C525.46624598 493.54443775 528.61359379 496.5788596 531.96875 499.46875 C536.91227222 503.73139913 541.4321549 508.38200168 546 513.0390625 C549.23997537 516.31700634 552.50697069 519.49135561 556 522.5 C560.93462131 526.75032812 565.44253389 531.39258338 570 536.0390625 C576.32776055 542.4409765 583.06060951 548.27500284 590 554 C595.93545646 548.15225964 601.82439796 542.34302484 607.2265625 535.9921875 C610.19449915 532.65816175 613.41555269 529.57739515 616.58984375 526.44140625 C619.26854532 523.72797273 621.74608118 520.89222977 624.22265625 517.99609375 C626.94855159 514.9347036 629.89141358 512.10034836 632.80859375 509.22265625 C635.42101068 506.5729856 637.83302621 503.78827197 640.25390625 500.96484375 C642.7235936 498.18575486 645.37903322 495.61139504 648.02734375 493.00390625 C650.57337829 490.41753849 652.92021557 487.6846472 655.28515625 484.93359375 C657.50169397 482.43430862 659.87162281 480.11718116 662.25390625 477.77734375 C664.06477643 475.93406426 665.75321354 474.02177201 667.4375 472.0625 C669.85617779 469.25423653 672.35899683 466.60029407 675 464 C677.62040609 461.41990785 680.10323412 458.78896393 682.5 456 C685.51762353 452.48858352 688.73359081 449.24692598 692.03125 446 C693.93986455 444.06108998 695.72710552 442.06300449 697.5 440 C699.89676588 437.21103607 702.37959391 434.58009215 705 432 C707.55869259 429.48044611 709.98170611 426.91881218 712.3125 424.1875 C716.03007415 419.85741936 720.07659597 415.88991218 724.15625 411.90625 C726.28640293 409.7820975 728.26080857 407.56475078 730.21875 405.28125 C735.35931245 399.34465716 741.02638829 393.92922945 746.6171875 388.421875 C747.46539063 387.58140625 748.31359375 386.7409375 749.1875 385.875 C749.94417969 385.12992188 750.70085938 384.38484375 751.48046875 383.6171875 C753.38170995 381.64225478 755.1548027 379.65994916 756.92797852 377.57641602 C762.60761877 371.03905864 768.83936102 365.0170903 774.96484375 358.90234375 C776.32587513 357.54063742 777.68675815 356.17878278 779.04750061 354.81678772 C781.88933955 351.97348081 784.73296282 349.13197401 787.57788086 346.29174805 C791.20678592 342.66853969 794.8311822 339.04085957 798.45424557 335.41181087 C801.2604179 332.60200854 804.06898799 329.7946126 806.87826729 326.98791695 C808.21491246 325.6519343 809.55082784 324.31522106 810.88596916 322.97773552 C823.19054929 310.65629058 823.19054929 310.65629058 829.43751526 305.34010315 C831.54229337 303.53488886 833.49456357 301.60202304 835.4375 299.625 C836.18773437 298.86703125 836.93796875 298.1090625 837.7109375 297.328125 C838.46632813 296.55984375 839.22171875 295.7915625 840 295 C844.92690766 289.98901542 849.89194442 285.13593291 855.22265625 280.5546875 C857.5967263 278.47802842 859.80025267 276.25919996 862 274 C865.56359983 270.39280873 869.21924856 267.00522111 873.0703125 263.7109375 C875.75916548 261.32689376 878.25477545 258.77183972 880.75 256.1875 C882.69817315 254.29344277 884.68714327 252.51049805 886.73828125 250.73046875 C890.99450318 247.03321423 895.09826328 243.19259292 899.1875 239.3125 C906.40977341 232.48782635 913.67872798 225.71823289 921 219 C921.50337891 218.53787109 922.00675781 218.07574219 922.52539062 217.59960938 C925.02460582 215.30572123 927.52524139 213.01339474 930.02734375 210.72265625 C932.04204145 208.87812107 934.05493407 207.03164578 936.06640625 205.18359375 C942.34387474 199.41783739 948.65534942 193.6918248 955 188 C956.66692647 186.50028872 958.33359149 185.00028679 960 183.5 C970 174.5 970 174.5 972.4921875 172.2578125 C974.18592894 170.73291756 975.87861169 169.20684598 977.5703125 167.6796875 C983.72450123 162.12774354 989.91482631 156.62704707 996.22265625 151.25 C1001.78122479 146.50920677 1007.30937974 141.75913783 1012.6875 136.8125 C1017.07355646 132.78606164 1021.61741628 129.01890278 1026.25 125.28125 C1029.08099578 122.93281032 1031.79383598 120.49090098 1034.5 118 C1038.9698512 113.88621091 1043.59044893 110.02912703 1048.31640625 106.21484375 C1050.94708557 104.04367173 1053.47942424 101.79758643 1056 99.5 C1060.21879623 95.65930343 1064.57718295 92.04089654 1069.01171875 88.453125 C1072.40749764 85.66547906 1075.73685272 82.80803982 1079.0625 79.9375 C1083.83354852 75.8252155 1088.66133952 71.81135514 1093.6015625 67.90234375 C1099.46319884 63.25313056 1105.22141605 58.47378638 1110.984375 53.703125 C1118.20691426 47.72903792 1125.45171962 41.79730716 1132.84448242 36.03466797 C1135.74775327 33.77129667 1138.63762326 31.49465849 1141.5 29.1796875 C1151.80057608 20.85037316 1162.36517939 12.8969027 1173 5 C1174.65 6.32 1176.3 7.64 1178 9 C1177.45793014 12.74060611 1176.58329645 14.98897612 1174.2265625 17.93359375 C1173.65478271 18.65756348 1173.08300293 19.3815332 1172.49389648 20.12744141 C1171.87716064 20.88976074 1171.2604248 21.65208008 1170.625 22.4375 C1169.99086182 23.23591309 1169.35672363 24.03432617 1168.70336914 24.85693359 C1167.4129582 26.48110228 1166.11910993 28.10254614 1164.82177734 29.72119141 C1162.77498449 32.28146539 1160.75732205 34.8631352 1158.74365234 37.44946289 C1153.86002491 43.71419842 1148.86229638 49.88306366 1143.83789062 56.03515625 C1140.31489327 60.35636534 1136.85839137 64.72272569 1133.4375 69.125 C1129.22241584 74.53791796 1124.83071204 79.77195824 1120.34179688 84.95922852 C1116.57224764 89.31639117 1112.90938557 93.74992482 1109.27734375 98.22265625 C1106.25514777 101.90838753 1103.16852793 105.53744822 1100.08129883 109.16870117 C1097.22140505 112.53870316 1094.40737018 115.94035256 1091.625 119.375 C1086.97856293 125.08158671 1082.15609974 130.6266132 1077.32421875 136.17578125 C1074.19707854 139.76768076 1071.09493738 143.38034917 1068 147 C1051.41629917 166.37330247 1051.41629917 166.37330247 1044.25 174.25 C1041.31815907 177.47873622 1038.53742089 180.78259885 1035.8125 184.1875 C1030.9088046 190.25463807 1025.57493492 195.88435831 1020.2265625 201.55859375 C1017.30825324 204.65773486 1014.4803901 207.82075898 1011.703125 211.046875 C1009.50634095 213.56612276 1007.25310381 216.03102996 1005 218.5 C1002.17422616 221.59731967 999.36781221 224.7040415 996.625 227.875 C993.01952682 232.02469555 989.28166416 236.04764299 985.5456543 240.0793457 C981.74877572 244.17945339 978.00002132 248.31979605 974.26953125 252.48046875 C970.34118784 256.84153846 966.36517854 261.15890302 962.39404297 265.48095703 C961.04322497 266.95289916 959.69539027 268.42757736 958.34765625 269.90234375 C952.68885343 276.09295771 946.98697637 282.24116165 941.25805664 288.36694336 C937.53035481 292.35449316 933.82070081 296.35779713 930.125 300.375 C925.34109484 305.5685586 920.52200368 310.72852097 915.6875 315.875 C915.02959473 316.5767334 914.37168945 317.2784668 913.69384766 318.00146484 C910.04740877 321.8764397 906.35030358 325.68409115 902.55395508 329.41259766 C900.95312475 331.04788419 899.47190971 332.74841979 898 334.5 C893.80082124 339.3863171 889.19093501 343.86145 884.59375 348.36914062 C881.51528386 351.40591921 878.54607832 354.4755672 875.73387146 357.76194763 C872.1582113 361.87048389 868.39544658 365.7458793 864.53930664 369.59008789 C863.82937057 370.30177628 863.11943451 371.01346466 862.38798523 371.74671936 C860.06453332 374.07453554 857.73748637 376.39871797 855.41015625 378.72265625 C853.78008173 380.35340537 852.15015559 381.98430283 850.52037048 383.61534119 C847.11359145 387.02358984 843.70502242 390.43003533 840.29516602 393.83520508 C835.93985206 398.18482223 831.58904339 402.53891383 827.23957157 406.89437199 C823.87751951 410.26004951 820.51307455 413.62332691 817.14791679 416.98589897 C815.54332667 418.58982532 813.93946989 420.19448569 812.33638191 421.79991341 C810.09003823 424.04881632 807.84047984 426.29445561 805.59008789 428.53930664 C804.93789276 429.193526 804.28569763 429.84774536 803.61373901 430.52178955 C799.77092856 434.34722142 795.81360124 437.9843983 791.70288754 441.52085018 C789.71550886 443.24711263 787.84255687 445.05792748 786 446.9375 C785.34 447.60523438 784.68 448.27296875 784 448.9609375 C783.34 449.63382813 782.68 450.30671875 782 451 C777.43006238 455.65919421 772.78930554 460.11916017 767.84375 464.37890625 C765.26929553 466.64246261 762.8952606 469.04702227 760.5 471.5 C756.74850206 475.30869334 752.89410231 478.91966876 748.828125 482.390625 C746.35828108 484.56493204 744.08207561 486.90736519 741.77734375 489.25390625 C739.93406426 491.06477643 738.02177201 492.75321354 736.0625 494.4375 C733.25423653 496.85617779 730.60029407 499.35899683 728 502 C724.79970478 505.25029983 721.45775424 508.24724245 718 511.21875 C715.21114467 513.70257428 712.62313017 516.36711437 710.00390625 519.02734375 C707.41753849 521.57337829 704.6846472 523.92021557 701.93359375 526.28515625 C700.04505403 527.96004299 698.26844352 529.69947587 696.5 531.5 C694.12957643 533.91332717 691.69263692 536.17271853 689.125 538.375 C686.1153247 540.96634205 683.28911384 543.67254783 680.5 546.5 C677.11758601 549.9288279 673.61929558 553.12048518 669.96484375 556.25390625 C667.89179676 558.09615675 665.94564198 560.02401662 664 562 C661.48044611 564.55869259 658.91881218 566.98170611 656.1875 569.3125 C652.79804351 572.22250489 649.63549239 575.32160708 646.5 578.5 C643.46716171 581.57405234 640.42060574 584.5799926 637.125 587.375 C633.38456778 590.56129412 629.95196232 594.00879969 626.5 597.5 C622.51223718 601.53298837 618.48505089 605.39402467 614.15625 609.0625 C611.15380678 611.76034753 608.33800412 614.63098164 605.5 617.5 C594.36187563 628.72286749 594.36187563 628.72286749 591 631 C588 631 588 631 586.421875 629.75 C585.87015625 629.1725 585.3184375 628.595 584.75 628 C584.20859375 627.443125 583.6671875 626.88625 583.109375 626.3125 C581.29100937 624.31903249 579.52710434 622.29339602 577.765625 620.25 C574.03192933 615.96705648 570.05469412 611.97701798 566 608 C561.39197045 603.48024688 556.98982203 598.89067773 552.77734375 594 C549.67613415 590.51028722 546.33165868 587.2678338 543 584 C538.39197045 579.48024688 533.98982203 574.89067773 529.77734375 570 C526.67613415 566.51028722 523.33165868 563.2678338 520 560 C515.38174047 555.47021287 510.9680272 550.87040516 506.74609375 545.96875 C503.81387042 542.66261899 500.65589331 539.59082335 497.5 536.5 C493.70587028 532.78409976 489.99863434 529.05687536 486.53125 525.03125 C482.88933509 520.8076119 478.97965701 516.90341837 475 513 C470.39197045 508.48024688 465.98982203 503.89067773 461.77734375 499 C458.67613415 495.51028722 455.33165868 492.2678338 452 489 C447.38174047 484.47021287 442.9680272 479.87040516 438.74609375 474.96875 C435.81371702 471.66244604 432.65417362 468.5928021 429.5 465.5 C425.06744382 461.11485084 420.75671699 456.72188096 416.734375 451.953125 C413.97936009 448.85063073 410.99596427 445.97590104 408.04370117 443.06323242 C405.4382993 440.47929259 402.93924473 437.85764479 400.5625 435.0625 C397.54647173 431.523209 394.30552099 428.26505555 391 425 C387.12271626 421.17012306 383.4375639 417.27948694 379.90625 413.125 C376.8799847 409.75145836 373.62789294 406.60796464 370.40454102 403.42407227 C367.04939106 400.0941767 363.90274548 396.66068601 360.83984375 393.05859375 C358.49504936 390.43501277 356.00369432 387.97009896 353.5 385.5 C350.40508867 382.44661717 347.38065743 379.37676339 344.5625 376.0625 C341.54647173 372.523209 338.30552099 369.26505555 335 366 C331.12271626 362.17012306 327.4375639 358.27948694 323.90625 354.125 C320.8799847 350.75145836 317.62789294 347.60796464 314.40454102 344.42407227 C311.04939106 341.0941767 307.90274548 337.66068601 304.83984375 334.05859375 C302.04233133 330.92846838 299.03375494 328.01314342 296.04663086 325.06616211 C292.82001347 321.86614229 289.82069539 318.54927728 286.875 315.09375 C284.06468711 311.95556727 281.04881363 309.0279331 278.05126953 306.07080078 C274.77979369 302.82635263 271.73036494 299.46382493 268.7421875 295.9609375 C266.03077636 292.90908012 263.09662853 290.08855234 260.19140625 287.22265625 C257.57898932 284.5729856 255.16697379 281.78827197 252.74609375 278.96484375 C250.90384325 276.89179676 248.97598338 274.94564198 247 273 C244.40017817 270.44009866 241.93731602 267.8322046 239.5625 265.0625 C236.99334729 262.07198284 234.30682744 259.26883316 231.5 256.5 C228.0928121 253.13885518 224.92541826 249.66298797 221.8125 246.03125 C219.7890712 243.76361428 217.66346653 241.6342305 215.5 239.5 C212.0928121 236.13885518 208.92541826 232.66298797 205.8125 229.03125 C203.7890712 226.76361428 201.66346653 224.6342305 199.5 222.5 C196.0928121 219.13885518 192.92541826 215.66298797 189.8125 212.03125 C187.7890712 209.76361428 185.66346653 207.6342305 183.5 205.5 C180.0928121 202.13885518 176.92541826 198.66298797 173.8125 195.03125 C171.7890712 192.76361428 169.66346653 190.6342305 167.5 188.5 C164.0928121 185.13885518 160.92541826 181.66298797 157.8125 178.03125 C155.7890712 175.76361428 153.66346653 173.6342305 151.5 171.5 C148.0928121 168.13885518 144.92541826 164.66298797 141.8125 161.03125 C139.7890712 158.76361428 137.66346653 156.6342305 135.5 154.5 C132.0928121 151.13885518 128.92541826 147.66298797 125.8125 144.03125 C123.7890712 141.76361428 121.66346653 139.6342305 119.5 137.5 C116.0928121 134.13885518 112.92541826 130.66298797 109.8125 127.03125 C107.7890712 124.76361428 105.66346653 122.6342305 103.5 120.5 C100.0928121 117.13885518 96.92541826 113.66298797 93.8125 110.03125 C91.07222917 106.96025683 88.12053098 104.11213124 85.19140625 101.22265625 C82.57898932 98.5729856 80.16697379 95.78827197 77.74609375 92.96484375 C75.2764064 90.18575486 72.62096678 87.61139504 69.97265625 85.00390625 C67.42662171 82.41753849 65.07978443 79.6846472 62.71484375 76.93359375 C60.4995262 74.43568444 58.1310183 72.11975011 55.75 69.78125 C53.29365151 67.28103815 51.03690632 64.62319484 48.75 61.96875 C46.55005105 59.49380743 44.20618555 57.19286326 41.84350586 54.87475586 C40.06663359 53.06776312 38.40563127 51.20655066 36.75390625 49.28515625 C33.08596017 45.06706668 29.28328695 40.99317858 25.4375 36.9375 C24.03233353 35.44942509 22.62739016 33.96113949 21.22265625 32.47265625 C20.52027832 31.72902832 19.81790039 30.98540039 19.09423828 30.21923828 C15.84698589 26.77816527 12.6082908 23.3291907 9.375 19.875 C8.81997803 19.28452881 8.26495605 18.69405762 7.69311523 18.08569336 C6.64089822 16.96058997 5.59418746 15.83030552 4.55371094 14.69433594 C3.46106826 13.50279914 2.35349192 12.32486953 1.23535156 11.15722656 C0.67557617 10.55104492 0.11580078 9.94486328 -0.4609375 9.3203125 C-1.22736572 8.50844482 -1.22736572 8.50844482 -2.00927734 7.68017578 C-3 6 -3 6 -2.78369141 3.91748047 C-2 2 -2 2 0 0 Z " fill="#000000" transform="translate(3,275)"/>
</svg>
