<?xml version="1.0" encoding="UTF-8"?>
<svg version="1.1" xmlns="http://www.w3.org/2000/svg" viewBox="0 0 962 1181" width="962" height="1181">
<path d="M0 0 C23.29188245 -0.14823444 46.58355377 -0.26381583 69.87584871 -0.31917858 C74.97519998 -0.33203629 80.07445426 -0.35402325 85.17375183 -0.38041687 C91.68771382 -0.41380552 98.20145413 -0.42597226 104.71551895 -0.42194748 C107.01805183 -0.42344455 109.32059242 -0.43150551 111.62307358 -0.44701004 C132.36835909 -0.57811837 149.0479321 2.78715861 164.39009094 17.92341614 C180.20392899 34.49962201 183.62246171 55.56972485 183.56904602 77.61457825 C183.5658908 80.33316874 183.58939521 83.05066291 183.61470032 85.76911926 C183.69552958 107.88329911 178.57157903 127.35167139 162.94087219 143.84919739 C149.62761278 156.43421013 134.42463994 161.07707572 116.51118469 161.35310364 C115.38767609 161.37388474 114.26416748 161.39466583 113.10661316 161.41607666 C109.53059287 161.48126963 105.95450142 161.54031623 102.37837219 161.59919739 C99.94867744 161.64241138 97.51898979 161.68602659 95.08930969 161.73005676 C89.14407162 161.83691993 83.19876334 161.93874166 77.25337219 162.03669739 C77.26003403 163.29218887 77.26669586 164.54768036 77.27355957 165.84121704 C77.3349404 177.79700419 77.37961402 189.75275851 77.40880871 201.70866871 C77.42432352 207.85217781 77.44529525 213.9955576 77.47969055 220.13899231 C77.76763833 273.0102776 77.76763833 273.0102776 74.25337219 294.03669739 C74.13732635 294.78381989 74.02128052 295.53094238 73.90171814 296.30070496 C73.24030888 300.55299 72.45097039 304.76324751 71.56587219 308.97419739 C71.31168518 310.20670227 71.05749817 311.43920715 70.79560852 312.70906067 C59.49444703 365.79509131 36.72254522 415.9616505 2.25337219 458.03669739 C1.54309875 458.93904114 0.83282532 459.84138489 0.10102844 460.77107239 C-13.57312062 477.98471255 -29.4522709 494.46003898 -46.74662781 508.03669739 C-47.84133811 508.94151924 -48.93366165 509.84923412 -50.02397156 510.75935364 C-77.24363099 533.31483261 -109.48640592 551.67438983 -142.84819031 563.36384583 C-151.60122373 566.48433782 -157.83433719 569.99840364 -162.74662781 578.03669739 C-164.63138705 583.69097511 -164.6870436 589.74773206 -162.18412781 595.22419739 C-155.09535513 607.35549908 -142.24231152 611.62657337 -129.87162781 616.72419739 C-97.84669781 629.9727419 -68.65012016 648.03412315 -42.74662781 671.03669739 C-41.39294025 672.20391993 -40.03885142 673.37067748 -38.68412781 674.53669739 C-37.36702677 675.69816723 -36.05532065 676.86576169 -34.74662781 678.03669739 C-34.22085144 678.5067218 -33.69507507 678.97674622 -33.15336609 679.46101379 C-31.34492895 681.08369002 -29.54492898 682.71529991 -27.74662781 684.34919739 C-27.15744568 684.87771301 -26.56826355 685.40622864 -25.96122742 685.95075989 C-24.51766787 687.27165847 -23.12705677 688.64995548 -21.74662781 690.03669739 C-21.74662781 690.69669739 -21.74662781 691.35669739 -21.74662781 692.03669739 C-25.78360894 692.63543294 -29.82204043 693.22304893 -33.86210632 693.8006134 C-35.23494033 693.99844255 -36.60734839 694.19925225 -37.97929382 694.40315247 C-39.95656825 694.69648045 -41.93557616 694.9780465 -43.91459656 695.25935364 C-45.10335388 695.43216858 -46.29211121 695.60498352 -47.51689148 695.78303528 C-51.72239576 696.11333379 -54.53529147 695.98374216 -57.89506531 693.35700989 C-58.62983093 692.63255676 -59.36459656 691.90810364 -60.12162781 691.16169739 C-66.54961784 685.15271708 -73.5544684 680.08995846 -80.74662781 675.03669739 C-81.63777283 674.40827942 -81.63777283 674.40827942 -82.54692078 673.76716614 C-103.33445209 659.21993511 -125.83252987 647.71816129 -149.37162781 638.34919739 C-157.10034446 635.26159619 -164.09650032 632.12559423 -170.74662781 627.03669739 C-171.46592468 626.4965802 -172.18522156 625.95646301 -172.92631531 625.39997864 C-182.70263684 617.48669196 -189.87287285 605.54732389 -191.74662781 593.03669739 C-192.89230507 577.10990529 -189.15067347 564.59350352 -179.16069031 552.04450989 C-170.56286407 542.60787133 -158.37385544 538.58990832 -146.80375671 534.08039856 C-107.80600075 518.74120471 -71.34392891 495.95967989 -42.34037781 465.47029114 C-40.74662781 464.03669739 -40.74662781 464.03669739 -38.74662781 464.03669739 C-38.47979187 463.43986145 -38.21295593 462.84302551 -37.93803406 462.22810364 C-36.72175849 459.99095414 -35.54305522 458.69249672 -33.68412781 456.97419739 C-29.8793427 453.27118637 -26.56089036 449.28678893 -23.24272156 445.14607239 C-21.52654932 443.0082428 -19.79690558 440.89828737 -18.03178406 438.80232239 C19.59543441 393.66633214 42.36490513 335.00587531 49.94087219 277.03669739 C50.06043274 276.1368512 50.17999329 275.237005 50.30317688 274.30989075 C52.29073642 257.94997135 52.40992205 241.38653625 52.56977844 224.92732239 C52.59043301 223.09502283 52.61143109 221.26272711 52.63275146 219.43043518 C52.68709702 214.68290894 52.73687975 209.93534627 52.78559875 205.1877594 C52.83646669 200.31315494 52.89180653 195.43860127 52.94673157 190.56404114 C53.05323707 181.05496894 53.15449072 171.54585192 53.25337219 162.03669739 C47.31337219 162.03669739 41.37337219 162.03669739 35.25337219 162.03669739 C35.40677063 164.32865051 35.56016907 166.62060364 35.71821594 168.98200989 C41.86785332 265.34493026 31.90811113 356.95103168 -37.18412781 444.83747864 C-38.60641896 446.42073855 -40.03695294 447.99669507 -41.48100281 449.56013489 C-43.34836538 451.60135536 -45.15970984 453.67202217 -46.96537781 455.76716614 C-56.90276173 467.14921518 -67.79935089 477.78994944 -79.74662781 487.03669739 C-80.83672008 487.93559281 -81.92376925 488.83818668 -83.00834656 489.74372864 C-108.91343328 511.22939684 -138.84780675 527.84855684 -170.18412781 539.97419739 C-192.36471954 548.64593156 -217.48171175 558.64382474 -228.74662781 581.03669739 C-242.86929607 615.2168517 -231.60976543 687.21264337 -218.06303406 721.22810364 C-215.94913591 725.73817121 -213.56999034 729.93483107 -210.74662781 734.03669739 C-210.02475281 735.08857239 -209.30287781 736.14044739 -208.55912781 737.22419739 C-188.51452569 757.26879951 -154.21515397 757.9245143 -127.68452454 759.37207031 C-125.51044144 759.4909898 -123.33654742 759.61303846 -121.16264343 759.73518372 C-118.34804002 759.89291206 -115.53333866 760.0343944 -112.71733093 760.16438293 C-90.21394298 761.3030398 -90.21394298 761.3030398 -82.74662781 765.03669739 C-84.4120925 769.21051439 -87.44934583 772.14955131 -90.49662781 775.34919739 C-91.53438681 776.44823111 -92.57084333 777.54849613 -93.60600281 778.64997864 C-94.06458679 779.13249084 -94.52317078 779.61500305 -94.99565125 780.11213684 C-96.74281802 781.94026884 -96.74281802 781.94026884 -97.94073486 783.80262756 C-101.50587732 788.73333293 -101.50587732 788.73333293 -104.85957336 789.55331421 C-107.40466569 789.60813737 -109.83580037 789.43469106 -112.36772156 789.16950989 C-113.29625443 789.10131042 -114.22478729 789.03311096 -115.18145752 788.96284485 C-118.18660536 788.73232446 -121.18388898 788.44866585 -124.18412781 788.16169739 C-126.24707524 787.98916071 -128.3102295 787.8190796 -130.37358093 787.65144348 C-136.17024012 787.16705116 -141.95840561 786.61222175 -147.74662781 786.03669739 C-149.08792235 785.90764497 -150.4292291 785.77871942 -151.77055359 785.64997864 C-176.19554557 783.20999119 -200.84565004 778.16627229 -220.74662781 763.03669739 C-221.4826825 762.48368958 -222.21873718 761.93068176 -222.97709656 761.36091614 C-247.91949033 741.14648095 -251.0546414 705.22805913 -254.23979187 675.55574036 C-255.21982424 666.06197658 -256.02603964 656.55345226 -256.74662781 647.03669739 C-256.8416156 645.84512024 -256.93660339 644.65354309 -257.0344696 643.42585754 C-257.73511487 634.00852817 -257.99677312 624.61782952 -258.04179382 615.17634583 C-258.05332572 613.50340831 -258.07379681 611.83050793 -258.10331726 610.15779114 C-258.48404302 588.41175643 -253.90217424 569.38426345 -239.32475281 552.64997864 C-226.0246113 539.16847156 -209.2248165 530.86840024 -191.74662781 524.03669739 C-189.82869257 523.22719645 -187.91206039 522.41460242 -185.99662781 521.59919739 C-182.17216557 519.9974574 -178.32790188 518.51137669 -174.42582703 517.10969543 C-138.10335935 503.96796738 -103.3220792 483.68768177 -75.07475281 457.21638489 C-73.07189729 455.34122821 -71.02943477 453.55626335 -68.93412781 451.78669739 C-58.96267331 443.08732145 -49.82215095 433.51341429 -41.74662781 423.03669739 C-41.23712585 422.38233704 -40.7276239 421.72797668 -40.2026825 421.05378723 C-31.05718547 409.34385276 -31.05718547 409.34385276 -22.74662781 397.03669739 C-29.18844609 398.6201611 -35.60245279 400.26997528 -41.99662781 402.03669739 C-104.29914481 418.6085344 -175.31686312 411.01029277 -237.74662781 398.03669739 C-239.47211853 397.68502502 -239.47211853 397.68502502 -241.23246765 397.32624817 C-274.78675936 390.37196539 -301.90277228 373.15655221 -329.94413757 354.27668762 C-362.81566817 332.14566881 -397.51983138 310.17381926 -438.87162781 317.16169739 C-468.04264217 323.12659802 -492.32850334 340.50111615 -515.74662781 358.03669739 C-513.92297305 364.01279331 -511.72901407 369.48679257 -508.74662781 374.97419739 C-508.35636414 375.69873108 -507.96610046 376.42326477 -507.56401062 377.16975403 C-496.61732059 397.24946854 -483.84257529 415.85431815 -468.74662781 433.03669739 C-468.17041687 433.71216614 -467.59420593 434.38763489 -467.00053406 435.08357239 C-453.88075064 450.39543932 -439.72878498 463.77534117 -423.74662781 476.03669739 C-423.11450378 476.52573547 -422.48237976 477.01477356 -421.83110046 477.51863098 C-395.86260665 497.57836104 -367.5479268 513.52564092 -336.49662781 524.34919739 C-327.9902793 527.33943881 -319.87471327 531.09588879 -311.74662781 534.97419739 C-311.13138245 535.26348114 -310.51613708 535.55276489 -309.88224792 535.85081482 C-301.48966143 539.81192132 -294.05992521 544.32854675 -286.74662781 550.03669739 C-286.08203552 550.5374176 -285.41744324 551.03813782 -284.73271179 551.55403137 C-273.15895786 560.40929484 -265.28547607 575.21073809 -263.05131531 589.48200989 C-262.95076843 590.32505676 -262.85022156 591.16810364 -262.74662781 592.03669739 C-262.62545593 592.94161926 -262.50428406 593.84654114 -262.37944031 594.77888489 C-259.16050414 626.26165083 -264.38636583 659.9364701 -268.18412781 691.22419739 C-268.28141174 692.04706238 -268.37869568 692.86992737 -268.47892761 693.71772766 C-270.85463393 713.62388782 -274.14706035 732.82111058 -286.74662781 749.03669739 C-287.21842468 749.67349426 -287.69022156 750.31029114 -288.17631531 750.96638489 C-297.82372975 763.23004731 -314.42725777 769.92311505 -329.12162781 773.84919739 C-329.80217224 774.03176086 -330.48271667 774.21432434 -331.18388367 774.40242004 C-343.95199441 777.54475931 -357.00074328 779.11777283 -370.09819031 779.99372864 C-371.17716583 780.06600174 -372.25614136 780.13827484 -373.36781311 780.21273804 C-377.80694178 780.50293103 -382.24626802 780.7844863 -386.68754578 781.03987122 C-433.94444112 783.8149659 -472.99901829 801.87346076 -504.74662781 837.03669739 C-522.12614931 857.45017667 -530.81175782 879.60663777 -533.74662781 906.03669739 C-533.83726501 906.74850159 -533.92790222 907.46030579 -534.02128601 908.19367981 C-537.02852599 932.48762491 -535.80776468 957.54197845 -535.77666855 981.97941208 C-535.77211838 985.94459173 -535.77017925 989.90977269 -535.76799011 993.87495422 C-535.76335805 1001.59553872 -535.7559342 1009.31611696 -535.74662781 1017.03669739 C-535.14502954 1017.03284517 -534.54343128 1017.02899295 -533.92360276 1017.025024 C-446.77706058 1016.46702722 -359.63050157 1015.91171613 -234.52898771 1015.12342739 C-225.84907335 1015.06881967 -217.16915935 1015.01415567 -208.48924583 1014.95941585 C-184.09908289 1014.80561586 -159.70891611 1014.65262359 -135.31871128 1014.5055933 C-133.55417442 1014.49495575 -131.78963756 1014.48431752 -130.02510071 1014.47367859 C-129.16789309 1014.46851138 -128.31068547 1014.46334418 -127.42750186 1014.45802039 C-121.61398015 1014.42287745 -115.80046567 1014.38668171 -109.98695374 1014.34996033 C-67.23965774 1014.0804492 -24.4947871 1013.98557541 18.25337219 1014.03669739 C18.08218651 1002.48054429 17.89158756 990.92487338 17.67831802 979.36941624 C17.5797793 973.99973746 17.48715044 968.63011255 17.40962219 963.26008606 C16.99433518 932.7903267 16.99433518 932.7903267 14.48774719 902.43904114 C14.3439563 901.17765823 14.20016541 899.91627533 14.05201721 898.6166687 C12.47262804 886.74213794 8.96183974 875.13997668 3.19087219 864.59919739 C2.81583557 863.90310364 2.44079895 863.20700989 2.05439758 862.48982239 C-8.39990134 843.71648074 -23.03278901 829.22282021 -39.74662781 816.03669739 C-38.44871419 812.55494986 -36.92677099 809.52053832 -34.92631531 806.39216614 C-34.39135437 805.55105286 -33.85639343 804.70993958 -33.30522156 803.84333801 C-32.74963562 802.97902161 -32.19404968 802.1147052 -31.62162781 801.22419739 C-31.0583075 800.34054504 -30.49498718 799.4568927 -29.91459656 798.54646301 C-28.52899606 796.37412326 -27.13958147 794.20432656 -25.74662781 792.03669739 C-20.50591401 794.799501 -16.43311805 797.86871948 -12.18412781 801.97419739 C-11.10085426 803.00557759 -10.01622694 804.03553785 -8.93022156 805.06404114 C-8.13333923 805.82176819 -8.13333923 805.82176819 -7.32035828 806.59480286 C-5.86226254 807.93074971 -4.32422359 809.17799406 -2.78178406 810.41560364 C25.42627716 833.59859693 38.35252349 870.14561035 42.25337219 905.03669739 C42.33473042 905.65971048 42.41608864 906.28272358 42.49991226 906.92461586 C43.2277313 912.77803915 43.38989503 918.52778896 43.36689758 924.42170715 C43.36704361 925.41788559 43.36718964 926.41406403 43.36734009 927.44042969 C43.36664854 930.70301054 43.35889188 933.96553287 43.35102844 937.22810364 C43.34916157 939.5021054 43.34773894 941.77610756 43.34674072 944.05010986 C43.34293676 950.01275254 43.33312472 955.97537056 43.32203674 961.93800354 C43.31177689 968.03144497 43.30723333 974.12489042 43.30220032 980.21833801 C43.29150043 992.15780192 43.27444965 1004.0972476 43.25337219 1016.03669739 C46.88337219 1016.03669739 50.51337219 1016.03669739 54.25337219 1016.03669739 C54.16806108 1004.75108959 54.07285121 993.4656094 53.96584511 982.18018532 C53.91642248 976.93690628 53.87010009 971.69364235 53.83149719 966.45027161 C53.29376556 894.39921207 44.85099919 815.77590031 -1.69975281 756.94685364 C-2.74662781 755.03669739 -2.74662781 755.03669739 -2.48222351 753.22883606 C-1.60719482 750.62117506 -0.40303536 748.433022 0.97602844 746.05232239 C1.51421204 745.11775208 2.05239563 744.18318176 2.60688782 743.22029114 C3.17085266 742.2522052 3.7348175 741.28411926 4.31587219 740.28669739 C4.88370422 739.3031427 5.45153625 738.31958801 6.03657532 737.30622864 C7.43784509 734.88050113 8.84357606 732.45747618 10.25337219 730.03669739 C14.43668369 733.91152728 17.45910517 738.04257531 20.50337219 742.84919739 C20.98008362 743.59475891 21.45679504 744.34032043 21.94795227 745.10847473 C26.29324521 751.97205421 30.32883611 758.98647052 34.20796204 766.12214661 C35.21569441 767.96769478 36.24218275 769.80157043 37.27290344 771.63435364 C56.0590599 805.41987984 67.56199257 843.90757364 73.25337219 882.03669739 C73.45803101 883.37529564 73.45803101 883.37529564 73.66682434 884.74093628 C77.42033975 910.54692603 76.60262873 936.62409369 76.45936584 962.62910461 C76.42823173 968.89189074 76.41488154 975.15471495 76.39985657 981.41755676 C76.36804095 993.62403485 76.31709469 1005.83034695 76.25337219 1018.03669739 C76.91337219 1017.70669739 77.57337219 1017.37669739 78.25337219 1017.03669739 C79.74088686 1016.9268574 81.23310714 1016.87764919 82.7245636 1016.85969543 C83.65378632 1016.8468602 84.58300903 1016.83402496 85.54039001 1016.82080078 C86.55168976 1016.81341385 87.5629895 1016.80602692 88.60493469 1016.79841614 C89.65176422 1016.79034439 90.69859375 1016.78227264 91.77714539 1016.7739563 C94.00488117 1016.76009561 96.23263837 1016.74938239 98.46040344 1016.74153137 C101.81630656 1016.72451215 105.17117358 1016.68066857 108.52680969 1016.63630676 C130.24882454 1016.4785915 147.60628556 1019.70228457 163.59712219 1035.32185364 C180.01062848 1052.09742257 183.98157378 1073.20214916 183.77485657 1095.81184387 C183.75336164 1098.60056677 183.77480914 1101.38672244 183.80024719 1104.17536926 C183.836867 1126.8676084 177.88051895 1145.62474113 162.01509094 1162.40388489 C148.76305379 1175.28720742 132.62198526 1179.37672487 114.59712219 1179.51325989 C111.50132265 1179.54225263 108.40552375 1179.57131268 105.30972522 1179.60041362 C101.70213681 1179.63426609 98.09454597 1179.66780172 94.48694801 1179.70062256 C77.7150882 1179.85336813 60.94371295 1180.01887392 44.172773 1180.25316107 C-29.10946683 1181.26962566 -102.39427622 1181.22499037 -175.6819575 1181.22188503 C-189.18212152 1181.22150213 -202.68226162 1181.22933678 -216.18241882 1181.24250793 C-297.26288628 1181.32007782 -378.32077102 1181.11353634 -492.4946456 1179.09917974 C-495.6063984 1179.0393917 -498.71816185 1178.98019445 -501.82992935 1178.92117691 C-522.62803141 1178.52564782 -543.42419995 1178.0765468 -564.21983337 1177.56697083 C-568.93454482 1177.45304365 -573.64936565 1177.34435443 -578.3642152 1177.23632663 C-584.43215267 1177.0972209 -590.50000085 1176.95461202 -596.56781578 1176.81024361 C-599.03502377 1176.75171882 -601.50224852 1176.69389516 -603.96949196 1176.63688469 C-656.41857025 1175.41486161 -656.41857025 1175.41486161 -672.84428406 1160.06404114 C-687.4880778 1144.45802686 -692.35535777 1126.23474171 -692.05912781 1105.28669739 C-692.05072876 1104.23403687 -692.05072876 1104.23403687 -692.04216003 1103.16011047 C-691.84603092 1078.73021247 -688.93126777 1057.97005992 -671.35209656 1039.51325989 C-658.02418743 1026.84475256 -642.99025537 1023.67368633 -625.07865906 1023.84138489 C-623.9178331 1023.84421478 -622.75700714 1023.84704468 -621.56100464 1023.84996033 C-617.89360255 1023.86105648 -614.22645471 1023.8861411 -610.55912781 1023.91169739 C-608.05587615 1023.92174085 -605.55262063 1023.9308643 -603.04936218 1023.93904114 C-596.9483656 1023.9609611 -590.84751488 1023.99433178 -584.74662781 1024.03669739 C-584.74884842 1023.42109955 -584.75106903 1022.80550171 -584.75335693 1022.17124939 C-585.07450574 928.52125493 -585.08237827 836.98408105 -532.74662781 755.03669739 C-532.07373718 753.98224426 -531.40084656 752.92779114 -530.70756531 751.84138489 C-528.76322298 748.8745199 -526.77013167 745.95007866 -524.74662781 743.03669739 C-523.62707703 741.41054504 -523.62707703 741.41054504 -522.48490906 739.75154114 C-510.36028953 722.33509748 -496.4347221 706.68824435 -481.49662781 691.66169739 C-480.84718201 691.00749817 -480.19773621 690.35329895 -479.52861023 689.67927551 C-475.09775701 685.26361379 -470.49746351 681.10436701 -465.74662781 677.03669739 C-465.18733582 676.54943176 -464.62804382 676.06216614 -464.05180359 675.56013489 C-434.17738785 649.68620011 -398.05655288 629.95559788 -360.76274109 617.20393372 C-352.04892217 614.12559254 -345.55369322 610.21638759 -340.75444031 602.16169739 C-336.79611553 593.8154622 -336.14916113 584.55828444 -339.24662781 575.78669739 C-345.91632271 561.44452128 -358.66805903 557.35605503 -372.49662781 551.91169739 C-403.68695409 539.37981286 -432.05137175 522.74609294 -457.74662781 501.03669739 C-458.66444031 500.30322083 -459.58225281 499.56974426 -460.52787781 498.81404114 C-468.106226 492.65175028 -475.07672124 485.92155031 -481.99662781 479.03669739 C-482.91935486 478.12315491 -483.84208191 477.20961243 -484.79277039 476.26838684 C-490.87041756 470.16345873 -496.37891337 463.76786698 -501.74662781 457.03669739 C-503.22256173 455.26316876 -504.70136181 453.492018 -506.18412781 451.72419739 C-511.36167857 445.38012739 -516.11423487 438.7845614 -520.74662781 432.03669739 C-521.17169617 431.42149231 -521.59676453 430.80628723 -522.03471375 430.17243958 C-545.99632401 395.21264853 -563.04872856 354.54033227 -571.74662781 313.03669739 C-571.92242371 312.22426575 -572.0982196 311.41183411 -572.27934265 310.57478333 C-579.28725366 277.62685906 -579.14957556 244.59655442 -578.95262146 211.08833313 C-578.92141499 205.20071211 -578.90812234 199.3130499 -578.89311218 193.42536926 C-578.8613535 181.96237377 -578.81045052 170.49955623 -578.74662781 159.03669739 C-579.50645966 159.03833389 -580.2662915 159.0399704 -581.04914856 159.04165649 C-610.24536227 159.09615021 -610.24536227 159.09615021 -623.62162781 158.72419739 C-624.904245 158.70163879 -626.18686218 158.6790802 -627.50834656 158.65583801 C-646.9656181 158.11371545 -662.06681898 153.29656878 -675.74662781 139.03669739 C-681.74061101 132.56510597 -685.63864184 125.271074 -688.74662781 117.03669739 C-689.15485779 115.97019958 -689.15485779 115.97019958 -689.57133484 114.88215637 C-692.41599032 106.25629086 -692.20088996 97.54958239 -692.13774109 88.56867981 C-692.12176261 85.87194916 -692.13759759 83.17673987 -692.15678406 80.48005676 C-692.18434467 58.01970702 -688.0978335 39.5155387 -672.43412781 22.52888489 C-660.87022989 11.30733921 -647.2465198 6.84188735 -631.43293762 6.4397583 C-630.20594339 6.4026403 -628.97894917 6.3655223 -627.7147733 6.32727951 C-613.19290356 5.91595254 -598.66662941 5.75621923 -584.14013298 5.61178738 C-580.01509856 5.56998115 -575.89010952 5.52404323 -571.76511288 5.47868729 C-563.67079701 5.3903227 -555.57644637 5.30568449 -547.48207754 5.22232848 C-537.88427183 5.12333165 -528.2865096 5.02037454 -518.68874595 4.91739389 C-498.02691553 4.69589548 -477.36502686 4.48017578 -456.70311897 4.26604302 C-455.11479743 4.24958183 -455.11479743 4.24958183 -453.49438858 4.23278809 C-452.43371972 4.22179629 -451.37305086 4.21080448 -450.28024052 4.1994796 C-439.54905533 4.08820295 -428.81788179 3.97582025 -418.0867091 3.86334546 C-358.64015775 3.24035373 -299.1934788 2.63042835 -239.74662781 2.03669739 C-238.87555889 2.02799712 -238.00448997 2.01929685 -237.10702503 2.01033294 C-160.94566428 1.24990764 -84.78402752 0.53357486 -8.62029076 0.05480385 C-5.74685944 0.03669885 -2.87342965 0.01836692 0 0 Z M-670.55912781 27.16169739 C-681.25910003 41.1922513 -684.43062345 56.71450776 -683.74662781 74.03669739 C-683.71421707 75.69943558 -683.68304732 77.36219827 -683.65287781 79.02497864 C-683.17058999 98.46064376 -680.01581241 115.12970558 -666.16850281 129.74372864 C-654.06441165 141.20356978 -641.76411832 143.36114403 -625.55411625 142.99296379 C-624.57890239 142.96445398 -623.60368853 142.93594418 -622.59892273 142.90657043 C-621.5318254 142.88062868 -620.46472807 142.85468693 -619.36529446 142.82795906 C-617.04358996 142.77069865 -614.72195602 142.71051826 -612.40039444 142.64772987 C-608.62452154 142.54564285 -604.84851963 142.45125072 -601.07240295 142.35864258 C-595.58182749 142.22331472 -590.09134429 142.08489142 -584.60090637 141.94410706 C-569.7151256 141.56335259 -554.82855624 141.21503297 -539.94194031 140.86872864 C-539.17423569 140.85082275 -538.40653107 140.83291687 -537.61556268 140.81446838 C-503.51580609 140.01975027 -469.414424 139.41035321 -435.30912781 138.91169739 C-434.62232972 138.90163052 -433.93553164 138.89156365 -433.22792149 138.88119173 C-389.58977293 138.24246897 -345.95043264 137.77059201 -302.30912781 137.41169739 C-300.43616468 137.39602848 -300.43616468 137.39602848 -298.52536392 137.38004303 C-239.40583993 136.88683906 -180.29463896 136.96571067 -121.17590612 137.42378372 C-115.97491955 137.46402694 -110.77392388 137.50288413 -105.57292175 137.5410614 C-71.03783424 137.79493533 -36.50383214 138.09192779 -1.97016525 138.50004768 C14.20867512 138.69092615 30.38773181 138.85975608 46.56698608 139.01139832 C48.38639531 139.02853262 50.20580242 139.04589374 52.02520752 139.0634613 C63.1934991 139.17126697 74.36161333 139.26405401 85.5303421 139.31151485 C89.82964697 139.32982206 94.12866483 139.35397801 98.42781067 139.39585876 C102.35574843 139.43376397 106.28329947 139.45228153 110.21141434 139.45571136 C111.63225785 139.46013263 113.05310068 139.47127965 114.47382736 139.49002838 C128.35626884 139.66487584 138.82958055 136.42135715 149.25337219 127.03669739 C161.62672738 113.16920119 163.68216202 96.18247398 163.62837219 78.34919739 C163.62749603 77.64081726 163.62661987 76.93243713 163.62571716 76.20259094 C163.55489977 58.86629787 161.24525894 43.48177644 148.94087219 30.16169739 C136.72115731 19.00338313 123.14709332 17.58956788 107.30732727 17.55354309 C105.61248095 17.53891804 103.91764538 17.52300015 102.22282219 17.50590324 C97.60865097 17.46295592 92.99453396 17.43790334 88.38022208 17.41585326 C83.3992797 17.38877261 78.41848537 17.34463945 73.43765259 17.30239868 C64.97427445 17.23269422 56.51087729 17.17274215 48.04737854 17.11976624 C35.85857418 17.04321138 23.67000539 16.94583846 11.48139954 16.84284973 C7.48526141 16.80939609 3.48912161 16.77614617 -0.50701904 16.74299622 C-2.00912555 16.73053018 -2.00912555 16.73053018 -3.54157764 16.7178123 C-14.23081662 16.62956989 -24.92010343 16.54775294 -35.60939562 16.46625566 C-67.13960211 16.22574881 -98.66974196 15.97743836 -130.19975281 15.71247864 C-131.25548988 15.70360941 -131.25548988 15.70360941 -132.33255497 15.694561 C-188.49570394 15.22215004 -244.65769832 14.64780825 -300.81965259 14.05139652 C-304.03989506 14.01720444 -307.26013787 13.98304491 -310.48038077 13.94889331 C-353.37888574 13.49385585 -396.27733289 13.03359016 -439.17566931 12.56291991 C-455.52073282 12.38363052 -471.86581685 12.20628933 -488.21091497 12.03018445 C-497.73710438 11.92744556 -507.26327811 11.82353827 -516.78942108 11.71657372 C-535.30079081 11.50909833 -553.81212904 11.31093048 -572.32401121 11.15457767 C-573.84006286 11.14173918 -575.35611435 11.12888177 -576.87216568 11.11600494 C-577.98298602 11.1065722 -577.98298602 11.1065722 -579.11624718 11.0969489 C-584.20960599 11.05268149 -589.30278902 10.99820761 -594.39599228 10.93883514 C-601.03539325 10.86152917 -607.67472624 10.80507143 -614.31446636 10.76382661 C-616.68603766 10.74589731 -619.0575697 10.72113172 -621.42898667 10.68867469 C-640.52455846 10.43391364 -657.14267971 11.77421852 -670.55912781 27.16169739 Z M-574.74662781 159.03669739 C-574.76942383 169.34821304 -574.78768244 179.65971134 -574.79843998 189.97124672 C-574.80360887 194.76179075 -574.81059429 199.55231632 -574.82206726 204.34284973 C-575.116741 241.33487603 -575.116741 241.33487603 -572.05912781 278.16169739 C-571.79857605 280.11692322 -571.79857605 280.11692322 -571.53276062 282.11164856 C-567.18770931 313.71260856 -558.3398133 343.76878052 -545.74662781 373.03669739 C-545.20401306 374.29788391 -545.20401306 374.29788391 -544.6504364 375.58454895 C-531.29537411 406.12640076 -512.12665214 435.14606379 -489.23490906 459.39607239 C-486.96165555 461.80850468 -484.79100378 464.28133775 -482.62162781 466.78669739 C-466.84349664 484.30857924 -448.37321666 499.08623088 -428.74662781 512.03669739 C-427.40471375 512.93581848 -427.40471375 512.93581848 -426.03569031 513.85310364 C-404.52287315 527.93483726 -381.76548321 538.82936015 -357.57597351 547.46296692 C-345.47173267 551.91165495 -336.18230566 559.14970247 -330.57084656 570.98200989 C-326.67550495 580.69267191 -325.96471236 592.00049231 -329.37162781 602.03669739 C-334.42407451 613.65556436 -341.47743001 621.1050013 -353.30912781 625.92341614 C-355.14335236 626.62413807 -356.97779345 627.32446867 -358.81886292 628.00700378 C-362.15519084 629.24823038 -365.46841731 630.54814315 -368.78178406 631.84919739 C-369.45234329 632.11202011 -370.12290253 632.37484283 -370.81378174 632.64562988 C-399.93547273 644.16673255 -425.96526775 660.68900636 -450.18412781 680.41169739 C-451.00783875 681.07943176 -451.83154968 681.74716614 -452.68022156 682.43513489 C-460.94413713 689.35087189 -468.69069089 696.79885815 -476.30912781 704.41169739 C-477.19020203 705.28052551 -478.07127625 706.14935364 -478.97904968 707.04450989 C-485.00663779 713.05875278 -490.47424314 719.35423419 -495.74662781 726.03669739 C-496.31131775 726.74213684 -496.87600769 727.44757629 -497.45780945 728.1743927 C-510.61906795 744.7029655 -521.90632752 762.35089303 -531.74662781 781.03669739 C-532.1006366 781.70620422 -532.45464539 782.37571106 -532.81938171 783.06550598 C-546.4702992 809.07976027 -555.89734073 836.75433053 -562.1738739 865.42634583 C-562.65447874 867.61672388 -563.15717104 869.79962126 -563.67240906 871.98200989 C-568.38087582 893.1821833 -569.19192593 914.88664719 -569.03959656 936.51716614 C-569.03397817 938.92238089 -569.02971875 941.32759915 -569.0267334 943.7328186 C-569.01546073 949.96161443 -568.98615246 956.19018911 -568.95262146 962.41889954 C-568.92153386 968.81555696 -568.90814674 975.21225129 -568.89311218 981.60896301 C-568.86125977 994.08496986 -568.81028592 1006.56081501 -568.74662781 1019.03669739 C-563.79662781 1019.03669739 -558.84662781 1019.03669739 -553.74662781 1019.03669739 C-553.73854095 1017.95215775 -553.7304541 1016.8676181 -553.72212219 1015.75021362 C-553.64385018 1005.41245786 -553.55592508 995.07482079 -553.45910072 984.73722172 C-553.40964555 979.42553252 -553.3633219 974.11385853 -553.32475281 968.80207825 C-552.57594217 867.07754839 -552.57594217 867.07754839 -516.74662781 826.03669739 C-515.9151825 825.07118958 -515.08373718 824.10568176 -514.22709656 823.11091614 C-486.56092796 791.58113015 -445.1141025 770.25517449 -403.1395874 767.27502441 C-398.07273176 766.96891169 -393.00465683 766.71094266 -387.93412781 766.47419739 C-359.03667749 765.23561936 -359.03667749 765.23561936 -330.80912781 759.34919739 C-329.9556073 759.09718567 -329.10208679 758.84517395 -328.22270203 758.58552551 C-311.56293783 753.40179382 -298.67737501 745.03424823 -290.33647156 729.39216614 C-275.24090452 696.38503943 -274.91310171 648.78670176 -273.80961609 613.0337677 C-273.75106582 611.17740651 -273.66970149 609.32180338 -273.58647156 607.46638489 C-273.15588078 591.92767417 -276.77813087 577.56571802 -287.12162781 565.72419739 C-288.64452843 564.14340137 -290.18509893 562.57934768 -291.74662781 561.03669739 C-292.63414734 560.11630676 -292.63414734 560.11630676 -293.53959656 559.17732239 C-308.82467405 544.46585708 -333.57688564 536.30983636 -353.05912781 528.72419739 C-360.89571979 525.66359291 -368.3039034 521.94079087 -375.74662781 518.03669739 C-377.00636414 517.382901 -377.00636414 517.382901 -378.29154968 516.71589661 C-396.49630562 507.22681631 -413.26519274 496.25557305 -429.18852234 483.30232239 C-430.71979248 482.05849531 -432.26242857 480.82870291 -433.80522156 479.59919739 C-438.49070591 475.83555188 -442.92776604 472.01219481 -447.09819031 467.68513489 C-448.76124793 466.02207727 -450.50097372 464.53967779 -452.30912781 463.03669739 C-504.65362229 417.6647321 -536.12832697 346.37806989 -545.74662781 279.03669739 C-545.85700378 278.29870911 -545.96737976 277.56072083 -546.08110046 276.80036926 C-549.95672377 250.26303049 -548.89162129 222.82368188 -548.81529236 196.06385803 C-548.80481032 191.97928922 -548.80044318 187.89471345 -548.79545593 183.81013489 C-548.7849318 175.88563563 -548.76744293 167.9611763 -548.74662781 160.03669739 C-561.61662781 159.54169739 -561.61662781 159.54169739 -574.74662781 159.03669739 Z M-544.74662781 160.03669739 C-544.7936215 169.98380122 -544.82882867 179.93087731 -544.85025215 189.87807083 C-544.86055058 194.50032305 -544.87444346 199.12249765 -544.89750671 203.7447052 C-545.15245657 256.29739683 -539.67544614 304.97182551 -519.74662781 354.03669739 C-515.79176852 352.39200831 -512.89890525 349.66363312 -509.74662781 346.84919739 C-496.13266145 334.98591173 -481.87910848 324.219063 -465.74662781 316.03669739 C-464.79916687 315.54943176 -463.85170593 315.06216614 -462.87553406 314.56013489 C-435.91840412 301.50214921 -404.96365192 300.1619819 -376.75834656 309.69685364 C-354.74778606 317.47861459 -334.73483776 329.14622611 -314.74662781 341.03669739 C-289.46553355 356.02202077 -265.24002027 370.36669506 -235.57475281 373.87263489 C-234.58765697 373.99253847 -234.58765697 373.99253847 -233.58061981 374.11486435 C-210.52090472 376.91255501 -187.38030578 379.04370398 -164.26249695 381.29396057 C-159.23941493 381.78446412 -154.21692811 382.28092131 -149.19441223 382.77718258 C-103.31572144 387.65110192 -103.31572144 387.65110192 -57.24662781 389.22419739 C-55.62048981 389.21595662 -53.99435042 389.20798532 -52.36820984 389.20027161 C-43.78351742 389.14668789 -35.19915539 389.0327459 -26.62162781 388.66169739 C-25.84754578 388.63100159 -25.07346375 388.60030579 -24.27592468 388.56867981 C-19.15268794 388.33233246 -19.15268794 388.33233246 -14.74662781 386.03669739 C-13.21454776 383.78030712 -11.9047101 381.61604116 -10.62162781 379.22419739 C-10.23692322 378.52133606 -9.85221863 377.81847473 -9.45585632 377.09431458 C3.5153639 353.04704536 13.0021282 328.35238534 20.25337219 302.03669739 C20.47509094 301.24730774 20.69680969 300.45791809 20.92524719 299.64460754 C27.58774627 275.57745506 29.08064251 250.1820998 29.78852844 225.33747864 C29.83174973 223.88550255 29.87516531 222.43353224 29.91876221 220.98156738 C30.00867782 217.96735865 30.09673218 214.95310359 30.18330383 211.938797 C30.29335812 208.10984629 30.40746221 204.28102946 30.52288151 200.45223713 C30.61262805 197.46397878 30.70056486 194.47566927 30.7879467 191.48734093 C30.8293415 190.07658203 30.87119254 188.66583643 30.91354561 187.25510597 C31.16454094 178.84620506 31.31038821 170.4494196 31.25337219 162.03669739 C6.7951736 161.98591067 -17.66079123 161.97619091 -42.11772156 162.25544739 C-43.5859093 162.27202172 -43.5859093 162.27202172 -45.0837574 162.28893089 C-49.18769358 162.33530128 -53.29162748 162.38186824 -57.39555836 162.42870617 C-109.32370484 163.01533998 -161.25299794 163.20264189 -213.18412781 163.22419739 C-214.53188325 163.22476458 -214.53188325 163.22476458 -215.90686607 163.22534323 C-273.75445371 163.24661684 -331.59155762 162.8542027 -389.43412781 162.09919739 C-390.2739525 162.08825531 -391.11377719 162.07731322 -391.97905111 162.06603956 C-420.92934603 161.68797151 -449.87930656 161.28087296 -478.82719421 160.74714661 C-480.10206223 160.72373294 -481.37693026 160.70031927 -482.69043064 160.6761961 C-488.5556664 160.56781742 -494.4208102 160.45633625 -500.28585815 160.33822632 C-515.10746483 160.04859085 -529.92235631 159.98542215 -544.74662781 160.03669739 Z M-670.79740906 1044.45075989 C-673.26873878 1047.72935763 -675.19006521 1051.13749295 -677.05912781 1054.78669739 C-677.38477722 1055.41753235 -677.71042664 1056.04836731 -678.04594421 1056.69831848 C-682.90403098 1066.7757538 -684.21731145 1076.82728515 -683.99662781 1087.91169739 C-683.98277039 1089.05356506 -683.96891296 1090.19543274 -683.95463562 1091.37190247 C-683.90596007 1094.59436143 -683.83178688 1097.81502339 -683.74662781 1101.03669739 C-683.73115906 1101.79933899 -683.71569031 1102.56198059 -683.69975281 1103.34773254 C-683.29852368 1120.111587 -678.58536472 1135.06877283 -666.99662781 1147.41169739 C-658.4474203 1155.51780572 -648.59546036 1160.3657413 -636.75444031 1160.30232239 C-635.94171158 1160.30505157 -635.12898285 1160.30778076 -634.29162598 1160.31059265 C-631.48481339 1160.31476741 -628.67840153 1160.30155339 -625.87162781 1160.28669739 C-624.84973358 1160.28426025 -623.82783936 1160.28182312 -622.77497864 1160.27931213 C-599.23638773 1160.21599886 -575.7086186 1159.59932466 -552.1782074 1159.02806091 C-498.98699804 1157.73872693 -445.78748262 1156.95353833 -392.58657837 1156.19319725 C-384.96814416 1156.08406131 -377.34979555 1155.97043509 -369.73149109 1155.85261536 C-279.27867879 1154.46257569 -188.77844001 1154.50702145 11.66196215 1156.28941119 C15.0126119 1156.32481297 18.36326361 1156.36002293 21.71391582 1156.39519024 C39.38259084 1156.58098509 39.38259084 1156.58098509 46.94005394 1156.66635704 C57.05888011 1156.78063005 67.17759967 1156.88541724 77.29677409 1156.9638378 C82.74494648 1157.00813272 88.19219993 1157.07803418 93.63987756 1157.16337299 C97.29329158 1157.21670048 100.94675137 1157.25286394 104.60040426 1157.28533745 C106.30608 1157.30410278 108.01169668 1157.32989719 109.71714258 1157.36360359 C125.65615917 1157.67225765 137.57419156 1155.32941345 149.40571594 1143.97029114 C164.29835794 1128.46752228 163.7990244 1107.57275577 163.52680969 1087.41560364 C163.14081753 1072.25299068 158.97757466 1059.24442307 148.69087219 1047.72419739 C140.88076696 1040.40413798 130.42645628 1035.99514407 119.77667236 1035.84166527 C118.14135339 1035.81484975 118.14135339 1035.81484975 116.47299767 1035.78749251 C115.28540163 1035.77283895 114.0978056 1035.75818538 112.8742218 1035.74308777 C110.98598159 1035.71455699 110.98598159 1035.71455699 109.05959511 1035.68544984 C105.59270279 1035.63348203 102.12575367 1035.58768527 98.65875745 1035.54326084 C96.45124566 1035.51450366 94.24376407 1035.48403663 92.03628349 1035.45298076 C59.42075016 1034.99416044 26.80371658 1034.70758836 -5.8139054 1034.44748486 C-14.30429296 1034.37963274 -22.79465381 1034.30865418 -31.28501408 1034.23748026 C-35.755036 1034.20000962 -40.22505877 1034.16264044 -44.69508171 1034.12529087 C-45.59289413 1034.11778893 -46.49070656 1034.11028699 -47.41572542 1034.10255772 C-56.65286571 1034.025448 -65.89001428 1033.94935027 -75.12716325 1033.87328865 C-113.88531363 1033.55408862 -152.64340112 1033.22750321 -191.40143281 1032.89420357 C-193.37784532 1032.87720746 -195.35425789 1032.86021942 -197.33067054 1032.8432394 C-254.3170728 1032.35358903 -311.30274626 1031.81614267 -368.28792632 1031.20007491 C-370.74934232 1031.17347124 -373.21075881 1031.14691189 -375.67217541 1031.12036324 C-404.9550604 1030.80441119 -434.23789052 1030.48353851 -463.52055359 1030.14759827 C-496.79456671 1029.76600783 -530.06859824 1029.39853165 -563.34344482 1029.09566498 C-567.53754368 1029.05740022 -571.73162178 1029.01753632 -575.9256897 1028.97602081 C-586.79631934 1028.86890501 -597.66667996 1028.78012866 -608.53773117 1028.73023033 C-611.60950308 1028.71552461 -614.68097844 1028.69194174 -617.75261307 1028.6594944 C-621.82219091 1028.61692246 -625.89118809 1028.60636857 -629.96098328 1028.59992981 C-631.1018124 1028.58346342 -632.24264153 1028.56699703 -633.41804123 1028.55003166 C-647.53267684 1028.60130165 -661.02484582 1034.10333999 -670.79740906 1044.45075989 Z " fill="#000000" transform="translate(691.7466278076172,-0.0366973876953125)"/>
<path d="M0 0 C-1.2657318 3.43587968 -2.71762904 6.28318877 -4.8359375 9.265625 C-5.39941895 10.06444092 -5.96290039 10.86325684 -6.54345703 11.6862793 C-7.14786621 12.53230713 -7.75227539 13.37833496 -8.375 14.25 C-9.00132324 15.13534424 -9.62764648 16.02068848 -10.27294922 16.93286133 C-11.56072757 18.75246315 -12.85060883 20.5705785 -14.14257812 22.38720703 C-16.3242174 25.45606923 -18.49368755 28.53336533 -20.66210938 31.61157227 C-23.58947916 35.76568195 -26.52507793 39.91398238 -29.45898438 44.06347656 C-35.92615174 53.21162586 -42.36857422 62.37654274 -48.78857422 71.55786133 C-52.51248846 76.8813264 -56.24959223 82.19517164 -60 87.5 C-66.10388554 96.13513697 -72.16685583 104.79866936 -78.2265625 113.46484375 C-79.96233633 115.9461592 -81.69962514 118.42640574 -83.4375 120.90625 C-84.58336747 122.54164275 -85.72920068 124.17705951 -86.875 125.8125 C-87.44645752 126.62807373 -88.01791504 127.44364746 -88.60668945 128.28393555 C-91.74156382 132.76164282 -94.86672923 137.24584748 -97.98046875 141.73828125 C-121.12792335 175.12792335 -121.12792335 175.12792335 -124 178 C-117.72002996 178.74607082 -111.47149399 179.14784827 -105.15625 179.39453125 C-104.32397888 179.42719589 -103.49170776 179.45986053 -102.63421631 179.49351501 C-100.85392715 179.56302553 -99.0736332 179.63241331 -97.29333496 179.70169067 C-79.07732324 180.42430504 -60.919871 181.58211687 -42.75 183.0625 C-41.66533447 183.1504483 -40.58066895 183.23839661 -39.46313477 183.32901001 C-36.36574991 183.58177786 -33.26872419 183.83841328 -30.171875 184.09765625 C-29.25907776 184.17365051 -28.34628052 184.24964478 -27.40582275 184.32794189 C-22.25129611 184.76918589 -17.12909694 185.32368874 -12 186 C-12 186.99 -12 187.98 -12 189 C-23.92072277 191.46646953 -36.07245646 192.10593264 -48.1875 193 C-49.34472565 193.08648804 -50.50195129 193.17297607 -51.69424438 193.26208496 C-87.75729551 195.9356861 -123.83531103 197.48978118 -160 197 C-158.83010316 193.88005227 -157.60685234 191.17315394 -155.671875 188.4609375 C-155.20918213 187.80802734 -154.74648926 187.15511719 -154.26977539 186.48242188 C-153.76824951 185.78697266 -153.26672363 185.09152344 -152.75 184.375 C-152.22204834 183.63572266 -151.69409668 182.89644531 -151.15014648 182.13476562 C-136.82816951 162.14807924 -121.88239603 142.65484249 -106.76611328 123.26611328 C-103.84112422 119.51303774 -100.92073012 115.75639026 -98 112 C-94.49057882 107.48648625 -90.98018135 102.97375178 -87.46484375 98.46484375 C-80.08457453 88.99472218 -72.76329305 79.48185147 -65.47998047 69.93701172 C-61.66746461 64.94715675 -57.8314782 59.97529632 -54 55 C-52.33304708 52.83355349 -50.66651031 50.66678699 -49 48.5 C-46.53595289 45.2962603 -44.07149659 42.09284059 -41.60546875 38.890625 C-40.40857422 37.33601562 -40.40857422 37.33601562 -39.1875 35.75 C-38.78926025 35.23276367 -38.39102051 34.71552734 -37.98071289 34.18261719 C-35.48567781 30.93931596 -32.99838315 27.69021035 -30.515625 24.4375 C-29.92241455 23.66051758 -29.3292041 22.88353516 -28.71801758 22.08300781 C-27.54530877 20.54641034 -26.37325421 19.0093133 -25.2019043 17.47167969 C-24.66992432 16.77461914 -24.13794434 16.07755859 -23.58984375 15.359375 C-23.11409912 14.73514648 -22.63835449 14.11091797 -22.14819336 13.46777344 C-21 12 -21 12 -20 11 C-21.22901031 10.96463638 -22.45802063 10.92927277 -23.72427368 10.89283752 C-35.40209726 10.55657927 -47.07986325 10.21837886 -58.7575779 9.87835789 C-64.75876843 9.70368101 -70.75997611 9.52964889 -76.76123047 9.35717773 C-82.57091269 9.190187 -88.38054002 9.02138849 -94.19013596 8.85142326 C-96.38805718 8.78742224 -98.58599634 8.72403347 -100.78395462 8.66131783 C-115.19728883 8.24953081 -129.59773979 7.70050293 -144 7 C-144 6.01 -144 5.02 -144 4 C-110.92825696 2.82594352 -77.85526738 1.79594751 -44.77373886 0.94179535 C-42.18896603 0.87503786 -39.60420256 0.80792596 -37.0194397 0.74078369 C-32.9198163 0.6345097 -28.82016245 0.5294996 -24.72047806 0.42560577 C-23.20471206 0.38714841 -21.68895207 0.34845331 -20.1731987 0.30950165 C-18.08578383 0.25603992 -15.99834257 0.20376828 -13.91088867 0.15185547 C-12.15381844 0.10760941 -12.15381844 0.10760941 -10.36125183 0.06246948 C-6.90669941 -0.00173401 -3.45506627 -0.01068813 0 0 Z " fill="#000000" transform="translate(697,706)"/>
<path d="M0 0 C-1.70285129 2.93336295 -3.39810913 5.64961072 -5.63671875 8.19921875 C-6.1272876 8.76326416 -6.61785645 9.32730957 -7.12329102 9.90844727 C-7.63947998 10.49553467 -8.15566895 11.08262207 -8.6875 11.6875 C-12.88754545 16.52217981 -16.97134348 21.41486108 -20.94140625 26.44140625 C-23.40811943 29.50724522 -25.94882443 32.50440652 -28.5 35.5 C-32.32403068 39.99356012 -36.06034264 44.54013623 -39.7265625 49.1640625 C-42.67874087 52.84667676 -45.68266113 56.48531307 -48.6875 60.125 C-53.35112245 65.77730791 -58.00263942 71.43888074 -62.625 77.125 C-63.08994873 77.69621582 -63.55489746 78.26743164 -64.03393555 78.85595703 C-69.72973568 85.87136292 -75.3587685 92.94071641 -81 100 C-79.45566284 100.10489746 -79.45566284 100.10489746 -77.88012695 100.21191406 C-56.11105549 101.70807182 -34.56824013 103.62649942 -13 107 C-13 108.32 -13 109.64 -13 111 C-49.16342932 116.70061765 -85.43204458 118.46794213 -122 119 C-120.70809268 116.20941937 -119.30263565 113.98932093 -117.27734375 111.6796875 C-116.74334961 111.06697998 -116.20935547 110.45427246 -115.65917969 109.82299805 C-115.09102539 109.18015869 -114.52287109 108.53731934 -113.9375 107.875 C-113.35258789 107.20702393 -112.76767578 106.53904785 -112.16503906 105.85083008 C-108.17947399 101.30879607 -104.16270012 96.79494777 -100.1015625 92.3203125 C-98.67037594 90.74015485 -97.24883929 89.15121551 -95.8359375 87.5546875 C-91.81316724 83.02018675 -87.68716299 78.63500565 -83.375 74.375 C-79.69617678 70.73693937 -76.22905574 67.02831539 -72.875 63.09375 C-70.06537733 59.95633802 -67.05030531 57.02937292 -64.0534668 54.07299805 C-60.7595776 50.80635453 -57.68518124 47.42105964 -54.67578125 43.89453125 C-52.23224171 41.13202151 -49.59182088 38.58273342 -46.96484375 35.99609375 C-45.07769256 34.07892823 -43.31314625 32.10424678 -41.5625 30.0625 C-38.25909713 26.21482938 -34.69866054 22.6805592 -31.08984375 19.12109375 C-28.54300035 16.53616671 -26.25674199 13.83912702 -24 11 C-33.19309616 10.14877989 -42.38801746 9.6492659 -51.609375 9.24609375 C-53.07196944 9.18046234 -54.53455475 9.11462709 -55.99713135 9.04859924 C-59.80435521 8.8772603 -63.61169487 8.7086483 -67.41906738 8.54064941 C-71.32112025 8.36797412 -75.22305439 8.19265728 -79.125 8.01757812 C-86.7498877 7.67583396 -94.37489998 7.33697725 -102 7 C-102 6.01 -102 5.02 -102 4 C-93.64241126 2.91577543 -85.26876599 2.58700681 -76.85546875 2.24609375 C-75.27956003 2.18041606 -73.70365784 2.11458147 -72.12776184 2.04859924 C-68.82882823 1.91123842 -65.5298086 1.776231 -62.23071289 1.64282227 C-58.88811824 1.50745592 -55.54568855 1.36880597 -52.20336914 1.22680664 C-16.80854792 -0.27690962 -16.80854792 -0.27690962 0 0 Z " fill="#000000" transform="translate(842,570)"/>
<path d="M0 0 C-1.65182305 4.07056395 -4.53155566 6.97875459 -7.5 10.125 C-8.03391357 10.69758545 -8.56782715 11.2701709 -9.11791992 11.86010742 C-13.24204716 16.25864562 -17.49471083 20.51768447 -21.78515625 24.75390625 C-23.69967608 26.69543871 -25.48794121 28.67156158 -27.25 30.75 C-31.18669786 35.363171 -35.5206828 39.57343488 -39.85058594 43.81347656 C-43.79951827 47.70501804 -47.44105691 51.74768595 -51 56 C-48.41483717 57.29258141 -46.08384992 57.48071178 -43.21484375 57.8671875 C-42.04373047 58.03089844 -40.87261719 58.19460938 -39.66601562 58.36328125 C-37.20822594 58.70059969 -34.74989839 59.03402539 -32.29101562 59.36328125 C-25.53063473 60.31586359 -19.39321139 61.59136277 -13 64 C-13 64.99 -13 65.98 -13 67 C-40.7698602 72.90489129 -67.61398409 75.31540018 -96 75 C-94.59365534 71.81953813 -92.92151657 69.66463638 -90.47265625 67.20703125 C-89.76866699 66.49901367 -89.06467773 65.79099609 -88.33935547 65.06152344 C-87.58799316 64.3193457 -86.83663086 63.57716797 -86.0625 62.8125 C-85.2905127 62.04583008 -84.51852539 61.27916016 -83.72314453 60.48925781 C-78.93251932 55.77772547 -74.07813069 51.37242788 -68.79296875 47.22265625 C-65.33795417 44.47314115 -62.01453746 41.58956635 -58.6875 38.6875 C-57.40766911 37.57278229 -56.12772084 36.45819933 -54.84765625 35.34375 C-53.89270264 34.51230469 -53.89270264 34.51230469 -52.91845703 33.6640625 C-49.83447141 30.98902483 -46.72927378 28.33893493 -43.625 25.6875 C-38.36046215 21.18713364 -33.14960664 16.63192132 -28 12 C-29.545491 10.454509 -31.09141588 10.74901792 -33.24438477 10.61108398 C-34.59567223 10.5211039 -34.59567223 10.5211039 -35.97425842 10.42930603 C-36.95341721 10.36884598 -37.93257599 10.30838593 -38.94140625 10.24609375 C-39.93881332 10.18092056 -40.9362204 10.11574738 -41.96385193 10.04859924 C-45.1631377 9.84055594 -48.36279381 9.63896387 -51.5625 9.4375 C-53.72593881 9.29794938 -55.88935071 9.15798099 -58.05273438 9.01757812 C-63.36818638 8.67352928 -68.68395676 8.33478216 -74 8 C-74 7.01 -74 6.02 -74 5 C-70.521916 3.97644178 -67.16344562 3.73525268 -63.55078125 3.51928711 C-61.58854614 3.39927589 -61.58854614 3.39927589 -59.58666992 3.27684021 C-58.16195336 3.19355927 -56.73722987 3.11039665 -55.3125 3.02734375 C-53.84804539 2.93938715 -52.38360875 2.85113102 -50.91918945 2.7625885 C-47.85283371 2.57795546 -44.78634537 2.39578629 -41.71972656 2.21557617 C-37.79203201 1.98473281 -33.86461189 1.74957222 -29.93727112 1.51279354 C-26.18743962 1.28692821 -22.43747299 1.06334527 -18.6875 0.83984375 C-17.97340973 0.79706739 -17.25931946 0.75429104 -16.52359009 0.71021843 C-14.49887471 0.58932119 -12.47404884 0.47027884 -10.44921875 0.35131836 C-9.29768311 0.28327499 -8.14614746 0.21523163 -6.9597168 0.14512634 C-4.64209137 0.03148422 -2.32040991 0 0 0 Z " fill="#000000" transform="translate(962,486)"/>
</svg>
