<?xml version="1.0" encoding="UTF-8"?>
<svg version="1.1" xmlns="http://www.w3.org/2000/svg" viewBox="0 0 1153 1181" width="1153" height="1181">
<path d="M0 0 C1.52995503 1.42778775 3.05121749 2.86496227 4.5625 4.3125 C5.30628906 5.00472656 6.05007813 5.69695312 6.81640625 6.41015625 C35.96163926 34.33889258 52.39860698 75.88464165 53.53515625 115.88671875 C54.02463086 154.45216602 42.82307447 192.93482723 18.5625 223.3125 C18.10794434 223.88516602 17.65338867 224.45783203 17.18505859 225.04785156 C-11.71695376 261.03903675 -52.77208055 282.37226413 -98.4765625 287.84765625 C-101.47169622 288.10636001 -104.43239169 288.25365872 -107.4375 288.3125 C-108.39011719 288.35117187 -109.34273437 288.38984375 -110.32421875 288.4296875 C-145.7461253 289.24606947 -183.2010157 279.31363858 -211.4375 257.3125 C-212.22769531 256.71179688 -213.01789062 256.11109375 -213.83203125 255.4921875 C-236.24810905 238.053538 -256.39374685 215.29640825 -266.4375 188.3125 C-266.4375 187.3225 -266.4375 186.3325 -266.4375 185.3125 C-267.07437744 185.67375977 -267.71125488 186.03501953 -268.36743164 186.40722656 C-271.40938559 188.12963132 -274.4546971 189.84602377 -277.5 191.5625 C-278.49966797 192.1296875 -279.49933594 192.696875 -280.52929688 193.28125 C-298.05253952 203.14142323 -316.00257486 212.17785204 -334.08508301 220.96038818 C-350.45907184 228.91659634 -366.78670446 236.96224918 -383.06640625 245.109375 C-384.19252351 245.67290239 -384.19252351 245.67290239 -385.34139061 246.24781418 C-392.79613155 249.97910298 -400.24837843 253.7153417 -407.69799328 257.45685387 C-421.31054594 264.29240212 -434.93231586 271.08761736 -448.69403076 277.61972046 C-456.30971705 281.23636472 -463.85674297 284.9778129 -471.38308716 288.77627563 C-482.23746531 294.25111053 -493.1187346 299.65426557 -504.10546875 304.859375 C-513.17349064 309.16349243 -522.19013486 313.57119807 -531.20819092 317.97872925 C-557.1708477 330.66627442 -557.1708477 330.66627442 -568.375 336.0625 C-569.29667969 336.50980469 -570.21835937 336.95710938 -571.16796875 337.41796875 C-571.9878125 337.81113281 -572.80765625 338.20429687 -573.65234375 338.609375 C-574.69056274 339.10969238 -574.69056274 339.10969238 -575.74975586 339.62011719 C-577.4375 340.3125 -577.4375 340.3125 -579.4375 340.3125 C-578.83164062 341.12589844 -578.22578125 341.93929688 -577.6015625 342.77734375 C-562.86844559 362.81046342 -551.99689908 383.96858097 -546.4375 408.3125 C-546.27378906 408.99554199 -546.11007812 409.67858398 -545.94140625 410.38232422 C-540.54421823 433.80545117 -541.50206698 461.12675752 -547.4375 484.3125 C-547.61941895 485.06047852 -547.80133789 485.80845703 -547.98876953 486.57910156 C-551.54289956 500.95443 -557.78590827 514.14264466 -564.4375 527.3125 C-563.73278564 527.56451172 -563.02807129 527.81652344 -562.30200195 528.07617188 C-559.11832477 529.45025704 -556.47577673 531.14809107 -553.60546875 533.09375 C-552.78194664 533.64832886 -552.78194664 533.64832886 -551.94178772 534.21411133 C-550.77171097 535.00240307 -549.60295411 535.79265695 -548.4354248 536.5847168 C-545.38972918 538.65022867 -542.33377783 540.70042432 -539.27734375 542.75 C-538.67854401 543.15182495 -538.07974426 543.5536499 -537.46279907 543.96765137 C-532.9243827 547.0054579 -528.33836549 549.9505665 -523.6875 552.8125 C-518.36169519 556.09522178 -513.12228469 559.48387172 -507.92944336 562.97338867 C-502.16166378 566.84371169 -496.35442414 570.65215589 -490.54104614 574.45358276 C-461.67624948 593.33233722 -432.85441815 612.26854222 -404.29229736 631.6031189 C-385.80092967 644.11692938 -367.16698854 656.40936871 -348.50178528 668.66189575 C-343.46349598 671.97172727 -338.4426378 675.30626894 -333.43359375 678.66015625 C-327.10248532 682.89626883 -320.68919541 686.99249202 -314.25 691.0625 C-297.04953759 702.01343514 -280.5465783 713.83621755 -264.20483398 726.02246094 C-262.64530529 727.16081563 -261.04402109 728.24148594 -259.4375 729.3125 C-258.81875 728.42111328 -258.81875 728.42111328 -258.1875 727.51171875 C-256.27915351 724.77273037 -254.35944896 722.04195984 -252.4375 719.3125 C-251.80070313 718.40113281 -251.16390625 717.48976563 -250.5078125 716.55078125 C-241.1843331 703.42676708 -229.97660426 691.28969559 -217.19921875 681.4609375 C-215.13669132 679.85642535 -213.13619917 678.22726538 -211.14453125 676.5390625 C-191.19979056 659.79256936 -168.58606478 649.50427033 -143.4375 643.3125 C-142.7249707 643.13170898 -142.01244141 642.95091797 -141.27832031 642.76464844 C-120.15662714 637.62969838 -94.50202462 638.36452326 -73.4375 643.3125 C-72.7170752 643.47347168 -71.99665039 643.63444336 -71.25439453 643.80029297 C-46.15365204 649.54943993 -22.9272558 661.57528374 -3.4375 678.3125 C-2.55384766 679.06853516 -2.55384766 679.06853516 -1.65234375 679.83984375 C7.23291378 687.53528278 14.63509082 695.83490695 21.5625 705.3125 C22.19542969 706.15167969 22.82835937 706.99085938 23.48046875 707.85546875 C37.40224285 726.87445991 45.65773152 748.39886236 50.5625 771.3125 C50.79710937 772.35148438 51.03171875 773.39046875 51.2734375 774.4609375 C59.45641794 815.85021539 48.60935708 860.3199216 26.02734375 895.3359375 C23.69473045 898.7900358 21.18752389 902.07652007 18.5625 905.3125 C18.06637207 905.92528809 17.57024414 906.53807617 17.05908203 907.16943359 C-5.2990179 934.45471099 -34.17091393 953.72900717 -68.0625 963.625 C-68.84786133 963.85541992 -69.63322266 964.08583984 -70.44238281 964.32324219 C-84.41013164 968.17895234 -97.99534305 969.81442164 -112.44873047 969.70361328 C-114.93642963 969.68750693 -117.42250515 969.70358442 -119.91015625 969.72265625 C-130.72019074 969.73691892 -140.87545907 968.58650854 -151.4375 966.3125 C-152.32050781 966.12445801 -153.20351563 965.93641602 -154.11328125 965.74267578 C-173.73899595 961.24438473 -191.81521435 952.53233535 -208.4375 941.3125 C-210.07332031 940.21421875 -210.07332031 940.21421875 -211.7421875 939.09375 C-228.26493404 927.15364817 -242.77898622 911.66375601 -253.4375 894.3125 C-253.87739258 893.60448242 -254.31728516 892.89646484 -254.77050781 892.16699219 C-277.00584463 855.83676834 -284.31532918 811.162007 -274.3828125 769.66796875 C-273.48974326 766.18888869 -272.47865848 762.75019894 -271.4375 759.3125 C-271.0987266 757.98053849 -270.76430214 756.64744916 -270.4375 755.3125 C-271.07026855 754.89589111 -271.70303711 754.47928223 -272.35498047 754.05004883 C-291.61431819 741.34808192 -310.27921948 728.14455355 -328.42431641 713.88916016 C-331.24772758 711.67795602 -334.09137674 709.4944088 -336.9375 707.3125 C-340.48142488 704.5935689 -344.01613519 701.8643683 -347.53515625 699.11328125 C-356.20843422 692.33454384 -364.94123981 685.64822082 -373.76171875 679.06201172 C-379.87159769 674.49725432 -385.9424374 669.88389582 -392 665.25 C-398.65837451 660.15880797 -405.36074831 655.13708833 -412.125 650.1875 C-419.23726155 644.98181638 -426.22650838 639.63760559 -433.16748047 634.20605469 C-438.08540913 630.35799501 -443.04724572 626.57882805 -448.0546875 622.84765625 C-460.6128338 613.46644539 -473.02400409 603.88395869 -485.4375 594.3125 C-487.60372158 592.64525452 -489.77061768 590.97888661 -491.9375 589.3125 C-493.02084542 588.47918238 -494.10417878 587.64584908 -495.1875 586.8125 C-495.991875 586.19375 -495.991875 586.19375 -496.8125 585.5625 C-498.4375 584.3125 -500.0625 583.0625 -501.6875 581.8125 C-502.22334717 581.40032227 -502.75919434 580.98814453 -503.3112793 580.56347656 C-504.39873001 579.7269509 -505.48613207 578.89036197 -506.57348633 578.05371094 C-509.21843787 576.01870712 -511.86431112 573.98493467 -514.51171875 571.953125 C-521.61839347 566.49605483 -528.69750797 561.00451602 -535.76635742 555.49853516 C-541.33154541 551.16591352 -546.91712153 546.86128255 -552.5234375 542.58203125 C-556.23634872 539.69034034 -559.83815109 536.67240812 -563.4140625 533.61328125 C-564.08179688 533.18402344 -564.74953125 532.75476563 -565.4375 532.3125 C-569.42883408 533.64294469 -570.68845088 536.21835024 -572.9375 539.5625 C-599.10316267 577.15966924 -637.76811255 600.28689094 -682.5 608.90234375 C-724.25825902 616.05344561 -769.12662779 607.11226388 -804.23095703 583.08496094 C-811.74254516 577.69818145 -818.7267764 571.66196116 -825.4375 565.3125 C-826.66919922 564.16007813 -826.66919922 564.16007813 -827.92578125 562.984375 C-855.21411481 536.67214046 -873.83304381 497.27867447 -874.60810852 459.2203064 C-874.65302998 456.06661308 -874.67016026 452.91326596 -874.67773438 449.75927734 C-874.68736762 447.34566808 -874.71843284 444.93293907 -874.75 442.51953125 C-874.84415739 428.72397546 -872.97816082 415.54105566 -869.1875 402.25 C-868.87389526 401.14241333 -868.87389526 401.14241333 -868.55395508 400.01245117 C-866.22363301 392.12138228 -863.04128941 384.69765142 -859.4375 377.3125 C-859.12941406 376.67715332 -858.82132813 376.04180664 -858.50390625 375.38720703 C-851.23652883 360.60744206 -841.84392753 348.13100945 -830.4375 336.3125 C-829.64859375 335.46042969 -828.8596875 334.60835937 -828.046875 333.73046875 C-817.18971988 322.31607553 -804.07358764 314.17064487 -790.45263672 306.46484375 C-788.56786984 305.3870512 -786.70544871 304.27973509 -784.84765625 303.15625 C-770.9539511 294.88050352 -756.11319945 289.20674304 -740.4375 285.3125 C-738.53677734 284.83103516 -738.53677734 284.83103516 -736.59765625 284.33984375 C-715.71973837 279.71862417 -690.15089687 280.23226687 -669.4375 285.3125 C-668.17164063 285.60253906 -666.90578125 285.89257812 -665.6015625 286.19140625 C-632.80293657 294.27271718 -606.04837714 312.53642062 -582.4375 336.3125 C-563.91918922 325.52122232 -563.91918922 325.52122232 -545.5 314.5625 C-538.81668363 310.53092623 -532.09947392 306.55843848 -525.37744141 302.59179688 C-519.15955324 298.92222353 -512.94733236 295.24326622 -506.73852539 291.55834961 C-491.33782122 282.41987559 -475.8963734 273.35215976 -460.4375 264.3125 C-459.38433594 263.69632812 -458.33117187 263.08015625 -457.24609375 262.4453125 C-439.55336023 252.09630618 -421.80163541 241.85067895 -404.03515625 231.62890625 C-392.77177515 225.14515382 -381.5259878 218.63215399 -370.3125 212.0625 C-369.71648987 211.71339569 -369.12047974 211.36429138 -368.50640869 211.00460815 C-361.40706496 206.84384205 -354.32475155 202.65571792 -347.26171875 198.43359375 C-332.96829911 189.89270605 -318.66387631 181.45495106 -303.95019531 173.64892578 C-301.33219743 172.25649278 -298.72443037 170.8460492 -296.1171875 169.43359375 C-294.41184188 168.51751481 -292.70612834 167.60212036 -291 166.6875 C-290.23647217 166.27298584 -289.47294434 165.85847168 -288.6862793 165.43139648 C-284.32731363 163.11854559 -280.23395198 161.48791511 -275.4375 160.3125 C-275.6540625 159.10980469 -275.870625 157.90710938 -276.09375 156.66796875 C-283.4375204 112.97122817 -275.35557189 68.47078163 -249.625 31.9375 C-236.68929641 14.23780579 -220.1079237 0.97113686 -202.4375 -11.6875 C-201.77943359 -12.16541992 -201.12136719 -12.64333984 -200.44335938 -13.13574219 C-179.58734558 -28.20582244 -155.78346637 -36.90114605 -130.4375 -40.6875 C-129.55964844 -40.81898438 -128.68179688 -40.95046875 -127.77734375 -41.0859375 C-80.98837645 -46.57307471 -34.98416453 -30.9828845 0 0 Z M-220.4375 10.3125 C-247.04015451 41.86657921 -260.98368942 82.74663022 -258.09790039 123.98608398 C-255.10680811 158.00052096 -241.67859327 189.21693608 -218.4375 214.3125 C-217.72424561 215.08352051 -217.72424561 215.08352051 -216.99658203 215.87011719 C-191.82706859 242.72993206 -155.51804713 260.85765376 -118.48071289 262.4387207 C-104.21629463 262.78200833 -90.35316682 262.66758246 -76.4375 259.3125 C-75.74043945 259.14621094 -75.04337891 258.97992188 -74.32519531 258.80859375 C-51.97512875 253.27487713 -31.68078614 242.54661268 -14.4375 227.3125 C-13.94797852 226.88855957 -13.45845703 226.46461914 -12.95410156 226.02783203 C-5.67927347 219.71483124 0.80581072 213.06974088 6.5625 205.3125 C6.95115234 204.79300781 7.33980469 204.27351562 7.74023438 203.73828125 C20.59723165 186.30576642 29.12716665 166.4676004 33.5625 145.3125 C33.85072632 143.95523804 33.85072632 143.95523804 34.14477539 142.57055664 C35.7589414 134.09457448 35.91951636 125.71702405 35.875 117.125 C35.87317719 116.39539063 35.87135437 115.66578125 35.86947632 114.9140625 C35.82395703 104.09618899 35.34218588 93.82214899 32.5625 83.3125 C32.28913818 82.25554932 32.28913818 82.25554932 32.01025391 81.17724609 C24.96158712 54.3075163 11.73752604 31.35911813 -7.4375 11.3125 C-8.05625 10.6421875 -8.675 9.971875 -9.3125 9.28125 C-35.55837739 -18.27692126 -74.56163938 -32.48034238 -111.9453125 -33.8125 C-152.35058603 -34.49878915 -192.89773819 -19.74193814 -220.4375 10.3125 Z M-777.41845703 304.32910156 C-779.26668052 305.22930038 -781.13071693 306.09684417 -782.99609375 306.9609375 C-791.26540146 311.03106494 -797.47021803 316.39617612 -803.94140625 322.83105469 C-805.31573822 324.1919304 -806.71910525 325.52331891 -808.125 326.8515625 C-836.66266049 354.22988053 -852.90341133 393.93675501 -853.79125977 433.24853516 C-854.0424126 469.47805335 -842.31401284 504.76267749 -818.4375 532.3125 C-817.41076172 533.52099609 -817.41076172 533.52099609 -816.36328125 534.75390625 C-789.21257486 565.90166457 -751.46524375 583.46938398 -710.4375 586.3125 C-674.57397219 588.29573656 -637.43626341 575.09586985 -610.7019043 551.2019043 C-608.24173478 548.94479891 -605.84159982 546.6293001 -603.4375 544.3125 C-602.59703125 543.54679688 -601.7565625 542.78109375 -600.890625 541.9921875 C-593.12648532 534.69785245 -587.24536957 526.18482337 -581.4375 517.3125 C-581.04788086 516.71953125 -580.65826172 516.1265625 -580.25683594 515.515625 C-567.60234016 495.87419547 -559.92007136 470.66895374 -559.4375 447.3125 C-559.38722656 446.17039062 -559.33695313 445.02828125 -559.28515625 443.8515625 C-558.23778388 402.54319606 -574.55311648 364.58007239 -602.3046875 334.5078125 C-605.51262537 331.20586913 -608.85941122 328.20699523 -612.4375 325.3125 C-613.85482422 324.15621094 -613.85482422 324.15621094 -615.30078125 322.9765625 C-636.81345985 305.74629865 -662.92015885 293.71898757 -690.4375 290.3125 C-691.73300781 290.14814453 -691.73300781 290.14814453 -693.0546875 289.98046875 C-722.15634065 286.95744384 -751.09650762 291.49647344 -777.41845703 304.32910156 Z M-216.98828125 686.9296875 C-219.26057658 689.64998421 -221.35836829 692.44202911 -223.4375 695.3125 C-224.33747733 696.49269373 -225.23995708 697.67098212 -226.14453125 698.84765625 C-250.94711902 731.41942144 -262.27526593 771.86290272 -257.6875 812.625 C-253.87815241 838.60263428 -245.02959532 863.66237742 -228.4375 884.3125 C-227.41076172 885.64087891 -227.41076172 885.64087891 -226.36328125 886.99609375 C-202.11717908 917.68460727 -166.45582607 938.5996123 -127.4375 943.3125 C-89.05494556 947.74919312 -51.11530538 937.80006162 -20.4375 914.1875 C7.21669704 892.13851318 27.02263373 861.30214783 33.5625 826.3125 C33.73837646 825.372854 33.91425293 824.43320801 34.09545898 823.46508789 C35.51840463 815.15328848 35.91296072 807.04902571 35.875 798.625 C35.86936035 797.3064502 35.8637207 795.98790039 35.85791016 794.62939453 C35.40896881 758.42516385 21.34401795 723.75226079 -3.4375 697.3125 C-3.94394043 696.76899902 -4.45038086 696.22549805 -4.97216797 695.66552734 C-32.88995375 666.01200973 -70.62548126 649.7168073 -111.234375 648.09375 C-147.75534081 647.14473491 -190.86096761 660.12218346 -216.98828125 686.9296875 Z " fill="#000000" transform="translate(874.4375,211.6875)"/>
<path d="M0 0 C0.99 0.33 1.98 0.66 3 1 C-1.37908736 10.76873334 -10.66561712 19.12857702 -17.66796875 27.1640625 C-20.34233833 30.2353542 -22.99002629 33.32814249 -25.62890625 36.42993164 C-30.81217334 42.5190863 -36.1215314 48.46559811 -41.55078125 54.3359375 C-44.13140503 57.14293178 -46.63792067 60.00386527 -49.1328125 62.88671875 C-51.03899151 65.04413056 -52.98813147 67.15841463 -54.9453125 69.26953125 C-58.93814089 73.57873128 -62.81321556 77.92125158 -66.5 82.5 C-71.40192473 88.57908945 -76.60765333 94.35223122 -82 100 C-82.53278564 100.55905029 -83.06557129 101.11810059 -83.61450195 101.6940918 C-87.77903556 105.9682339 -92.18225085 109.71286695 -96.9375 113.3125 C-98.0346936 114.14672485 -98.0346936 114.14672485 -99.15405273 114.99780273 C-106.46048275 120.473118 -114.05863528 125.49139435 -122 130 C-122.69335449 130.39558105 -123.38670898 130.79116211 -124.10107422 131.19873047 C-124.79861816 131.57529785 -125.49616211 131.95186523 -126.21484375 132.33984375 C-126.84382568 132.68265381 -127.47280762 133.02546387 -128.12084961 133.37866211 C-130.43980972 134.14542234 -131.72325047 133.77951012 -134 133 C-127.53913253 109.09479038 -104.20666355 85.65334334 -85.17895508 71.03881836 C-80.72891803 67.61566631 -76.55505788 63.97803936 -72.421875 60.17578125 C-69.86742834 57.88089933 -67.23527893 55.71808866 -64.5625 53.5625 C-60.75912497 50.48663412 -57.09917348 47.31246834 -53.5 44 C-48.68774498 39.58085877 -43.71692946 35.42462978 -38.6328125 31.32373047 C-35.36371744 28.67345633 -32.12181347 25.98998097 -28.875 23.3125 C-27.80427246 22.43078125 -27.80427246 22.43078125 -26.71191406 21.53125 C-22.88258863 18.37788819 -19.05657879 15.22058449 -15.234375 12.05859375 C-14.4623877 11.42074951 -13.69040039 10.78290527 -12.89501953 10.12573242 C-11.41065835 8.89919478 -9.9272206 7.67153853 -8.44482422 6.44262695 C-7.77467285 5.88921631 -7.10452148 5.33580566 -6.4140625 4.765625 C-5.8257666 4.27868164 -5.2374707 3.79173828 -4.63134766 3.29003906 C-3.14598689 2.11544369 -1.57562535 1.0504169 0 0 Z " fill="#000000" transform="translate(1107,72)"/>
<path d="M0 0 C1.32 0 2.64 0 4 0 C0.34984931 19.79390661 -4.30126596 39.32467574 -9.04736328 58.87857056 C-10.5313514 65.00831619 -11.96101577 71.14887133 -13.3671875 77.296875 C-20.6735562 109.02692234 -20.6735562 109.02692234 -28 122 C-28.3285498 122.59554687 -28.65709961 123.19109375 -28.99560547 123.8046875 C-39.99444978 143.47270387 -39.99444978 143.47270387 -46.171875 145.828125 C-46.77515625 145.88484375 -47.3784375 145.9415625 -48 146 C-50.14939508 143.85060492 -49.24068072 139.09127219 -49.25 136.125 C-49.22312083 114.70230409 -44.02594273 95.78211729 -34.6496582 76.62402344 C-31.54358051 70.25849714 -28.77112085 63.79336639 -26.0625 57.25 C-21.13720056 45.40855472 -15.8254957 33.76154345 -10.4375 22.125 C-10.03419464 21.25363403 -9.63088928 20.38226807 -9.21536255 19.48449707 C-2.03419779 3.98279975 -2.03419779 3.98279975 0 0 Z " fill="#000000" transform="translate(942,0)"/>
<path d="M0 0 C0 1.32 0 2.64 0 4 C-24.51024944 11.72799576 -49.02880058 19.29720648 -73.81005859 26.10986328 C-79.47494634 27.69062103 -85.10114855 29.39715132 -90.72265625 31.125 C-98.51625713 33.20577068 -106.17390619 33.18310417 -114.1875 33.1875 C-115.34314453 33.19974609 -116.49878906 33.21199219 -117.68945312 33.22460938 C-133.60170584 33.25141272 -133.60170584 33.25141272 -140 31 C-141.32885742 28.92260742 -141.32885742 28.92260742 -142 27 C-120.8351307 10.2614375 -94.96490839 7.41743861 -69 5.0625 C-67.6131752 4.93518494 -67.6131752 4.93518494 -66.19833374 4.80529785 C-52.40965408 3.53994791 -38.61494474 2.35489818 -24.8125 1.25 C-24.01271729 1.18515411 -23.21293457 1.12030823 -22.38891602 1.05349731 C-20.120226 0.87054318 -17.85122344 0.69222931 -15.58203125 0.515625 C-14.30561768 0.41540039 -13.0292041 0.31517578 -11.71411133 0.21191406 C-7.79343068 -0.01178612 -3.92590216 -0.03588029 0 0 Z " fill="#000000" transform="translate(1153,276)"/>
</svg>
