<?xml version="1.0" encoding="UTF-8"?>
<svg version="1.1" xmlns="http://www.w3.org/2000/svg" width="1342" height="1181">
<path d="M0 0 C-1.06508789 0.4218457 -2.13017578 0.84369141 -3.22753906 1.27832031 C-46.21379894 18.31932472 -88.49385093 36.60942458 -130 57 C-131.06573242 57.52190918 -132.13146484 58.04381836 -133.22949219 58.58154297 C-146.726575 65.20406119 -160.02529823 72.12400426 -173.16650391 79.42724609 C-176.08953573 81.0496975 -179.0191722 82.65978792 -181.94921875 84.26953125 C-196.6654088 92.39272755 -211.06115407 100.96959954 -225.37402344 109.77807617 C-227.94734331 111.35957531 -230.53017405 112.92431924 -233.11816406 114.48168945 C-244.00455764 121.04991844 -254.64049659 127.94842296 -265.20361328 135.02368164 C-267.86331375 136.80467463 -270.52705681 138.57948704 -273.19140625 140.35351562 C-297.40732561 156.5103601 -321.03307668 173.38301724 -343.92480469 191.37011719 C-345.897624 192.91959268 -347.87396301 194.46444511 -349.8515625 196.0078125 C-359.79143673 203.77450511 -369.55112781 211.73895751 -379.15991211 219.91186523 C-382.61139859 222.84283661 -386.10218263 225.71714751 -389.625 228.5625 C-394.38520053 232.43579272 -398.92804784 236.50759992 -403.4453125 240.66015625 C-405.62697815 242.65834848 -407.83011309 244.62148889 -410.0625 246.5625 C-421.58181197 256.58943148 -433.07972653 266.79163503 -443.70703125 277.76953125 C-445.64459426 279.65428164 -447.6196129 281.41137001 -449.66796875 283.171875 C-454.50475115 287.37109942 -458.99660172 291.88642731 -463.5 296.4375 C-464.32242188 297.26443359 -465.14484375 298.09136719 -465.9921875 298.94335938 C-467.99712113 300.95994959 -469.99966253 302.97885236 -472 305 C-469.69 305.33 -467.38 305.66 -465 306 C-465 306.99 -465 307.98 -465 309 C-463.68 309 -462.36 309 -461 309 C-459.75949058 388.45823434 -458.51944574 467.91647592 -457.28186035 547.37475586 C-457.26353376 548.55139281 -457.24520718 549.72802977 -457.22632524 550.94032238 C-456.82800973 576.51387772 -456.42977732 602.08743436 -456.03163049 627.66099232 C-455.83636937 640.20286882 -455.6410899 652.74474503 -455.44580078 665.28662109 C-455.42636783 666.53466621 -455.40693487 667.78271133 -455.38691304 669.06857599 C-454.75740727 709.49685168 -454.1266901 749.92510836 -453.49534247 790.35335532 C-452.84637544 831.9102683 -452.19863506 873.46720023 -451.55243069 915.02415626 C-451.46108798 920.89830651 -451.36973129 926.77245655 -451.27836609 932.64660645 C-451.26038513 933.80268525 -451.24240418 934.95876405 -451.22387834 936.14987554 C-450.93479027 954.73437564 -450.64441511 973.31885542 -450.35355453 991.90332786 C-450.06093075 1010.60222476 -449.76967269 1029.30114255 -449.47979271 1048.00008219 C-449.30768255 1059.09953592 -449.13454125 1070.19897243 -448.95989503 1081.29838655 C-448.8431024 1088.72757151 -448.72768348 1096.15677702 -448.61334584 1103.58600017 C-448.548306 1107.80955391 -448.48270292 1112.03309662 -448.41541272 1116.25661516 C-448.13038103 1134.17183765 -447.91510748 1152.08182628 -448 1170 C-462.80009471 1171.23882526 -477.632036 1171.2749271 -492.47375314 1171.43671906 C-496.37478541 1171.48015268 -500.27575966 1171.52833644 -504.17674351 1171.5758881 C-511.00400452 1171.65846055 -517.83129535 1171.73802744 -524.65861511 1171.81558418 C-534.81559859 1171.93097173 -544.97252327 1172.05102545 -555.12944202 1172.17196006 C-574.35196525 1172.40066214 -593.57454984 1172.6238755 -612.79715669 1172.84542222 C-627.68917885 1173.01709193 -642.58118273 1173.19027615 -657.47317505 1173.3645153 C-659.6184226 1173.38960931 -661.76367016 1173.41470301 -663.90891773 1173.4397964 C-667.14280953 1173.47762568 -670.37670132 1173.51545604 -673.61059307 1173.55329009 C-703.69825018 1173.90525909 -733.78592598 1174.25559259 -763.87364197 1174.60249424 C-765.0080643 1174.61557397 -766.14248662 1174.62865369 -767.31128538 1174.64212977 C-776.52084092 1174.74830511 -785.73039696 1174.85443699 -794.93995304 1174.9605655 C-830.65794176 1175.37220621 -866.37586851 1175.78887785 -902.09375 1176.2097168 C-942.34533548 1176.68396219 -982.59696302 1177.15439229 -1022.84865665 1177.61937374 C-1027.17295913 1177.66933916 -1031.49726146 1177.71931633 -1035.82156372 1177.76930046 C-1037.41832596 1177.78775324 -1037.41832596 1177.78775324 -1039.04734602 1177.80657881 C-1053.86741675 1177.9779123 -1068.68745925 1178.15152005 -1083.5074827 1178.32689351 C-1108.37861103 1178.62116257 -1133.24979185 1178.91045168 -1158.12109375 1179.18969727 C-1159.05211429 1179.20016019 -1159.98313483 1179.21062311 -1160.94236812 1179.22140309 C-1219.29628914 1179.87623473 -1277.64179604 1180.31082014 -1336 1180 C-1336.57515453 1108.04412279 -1337.14896235 1036.08823488 -1337.71606445 964.1322937 C-1337.72452288 963.05910426 -1337.7329813 961.98591482 -1337.74169604 960.88020449 C-1337.9257253 937.52994335 -1338.10952626 914.17968041 -1338.29309362 890.82941563 C-1338.38317899 879.37048899 -1338.47331455 867.91156275 -1338.56347656 856.45263672 C-1338.57244562 855.31262715 -1338.58141467 854.17261758 -1338.59065552 852.99806227 C-1338.87888017 816.36631073 -1339.17038812 779.73458626 -1339.46368809 743.10287503 C-1339.76629108 705.30701443 -1340.06540378 667.51112765 -1340.3604166 629.71520701 C-1340.40254734 624.31777604 -1340.44471604 618.92034537 -1340.48690796 613.52291489 C-1340.49520686 612.46112141 -1340.50350576 611.39932792 -1340.51205615 610.30535888 C-1340.6351661 594.56573606 -1340.7611817 578.82613833 -1340.88882446 563.08655167 C-1341.08134274 539.3274388 -1341.26926276 515.56829359 -1341.44921875 491.80908203 C-1341.45632572 490.87195279 -1341.46343268 489.93482354 -1341.47075501 488.96929644 C-1342.00809354 417.97873318 -1342.16897848 346.99236319 -1342 276 C-1322.78006975 275.86690611 -1303.62231511 276.17881496 -1284.41360817 276.87348018 C-1280.72906622 277.00555322 -1277.04431592 277.13158223 -1273.35959196 277.25845671 C-1266.93463545 277.48047678 -1260.50981613 277.70615657 -1254.08507729 277.9343853 C-1244.53137262 278.27374518 -1234.97746735 278.60718355 -1225.42351469 278.93947943 C-1209.34064003 279.49901198 -1193.2579298 280.06314141 -1177.17530823 280.62989807 C-1161.26225951 281.19065022 -1145.34913194 281.74908297 -1129.43589783 282.30455017 C-1128.44299456 282.33920884 -1127.4500913 282.37386751 -1126.42710006 282.40957644 C-1121.38350901 282.58561496 -1116.33991637 282.76160777 -1111.296323 282.93757981 C-1075.64288871 284.18158654 -1039.98960717 285.42991985 -1004.33642578 286.68115234 C-1002.18446372 286.75667305 -1000.03250166 286.83219363 -997.8805396 286.90771407 C-996.28116756 286.96384219 -996.28116756 286.96384219 -994.64948498 287.02110422 C-989.25478783 287.21042403 -983.86009054 287.39973972 -978.46539307 287.58905029 C-976.86070653 287.64536243 -976.86070653 287.64536243 -975.22360208 287.70281218 C-950.34165304 288.57594959 -925.45965312 289.44763241 -900.57763672 290.31884766 C-899.5109046 290.35619905 -898.44417248 290.39355045 -897.34511515 290.43203371 C-872.98669618 291.28492788 -848.62825733 292.1372514 -824.26978302 292.98856354 C-823.24600122 293.02434466 -822.22221943 293.06012578 -821.16741394 293.09699119 C-811.95815563 293.41885046 -802.74889671 293.74069227 -793.53963381 294.06242019 C-770.58955347 294.86419101 -747.63952319 295.66735236 -724.68961138 296.47393359 C-708.7109773 297.03550617 -692.73229357 297.59564458 -676.7535553 298.15424478 C-667.26462213 298.48602868 -657.77573682 298.81911876 -648.28691414 299.15404802 C-641.94638142 299.37773014 -635.60579254 299.59976941 -629.265156 299.82048876 C-625.65483407 299.94621486 -622.04454116 300.07265569 -618.43431586 300.20112938 C-614.53879693 300.33974157 -610.64315961 300.47481245 -606.74750519 300.60956573 C-605.08087976 300.66972869 -605.08087976 300.66972869 -603.38058513 300.73110706 C-600.2539295 300.83757214 -597.12749592 300.9224388 -594 301 C-592.83092871 301.03828995 -591.66185742 301.0765799 -590.45735973 301.11603016 C-589.2984356 301.13993354 -588.13951147 301.16383692 -586.94546843 301.18846464 C-585.8988883 301.21539568 -584.85230817 301.24232673 -583.77401349 301.27007386 C-578.68473518 300.77458923 -576.33392048 297.59125568 -573 294 C-570.59249394 291.67611315 -568.13885406 289.40247118 -565.6875 287.125 C-565.03152832 286.50939209 -564.37555664 285.89378418 -563.69970703 285.25952148 C-559.23484646 281.08416278 -554.64139733 277.14744542 -549.86328125 273.33203125 C-546.39832006 270.50995509 -543.04739179 267.5705707 -539.6875 264.625 C-532.65210713 258.4856828 -525.40302359 252.68728465 -518 247 C-516.67055157 245.97268388 -515.34112521 244.94533918 -514.01171875 243.91796875 C-473.60117005 212.77410794 -431.11871918 184.61332707 -387 159 C-385.43137207 158.08613525 -385.43137207 158.08613525 -383.83105469 157.15380859 C-365.76191031 146.6468172 -347.43132961 136.69681636 -328.91455078 127.00317383 C-327.05134838 126.02690519 -325.1895044 125.0480986 -323.328125 124.06835938 C-308.04343938 116.02670058 -292.64775442 108.3088463 -277 101 C-275.61527023 100.34955396 -274.23067512 99.69882117 -272.84619141 99.04785156 C-194.98146386 62.46807806 -114.14824007 30.9231565 -25.7802124 5.01153564 C-23.89695406 4.46562323 -22.01449323 3.91695141 -20.13287354 3.36541748 C-17.51732118 2.60131762 -14.89820102 1.85114029 -12.27734375 1.10546875 C-11.49684158 0.87596024 -10.71633942 0.64645172 -9.91218567 0.4099884 C-6.18770716 -0.63158039 -3.69239079 -1.14876151 0 0 Z M-488.8125 321 C-489.45429199 321.69407959 -490.09608398 322.38815918 -490.75732422 323.10327148 C-492.53809235 325.04218347 -494.27449988 327.01195915 -496 329 C-496.67675781 329.75410156 -497.35351562 330.50820313 -498.05078125 331.28515625 C-499.09498105 332.46409151 -500.12522287 333.65554774 -501.140625 334.859375 C-503.801421 337.92264434 -506.59718208 340.85553152 -509.375 343.8125 C-514.07728277 348.83440722 -518.52177413 353.98331212 -522.82421875 359.35546875 C-525.130317 362.15839248 -527.54151531 364.83003275 -530 367.5 C-534.41881919 372.31190433 -538.57233762 377.28269633 -542.671875 382.3671875 C-544.17431738 384.21430784 -545.69516863 386.04527845 -547.21875 387.875 C-554.25464416 396.33407264 -561.077367 404.91569151 -567.71875 413.6875 C-570.51850641 417.38237084 -573.36815298 421.03556175 -576.23071289 424.68188477 C-583.19897569 433.56553042 -589.87420917 442.62535066 -596.43066406 451.81591797 C-597.91422522 453.8806252 -599.41703413 455.92920276 -600.9296875 457.97265625 C-612.19590696 473.24970167 -622.5541379 489.15717059 -633 505 C-633.67691895 506.02577148 -634.35383789 507.05154297 -635.05126953 508.10839844 C-659.68574902 545.51209576 -682.22552887 584.32890107 -703 624 C-703.37143127 624.70892395 -703.74286255 625.4178479 -704.12554932 626.14825439 C-714.42370417 645.82311914 -724.37922016 665.58355484 -733.54541016 685.81445312 C-734.93712251 688.86229851 -736.35824418 691.89407666 -737.79296875 694.921875 C-754.29324098 729.85705273 -768.64491462 765.76090202 -782 802 C-782.31219482 802.84419495 -782.62438965 803.68838989 -782.94604492 804.5581665 C-815.73872867 893.26021026 -838.84234024 984.3362963 -856.3828125 1077.17578125 C-856.547883 1078.04416626 -856.71295349 1078.91255127 -856.88302612 1079.80725098 C-857.69835765 1083.87536773 -857.69835765 1083.87536773 -858 1088 C-858.66 1088 -859.32 1088 -860 1088 C-859.98428955 1087.2471875 -859.9685791 1086.494375 -859.95239258 1085.71875 C-858.73709502 1018.11333641 -883.24896028 953.92108959 -910.18011475 892.85980225 C-910.72649325 891.62041422 -911.2717826 890.38054546 -911.815979 889.14019775 C-920.73332941 868.8174722 -930.41418786 848.88381356 -940.32891846 829.03208923 C-941.23393301 827.2196763 -942.13777389 825.40668165 -943.04150391 823.59362793 C-950.3184169 809.01607069 -957.81129506 794.59010817 -965.70654297 780.337677 C-967.22036653 777.60172951 -968.72009643 774.85828575 -970.21780396 772.11349487 C-978.87823359 756.24973318 -987.76957193 740.54037427 -997 725 C-997.34266907 724.42272156 -997.68533813 723.84544312 -998.03839111 723.25067139 C-1051.50650417 631.95662775 -1051.50650417 631.95662775 -1119 551 C-1108.35979574 558.70299191 -1097.91305113 566.55831325 -1087.7734375 574.91015625 C-1084.1678918 577.87839539 -1080.49926626 580.75871091 -1076.8125 583.625 C-1071.6654781 587.63752582 -1066.64575026 591.77578608 -1061.68505859 596.01611328 C-1058.31147304 598.89937006 -1054.89455828 601.71652328 -1051.4375 604.5 C-1046.36248529 608.62807319 -1041.55984584 613.00345591 -1036.765625 617.44921875 C-1034.55944053 619.48401883 -1032.33367739 621.47646238 -1030.0625 623.4375 C-1025.51844268 627.38316294 -1021.10850138 631.47271283 -1016.69946289 635.56762695 C-1014.34405679 637.75458895 -1011.98454864 639.93695538 -1009.62133789 642.11547852 C-1000.74918801 650.31823059 -992.11162333 658.73181347 -983.58105469 667.28857422 C-981.47706263 669.39799657 -979.36767965 671.50192439 -977.2578125 673.60546875 C-975.89030378 674.97363735 -974.5231048 676.34211561 -973.15625 677.7109375 C-972.53947388 678.32568939 -971.92269775 678.94044128 -971.28723145 679.57382202 C-967.54663193 683.33434814 -964.00364001 687.21940828 -960.534729 691.23168945 C-958.85473264 693.16737665 -957.12374137 695.04301305 -955.3515625 696.89453125 C-954.74328613 697.53438965 -954.13500977 698.17424805 -953.50830078 698.83349609 C-952.88681152 699.48656738 -952.26532227 700.13963867 -951.625 700.8125 C-946.52231427 706.21084835 -941.66951816 711.68243976 -937.0390625 717.4921875 C-934.93818094 720.07603034 -932.74413435 722.5399352 -930.5 725 C-925.79576612 730.17546974 -921.38284513 735.5514389 -917 741 C-916.09789338 742.10956783 -915.19553917 743.21893441 -914.29296875 744.328125 C-898.10300128 764.30336798 -882.40291154 785.03131793 -869 807 C-866.82053796 803.73080695 -866.08975651 801.13992275 -865.07421875 797.3515625 C-864.69387147 795.95894037 -864.31272939 794.56653515 -863.9309082 793.17431641 C-863.72954254 792.43513977 -863.52817688 791.69596313 -863.32070923 790.93438721 C-851.91597694 749.34001104 -835.81479301 709.23265054 -818 670 C-817.53561523 668.97503418 -817.07123047 667.95006836 -816.59277344 666.89404297 C-800.16647668 630.7373093 -782.88608615 594.77539826 -763.05078125 560.34765625 C-759.68904483 554.50186742 -756.50140379 548.56630894 -753.3125 542.625 C-748.59621731 533.87024448 -743.73009251 525.24308803 -738.61914062 516.71386719 C-736.59359412 513.31881668 -734.58615595 509.91324209 -732.578125 506.5078125 C-724.40276802 492.65509848 -716.18817466 478.847233 -707.48632812 465.31640625 C-705.83132418 462.73712283 -704.18831424 460.15043618 -702.546875 457.5625 C-699.04093677 452.03546346 -695.5228317 446.51628072 -692 441 C-691.33895264 439.96286865 -691.33895264 439.96286865 -690.66455078 438.90478516 C-683.91287614 428.32581392 -676.95597157 417.88268701 -670 407.4375 C-669.53899902 406.74465912 -669.07799805 406.05181824 -668.60302734 405.33798218 C-663.49542741 397.66533956 -658.35776301 390.01310665 -653.1640625 382.3984375 C-652.72908447 381.75591537 -652.29410645 381.11339325 -651.84594727 380.45140076 C-648.10810451 374.99580989 -643.94591334 369.97873689 -639.6015625 365 C-637.24277143 362.27995264 -634.98947116 359.5057109 -632.75 356.6875 C-627.67317141 350.44190511 -622.12687983 344.65422363 -616.59765625 338.8125 C-611.21106516 333.12079529 -605.97033224 327.3085408 -600.87329102 321.35571289 C-600.33470963 320.72685684 -599.79612823 320.09800079 -599.2412262 319.4500885 C-598.62681923 318.73229469 -598.62681923 318.73229469 -598 318 C-629.17925059 318.72549749 -660.34603863 319.79820623 -691.51438357 320.88435736 C-699.16669428 321.1509581 -706.81907035 321.41566267 -714.47144693 321.68036479 C-730.31421743 322.22845238 -746.15691232 322.77870363 -761.99958096 323.3297267 C-774.22399067 323.75490078 -786.44841722 324.17958751 -798.67285538 324.60394287 C-827.75333854 325.61348738 -856.83380588 326.62348416 -885.91419792 327.63565063 C-887.30328392 327.68399817 -887.30328392 327.68399817 -888.72043227 327.73332243 C-893.4128564 327.89664456 -898.10528037 328.05997121 -902.79770432 328.22329831 C-904.68072866 328.2888395 -906.563753 328.35438069 -908.44677734 328.41992188 C-909.84619459 328.46863122 -909.84619459 328.46863122 -911.27388289 328.51832458 C-940.67061709 329.54151233 -970.06744926 330.56184473 -999.46435547 331.58007812 C-1032.56431227 332.72657671 -1065.66418323 333.87551411 -1098.76393712 335.02785683 C-1102.2898303 335.15059901 -1105.81572382 335.27333148 -1109.34161758 335.39605713 C-1110.20966229 335.42627252 -1111.077707 335.4564879 -1111.97205609 335.48761891 C-1125.93627799 335.97363547 -1139.90057966 336.45732235 -1153.86491074 336.94019073 C-1167.87430108 337.42468022 -1181.88359629 337.9118484 -1195.89279853 338.40174723 C-1204.21403995 338.6926628 -1212.53534525 338.98157661 -1220.85675533 339.26762792 C-1227.06390189 339.4812228 -1233.27091165 339.69857008 -1239.47787584 339.91739678 C-1241.99229969 340.00545468 -1244.50676681 340.09228681 -1247.02127884 340.17778945 C-1250.43150679 340.29392845 -1253.84155091 340.41448403 -1257.25158501 340.53616333 C-1258.72468701 340.58473744 -1258.72468701 340.58473744 -1260.22754866 340.63429284 C-1265.54296481 340.82923209 -1270.73268534 341.25456973 -1276 342 C-1277.11327964 372.03624571 -1277.29992782 402.08226099 -1277.5223387 432.13531478 C-1277.57919398 439.79682046 -1277.64039591 447.45829014 -1277.70164335 455.11976175 C-1277.821605 470.14340879 -1277.93744198 485.16708543 -1278.05144627 500.19077873 C-1278.15154912 513.38150133 -1278.25301542 526.57221258 -1278.35578728 539.76291466 C-1278.36265027 540.64405876 -1278.36951327 541.52520286 -1278.37658423 542.4330483 C-1278.40446209 546.0122478 -1278.43234441 549.59144727 -1278.46023449 553.17064668 C-1278.72147147 586.69964809 -1278.97842337 620.22868114 -1279.23346182 653.75773021 C-1279.45817157 683.29595442 -1279.68676586 712.83414611 -1279.91870117 742.37231445 C-1280.18073991 775.74587951 -1280.44010255 809.11946377 -1280.69550556 842.49308032 C-1280.72300771 846.08586327 -1280.75051652 849.67864618 -1280.77802849 853.27142906 C-1280.78818237 854.59784434 -1280.78818237 854.59784434 -1280.79854137 855.95105588 C-1280.89238275 868.20417137 -1280.98776073 880.45727397 -1281.08434798 892.7103681 C-1281.24664115 913.30402826 -1281.40525003 933.89771348 -1281.55688477 954.49145508 C-1281.56260971 955.26804564 -1281.56833465 956.04463621 -1281.57423308 956.84475982 C-1281.99157836 1013.56372235 -1282.14128849 1070.27935446 -1282 1127 C-1274.97208573 1128.0673226 -1268.0422129 1128.19481731 -1260.94123077 1128.26360416 C-1259.62661558 1128.27995337 -1258.31200039 1128.29630258 -1256.95754838 1128.31314722 C-1253.30782724 1128.35840895 -1249.65806336 1128.39802377 -1246.0082675 1128.43671906 C-1242.03768262 1128.47981712 -1238.06716139 1128.52818701 -1234.09662962 1128.5758881 C-1227.13724135 1128.65876907 -1220.17782087 1128.73827851 -1213.21836853 1128.81558418 C-1202.86905753 1128.93055853 -1192.51981142 1129.0507292 -1182.17057205 1129.17196006 C-1164.75747832 1129.37578561 -1147.34433828 1129.57535996 -1129.9311676 1129.77249336 C-1112.6776753 1129.96782764 -1095.42420511 1130.16495865 -1078.17076111 1130.3645153 C-1077.09782792 1130.37692369 -1076.02489473 1130.38933207 -1074.91944842 1130.40211646 C-1069.47021744 1130.46514442 -1064.02098681 1130.52820247 -1058.5717563 1130.5912708 C-1019.95868697 1131.03810396 -981.3455689 1131.48059047 -942.73242188 1131.9206543 C-905.25843333 1132.3477401 -867.78447364 1132.77724324 -830.31054688 1133.2097168 C-829.15674071 1133.22303177 -828.00293454 1133.23634675 -826.81416456 1133.25006521 C-817.53154769 1133.35718797 -808.24893091 1133.46431904 -798.96631432 1133.57146556 C-758.88308023 1134.03412819 -718.79982373 1134.49484192 -678.71656263 1134.95515766 C-671.1629832 1135.04190817 -663.60940456 1135.12872707 -656.05582619 1135.21556973 C-633.36794817 1135.47638042 -610.68006352 1135.73659158 -587.99215847 1135.99504132 C-578.60908087 1136.10193882 -569.22600647 1136.20909749 -559.84294128 1136.31707954 C-552.06021681 1136.40664244 -544.27748559 1136.49558701 -536.49474457 1136.58370012 C-532.57970593 1136.62804111 -528.66467103 1136.67265923 -524.74964482 1136.71808536 C-503.37544645 1136.97660773 -503.37544645 1136.97660773 -482 1137 C-480.76695834 1122.06738388 -480.67860887 1107.0964253 -480.45846332 1092.12315838 C-480.39941645 1088.16435858 -480.33596594 1084.20562883 -480.2730971 1080.24688822 C-480.16369308 1073.3201616 -480.0570639 1066.39339665 -479.95228958 1059.46659851 C-479.79646115 1049.16516926 -479.63630399 1038.86381043 -479.47530241 1028.5624609 C-479.18777899 1010.15694873 -478.90450964 991.75137296 -478.62300676 973.34576784 C-478.37649269 957.22909539 -478.12845903 941.11244718 -477.87893867 924.995821 C-477.86237125 923.9256146 -477.84580383 922.8554082 -477.82873437 921.7527713 C-477.76147164 917.4079895 -477.69420072 913.06320783 -477.62691821 908.71842634 C-476.99586216 867.9669153 -476.36896989 827.21534117 -475.74410674 786.46373474 C-475.18972376 750.31000531 -474.63226888 714.15632457 -474.07202148 678.00268555 C-474.03608078 675.68331434 -474.00014015 673.36394314 -473.9641996 671.04457193 C-473.94643074 669.89788771 -473.92866189 668.75120348 -473.91035459 667.56977125 C-473.82089768 661.79670978 -473.73144762 656.0236482 -473.64200497 650.25058651 C-473.6243566 649.11149245 -473.60670824 647.97239839 -473.58852507 646.79878633 C-473.11982514 616.5444152 -472.65341112 586.29000884 -472.18772513 556.03559119 C-472.1375565 552.7763732 -472.08738772 549.51715521 -472.0372184 546.25793723 C-472.00394145 544.09607581 -471.97066635 541.93421437 -471.93739312 539.77235289 C-471.70609452 524.74526636 -471.47394151 509.71819324 -471.24120012 494.69112898 C-470.94097978 475.3069738 -470.6423507 455.92279518 -470.34644931 436.53857356 C-470.19018531 426.30477948 -470.03264914 416.07100697 -469.87319375 405.83726211 C-469.76643377 398.97674225 -469.66145321 392.11619656 -469.55784123 385.25562844 C-469.49900467 381.36288681 -469.43948131 377.47015966 -469.37777912 373.57746231 C-469.06359623 353.71637239 -468.93903715 333.86328576 -469 314 C-470.91164259 313.91860691 -472.82429146 313.86063146 -474.73706055 313.8125 C-475.80200241 313.77769531 -476.86694427 313.74289062 -477.9641571 313.70703125 C-483.11600967 314.20420184 -485.57503009 317.22946163 -488.8125 321 Z " fill="#000000" transform="translate(1342,1)"/>
</svg>
