<?xml version="1.0" encoding="utf-8"?>
<!-- Generator: Adobe Illustrator 16.0.0, SVG Export Plug-In . SVG Version: 6.00 Build 0)  -->
<!DOCTYPE svg PUBLIC "-//W3C//DTD SVG 1.1//EN" "http://www.w3.org/Graphics/SVG/1.1/DTD/svg11.dtd">
<svg version="1.1" xmlns="http://www.w3.org/2000/svg" xmlns:xlink="http://www.w3.org/1999/xlink" x="0px" y="0px"
	 width="401.765px" height="276.227px" viewBox="0 0 401.765 276.227" enable-background="new 0 0 401.765 276.227"
	 xml:space="preserve">
<g id="flatware">
</g>
<g id="cutting">
</g>
<g id="timer">
</g>
<g id="heat">
</g>
<g id="cost-1">
</g>
<g id="cost-2">
</g>
<g id="cost-3">
</g>
<g id="difficulty-0">
</g>
<g id="difficulty-1">
</g>
<g id="difficulty-2">
</g>
<g id="difficulty-3">
</g>
<g id="hourglass">
</g>
<g id="hourglass-wait">
</g>
<g id="aroow-up">
</g>
<g id="search">
</g>
<g id="plus">
</g>
<g id="minus">
</g>
<g id="grill">
</g>
<g id="steam">
</g>
<g id="kettle">
</g>
<g id="oven">
</g>
<g id="pizza-oven">
</g>
<g id="microwave">
</g>
<g id="fryer">
</g>
<g id="pot">
</g>
<g id="pan">
</g>
<g id="wok">
</g>
<g id="menu">
	<path d="M400.739,8.73c-3.719-1.738-3.902-0.217-7.057-1.618l0.098,0.427c-14.656-1.735-29.313-2.649-44.143-3.059
		c-9.889,1.204-20.625,0.453-30.912,0.908c-11.074,0.599-23.059,1.579-32.568,2.757c-2.27,0.395-3.9-0.652-5.83-1.226
		c-8.742,0.685-19.86,0.388-29.725,1.209c0.186,0.003,0.365,0.023,0.482,0.037c-5.24,0.278-9.149-0.983-14.266-0.702
		c0.021,0.363-0.771,0.396-1.158,0.591c-0.863-1.68-30.161,3.899-31.956,2.949c-0.532,0.087-1.085,0.166-1.647,0.218l-2.026-0.146
		c-0.677-0.061-1.354-0.192-2.032-0.297c-1.354-0.226-2.711-0.479-4.063-0.747c-2.706-0.538-5.397-1.137-8.043-1.701
		c-5.29-1.129-10.392-2.117-15.032-2.184c-2.026,0.703-4.305,1.297-6.015,2.117c-1.629-0.803-1.965,0.591-3.939,0.304
		c-4.968-3.629-7.93-2.344-5.356-1.023c-4.136,0.268-8.275-0.226-11.945-0.279c-1.705,0.169-3.398,0.352-5.119,0.564
		c-1.461,0.217-2.267-0.325-2.99-1.164c-3.736,0.309-2.625-0.479-6.531-1.004c-0.93-1.23-9.83,1.433-10.932,1.021l0.642-0.146
		c-4.518-0.418-7.494-2.854-11.913-3.161c-3.067-0.357-6.206-0.62-9.369-0.802c-3.176,0.027-6.373,0.117-9.543,0.221
		c-6.34,0.207-12.564,0.47-18.278,0.398c-0.115,1.246,2.521-0.334,2.65,1.31c-6.735-0.06-13.532-1.445-20.338-1.495
		c-1.229-0.306-2.733-0.897-3.296-1.279c-2.178-0.414-1.279,0.623-2.873,0.5L45.491,1.11c-2.32,0.975-3.412-1.166-5.602-0.65
		c-0.112,0.455-0.912,0.533-1.69,0.517c-0.052-1.189-2.398,0.139-2.296-0.952l-0.022,0.091c-0.47-0.009-0.803,0.076-1.38-0.115
		c-0.89,0.439-9.204,3.896-10.098,4.424l-0.424-0.187c-1.249,0.065-1.769,0.962-1.037,1.158l-1.54-0.03l0.177-0.086l-1.532-0.032
		c-0.284-0.099-0.612-0.646-0.187-1.179C19,4.504,18.028,4.752,17.157,4.56c2.427,0.68,5.44,1.647,7.979,2.792
		c-1.03,0.434-2.911-0.155-4.032-0.001c-1.354-0.755-4.124-1.36-6.28-1.852c-0.471,0.079-0.771,1.415-1.853,0.854
		c-0.54-0.906-1.208,0.062-2.11-0.582c1.013-0.512,2.018-0.314,3.055-0.292c-0.197-1.077-2.537-0.675-3.362-0.962
		c-0.089,0.083-0.275,0.127-0.517,0.153C9.89,4.874,9.673,5.109,9.616,5.135C9.136,5.352,8.651,5.47,8.163,5.544
		c0.043,0.229-0.4,0.631-0.547,0.716c-0.172,0.099-0.35,0.159-0.525,0.225c0.008,0.001,0.015,0.001,0.022,0.002
		C7.333,6.52,6.735,7.203,6.616,7.26C5.608,7.739,4.417,7.718,3.392,8.118C3.271,8.252,3.21,8.633,3.159,8.776
		C3.147,8.81,3.124,8.838,3.109,8.87c0.012,0.167-0.009,0.322-0.105,0.432C2.928,9.3,2.871,9.288,2.824,9.272
		C2.804,9.293,2.786,9.317,2.766,9.337C2.696,9.4,2.487,9.568,2.515,9.364C2.533,9.219,2.476,9.08,2.384,8.946
		c0.079,1.735-3.315,5.453,0.031,5.641c-1.89-1.304,0.594-1.395,2.541-1.598c0.198,0.454,1.08,1.105,2.49,1.423
		c1.211-0.134,0.705-0.51,0.929-0.856c0.68,0.288,1.972,0.511,1.817,1.225c0.929-0.867,1.521,0.503,2.65,0.187
		c0.992-0.414-0.074-0.365,0.628-0.79c1.503,0.056,3.608,0.126,4.805,0.262c0.474,0.653,1.899,1.799,0.893,2.853
		c-2.275-0.088,0.839-1.699-1.524-1.422c1.045,1.496-2.086,0.465-2.496,1.625c0.767,0.667,2.293,0.64,3.566,0.419l-0.259-0.195
		c1.121-0.227,3.37-0.595,4.6,0.188c-0.278,0.54,0.259,0.93-0.565,1.079l1.551,0.064c0.193-0.173,0.394-0.351-0.055-0.463
		c0.725-0.429,1.459-0.216,2.025,0.086c0.175,0.56,8.211-2.565,7.967-2.205c0.529-0.021,0.869,0.156,1.197,0.285
		c-2.783,0.484-9.042,2.047-7.894,1.878c0.958,0.597,12.618-3.117,13.327-2.063c0.826-0.062,1.824-0.204,1.625-0.772
		c1.4,0.246-0.41,1.103,0.59,1.615c0.021-0.09-0.084-0.284,0.234-0.271l0.962,0.701c2.164-0.939,5.354,0.142,7.62-1.085
		c-0.654,0.635-1.4,1.739-2.857,2.335l-0.258-0.295c-0.207,0.181-1.408,0.407-1.371,0.978c1.391,0.349,2.578,0.218,4.036-0.38
		c0.271,0.146,0.586,0.295,0.798,0.448c-0.007-0.075-0.029-0.138-0.024-0.224c0.479,0.345,0.43,0.403,0.257,0.631
		c-0.023,0.043-0.051,0.089-0.102,0.133c0.878,1.654,5.445-1.189,7.982-0.381c0.747-0.254,0.07-0.286,1-0.628
		c2.591,0.604,4.377,1.073,7.084,1.397c0.865-0.741,0.934-1.031-0.11-1.761l2.045,0.188c-1.862,1.967,3.815,1.745,1.761,3.713
		c0.597,0.426,1.819,0.486,2.965,0.149c0.117-0.487,0.3-1.268,1.739-1.3c2.001,0.595,1.525,0.373,3.181,0.951
		c0.39,0.619-0.221,0.883-0.153,1.384c2.563-0.866,2.225,1.316,4.636,1.14c1.512-0.221,4.496-0.366,4.578-1.471
		c2.035,0.003,2.028,0.811,1.818,1.711l1.652,0.087c-5.352,0.208-10.973-0.051-16.516-0.369c6.024,1.735,12.58,3.348,18.802,3.503
		c0.778,0.019,1.551,0.016,2.317-0.014c0.767-0.014,1.53,0.014,2.283-0.025c1.507-0.059,2.98-0.232,4.405-0.543
		c2.851-0.621,5.512-1.787,7.874-3.674c0.963,4.292,12.669,6.81,12.922,5.776c2.445-0.664,4.921-1.187,7.423-1.594
		c15.815-2.558,32.933-0.323,50.629,2.142c2.455,0.319,5.964,0.693,10.004,1.103c2.02,0.201,4.173,0.415,6.393,0.637
		c2.224,0.149,4.522,0.195,6.819,0.303c9.191,0.373,18.414,0.798,23.464,1.35c1.465,0.138,2.922,0.262,4.401,0.364
		c-2.449-0.351-2.449-0.351-4.898-0.701c6.183-1.209,11.784-2.381,17.202-3.177c-0.946-0.598-1.107-1.185-3.358-1.995l2.755,0.37
		c2.532-1.793,8.328-1.786,11.06-2.564c-0.595,0.933,1.551,1.088,3.444,1.204l-0.745-0.602c7.187,0.295,15.536-0.56,21.96-0.525
		c0.896-0.013,1.564,0.324,1.969,0.638l6.163-0.79c-0.479,1.243,5.105,1.024,2.164,1.835c4.615-1.519,9.291-0.682,13.69-2.249
		c15.709-0.379,32.423-1.527,48.643-3.796l-0.399-0.454c5.68-0.89,10.668-3.389,17.579-2.667c4.917-1.709,11.919-2.666,13.854-5.267
		c5.683-0.424,7.936-1.748,13.501-2.484C396.646,10.037,403.494,9.685,400.739,8.73z"/>
	<path d="M400.65,250.232c-3.737-1.696-3.904-0.174-7.072-1.539l0.103,0.426c-14.673-1.57-29.331-2.319-44.157-2.562
		c-9.876,1.315-20.612,0.685-30.892,1.256c-11.064,0.724-23.039,1.839-32.54,3.124c-2.267,0.42-3.901-0.609-5.833-1.16
		c-4.367,0.392-9.331,0.545-14.434,0.716c-0.639,0.022-1.278,0.044-1.92,0.065c-0.641,0.018-1.284-0.018-1.928-0.021
		c-1.287-0.017-2.575-0.033-3.858-0.05c-2.565-0.017-5.11,0.005-7.576,0.1c0.186,0.011,0.365,0.04,0.483,0.059
		c-5.24,0.044-9.154-1.395-14.271-1.343c0.022,0.365-0.771,0.362-1.157,0.539c-0.869-1.72-30.149,2.549-31.947,1.518
		c-0.533,0.063-1.085,0.117-1.647,0.145c-10.794-1.109-21.911-4.77-31.179-4.772c-2.024,0.731-4.302,1.357-6.012,2.202
		c-1.626-0.78-1.966,0.618-3.938,0.358c-4.954-3.558-7.915-2.231-5.349-0.948c-4.135,0.326-8.27-0.109-11.938-0.11
		c-1.706,0.192-3.4,0.398-5.121,0.636c-1.462,0.237-2.265-0.293-2.98-1.121c-3.738,0.36-2.621-0.441-6.521-0.912
		c-0.917-1.217-9.84,1.57-10.938,1.174l0.643-0.154c-4.513-0.354-7.46-2.747-11.871-2.992c-12.243-1.268-25.664-0.821-37.017-1.598
		c-0.149,1.239,2.515-0.193,2.599,1.456c-6.697-0.433-13.408-2.194-20.164-2.621c-1.209-0.374-2.681-1.048-3.224-1.461
		c-0.076-0.018-0.147-0.034-0.216-0.05l-0.1-0.021l-0.177-0.023c-0.231-0.027-0.438-0.048-0.624-0.061
		c-0.371-0.024-0.655-0.021-0.876,0c-0.605,0.104-0.835,0.285-1.176,0.444c-0.086,0.04-0.178,0.078-0.284,0.115
		c-0.054,0.017-0.11,0.034-0.172,0.053c-0.033,0.012-0.069,0.024-0.107,0.038c-0.154,0.047-0.357,0.074-0.644,0.068l-0.304-1.103
		c-2.236,1.103-3.477-0.969-5.614-0.33c-0.079,0.46-0.868,0.583-1.643,0.61c-0.054-0.469-0.438-0.521-0.88-0.484
		c-0.067,0.069-0.132,0.121-0.182,0.133c-0.894,0.213-1.79,0.35-2.691,0.459c-0.116,0.211-0.337,0.529-0.44,0.584
		c-1.763,0.941-3.663,1.52-5.465,2.365c-0.51,0.239-1.064,0.477-1.629,0.723c-0.103,0.123-0.207,0.225-0.274,0.244
		c-0.21,0.059-0.421,0.109-0.632,0.162c-0.123,0.057-0.244,0.115-0.365,0.174c-0.117,0.176-0.239,0.347-0.381,0.494
		c0.07-0.053,0.156-0.1,0.172-0.018c0.017,0.088,0,0.188,0.001,0.281c0.069-0.043,0.119-0.061,0.124-0.031
		c0.098,0.572-0.022,1.373-0.473,1.82c0.185,0.066,0.375,0.129,0.555,0.197c-0.997,0.49-2.908,0.01-4.016,0.229
		c-1.135-0.551-3.188-0.946-5.087-1.273c-0.079,0.082-0.155,0.143-0.211,0.152c-0.549,0.094-1.098,0.167-1.646,0.238
		c-0.261,0.332-0.599,0.626-1.214,0.351c-0.059-0.087-0.118-0.144-0.178-0.196c-1.656,0.164-3.315,0.26-4.989,0.328
		c-0.374,0.016-0.747,0.032-1.12,0.051c-0.24,0.093-0.512,0.174-0.791,0.23c0.086-0.07,0.162-0.133,0.239-0.195
		c-0.847,0.053-1.687,0.139-2.511,0.304c0.09,0.115,0.189,0.183,0.186,0.3c-0.246,0.189-0.601,0.337-0.956,0.473
		c-0.118,0.029-0.235,0.063-0.35,0.098l-0.223-0.066c-0.244,0.12-0.521,0.195-0.77,0.268c-0.189-0.01-0.363-0.067-0.515-0.212
		c0.02-0.021,0.051-0.027,0.075-0.042c-0.093-0.036,0.05-0.262,0.214-0.462c-0.506,0.315-0.771,0.518-0.57,0.511
		c0.275,0.082,0.301,0.244,0.257,0.426c-0.104,0.08-0.152,0.182-0.112,0.325c-0.102,0.253-0.17,0.485,0.212,0.554l0.322-0.313
		c3.726-0.019-2.755,6.445,1.55,6.44c-1.961-1.193,0.513-1.426,2.441-1.739c0.226,0.44,1.144,1.041,2.57,1.278
		c1.2-0.203,0.673-0.55,0.875-0.909c0.695,0.249,1.998,0.397,1.887,1.119c0.875-0.919,1.551,0.415,2.658,0.034
		c0.965-0.47-0.097-0.359,0.578-0.823c1.503-0.031,3.609-0.081,4.813-0.015c0.514,0.625,2.012,1.688,1.072,2.797
		c-0.057,0.001-0.096-0.004-0.146-0.005c-0.045,0.055-0.091,0.11-0.137,0.147c-0.022,0.074-0.079,0.168-0.146,0.26
		c1.166-0.291,3.161-0.673,4.353-0.011c-0.243,0.555,0.319,0.911-0.495,1.108l1.555-0.024c0.183-0.185,0.371-0.372-0.086-0.458
		c0.697-0.47,1.445-0.3,2.032-0.031c0.214,0.549,8.035-3.028,7.813-2.655c0.528-0.051,0.881,0.106,1.218,0.217
		c-2.747,0.642-8.899,2.558-7.764,2.323c1.001,0.541,12.399-3.831,13.179-2.82c0.822-0.107,1.809-0.307,1.569-0.863
		c1.417,0.165-0.331,1.123,0.706,1.578c0.016-0.092-0.104-0.279,0.215-0.284l1.012,0.645c0.482-0.244,1.026-0.385,1.605-0.473
		c0.289-0.044,0.587-0.075,0.891-0.1c0.27-0.017,0.542-0.034,0.816-0.051c0.607,0.039,1.35,0.081,2.068,0.042
		c0.711-0.041,1.396-0.166,2.021-0.463c-0.679,0.599-1.465,1.66-2.947,2.175l-0.246-0.31c-0.178,0.109-0.579,0.226-0.85,0.447
		c-0.156,0.137-0.249,0.297-0.231,0.493c0.084,0.021,0.167,0.043,0.244,0.063c0.234,0.079,0.441,0.13,0.673,0.153
		c0.302,0.029,0.601,0.032,0.903,0.011c0.605-0.043,1.226-0.185,1.906-0.421c0.265,0.161,0.575,0.327,0.781,0.492
		c-0.003-0.076-0.023-0.139-0.016-0.225c0.468,0.371,0.415,0.427,0.233,0.645c-0.023,0.041-0.054,0.086-0.105,0.127
		c0.82,1.702,5.497-0.885,8.01,0.064c0.756-0.212,0.079-0.281,1.021-0.572c2.576,0.748,4.352,1.318,7.055,1.793
		c0.89-0.693,0.965-0.979-0.06-1.767l2.043,0.302c-1.922,1.861,3.776,1.957,1.664,3.81c0.587,0.459,1.813,0.589,2.972,0.315
		c0.129-0.48,0.332-1.251,1.776-1.202c1.993,0.706,1.521,0.458,3.168,1.129c0.377,0.642-0.241,0.87-0.186,1.375
		c2.593-0.723,2.205,1.44,4.632,1.398c1.524-0.136,4.524-0.114,4.628-1.214c2.044,0.116,2.022,0.924,1.795,1.813l1.66,0.18
		c-5.383-0.092-11.028-0.665-16.59-1.294c12.015,4.144,26.275,7.924,35.845,0.248c0.913,4.276,12.645,6.63,12.907,5.593
		c2.462-0.698,4.951-1.255,7.466-1.697c15.891-2.778,33.035-0.784,50.794,1.433c9.85,1.136,36.636,2.929,46.737,4.484
		c1.465,0.202,2.922,0.393,4.401,0.562c-2.45-0.461-2.45-0.461-4.9-0.92c6.177-0.936,11.772-1.857,17.187-2.41
		c-0.948-0.641-1.111-1.234-3.365-2.146l2.756,0.493c2.525-1.681,8.32-1.415,11.049-2.071c-0.591,0.906,1.555,1.158,3.448,1.359
		l-0.747-0.636c1.797,0.13,3.664,0.295,5.56,0.23c1.896-0.06,3.814-0.159,5.71-0.267c3.791-0.215,7.485-0.461,10.699-0.48
		c0.897-0.023,1.568,0.307,1.975,0.615l6.164-0.859c-0.474,1.249,5.114,0.967,2.174,1.812c4.611-1.571,9.295-0.786,13.688-2.403
		c15.719-0.557,32.438-1.893,48.647-4.344l-0.403-0.449c5.675-0.954,10.643-3.509,17.563-2.865
		c4.902-1.765,11.896-2.801,13.805-5.423c5.679-0.487,7.918-1.837,13.476-2.636C396.572,251.585,403.416,251.155,400.65,250.232z
		 M2.577,250.69c-0.484,0.014-0.379-0.294,0.006-0.739C2.712,250.229,2.721,250.507,2.577,250.69z"/>
	<path d="M401.126,128.485c-3.637-1.919-3.895-0.408-6.983-1.963l0.077,0.432c-14.586-2.453-29.222-4.086-44.056-5.224
		c-9.953,0.718-20.673-0.561-30.992-0.611c-11.112,0.055-23.147,0.445-32.706,1.156c-2.285,0.282-3.884-0.844-5.799-1.512
		c-8.774,0.255-19.899-0.589-29.799-0.252c0.186,0.012,0.365,0.041,0.482,0.061c-5.254,0.021-9.136-1.433-14.267-1.402
		c0.013,0.363-0.782,0.358-1.175,0.533c-0.828-1.723-30.289,2.418-32.061,1.38c-0.534,0.061-1.089,0.112-1.653,0.137
		c-10.786-1.154-21.849-4.86-31.14-4.904c-2.045,0.723-4.339,1.339-6.068,2.175c-1.615-0.786-1.981,0.61-3.953,0.342
		c-1.263-0.922-2.399-1.52-3.346-1.876c-0.473-0.178-0.898-0.296-1.269-0.364c-0.132-0.031-0.485-0.063-0.737-0.077
		c-0.264-0.015-0.503-0.017-0.713-0.007c-1.496,0.188-1.588,0.741,0.013,1.19c0.109,0.049,0.255,0.1,0.412,0.15l-0.411,0.015
		l-1.203,0.142l-0.754,0.1l-1.506,0.161c-1.002,0.092-1.999,0.157-2.982,0.213c-1.966,0.109-3.877,0.178-5.67,0.34
		c-1.687,0.348-3.361,0.706-5.059,1.099c-1.44,0.369-2.282-0.087-3.063-0.848c-3.7,0.698-2.649-0.202-6.578-0.317
		c-1.014-1.13-9.692,2.457-10.817,2.161l0.628-0.213c-4.531,0.057-7.668-2.061-12.091-1.905c-12.324-0.152-25.68,1.508-37.074,1.764
		c-0.041,1.248,2.491-0.421,2.72,1.215c-6.719,0.176-13.571-0.971-20.352-0.783c-1.239-0.263-2.769-0.8-3.349-1.162
		c-2.189-0.337-1.242,0.667-2.835,0.6l-0.278-1.109c-2.261,1.054-3.455-1.045-5.607-0.454c-0.09,0.458-0.882,0.564-1.656,0.574
		c-0.109-1.187-2.38,0.222-2.331-0.871l-0.018,0.092c-0.468,0.007-0.795,0.104-1.378-0.067c-0.861,0.47-8.979,4.213-9.85,4.77
		l-0.431-0.171c-1.241,0.108-1.721,1.021-0.983,1.193l-0.24,0.004c0.17,0.127,0.334,0.265,0.488,0.419
		c0.084,0.084-0.105,0.392-0.304,0.597c0.796,0.271,1.582,0.554,2.327,0.857c-1.009,0.469-2.91-0.054-4.021,0.14
		c-1.111-0.569-3.132-1.008-5.01-1.375c-0.073,0.072-0.146,0.129-0.208,0.129c-0.37-0.007-0.742-0.025-1.116-0.049
		c-0.121-0.007-0.242-0.023-0.363-0.031c-0.307,0.396-0.656,0.99-1.45,0.613c-0.573-0.887-1.201,0.104-2.126-0.508
		c0.316-0.175,0.635-0.271,0.955-0.331c-2.138-0.206-4.286-0.371-6.357-0.004c0.605,0.111,1.168,0.218,1.105,0.572
		c0.091-0.074,0.161-0.136,0.213-0.185l0.533,0.204c-0.301,0.203-0.844,0.404-1.411,0.508c0.126-0.099,0.243-0.189,0.351-0.274
		c-0.49-0.375-1.938-0.135-2.754-0.041c0.018,0.436,0.32,0.475,0.31,0.678c-0.251,0.183-0.607,0.322-0.965,0.449
		c-0.12,0.027-0.238,0.059-0.354,0.091l-0.222-0.07c-0.246,0.114-0.524,0.183-0.773,0.25c-0.127-0.009-0.241-0.052-0.351-0.115
		c-0.077,0.013-0.154,0.024-0.231,0.033c0.062,0.083,0.065,0.183,0.037,0.291c-0.107,0.077-0.157,0.179-0.12,0.323
		c-0.107,0.25-0.18,0.48,0.199,0.558l0.33-0.307c3.727,0.065-2.898,6.383,1.406,6.474c-1.934-1.237,0.545-1.415,2.48-1.686
		c0.216,0.446,1.121,1.066,2.541,1.335c1.206-0.176,0.686-0.534,0.896-0.889c0.689,0.264,1.989,0.441,1.862,1.16
		c0.896-0.898,1.541,0.45,2.657,0.093c0.976-0.447-0.089-0.361,0.596-0.81c1.504,0.002,3.611-0.001,4.813,0.093
		c0.5,0.636,1.975,1.73,1.011,2.818c-2.28-0.008,0.769-1.728-1.583-1.367c1.106,1.458-2.068,0.538-2.432,1.711
		c0.794,0.64,2.321,0.559,3.587,0.294l-0.268-0.187c1.112-0.265,3.347-0.712,4.611,0.027c-0.256,0.55,0.299,0.919-0.52,1.098
		l1.555,0.011c0.188-0.181,0.379-0.364-0.074-0.461c0.707-0.454,1.451-0.268,2.031,0.015c0.202,0.553,8.104-2.85,7.874-2.481
		c0.528-0.039,0.877,0.126,1.211,0.243c-2.763,0.581-8.955,2.36-7.814,2.151c0.989,0.563,12.486-3.556,13.243-2.527
		c0.824-0.09,1.815-0.268,1.588-0.828c1.414,0.196-0.355,1.115,0.671,1.593c0.018-0.092-0.098-0.281,0.222-0.279l0.998,0.666
		c2.118-1.014,5.369-0.046,7.572-1.35c-0.622,0.657-1.31,1.786-2.738,2.432l-0.273-0.285c-0.198,0.188-1.391,0.456-1.323,1.024
		c1.411,0.299,2.595,0.126,4.024-0.521c0.278,0.137,0.603,0.273,0.822,0.419c-0.01-0.074-0.036-0.136-0.035-0.222
		c0.499,0.327,0.451,0.388,0.29,0.621c-0.021,0.043-0.046,0.091-0.094,0.136c0.97,1.621,5.394-1.379,7.979-0.66
		c0.734-0.28,0.055-0.288,0.967-0.662c2.631,0.512,4.449,0.918,7.182,1.146c0.824-0.771,0.875-1.063-0.215-1.754l2.061,0.115
		c-1.749,2.028,3.932,1.608,1.99,3.645c0.625,0.404,1.855,0.422,2.984,0.045c0.088-0.49,0.223-1.275,1.665-1.357
		c2.045,0.522,1.554,0.317,3.251,0.837c0.43,0.604-0.165,0.889-0.066,1.387c2.518-0.954,2.318,1.235,4.729,0.975
		c1.505-0.273,4.492-0.523,4.501-1.628c2.045-0.069,2.092,0.736,1.941,1.644l1.666,0.027c-5.363,0.396-11.029,0.336-16.617,0.213
		c12.318,3.04,26.801,5.518,35.691-2.996c1.262,4.179,13.119,5.463,13.297,4.405c2.393-0.918,4.824-1.697,7.291-2.365
		c3.679-0.993,7.448-1.727,11.297-2.262c1.924-0.267,3.868-0.484,5.83-0.659c0.981-0.077,1.967-0.153,2.956-0.231l1.487-0.093
		l0.988-0.05c0.947,0.056,1.897,0.112,2.852,0.169c1.123,0.083,2.25,0.166,3.381,0.249c2.261,0.186,4.537,0.405,6.826,0.65
		c4.578,0.489,9.21,1.078,13.883,1.684c9.818,1.178,36.538,3.083,46.587,4.681c1.458,0.209,2.908,0.404,4.382,0.579
		c-2.436-0.47-2.436-0.47-4.87-0.94c6.197-0.907,11.816-1.805,17.244-2.335c-0.929-0.644-1.073-1.238-3.3-2.159l2.74,0.505
		c2.575-1.669,8.362-1.379,11.111-2.022c-0.619,0.902,1.52,1.164,3.405,1.372l-0.727-0.638c7.167,0.646,15.528,0.201,21.941,0.55
		c0.896,0.031,1.553,0.401,1.946,0.734l6.18-0.488c-0.519,1.219,5.063,1.274,2.099,1.94c4.658-1.292,9.298-0.227,13.744-1.577
		c15.699,0.391,32.428,0.062,48.725-1.41l-0.38-0.473c5.709-0.611,10.803-2.863,17.678-1.803c4.989-1.467,12.033-2.08,14.089-4.582
		c5.701-0.146,8.018-1.357,13.62-1.819C396.968,129.59,403.834,129.573,401.126,128.485z M2.742,128.98
		c-0.484,0.003-0.372-0.302,0.022-0.738C2.888,128.521,2.89,128.801,2.742,128.98z"/>
</g>
<g id="line">
</g>
<g id="home">
</g>
</svg>
