<?xml version="1.0" encoding="UTF-8"?>
<svg version="1.1" xmlns="http://www.w3.org/2000/svg" width="1009" height="1181">
<path d="M0 0 C0.82886719 0.69609375 1.65773438 1.3921875 2.51171875 2.109375 C15.98108233 13.74294477 27.2471503 28.98849769 30 47 C30.56208763 57.47428681 30.83556695 68.50281274 25.92871094 78.09399414 C24.62665449 82.16822597 24.9883333 85.78250011 25.2890625 90.01171875 C25.34268951 90.89679611 25.39631653 91.78187347 25.4515686 92.69377136 C25.62237523 95.46344034 25.80937618 98.23163068 26 101 C26.10813385 102.62709025 26.21589441 104.25420536 26.32324219 105.88134766 C26.48882162 108.37390773 26.65495031 110.86642632 26.82247925 113.3588562 C32.6478541 200.68613486 33.3686153 288.50207079 33 376 C34.93069336 375.60276733 34.93069336 375.60276733 36.90039062 375.19750977 C46.73593342 373.19048786 56.54800835 371.28286735 66.5 369.9375 C67.69431641 369.77467529 68.88863281 369.61185059 70.11914062 369.4440918 C86.0231146 367.36660978 102.00596979 366.14185636 118 365 C119.48209961 364.88978516 119.48209961 364.88978516 120.99414062 364.77734375 C204.30981354 358.78524486 295.06210413 368.88067249 372 402 C372.8142041 402.3491748 373.6284082 402.69834961 374.46728516 403.05810547 C390.38007512 409.97333487 404.5420328 419.09569139 418 430 C418.72445312 430.55816406 419.44890625 431.11632812 420.1953125 431.69140625 C434.64103127 443.35910218 444.61147222 460.65951882 447 479 C448.01463822 488.68979504 446.41257362 500.17485275 442 509 C441.57408698 517.6541846 442.18458235 526.31071945 442.83984375 534.9375 C443.01759012 537.40624914 443.19532408 539.87499917 443.37304688 542.34375 C443.6523391 546.14464781 443.9334474 549.94540549 444.21557617 553.74609375 C445.48409216 570.93927753 446.38766174 588.09878986 446.8888855 605.33129883 C447.03933969 610.29889052 447.21917839 615.26526252 447.39836121 620.23188782 C448.37528756 647.47674572 449.2111528 674.72849851 449.35348511 701.99206543 C449.36766093 704.42692862 449.38843463 706.86176368 449.41629028 709.29650879 C449.69582782 735.72258393 443.4841125 753.03911715 424.9375 772.4375 C413.46788165 783.62352889 400.17193061 791.68515174 386 799 C385.33871094 799.34627441 384.67742188 799.69254883 383.99609375 800.04931641 C332.48826045 826.72673209 270.28991406 835.62363459 213 840 C211.76813965 840.09643799 210.5362793 840.19287598 209.26708984 840.29223633 C194.94738555 841.30076821 180.58464006 841.18731641 166.23730469 841.18530273 C163.26718988 841.18522205 160.29723123 841.19208604 157.32714844 841.20581055 C137.12361658 841.29757304 117.14515492 840.70736577 97 839 C96.10601501 838.92429779 95.21203003 838.84859558 94.29095459 838.77059937 C89.28960842 838.33387072 84.30017476 837.82109584 79.3125 837.25 C78.58150085 837.16763092 77.85050171 837.08526184 77.09735107 837.00039673 C51.78385089 834.11799292 26.86307468 829.53006476 2.11328125 823.515625 C1.04553467 823.26192139 -0.02221191 823.00821777 -1.12231445 822.74682617 C-4 822 -4 822 -6.32104492 821.15356445 C-9.09806957 820.17203278 -11.18682091 819.62497173 -13.92797852 820.88916016 C-16.05957874 822.37102691 -17.98479322 823.9769966 -19.9375 825.6875 C-21.43340512 826.91127262 -22.93351816 828.12991715 -24.4375 829.34375 C-25.57445312 830.26994141 -25.57445312 830.26994141 -26.734375 831.21484375 C-69.4082192 864.83888996 -128.98769429 884.96538435 -183.0703125 885.203125 C-184.1090451 885.20882507 -185.14777771 885.21452515 -186.21798706 885.22039795 C-188.41142783 885.22979504 -190.60488237 885.23636072 -192.79833984 885.24023438 C-196.06765263 885.24983165 -199.33630586 885.28086135 -202.60546875 885.3125 C-266.49543214 885.6342324 -329.56900882 862.3032919 -379 822 C-379.77174561 821.3805249 -379.77174561 821.3805249 -380.55908203 820.74853516 C-388.77298381 814.12280468 -396.32866264 806.87213611 -403.8125 799.4375 C-405.11960937 798.14428833 -405.11960937 798.14428833 -406.453125 796.82495117 C-412.38948352 790.85979183 -417.78187846 784.59910135 -423 778 C-423.48815186 777.39148193 -423.97630371 776.78296387 -424.47924805 776.15600586 C-455.98522488 736.7190639 -475.46341693 689.78861332 -483 640 C-483.11714355 639.25443848 -483.23428711 638.50887695 -483.35498047 637.74072266 C-485.51411923 623.55713801 -485.20714416 609.3120681 -485 595 C-486.20269531 594.64808594 -486.20269531 594.64808594 -487.4296875 594.2890625 C-491.88175605 592.68164169 -495.9490791 590.59065046 -500.125 588.375 C-500.96740234 587.92842041 -501.80980469 587.48184082 -502.67773438 587.02172852 C-513.7074193 581.09591408 -523.43598989 574.08911507 -533 566 C-533.63550781 565.49984375 -534.27101563 564.9996875 -534.92578125 564.484375 C-546.99757743 554.82693806 -556.61687333 540.12547819 -560 525 C-560.37947944 521.12437579 -560.37486923 517.28993309 -560.328125 513.3984375 C-560.32661438 512.29958725 -560.32510376 511.200737 -560.32354736 510.06858826 C-560.3142197 506.50380901 -560.28268638 502.93963514 -560.25 499.375 C-560.23806601 496.90063879 -560.22700589 494.42627322 -560.21679688 491.9519043 C-560.13081765 475.69446669 -559.8702599 459.44063152 -559.35644531 443.19091797 C-559.10539397 435.21420319 -558.93867305 427.24266039 -558.90625 419.26171875 C-558.8997644 418.42679398 -558.89327881 417.5918692 -558.88659668 416.73164368 C-558.88325578 412.35826122 -559.20028029 408.31413421 -560 404 C-560.08601021 402.4587944 -560.13052882 400.91469579 -560.1328125 399.37109375 C-560.13474609 398.44570801 -560.13667969 397.52032227 -560.13867188 396.56689453 C-560.13416016 395.53419434 -560.12964844 394.50149414 -560.125 393.4375 C-560.12306641 392.3119873 -560.12113281 391.18647461 -560.11914062 390.02685547 C-560.0586912 376.89086044 -559.76278891 363.75816149 -559.5 350.625 C-559.05199454 328.56418066 -559.05199454 328.56418066 -558.875 306.5 C-558.87048828 305.36385254 -558.86597656 304.22770508 -558.86132812 303.05712891 C-558.86326172 302.03796387 -558.86519531 301.01879883 -558.8671875 299.96875 C-558.86831543 299.11732422 -558.86944336 298.26589844 -558.87060547 297.38867188 C-558.93869232 294.99010383 -558.93869232 294.99010383 -559.5 292.64990234 C-560.13685812 289.2746787 -560.12985125 286.06828325 -560.1328125 282.6328125 C-560.13413177 281.90207016 -560.13545105 281.17132782 -560.1368103 280.41844177 C-560.13874598 277.98725324 -560.13231279 275.55617723 -560.125 273.125 C-560.12411377 272.28186249 -560.12322754 271.43872498 -560.12231445 270.57003784 C-560.10204452 253.88028178 -559.74575071 237.20120128 -559.36035156 220.51660156 C-559.12185348 210.13582234 -558.89484363 199.75900438 -558.875 189.375 C-558.87048828 188.45275635 -558.86597656 187.5305127 -558.86132812 186.58032227 C-558.86326172 185.75717529 -558.86519531 184.93402832 -558.8671875 184.0859375 C-558.86831543 183.4057959 -558.86944336 182.7256543 -558.87060547 182.02490234 C-558.94978531 179.95304325 -558.94978531 179.95304325 -559.49780273 177.78955078 C-560.18784762 173.95656448 -560.16222477 170.16254608 -560.16796875 166.28125 C-560.17224884 165.38747147 -560.17652893 164.49369293 -560.18093872 163.5728302 C-560.19114711 160.54850556 -560.19092832 157.52433916 -560.1875 154.5 C-560.18656342 153.44775238 -560.18562683 152.39550476 -560.18466187 151.31137085 C-560.14586444 130.70038407 -559.8514431 110.09055258 -559.41714478 89.484375 C-559.34543643 86.05396967 -559.28435209 82.62363287 -559.23251343 79.19287109 C-559.1695777 75.08579249 -559.08271005 70.97984511 -558.97893906 66.87360191 C-558.94423233 65.35703236 -558.9172352 63.84026123 -558.89899063 62.32340431 C-558.63721681 41.83822017 -551.23911234 26.70142118 -537 12 C-536.22740845 11.18474854 -536.22740845 11.18474854 -535.43920898 10.35302734 C-531.30137675 6.07517785 -526.94931481 2.51225687 -522.0625 -0.875 C-521.32016113 -1.3918335 -520.57782227 -1.90866699 -519.81298828 -2.44116211 C-512.46851136 -7.47851022 -504.9155272 -11.92545552 -497 -16 C-496.17322754 -16.42635742 -495.34645508 -16.85271484 -494.49462891 -17.29199219 C-415.01500868 -57.78243506 -320.57077929 -67.30072179 0 0 Z M-343 -49 C-344.40704422 -48.86958027 -345.81410888 -48.73938087 -347.22119141 -48.609375 C-411.79464282 -42.55234973 -487.50528996 -30.76862714 -536 16 C-536.69867187 16.66128906 -537.39734375 17.32257813 -538.1171875 18.00390625 C-547.3031352 27.42218337 -554.18737924 41.46645013 -554.375 54.75 C-554.0477112 71.01216204 -544.81987537 84.48578184 -533.60449219 95.48046875 C-483.01193799 143.39405021 -396.25828042 150.24451136 -330 154 C-329.05334473 154.05784668 -328.10668945 154.11569336 -327.13134766 154.17529297 C-245.97193903 158.99990414 -159.65550341 153.55075599 -82 128 C-81.05205566 127.69126953 -80.10411133 127.38253906 -79.12744141 127.06445312 C-58.26819174 120.17088101 -37.65551997 111.21978909 -20 98 C-18.9996875 97.25105469 -17.999375 96.50210938 -16.96875 95.73046875 C-4.28760105 85.78412802 5.4047265 74.17782183 8.8125 58.1875 C9.81440585 47.01407176 5.41851436 36.53721465 -1.453125 27.92578125 C-4.17183121 24.81819241 -7.06600662 21.90272703 -10 19 C-10.82113281 18.15695312 -11.64226563 17.31390625 -12.48828125 16.4453125 C-61.43856701 -31.21079775 -149.44749303 -42.95953532 -214.9375 -48.75 C-215.60645294 -48.80925659 -216.27540588 -48.86851318 -216.96463013 -48.92956543 C-221.64011866 -49.33561929 -226.31758271 -49.68647738 -231 -50 C-231.71726257 -50.0483902 -232.43452515 -50.0967804 -233.17352295 -50.14663696 C-248.85589722 -51.16242082 -264.53990663 -51.20068207 -280.25 -51.1875 C-281.24412399 -51.18709969 -281.24412399 -51.18709969 -282.2583313 -51.18669128 C-302.58236472 -51.17643111 -322.75692432 -50.9529301 -343 -49 Z M-553 78 C-553.13260807 95.94493172 -552.96378985 113.87180972 -552.5625 131.8125 C-552.54285187 132.73309204 -552.52320374 133.65368408 -552.50296021 134.60217285 C-552.29826761 144.04644736 -552.03318926 153.48653441 -551.56640625 162.921875 C-551.53454727 163.64490311 -551.50268829 164.36793121 -551.46986389 165.11286926 C-550.52089354 182.58577128 -540.22164256 195.02385925 -527.85400391 206.36914062 C-481.68286954 246.98320141 -408.45855526 258.26013247 -349.375 264.3125 C-348.57977936 264.39399292 -347.78455872 264.47548584 -346.96524048 264.55944824 C-341.64778673 265.09519721 -336.32738058 265.57425231 -331 266 C-329.98486328 266.0816188 -329.98486328 266.0816188 -328.94921875 266.16488647 C-314.77998037 267.24890358 -300.57585659 267.18742445 -286.37353516 267.18530273 C-283.64592768 267.18522212 -280.91849052 267.19207605 -278.19091797 267.20581055 C-253.1317321 267.32979197 -228.21153885 266.29720444 -203.3125 263.25 C-202.28453812 263.12594788 -202.28453812 263.12594788 -201.23580933 262.99938965 C-153.82699266 257.23627278 -105.16056332 247.61492932 -61 229 C-60.17435547 228.65646484 -59.34871094 228.31292969 -58.49804688 227.95898438 C-41.53667592 220.83859304 -24.59121108 212.60974215 -11 200 C-10.04480469 199.12472656 -9.08960938 198.24945313 -8.10546875 197.34765625 C5.52960667 184.50357839 9.73682714 171.57265465 10.75390625 153.27734375 C10.81907944 152.14027481 10.88425262 151.00320587 10.95140076 149.8316803 C11.08829234 147.42702313 11.22351303 145.02227034 11.35717773 142.61743164 C11.56043789 138.97445859 11.77105809 135.3319639 11.98242188 131.68945312 C12.11503082 129.34377525 12.24720587 126.99807281 12.37890625 124.65234375 C12.44139053 123.57895248 12.50387482 122.50556122 12.56825256 121.39964294 C12.97633758 113.92680975 13.0681129 106.4832331 13 99 C12.28457031 99.71929687 11.56914063 100.43859375 10.83203125 101.1796875 C-3.17450832 115.12826897 -18.46736241 125.89745428 -36 135 C-36.82290527 135.42780762 -37.64581055 135.85561523 -38.49365234 136.29638672 C-98.46429516 167.06277784 -171.58654052 180.00363521 -238.73046875 180.203125 C-240.20286084 180.21018827 -241.6752526 180.21732096 -243.14764404 180.22451782 C-247.82760114 180.2440464 -252.50750598 180.24920985 -257.1875 180.25 C-258.38376951 180.25044186 -258.38376951 180.25044186 -259.60420609 180.25089264 C-283.19157184 180.2523007 -306.57879735 180.10293811 -330 177 C-331.15946136 176.85081116 -331.15946136 176.85081116 -332.34234619 176.6986084 C-400.8122259 167.88493059 -495.45815275 150.50538489 -541.66015625 93.82421875 C-545.52943284 88.77213891 -549.05140039 83.64079925 -552 78 C-552.33 78 -552.66 78 -553 78 Z M-553 194 C-553.11559117 214.52899258 -553.05529637 235.0534603 -552.68161011 255.57983398 C-552.64412674 257.67890234 -552.60968072 259.77802732 -552.57839966 261.87719727 C-552.22325042 285.06333614 -549.47265242 301.20707552 -532.875 318.5625 C-497.16673398 353.04620271 -441.79191728 366.3726083 -394.25 375.0625 C-393.07163574 375.2788208 -391.89327148 375.4951416 -390.67919922 375.71801758 C-389.59396973 375.90517334 -388.50874023 376.0923291 -387.390625 376.28515625 C-385.9679834 376.53084351 -385.9679834 376.53084351 -384.51660156 376.78149414 C-380.17065843 377.15883398 -377.72656017 376.04179989 -374.3046875 373.4453125 C-373.24628662 372.65568115 -373.24628662 372.65568115 -372.16650391 371.85009766 C-371.41030762 371.28081543 -370.65411133 370.7115332 -369.875 370.125 C-317.68379537 331.78708113 -255.75967344 308.79767328 -190.8125 308.75 C-189.97918152 308.74932526 -189.14586304 308.74865051 -188.28729248 308.74795532 C-145.19004345 308.8030274 -102.20491015 318.45038802 -63.91992188 338.52514648 C-59.64261944 340.81167079 -59.64261944 340.81167079 -55 342 C-52.74533777 341.28043171 -52.74533777 341.28043171 -50.47265625 340.0078125 C-49.17038086 339.3281543 -49.17038086 339.3281543 -47.84179688 338.63476562 C-46.46604492 337.88743164 -46.46604492 337.88743164 -45.0625 337.125 C-44.11826172 336.61904297 -43.17402344 336.11308594 -42.20117188 335.59179688 C-23.62867794 325.48561434 -2.74229133 311.65092732 5 291 C7.53731135 280.21046129 7.43378709 269.08084663 7.625 258.0625 C7.66284006 256.23379513 7.70117272 254.4051004 7.73999023 252.57641602 C7.99471582 240.05083567 8.13065182 227.52805739 8 215 C7.55269531 215.38381836 7.10539063 215.76763672 6.64453125 216.16308594 C5.38581719 217.24265466 4.12667936 218.32172943 2.8671875 219.40039062 C1.38933219 220.66646123 -0.08687906 221.9344509 -1.5625 223.203125 C-53.13785662 266.51320011 -125.15871147 280.18199504 -190.5 285.6875 C-191.22306335 285.74852905 -191.94612671 285.80955811 -192.69110107 285.87243652 C-212.80433356 287.54064595 -232.88233234 288.20848801 -253.0625 288.1875 C-254.14816254 288.18689575 -255.23382507 288.1862915 -256.35238647 288.18566895 C-341.71809801 288.05774167 -439.29714436 277.92247153 -525 223 C-526.00675781 222.21496094 -527.01351562 221.42992187 -528.05078125 220.62109375 C-530.74839499 218.46373283 -533.38875077 216.26080334 -536 214 C-536.63292969 213.45214844 -537.26585937 212.90429688 -537.91796875 212.33984375 C-542.38511117 208.17937015 -545.70534807 203.32629541 -549.06884766 198.26660156 C-550.02490492 196.83020431 -551.00978904 195.41306929 -552 194 C-552.33 194 -552.66 194 -553 194 Z M-553 309 C-553.09799734 331.99620762 -553.1625809 354.99665203 -552.73654175 377.99008179 C-552.70418269 379.8111496 -552.6765146 381.6323076 -552.65383911 383.45352173 C-552.37937771 404.43292353 -547.88212476 419.69322318 -533 435 C-525.11727146 442.45663511 -516.33310049 448.52911296 -507 454 C-506.33210449 454.39155273 -505.66420898 454.78310547 -504.97607422 455.18652344 C-494.70269722 461.10128143 -484.01694915 465.79654773 -473 470.125 C-472.37550964 470.3711908 -471.75101929 470.61738159 -471.10760498 470.87103271 C-464.24778009 473.84489672 -464.24778009 473.84489672 -457 475 C-456.41734375 473.84886719 -455.8346875 472.69773437 -455.234375 471.51171875 C-445.79858171 453.09345667 -434.96995235 436.12903569 -422 420 C-421.53770996 419.42056641 -421.07541992 418.84113281 -420.59912109 418.24414062 C-414.47053564 410.60969975 -407.82216582 403.64217783 -400.77392578 396.84716797 C-400.15372559 396.24404785 -399.53352539 395.64092773 -398.89453125 395.01953125 C-398.33612549 394.48432861 -397.77771973 393.94912598 -397.20239258 393.39770508 C-395.78261552 392.05459208 -395.78261552 392.05459208 -396 390 C-397.13538208 389.75262085 -397.13538208 389.75262085 -398.29370117 389.50024414 C-444.61068098 379.30695885 -500.45027844 365.21814786 -534.765625 330.17578125 C-536.71902498 327.76744983 -536.71902498 327.76744983 -539 328 C-539.26039063 327.41863281 -539.52078125 326.83726562 -539.7890625 326.23828125 C-541.07763664 323.85649744 -542.5311492 322.16420468 -544.375 320.1875 C-547.54190385 316.66357568 -549.81529161 313.19464011 -552 309 C-552.33 309 -552.66 309 -553 309 Z M-333 351 C-334.15371094 351.61359375 -335.30742187 352.2271875 -336.49609375 352.859375 C-355.79998295 363.46446282 -374.34125918 377.49182399 -390 393 C-390 393.33 -390 393.66 -390 394 C-388.96939453 394.12955078 -388.96939453 394.12955078 -387.91796875 394.26171875 C-387.01691406 394.40222656 -386.11585938 394.54273438 -385.1875 394.6875 C-384.29417969 394.81511719 -383.40085937 394.94273437 -382.48046875 395.07421875 C-378.50355965 396.55851396 -377.75168484 399.3765364 -376.03881836 403.07592773 C-374.94868634 405.49496807 -373.90784136 407.93098712 -372.875 410.375 C-372.33552734 411.6125 -372.33552734 411.6125 -371.78515625 412.875 C-369.76763384 417.63544612 -368.45860299 421.84419059 -368 427 C-374.12506856 426.4716922 -379.04030436 424.49566087 -384.625 422 C-386.28191709 421.26644228 -387.9407232 420.53713371 -389.6015625 419.8125 C-390.32682129 419.48894531 -391.05208008 419.16539062 -391.79931641 418.83203125 C-394.41041429 417.77635906 -394.41041429 417.77635906 -399 417 C-399.99 411.06 -399.99 411.06 -401 405 C-415.33043907 419.04844474 -426.91776151 435.71332732 -437 453 C-437.56750977 453.9588208 -437.56750977 453.9588208 -438.14648438 454.93701172 C-460.58244207 493.0257531 -475.74644304 539.43336094 -474 584 C-473.01 583.67 -472.02 583.34 -471 583 C-463.66612896 582.28470092 -458.40328213 584.50667586 -451.75 587.4375 C-449.80822124 588.27169837 -447.86554684 589.10381581 -445.921875 589.93359375 C-445.07206055 590.30540771 -444.22224609 590.67722168 -443.34667969 591.06030273 C-441.2368367 591.90516183 -439.21629683 592.5143458 -437 593 C-437 594.65 -437 596.3 -437 598 C-438.17949219 598.36738281 -438.17949219 598.36738281 -439.3828125 598.7421875 C-442.2108431 599.72558475 -444.92569927 600.78173317 -447.6796875 601.9453125 C-448.52660156 602.29980469 -449.37351562 602.65429688 -450.24609375 603.01953125 C-451.99487629 603.7549034 -453.73973639 604.49967589 -455.48046875 605.25390625 C-461.92237047 607.92255446 -467.15579425 609.28140192 -474 607 C-475.14520144 643.16800635 -462.56872355 680.76978536 -447 713 C-446.43007324 714.18094238 -446.43007324 714.18094238 -445.84863281 715.38574219 C-436.75212059 733.97158808 -425.18106014 751.07510756 -412 767 C-411.52449707 767.5770166 -411.04899414 768.1540332 -410.55908203 768.74853516 C-407.7255653 772.18226893 -404.87206048 775.5983839 -402 779 C-400.45833358 777.62514468 -400.45833358 777.62514468 -399 776 C-399 775.34 -399 774.68 -399 774 C-398.44054687 773.85304688 -397.88109375 773.70609375 -397.3046875 773.5546875 C-390.71037358 771.70997589 -384.61405195 769.16211301 -378.39453125 766.3046875 C-374.89252679 764.95869269 -371.72076958 764.38767866 -368 764 C-369.37506321 771.50034476 -371.93402826 778.03691961 -375 785 C-375.36609375 785.88945313 -375.7321875 786.77890625 -376.109375 787.6953125 C-376.44453125 788.49710938 -376.7796875 789.29890625 -377.125 790.125 C-377.41632813 790.82882812 -377.70765625 791.53265625 -378.0078125 792.2578125 C-379 794 -379 794 -382 796 C-380.45120292 800.00646909 -377.66449336 802.33258411 -374.4375 805 C-373.86596191 805.47566406 -373.29442383 805.95132812 -372.70556641 806.44140625 C-329.40980311 841.90203676 -269.48379432 867.10981602 -213 866 C-212.7421875 865.01128906 -212.484375 864.02257813 -212.21875 863.00390625 C-211.01820195 858.80304491 -209.30586478 854.90813574 -207.5 850.9375 C-205.42301467 846.34466842 -203.50463384 841.82235144 -202 837 C-200.35 837 -198.7 837 -197 837 C-196.63068359 838.20462891 -196.63068359 838.20462891 -196.25390625 839.43359375 C-194.44085182 844.59034981 -192.1219126 849.49452578 -189.83398438 854.45507812 C-188.09778818 858.28369561 -186.55080775 861.78843917 -186 866 C-137.5837501 863.05628098 -88.45280523 847.79782693 -49 819 C-48.35272949 818.53239258 -47.70545898 818.06478516 -47.03857422 817.58300781 C-42.9569848 814.62256261 -38.93159675 811.59875863 -34.94873047 808.50683594 C-33.64473276 807.49853303 -32.33374837 806.49920441 -31.01611328 805.50878906 C-29.13671592 804.09206327 -27.28508507 802.64535611 -25.4375 801.1875 C-24.8707959 800.76799072 -24.3040918 800.34848145 -23.72021484 799.91625977 C-21.94658814 798.56100578 -21.94658814 798.56100578 -20 796 C-20.00582884 790.95222164 -21.71620919 786.61995088 -23.5 781.9375 C-25.14718214 777.60407025 -26.38377916 773.60064878 -27 769 C-23.60670483 767.30335241 -20.1480591 769.24571111 -16.6875 770.3125 C-15.92759766 770.53873047 -15.16769531 770.76496094 -14.38476562 770.99804688 C-11.23628333 771.9472418 -8.22019599 772.90299058 -5.20703125 774.23046875 C-2.58092331 775.14612055 -1.52936131 775.12760893 1 774 C40.54583156 739.29831262 63.01143981 671.90893666 66.3359375 621.15625 C66.59864721 616.77238765 66.81096439 612.38761595 67 608 C66.42967041 607.71801758 65.85934082 607.43603516 65.27172852 607.14550781 C62.69458304 605.8612737 60.12867167 604.55601446 57.5625 603.25 C56.66466797 602.8065625 55.76683594 602.363125 54.84179688 601.90625 C53.98779297 601.46796875 53.13378906 601.0296875 52.25390625 600.578125 C51.46314697 600.18012695 50.6723877 599.78212891 49.85766602 599.37207031 C48 598 48 598 47.23413086 595.83886719 C47.15686768 595.23204102 47.07960449 594.62521484 47 594 C48.45516808 593.09903423 49.91438071 592.20460132 51.375 591.3125 C52.18710937 590.81363281 52.99921875 590.31476563 53.8359375 589.80078125 C58.13571906 587.35362162 62.56039988 585.18057905 67 583 C62.99590525 524.7859964 43.6570228 468.76370328 6 423.5625 C5.33303101 422.75570801 5.33303101 422.75570801 4.65258789 421.93261719 C1.43202203 418.00707793 1.43202203 418.00707793 -3 416 C-5.90628388 416.64806519 -8.61263689 417.71372498 -11.375 418.8125 C-16.25293261 420.69677084 -20.76706142 422.36041862 -26 423 C-27.36297018 418.91108947 -25.99354935 416.05376635 -24.6875 412.125 C-24.46126953 411.41730469 -24.23503906 410.70960938 -24.00195312 409.98046875 C-23.03621838 406.99142231 -22.05087452 404.11402352 -20.76953125 401.2421875 C-19.83975014 398.5330791 -19.78074869 397.59027663 -21 395 C-59.50992383 352.65997525 -125.29802573 327.80715668 -181 323 C-182.99962062 322.96104635 -185.00086449 322.9412019 -187 323 C-186.90847656 323.94488281 -186.81695312 324.88976562 -186.72265625 325.86328125 C-186.72399182 331.16949226 -189.16871897 335.50189912 -191.4375 340.1875 C-192.27233513 341.95049792 -193.10447416 343.71477567 -193.93359375 345.48046875 C-194.30540771 346.25285889 -194.67722168 347.02524902 -195.06030273 347.82104492 C-195.94554974 349.8737416 -196.52910952 351.81914778 -197 354 C-198.65 354 -200.3 354 -202 354 C-202.38478516 353.03320312 -202.38478516 353.03320312 -202.77734375 352.046875 C-204.35773417 348.10852189 -205.95624752 344.17786689 -207.5625 340.25 C-208.03719727 339.08017578 -208.03719727 339.08017578 -208.52148438 337.88671875 C-209.8197338 334.17404399 -209.8197338 334.17404399 -212 331 C-212.07179964 329.48071962 -212.08392007 327.95832518 -212.0625 326.4375 C-212.05347656 325.61121094 -212.04445313 324.78492188 -212.03515625 323.93359375 C-212.01775391 322.97646484 -212.01775391 322.97646484 -212 322 C-252.85360426 320.44859731 -297.21257715 331.51304607 -333 351 Z M-0.0625 340.375 C-5.52533508 345.05550106 -11.31551649 348.9030917 -17.47875977 352.59912109 C-21.21601996 354.84418436 -24.65568834 357.17763293 -28 360 C-27.15179687 360.58265625 -26.30359375 361.1653125 -25.4296875 361.765625 C-18.12381127 366.85158227 -11.22322762 372.17170327 -4.62060547 378.15136719 C-1.80672246 380.65645986 0.24168358 382.43951611 4 383 C4.66 382.67 5.32 382.34 6 382 C6 366.82 6 351.64 6 336 C3.86102944 336 1.39118977 339.10326602 -0.0625 340.375 Z M75 380 C74.27737976 380.06552063 73.55475952 380.13104126 72.8102417 380.19854736 C51.03284749 382.18753421 29.5140421 385.07292978 8 389 C11.2939959 392.92092888 14.60815739 396.70610915 18.3125 400.25 C23.29564313 405.19161694 27.68072581 410.47437956 32 416 C32.67071533 416.84812256 32.67071533 416.84812256 33.35498047 417.71337891 C70.85220175 465.32828502 90.55396308 522.79629302 94 583 C107.37950969 583.97687732 120.71261971 584.20161087 134.125 584.1875 C135.19280701 584.18689575 136.26061401 584.1862915 137.36077881 584.18566895 C219.97118066 584.05989044 329.06069924 579.26324343 403 522 C403.74765625 521.41734375 404.4953125 520.8346875 405.265625 520.234375 C414.54608617 512.70770177 422.61231434 501.89421192 425 490 C426.09741865 475.60693238 421.83718548 465.62194024 412.96484375 454.43359375 C403.01075726 442.8897439 391.0663431 434.5830356 378 427 C377.34966797 426.6198877 376.69933594 426.23977539 376.02929688 425.84814453 C306.19630482 385.56660132 215.0643794 377.73895004 136.1875 377.8125 C134.98111877 377.81310425 133.77473755 377.8137085 132.53179932 377.81433105 C113.27371684 377.84041352 94.18654966 378.24333544 75 380 Z M-553 425 C-553.16098653 446.33690719 -552.82315202 467.64444031 -552.19955444 488.97219849 C-552.05993051 493.74945487 -551.94541723 498.52625757 -551.8515625 503.3046875 C-551.38979236 522.6012645 -546.26767799 537.30949345 -532 551 C-519.08908779 562.33976505 -502.04153774 575.16198378 -485 579 C-484.82259277 577.84250244 -484.82259277 577.84250244 -484.64160156 576.66162109 C-484.28983282 574.37032431 -483.93721958 572.0791571 -483.58398438 569.78808594 C-483.20874927 567.35407763 -482.83493126 564.9198502 -482.46289062 562.48535156 C-478.62863402 537.61805194 -473.08321129 514.4858451 -463.73095703 491.06518555 C-462.8887802 489.05089012 -462.8887802 489.05089012 -463 487 C-463.81452637 486.65855957 -464.62905273 486.31711914 -465.46826172 485.96533203 C-497.97855108 472.27606503 -533.22636001 456.68051748 -552 425 C-552.33 425 -552.66 425 -553 425 Z M429 528 C427.55843228 529.46509479 426.1202862 530.93370332 424.69897461 532.41845703 C365.20942794 594.19330686 257.01556292 607.49819014 175.625 609.625 C174.78295013 609.64712555 173.94090027 609.6692511 173.07333374 609.69204712 C146.62780018 610.35403197 120.36135106 609.16035407 94 607 C93.93530518 607.77263184 93.87061035 608.54526367 93.80395508 609.34130859 C90.98997265 642.0607987 84.97706866 673.31319095 73 704 C146.01684223 725.40438495 255.63078717 701.36748763 377 657 C387.36931758 651.25341376 397.21116325 645.00511882 406 637 C407.30710937 635.83210937 407.30710937 635.83210937 408.640625 634.640625 C419.60454263 624.33322939 424.93317417 613.32413802 425.78125 598.4921875 C425.83967575 597.58079514 425.8981015 596.66940277 425.95829773 595.73039246 C426.14598791 592.77899287 426.32306798 589.82706223 426.5 586.875 C426.62722509 584.84296822 426.75524029 582.81098575 426.8840332 580.77905273 C427.13986809 576.73649821 427.3924574 572.69376046 427.64306641 568.65087891 C427.95276498 563.69664056 428.28564117 558.74443449 428.63671875 553.79296875 C428.68462555 553.11615051 428.73253235 552.43933228 428.78189087 551.74200439 C428.99947498 548.67988871 429.21968978 545.61797152 429.44140625 542.55615234 C429.51617188 541.49734863 429.5909375 540.43854492 429.66796875 539.34765625 C429.73266357 538.45054932 429.7973584 537.55344238 429.86401367 536.62915039 C430.0129982 533.74869378 430.02244919 530.88379683 430 528 C429.67 528 429.34 528 429 528 Z M423 655 C421.94395014 656.09041835 420.9062811 657.19862713 419.875 658.3125 C368.98343702 709.56563714 280.46403764 719.12566048 212 724 C210.98602646 724.0725853 210.98602646 724.0725853 209.9515686 724.14663696 C194.58511337 725.20575714 179.20913015 725.19930934 163.8125 725.1875 C163.1493919 725.18738041 162.4862838 725.18726082 161.80308151 725.1871376 C132.57557547 725.180474 103.86955653 723.59061982 74.83544922 720.24365234 C71.87654532 719.98939144 68.96832179 719.95878094 66 720 C65.68361572 720.59312988 65.36723145 721.18625977 65.04125977 721.79736328 C52.11279694 745.96135945 37.77609277 768.23226643 19.25 788.52734375 C17.73437821 790.19294895 16.2345714 791.87306699 14.75 793.56640625 C9.83675819 799.15351282 4.67942214 804.1933023 -1 809 C23.51457978 822.37127001 66.60554502 821.46274396 94 823 C94.94101562 823.05639648 95.88203125 823.11279297 96.8515625 823.17089844 C177.91579722 827.88847959 264.10196196 820.45260707 401 756 C413.60253333 744.73516574 421.64930404 733.2248787 423 716 C423.16582522 712.83520465 423.25083154 709.67221801 423.31640625 706.50390625 C423.3475779 705.19437233 423.3475779 705.19437233 423.37937927 703.85838318 C423.42230363 702.02062068 423.4633829 700.18281422 423.50268555 698.3449707 C423.56168747 695.60029754 423.62702172 692.8558327 423.69335938 690.11132812 C423.9651775 678.40579041 424.05299458 666.70843713 424 655 C423.67 655 423.34 655 423 655 Z " fill="#000000" transform="translate(560,296)"/>
<path d="M0 0 C0.87282623 -0.00067474 1.74565247 -0.00134949 2.64492798 -0.00204468 C15.37773134 0.01360316 27.66497781 0.40746211 40.125 3.25 C40.92244629 3.42160645 41.71989258 3.59321289 42.54150391 3.77001953 C84.27458516 12.85725789 119.94592921 33.2095149 150.125 63.25 C150.66995117 63.79092285 151.21490234 64.3318457 151.77636719 64.88916016 C175.72586567 88.96612935 191.64992746 119.87061825 201.125 152.25 C201.31932617 152.91322266 201.51365234 153.57644531 201.71386719 154.25976562 C216.78069852 207.42753693 206.99513508 265.42584727 180.91796875 313.33203125 C177.04775665 320.25239323 172.77265553 326.8296038 168.125 333.25 C167.72458496 333.8059082 167.32416992 334.36181641 166.91162109 334.93457031 C160.59729248 343.61645427 153.54643875 351.50577305 146.125 359.25 C145.05958984 360.37728516 145.05958984 360.37728516 143.97265625 361.52734375 C129.52473819 376.44799533 111.54552562 388.78307635 93.125 398.25 C92.47805176 398.58837891 91.83110352 398.92675781 91.16455078 399.27539062 C74.01980208 408.15111799 55.04089462 414.45036054 36.125 418.25 C35.06901611 418.47212158 35.06901611 418.47212158 33.99169922 418.69873047 C21.66813566 421.18809567 9.40144592 421.53860566 -3.125 421.5625 C-3.87769165 421.56608521 -4.6303833 421.56967041 -5.40588379 421.57336426 C-19.75432976 421.61012106 -33.86641362 420.34729903 -47.9375 417.4375 C-48.77345703 417.26573242 -49.60941406 417.09396484 -50.47070312 416.91699219 C-85.98661909 409.35667344 -122.82965788 391.61373535 -148.08984375 365.06640625 C-149.90696062 363.2174799 -151.81637835 361.58986684 -153.8125 359.9375 C-158.84406871 355.60503379 -162.77627385 350.44556836 -166.875 345.25 C-167.5453125 344.445625 -168.215625 343.64125 -168.90625 342.8125 C-174.53620397 336.0208095 -179.3061832 328.77705752 -183.875 321.25 C-184.25301758 320.62851074 -184.63103516 320.00702148 -185.02050781 319.36669922 C-213.11378413 272.64453386 -220.19603042 216.09373006 -207.65966797 163.34375 C-199.52545301 131.27257016 -184.12555888 101.75833618 -161.875 77.25 C-160.92644208 76.18155854 -159.97853641 75.1125377 -159.03125 74.04296875 C-154.62933417 69.11369693 -150.15794884 64.39341543 -145.08203125 60.14453125 C-142.77052517 58.16031806 -140.56279297 56.09122631 -138.34863281 54 C-100.48844228 18.38782784 -51.72958008 0.03588742 0 0 Z M-51.875 21.25 C-52.61427734 21.38921875 -53.35355469 21.5284375 -54.11523438 21.671875 C-80.18841325 26.78704906 -105.21559755 37.28051741 -127.22460938 52.13720703 C-128.71438616 53.14170446 -130.22335749 54.11759068 -131.734375 55.08984375 C-170.38467076 81.21881588 -192.56732712 129.35340028 -201.36669922 173.60107422 C-209.44816073 216.33539412 -201.52204899 262.16573737 -180.875 300.25 C-180.38515625 301.21679688 -179.8953125 302.18359375 -179.390625 303.1796875 C-157.20702255 346.17599562 -115.58222432 378.04702115 -70.625 393.9375 C-41.27393964 403.24930479 -9.34728631 406.79041569 21.125 401.25 C22.341875 401.04375 23.55875 400.8375 24.8125 400.625 C71.61871798 392.04386004 117.35668237 365.58957502 144.86816406 326.09765625 C160.69560346 302.82996756 172.04008276 278.82353109 178.125 251.25 C178.29016113 250.51362305 178.45532227 249.77724609 178.62548828 249.01855469 C188.70385149 201.76385067 176.81965468 150.60161916 152.0625 109.85546875 C144.73842114 98.58879099 136.36942016 87.99571249 127.125 78.25 C126.66818848 77.76063965 126.21137695 77.2712793 125.74072266 76.76708984 C92.99217864 41.8664676 44.74990003 19.94355098 -3.11083984 18.12719727 C-19.58789476 17.75225252 -35.65083583 18.17231718 -51.875 21.25 Z " fill="#000000" transform="translate(371.875,680.75)"/>
<path d="M0 0 C-0.78682435 4.02179644 -1.58032499 8.04224805 -2.375 12.0625 C-2.59671875 13.19623047 -2.8184375 14.32996094 -3.046875 15.49804688 C-4.15344854 21.07973398 -5.31163099 26.56408295 -7 32 C-7.94875 31.46375 -8.8975 30.9275 -9.875 30.375 C-10.52210938 30.01019531 -11.16921875 29.64539063 -11.8359375 29.26953125 C-13.30188935 28.40954145 -14.74481757 27.50928084 -16.1640625 26.57421875 C-32.7442498 15.84423131 -52.69610205 13.65507031 -71.875 17.1875 C-92.5327154 21.9632084 -108.62977487 32.55417925 -119.92260742 50.58496094 C-125.32800255 59.6313789 -128.70473648 68.67131417 -131 79 C-93.71 79 -56.42 79 -18 79 C-19 88 -19 88 -22 102 C-58.96 102 -95.92 102 -134 102 C-134 108.93 -134 115.86 -134 123 C-98.69 123 -63.38 123 -27 123 C-27.6353626 128.71826341 -28.29166539 133.94166079 -29.5 139.5 C-29.7578125 140.7065625 -30.015625 141.913125 -30.28125 143.15625 C-31 146 -31 146 -32 147 C-35.04402422 147.09530981 -38.06531708 147.12551639 -41.10961914 147.11352539 C-42.06561508 147.11367142 -43.02161102 147.11381744 -44.00657654 147.1139679 C-47.18279245 147.11326835 -50.35895052 147.10547403 -53.53515625 147.09765625 C-55.73091093 147.09579222 -57.92666602 147.09436825 -60.12242126 147.09336853 C-65.91420633 147.08954219 -71.7059665 147.07971091 -77.4977417 147.06866455 C-83.40278791 147.05845293 -89.30783813 147.05387145 -95.21289062 147.04882812 C-106.80860472 147.03808875 -118.40430029 147.02101093 -130 147 C-129.39554515 149.35032069 -128.78532946 151.69890161 -128.171875 154.046875 C-128.00413574 154.70155762 -127.83639648 155.35624023 -127.66357422 156.03076172 C-122.86613308 174.29707516 -113.13669861 189.49476321 -96.875 199.37109375 C-77.85783546 210.14576442 -55.74495936 213.70161282 -34.3125 208.4375 C-24.68518122 205.59582292 -15.77726439 201.38996858 -8 195 C-7.67 195 -7.34 195 -7 195 C-7 206.88 -7 218.76 -7 231 C-40.42801902 243.64084753 -75.21584122 243.43885981 -108.3671875 229.59375 C-126.37763322 221.17328187 -140.32302746 207.1175103 -150 190 C-150.62648438 188.90042969 -151.25296875 187.80085937 -151.8984375 186.66796875 C-158.5761832 174.1435505 -162.22427302 160.8786349 -165 147 C-173.25 147 -181.5 147 -190 147 C-189.2150708 138.36577878 -188.04624905 131.27396355 -186 123 C-180.06 123 -174.12 123 -168 123 C-168.495 122.01 -168.495 122.01 -169 121 C-169.08342159 119.55151418 -169.10732861 118.09929131 -169.09765625 116.6484375 C-169.09515869 115.88192871 -169.09266113 115.11541992 -169.09008789 114.32568359 C-169.08098389 113.35195801 -169.07187988 112.37823242 -169.0625 111.375 C-169.041875 108.28125 -169.02125 105.1875 -169 102 C-175.93 102 -182.86 102 -190 102 C-189.18369535 93.83695349 -187.92766329 86.87827604 -186 79 C-179.4 79 -172.8 79 -166 79 C-165.67 76.03 -165.34 73.06 -165 70 C-164.2243811 67.07733916 -163.41442952 64.28706358 -162.4375 61.4375 C-162.17428955 60.66519043 -161.9110791 59.89288086 -161.63989258 59.09716797 C-152.12910176 32.13202399 -134.03722824 10.89634383 -108.42041016 -1.92553711 C-75.47697588 -17.65267203 -31.43692911 -20.65723534 0 0 Z " fill="#000000" transform="translate(437,778)"/>
</svg>
