<?xml version="1.0" encoding="UTF-8"?>
<svg version="1.1" xmlns="http://www.w3.org/2000/svg" width="1181" height="1181">
<path d="M0 0 C1.66489031 -0.00088371 1.66489031 -0.00088371 3.36341476 -0.00178528 C41.36518561 -0.0159744 79.20964733 0.73397713 117.14245605 3.02215576 C120.94651145 3.25054102 124.75098887 3.47019316 128.55566406 3.68798828 C351.24285427 16.55535427 351.24285427 16.55535427 365.9375 31.25 C366.07865161 33.92058851 365.97997107 36.57432238 365.9375 39.25 C283.54897543 54.0719005 200.28705087 61.88276308 116.75 66.5 C115.61485018 66.56287579 115.61485018 66.56287579 114.45676804 66.62702179 C105.20488668 67.13803663 95.95200972 67.62249754 86.69674683 68.0682373 C84.35457687 68.18148316 82.01252882 68.29731699 79.67068481 68.41711426 C54.88743225 69.66615399 30.05762847 69.49433913 5.25 69.5 C4.06371002 69.50058914 2.87742004 69.50117828 1.65518188 69.50178528 C-28.10434286 69.51217993 -57.83168717 69.38944671 -87.5625 68 C-88.2623275 67.96732277 -88.962155 67.93464554 -89.68318939 67.90097809 C-96.21100306 67.59386 -102.73808612 67.27259507 -109.26464844 66.93997192 C-127.45536983 66.01340347 -145.65248995 65.24492033 -163.85141754 64.49902344 C-165.8754527 64.41600014 -167.89947507 64.33266426 -169.9234848 64.24902344 C-199.04423779 63.04585381 -228.16829757 62.02965339 -257.30078125 61.1640625 C-258.07761056 61.14096606 -258.85443988 61.11786963 -259.65480947 61.0940733 C-267.7747281 60.85279855 -275.89469224 60.61307267 -284.01467144 60.37384629 C-352.64722995 58.35162833 -421.26320071 56.01227706 -489.875 53.375 C-490.97993191 53.33253851 -492.08486382 53.29007703 -493.22327852 53.24632883 C-556.28154033 50.82142481 -619.33244024 48.24155508 -682.375 45.4375 C-683.17902016 45.40176534 -683.98304032 45.36603067 -684.81142473 45.32921314 C-706.53088934 44.36364956 -728.24918302 43.374587 -749.96589756 42.34897518 C-752.112346 42.2476469 -754.25880545 42.14655427 -756.40526581 42.04547882 C-765.00374304 41.64015812 -773.60189901 41.22870531 -782.19969749 40.8092289 C-784.86317632 40.67935871 -787.52673058 40.55160076 -790.19036293 40.42485619 C-793.82528796 40.25135689 -797.45990249 40.0724109 -801.09448242 39.8918457 C-802.16986204 39.84151751 -803.24524166 39.79118931 -804.35320854 39.73933601 C-805.3322471 39.68950506 -806.31128567 39.63967411 -807.31999207 39.58833313 C-808.16903201 39.54687322 -809.01807196 39.5054133 -809.89284039 39.46269703 C-812.0625 39.25 -812.0625 39.25 -815.0625 38.25 C-815.0625 35.94 -815.0625 33.63 -815.0625 31.25 C-811.68508368 30.50939912 -808.45204326 30.0774561 -804.99998474 29.91110229 C-803.99681402 29.86096167 -802.9936433 29.81082104 -801.96007347 29.759161 C-800.86393038 29.70828142 -799.76778728 29.65740185 -798.63842773 29.60498047 C-797.46658243 29.54765055 -796.29473713 29.49032063 -795.08738136 29.43125343 C-791.83071635 29.27290276 -788.57390731 29.11806452 -785.316993 28.96494102 C-782.51374764 28.83261826 -779.71063068 28.69767461 -776.9075076 28.56279016 C-767.59220166 28.11472703 -758.2764286 27.67681972 -748.96057034 27.24041653 C-745.67542103 27.08632196 -742.3903087 26.93144692 -739.10519528 26.77658927 C-656.10775706 22.86540239 -573.08961307 19.46373901 -490.0625 16.25 C-489.27166016 16.21938477 -488.48082031 16.18876953 -487.66601562 16.15722656 C-428.94209586 13.88506166 -370.21417253 11.77200897 -311.47265625 10.0078125 C-310.1785041 9.96891238 -310.1785041 9.96891238 -308.85820746 9.9292264 C-299.23179786 9.63988503 -289.60535996 9.35148957 -279.97891235 9.06341553 C-279.11212492 9.03747484 -278.24533749 9.01153414 -277.35228378 8.98480737 C-273.00335489 8.85469105 -268.65442073 8.72475498 -264.30547714 8.59513092 C-210.17304437 6.98096541 -156.07996375 4.96524141 -101.98300552 2.41022491 C-94.45774816 2.05520419 -86.93233509 1.70359366 -79.40665054 1.35774231 C-77.92199308 1.28950419 -76.43734925 1.22096838 -74.95272446 1.15202332 C-49.97994097 -0.0029235 -24.99450105 0.00609429 0 0 Z " fill="#000000" transform="translate(815.0625,555.75)"/>
</svg>
