<?xml version="1.0" encoding="utf-8"?>
<!-- Generator: Adobe Illustrator 16.0.0, SVG Export Plug-In . SVG Version: 6.00 Build 0)  -->
<!DOCTYPE svg PUBLIC "-//W3C//DTD SVG 1.1//EN" "http://www.w3.org/Graphics/SVG/1.1/DTD/svg11.dtd">
<svg version="1.1" xmlns="http://www.w3.org/2000/svg" xmlns:xlink="http://www.w3.org/1999/xlink" x="0px" y="0px"
	 width="295.467px" height="287.673px" viewBox="0 0 295.467 287.673" enable-background="new 0 0 295.467 287.673"
	 xml:space="preserve">
<g id="flatware">
</g>
<g id="cutting">
</g>
<g id="timer">
</g>
<g id="heat">
</g>
<g id="cost-1">
</g>
<g id="cost-2">
</g>
<g id="cost-3">
</g>
<g id="difficulty-0">
</g>
<g id="difficulty-1">
</g>
<g id="difficulty-2">
</g>
<g id="difficulty-3">
</g>
<g id="hourglass">
</g>
<g id="hourglass-wait">
</g>
<g id="aroow-up">
</g>
<g id="search">
</g>
<g id="plus">
</g>
<g id="minus">
</g>
<g id="grill">
</g>
<g id="steam">
</g>
<g id="kettle">
</g>
<g id="oven">
</g>
<g id="pizza-oven">
</g>
<g id="microwave">
</g>
<g id="fryer">
</g>
<g id="pot">
</g>
<g id="pan">
</g>
<g id="wok">
</g>
<g id="menu">
</g>
<g id="line">
</g>
<g id="home">
</g>
<g id="unchecked">
</g>
<g id="checked">
</g>
<g id="cross">
	<g>
		<path d="M295.27,284.116c-1.355-3.877-2.571-2.947-3.774-6.186l-0.237,0.368c-9.003-11.716-18.602-22.863-28.683-33.784
			c-7.772-6.242-14.746-14.468-22.263-21.522c-8.168-7.517-17.242-15.413-24.719-21.394c-1.865-1.346-2.268-3.259-3.215-5.049
			c-6.593-5.782-14.16-13.964-21.633-20.449c0.127,0.136,0.239,0.278,0.312,0.373c-3.859-3.559-5.709-7.263-9.485-10.729
			c-0.239,0.274-0.816-0.27-1.224-0.408c0.568-1.825-23.809-18.826-24.398-20.791c-0.433-0.319-0.874-0.659-1.303-1.024
			c-7.108-8.18-12.68-18.417-19.449-24.766c-1.988-0.861-4.086-1.971-5.921-2.535c-0.646-1.674-1.865-0.9-3.125-2.438
			c-1.147-5.951-4.232-7.024-3.25-4.343c-3.245-2.597-5.963-5.739-8.64-8.251c-1.379-1.028-2.758-2.04-4.179-3.047
			c-1.232-0.829-1.451-1.76-1.401-2.848c-2.978-2.299-1.607-2.113-4.13-5.122c0.171-1.508-8.271-5.6-8.797-6.638l0.576,0.328
			c-3.051-3.344-3.551-7.093-6.605-10.29c-8.068-9.3-18.177-18.163-25.934-26.497c-0.958,0.799,1.97,1.58,0.899,2.838
			C60.1,45.016,56.406,39.14,51.765,34.203c-0.628-1.1-1.242-2.599-1.355-3.272c-1.203-1.857-1.323-0.483-2.33-1.717l0.643-0.945
			c-2.288-0.987-1.514-3.273-3.384-4.486c-0.401,0.237-1.006-0.282-1.528-0.854c0.814-0.871-1.746-1.63-0.896-2.319l-0.08,0.048
			c-0.317-0.344-0.607-0.523-0.865-1.072c-0.922-0.331-9.109-3.902-10.104-4.182l-0.158-0.434c-0.904-0.855-1.906-0.605-1.543,0.059
			l-1.037-1.132l0.184,0.067l-1.031-1.125c-0.125-0.273,0.042-0.891,0.719-0.955c-0.905-0.316-1.75-0.844-2.21-1.605
			c1.179,2.221,2.555,5.065,3.48,7.693c-1.019-0.441-1.891-2.208-2.773-2.908c-0.388-1.502-1.86-3.918-2.988-5.814
			c-0.381-0.283-1.548,0.427-1.89-0.74c0.282-1.019-0.875-0.828-1.032-1.924c1.065,0.374,1.613,1.234,2.31,1.998
			c0.64-0.891-1.257-2.296-1.617-3.09c-0.512-0.029-1.671-1.688-2.769-2.359c0.733-0.229,0.403-0.667,0.05-1.199
			c-0.122-0.034-0.256-0.075-0.39-0.116c0.132,0.037,0.26,0.072,0.383,0.104c-0.185-0.277-0.373-0.58-0.418-0.894
			c-0.508-0.686-1.186-0.771-1.201-0.271c-0.183,0.111-0.232,0.278-0.206,0.477c0.051,0.031,0.101,0.062,0.152,0.095
			c0.129,0.085,0.031,0.149-0.072,0.187c0.293,0.748,1.213,1.73,0.748,2.019c0.116,0.018,0.209,0.029,0.279,0.035l0.202,0.534
			c-0.352-0.09-0.862-0.36-1.316-0.716c0.157,0.028,0.303,0.056,0.438,0.079c-0.044-0.615-1.186-1.535-1.798-2.082
			c-0.314,0.303-0.143,0.554-0.3,0.681C15.754,2,15.412,1.824,15.078,1.643c-0.098-0.07-0.198-0.138-0.298-0.202l-0.095-0.213
			c-0.249-0.107-0.485-0.27-0.701-0.411c-0.116-0.15-0.185-0.32-0.173-0.529c0.029,0.002,0.056,0.021,0.083,0.031
			c-0.057-0.096-0.089-0.197-0.099-0.301c-0.169-0.033-0.246-0.022-0.172,0.06c0.116,0.263,0.009,0.388-0.158,0.473
			c-0.128-0.029-0.238,0.001-0.321,0.125c-0.259,0.086-0.478,0.185-0.284,0.519l0.447,0.043c2.426,2.824-6.691,2.081-3.901,5.354
			c-0.36-2.267,1.418-0.535,2.906,0.731c-0.19,0.456-0.053,1.544,0.689,2.783c0.932,0.783,0.855,0.156,1.26,0.077
			c0.26,0.691,0.991,1.778,0.369,2.162c1.266,0.07,0.687,1.449,1.694,2.045c0.983,0.431,0.212-0.307,1.002-0.094
			c0.997,1.123,2.397,2.695,3.126,3.653c-0.143,0.796,0.017,2.625-1.435,2.629c-1.508-1.707,1.8-0.575-0.031-2.091
			c-0.354,1.795-1.774-1.187-2.892-0.678c0.048,1.019,1.123,2.104,2.162,2.872l-0.039-0.323c0.937,0.655,2.754,2.025,3.041,3.461
			c-0.58,0.174-0.487,0.833-1.165,0.341l1.024,1.168c0.26,0.02,0.524,0.041,0.295-0.362c0.809,0.226,1.163,0.906,1.339,1.526
			c-0.28,0.519,7.509,4.153,7.081,4.228c0.38,0.368,0.489,0.737,0.624,1.064c-2.269-1.674-7.71-5.114-6.796-4.401
			c0.236,1.112,10.946,6.955,10.681,8.204c0.615,0.554,1.406,1.176,1.673,0.634c0.792,1.186-1.068,0.476-0.744,1.561
			c0.08-0.048,0.146-0.262,0.355-0.021l0.165,1.188c2.164,0.907,3.599,3.978,6.037,4.755c-0.904-0.027-2.204,0.211-3.635-0.428
			l0.031-0.395c-0.271-0.022-1.264-0.732-1.643-0.306c0.713,1.252,1.628,2.021,3.061,2.657c0.083,0.299,0.195,0.632,0.233,0.893
			c0.05-0.058,0.078-0.117,0.143-0.174c0.087,0.589,0.01,0.595-0.271,0.629c-0.046,0.015-0.098,0.026-0.164,0.021
			c-0.566,1.8,4.611,3.107,5.792,5.516c0.697,0.361,0.25-0.15,1.135,0.281c1.365,2.304,2.269,3.931,3.913,6.122
			c1.123,0.104,1.375-0.053,1.167-1.326l1.281,1.615c-2.676,0.042,1.409,4.003-1.4,3.908c0.113,0.734,0.917,1.665,1.948,2.257
			c0.424-0.261,1.101-0.683,2.12,0.339c0.967,1.875,0.794,1.371,1.533,2.983c-0.166,0.723-0.774,0.469-1.08,0.873
			c2.385,1.244,0.615,2.552,2.412,4.177c1.204,0.941,3.373,3.006,4.205,2.277c1.409,1.48,0.838,2.051,0.061,2.541l1.085,1.263
			c-3.857-3.738-7.574-8.008-11.191-12.261C58.473,78.379,66.237,90.836,78.5,91.811c-2.285,3.721,4.629,13.424,5.537,12.854
			c2.274,1.175,4.472,2.472,6.608,3.868c13.494,8.84,24.607,21.986,35.996,35.697c6.384,7.539,24.638,27.105,30.903,35.108
			c0.926,1.144,1.854,2.273,2.813,3.403c-1.461-2-1.461-2-2.923-4c5.152,3.55,9.875,6.713,14.208,10.015
			c-0.241-1.103,0.058-1.636-0.945-3.825l1.662,2.233c3.021,0.529,7.057,4.677,9.507,6.074c-1.068,0.241,0.319,1.886,1.557,3.321
			l-0.097-0.961c4.805,5.346,11.226,10.706,15.682,15.322c0.634,0.631,0.863,1.35,0.924,1.861l4.853,3.845
			c-1.208,0.54,2.837,4.376,0.215,2.848c4.288,2.222,6.958,6.157,11.131,8.192c11.223,10.96,23.687,22.096,36.615,32.099
			l0.044-0.605c4.593,3.437,9.854,5.25,14.163,10.702c4.649,2.318,10.221,6.658,13.429,6.223c4.271,3.771,6.79,4.459,11.206,7.93
			C291.475,282.098,296.511,286.755,295.27,284.116z M13.632,3.362c-0.323-0.359-0.021-0.479,0.567-0.474
			C14.072,3.166,13.866,3.353,13.632,3.362z"/>
	</g>
	<g>
		<path d="M179.338,138.997c1.145-0.925,2.274-1.853,3.404-2.811c-2,1.461-2,1.461-4,2.922c3.549-5.152,6.713-9.875,10.016-14.208
			c-1.104,0.241-1.637-0.058-3.826,0.945l2.233-1.662c0.529-3.021,4.677-7.058,6.074-9.508c0.24,1.067,1.885-0.318,3.321-1.557
			l-0.961,0.097c5.347-4.805,10.707-11.227,15.324-15.682c0.631-0.634,1.35-0.863,1.861-0.924l3.845-4.854
			c0.54,1.21,4.376-2.838,2.848-0.215c2.221-4.288,6.158-6.959,8.191-11.131c10.961-11.223,22.096-23.688,32.1-36.615l-0.604-0.044
			c3.435-4.594,5.249-9.854,10.701-14.163c2.317-4.648,6.659-10.221,6.224-13.429c3.771-4.271,4.457-6.79,7.93-11.206
			c-1.919,0.115,2.738-4.92,0.1-3.68c-3.877,1.354-2.947,2.572-6.187,3.774l0.37,0.236c-11.715,9.003-22.864,18.602-33.785,28.683
			c-6.242,7.771-14.468,14.746-21.522,22.264c-7.517,8.168-15.414,17.24-21.394,24.719c-1.346,1.864-3.259,2.268-5.05,3.214
			c-5.78,6.595-13.963,14.161-20.448,21.635c0.134-0.128,0.278-0.239,0.372-0.312c-3.558,3.859-7.262,5.709-10.729,9.484
			c0.275,0.239-0.269,0.816-0.408,1.223c-1.825-0.567-18.826,23.811-20.791,24.399c-0.319,0.433-0.658,0.874-1.024,1.304
			c-8.18,7.106-18.417,12.679-24.767,19.447c-0.861,1.988-1.97,4.087-2.534,5.922c-1.674,0.646-0.901,1.865-2.438,3.125
			c-5.951,1.148-7.025,4.232-4.343,3.249c-2.597,3.245-5.74,5.963-8.251,8.641c-1.028,1.379-2.04,2.759-3.046,4.18
			c-0.83,1.231-1.761,1.45-2.85,1.4c-2.297,2.978-2.112,1.608-5.121,4.131c-1.508-0.172-5.6,8.27-6.637,8.797l0.327-0.576
			c-3.344,3.05-7.092,3.552-10.291,6.604c-9.299,8.069-18.163,18.177-26.497,25.934c0.8,0.959,1.58-1.969,2.838-0.898
			c-4.897,4.593-10.774,8.285-15.71,12.928c-1.1,0.627-2.599,1.24-3.272,1.355c-1.858,1.202-0.483,1.322-1.717,2.329l-0.945-0.643
			c-0.986,2.288-3.273,1.513-4.487,3.384c0.238,0.401-0.283,1.006-0.855,1.529c-0.869-0.814-1.628,1.745-2.318,0.896l0.048,0.079
			c-0.344,0.316-0.525,0.605-1.074,0.865c-0.33,0.922-3.901,9.109-4.18,10.104l-0.435,0.157c-0.854,0.905-0.605,1.906,0.06,1.544
			l-1.131,1.037l0.067-0.183l-1.125,1.03c-0.273,0.124-0.89-0.042-0.954-0.719c-0.318,0.904-0.845,1.75-1.605,2.21
			c2.219-1.178,5.064-2.555,7.691-3.48c-0.44,1.019-2.207,1.891-2.907,2.773c-1.502,0.389-3.919,1.859-5.813,2.988
			c-0.284,0.381,0.426,1.549-0.742,1.889c-1.018-0.281-0.828,0.875-1.924,1.032c0.375-1.065,1.235-1.614,1.999-2.311
			c-0.891-0.64-2.296,1.257-3.088,1.618c-0.03,0.512-1.688,1.67-2.361,2.768c-0.228-0.732-0.666-0.402-1.198-0.049
			c-0.034,0.121-0.074,0.253-0.114,0.385c0.036-0.13,0.071-0.257,0.104-0.378c-0.278,0.185-0.58,0.373-0.895,0.417
			c-0.685,0.509-0.772,1.187-0.27,1.203c0.086,0.139,0.207,0.193,0.347,0.201c0.025,0.002,0.049,0.003,0.073,0.006
			c0.057-0.004,0.116-0.016,0.178-0.031c-0.006,0.018-0.012,0.035-0.019,0.053c0.023,0.005,0.043,0.011,0.065,0.017
			c0.008-0.029,0.016-0.059,0.024-0.088c0.758-0.249,1.807-1.265,2.106-0.781c0.019-0.115,0.03-0.207,0.037-0.278l0.534-0.201
			c-0.089,0.352-0.361,0.863-0.716,1.316c0.029-0.156,0.055-0.303,0.079-0.438c-0.615,0.045-1.535,1.186-2.083,1.798
			c0.302,0.313,0.554,0.143,0.681,0.3c-0.065,0.305-0.241,0.647-0.424,0.981c-0.07,0.098-0.137,0.198-0.2,0.298l-0.213,0.095
			c-0.108,0.249-0.27,0.485-0.412,0.701c-0.15,0.116-0.321,0.185-0.529,0.172c0-0.026,0.019-0.053,0.029-0.078
			c-0.028,0.024-0.059,0.046-0.101,0.073c-0.045,0.029-0.118,0.05-0.205,0.062c-0.024,0.143-0.009,0.2,0.067,0.132
			c0.262-0.116,0.387-0.01,0.472,0.157c-0.028,0.129,0.001,0.237,0.125,0.32c0.085,0.259,0.185,0.479,0.519,0.285l0.043-0.447
			c2.824-2.427,2.08,6.691,5.353,3.901c-2.266,0.359-0.535-1.418,0.731-2.906c0.457,0.19,1.544,0.053,2.783-0.689
			c0.783-0.933,0.157-0.854,0.078-1.26c0.691-0.261,1.778-0.99,2.161-0.369c0.072-1.267,1.45-0.688,2.046-1.695
			c0.43-0.981-0.307-0.21-0.094-1c1.124-0.998,2.695-2.398,3.654-3.127c0.795,0.144,2.624-0.018,2.628,1.435
			c-1.708,1.509-0.575-1.801-2.091,0.03c1.795,0.354-1.186,1.774-0.677,2.893c1.017-0.049,2.104-1.125,2.872-2.162l-0.323,0.039
			c0.654-0.938,2.024-2.755,3.459-3.042c0.175,0.579,0.834,0.487,0.342,1.165l1.168-1.025c0.019-0.258,0.041-0.524-0.362-0.294
			c0.226-0.809,0.905-1.164,1.526-1.339c0.518,0.279,4.153-7.509,4.227-7.081c0.369-0.38,0.739-0.489,1.066-0.623
			c-1.676,2.269-5.115,7.71-4.403,6.796c1.112-0.236,6.956-10.946,8.204-10.681c0.555-0.614,1.177-1.405,0.635-1.673
			c1.186-0.792,0.477,1.068,1.56,0.743c-0.047-0.079-0.26-0.144-0.021-0.354l1.188-0.164c0.908-2.165,3.977-3.6,4.755-6.038
			c-0.027,0.904,0.209,2.204-0.428,3.636l-0.394-0.031c-0.023,0.271-0.734,1.263-0.307,1.644c1.252-0.714,2.021-1.629,2.657-3.063
			c0.299-0.082,0.632-0.195,0.893-0.232c-0.057-0.049-0.117-0.077-0.174-0.142c0.59-0.088,0.595-0.011,0.629,0.271
			c0.014,0.046,0.026,0.099,0.021,0.164c1.801,0.567,3.109-4.61,5.517-5.792c0.362-0.696-0.151-0.251,0.28-1.136
			c2.304-1.365,3.931-2.269,6.123-3.912c0.103-1.123-0.053-1.374-1.327-1.167l1.615-1.283c0.042,2.678,4.002-1.408,3.908,1.401
			c0.735-0.113,1.666-0.917,2.257-1.948c-0.261-0.424-0.682-1.1,0.34-2.119c1.874-0.967,1.371-0.794,2.983-1.533
			c0.723,0.166,0.467,0.774,0.873,1.08c1.244-2.385,2.551-0.616,4.177-2.412c0.941-1.203,3.005-3.374,2.277-4.205
			c1.479-1.409,2.051-0.838,2.542-0.061l1.262-1.085c-3.739,3.856-8.008,7.573-12.261,11.191
			c11.214-5.909,23.67-13.673,24.646-25.937c3.72,2.284,13.423-4.63,12.853-5.537c1.175-2.274,2.472-4.472,3.868-6.608
			c8.84-13.494,21.987-24.606,35.698-35.996C151.771,163.518,171.335,145.264,179.338,138.997z M2.889,282.344
			c0.277,0.127,0.465,0.333,0.474,0.566C3.004,283.233,2.885,282.932,2.889,282.344z"/>
	</g>
</g>
<g id="Calque_31">
</g>
<g id="Calque_32">
</g>
<g id="Calque_33">
</g>
<g id="Calque_34">
</g>
<g id="Calque_35">
</g>
<g id="Calque_36">
</g>
<g id="Calque_38">
</g>
<g id="Calque_39">
</g>
</svg>
