<?xml version="1.0" encoding="UTF-8"?>
<svg version="1.1" xmlns="http://www.w3.org/2000/svg" viewBox="0 0 1181 1181">
<path d="M0 0 C0.98091236 0.00026688 1.96182472 0.00053375 2.9724617 0.00080872 C32.82583952 0.01097972 62.60051237 0.27935567 92.41210938 2.00067139 C96.00484624 2.20560146 99.59804912 2.40049553 103.19140625 2.59423828 C190.84595039 7.34834671 278.29800843 15.23585257 364.6875 31.1875 C364.6875 34.1575 364.6875 37.1275 364.6875 40.1875 C278.10863681 56.70074559 190.15712208 64.15738549 102.23846436 68.98895264 C99.03098217 69.16829466 95.82428524 69.35704123 92.61767578 69.55126953 C29.43067438 73.34600326 -34.46309364 72.42453328 -97.66010308 69.246665 C-119.30336259 68.16160349 -140.95152715 67.18896325 -162.6015625 66.25 C-164.0943278 66.1851977 -164.0943278 66.1851977 -165.61724997 66.11908627 C-195.53401464 64.82297252 -225.45200083 63.68190775 -255.3828125 62.765625 C-256.26350143 62.73865547 -257.14419036 62.71168595 -258.05156684 62.68389916 C-266.20384738 62.43476215 -274.35622337 62.18883591 -282.50867748 61.94544697 C-304.61988838 61.28531989 -326.73008145 60.59363833 -348.83984375 59.88671875 C-349.88872434 59.85319392 -350.93760493 59.81966909 -352.01826978 59.78512836 C-402.68736693 58.16303526 -453.34486662 56.25819869 -504 54.25 C-505.06074014 54.20796275 -506.12148027 54.16592549 -507.21436405 54.12261438 C-567.75513031 51.72178395 -628.28800869 49.15639402 -688.8125 46.375 C-689.59118801 46.33922427 -690.36987601 46.30344853 -691.17216063 46.26658869 C-711.53281535 45.33062325 -731.89222057 44.37053311 -752.25048828 43.38396454 C-755.74522328 43.21473549 -759.24002194 43.04685506 -762.73483419 42.87923008 C-769.81195965 42.53970717 -776.88889107 42.19653787 -783.96551275 41.84666067 C-787.27458256 41.6830565 -790.58372092 41.52125323 -793.89302063 41.36235619 C-797.48946787 41.18920301 -801.08556933 41.01011524 -804.68164062 40.8293457 C-805.75242859 40.77901751 -806.82321655 40.72868931 -807.92645264 40.67683601 C-808.89258484 40.62700506 -809.85871704 40.57717411 -810.85412598 40.52583313 C-811.6964402 40.48437322 -812.53875443 40.4429133 -813.40659332 40.40019703 C-815.3125 40.1875 -815.3125 40.1875 -816.3125 39.1875 C-816.35342937 36.85452567 -816.35491723 34.52044775 -816.3125 32.1875 C-813.51141777 31.25380592 -811.52457839 30.99264774 -808.60870361 30.84860229 C-807.63469982 30.79846167 -806.66069603 30.74832104 -805.65717697 30.696661 C-804.58340427 30.64578142 -803.50963158 30.59490185 -802.40332031 30.54248047 C-801.26286884 30.48515055 -800.12241737 30.42782063 -798.94740677 30.36875343 C-795.76954334 30.21006972 -792.59151709 30.05532375 -789.41337013 29.90244102 C-786.68023291 29.77035627 -783.94724527 29.63530601 -781.21425152 29.50029016 C-772.92830724 29.09107855 -764.6419479 28.69073447 -756.35545349 28.29283905 C-752.35584081 28.10078123 -748.35628258 27.90761537 -744.35674071 27.71408927 C-665.25690416 23.88735087 -586.13667971 20.55771855 -507.00854492 17.3764267 C-503.22125902 17.2241314 -499.43399221 17.07136839 -495.64673394 16.91838765 C-438.56988451 14.61290383 -381.48970336 12.51444563 -324.39453125 10.72265625 C-323.39586013 10.69129405 -322.39718902 10.65993184 -321.36825514 10.62761927 C-310.14119928 10.2750679 -298.91411145 9.92353885 -287.68701172 9.5723877 C-286.66961831 9.54056574 -285.65222491 9.50874377 -284.6040014 9.47595751 C-279.48931419 9.31602109 -274.37462118 9.15627317 -269.25991821 8.99684143 C-211.95801186 7.21008819 -154.69224743 5.15708039 -97.43214035 2.30828285 C-64.93923949 0.69312479 -32.53153489 -0.01990651 0 0 Z " fill="#000000" transform="translate(816.3125,554.8125)"/>
<path d="M0 0 C1.57581093 -0.00088371 1.57581093 -0.00088371 3.18345642 -0.00178528 C41.6876421 -0.0169619 80.0044044 0.95104593 118.4375 3.25 C121.03791309 3.40154046 123.63833629 3.55290744 126.23876953 3.70410156 C206.4747505 8.42245833 287.55772687 15.25877894 366.4375 31.25 C366.4375 34.22 366.4375 37.19 366.4375 40.25 C282.12241054 55.71826842 196.86417679 63.90352905 111.3125 68.5 C110.53391884 68.54191719 109.75533768 68.58383438 108.95316315 68.62702179 C98.11644729 69.20866861 87.27822628 69.74877062 76.4375 70.25 C75.2689447 70.30514771 74.1003894 70.36029541 72.89642334 70.41711426 C50.54363884 71.44343678 28.18427232 71.49387009 5.8125 71.5 C4.32431826 71.50088371 4.32431826 71.50088371 2.80607224 71.50178528 C-29.58165326 71.51526955 -61.87252712 70.86698582 -94.22202778 69.30887032 C-98.24107976 69.11560478 -102.26027312 68.92532185 -106.27946472 68.73498535 C-107.12058866 68.69514715 -107.96171261 68.65530895 -108.82832515 68.61426353 C-156.38492666 66.36632669 -203.94717121 64.2845244 -251.53515625 62.828125 C-252.41599711 62.80115547 -253.29683797 62.77418595 -254.20437098 62.74639916 C-263.28564756 62.46892331 -272.36706122 62.1960987 -281.44853878 61.92528921 C-302.65140161 61.29266505 -323.85321364 60.62668105 -345.0546875 59.94921875 C-346.10429303 59.91569392 -347.15389856 59.88216909 -348.23531032 59.84762836 C-398.91543083 58.22636992 -449.58389028 56.32125923 -500.25 54.3125 C-501.31069907 54.27046275 -502.37139813 54.22842549 -503.4642396 54.18511438 C-564.00504541 51.78422427 -624.53796669 49.21889595 -685.0625 46.4375 C-685.84118801 46.40172427 -686.61987601 46.36594853 -687.42216063 46.32908869 C-707.78496371 45.39302449 -728.14656935 44.43371191 -748.50695801 43.44646454 C-751.27378053 43.3123182 -754.04062762 43.17869441 -756.80749512 43.04547882 C-765.24757238 42.63903302 -773.68739079 42.22777822 -782.12687683 41.8092289 C-784.74856416 41.67972804 -787.37031867 41.55157951 -789.99214172 41.42485619 C-793.57375441 41.25127766 -797.15505754 41.07232627 -800.73632812 40.8918457 C-801.79679352 40.84151751 -802.85725891 40.79118931 -803.94985962 40.73933601 C-804.91584076 40.68950506 -805.8818219 40.63967411 -806.8770752 40.58833313 C-807.7149482 40.54687322 -808.5528212 40.5054133 -809.41608429 40.46269703 C-811.5625 40.25 -811.5625 40.25 -814.5625 39.25 C-814.60491723 36.91705225 -814.60342937 34.58297433 -814.5625 32.25 C-812.97867216 30.66617216 -811.30073552 31.01962091 -809.09921265 30.91110229 C-808.12795818 30.86096167 -807.15670372 30.81082104 -806.1560173 30.759161 C-805.07505405 30.70828142 -803.99409081 30.65740185 -802.88037109 30.60498047 C-801.74021168 30.54765055 -800.60005226 30.49032063 -799.42534256 30.43125343 C-796.23911143 30.27221013 -793.05270209 30.11756436 -789.86615801 29.96494102 C-787.12813799 29.83310751 -784.39028633 29.69794407 -781.65242851 29.56279016 C-773.34956032 29.15302181 -765.0462417 28.75292834 -756.74278259 28.35533905 C-752.73508172 28.1634129 -748.72744289 27.97022546 -744.71982431 27.77658927 C-665.58217574 23.9531083 -586.42426488 20.62172979 -507.25854492 17.4389267 C-503.47125902 17.2866314 -499.68399221 17.13386839 -495.89673394 16.98088765 C-438.81988474 14.67540384 -381.73970369 12.57693068 -324.64453125 10.78515625 C-323.64584172 10.75379405 -322.64715219 10.72243184 -321.61819935 10.69011927 C-310.39097889 10.33757088 -299.1637264 9.98604655 -287.9364624 9.6348877 C-286.41039619 9.58715475 -286.41039619 9.58715475 -284.85350037 9.53845751 C-279.73927742 9.37853058 -274.62504891 9.21878432 -269.51081085 9.05934143 C-212.14446718 7.27026078 -154.81335094 5.21938183 -97.48864365 2.37080002 C-64.97137104 0.75527196 -32.55645409 0.00839676 0 0 Z " fill="#000000" transform="translate(814.5625,188.75)"/>
<path d="M0 0 C0.90793682 0.00026688 1.81587364 0.00053375 2.7513237 0.00080872 C32.33980072 0.01168354 61.85479143 0.37988542 91.40576172 2.00067139 C95.08281066 2.20232408 98.76014649 2.39822233 102.4375 2.59423828 C348.43697421 15.81197421 348.43697421 15.81197421 364.8125 32.1875 C364.95365161 34.85808851 364.85497107 37.51182238 364.8125 40.1875 C281.74257111 56.51370815 196.99273756 63.7694267 112.5625 68.4375 C111.80323212 68.47948391 111.04396423 68.52146782 110.26168823 68.56472397 C101.01784117 69.0739498 91.77296333 69.55595342 82.52603149 70.0057373 C80.22212496 70.11850443 77.91835868 70.23422906 75.61483765 70.35461426 C51.80779081 71.58981982 27.95700204 71.43184276 4.125 71.4375 C2.98470966 71.43808914 1.84441933 71.43867828 0.66957474 71.43928528 C-28.32480091 71.44981995 -57.28420181 71.29924295 -86.25 69.9375 C-86.94918926 69.90467548 -87.64837852 69.87185097 -88.36875534 69.83803177 C-96.32977245 69.46144259 -104.28932139 69.0577639 -112.24853516 68.64501953 C-127.54891836 67.85260941 -142.85411476 67.16419814 -158.1603775 66.49622726 C-160.01799048 66.41513853 -161.87559033 66.3337487 -163.73317719 66.25206375 C-207.24833961 64.3409047 -250.78131515 63.01709818 -294.31634539 61.65797246 C-360.76187053 59.58324911 -427.19835389 57.36556734 -493.625 54.75 C-494.54444822 54.71380397 -495.46389644 54.67760794 -496.41120672 54.64031506 C-582.58805638 51.24498137 -668.75596911 47.54278884 -816.1875 40.1875 C-816.1875 37.5475 -816.1875 34.9075 -816.1875 32.1875 C-812.8505933 31.45824948 -809.65317055 31.01742609 -806.24319458 30.84860229 C-804.77806537 30.77339135 -804.77806537 30.77339135 -803.28333759 30.696661 C-802.21675513 30.64578142 -801.15017267 30.59490185 -800.05126953 30.54248047 C-798.91052318 30.48515055 -797.76977682 30.42782063 -796.59446239 30.36875343 C-793.42496501 30.21042977 -790.2553208 30.05558581 -787.08556962 29.90244102 C-784.35735288 29.77010416 -781.62926694 29.6351683 -778.90117484 29.50029016 C-769.83661741 29.05231284 -760.77158488 28.61438388 -751.70646715 28.17791653 C-748.51026637 28.02382319 -745.3141036 27.86894934 -742.11793989 27.71408927 C-662.27922268 23.84692311 -582.41979551 20.48142751 -502.55179977 17.28222656 C-500.23420644 17.18937131 -497.91661747 17.09640788 -495.59902954 17.00341797 C-439.79485253 14.76510225 -383.98785028 12.66819109 -328.1640625 10.98046875 C-326.4797325 10.92948948 -324.79540252 10.87850987 -323.11107254 10.82752991 C-314.60985558 10.57036244 -306.10861139 10.3140986 -297.60736084 10.05804443 C-296.76174855 10.03257137 -295.91613625 10.0070983 -295.04489934 9.98085332 C-290.7962289 9.85290121 -286.54755278 9.7251425 -282.29886627 9.59772491 C-222.23150786 7.79524023 -162.20681433 5.38636289 -102.17759705 2.59981537 C-68.09871368 1.01972186 -34.11692772 -0.02260106 0 0 Z " fill="#000000" transform="translate(816.1875,920.8125)"/>
</svg>
