<?xml version="1.0" encoding="UTF-8"?>
<svg version="1.1" xmlns="http://www.w3.org/2000/svg" viewBox="0 0 1181 1181">
<path d="M0 0 C-3.84260927 4.59557594 -7.82208914 8.96134958 -12.07788086 13.17553711 C-12.6527272 13.74892319 -13.22757355 14.32230927 -13.81983948 14.91307068 C-15.0561653 16.14562011 -16.29364392 17.37701413 -17.53217888 18.60734367 C-19.49869333 20.56097151 -21.46195932 22.51781353 -23.42445374 24.47547913 C-28.29784537 29.3355752 -33.17667468 34.19020073 -38.05535889 39.04498291 C-42.18541059 43.1552159 -46.31334844 47.26755042 -50.43857002 51.3826313 C-52.36127729 53.2989145 -54.28699993 55.21213054 -56.21287537 57.12522888 C-62.02520987 62.91322386 -67.71885955 68.71493148 -73 75 C-74.04437043 76.19230265 -75.09096135 77.38266717 -76.140625 78.5703125 C-103.2592474 109.50148149 -126.58302323 143.74910611 -146 180 C-146.46760742 180.86818359 -146.93521484 181.73636719 -147.41699219 182.63085938 C-192.3833464 266.39810855 -215.01472509 361.95638425 -188.92721558 599.01977539 C-176.31713675 640.41474593 -159.24479471 680.84008505 -137 718 C-136.52755859 718.79744629 -136.05511719 719.59489258 -135.56835938 720.41650391 C-119.7009234 747.15257872 -101.75212046 772.85281971 -81.39892578 796.37451172 C-79.90899195 798.10574723 -78.43583284 799.85030234 -76.96484375 801.59765625 C-71.85844148 807.64517846 -66.68605833 813.47048894 -61.0078125 818.99609375 C-59.09192905 820.9082498 -57.32080011 822.88069778 -55.5625 824.9375 C-49.66158275 831.79458439 -43.19013855 838.09092705 -36.31640625 843.96484375 C-33.83178418 846.14779164 -31.42199297 848.39829967 -29.01171875 850.66259766 C-22.5498444 856.72838817 -15.96761374 862.51410665 -9 868 C-8.35579102 868.51143555 -7.71158203 869.02287109 -7.04785156 869.54980469 C13.90447825 886.16783103 35.83765254 901.60446289 59 915 C59.60424805 915.35094727 60.20849609 915.70189453 60.83105469 916.06347656 C141.72883963 962.85855026 231.57379207 986.8360729 335.25 988.5 C336.45024811 988.50878174 337.65049622 988.51756348 338.88711548 988.52661133 C361.83067192 988.61602518 383.99052482 986.1486807 406.54515076 982.06713867 C410.41626818 981.37356461 414.04655519 980.80459584 418 981 C416.01884442 989.80513591 408.09482801 996.06183215 401.921875 1002.24609375 C401.26979065 1002.9015065 400.6177063 1003.55691925 399.94586182 1004.23219299 C398.57572761 1005.60735046 397.20427202 1006.98119255 395.83154297 1008.35375977 C393.76369339 1010.42379215 391.70398475 1012.50169673 389.64453125 1014.58007812 C383.12238278 1021.12935418 376.60913454 1027.44808192 369.32250977 1033.15112305 C366.84135387 1035.12629319 364.51497008 1037.22180725 362.1875 1039.375 C356.61484483 1044.4450581 350.71627284 1049.04719891 344.75390625 1053.64453125 C343.10071649 1054.92216343 341.45552864 1056.20934159 339.8125 1057.5 C331.0873876 1064.30558767 322.10708612 1070.71653472 313 1077 C312.30310059 1077.48194824 311.60620117 1077.96389648 310.88818359 1078.46044922 C297.63041531 1087.58424082 283.88792534 1095.87571697 270 1104 C269.22253418 1104.45584473 268.44506836 1104.91168945 267.64404297 1105.38134766 C235.40100525 1124.14701874 201.26189985 1138.93172545 166 1151 C164.58146729 1151.4937915 164.58146729 1151.4937915 163.13427734 1151.99755859 C127.19082924 1164.43168147 89.71400801 1172.24115043 52.0625 1177.25 C50.92868896 1177.40130371 49.79487793 1177.55260742 48.62670898 1177.70849609 C44.75572092 1178.19104056 40.88160621 1178.6144185 37 1179 C36.12938934 1179.08687073 35.25877869 1179.17374146 34.36178589 1179.26324463 C15.05571876 1181.11949079 -4.18815031 1181.40151653 -23.5625 1181.375 C-24.3398563 1181.37476082 -25.1172126 1181.37452164 -25.91812515 1181.37427521 C-51.13696521 1181.36448376 -76.00664785 1180.65772906 -101 1177 C-101.77357849 1176.88873779 -102.54715698 1176.77747559 -103.34417725 1176.6628418 C-123.75354439 1173.71355055 -143.96609537 1169.90620229 -164 1165 C-165.70905518 1164.58741943 -165.70905518 1164.58741943 -167.45263672 1164.16650391 C-210.13209898 1153.73923553 -250.78522841 1137.67819103 -290 1118 C-291.04978027 1117.47374023 -292.09956055 1116.94748047 -293.18115234 1116.40527344 C-323.49882147 1101.11293433 -352.03593585 1082.61919801 -379 1062 C-379.96317139 1061.26426758 -379.96317139 1061.26426758 -380.94580078 1060.51367188 C-392.18165211 1051.89101385 -403.02349987 1042.80980622 -413.48828125 1033.265625 C-414.8883143 1032.00276471 -416.2944252 1030.74627087 -417.72268677 1029.51542664 C-422.59369127 1025.31639919 -427.21447831 1020.93228661 -431.75390625 1016.37890625 C-432.81072853 1015.32351906 -432.81072853 1015.32351906 -433.88890076 1014.24681091 C-435.36653367 1012.76985352 -436.84292457 1011.29165258 -438.31811523 1009.81225586 C-440.55666481 1007.56834915 -442.80050473 1005.32983296 -445.04492188 1003.09179688 C-446.48990404 1001.64615382 -447.93457592 1000.20020055 -449.37890625 998.75390625 C-450.03951553 998.0953212 -450.70012482 997.43673615 -451.38075256 996.75819397 C-455.78461988 992.33244278 -459.93477146 987.73733927 -464 983 C-464.97325279 981.8821978 -465.94709214 980.76490565 -466.921875 979.6484375 C-473.87262287 971.6248937 -480.56656741 963.44401381 -487 955 C-487.76836182 953.99453125 -487.76836182 953.99453125 -488.55224609 952.96875 C-502.83078229 934.18960539 -516.29080042 914.49109927 -528 894 C-528.34224609 893.40880371 -528.68449219 892.81760742 -529.03710938 892.20849609 C-573.67434417 815.06901247 -600.82991943 728.8725619 -588.96826172 452.08398438 C-567.12753525 371.30126506 -529.09353332 295.98211056 -475 232 C-474.47664062 231.37754395 -473.95328125 230.75508789 -473.4140625 230.11376953 C-462.10801181 216.68066045 -450.14848956 203.97775582 -437.71679688 191.58642578 C-435.73449756 189.6095399 -433.75767367 187.62728961 -431.78125 185.64453125 C-425.69180717 179.55155952 -419.60893413 173.53507873 -413 168 C-411.88130677 167.02777152 -410.76409592 166.0538345 -409.6484375 165.078125 C-397.44318509 154.50528129 -384.68157716 144.74103023 -371.82128906 134.98242188 C-366.55148205 130.97439964 -361.33773176 126.9103081 -356.1875 122.75 C-332.82243078 103.9767834 -308.04089293 87.7265141 -281.68066406 73.47119141 C-279.33000738 72.18111334 -277.01550893 70.85056122 -274.7109375 69.48046875 C-241.66537063 49.97981179 -203.73172217 36.13726751 -166.9375 25.6875 C-165.77007767 25.34966492 -165.77007767 25.34966492 -164.57907104 25.00500488 C-129.03680511 14.81899964 -92.51744973 9.40200652 -55.85565186 5.28283691 C-51.71739678 4.81322767 -47.58142562 4.32497327 -43.4453783 3.83635616 C-38.45008283 3.24708637 -33.45362964 2.66794419 -28.45703125 2.08984375 C-27.52896982 1.98167768 -26.60090839 1.87351162 -25.64472389 1.76206779 C-23.02001573 1.45809728 -20.39459478 1.16135112 -17.76879883 0.86694336 C-17.01001434 0.77822464 -16.25122986 0.68950592 -15.4694519 0.59809875 C-10.28645379 0.02774187 -5.21459956 -0.07149575 0 0 Z M-352.12792969 132.20898438 C-354.82477126 133.89072781 -357.55219408 135.50345006 -360.296875 137.10546875 C-364.76495369 139.77385483 -368.76448573 142.78789607 -372.75 146.125 C-373.42973877 146.68630615 -374.10947754 147.2476123 -374.80981445 147.82592773 C-376.8806381 149.54194561 -378.94175722 151.26892157 -381 153 C-381.92981689 153.77899658 -381.92981689 153.77899658 -382.87841797 154.57373047 C-384.65308796 156.06422285 -386.42189578 157.56128318 -388.1875 159.0625 C-388.68411133 159.48354004 -389.18072266 159.90458008 -389.69238281 160.33837891 C-400.73304553 169.8263389 -411.1417186 179.97788869 -421.41357422 190.28320312 C-423.3904601 192.26550244 -425.37271039 194.24232633 -427.35546875 196.21875 C-433.44891179 202.30871162 -439.45934934 208.39510939 -445 215 C-445.94842527 216.08386853 -446.89890993 217.16593887 -447.8515625 218.24609375 C-455.11789116 226.57840966 -461.87444799 235.23011365 -468.52294922 244.06005859 C-469.79536343 245.7312327 -471.09983362 247.37791149 -472.41015625 249.01953125 C-520.42223777 309.21992848 -552.48735378 383.37349784 -570 458 C-570.27537598 459.15838379 -570.55075195 460.31676758 -570.83447266 461.51025391 C-575.37551236 480.83225468 -578.59475898 500.30868617 -581 520 C-581.08463501 520.69208557 -581.16927002 521.38417114 -581.25646973 522.097229 C-585.78889273 559.85220124 -586.16022003 599.20756637 -582 637 C-581.80664062 638.83256348 -581.80664062 638.83256348 -581.609375 640.70214844 C-572.31966019 726.911562 -544.18951723 810.67803757 -458.41503906 935.28076172 C-457.15497335 936.81171112 -455.91580531 938.35980647 -454.6796875 939.91015625 C-449.23048212 946.7367438 -443.34287964 953.0826992 -437.3515625 959.4296875 C-434.64031408 962.30442829 -431.99277873 965.22703024 -429.375 968.1875 C-422.44136936 975.93457334 -415.10150923 983.36308343 -407.1796875 990.1015625 C-404.86243756 992.11981245 -402.61804482 994.20321294 -400.37304688 996.30102539 C-394.11920297 1002.14090541 -387.7080574 1007.68140305 -381 1013 C-379.95698264 1013.83587684 -378.91401588 1014.67181684 -377.87109375 1015.5078125 C-308.39836934 1070.92009312 -226.70104672 1108.99243525 26.20068359 1132.78515625 C111.40515547 1123.01724383 199.33671352 1093.97313645 269 1043 C269 1042.67 269 1042.34 269 1042 C267.10169434 1041.78234985 267.10169434 1041.78234985 265.16503906 1041.56030273 C238.20231581 1038.443147 211.49777386 1034.9426039 185 1029 C184.27973633 1028.83949158 183.55947266 1028.67898315 182.81738281 1028.51361084 C146.43464856 1020.36766521 111.22465962 1008.75806677 77 994 C76.04834961 993.59330078 75.09669922 993.18660156 74.11621094 992.76757812 C50.88756959 982.79145155 28.64738879 971.02906364 7 958 C5.38954513 957.04259487 3.77888067 956.08554216 2.16796875 955.12890625 C-30.87598082 935.36931349 -61.34683288 911.64999067 -89.46777344 885.41894531 C-91.89417889 883.17192993 -94.35804231 880.96628929 -96.8125 878.75 C-101.76048611 874.21653932 -106.55832496 869.54857748 -111.3125 864.8125 C-111.97032471 864.15926758 -112.62814941 863.50603516 -113.3059082 862.83300781 C-117.16563057 858.96109428 -120.83566739 854.97537732 -124.40795898 850.8371582 C-126.51365923 848.40725568 -128.69330059 846.04917125 -130.875 843.6875 C-135.79181449 838.28343362 -140.46285127 832.72481413 -145 827 C-145.51046875 826.35675781 -146.0209375 825.71351563 -146.546875 825.05078125 C-173.02218345 791.5854965 -195.92141844 756.19683932 -215 718 C-215.7748877 716.46206787 -215.7748877 716.46206787 -216.56542969 714.89306641 C-246.13110259 655.98009262 -264.47784554 591.43577886 -272 526 C-272.22429687 524.07897461 -272.22429687 524.07897461 -272.453125 522.11914062 C-276.8927486 482.91441198 -277.03822599 442.24183496 -273 403 C-272.89816406 401.91444824 -272.79632813 400.82889648 -272.69140625 399.71044922 C-265.06194283 318.43547079 -239.98129674 238.17867764 -198.59277344 167.71630859 C-196.96531055 164.94084077 -195.36041878 162.15316371 -193.7578125 159.36328125 C-179.71380684 135.06582476 -163.32225767 112.33556859 -145.42822266 90.73242188 C-143.3873751 88.25689123 -141.38572864 85.75001785 -139.375 83.25 C-135.32751065 78.30553956 -131.04994629 73.60514149 -126.70703125 68.921875 C-120.66571013 62.40108395 -114.74845345 55.78022715 -109 49 C-186.10031075 49 -273.87192167 84.73587582 -352.12792969 132.20898438 Z " fill="#000000" transform="translate(638,0)"/>
<path d="M0 0 C1.2065625 0.0309375 1.2065625 0.0309375 2.4375 0.0625 C2.70844482 1.67584229 2.70844482 1.67584229 2.98486328 3.32177734 C13.79161017 67.42265566 29.11972253 134.88431926 74.4375 184.0625 C75.56725311 185.35001143 76.69249775 186.6414974 77.8125 187.9375 C81.65333986 192.34999974 85.62427337 196.6411253 89.59375 200.9375 C91.71087735 203.24275804 93.77112663 205.59123667 95.8203125 207.95703125 C111.08170201 225.43833467 127.88532876 239.24965869 148.44628906 250.00439453 C151.48529524 251.61928575 154.45909402 253.33877685 157.4375 255.0625 C157.4375 256.7125 157.4375 258.3625 157.4375 260.0625 C156.82455078 260.3934668 156.21160156 260.72443359 155.58007812 261.06542969 C137.40491658 270.94146175 121.2676763 281.61984589 106.4375 296.0625 C105.92171387 296.56313965 105.40592773 297.0637793 104.87451172 297.57958984 C99.42160907 302.89579484 94.0832231 308.28125307 89.13671875 314.078125 C87.14912376 316.39927041 85.10947394 318.66856503 83.0625 320.9375 C82.29679688 321.78957031 81.53109375 322.64164062 80.7421875 323.51953125 C79.28052074 325.13231949 77.80778655 326.73520127 76.3203125 328.32421875 C29.47183869 378.86222438 13.0665544 448.95496656 2.4375 515.0625 C0.77138095 515.105221 -0.89632885 515.10313832 -2.5625 515.0625 C-4.38383475 513.24116525 -4.19161368 510.37610517 -4.54296875 507.9140625 C-4.73407227 506.61267334 -4.92517578 505.31128418 -5.12207031 503.97045898 C-5.2237854 503.27314667 -5.32550049 502.57583435 -5.43029785 501.85739136 C-15.4821943 433.63287882 -38.28123235 370.0493083 -85.7421875 319.09765625 C-90.99933855 313.45379274 -96.14506981 307.71124957 -101.1875 301.875 C-116.30205469 284.62094213 -136.31079134 269.84797248 -157.5625 261.0625 C-157.5625 259.0825 -157.5625 257.1025 -157.5625 255.0625 C-156.61165527 254.54248413 -156.61165527 254.54248413 -155.64160156 254.01196289 C-138.40652918 244.59255465 -138.40652918 244.59255465 -122.5625 233.0625 C-121.51461467 232.21578463 -120.46642365 231.36944749 -119.41796875 230.5234375 C-109.23434949 222.20034547 -99.7526442 213.02583274 -91.22265625 203.0078125 C-89.26987359 200.71961071 -87.26391686 198.4845721 -85.25 196.25 C-84.48816406 195.40308594 -83.72632813 194.55617188 -82.94140625 193.68359375 C-81.3559169 191.9366917 -79.75950631 190.19963968 -78.15234375 188.47265625 C-32.48067281 139.18199395 -11.35907119 69.08825787 -3.921875 3.4921875 C-3.43076695 0.17187006 -3.38567932 0.08257754 0 0 Z M-0.5625 106.0625 C-0.72218262 106.81418457 -0.88186523 107.56586914 -1.04638672 108.34033203 C-10.54958519 152.45517969 -24.99557062 199.60155485 -56.5625 233.0625 C-57.44035156 234.01962891 -57.44035156 234.01962891 -58.3359375 234.99609375 C-65.33430894 242.37231153 -73.91377584 247.42543695 -82.74047852 252.31030273 C-85.85848312 254.0416426 -88.7730747 255.83645617 -91.5625 258.0625 C-90.42554688 258.65675781 -89.28859375 259.25101563 -88.1171875 259.86328125 C-45.02200134 282.8195661 -24.83332066 324.31378346 -10.48046875 369.42578125 C-6.50950007 382.47549494 -3.39429162 395.72426468 -0.5625 409.0625 C-0.2325 409.0625 0.0975 409.0625 0.4375 409.0625 C0.5826001 408.36503662 0.7277002 407.66757324 0.87719727 406.94897461 C6.52706506 380.04662401 14.47090463 355.21260972 25.4375 330.0625 C25.82083496 329.1770752 26.20416992 328.29165039 26.59912109 327.37939453 C38.63421227 299.82611521 56.1349918 277.47696056 82.61669922 262.81347656 C85.73468534 261.08313153 88.64850038 259.28820413 91.4375 257.0625 C90.58929687 256.67320312 89.74109375 256.28390625 88.8671875 255.8828125 C46.35911402 235.6097313 27.57852937 195.5075861 12.4375 153.0625 C7.24737497 137.64812381 3.21438692 122.08440675 0.4375 106.0625 C0.1075 106.0625 -0.2225 106.0625 -0.5625 106.0625 Z " fill="#000000" transform="translate(748.5625,63.9375)"/>
<path d="M0 0 C2.37890625 0.4765625 2.37890625 0.4765625 5 2 C5.91213347 4.88790734 6.47732071 7.41073969 6.9375 10.375 C7.2589124 12.11453493 7.58726778 13.85279864 7.921875 15.58984375 C8.09396484 16.48687012 8.26605469 17.38389648 8.44335938 18.30810547 C15.22860967 51.1213378 32.91180964 84.94039594 60.75 104.4375 C62.35298005 105.57666045 63.95584508 106.71598277 65.55859375 107.85546875 C66.3254248 108.3973584 67.09225586 108.93924805 67.88232422 109.49755859 C70.54614894 111.38747989 73.18066386 113.31585238 75.8125 115.25 C87.55278364 123.77059979 99.56846098 131.53928315 112 139 C113.11246094 139.6703125 114.22492188 140.340625 115.37109375 141.03125 C117.5781316 142.35860326 119.78718089 143.68231626 122 145 C121.796875 147.30444336 121.796875 147.30444336 121 150 C118.953125 151.66235352 118.953125 151.66235352 116.25 153.12890625 C115.25734131 153.68280029 114.26468262 154.23669434 113.24194336 154.80737305 C112.17210205 155.38656494 111.10226074 155.96575684 110 156.5625 C99.4917567 162.46411339 89.67931645 168.83959132 80 176 C78.67123463 176.97095829 77.34180791 177.94101218 76.01171875 178.91015625 C73.4796223 180.75755315 70.95404342 182.61331229 68.43359375 184.4765625 C65.37859617 186.73154266 62.28407259 188.92743236 59.1875 191.125 C29.30878683 213.00364352 14.22783808 248.47377612 6.52099609 283.67724609 C5.74536644 287.13523134 4.87532826 290.5660199 4 294 C2.68 294 1.36 294 0 294 C-0.15855469 293.28199219 -0.31710937 292.56398438 -0.48046875 291.82421875 C-1.13883704 288.90339145 -1.81628578 285.98774025 -2.50830078 283.07470703 C-2.83866189 281.6807603 -3.16510225 280.28587905 -3.48779297 278.89013672 C-9.55146584 252.94041276 -19.97778519 228.67861113 -37 208 C-37.69351563 207.14277344 -38.38703125 206.28554688 -39.1015625 205.40234375 C-47.53007007 195.48735393 -58.23393376 188.41582676 -68.92504883 181.17382812 C-72.84202872 178.51496185 -76.67032154 175.77564158 -80.44750977 172.92211914 C-89.13213836 166.37130014 -98.32429571 160.84885832 -107.70654297 155.36035156 C-111.17662903 153.30208889 -114.59230465 151.15959971 -118 149 C-117.54362601 144.45298582 -117.54362601 144.45298582 -115.14916992 142.45776367 C-114.35099854 142.03213135 -113.55282715 141.60649902 -112.73046875 141.16796875 C-111.40668213 140.442146 -111.40668213 140.442146 -110.05615234 139.70166016 C-109.10949707 139.2019873 -108.1628418 138.70231445 -107.1875 138.1875 C-105.24449009 137.11879587 -103.3030697 136.04719653 -101.36328125 134.97265625 C-100.42822754 134.45848145 -99.49317383 133.94430664 -98.52978516 133.41455078 C-88.32050986 127.70594809 -79.06924158 120.4286081 -69.69921875 113.46484375 C-66.23158268 110.89416767 -62.72878704 108.38480659 -59.18969727 105.91381836 C-27.02960822 83.40578892 -10.70726086 47.71614104 -2.52099609 10.32275391 C-1.74536644 6.86476866 -0.87532826 3.4339801 0 0 Z M1 61 C0.47212891 62.8871875 0.47212891 62.8871875 -0.06640625 64.8125 C-9.24323393 96.92981955 -26.0405529 128.76797925 -55 147 C-52.88610322 148.6124608 -50.75646724 150.1649487 -48.5546875 151.65625 C-22.54988385 169.54876796 -6.29536153 203.03841405 1 233 C1.66 233 2.32 233 3 233 C3.30550781 231.82308594 3.61101562 230.64617187 3.92578125 229.43359375 C9.30717985 209.68353621 17.87248935 191.50341655 30 175 C30.62648438 174.1440625 31.25296875 173.288125 31.8984375 172.40625 C33.54984253 170.22430308 35.25228207 168.105297 37 166 C37.61230469 165.24203125 38.22460938 164.4840625 38.85546875 163.703125 C43.62235121 158.03234268 48.83309113 154.04834494 55 150 C56.3409568 149.01024617 57.6769321 148.01354284 59 147 C58.16597656 146.45472656 57.33195312 145.90945313 56.47265625 145.34765625 C30.951227 128.38665868 14.19601365 99.36055061 5.6472168 70.32788086 C4.67991537 67.04835138 3.67056942 63.99183796 2 61 C1.67 61 1.34 61 1 61 Z " fill="#000000" transform="translate(983,555)"/>
</svg>
