<?xml version="1.0" encoding="utf-8"?>
<!-- Generator: Adobe Illustrator 16.0.0, SVG Export Plug-In . SVG Version: 6.00 Build 0)  -->
<!DOCTYPE svg PUBLIC "-//W3C//DTD SVG 1.1//EN" "http://www.w3.org/Graphics/SVG/1.1/DTD/svg11.dtd">
<svg version="1.1" xmlns="http://www.w3.org/2000/svg" xmlns:xlink="http://www.w3.org/1999/xlink" x="0px" y="0px"
	 width="400.152px" height="400.152px" viewBox="0 0 400.152 400.152" enable-background="new 0 0 400.152 400.152"
	 xml:space="preserve">
<g id="Calque_1">
</g>
<g id="Calque_2">
</g>
<g id="Calque_3">
</g>
<g id="Calque_4">
</g>
<g id="Calque_5">
</g>
<g id="Calque_6">
</g>
<g id="Calque_7">
</g>
<g id="Calque_8">
</g>
<g id="Calque_9">
</g>
<g id="Calque_10">
</g>
<g id="Calque_11">
</g>
<g id="Calque_12">
</g>
<g id="Calque_13">
</g>
<g id="Calque_14">
</g>
<g id="Calque_15">
</g>
<g id="Calque_16">
	<g>
		<g>
			<g>
				<g>
					<g>
						<g>
							<path fill="#202020" d="M400.056,193.401c0.21,0.859,0.091,2.813-0.489,2.427l-0.412-3.311L400.056,193.401z"/>
							<path fill="#202020" d="M396.152,199.532c-0.682-1.604-1.469-4.424-1.027-7.464c0.675,3.182,0.839,1.854,1.566,5.64
								c0.581,0.386,1.014-1.062,0.916-2.28c0.205,0.85,0.901-0.728,1.214,1.351c-0.755,2.563-1.712,2.666-2.712,0.552
								C395.895,198.058,396.103,198.922,396.152,199.532z"/>
							<path fill="#202020" d="M339.427,204.693l0.366-0.394C339.692,204.518,339.567,204.637,339.427,204.693z"/>
							<path fill="#202020" d="M304.281,206.51c0.268,0.078,0.379,0.407,0.393,0.708C304.425,207,304.221,206.798,304.281,206.51z"
								/>
							<path fill="#202020" d="M298.28,210.157c0.128-0.105,0.237-0.151,0.354-0.225
								C298.499,210.237,298.363,210.406,298.28,210.157z"/>
							<path fill="#202020" d="M339.427,204.693l-0.939,1.04C338.422,204.654,338.969,204.933,339.427,204.693z"/>
							<path fill="#202020" d="M388.33,191.549c0.196,0.161,0.36,0.469,0.51,0.869c-0.162-0.142-0.317-0.262-0.479-0.35
								C388.351,191.897,388.342,191.753,388.33,191.549z"/>
							<path fill="#202020" d="M354.92,207.376l0.286,0.005c0.084,0.376,0.163,0.833,0.237,1.346L354.92,207.376z"/>
							<path fill="#202020" d="M366.811,207.884c-0.269,0.122-0.362-2.688-0.465-3.916c0.151,1.157,0.35,1.709,0.586,1.927
								C366.936,206.429,366.901,207.068,366.811,207.884z"/>
							<path fill="#202020" d="M385.665,202.938l0.334,0.391C385.912,203.206,385.766,203.094,385.665,202.938z"/>
							<path fill="#202020" d="M346.41,207.984c-0.021,0.417-0.063,0.783-0.108,1.006
								C346.302,208.636,346.344,208.302,346.41,207.984z"/>
							<path fill="#202020" d="M13.839,186.861c0.01,0.2-0.004,0.327-0.001,0.5C13.769,187.078,13.748,186.878,13.839,186.861z"/>
							<path fill="#202020" d="M0.056,200.782l0.191,0.151c0.02,0.532,0.041,1.055,0.041,1.574L0.056,200.782z"/>
							<path fill="#202020" d="M287.298,213.758c0.021-0.031,0.029-0.031,0.049-0.054
								C287.636,214.024,287.472,213.968,287.298,213.758z"/>
							<path fill="#202020" d="M186.481,211.686c1.142-2.513-1.858-3.228-0.139-6.016
								C186.182,206.769,187.905,210.052,186.481,211.686z"/>
							<path fill="#202020" d="M388.022,191.917c-0.161-0.031-0.324-0.056-0.488-0.029
								C387.756,191.798,387.906,191.81,388.022,191.917z"/>
							<path fill="#202020" d="M186.343,205.67c0-0.013,0-0.024,0-0.024l0.177-0.264C186.447,205.5,186.405,205.568,186.343,205.67z
								"/>
							<path fill="#202020" d="M261.994,212.068c0.052-0.495,0.153-0.871,0.258-1.23
								C262.244,211.126,262.186,211.478,261.994,212.068z"/>
							<path fill="#202020" d="M280.845,208.069l-0.466,0.376C280.563,208.189,280.713,208.102,280.845,208.069z"/>
							<path fill="#202020" d="M252.207,208.102c-0.254,0.215-0.34,0.603-0.687,0.227c0.032-0.144,0.064-0.244,0.105-0.344
								C251.751,208.37,251.918,208.548,252.207,208.102z"/>
							<path fill="#202020" d="M242.02,208.084c0.054-0.215,0.125-0.376,0.188-0.566c0.101,0.057,0.219,0.101,0.323,0.151
								L242.02,208.084z"/>
							<path fill="#202020" d="M44.799,188.214c-0.223,0.791-0.362,1.662-0.47,2.524C44.486,188.741,42.989,188.028,44.799,188.214z
								"/>
							<path fill="#202020" d="M388.325,193.128c-0.06-0.71-0.146-1.06-0.303-1.211c0.117,0.032,0.229,0.088,0.339,0.151
								C388.391,192.486,388.397,192.882,388.325,193.128z"/>
							<path fill="#202020" d="M251.792,185.926l-1.619,0.415C250.626,186.067,251.215,185.926,251.792,185.926z"/>
							<path fill="#202020" d="M117.884,188.614l-0.372-0.337C117.656,188.214,117.788,188.294,117.884,188.614z"/>
							<path fill="#202020" d="M245.371,185.926c-0.289,0.991-0.595,1.567-0.912,1.943c-0.067-0.22-0.143-0.4-0.188-0.725
								L245.371,185.926z"/>
							<path fill="#202020" d="M44.325,190.77c0.002-0.024,0.003-0.031,0.003-0.031S44.328,190.746,44.325,190.77z"/>
							<path fill="#202020" d="M33.664,184.093c1.542-0.081,0.724,3.615,1.051,5.737c1.841,1.047,0.852-2.723,1.479-4.612
								c1.149,0.979,2.031,4.37,2.888,4.227c0.064-0.608,0.23-0.83,0.035-1.592c1.215,2.937,3.607,0.144,5.023,3.833
								c0.105-0.327,0.158-0.638,0.185-0.916c-0.229,1.849-0.264,3.73-0.218,5.068c0.691,0.063,1.283,2.334,1.543-0.08
								c-0.424,0.07-0.459-0.903-0.657-1.658l0.724,1.05c0.652-3.472-0.989-1.201-0.989-3.771c1.413,1.13,3.059,4.004,4.142,3.022
								c0.226-3.396-2.531-1.143-1.087-4.163l-1.675,1.299c1.28-5.358-1.018,0.374,0.158-5.358c2.204-0.984,2.465,1.73,4.664,0.739
								c0.495,1.888-0.164,2.791,0.332,4.681c3.125,3.391,2.46-8.54,4.757-4.017c0.595,2.264,0.826,6.561,2.461,4.287l-0.558-3.84
								c2.134-0.379,1.218,5.52,3.453,2.937c-0.397-1.509-1.677-1.271-1.354-1.729c1.448-3.032,1.024,2.178,2.137,2.178l0.23-3.4
								c2.272,0.534,4.775,2.99,7.291,3.61c-0.139-1.011-0.57-2.075,0.018-3.115c3.174,1.699,6.775-0.415,9.836-2.432l1.17,2.935
								c0.271-0.034,0.504-1.325,0.21-1.895c1.193-1.113,0.062,1.86,0.635,3.016c0.679,0.205,0.896-1.688,0.466-2.568
								c2.105,2.487,5.997,5.361,8.215,2.217l-0.433-0.872c1.728-1.191,1.949,6.016,3.551,3.279l-0.307-0.521
								c3.749-1.271,7.891,1.416,10.751-3.015c0.544,4.229,3.71-1.885,3.952,4.011c2.14-2.922,1.527-3.975,4.542-5.939
								c0.805-0.271,1.2,3.682,2.196,4.297l0.024-3.084l1.351,3.235l0.719-3.687l0.934,0.791c-0.372,0.181-0.791,1.384-0.734,2.271
								c1.458,1.396,3.556-2.146,3.592-3.726l3.45,2.607c-0.077-1.24-0.654-1.665-1.111-2.456c1.842,3.145,0.334-3.247,2.022-0.364
								c-0.227,0.698,0.122,1.836,0.16,2.459c0.841-1.863,2.756-1.88,4.173-1.094l-0.272-2.127c2.559-0.539,5.395,1.021,8.268,0.981
								c-1.03,0.989-0.794,4.673,0.049,5.027l0.336-3.252c0.544,2.009-0.879,1.226,0.237,3.688c1.073-0.376,0.722-3.703,0.105-4.766
								l1.304,1.131c0.077-0.972-0.229-1.484-0.309-2.725c0.535,2.023,2.252-3.27,3.024,0.244l0.073-0.97
								c2.871-0.026,4.173,1.094,6.512,1.258c0.045,2.813,0.96,2.188,1.657,4.46c1.718-0.898,3.626-3.107,5.698-2.868
								c1.455,1.398,0.425,2.38,1.079,4.05c0.107-2.559,2.175-2.319,1.103-4.157c2.485,0.415,3.175,0.508,6.318,2.588
								c-0.341,1.05-0.725,1.506-0.526,2.38c0.57,0.42,1.298-1.074,1.216-2.305l-0.151-0.264c3.529,3.838,8.144-7.468,10.954-2.129
								l-0.157-0.264l2.914,2.781c1.34-0.442-0.804-1.924,0.188-3.509c3.143,4.272,4.966-0.62,7.554,2.227
								c2.003-7.556,7.109,0.532,9.814-4.292l-0.156,1.78c0.699,1.745,0.846-1.019,1.361-1.426
								c-0.073,1.382-0.758,1.599-0.324,2.565c5.921,2.144,12.221-2.6,18.292-4.206c2.22-0.477,1.26,9.206,4.059,4.958l-0.794-3.303
								c4.48,3.967,9.162-0.137,13.547,3.225c-0.261-0.762-0.269-1.753-0.697-1.74c0.926-2.4,3.426-0.117,3.441,1.841
								c0.683-0.223,0.158-1.771,0.579-2.767c0.929-1.416,2.333,3.064,2.827,0.677c0.083-0.391-0.261-0.779-0.432-0.965
								c0.605,1.162,2.821-0.295,2.242,2.474c1.646-1.321,3.149,1.23,4.462-0.408c0.856,3.096,2.818-1.491,3.09,2.889
								c-0.118-4.524,2.886-3.65,3.927-1.521c-0.348-1.367,0.905-1.418,0.497-3.311c1.188,0.063,2.276,0.903,2.069,3.228
								c2.188-5.412,4.398,4.355,5.631-2.58c3.528,2.432,6.793,4.074,9.968,5.137c-0.115-4.512-3.509-0.452-3.373-5.186
								c3.011,1.857,4.748,5.729,7.734,4.641c0.773-0.617-0.439-1.955-0.7-2.727c3.008,1.857,5.817-0.41,8.494,2.046
								c-0.008-0.42-0.296-0.879-0.569-1.224c0.528,0.149,1.227-0.656,1.167,1.387l-0.514-0.554
								c-0.843,2.976,2.095,6.216,2.189,7.788c-0.896-5.877,2.644-1.478,1.222-8.904c0.347,0.389,0.783,1.36,0.703,2.732
								c0.515-0.4,0.679-1.201,0.156-2.762c1.89,1.116,1.218,3.296,2.931,3.25c-0.006-0.994-0.352-1.377-0.529-2.544
								c0.867,1.934,1.738,3.872,3.185,3.032c-0.087-0.599,0.081-1.377-0.351-1.362c2.485,0.3,4.235,5.153,6.961,3.283
								c-0.804-4.312,0.927-1.418,1.072-5.151l1.466,1.113l-0.589,1.812c1.285-0.063,2.419,2.656,3.522,1.434l-0.954-1.538
								l2.406,0.708l-1.362,1.416c1.299,1.924-0.139,4.724,1.57,3.684c-0.347-0.376,1.284-0.046,1.954-2.246c0,0-0.004,0-0.004-0.01
								c0.635,1.189,1.289,2.441,2.238,1.514c0.246-1.193-0.199-4.128-0.038-4.924c0.626,3.12,3.007,0.866,3.8,4.191
								c-0.265-0.781-0.278-2.741-0.191-3.14l0.525,2.534c0.595-0.811,0.682-1.203,0.585-2.766c1.789-0.464-0.568,4.736,1.555,2.695
								c-0.167-0.205-0.087-0.584-0.435-0.97c2.133-1.064,4.12,1.609,6.08,0.361c0.578-3.757-1.712-0.92-1.051-4.089
								c2.826,0.681,5.851,4.502,8.585,3.618l-0.51,0.415c0.379,5.303,2.036-2.62,3.419-0.12c-0.338-0.393-0.444-2.944-0.353-2.354
								c1.873-0.852,3.828,1.304,6.666,2.974l-0.352-1.364c1.104-1.216,2.906-0.701,4.098-1.321c0.354,1.36,1.036,1.141,0.621,3.12
								c3.675-7.759,7.011,4.16,10.271-2.305c-0.39-0.015-0.929-1.191-0.619-1.191l2.778,1.25c-0.22,2.31-0.364,1.399-0.948,3.198
								c0.352,1.37,1.136,2.432,1.824,2.432c-1.25-1.53,0.01-3.711,0.55-5c-0.09,0.708,0.095,1.489,0.049,2.21
								c1.451-4.111,0.243,4.648,2.225,1.88l-0.105-1.214c0.742,0.62,1.425,2.225,2.225,1.878c0.331-2.674-0.79-1.248-0.84-3.447
								c1.123,0.153,2.216,5.063,3.232,2.399c-0.477-0.744-1.164-0.757-1.64-1.496c1.106-3.14,1.235-2.342,2.058-2.84l-0.081,0.071
								l1.901-1.421l-0.484,0.85c1.405,6.97,2.862,1.274,4.754,5.84c-1.839-4.321-0.304-2.5-0.445-5.53
								c0.483-0.84,1.218-1.782,1.009-2.634c0.895,2.443,1.494-1.924,2.757,1.647c0.056-0.972,0.957-0.095,0.755-2.544
								c1.163,0.767-0.275,1.697-0.177,2.92c1.793,3.333,4.215-4.04,6.794,0.532c2.224,1.88,2.635,5.169,4.699,6.807
								c0.697-1.56-0.57-3.552-0.57-3.552c1.124-1.436,1.969-1.172,3.028-0.057c-0.214-0.85,0.006-1.569,0.329-2.663
								c0.85,0.254,0.568,3.55,1.689,2.111c-0.192-1.086-0.438-2.827-0.849-3.918c1.001,0.898,1.991,2.72,3.027,3.599
								c0.275-1.699-0.626-2.578-0.991-3.687c1.165,0.764,3.019,1.538,3.379,4.229l-0.748,0.959c0.425,0.132,0.219-2.31-0.095-2.8
								c-0.999-2.109-1.44,0.93-1.497,1.911l0.738,0.625c-0.759,5.721-2.966-0.918-4.452-0.586l0.619,4.16l-1.524-3.452
								c-0.324,1.082-0.546,3.406,0.188,4.028c-1.065,2.054-0.943-1.479-1.859,0.813c-0.101,0.356-0.055,0.557,0.039,0.72
								l-1.041-1.237c0.204,0.874-0.173,2.937,0.466,2.336c-1.869,2.4-3.014-3.12-3.717,0.032l0.156,0.256
								c-2.593-1.406-0.25-3.057-2.196-6.638l-1.309,7.531l-0.255-3.052c-0.268,0.11-0.797,0.34-0.699,1.561
								c-0.996-2.09,0.17-1.328-0.408-3.301c-1.287,2.78-3.55-1.302-3.84,3.564c-0.462-2.322,1.231-1.792-0.143-3.406
								c-0.392,5.232-1.589-0.896-2.765,1.504c0.361,2.7,1.475,1.27,0.298,3.682c-0.709-4.565-2.29,0.999-3.282,0.125
								c-0.047-3.633-2.157-1.517-3.822-2.725c0.105,1.218-3.132,1.994-4.681,3.308l0.046,0.61c-0.3-3.672-1.897-2.979-3.061-3.74
								c0.046,2.2,0.255,3.066,0.885,4.051l-1.093-0.018c-0.258-1.177-0.599-1.797-1.309-2.217l0.275,2.744
								c-1.455-0.151-2.93-3.232-4.803-1.398c-0.105-2.562,1.489-7.132-0.491-8.841c-0.073,1.385-0.146,3.753,0.372,4.319
								c-0.17-0.179-0.605-1.15-0.947-0.56l0.792,2.329c-0.853,1.023-0.446-1.945-1.128-1.729c0.014,1.976-0.504,1.409-0.407,2.977
								c0.174,0.19,0.595-0.818,0.856-0.042c-0.769,0.354-1.699,1.526-2.005,3.021c0.066-1.123,0-2.659-0.563-2.915
								c-1.455-0.145-0.498,2.375-1.347,3.389c-0.353-1.37-1.281,0.051-1.306-2.9c-0.426,0.015-0.504,1.392-0.669,2.192
								c-0.753-1.304-3.518-0.374-2.669-3.514l0.193-0.207c-0.036-0.062-0.079-0.063-0.123-0.13c0.006,0,0,0,0.006,0h-0.006
								c-2.469-2.935-5.128,1.673-7.578,0.41l0.004,0.986c-1.462-1.128-3.254-0.666-4.299-2.79
								c-0.432,0.002-1.021,1.804-0.836,2.979c-1.117-0.742-1.243-1.851-2.857-0.223c1.124,1.724-0.388,1.526,1.152,1.263
								c-1.452,0.852-1.782,2.434-3.341-0.267c0.531,2.532-1.093,3.187-1.784,2.432l1.018-1.812
								c-0.776-0.368-1.455-0.144-2.145,0.071l0.373,3.327c-2.972,4.048-5.36-6.887-7.623-0.112
								c-0.786-2.326,1.615-1.638,0.912-4.36c-1.367,0.449-2.792,5.225-3.22,5.234c-1.873,1.844-1.747-4.86-3.707-3.601
								c0.25-1.185,0.487-4.354-0.977-5.472c-1.368,0.439-1.682,4.979-0.818,5.931c0.328,0.1,0.486-0.278,0.473-0.679
								c0.441,0.432,1.021,0.939,0.48,2.227l-0.177-1.187c-0.679,1.211-2.561,1.084-2.119,3.032
								c-1.034-1.133-0.442-1.948,0.324-2.563c-1.755,1.719-2.742,0.051-4.547,1.206c0.287-0.654,0.551-2.049,0.266-2.036
								c-2.649,1.47-1.166-2.251-2.961-2.771c-1.02,1.81,0.365,4.319-1.441,2.803c-1.104,1.226-0.234,3.149,0.205,4.116
								c-1.646-2.287-3.076,1.504-4.016,1.924l0.867,0.957c-0.519-0.568-0.943-0.552-1.375-0.547l0.495-2.373
								c-0.509,0.413-0.94,0.425-0.93,1.411c-0.525-1.555,0.401-3.947-0.64-6.074c-0.679,1.206-2.067-1.294-2.302,1.855
								c2.135-1.069-0.236,3.164,1.571,3.672c-0.349-0.376-0.773-0.361-1.285,0.057c-0.076,0.352,0.072,0.651,0.211,0.832
								c-2.042,2.815-0.939-3.562-3.056-3.488c0.269,1.774-0.491,3.366-0.836,2.988c0.853-0.037,0.408-2.962-0.375-4.321
								c-1.357,1.382-1.476-1.028-2.186-0.867l0.812-0.651c-0.275-1.772-0.954-1.541-1.9-2.1c-0.081,1.382,0.859,0.949,0.521,1.56
								c-1.05-3.12-2.374,3.23-3.839,1.128c-0.679,1.204-0.066,3.335-0.662,4.15c-1.642-2.302-1.778,2.432-3.504,0.53
								c0.497-2.386,0.584-1.802-0.631-4.129l2.837,1.68l-1.821-3.469c0.856-0.034,1.807,1.501,2.32,1.094
								c-0.868-1.946-0.778-1.353-0.369-3.333c-1.171,3.579-2.323-2.085-3.677,0.332l0.042,5.908
								c-2.037,2.632-3.618-3.032-6.262-1.545l0.85-1.028c-0.355-2.349-1.632-0.327-2.489-1.279c0.08,1.976-0.456,2.69-0.821,3.921
								c0.045-1.465-1.935,0.135-2.175-3.809l-1.18,2.601c-2.135,1.064-2.437-5.625-4.489-4.954c0.618,2.146-0.314,3.545,1.06,5.081
								c-0.685,0.02-1.301,0.381-1.312-0.989c-0.4,1.238-1.9-2.658-2.53-0.783c-0.289-0.867-0.384-2.935-1.152-2.771
								c-0.084,0.4,0.003,0.977,0.003,0.977c-0.003-0.977-1.205-1.328-0.532-3.513c-2.11,6.159-5.899-0.447-7.737,4.841
								c-1.495-0.661-3.297-1.296-4.654-1.44c0.087,0.591,0.004,0.984,0.261,0.779c-1.873,1.836-1.151-5.667-3.282-3.618
								c-1.089,3.19,1.131,1.726,0.453,2.935c-0.295,6.496-2.572-0.887-4.006,2.905l0.348,0.383
								c-1.096,2.207-2.675-2.461-4.466-1.997c0,0,0.087,0.574,0.011,0.981c-1.225-3.313-3.543-4.409-5.267-5.329
								c0.537,2.541,0.783,1.345,0.456,3.928c-0.772-0.366,0.226-4.147-1.315-4.87c-0.501,1.392-1.613,2.607-1.761,5.363
								l1.454,0.149c-0.745,3.566-1.882-0.122-2.648,0.498l0.098,1.558c-2.229-0.506-2.259-4.434-4.655-4.153l0.248-1.179
								c-1.309-3.892-1.097,2.188-2.403-0.706l-0.395,3.948c-0.864-0.952-3.025-3.816-4.574-4.559
								c0.877,2.928,2.689,4.424,3.811,6.162c-0.856,0.029-2.91-0.29-3.355-2.238c0.345,0.381,0.78,1.348,1.121,0.739
								c-1.051-3.103-2.433-4.629-4.139-4.561c0.303,7.651-4.446,1.929-5.684,7.871c-3.018-2.829-5.987,1.209-9.502,0.755
								c1.247-5.952-1.026-0.169-0.811-6.284c-0.819-0.389-1.131-0.288-1.205,0.107l-2.481,3.652
								c-0.588,1.779,0.779,1.348,0.703,2.72c-1.793,0.469-0.752,2.59-1.938,4.216c0.243-2.188-0.624-3.132-1.645-2.297l1.439-2.82
								c-2.506-3.254-2.166,5.132-4.691,1.909l0.799,1.924c-1.296-1.135-4.781,0.039-6.052-4.873
								c-0.229,0.706-0.532,2.378,0.038,2.82c-3.097,0.737-6.895-5.228-9.302-2.202l0.235,1.494
								c-0.578-0.433-1.006-2.811-1.729-1.304c0.037,0.617,0.232,1.491-0.035,1.579c-0.306-0.515-1.535-2.619-2.301-1.748
								l0.654,1.683c-3.021,1.958-4.637-4.097-7.17-5.122c0.006,4.401-2.371,5.832-3.557,6.545l0.042,0.623
								c-3.518,0.544-5.976-3.647-9.234-5.376c-2.022,4.777-6.85,1.999-10.101,4.68c0.497-0.798-0.081-3.43-0.659-3.872
								c-0.763,0.894-2.108-3.054-1.987,0.981l0.272-0.075c-0.575,3.96-2.143,2.907-3.366,3.015l-0.202-5.28
								c-3.202,7.681-8.389-2.822-10.136,4.058c-0.772-1.321-1.729-1.307-2.495-2.625l0.042,2.832
								c-2.141,0.723-3.209,1.077-5.855,0.403l0.54,2.023c-1.492,0.188-1.884-8.164-3.261-8.33l-0.415,4.227
								c-2.604-0.066-5.239,3.645-7.812-0.188c0.042,0.62,0.119,1.841,0.541,2.012c-1.226,0.11-4.741,2.861-4.296-2.939
								c-0.031,3.777-2.686,0.369-4.093-1.296l0.219,2.785c-1.186-3.56-1.225-4.533-2.881-5.52
								c-0.393,0.363-0.344,2.231,0.177,1.519c-1.309,1.46-1.02-2.64-2.606-1.155l0.591,1.78c-1.347,0.215-1.24-0.74-1.981-2.815
								c-0.847-1.118-2.555,0.703-2.753,3.223c-0.182-1.535-0.918-3.591-1.712-2.863c-0.107,0.952,0.182,1.543,0.327,1.831
								c-2.252,1.896-3.348-3.24-4.897-0.503c-0.032,0.923-0.133,1.384-0.261,1.662c1.789-0.068,3.229-0.22,3.094-0.422
								c0,2.568-1.445,3.02-0.295,6.567c-1.16-1.937-3.143-6.146-4.551-4.937c-0.068,0.249-0.135,0.493-0.186,0.889l0.146,0.288
								c-0.325,0.256-0.616,0.017-0.89-0.415c-0.449,0.422-0.735,0.734-1.167,0.771c-0.167,2.126-1.657,1.147-2.377,1.25
								c0.06-2.811-0.884-2.358,0-4.678c-0.115,0.197,0.136,0.334,0.615,0.451c0.108,0.083,0.236,0.125,0.307,0.291
								c-0.014-0.072-0.031-0.158-0.049-0.247c0.473,0.081,1.09,0.145,1.791,0.188c-0.569-1.429-1.165-2.63-1.961-1.069
								c-0.37-1.807-0.776-3.665-1.006-4.536c-0.986,3.921-2.886,6.04-3.151,8.457c-2.2-1.577-5.182-1.04-6.565-6.321
								c-0.625-0.679-0.719,1.514-0.953,2.344c0.361,0.53,0.791,0.449,0.986,1.209c-1.25-1.355-3.705-0.527-4.003-4.217
								c-1.577,1.665,0.886,3.396-1.28,2.793l0.292,1.128c-4.261,5.896-6.927-9.416-11.65-1.848
								c0.327-0.464,0.491-0.679,0.558-1.297c-5.386,3.338-11.098-3.132-16.412,2.161c-1.511,1.066-1.674-1.289-2.596-3.081
								l-0.327,3.02l-1.576-3.483c-2.235-2.552-3.871,7.409-6.701,2.585l0.366-2.033c-1.017,0.386-3.22-1.199-3.05,1.14
								c-0.104-0.371-0.333-2.114-0.731-1.055l-0.031,1.58l-2.496-2.708c-1.935,1.143,0.303,6.272-2.521,6.58
								c-1.05-0.608-2.989-4.6-2.595-5.657c0.424-0.078,1.083-0.986,1.114-2.568l-0.96-0.822c-0.174-4.656-0.913-9.424,1.444-12.676
								l1.642,2.847l0.529-2.259l-1.382-0.142c0.784-2.126,1.281-0.246,1.838,1.045c0.132-1.201,0.362-2.041,0.688-2.487
								l1.612,4.448c0.195-1.824-0.724-3.616,0.359-4.622c0.755,2.065-0.724,4.085,0.526,5.439c0.786-2.114,0.557-3.838,1.479-2.031
								c0.13-1.198-0.066-1.963-0.431-2.49c0.821,1.438,2.172,0.608,2.596,3.084c0.819-2.612,2.771,0.679,2.69-3.729
								c0.258,1.055,1.446,3.46,2.2,3.643c-1.377-5.275,2.822-0.31,2.458-5.967c1.02,4.744,3.683,2.107,5.488,4.739
								c-0.101-0.376-0.299-1.141-0.458-0.898c1.016-0.394,1.312-1.824,1.965-2.72c0.131,3.918,1.713,4.814,2.566,7.231
								c1.246-3.782-0.756-4.6-0.365-8.232c-0.063,3.176,2.165,3.171,1.741,5.815c0.953-2.339,0.821-1.136,1.312-4.385
								c0.167,4.902,0.887,0.83,1.677,3.84c1.379-2.414,0.355-4.59,1.87-3.098C35.011,185.828,33.664,184.093,33.664,184.093z
								 M69.686,192.564c0-0.027,0-0.047,0-0.057c-0.31-0.066-0.575-0.123-0.744-0.158
								C69.097,192.389,69.312,192.444,69.686,192.564z M72.713,192.608c-0.369,0.109-0.828,0.129-1.313,0.109
								c-0.106,0.972,0.008,1.971,0.313,1.919C71.548,193.99,72.261,193.429,72.713,192.608z M66.31,212.088
								c0.479,0.398,0.64-0.153,0.706-0.729c-0.226-0.049-0.491-0.145-0.838-0.337c-0.015-0.091-0.041-0.249-0.057-0.345
								C66.167,211.214,66.219,211.717,66.31,212.088z"/>
							<path fill="#202020" d="M65.448,208.401c-0.069-0.063-0.107-0.181-0.197-0.205c0.098-0.246,0.191-0.459,0.286-0.632
								c0.058,0.302,0.117,0.607,0.17,0.881C65.619,208.431,65.529,208.416,65.448,208.401z"/>
							<path fill="#202020" d="M339.856,204.236l-0.063,0.063c0.053-0.112,0.102-0.222,0.134-0.4
								C339.884,204.036,339.884,204.124,339.856,204.236z"/>
							<polygon fill="#202020" points="114.513,187.229 114.509,187.938 114.244,187.317 							"/>
							<path fill="#202020" d="M356.528,194.588c0.032-0.246,0.095-0.503,0.219-0.72
								C356.738,194.054,356.643,194.31,356.528,194.588z"/>
							<path fill="#202020" d="M363.73,193.958l1.019-1.001C364.308,193.526,363.987,193.797,363.73,193.958z"/>
							<path fill="#202020" d="M369.268,192.564c0.07,0.493,0.09,0.864,0.108,1.203c-0.004,0.01-0.008,0.01-0.011,0.022
								L369.268,192.564z"/>
							<path fill="#202020" d="M281.227,189.261c-0.074-0.015-0.148-0.051-0.214-0.127
								C280.512,188.59,280.853,188.805,281.227,189.261z"/>
							<path fill="#202020" d="M307.427,195.828c-0.278-0.51-0.552-1.011-0.842-1.328
								C307.051,194.285,307.413,194.229,307.427,195.828z"/>
							<path fill="#202020" d="M251.97,185.877c0.002,0.03,0.001,0.016,0.003,0.049c-0.063-0.01-0.118,0-0.181,0L251.97,185.877z"/>
							<path fill="#202020" d="M305.366,194.549c0.466-0.559,0.856-0.439,1.218-0.049
								C306.202,194.688,305.752,194.977,305.366,194.549z"/>
							<path fill="#202020" d="M393.267,191.29l0.267-0.117c-0.004,0.186,0.012,0.337,0.032,0.451L393.267,191.29z"/>
							<path fill="#202020" d="M393.565,191.624l0.296,0.332C393.726,191.956,393.608,191.935,393.565,191.624z"/>
							<path fill="#202020" d="M394.485,192.664l-0.624-0.708C394.078,191.949,394.344,191.861,394.485,192.664z"/>
							<path fill="#202020" d="M385.937,192.589l-0.083-1.021C385.898,191.778,385.928,192.107,385.937,192.589z"/>
							<path fill="#202020" d="M383.709,192.293c0.531-0.231,1.333-2.175,2.074-1.535l0.069,0.811
								C385.504,190.052,384.214,194.012,383.709,192.293z"/>
							<path fill="#202020" d="M374.412,204.894l1.866-0.815c-0.326,1.086-0.755,2.546,0.093,2.808
								C374.019,210.125,376.857,204.456,374.412,204.894z"/>
							<path fill="#202020" d="M368.624,206.468c1.002,0.506-0.012,1.577,0.041,2.19
								C368.029,207.669,367.875,207.418,368.624,206.468z"/>
							<path fill="#202020" d="M326.797,206.478l0.101,2.559C326.125,208.668,326.891,208.045,326.797,206.478z"/>
							<polygon fill="#202020" points="318.802,193.258 319.554,191.668 319.912,194.012 							"/>
							<polygon fill="#202020" points="314.079,211.478 314.416,211.844 313.126,210.916 							"/>
							<path fill="#202020" d="M243.832,210.569l0.233-3.151C244.588,207.984,244.697,211.524,243.832,210.569z"/>
							<path fill="#202020" d="M213.505,207.361c-0.331,1.575-1.183,2.588-1.709,1.04
								C212.478,208.185,213.158,206.956,213.505,207.361z"/>
							<polygon fill="#202020" points="122.556,212.493 123.166,213.548 122.016,212.669 							"/>
						</g>
					</g>
				</g>
			</g>
		</g>
		<g>
			<g>
				<g>
					<g>
						<g>
							<path fill="#202020" d="M206.71,0.056c-0.859-0.21-2.813-0.091-2.427,0.489l3.311,0.412L206.71,0.056z"/>
							<path fill="#202020" d="M200.579,3.959c1.604,0.682,4.424,1.469,7.464,1.027c-3.182-0.675-1.854-0.839-5.64-1.566
								c-0.386-0.581,1.062-1.014,2.28-0.916c-0.85-0.205,0.728-0.901-1.351-1.214c-2.563,0.755-2.666,1.712-0.552,2.712
								C202.054,4.216,201.189,4.008,200.579,3.959z"/>
							<path fill="#202020" d="M195.418,60.685l0.394-0.366C195.594,60.419,195.475,60.544,195.418,60.685z"/>
							<path fill="#202020" d="M193.602,95.831c-0.078-0.268-0.407-0.379-0.708-0.393C193.111,95.687,193.313,95.89,193.602,95.831z
								"/>
							<path fill="#202020" d="M189.954,101.831c0.105-0.128,0.151-0.237,0.225-0.354
								C189.874,101.612,189.705,101.748,189.954,101.831z"/>
							<path fill="#202020" d="M195.418,60.685l-1.04,0.939C195.457,61.689,195.179,61.142,195.418,60.685z"/>
							<path fill="#202020" d="M208.563,11.781c-0.161-0.196-0.469-0.36-0.869-0.51c0.142,0.162,0.262,0.317,0.35,0.479
								C208.214,11.761,208.358,11.77,208.563,11.781z"/>
							<path fill="#202020" d="M192.735,45.191l-0.005-0.286c-0.376-0.084-0.833-0.163-1.346-0.237L192.735,45.191z"/>
							<path fill="#202020" d="M192.228,33.301c-0.122,0.269,2.688,0.362,3.916,0.465c-1.157-0.151-1.709-0.35-1.927-0.586
								C193.683,33.175,193.043,33.21,192.228,33.301z"/>
							<path fill="#202020" d="M197.174,14.446l-0.391-0.334C196.905,14.199,197.018,14.346,197.174,14.446z"/>
							<path fill="#202020" d="M192.127,53.701c-0.417,0.021-0.783,0.063-1.006,0.108C191.476,53.81,191.81,53.768,192.127,53.701z"
								/>
							<path fill="#202020" d="M213.25,386.272c-0.2-0.01-0.327,0.004-0.5,0.001C213.033,386.343,213.233,386.364,213.25,386.272z"
								/>
							<path fill="#202020" d="M199.329,400.056l-0.151-0.191c-0.532-0.02-1.055-0.041-1.574-0.041L199.329,400.056z"/>
							<path fill="#202020" d="M186.354,112.813c0.031-0.021,0.031-0.029,0.054-0.049
								C186.087,112.476,186.144,112.639,186.354,112.813z"/>
							<path fill="#202020" d="M188.426,213.63c2.513-1.142,3.228,1.858,6.016,0.139C193.343,213.929,190.06,212.206,188.426,213.63
								z"/>
							<path fill="#202020" d="M208.194,12.089c0.031,0.161,0.056,0.324,0.029,0.488C208.313,12.355,208.302,12.205,208.194,12.089z
								"/>
							<path fill="#202020" d="M194.441,213.769c0.013,0,0.024,0,0.024,0l0.264-0.177
								C194.611,213.665,194.543,213.706,194.441,213.769z"/>
							<path fill="#202020" d="M188.043,138.117c0.495-0.052,0.871-0.153,1.23-0.258
								C188.985,137.868,188.634,137.926,188.043,138.117z"/>
							<path fill="#202020" d="M192.042,119.266l-0.376,0.466C191.922,119.548,192.01,119.398,192.042,119.266z"/>
							<path fill="#202020" d="M192.01,147.904c-0.215,0.254-0.603,0.34-0.227,0.687c0.144-0.032,0.244-0.064,0.344-0.105
								C191.741,148.36,191.563,148.193,192.01,147.904z"/>
							<path fill="#202020" d="M192.027,158.092c0.215-0.054,0.376-0.125,0.566-0.188c-0.057-0.101-0.101-0.219-0.151-0.323
								L192.027,158.092z"/>
							<path fill="#202020" d="M211.897,355.313c-0.791,0.223-1.662,0.362-2.524,0.471
								C211.37,355.626,212.083,357.122,211.897,355.313z"/>
							<path fill="#202020" d="M206.983,11.787c0.71,0.06,1.06,0.146,1.211,0.303c-0.032-0.117-0.088-0.229-0.151-0.339
								C207.625,11.721,207.229,11.714,206.983,11.787z"/>
							<path fill="#202020" d="M214.186,148.319l-0.415,1.619C214.044,149.485,214.186,148.896,214.186,148.319z"/>
							<path fill="#202020" d="M211.497,282.228l0.337,0.371C211.897,282.455,211.817,282.323,211.497,282.228z"/>
							<path fill="#202020" d="M214.186,154.741c-0.991,0.289-1.567,0.595-1.943,0.912c0.22,0.067,0.4,0.143,0.725,0.188
								L214.186,154.741z"/>
							<path fill="#202020" d="M209.342,355.786c0.024-0.003,0.031-0.003,0.031-0.003S209.366,355.783,209.342,355.786z"/>
							<path fill="#202020" d="M216.019,366.447c0.081-1.542-3.615-0.725-5.737-1.052c-1.047-1.841,2.723-0.852,4.612-1.479
								c-0.979-1.149-4.37-2.031-4.227-2.888c0.608-0.063,0.83-0.23,1.592-0.035c-2.937-1.216-0.144-3.607-3.833-5.023
								c0.327-0.104,0.638-0.158,0.916-0.185c-1.849,0.229-3.73,0.265-5.068,0.218c-0.063-0.691-2.334-1.283,0.08-1.544
								c-0.07,0.424,0.903,0.459,1.658,0.658l-1.05-0.725c3.472-0.652,1.201,0.988,3.771,0.988c-1.13-1.412-4.004-3.059-3.022-4.141
								c3.396-0.227,1.143,2.531,4.163,1.086l-1.299,1.676c5.358-1.28-0.374,1.018,5.358-0.158c0.984-2.204-1.73-2.466-0.739-4.664
								c-1.888-0.495-2.791,0.163-4.681-0.332c-3.391-3.125,8.54-2.46,4.017-4.758c-2.264-0.595-6.561-0.825-4.287-2.461l3.84,0.558
								c0.379-2.134-5.52-1.218-2.937-3.453c1.509,0.397,1.271,1.677,1.729,1.354c3.032-1.448-2.178-1.024-2.178-2.138l3.4-0.23
								c-0.534-2.271-2.99-4.774-3.61-7.291c1.011,0.14,2.075,0.571,3.115-0.018c-1.699-3.174,0.415-6.774,2.432-9.836l-2.935-1.17
								c0.034-0.271,1.325-0.505,1.895-0.21c1.113-1.193-1.86-0.062-3.016-0.636c-0.205-0.679,1.688-0.896,2.568-0.466
								c-2.487-2.105-5.361-5.997-2.217-8.215l0.872,0.432c1.191-1.727-6.016-1.949-3.279-3.551l0.521,0.307
								c1.271-3.748-1.416-7.891,3.015-10.751c-4.229-0.544,1.885-3.711-4.011-3.952c2.922-2.14,3.975-1.527,5.939-4.541
								c0.271-0.806-3.682-1.201-4.297-2.196l3.084-0.024l-3.235-1.351l3.687-0.72l-0.791-0.934
								c-0.181,0.372-1.384,0.79-2.271,0.734c-1.396-1.459,2.146-3.556,3.726-3.592l-2.607-3.45c1.24,0.077,1.665,0.654,2.456,1.111
								c-3.145-1.842,3.247-0.335,0.364-2.022c-0.698,0.227-1.836-0.122-2.459-0.16c1.863-0.842,1.88-2.757,1.094-4.174l2.127,0.272
								c0.539-2.56-1.021-5.396-0.981-8.268c-0.989,1.03-4.673,0.794-5.027-0.049l3.252-0.337c-2.009-0.543-1.226,0.88-3.688-0.236
								c0.376-1.073,3.703-0.722,4.766-0.105l-1.131-1.305c0.972-0.076,1.484,0.229,2.725,0.31c-2.023-0.535,3.27-2.252-0.244-3.024
								l0.97-0.073c0.026-2.871-1.094-4.173-1.258-6.513c-2.813-0.045-2.188-0.96-4.46-1.656c0.898-1.719,3.107-3.627,2.868-5.698
								c-1.398-1.455-2.38-0.425-4.05-1.079c2.559-0.107,2.319-2.175,4.157-1.103c-0.415-2.485-0.508-3.175-2.588-6.317
								c-1.05,0.341-1.506,0.724-2.38,0.525c-0.42-0.57,1.074-1.298,2.305-1.217l0.264,0.151c-3.838-3.529,7.468-8.144,2.129-10.954
								l0.264,0.157l-2.781-2.914c0.442-1.341,1.924,0.804,3.509-0.188c-4.272-3.143,0.62-4.966-2.227-7.554
								c7.556-2.003-0.532-7.109,4.292-9.814l-1.78,0.156c-1.745-0.699,1.019-0.846,1.426-1.361
								c-1.382,0.073-1.599,0.758-2.565,0.324c-2.144-5.921,2.6-12.221,4.206-18.292c0.477-2.22-9.206-1.26-4.958-4.059l3.303,0.794
								c-3.967-4.48,0.137-9.162-3.225-13.547c0.762,0.261,1.753,0.269,1.74,0.697c2.4-0.926,0.117-3.426-1.841-3.441
								c0.223-0.683,1.771-0.158,2.767-0.579c1.416-0.929-3.064-2.333-0.677-2.826c0.391-0.084,0.779,0.261,0.965,0.431
								c-1.162-0.605,0.295-2.821-2.474-2.241c1.321-1.646-1.23-3.149,0.408-4.462c-3.096-0.856,1.491-2.818-2.889-3.09
								c4.524,0.118,3.65-2.886,1.521-3.927c1.367,0.348,1.418-0.905,3.311-0.497c-0.063-1.188-0.903-2.276-3.228-2.069
								c5.412-2.188-4.355-4.398,2.58-5.631c-2.432-3.528-4.074-6.793-5.137-9.967c4.512,0.114,0.452,3.508,5.186,3.372
								c-1.857-3.011-5.729-4.748-4.641-7.734c0.617-0.773,1.955,0.439,2.727,0.7c-1.857-3.008,0.41-5.817-2.046-8.494
								c0.42,0.008,0.879,0.296,1.224,0.569c-0.149-0.528,0.656-1.227-1.387-1.167l0.554,0.514
								c-2.976,0.843-6.216-2.095-7.788-2.189c5.877,0.896,1.478-2.644,8.904-1.222c-0.389-0.347-1.36-0.783-2.732-0.703
								c0.4-0.515,1.201-0.679,2.762-0.156c-1.116-1.89-3.296-1.218-3.25-2.931c0.994,0.006,1.377,0.352,2.544,0.529
								c-1.934-0.867-3.872-1.738-3.032-3.185c0.599,0.087,1.377-0.081,1.362,0.351c-0.3-2.485-5.153-4.235-3.283-6.961
								c4.312,0.804,1.418-0.927,5.151-1.072l-1.113-1.466l-1.812,0.589c0.063-1.284-2.656-2.419-1.434-3.522l1.538,0.954
								l-0.708-2.406l-1.416,1.362c-1.924-1.299-4.724,0.139-3.684-1.57c0.376,0.347,0.046-1.284,2.246-1.954
								c0,0,0,0.004,0.01,0.004c-1.189-0.635-2.441-1.289-1.514-2.238c1.193-0.246,4.128,0.199,4.924,0.038
								c-3.12-0.626-0.866-3.007-4.191-3.8c0.781,0.264,2.741,0.278,3.14,0.191l-2.534-0.525c0.811-0.595,1.203-0.682,2.766-0.585
								c0.464-1.789-4.736,0.568-2.695-1.555c0.205,0.167,0.584,0.087,0.97,0.435c1.064-2.133-1.609-4.12-0.361-6.08
								c3.757-0.578,0.92,1.712,4.089,1.051c-0.681-2.826-4.502-5.851-3.618-8.585l-0.415,0.51c-5.303-0.379,2.62-2.036,0.12-3.419
								c0.393,0.339,2.944,0.444,2.354,0.353c0.852-1.873-1.304-3.828-2.974-6.666l1.364,0.352c1.216-1.104,0.701-2.906,1.321-4.098
								c-1.36-0.354-1.141-1.036-3.12-0.621c7.759-3.675-4.16-7.011,2.305-10.271c0.015,0.39,1.191,0.929,1.191,0.619l-1.25-2.778
								c-2.31,0.22-1.399,0.364-3.198,0.948c-1.37-0.352-2.432-1.136-2.432-1.824c1.53,1.25,3.711-0.01,5-0.55
								c-0.708,0.09-1.489-0.095-2.21-0.049c4.111-1.451-4.648-0.243-1.88-2.225l1.214,0.105c-0.62-0.742-2.225-1.425-1.878-2.225
								c2.674-0.331,1.248,0.79,3.447,0.84c-0.153-1.123-5.063-2.216-2.399-3.232c0.744,0.477,0.757,1.164,1.496,1.64
								c3.14-1.106,2.342-1.235,2.84-2.058l-0.071,0.081l1.421-1.901l-0.85,0.484c-6.97-1.405-1.274-2.862-5.84-4.754
								c4.321,1.839,2.5,0.304,5.53,0.445c0.84-0.483,1.782-1.218,2.634-1.009c-2.443-0.895,1.924-1.494-1.647-2.757
								c0.972-0.056,0.095-0.957,2.544-0.755c-0.767-1.163-1.697,0.275-2.92,0.177c-3.333-1.793,4.04-4.215-0.532-6.794
								c-1.88-2.224-5.169-2.635-6.807-4.699c1.56-0.697,3.552,0.57,3.552,0.57c1.436-1.124,1.172-1.969,0.057-3.028
								c0.85,0.214,1.569-0.006,2.663-0.329c-0.254-0.85-3.55-0.568-2.111-1.689c1.086,0.192,2.827,0.438,3.918,0.849
								c-0.898-1.001-2.72-1.991-3.599-3.027c1.699-0.275,2.578,0.626,3.687,0.991c-0.764-1.165-1.538-3.019-4.229-3.379
								l-0.959,0.748c-0.132-0.425,2.31-0.219,2.8,0.095c2.109,0.999-0.93,1.44-1.911,1.497l-0.625-0.738
								c-5.721,0.759,0.918,2.966,0.586,4.452l-4.16-0.619l3.452,1.524c-1.082,0.324-3.406,0.546-4.028-0.188
								c-2.054,1.065,1.479,0.943-0.813,1.859c-0.356,0.101-0.557,0.055-0.72-0.039l1.237,1.041
								c-0.874-0.204-2.937,0.173-2.336-0.466c-2.4,1.869,3.12,3.014-0.032,3.717l-0.256-0.156c1.406,2.593,3.057,0.25,6.638,2.196
								l-7.531,1.309l3.052,0.255c-0.11,0.268-0.34,0.797-1.561,0.699c2.09,0.996,1.328-0.17,3.301,0.408
								c-2.78,1.287,1.302,3.55-3.564,3.84c2.322,0.462,1.792-1.231,3.406,0.143c-5.232,0.392,0.896,1.589-1.504,2.765
								c-2.7-0.361-1.27-1.475-3.682-0.298c4.565,0.709-0.999,2.29-0.125,3.282c3.633,0.047,1.517,2.157,2.725,3.822
								c-1.218-0.105-1.994,3.132-3.308,4.681l-0.61-0.046c3.672,0.3,2.979,1.897,3.74,3.061c-2.2-0.046-3.066-0.255-4.051-0.885
								l0.018,1.093c1.177,0.258,1.797,0.599,2.217,1.309l-2.744-0.275c0.151,1.455,3.232,2.93,1.398,4.803
								c2.562,0.105,7.132-1.489,8.841,0.491c-1.385,0.073-3.753,0.146-4.319-0.372c0.179,0.17,1.15,0.605,0.56,0.947l-2.329-0.792
								c-1.023,0.853,1.945,0.446,1.729,1.128c-1.976-0.014-1.409,0.504-2.977,0.407c-0.19-0.174,0.818-0.595,0.042-0.856
								c-0.354,0.769-1.526,1.699-3.021,2.005c1.123-0.066,2.659,0,2.915,0.563c0.145,1.455-2.375,0.498-3.389,1.347
								c1.37,0.353-0.051,1.281,2.9,1.306c-0.015,0.426-1.392,0.504-2.192,0.669c1.304,0.753,0.374,3.518,3.514,2.669l0.207-0.193
								c0.062,0.036,0.063,0.079,0.13,0.123c0-0.006,0,0,0-0.006v0.006c2.935,2.469-1.673,5.128-0.41,7.578l-0.986-0.004
								c1.128,1.462,0.666,3.254,2.79,4.299c-0.002,0.432-1.804,1.021-2.979,0.836c0.742,1.117,1.851,1.243,0.223,2.857
								c-1.724-1.124-1.526,0.388-1.263-1.151c-0.852,1.452-2.434,1.781,0.267,3.34c-2.532-0.531-3.187,1.093-2.432,1.784
								l1.812-1.018c0.368,0.776,0.144,1.455-0.071,2.145l-3.327-0.373c-4.048,2.972,6.887,5.36,0.112,7.623
								c2.326,0.786,1.638-1.615,4.36-0.912c-0.449,1.367-5.225,2.792-5.234,3.22c-1.844,1.873,4.86,1.747,3.601,3.707
								c1.185-0.25,4.354-0.487,5.472,0.978c-0.439,1.368-4.979,1.681-5.931,0.817c-0.1-0.328,0.278-0.486,0.679-0.473
								c-0.432-0.441-0.939-1.021-2.227-0.48l1.187,0.177c-1.211,0.679-1.084,2.561-3.032,2.119
								c1.133,1.034,1.948,0.442,2.563-0.324c-1.719,1.755-0.051,2.742-1.206,4.547c0.654-0.287,2.049-0.551,2.036-0.266
								c-1.47,2.649,2.251,1.166,2.771,2.961c-1.81,1.02-4.319-0.366-2.803,1.441c-1.226,1.104-3.149,0.234-4.116-0.205
								c2.287,1.646-1.504,3.076-1.924,4.016l-0.957-0.867c0.568,0.519,0.552,0.943,0.547,1.375l2.373-0.495
								c-0.413,0.509-0.425,0.94-1.411,0.931c1.555,0.525,3.947-0.401,6.074,0.64c-1.206,0.679,1.294,2.067-1.855,2.302
								c1.069-2.135-3.164,0.236-3.672-1.571c0.376,0.349,0.361,0.773-0.057,1.284c-0.352,0.077-0.651-0.072-0.832-0.211
								c-2.815,2.042,3.562,0.939,3.488,3.056c-1.774-0.269-3.366,0.491-2.988,0.836c0.037-0.853,2.962-0.408,4.321,0.375
								c-1.382,1.357,1.028,1.476,0.867,2.186l0.651-0.812c1.772,0.275,1.541,0.954,2.1,1.9c-1.382,0.081-0.949-0.859-1.56-0.521
								c3.12,1.05-3.23,2.374-1.128,3.839c-1.204,0.679-3.335,0.066-4.15,0.662c2.302,1.642-2.432,1.778-0.53,3.504
								c2.386-0.497,1.802-0.584,4.129,0.631l-1.68-2.837l3.469,1.821c0.034-0.856-1.501-1.807-1.094-2.32
								c1.946,0.868,1.353,0.778,3.333,0.369c-3.579,1.171,2.085,2.323-0.332,3.677l-5.908-0.042
								c-2.632,2.037,3.032,3.618,1.545,6.262l1.028-0.85c2.349,0.355,0.327,1.632,1.279,2.489c-1.976-0.08-2.69,0.456-3.921,0.821
								c1.465-0.045-0.135,1.935,3.809,2.175l-2.601,1.18c-1.064,2.135,5.625,2.437,4.954,4.489
								c-2.146-0.618-3.545,0.314-5.081-1.06c-0.02,0.685-0.381,1.301,0.989,1.312c-1.238,0.4,2.658,1.9,0.783,2.53
								c0.867,0.289,2.935,0.384,2.771,1.152c-0.4,0.084-0.977-0.003-0.977-0.003c0.977,0.003,1.328,1.205,3.513,0.532
								c-6.159,2.11,0.447,5.899-4.841,7.737c0.661,1.495,1.296,3.297,1.44,4.654c-0.591-0.087-0.984-0.004-0.779-0.261
								c-1.836,1.873,5.667,1.151,3.618,3.282c-3.19,1.089-1.726-1.131-2.935-0.453c-6.496,0.295,0.887,2.572-2.905,4.006
								l-0.383-0.348c-2.207,1.096,2.461,2.675,1.997,4.466c0,0-0.574-0.087-0.981-0.011c3.313,1.225,4.409,3.543,5.329,5.267
								c-2.541-0.537-1.345-0.783-3.928-0.456c0.366,0.772,4.147-0.226,4.87,1.315c-1.392,0.501-2.607,1.613-5.363,1.761
								l-0.149-1.454c-3.566,0.745,0.122,1.882-0.498,2.648l-1.558-0.098c0.506,2.229,4.434,2.259,4.153,4.655l1.179-0.248
								c3.892,1.309-2.188,1.097,0.706,2.403l-3.948,0.395c0.952,0.864,3.816,3.025,4.559,4.574
								c-2.928-0.877-4.424-2.689-6.162-3.811c-0.029,0.856,0.29,2.91,2.238,3.355c-0.381-0.345-1.348-0.78-0.739-1.121
								c3.103,1.051,4.629,2.433,4.561,4.139c-7.651-0.303-1.929,4.446-7.871,5.684c2.829,3.018-1.209,5.986-0.755,9.502
								c5.952-1.247,0.169,1.026,6.284,0.811c0.389,0.819,0.288,1.131-0.107,1.205l-3.652,2.481
								c-1.779,0.588-1.348-0.779-2.72-0.703c-0.469,1.793-2.59,0.752-4.216,1.938c2.188-0.243,3.132,0.623,2.297,1.645l2.82-1.439
								c3.254,2.506-5.132,2.166-1.909,4.691l-1.924-0.799c1.135,1.296-0.039,4.781,4.873,6.052
								c-0.706,0.229-2.378,0.532-2.82-0.038c-0.737,3.097,5.228,6.895,2.202,9.302l-1.494-0.235
								c0.433,0.578,2.811,1.006,1.304,1.729c-0.617-0.037-1.491-0.232-1.579,0.035c0.515,0.306,2.619,1.535,1.748,2.301
								l-1.683-0.654c-1.958,3.021,4.097,4.637,5.122,7.17c-4.401-0.007-5.832,2.371-6.545,3.558l-0.623-0.042
								c-0.544,3.519,3.647,5.977,5.376,9.234c-4.777,2.022-1.999,6.85-4.68,10.101c0.798-0.498,3.43,0.08,3.872,0.658
								c-0.894,0.763,3.054,2.108-0.981,1.987l0.075-0.271c-3.96,0.574-2.907,2.142-3.015,3.366l5.28,0.201
								c-7.681,3.201,2.822,8.389-4.058,10.136c1.321,0.772,1.307,1.729,2.625,2.495l-2.832-0.041
								c-0.723,2.14-1.077,3.209-0.403,5.854l-2.023-0.54c-0.188,1.493,8.164,1.885,8.33,3.262l-4.227,0.414
								c0.066,2.604-3.645,5.238,0.188,7.812c-0.62-0.043-1.841-0.119-2.012-0.541c-0.11,1.226-2.861,4.741,2.939,4.296
								c-3.777,0.031-0.369,2.687,1.296,4.093l-2.785-0.219c3.56,1.187,4.533,1.225,5.52,2.882
								c-0.363,0.393-2.231,0.344-1.519-0.178c-1.46,1.309,2.64,1.02,1.155,2.606l-1.78-0.592c-0.215,1.348,0.74,1.24,2.815,1.981
								c1.118,0.847-0.703,2.555-3.223,2.753c1.535,0.182,3.591,0.919,2.863,1.713c-0.952,0.106-1.543-0.182-1.831-0.327
								c-1.896,2.252,3.24,3.348,0.503,4.896c-0.923,0.032-1.384,0.133-1.662,0.262c0.068-1.789,0.22-3.229,0.422-3.095
								c-2.568,0-3.02,1.444-6.567,0.295c1.937,1.16,6.146,3.144,4.937,4.552c-0.249,0.068-0.493,0.135-0.889,0.187l-0.288-0.146
								c-0.256,0.324-0.017,0.615,0.415,0.89c-0.422,0.449-0.734,0.735-0.771,1.166c-2.126,0.167-1.147,1.657-1.25,2.378
								c2.811-0.06,2.358,0.884,4.678,0c-0.197,0.114-0.334-0.137-0.451-0.615c-0.083-0.108-0.125-0.236-0.291-0.307
								c0.072,0.014,0.158,0.031,0.247,0.049c-0.081-0.473-0.145-1.09-0.188-1.791c1.429,0.569,2.63,1.164,1.069,1.961
								c1.807,0.369,3.665,0.776,4.536,1.006c-3.921,0.985-6.04,2.886-8.457,3.15c1.577,2.199,1.04,5.183,6.321,6.565
								c0.679,0.626-1.514,0.719-2.344,0.952c-0.53-0.36-0.449-0.79-1.209-0.985c1.355,1.25,0.527,3.705,4.217,4.004
								c-1.665,1.576-3.396-0.886-2.793,1.279l-1.128-0.292c-5.896,4.261,9.416,6.927,1.848,11.65
								c0.464-0.327,0.679-0.49,1.297-0.558c-3.338,5.386,3.132,11.098-2.161,16.412c-1.066,1.511,1.289,1.674,3.081,2.597
								l-3.02,0.326l3.483,1.577c2.552,2.234-7.409,3.87-2.585,6.7l2.033-0.365c-0.386,1.017,1.199,3.219-1.14,3.049
								c0.371,0.104,2.114,0.334,1.055,0.731l-1.58,0.03l2.708,2.496c-1.143,1.936-6.272-0.303-6.58,2.522
								c0.608,1.049,4.6,2.989,5.657,2.595c0.078-0.424,0.986-1.082,2.568-1.114l0.822,0.96c4.656,0.175,9.424,0.912,12.676-1.444
								l-2.847-1.643l2.259-0.528l0.142,1.382c2.126-0.784,0.246-1.281-1.045-1.838c1.201-0.132,2.041-0.362,2.487-0.688
								l-4.448-1.612c1.824-0.195,3.616,0.724,4.622-0.358c-2.065-0.756-4.085,0.724-5.439-0.526
								c2.114-0.786,3.838-0.557,2.031-1.479c1.198-0.13,1.963,0.065,2.49,0.432c-1.438-0.821-0.608-2.173-3.084-2.597
								c2.612-0.818-0.679-2.771,3.729-2.69c-1.055-0.258-3.46-1.445-3.643-2.2c5.275,1.378,0.31-2.822,5.967-2.457
								c-4.744-1.021-2.107-3.684-4.739-5.489c0.376,0.102,1.141,0.3,0.898,0.459c0.394-1.017,1.824-1.312,2.72-1.965
								c-3.918-0.131-4.814-1.714-7.231-2.566c3.782-1.246,4.6,0.757,8.232,0.365c-3.176,0.063-3.171-2.165-5.815-1.741
								c2.339-0.952,1.136-0.82,4.385-1.312c-4.902-0.167-0.83-0.887-3.84-1.677c2.414-1.379,4.59-0.355,3.098-1.87
								C214.283,365.101,216.019,366.447,216.019,366.447z M207.547,330.426c0.027,0,0.047,0,0.057,0
								c0.066,0.311,0.123,0.575,0.158,0.743C207.723,331.015,207.667,330.8,207.547,330.426z M207.503,327.398
								c-0.109,0.368-0.129,0.827-0.109,1.313c-0.972,0.105-1.971-0.009-1.919-0.313
								C206.121,328.563,206.683,327.85,207.503,327.398z M188.023,333.802c-0.398-0.479,0.153-0.64,0.729-0.705
								c0.049,0.226,0.145,0.49,0.337,0.838c0.091,0.015,0.249,0.04,0.345,0.056C188.897,333.945,188.395,333.893,188.023,333.802z"
								/>
							<path fill="#202020" d="M191.71,334.663c0.063,0.068,0.181,0.107,0.205,0.197c0.246-0.098,0.459-0.191,0.632-0.285
								c-0.302-0.059-0.607-0.117-0.881-0.17C191.681,334.492,191.696,334.582,191.71,334.663z"/>
							<path fill="#202020" d="M195.875,60.255l-0.063,0.063c0.112-0.053,0.222-0.102,0.4-0.134
								C196.075,60.228,195.987,60.228,195.875,60.255z"/>
							<polygon fill="#202020" points="212.882,285.599 212.174,285.603 212.794,285.867 							"/>
							<path fill="#202020" d="M205.523,43.583c0.246-0.032,0.503-0.095,0.72-0.219C206.058,43.374,205.802,43.468,205.523,43.583z"
								/>
							<path fill="#202020" d="M206.153,36.381l1.001-1.019C206.585,35.803,206.314,36.124,206.153,36.381z"/>
							<path fill="#202020" d="M207.547,30.844c-0.493-0.07-0.864-0.09-1.203-0.108c-0.01,0.004-0.01,0.008-0.022,0.011
								L207.547,30.844z"/>
							<path fill="#202020" d="M210.851,118.885c0.015,0.074,0.051,0.148,0.127,0.214
								C211.521,119.6,211.307,119.259,210.851,118.885z"/>
							<path fill="#202020" d="M204.283,92.685c0.51,0.278,1.011,0.552,1.328,0.842C205.826,93.061,205.882,92.698,204.283,92.685z"
								/>
							<path fill="#202020" d="M214.234,148.142c-0.03-0.002-0.016-0.001-0.049-0.003c0.01,0.063,0,0.118,0,0.181L214.234,148.142z"
								/>
							<path fill="#202020" d="M205.563,94.745c0.559-0.466,0.439-0.856,0.049-1.218C205.423,93.909,205.135,94.359,205.563,94.745z
								"/>
							<path fill="#202020" d="M208.821,6.844l0.117-0.267c-0.186,0.004-0.337-0.012-0.451-0.032L208.821,6.844z"/>
							<path fill="#202020" d="M208.487,6.546l-0.332-0.296C208.155,6.385,208.177,6.503,208.487,6.546z"/>
							<path fill="#202020" d="M207.447,5.626l0.708,0.624C208.162,6.034,208.25,5.767,207.447,5.626z"/>
							<path fill="#202020" d="M207.522,14.175l1.021,0.083C208.333,14.213,208.004,14.183,207.522,14.175z"/>
							<path fill="#202020" d="M207.818,16.402c0.231-0.531,2.175-1.333,1.535-2.074l-0.811-0.069
								C210.06,14.607,206.1,15.897,207.818,16.402z"/>
							<path fill="#202020" d="M195.218,25.699l0.815-1.866c-1.086,0.326-2.546,0.755-2.808-0.093
								C189.986,26.093,195.655,23.254,195.218,25.699z"/>
							<path fill="#202020" d="M193.644,31.487c-0.506-1.002-1.577,0.012-2.19-0.041C192.442,32.082,192.693,32.236,193.644,31.487z
								"/>
							<path fill="#202020" d="M193.634,73.314l-2.559-0.101C191.443,73.986,192.066,73.221,193.634,73.314z"/>
							<polygon fill="#202020" points="206.854,81.31 208.443,80.557 206.1,80.199 							"/>
							<polygon fill="#202020" points="188.634,86.033 188.268,85.695 189.195,86.984 							"/>
							<path fill="#202020" d="M189.542,156.28l3.151-0.233C192.127,155.523,188.587,155.414,189.542,156.28z"/>
							<path fill="#202020" d="M192.75,186.606c-1.575,0.331-2.588,1.183-1.04,1.709
								C191.927,187.633,193.155,186.953,192.75,186.606z"/>
							<polygon fill="#202020" points="187.618,277.556 186.563,276.945 187.442,278.095 							"/>
						</g>
					</g>
				</g>
			</g>
		</g>
	</g>
</g>
<g id="Calque_17">
</g>
<g id="Calque_18">
</g>
<g id="Calque_19">
</g>
<g id="Calque_20">
</g>
<g id="Calque_21">
</g>
<g id="Calque_22">
</g>
<g id="Calque_23">
</g>
<g id="Calque_24">
</g>
<g id="Calque_25">
</g>
<g id="Calque_26">
</g>
<g id="Calque_27">
</g>
</svg>
