<?xml version="1.0" encoding="UTF-8"?>
<svg version="1.1" xmlns="http://www.w3.org/2000/svg" width="959" height="1181">
<path d="M0 0 C35.7351725 -0.11985676 71.47030897 -0.21522381 107.20565796 -0.26155376 C110.06179876 -0.2652907 112.91793953 -0.26905664 115.77408028 -0.27283859 C116.47869926 -0.27376034 117.18331824 -0.27468209 117.90928932 -0.27563176 C128.52257841 -0.28978182 139.13580371 -0.31487433 149.74905586 -0.34589767 C161.83275762 -0.38118992 173.91636395 -0.40191954 186.00012672 -0.40466344 C192.21544214 -0.40643925 198.4305739 -0.4146871 204.6458416 -0.44006729 C210.37760365 -0.46323944 216.10906944 -0.46767171 221.84086633 -0.457425 C223.91910375 -0.45695428 225.99735614 -0.46324765 228.07554793 -0.4770261 C245.07219188 -0.5835388 257.31536869 1.84112563 270.23837471 13.6382637 C281.47612824 25.39192208 282.34916603 39.73818838 282.35385323 55.14972305 C282.36156855 56.68129693 282.37014382 58.21286668 282.37949562 59.74443144 C282.402711 63.95411968 282.41372979 68.16376471 282.4227612 72.37350401 C282.43477883 76.96249895 282.4582099 81.55143809 282.48018074 86.14039421 C282.51718964 94.19903066 282.54690349 102.25766856 282.5718708 110.31635094 C282.60913203 122.33211416 282.65765026 134.34781364 282.7084372 146.36352637 C282.79415188 166.72011375 282.87061712 187.07672638 282.94198799 207.43336868 C283.01390778 227.93717213 283.09005562 248.44095324 283.17148018 268.94472122 C283.17659784 270.23400296 283.1817155 271.5232847 283.18698823 272.85163559 C283.20781636 278.09487626 283.22867616 283.3381168 283.24957627 288.58135719 C283.30821933 303.2936525 283.3661596 318.00595053 283.42367744 332.71825027 C283.4263027 333.38968349 283.42892796 334.06111671 283.43163277 334.75289639 C283.55937259 367.4379755 283.68077421 400.12307762 283.80087471 432.80818558 C283.80607877 434.22401588 283.81128289 435.63984619 283.81648707 437.05567649 C283.90803231 461.9645654 283.99906815 486.87345617 284.08993721 511.78234755 C284.37707459 590.49166279 284.66508771 669.20097558 285.50600386 864.16164405 C285.54108268 871.37297454 285.57374873 878.58431338 285.60531807 885.79566002 C285.64283609 894.35453745 285.68369517 902.91339027 285.72922611 911.47222899 C285.75198698 915.7634126 285.77326847 920.05458901 285.79037666 924.34579921 C285.80593117 928.23320738 285.82595175 932.1205654 285.84962749 936.00793236 C285.8573631 937.40582208 285.86346401 938.80372202 285.86776066 940.20162655 C285.87382055 942.09416273 285.88643898 943.98667453 285.89938545 945.87917614 C285.90453918 946.92718708 285.90969292 947.97519802 285.91500282 949.05496687 C286.05538104 952.11137866 286.52245407 955.00245472 287.05087471 958.0132637 C287.13492534 960.51395255 287.16599393 963.01667815 287.16008186 965.51877213 C287.159675 966.2538493 287.15926813 966.98892647 287.15884894 967.7462787 C287.15616107 970.19867206 287.1461577 972.65097829 287.13607979 975.10335159 C287.13248179 976.86637169 287.12927732 978.62939262 287.12643623 980.39241409 C287.11707711 985.175863 287.10074299 989.95926188 287.08206582 994.7426827 C287.07040743 997.73554278 287.05974635 1000.72840498 287.04932404 1003.72126961 C287.01609462 1013.09775222 286.97806237 1022.47419972 286.93395883 1031.8506375 C286.88329746 1042.65059804 286.84901089 1053.45044801 286.82877809 1064.25050741 C286.81205422 1072.6134739 286.78012341 1080.97629913 286.73693198 1089.3391704 C286.7115318 1094.32671689 286.69251517 1099.31408793 286.68955612 1104.3017025 C286.68638412 1108.99932188 286.66421334 1113.69648568 286.62800026 1118.39396286 C286.61795978 1120.10907958 286.61452599 1121.82425104 286.61853027 1123.53939247 C286.65042025 1140.45022897 283.29368236 1154.41842882 271.55087471 1167.2007637 C260.19383187 1178.06179111 246.46829772 1181.34075197 231.12530613 1181.26215267 C230.06537456 1181.26475996 229.00544299 1181.26736724 227.91339228 1181.27005354 C224.36682776 1181.27634213 220.8204411 1181.26839662 217.27388191 1181.26050186 C214.70178794 1181.26209062 212.12969438 1181.26455488 209.55760199 1181.26781827 C203.96570836 1181.27349396 198.37385537 1181.27176117 192.78196335 1181.2651329 C184.46104153 1181.2552979 176.14014935 1181.25695311 167.81922407 1181.2608832 C153.79176387 1181.26716288 139.76432048 1181.26397773 125.73686218 1181.25528908 C111.77573618 1181.24664527 97.81461772 1181.24176955 83.85348892 1181.24195671 C82.98192713 1181.24196436 82.11036533 1181.241972 81.21239257 1181.24197988 C77.67258244 1181.2420208 74.13277231 1181.24208643 70.59296218 1181.24218569 C37.32488241 1181.24309303 4.05681399 1181.23314219 -29.21126183 1181.21775603 C-58.51052202 1181.20425428 -87.80977411 1181.19788954 -117.1090374 1181.19856644 C-118.97585192 1181.19860685 -120.84266643 1181.19864721 -122.70948095 1181.19868752 C-124.09407645 1181.19871804 -124.09407645 1181.19871804 -125.50664358 1181.19874918 C-130.15720736 1181.19885005 -134.80777114 1181.19894061 -139.45833492 1181.19901943 C-140.83571156 1181.1990445 -140.83571156 1181.1990445 -142.24091398 1181.19907008 C-166.91851142 1181.19944018 -191.59610787 1181.19484198 -216.27370447 1181.18869287 C-217.15892739 1181.1884726 -218.04415032 1181.18825232 -218.95619818 1181.18802538 C-222.51341679 1181.18713748 -226.07063541 1181.18624885 -229.62785401 1181.18533442 C-241.77018502 1181.18223187 -253.91251523 1181.18067691 -266.0548466 1181.1802318 C-345.03425823 1181.17689096 -424.0007147 1180.95925675 -502.97632292 1180.10781248 C-514.3702782 1179.98588951 -525.76437525 1179.87934741 -537.15849113 1179.77368546 C-538.10762595 1179.76487751 -539.05676076 1179.75606956 -540.03465723 1179.74699471 C-543.63223142 1179.71363699 -547.22980598 1179.68031914 -550.82738159 1179.64711553 C-559.07089651 1179.57093242 -567.31439208 1179.49268496 -575.55786502 1179.4120814 C-576.97106998 1179.39857038 -578.38428135 1179.38571657 -579.7974977 1179.37345435 C-604.40283112 1179.15517626 -626.02511898 1174.75036636 -644.94912529 1158.0132637 C-645.85791435 1157.21146683 -646.76670341 1156.40966995 -647.70303154 1155.5835762 C-661.35144173 1142.78937805 -671.06911893 1124.66821221 -672.13136661 1105.7712661 C-672.19754895 1102.00940662 -672.20212756 1098.25048555 -672.18165398 1094.48837662 C-672.1810221 1093.05637607 -672.1811718 1091.62437501 -672.1820389 1090.19237459 C-672.18141316 1086.332194 -672.16742909 1082.47217162 -672.1501493 1078.61203377 C-672.14020205 1076.17029121 -672.13395176 1073.72856647 -672.12893093 1071.28680909 C-672.0613405 1038.81971669 -671.6094949 1006.36176804 -671.01317215 973.90064451 C-670.87097351 966.14302541 -670.73695377 958.38526908 -670.60311996 950.62750191 C-670.3627907 936.7059544 -670.11726506 922.78450433 -669.86782646 908.86311722 C-669.51236913 889.0232672 -669.16215561 869.18332756 -668.81435966 849.34334183 C-668.8002079 848.53606031 -668.78605613 847.72877879 -668.77147552 846.8970342 C-668.57444001 835.65490105 -668.37802645 824.41275711 -668.18203491 813.17060572 C-668.14048169 810.787749 -668.09889056 808.40489295 -668.05729151 806.02203703 C-667.28042807 761.88586762 -667.28042807 761.88586762 -666.60098076 717.74812698 C-666.59039139 717.00843477 -666.57980202 716.26874256 -666.56889176 715.50663543 C-666.34982135 700.04072145 -666.19721595 684.57393153 -666.03477235 669.10734274 C-665.97692518 663.61041397 -665.91767017 658.11350228 -665.85746409 652.61659886 C-665.14030037 587.07897191 -664.80481483 521.54803226 -664.78178884 456.00661754 C-664.77602502 439.63366363 -664.7608583 423.26073014 -664.74151894 406.88778786 C-664.73750645 403.48037957 -664.73358306 400.07297119 -664.72965258 396.66556281 C-664.72807031 395.29542705 -664.72648777 393.92529128 -664.72490496 392.55515552 C-664.72412004 391.87550251 -664.72333512 391.19584951 -664.72252641 390.49560096 C-664.72013795 388.43010419 -664.71774042 386.36460743 -664.71534213 384.29911068 C-664.69764226 369.02454909 -664.68128228 353.74998627 -664.66616631 338.47542191 C-664.66547739 337.78293631 -664.66478847 337.09045071 -664.66407867 336.37698069 C-664.64157851 313.68021993 -664.62990102 290.98346594 -664.62249975 268.28669578 C-664.61473141 244.69678778 -664.59371149 221.10692423 -664.55695714 197.51704289 C-664.53350485 182.43151584 -664.52182705 167.34608944 -664.52834222 152.26054475 C-664.53151588 142.44566317 -664.52019328 132.63086582 -664.49744781 122.81601032 C-664.48480647 117.16892312 -664.47858103 111.52202379 -664.48986435 105.87492943 C-664.50006785 100.7026852 -664.49171239 95.5308053 -664.46900139 90.35860393 C-664.46402979 88.49617262 -664.46569128 86.63370826 -664.47493406 84.77129325 C-664.53962947 70.6173193 -663.01973089 57.59007815 -656.32412529 44.8257637 C-655.98276543 44.16560257 -655.64140556 43.50544144 -655.28970146 42.82527542 C-645.6932431 24.99496523 -629.72501114 13.01942888 -610.61318779 6.95466995 C-601.96018948 4.67699156 -593.49057689 3.86825404 -584.5790081 3.82381058 C-583.66533218 3.81549585 -582.75165627 3.80718113 -581.8102932 3.79861444 C-578.75763109 3.77197254 -575.70496268 3.75200081 -572.65225029 3.7320137 C-570.44808443 3.71416342 -568.24392185 3.69590304 -566.0397625 3.67726612 C-560.0230968 3.62758044 -554.00640082 3.58371505 -547.98968315 3.54085469 C-541.595278 3.49431063 -535.20091605 3.4424242 -528.80654716 3.39117813 C-517.17378253 3.29875671 -505.5409918 3.21052467 -493.90817833 3.12450162 C-483.20241116 3.04531179 -472.49666066 2.96418996 -461.79092216 2.88121414 C-461.08147906 2.87571774 -460.37203595 2.87022135 -459.64109457 2.86455839 C-456.77327893 2.84233675 -453.90546336 2.8201056 -451.0376479 2.79786059 C-423.69907083 2.58582593 -396.36045187 2.37977118 -369.0218029 2.17723751 C-354.1342816 2.06692569 -339.24677266 1.95521238 -324.35928154 1.84090042 C-288.56911623 1.56647347 -252.77887687 1.31711185 -216.9883194 1.09954548 C-208.86070266 1.05005964 -200.73309511 0.9993749 -192.60549736 0.94685745 C-128.40399447 0.53203825 -64.20248666 0.21563324 0 0 Z M-616.94912529 16.0132637 C-618.63908623 16.7576973 -618.63908623 16.7576973 -620.36318779 17.51716995 C-636.033937 25.13234668 -648.46261743 38.84332625 -654.94912529 55.0132637 C-658.97217243 66.67466385 -660.10812884 77.81207333 -660.07496643 90.07239914 C-660.07641987 91.02651782 -660.07787331 91.9806365 -660.0793708 92.96366787 C-660.08300485 96.14423799 -660.07955616 99.3247594 -660.07610893 102.50532913 C-660.07726192 104.81699794 -660.07885064 107.12866656 -660.08083618 109.4403348 C-660.08500828 115.78357593 -660.08294799 122.126802 -660.07984996 128.47004318 C-660.07732903 134.61700426 -660.0804866 140.76396386 -660.08299732 146.91092452 C-660.08826586 160.28473947 -660.08780362 173.65854964 -660.08491841 187.03236505 C-660.08239265 198.80163829 -660.08175073 210.5709098 -660.08294106 222.34018326 C-660.08301744 223.12404622 -660.08309383 223.90790917 -660.08317253 224.71552556 C-660.08348398 227.89944421 -660.08380238 231.08336287 -660.08413229 234.26728153 C-660.08719536 264.19067008 -660.08441703 294.11405564 -660.07903539 324.03744373 C-660.07433762 350.35620828 -660.07467281 376.67496796 -660.07949638 402.99373245 C-660.08492448 432.70895986 -660.08693027 462.42418457 -660.08388412 492.1394124 C-660.08356358 495.34944312 -660.08325072 498.55947383 -660.08294106 501.76950455 C-660.08286198 502.55960037 -660.0827829 503.3496962 -660.08270143 504.16373433 C-660.0816612 515.06607938 -660.0825295 525.96842264 -660.08492762 536.87076745 C-660.1015577 613.66536019 -659.82997555 690.44667093 -659.01047468 767.23790026 C-658.95359594 772.57166592 -658.89859782 777.90544912 -658.84439278 783.23924255 C-658.66882311 800.48053029 -658.47905126 817.72161405 -658.27487564 834.96258998 C-658.22842372 838.89324503 -658.18245444 842.82390558 -658.13664055 846.7545681 C-657.98328987 859.90408298 -657.82844165 873.05357894 -657.67152423 886.20305174 C-657.66339137 886.88461358 -657.65525851 887.56617542 -657.6468792 888.26839066 C-657.63873516 888.95085456 -657.63059113 889.63331847 -657.62220031 890.3364631 C-657.48702794 901.67299483 -657.35608524 913.00957166 -657.22672635 924.34617107 C-657.09093031 936.2421592 -656.95192998 948.13810628 -656.80964231 960.03401858 C-656.7310018 966.6144341 -656.65372748 973.19486019 -656.57987785 979.7753315 C-656.51140881 985.86791968 -656.43885278 991.96044561 -656.36314392 998.052948 C-656.33626404 1000.27170388 -656.31083306 1002.49047788 -656.28699875 1004.70926857 C-656.14625241 1020.38785793 -656.14625241 1020.38785793 -654.94912529 1036.0132637 C-652.14574295 1033.25694835 -649.73668373 1030.47778593 -647.38662529 1027.3257637 C-635.30875276 1012.20061947 -617.55435098 1003.55714511 -598.46020317 1001.24602127 C-593.13681179 1000.75258391 -587.79057661 1000.62979037 -582.44912529 1000.4507637 C-580.64314873 1000.38598831 -580.64314873 1000.38598831 -578.80068779 1000.31990433 C-575.85026336 1000.21453203 -572.89976458 1000.11240467 -569.94912529 1000.0132637 C-570.00510384 999.17232666 -570.06108238 998.33138962 -570.11875725 997.46496964 C-574.71319695 928.27751592 -578.1145934 859.14036285 -579.85342216 789.82161331 C-579.96771575 785.27348667 -580.08581425 780.72546233 -580.20449638 776.17744827 C-580.83486318 750.37681392 -581.0443532 724.57841304 -581.05068779 698.7710762 C-581.0509789 697.97644218 -581.05127001 697.18180817 -581.05156994 696.36309433 C-581.0601229 662.66784623 -580.53905177 628.99517292 -579.8474136 595.30809033 C-579.52076002 579.34688023 -579.2220717 563.38510358 -578.92187428 547.42337799 C-578.86678688 544.49694636 -578.81145636 541.57051939 -578.75611496 538.64409256 C-578.10325559 504.04235782 -577.55108893 469.43937761 -577.03016692 434.83542699 C-576.99987128 432.82342229 -576.96953994 430.81141814 -576.93919706 428.79941416 C-576.72280136 414.44952905 -576.50743916 400.09962851 -576.29251029 385.74972136 C-575.86751011 357.37654113 -575.44085159 329.00338889 -574.99990654 300.6304512 C-574.98933371 299.95003869 -574.97876089 299.26962618 -574.96786767 298.56859511 C-573.9457312 232.84194163 -572.64879661 167.12129484 -571.23251879 101.4020102 C-571.16880947 98.43987812 -571.10544402 95.47773891 -571.04222202 92.51559639 C-571.02184504 91.56108027 -571.00146805 90.60656414 -570.98047358 89.62312329 C-570.94011585 87.73223196 -570.8997797 85.84134018 -570.85946602 83.95044792 C-570.7465059 78.6663497 -570.63048818 73.38233103 -570.51188725 68.0983566 C-570.08680414 49.06567566 -569.8374646 30.05148493 -569.94912529 11.0132637 C-594.02426738 9.80292416 -594.02426738 9.80292416 -616.94912529 16.0132637 Z M-565.94912529 11.0132637 C-566.04980101 33.58077318 -565.83613286 56.12478366 -565.3300705 78.68650627 C-565.20848752 84.10744071 -565.09320189 89.52850049 -564.97871208 94.94958878 C-564.83171472 101.89763127 -564.6839009 108.84565498 -564.53474659 115.79365152 C-564.03686337 138.99800639 -563.55905976 162.20276678 -563.09365654 185.40779495 C-563.07006105 186.58396197 -563.04646555 187.76012898 -563.02215505 188.97193742 C-561.77294635 251.37829555 -560.82293185 313.78910615 -559.88662529 376.2007637 C-559.86578723 377.58938424 -559.84494881 378.97800478 -559.82411003 380.36662531 C-559.72017507 387.29314639 -559.6163197 394.21966866 -559.51250839 401.1461916 C-559.33840325 412.76270711 -559.1641076 424.37921975 -558.98948403 435.99572748 C-558.93890459 439.36050305 -558.88835512 442.72527906 -558.8378787 446.09005618 C-558.28086539 483.21633445 -557.68811773 520.34173943 -557.03115654 557.4663887 C-557.01307906 558.48966208 -556.99500158 559.51293545 -556.9763763 560.56721711 C-556.64269403 579.45053091 -556.30431451 598.33375596 -555.95377296 617.21676481 C-555.83081996 623.84334034 -555.70984852 630.46995023 -555.59023243 637.09658682 C-555.52306298 640.80898129 -555.45477579 644.52134517 -555.38301849 648.23365402 C-554.77049069 679.95553343 -554.83146013 711.66521089 -555.32412529 743.3882637 C-555.33473236 744.08424919 -555.34533943 744.78023468 -555.35626793 745.49731064 C-556.47386459 818.73064097 -559.0644957 891.9096583 -564.31603813 972.23054886 C-564.92407809 981.48846894 -565.4585089 990.74842666 -565.94912529 1000.0132637 C-545.06893835 1000.15982822 -524.19487666 999.93459591 -503.31680107 999.64387894 C-502.62850905 999.63431616 -501.94021704 999.62475337 -501.23106769 999.61490081 C-493.86075224 999.51235405 -486.49046299 999.40799712 -479.12018565 999.30275039 C-461.58835492 999.05246888 -444.05636313 998.81411468 -426.5243206 998.57918167 C-425.64426187 998.56737598 -424.76420314 998.5555703 -423.85747597 998.54340686 C-381.72817237 997.97890026 -339.5979038 997.5173493 -297.46713245 997.0780226 C-294.62184575 997.04834729 -291.77655954 997.01862493 -288.93127346 996.98889065 C-271.50864083 996.80686238 -254.08599743 996.62587933 -236.66333961 996.44627762 C-208.19084722 996.15274958 -179.71840588 995.85464704 -151.24600029 995.55281448 C-150.21756109 995.54191249 -149.18912188 995.53101049 -148.12951785 995.51977813 C-133.63743821 995.36612732 -119.14536274 995.21208579 -104.65328944 995.05783784 C-101.56941746 995.0250155 -98.4855454 994.99220193 -95.40167332 994.95938969 C-65.91747309 994.64564928 -36.43328768 994.33054129 -6.94912529 994.0132637 C-6.0564606 994.00365872 -5.16379591 993.99405373 -4.24408078 993.98415768 C35.25010587 993.55911912 74.7442073 993.12789012 114.23797226 992.66512775 C116.92200522 992.63369244 119.60603832 992.60226821 122.29007149 992.57085037 C123.60140049 992.55549812 124.91272949 992.54014588 126.26379573 992.52432841 C135.39380798 992.41793822 144.52386772 992.31661703 153.65396309 992.21763992 C164.51556265 992.09986669 175.37706508 991.97581669 186.23848855 991.84274846 C191.64553574 991.77665735 197.05257177 991.71346051 202.45974541 991.65858269 C207.32359182 991.60913555 212.18725069 991.55097632 217.0509088 991.48563182 C218.79425378 991.46374056 220.53764268 991.44505803 222.2810595 991.42993462 C224.63951598 991.40900941 226.99753226 991.37634757 229.35580635 991.34074783 C231.31122101 991.31812158 231.31122101 991.31812158 233.30613899 991.29503822 C239.21614382 990.85033694 244.72614306 989.70504546 249.73837471 986.3882637 C250.4434919 985.94224808 251.14860909 985.49623245 251.87509346 985.0367012 C257.80272202 979.52411306 259.9158513 973.2674135 260.83372688 965.40408707 C260.95096235 964.48968489 261.06819782 963.57528271 261.18898588 962.63317138 C262.40527364 952.35275502 262.5108231 942.09933213 262.52523994 931.76008987 C262.53924521 929.51799186 262.55449767 927.27590137 262.57084274 925.0338192 C262.612767 918.75121133 262.63619362 912.46864528 262.65679288 906.18593621 C262.67896477 899.85754823 262.71783607 893.52924747 262.75427797 887.20092904 C262.8395305 872.26644209 262.90549424 857.33190176 262.96603461 842.39729696 C263.02897085 826.89866754 263.09961429 811.40008579 263.17422676 795.90150833 C263.52386308 723.08710776 263.82486161 650.27254859 264.10516487 577.45785446 C264.11338511 575.32306185 264.12161331 573.18826927 264.12984383 571.05347669 C264.4061896 499.3676637 264.66981205 427.68180748 265.05087471 311.0132637 C265.05448922 309.87731518 265.05810374 308.74136666 265.06182778 307.57099545 C265.22020297 257.75435105 265.35481852 207.93781872 265.40662035 158.1209402 C265.41785527 147.47268279 265.43950938 136.82448462 265.46716499 126.17625809 C265.49744737 114.49335697 265.51380127 102.81052209 265.51027471 91.12757379 C265.50875872 85.40905043 265.51292591 79.69071368 265.53463364 73.9722271 C265.5536845 68.89684899 265.55446632 63.82182636 265.53982532 58.74643648 C265.53778972 56.94035173 265.54245829 55.1342439 265.55463135 53.32819903 C265.76325952 40.62252548 265.76325952 40.62252548 261.05087471 29.0132637 C260.53267159 28.20373245 260.01446846 27.3942012 259.48056221 26.5601387 C253.59902537 19.76238256 246.9376091 16.25069757 238.05087471 15.0132637 C235.88183078 14.91943665 233.71040924 14.87349885 231.53935528 14.86456776 C230.23785325 14.85684304 228.93635123 14.84911832 227.59540975 14.84115952 C226.15621294 14.83753489 224.7170159 14.83399816 223.27781868 14.8305397 C221.74099262 14.82327186 220.20416855 14.81557435 218.6673466 14.8074854 C214.43510341 14.78644316 210.20285691 14.77146731 205.97058545 14.75744125 C201.38434291 14.74116248 196.79812708 14.71921848 192.21190548 14.69794273 C184.20374998 14.66154292 176.19558612 14.62865526 168.18740654 14.598032 C156.39425647 14.5528697 144.60113744 14.50178737 132.80801839 14.44920493 C113.21681363 14.36192715 93.62559471 14.27843431 74.0343647 14.19704056 C28.19826732 14.00638458 -17.63775961 13.79978305 -63.47377086 13.5895319 C-68.32625191 13.56727363 -73.17873328 13.54508693 -78.03121495 13.52296352 C-142.4913313 13.22895078 -206.95086576 12.89361926 -271.41006279 12.43904495 C-272.24181142 12.43319131 -273.07356004 12.42733767 -273.93051317 12.42130664 C-306.0885722 12.19495467 -338.2465284 11.95588266 -370.40439824 11.70411953 C-384.46746787 11.59404078 -398.53055421 11.48627953 -412.59365654 11.3804512 C-413.84137832 11.37100912 -415.08910011 11.36156703 -416.37463164 11.35183883 C-466.23307254 10.97598532 -516.08951409 10.90899676 -565.94912529 11.0132637 Z M-622.13662529 1014.7007637 C-623.14596123 1015.22295486 -623.14596123 1015.22295486 -624.17568779 1015.75569534 C-633.70226218 1020.83783022 -641.2662311 1027.56688438 -647.94912529 1036.0132637 C-648.57077568 1036.75560257 -649.19242607 1037.49794144 -649.83291435 1038.26277542 C-657.14021505 1048.52555174 -655.79370956 1059.8070236 -655.51162529 1071.8882637 C-655.49362209 1074.02756327 -655.47862676 1076.16689036 -655.46670341 1078.30623245 C-655.24740701 1101.27483833 -652.77535964 1121.70966203 -636.32412529 1139.2007637 C-601.6969163 1172.20154318 -524.9427637 1157.10576504 -480.77294374 1156.64211363 C-417.45057067 1155.97835892 -354.12735596 1155.6905441 -290.8021995 1155.47341506 C-285.673038 1155.45577035 -280.54387882 1155.43753575 -275.41472054 1155.41898346 C-191.56305535 1155.1157599 -107.7118907 1154.9598836 182.05087471 1155.0132637 C181.32134679 1147.80410148 180.59089445 1140.59503348 179.85940266 1133.38607025 C179.51940864 1130.03511803 179.17977068 1126.68413069 178.84066963 1123.33308792 C178.44665935 1119.43994351 178.05165705 1115.54690098 177.65634346 1111.6538887 C177.52517632 1110.35830032 177.39400917 1109.06271194 177.25886726 1107.72786331 C176.59879912 1101.24427086 175.91870671 1094.76380817 175.19760323 1088.2867012 C174.99153198 1086.42292831 174.99153198 1086.42292831 174.78129768 1084.52150345 C174.52341313 1082.20250847 174.26133195 1079.88397404 173.99391365 1077.56605911 C171.97430698 1059.37289812 172.09831965 1041.80504739 176.57016182 1024.0042305 C177.12996624 1021.6856906 177.58802943 1019.35288731 178.05087471 1017.0132637 C146.57097368 1015.82849415 115.06874552 1015.55679598 83.57146588 1015.16756475 C77.72405121 1015.09529214 71.87665344 1015.02175884 66.02926254 1014.94758987 C-25.25436986 1013.79109149 -116.54059123 1012.86351581 -207.82661367 1011.91951382 C-233.83551881 1011.65054155 -259.84440956 1011.38025552 -285.85326497 1011.10651267 C-290.76953086 1011.05477025 -295.68579758 1011.00310878 -300.60206652 1010.95165634 C-342.4544694 1010.51357533 -384.30632807 1010.05551309 -426.15708001 1009.47879696 C-428.75081702 1009.44306646 -431.34455591 1009.40747537 -433.93829525 1009.37191391 C-448.51323346 1009.17189917 -463.08816904 1008.97160607 -477.66284943 1008.75349808 C-497.09119667 1008.46287159 -516.5194622 1008.19907318 -535.94912529 1008.0132637 C-536.67537167 1008.00622988 -537.40161804 1007.99919605 -538.14987189 1007.99194908 C-547.94231018 1007.89804037 -557.73455737 1007.8284006 -567.52737582 1007.79064178 C-570.36855476 1007.77926591 -573.20955537 1007.76112415 -576.05065095 1007.73664856 C-579.9768023 1007.70335518 -583.90279141 1007.6952401 -587.8290844 1007.68953323 C-588.96965864 1007.67683521 -590.11023289 1007.66413719 -591.28536999 1007.65105438 C-602.12752551 1007.67658569 -612.50220352 1009.59951916 -622.13662529 1014.7007637 Z M253.59384346 1014.04060745 C249.50880767 1015.60308658 246.01932098 1016.14695734 241.6397419 1016.21858597 C240.01851418 1016.2485038 240.01851418 1016.2485038 238.36453438 1016.27902603 C236.62372597 1016.30409477 236.62372597 1016.30409477 234.84774971 1016.32966995 C233.05835976 1016.3608416 233.05835976 1016.3608416 231.23282051 1016.39264297 C227.42223048 1016.4580261 223.61157157 1016.51697146 219.80087471 1016.5757637 C217.21753425 1016.61895959 214.63420076 1016.66257422 212.05087471 1016.70662308 C205.71761419 1016.81369604 199.38428515 1016.91548343 193.05087471 1017.0132637 C193.18537025 1017.68293167 193.3198658 1018.35259964 193.45843697 1019.04256058 C193.63637794 1019.93008011 193.81431892 1020.81759964 193.99765205 1021.7320137 C194.1733976 1022.60793167 194.34914314 1023.48384964 194.53021431 1024.38631058 C198.53118388 1044.57290343 198.41645181 1062.50588139 195.97665596 1082.9117012 C194.70670718 1093.69594664 193.73915142 1104.51020943 192.74044991 1115.32234573 C192.50036976 1117.91998153 192.258705 1120.5174607 192.01571846 1123.1148262 C191.9378611 1123.94758072 191.86000374 1124.78033524 191.77978706 1125.63832474 C191.17727771 1131.96075855 190.46544522 1138.26639687 189.66340828 1144.56663895 C189.22678826 1148.07883391 189.01509952 1151.47731255 189.05087471 1155.0132637 C196.30992049 1155.08957574 203.56886208 1155.14197354 210.82821846 1155.17805862 C213.2957057 1155.19310823 215.76316636 1155.21355261 218.23056221 1155.23958206 C221.78531662 1155.27613296 225.3397161 1155.29302888 228.89462471 1155.30623245 C229.99077095 1155.32171631 231.08691719 1155.33720016 232.21627998 1155.35315323 C241.10218962 1155.35508839 247.82078461 1153.83403133 254.51181221 1147.6929512 C258.94112463 1142.85893004 261.14840506 1137.46839631 261.20909309 1130.94205093 C261.21888191 1130.13968002 261.22867073 1129.33730911 261.23875618 1128.51062393 C261.24451164 1127.63855804 261.25026711 1126.76649216 261.25619698 1125.86800003 C261.26609657 1124.94196976 261.27599617 1124.01593948 261.28619576 1123.06184769 C261.31784786 1119.98968948 261.34262383 1116.91751664 261.36728096 1113.84529495 C261.38788789 1111.69129446 261.40888524 1109.53729767 261.43025398 1107.3833046 C261.47425199 1102.85136894 261.51514357 1098.31941999 261.55356026 1093.78743362 C261.60218203 1088.05267681 261.65581208 1082.31798284 261.71153545 1076.58329105 C261.76516038 1071.04564139 261.81637174 1065.50797015 261.86728096 1059.97029495 C261.87683878 1058.94675226 261.8863966 1057.92320957 261.89624405 1056.86865044 C262.03649407 1041.58322497 262.07413395 1026.29930272 262.05087471 1011.0132637 C259.26337091 1011.0132637 256.13879562 1012.99180147 253.59384346 1014.04060745 Z " fill="#000000" transform="translate(671.949125289917,-0.013263702392578125)"/>
<path d="M0 0 C3.78552409 3.41364405 7.40661752 6.97608637 10.98828125 10.6015625 C11.84164063 11.44460937 12.695 12.28765625 13.57421875 13.15625 C23.2675674 23.25773964 30.11267156 35.9904978 35.98828125 48.6015625 C36.98859375 48.3128125 37.98890625 48.0240625 39.01953125 47.7265625 C59.11325511 42.47282762 83.92199755 41.89394537 103.98828125 47.6015625 C104.80264648 47.83262695 105.61701172 48.06369141 106.45605469 48.30175781 C140.97532444 58.4170617 168.10196978 78.84318797 186.98828125 109.6015625 C187.53597168 110.49270752 187.53597168 110.49270752 188.09472656 111.40185547 C206.4026107 141.83892416 210.51828373 180.53011531 202.46826172 214.81640625 C194.17177765 246.66778746 174.17024574 275.2329622 145.5859375 292.01171875 C124.89209392 303.6015625 124.89209392 303.6015625 117.98828125 303.6015625 C117.91718391 304.60707657 117.91718391 304.60707657 117.84465027 305.63290405 C117.31294238 312.31946845 116.26019609 318.71478424 114.8515625 325.265625 C108.78761229 355.06425533 107.46556474 382.55702759 109.32194519 412.8396759 C110.24574537 428.1098303 110.65238212 443.39302347 111.05151367 458.68442917 C111.11305371 461.03038857 111.17633964 463.37629549 111.23999023 465.72219849 C111.84882947 488.33008171 112.22430588 510.93516913 112.29244232 533.55131912 C112.30071474 535.70921394 112.31434213 537.86701465 112.32940674 540.02487183 C112.35593107 544.01143064 112.35574836 547.99772347 112.3515625 551.984375 C112.36068161 553.15167648 112.36980072 554.31897797 112.37919617 555.52165222 C112.32147158 565.72384572 109.66917141 573.72453043 102.98828125 581.6015625 C92.2080107 591.10141777 79.6908801 591.01840441 66.08569336 590.82788086 C64.30965758 590.8140553 62.5336121 590.80143016 60.75755978 590.78992367 C56.09451276 590.75511846 51.43194529 590.70023562 46.76918936 590.63812399 C44.07364637 590.60268482 41.378088 590.5709552 38.68248367 590.54057693 C26.90910314 590.40610576 15.1367223 590.22400855 3.36421323 590.02870679 C-1.70898028 589.94531311 -6.78223528 589.86582449 -11.85548401 589.78587341 C-21.47828506 589.63369728 -31.10103422 589.47848033 -40.72376543 589.32195657 C-58.75983907 589.02871041 -76.79601745 588.74195454 -94.83218956 588.45483971 C-98.98353005 588.38874616 -103.13486781 588.32248427 -107.28620338 588.25608253 C-145.52727926 587.64469146 -183.76902153 587.10050399 -222.01171875 586.6015625 C-224.33510859 586.57112258 -226.65849828 586.54067144 -228.98188782 586.51020813 C-232.97550817 586.45790988 -236.96912928 586.40567134 -240.9627533 586.35365295 C-242.21778782 586.33711072 -242.21778782 586.33711072 -243.49817657 586.3202343 C-245.14744628 586.29925926 -246.79673465 586.27970912 -248.44603729 586.26150703 C-249.23046959 586.25264914 -250.01490189 586.24379124 -250.82310486 586.23466492 C-251.85423857 586.22375588 -251.85423857 586.22375588 -252.90620327 586.21262646 C-261.26228103 586.0543619 -267.61783935 584.19794578 -274.76171875 579.9765625 C-279.97165143 574.47718912 -284.1212252 567.70971533 -284.15698242 560.02734375 C-284.16328171 559.07300446 -284.16958099 558.11866516 -284.17607117 557.13540649 C-284.17786125 555.54084122 -284.17786125 555.54084122 -284.1796875 553.9140625 C-284.183741 552.76553802 -284.18779449 551.61701355 -284.19197083 550.4336853 C-284.19999322 547.18228907 -284.20212808 543.93096202 -284.20019531 540.6795578 C-284.199217 538.59783169 -284.20020335 536.51611309 -284.20141602 534.43438721 C-284.20937185 497.13901694 -283.4251498 459.84975445 -282.72338867 422.5625 C-282.70023496 421.32653894 -282.67708124 420.09057789 -282.6532259 418.81716347 C-282.54345075 412.96516561 -282.43200063 407.11321184 -282.31660461 401.26132202 C-282.21837329 396.24208264 -282.13385254 391.22276618 -282.05712891 386.20315552 C-282.01566378 383.82757717 -281.95648013 381.45318287 -281.89257812 379.078125 C-281.6937713 369.85285262 -282.8185243 361.21047356 -284.63671875 352.1796875 C-284.90715915 350.77751083 -285.17617187 349.37505814 -285.44384766 347.97235107 C-286.14131474 344.33503708 -286.85556915 340.70124712 -287.57446289 337.06811523 C-288.72914548 331.21475776 -289.85554799 325.3558673 -290.98553467 319.49770355 C-291.37987985 317.46494055 -291.78037008 315.43346984 -292.18212891 313.40216064 C-292.42237793 312.17277771 -292.66262695 310.94339478 -292.91015625 309.67675781 C-293.12333496 308.59694641 -293.33651367 307.51713501 -293.55615234 306.40460205 C-294.01171875 303.6015625 -294.01171875 303.6015625 -294.01171875 299.6015625 C-295.24921875 299.2303125 -296.48671875 298.8590625 -297.76171875 298.4765625 C-314.86574539 292.69529493 -329.22840733 282.07037856 -342.01171875 269.6015625 C-342.78902344 268.89773438 -343.56632812 268.19390625 -344.3671875 267.46875 C-367.9666127 245.49831167 -380.38314718 210.96730492 -381.86938477 179.37548828 C-383.00618146 145.21310286 -373.05860917 111.10737458 -351.01171875 84.6015625 C-350.40585937 83.85648437 -349.8 83.11140625 -349.17578125 82.34375 C-345.18779367 77.59786433 -340.82298876 73.50192081 -336.01171875 69.6015625 C-335.14933594 68.90160156 -334.28695312 68.20164062 -333.3984375 67.48046875 C-316.20197058 54.053728 -296.58539538 45.16067159 -275.01171875 41.6015625 C-273.98304688 41.41851562 -272.954375 41.23546875 -271.89453125 41.046875 C-251.57932238 38.71696171 -232.0552558 40.72376922 -212.890625 47.61328125 C-210.20374697 48.7097909 -210.20374697 48.7097909 -208.01171875 48.6015625 C-207.45484375 47.57417969 -206.89796875 46.54679687 -206.32421875 45.48828125 C-199.4679322 32.97798101 -191.82976815 22.01192567 -182.01171875 11.6015625 C-181.46128906 10.99828125 -180.91085937 10.395 -180.34375 9.7734375 C-135.93330874 -37.1590782 -49.11304315 -42.68313539 0 0 Z M-184.671875 31.4765625 C-205.67758327 55.89123424 -216.97795794 86.28622953 -216.01171875 118.6015625 C-217.00171875 118.6015625 -217.99171875 118.6015625 -219.01171875 118.6015625 C-219.5553629 95.83820607 -217.20239089 76.17357891 -210.01171875 54.6015625 C-214.8938702 52.16048677 -222.11291741 53.35587667 -227.57421875 53.3515625 C-228.32880371 53.35088776 -229.08338867 53.35021301 -229.86083984 53.34951782 C-240.88612346 53.36525562 -251.29384972 53.79667337 -262.01171875 56.6015625 C-262.66849609 56.7572168 -263.32527344 56.91287109 -264.00195312 57.07324219 C-285.98506318 62.30284244 -305.40449915 73.22180835 -321.84765625 88.59375 C-323.70296953 90.31510565 -325.59892749 91.89813341 -327.57421875 93.4765625 C-345.28918074 108.66672851 -355.96004327 131.5544781 -362.01171875 153.6015625 C-362.24761719 154.45878906 -362.48351562 155.31601562 -362.7265625 156.19921875 C-369.56997829 185.32119979 -362.40632316 216.95802772 -348.01171875 242.6015625 C-345.58785352 246.5066787 -342.94187387 250.06425812 -340.01171875 253.6015625 C-339.58068848 254.12975586 -339.1496582 254.65794922 -338.70556641 255.20214844 C-335.54583615 259.06736351 -332.30699429 262.85124891 -329.01171875 266.6015625 C-328.15513672 267.58769531 -328.15513672 267.58769531 -327.28125 268.59375 C-309.05740337 288.17618674 -278.61156834 302.12909833 -252.01171875 303.6015625 C-250.6642999 303.63274136 -249.31651836 303.65076142 -247.96875 303.65625 C-247.23825439 303.65923096 -246.50775879 303.66221191 -245.75512695 303.6652832 C-242.50697962 303.66351579 -239.25967236 303.63703772 -236.01171875 303.6015625 C-236.01171875 304.9215625 -236.01171875 306.2415625 -236.01171875 307.6015625 C-250.93086005 307.28778553 -265.37522265 306.58363447 -280.01171875 303.6015625 C-281.10742188 303.39015625 -282.203125 303.17875 -283.33203125 302.9609375 C-285.56223327 302.52607917 -287.78787594 302.06785212 -290.01171875 301.6015625 C-288.71556258 309.93825378 -287.08054184 318.14595069 -285.19140625 326.3671875 C-284.92788361 327.52659851 -284.66436096 328.68600952 -284.39285278 329.8805542 C-283.56070985 333.53830295 -282.72379992 337.19494107 -281.88671875 340.8515625 C-281.31739113 343.35018816 -280.74837778 345.84888545 -280.1796875 348.34765625 C-278.79399359 354.43312379 -277.40439743 360.51768987 -276.01171875 366.6015625 C-254.66587058 366.92441827 -233.35621313 366.00359422 -212.02966309 365.21087646 C-207.05439122 365.02685449 -202.07894625 364.84763784 -197.10351562 364.66796875 C-187.40607874 364.31709707 -177.70883959 363.96105584 -168.01171875 363.6015625 C-168.470625 362.92351562 -168.92953125 362.24546875 -169.40234375 361.546875 C-175.76786335 351.89161207 -179.25732051 342.87485376 -181.51953125 331.58203125 C-181.73108856 330.56160233 -181.94264587 329.5411734 -182.16061401 328.48982239 C-182.60343349 326.34526061 -183.04186325 324.1997881 -183.47607422 322.0534668 C-184.13321776 318.80636174 -184.80365407 315.5622302 -185.4765625 312.31835938 C-187.57921223 302.11460054 -189.63254037 291.93274732 -191.01171875 281.6015625 C-190.35171875 281.6015625 -189.69171875 281.6015625 -189.01171875 281.6015625 C-173.54927208 312.14725983 -173.54927208 312.14725983 -166.63671875 327.1640625 C-166.19158936 328.12441406 -165.74645996 329.08476563 -165.2878418 330.07421875 C-161.12688575 339.21896051 -158.93832635 347.76406662 -158.98828125 357.86328125 C-158.99166504 358.75362061 -158.99504883 359.64395996 -158.99853516 360.5612793 C-159.00288574 361.23457275 -159.00723633 361.90786621 -159.01171875 362.6015625 C-136.65421969 362.7381578 -114.35493254 362.42535622 -92.01171875 361.6015625 C-92.22030518 360.70808105 -92.4288916 359.81459961 -92.64379883 358.89404297 C-92.91603271 357.72244629 -93.1882666 356.55084961 -93.46875 355.34375 C-93.73921143 354.18214355 -94.00967285 353.02053711 -94.28833008 351.82373047 C-97.27436428 338.52312994 -96.1688999 324.84161779 -94.734375 311.3984375 C-94.6035704 310.11398743 -94.47276581 308.82953735 -94.33799744 307.50616455 C-93.9948228 304.13641684 -93.64282751 300.76765297 -93.28863525 297.39904785 C-92.93141506 293.98791533 -92.58209243 290.57597582 -92.23242188 287.1640625 C-91.83758026 283.312765 -91.44150559 279.46161336 -91.03981018 275.61102295 C-90.31046296 268.61215306 -89.62756739 261.61136096 -89.01171875 254.6015625 C-88.02171875 254.6015625 -87.03171875 254.6015625 -86.01171875 254.6015625 C-85.95629913 255.44845139 -85.90087952 256.29534027 -85.84378052 257.16789246 C-85.26253857 265.70773155 -84.47631515 274.20353282 -83.56640625 282.71484375 C-83.29096937 285.37167533 -83.01619783 288.02856853 -82.7421875 290.68554688 C-82.31709013 294.79988417 -81.88812155 298.9137029 -81.44482422 303.02612305 C-79.30230929 322.95665371 -78.07124589 340.99503186 -83.01171875 360.6015625 C-60.99776337 360.80096427 -39.01458407 360.22126867 -17.01171875 359.6015625 C-16.89199707 358.45051025 -16.77227539 357.29945801 -16.64892578 356.11352539 C-16.48115641 354.57955019 -16.31300456 353.04561679 -16.14453125 351.51171875 C-16.02815308 350.37796814 -16.02815308 350.37796814 -15.90942383 349.22131348 C-14.64327077 337.89627781 -9.45398973 328.22264462 -4.33203125 318.203125 C-1.05115899 311.7537194 2.02554456 305.20533339 5.13134766 298.67041016 C5.57397949 297.74019043 6.01661133 296.8099707 6.47265625 295.8515625 C6.89611328 294.96082031 7.31957031 294.07007813 7.75585938 293.15234375 C8.9101911 290.76318807 10.1060602 288.4001945 11.31640625 286.0390625 C13.13407338 282.93888776 13.13407338 282.93888776 12.98828125 280.6015625 C13.97828125 280.6015625 14.96828125 280.6015625 15.98828125 280.6015625 C12.72957983 298.50720623 9.42499092 316.40670836 5.42578125 334.1640625 C5.16982178 335.34887207 4.9138623 336.53368164 4.65014648 337.75439453 C2.81393429 345.68089002 -0.07379379 352.48812584 -4.01171875 359.6015625 C-2.25758667 359.66887573 -2.25758667 359.66887573 -0.46801758 359.73754883 C20.29274768 360.5457421 41.03108027 361.43256616 61.73828125 363.1640625 C62.50506195 363.22800201 63.27184265 363.29194153 64.06185913 363.3578186 C70.3641506 363.88862123 76.66295527 364.42214729 82.94140625 365.19140625 C87.30307314 365.70625192 91.59943724 365.67122669 95.98828125 365.6015625 C96.25455322 364.66175537 96.5208252 363.72194824 96.79516602 362.75366211 C98.04430665 358.34801782 99.29689734 353.94335896 100.55078125 349.5390625 C100.77626648 348.74678253 101.00175171 347.95450256 101.23406982 347.13821411 C104.37462536 336.11522496 107.58788017 325.12214142 111.00610352 314.18139648 C111.40333618 312.90244507 111.40333618 312.90244507 111.80859375 311.59765625 C112.15301514 310.50215454 112.15301514 310.50215454 112.50439453 309.38452148 C113.07558816 307.58777516 113.07558816 307.58777516 112.98828125 305.6015625 C112.37009521 305.69244141 111.75190918 305.78332031 111.11499023 305.87695312 C93.74260026 308.39212049 77.47933251 308.9909226 59.98828125 307.6015625 C59.98828125 306.2815625 59.98828125 304.9615625 59.98828125 303.6015625 C61.44234375 303.65376953 61.44234375 303.65376953 62.92578125 303.70703125 C67.41201643 303.70140093 71.61755868 302.86511175 75.98828125 301.9140625 C76.82278809 301.73327148 77.65729492 301.55248047 78.51708984 301.36621094 C113.37320423 293.55237128 144.54737462 273.3101144 164.59375 243.46875 C182.58590429 215.01709619 192.18788014 182.40687782 185.0234375 148.81640625 C177.10804479 115.22904475 157.62273312 87.30319094 128.40625 68.79296875 C101.46609323 52.32300391 68.02778674 45.81167067 36.98828125 52.6015625 C37.32601563 53.80167969 37.66375 55.00179687 38.01171875 56.23828125 C42.84286852 74.02586031 44.91745555 91.23246805 42.98828125 109.6015625 C42.8903125 110.58640625 42.79234375 111.57125 42.69140625 112.5859375 C42.4794133 114.59363546 42.2386899 116.59829327 41.98828125 118.6015625 C40.99828125 118.6015625 40.00828125 118.6015625 38.98828125 118.6015625 C38.90191406 117.73917969 38.81554687 116.87679687 38.7265625 115.98828125 C34.96453683 83.30352612 21.54073165 54.49496941 -1.01171875 30.6015625 C-1.94564453 29.58835937 -1.94564453 29.58835937 -2.8984375 28.5546875 C-25.33067535 5.04081134 -57.99846073 -9.71229082 -90.38354492 -10.75439453 C-126.95818295 -11.09156765 -160.00561297 4.81816477 -184.671875 31.4765625 Z M-275.01171875 369.6015625 C-275.11133482 393.00288918 -274.96983311 416.39025084 -274.57421875 439.7890625 C-274.55457062 441.02598846 -274.53492249 442.26291443 -274.51467896 443.537323 C-274.45693287 447.11481889 -274.39347942 450.69216707 -274.328125 454.26953125 C-274.31140747 455.32243347 -274.29468994 456.37533569 -274.27746582 457.46014404 C-274.13156358 464.86799849 -273.64758669 472.22017638 -273.01171875 479.6015625 C-272.16185379 479.57478817 -272.16185379 479.57478817 -271.29481983 479.54747295 C-263.71738638 479.30878607 -256.13994501 479.07035099 -248.5625 478.83203125 C-247.29166187 478.79206087 -246.02082375 478.75209049 -244.71147537 478.71090889 C-229.06562717 478.21898028 -213.41971747 477.7290905 -197.77368164 477.24316406 C-197.04404878 477.22049965 -196.31441592 477.19783523 -195.56267297 477.17448401 C-188.87877368 476.96687092 -182.19487218 476.75932916 -175.51096153 476.55208206 C-160.3146998 476.08084664 -145.11852477 475.6076006 -129.92285156 475.11767578 C17.395113 470.36842106 17.395113 470.36842106 76.38700867 476.97299194 C77.14012833 477.05489777 77.89324799 477.13680359 78.66918945 477.22119141 C79.31362503 477.29463776 79.95806061 477.36808411 80.62202454 477.4437561 C84.08051401 477.67440384 87.52234461 477.62365235 90.98828125 477.6015625 C91.81581487 464.82454582 92.33116667 452.05047003 92.7421875 439.25390625 C92.80782796 437.26037476 92.87366309 435.26684968 92.93968201 433.27333069 C93.11092921 428.08684365 93.27957435 422.90027533 93.44763184 417.71368408 C93.62038216 412.39696054 93.79565662 407.08032023 93.97070312 401.76367188 C94.31233202 391.37638092 94.6512053 380.98900213 94.98828125 370.6015625 C93.02760208 370.78542007 93.02760208 370.78542007 91.02731323 370.97299194 C15.10884109 378.07864669 -59.8810136 376.39941367 -136.00349808 373.9252634 C-148.15308693 373.53087277 -160.3030926 373.14996856 -172.453125 372.76953125 C-176.73747033 372.6352644 -181.02181267 372.5009023 -185.30615234 372.36645508 C-186.34604561 372.33382411 -187.38593887 372.30119314 -188.45734406 372.26757336 C-195.42947448 372.04853617 -202.40152787 371.82716867 -209.37353516 371.60424805 C-231.25206652 370.90500714 -253.13104924 370.23068714 -275.01171875 369.6015625 Z M-273.01171875 482.6015625 C-273.01171875 494.1515625 -273.01171875 505.7015625 -273.01171875 517.6015625 C-261.95259677 517.64970056 -250.93357053 517.54689685 -239.8828907 517.13729286 C-237.42759622 517.0463639 -234.97218085 516.95956366 -232.51670837 516.87358093 C-228.91986112 516.74732202 -225.32307096 516.61958861 -221.72631836 516.49066162 C-211.87519769 516.13830457 -202.02360252 515.79975761 -192.171875 515.46484375 C-191.13372272 515.42953049 -190.09557045 515.39421722 -189.02595901 515.35783386 C-157.83790419 514.30147784 -126.64355044 513.45942675 -95.44946289 512.60424805 C-94.36200744 512.5744262 -93.27455198 512.54460436 -92.15414333 512.51387882 C-86.86246138 512.36886142 -81.57076474 512.22442452 -76.27903748 512.08106995 C-65.77879006 511.79553666 -55.27965754 511.48887905 -44.7809906 511.15034485 C-24.15067099 510.4865404 -3.69846452 510.5786835 16.92578125 511.4140625 C18.00779816 511.45691376 19.08981506 511.49976501 20.20462036 511.54391479 C39.85911543 512.33444368 59.40960639 513.73470107 78.98828125 515.6015625 C81.14572317 515.79938219 83.30326408 515.99612771 85.4609375 516.19140625 C86.34144775 516.27124756 87.22195801 516.35108887 88.12915039 516.43334961 C89.04942017 516.51661499 89.04942017 516.51661499 89.98828125 516.6015625 C90.79082543 508.7480945 91.05670624 501.00543375 91.01953125 493.1171875 C91.01614746 491.73877686 91.01614746 491.73877686 91.01269531 490.33251953 C91.00686002 488.08884963 90.99867408 485.84521513 90.98828125 483.6015625 C90.13075508 483.67340004 90.13075508 483.67340004 89.25590515 483.74668884 C83.20319854 484.25315809 77.15015769 484.75548802 71.09692383 485.25561523 C68.85009421 485.44176875 66.60334634 485.62891196 64.35668945 485.81713867 C61.09217999 486.09045661 57.82737436 486.35998611 54.5625 486.62890625 C53.58874924 486.71124008 52.61499847 486.79357391 51.61174011 486.87840271 C42.08109638 487.65681937 32.53863109 488.14273769 22.98828125 488.6015625 C22.27469011 488.63712313 21.56109898 488.67268375 20.82588387 488.70932198 C-19.20804691 490.67532466 -59.31562765 488.792829 -99.34527791 487.55976307 C-109.12456845 487.25908159 -118.90428232 486.97346531 -128.68403602 486.68832183 C-157.32204605 485.85195733 -185.96032855 485.01247692 -214.59228516 483.98681641 C-215.26364632 483.96283315 -215.93500748 483.93884989 -216.62671292 483.91413987 C-223.28394282 483.67598663 -229.94088692 483.43185959 -236.59745789 483.1759491 C-248.74721272 482.71829011 -260.85262354 482.5224409 -273.01171875 482.6015625 Z M-273.01171875 520.6015625 C-272.96742628 526.17057754 -272.89744667 531.73847386 -272.80419922 537.30688477 C-272.77606659 539.19904654 -272.75481387 541.09132414 -272.74072266 542.98364258 C-272.71918589 545.7123512 -272.67248206 548.43967841 -272.62109375 551.16796875 C-272.61986511 552.00679092 -272.61863647 552.8456131 -272.61737061 553.70985413 C-272.47561766 559.46304717 -271.34007531 562.8735603 -268.01171875 567.6015625 C-263.74038157 570.91402807 -260.31940063 572.73422103 -254.90985107 572.71089172 C-254.07528004 572.70941981 -253.240709 572.7079479 -252.38084793 572.70643139 C-251.4659396 572.6992978 -250.55103127 572.69216421 -249.60839844 572.68481445 C-248.63593548 572.68081037 -247.66347252 572.67680628 -246.66154099 572.67268085 C-233.92871236 572.60787959 -221.19662432 572.43847647 -208.46484375 572.26953125 C-207.07577402 572.25149001 -205.68670349 572.23350993 -204.29763222 572.21558762 C-168.68944594 571.75609614 -133.08191077 571.24802206 -97.47460145 570.725447 C-91.74970023 570.6414809 -86.02478934 570.55821285 -80.29987013 570.4754824 C-57.6326394 570.14786589 -34.96564935 569.80869367 -12.29903984 569.44036961 C-2.73489434 569.28512901 6.82926934 569.13445366 16.39367676 568.9961853 C24.56444314 568.87798675 32.73497319 568.74970464 40.90537196 568.60828209 C45.09757985 568.53600089 49.28972595 568.46847027 53.48219872 568.41343307 C57.3343689 568.36271594 61.18606987 568.29852003 65.03784227 568.22355425 C66.43560242 568.19872615 67.83346099 568.17885465 69.23136663 568.16437471 C71.13079077 568.1439662 73.02997289 568.10386316 74.92906189 568.0627594 C76.5142684 568.03761938 76.5142684 568.03761938 78.13149929 568.01197147 C82.58177198 567.37263957 86.18045828 565.11134121 88.98828125 561.6015625 C90.38606397 557.70471369 90.11421848 553.63652984 90.0859375 549.5546875 C90.08452255 548.78348572 90.0831076 548.01228394 90.08164978 547.2177124 C90.07606659 544.76228912 90.0635172 542.30695808 90.05078125 539.8515625 C90.04576408 538.18359507 90.04120155 536.51562621 90.03710938 534.84765625 C90.02610266 530.76558963 90.00884961 526.68359169 89.98828125 522.6015625 C81.11402126 523.0879801 72.24785571 523.63269309 63.38671875 524.3203125 C62.56810364 524.3836377 61.74948853 524.44696289 60.90606689 524.51220703 C57.56362669 524.77188986 54.221333 525.03324896 50.87939453 525.29931641 C30.22715675 526.93735062 9.58153063 527.83508667 -11.13671875 527.8515625 C-12.70055801 527.85357162 -12.70055801 527.85357162 -14.29598999 527.85562134 C-53.8561324 527.84516189 -93.41594945 526.20150591 -132.95010948 524.92526245 C-145.11235033 524.5329243 -157.27491755 524.15110668 -169.4375 523.76953125 C-181.71989999 523.38395705 -194.00227448 522.99773577 -206.28442383 522.60424805 C-228.5256998 521.89238015 -250.76758585 521.21813303 -273.01171875 520.6015625 Z " fill="#000000" transform="translate(614.01171875,211.3984375)"/>
</svg>
