<?xml version="1.0" encoding="UTF-8"?>
<svg version="1.1" xmlns="http://www.w3.org/2000/svg" width="1181" height="28">
<path d="M0 0 C6.73148416 0.00762601 13.46290997 0.00472845 20.19439214 -0.00360358 C73.64570342 -0.06797514 127.02871347 0.63349028 180.45562261 2.25713861 C182.72301482 2.32469719 184.99040959 2.39216984 187.25780767 2.45953119 C197.86758873 2.77776117 208.47528641 3.13567892 219.08191961 3.54552972 C221.45460783 3.63691391 223.82736168 3.72643866 226.20012945 3.81573236 C250.58786072 4.73752551 274.96463336 5.85028994 299.33603185 7.13269556 C301.64063356 7.2537256 303.94530709 7.37330092 306.24999517 7.49267328 C328.68884822 8.66167109 351.06879378 10.33990049 373.45562261 12.25713861 C373.45562261 13.57713861 373.45562261 14.89713861 373.45562261 16.25713861 C357.15266564 18.06251554 340.82759314 19.17477264 324.45562261 20.13213861 C323.74973123 20.17373857 323.04383985 20.21533853 322.31655782 20.2581991 C294.63819588 21.88709315 266.94522961 23.13362691 239.24212164 24.25607812 C236.25373599 24.3776391 233.26543891 24.50118816 230.27715582 24.62524164 C215.33900254 25.24181766 200.39872997 25.77578912 185.45562261 26.25713861 C184.78515496 26.27881396 184.11468731 26.30048932 183.42390245 26.3228215 C127.74347164 28.11840249 72.09661144 28.62292818 16.38953823 28.57212389 C12.06122387 28.56874532 7.73290982 28.56752338 3.40459442 28.56621981 C-75.85530052 28.53999834 -155.07412782 27.51713742 -234.31878382 26.06404245 C-271.04044989 25.39182904 -307.76346286 24.8463501 -344.48768523 24.33817247 C-346.6751203 24.30789444 -348.86255477 24.27757365 -351.04998904 24.24723828 C-364.39146107 24.06222448 -377.7329416 23.87782985 -391.07443053 23.69403875 C-423.95258084 23.24102632 -456.8306079 22.77960409 -489.70843989 22.30401361 C-490.80814028 22.28810744 -490.80814028 22.28810744 -491.93005684 22.27187994 C-554.63364648 21.36431651 -617.33376108 20.29985021 -680.03312308 19.13479888 C-683.53225484 19.06986357 -687.03139154 19.0052009 -690.53053004 18.94062936 C-704.65335847 18.67991281 -718.77610267 18.41509552 -732.89876324 18.14543951 C-735.78887969 18.09046332 -738.67900718 18.03610725 -741.56913859 17.98192346 C-763.56749027 17.56831926 -785.55590049 17.04264969 -807.54437739 16.25713861 C-807.54437739 14.93713861 -807.54437739 13.61713861 -807.54437739 12.25713861 C-745.27470798 10.83002602 -683.00321888 9.58602197 -620.72660166 8.50478113 C-615.97189327 8.42222843 -611.21719136 8.33931573 -606.46249491 8.25607812 C-541.713896 7.12267653 -476.96441013 6.09187771 -412.21234614 5.17901361 C-411.03721539 5.16244302 -411.03721539 5.16244302 -409.83834463 5.14553767 C-375.85176411 4.66646163 -341.86503609 4.19843244 -307.87816445 3.74049277 C-296.38054614 3.58553504 -284.88294408 3.42937947 -273.38534439 3.27304748 C-269.15711285 3.21558763 -264.92887732 3.15843223 -260.70063863 3.10150046 C-230.7599716 2.69825005 -200.82049962 2.26519844 -170.88226801 1.70440423 C-169.64888575 1.68134454 -168.41550349 1.65828485 -167.14474601 1.63452637 C-162.22803899 1.54254575 -157.3113352 1.4503933 -152.39463198 1.35820985 C-101.59247811 0.40717239 -50.81088316 -0.06423401 0 0 Z " fill="#000000" transform="translate(807.54437738657,-0.25713860988616943)"/>
</svg>
