<?xml version="1.0" encoding="UTF-8"?>
<svg version="1.1" xmlns="http://www.w3.org/2000/svg" viewBox="0 0 1370 1181" width="1370" height="1181">
<path d="M0 0 C0.70741755 0.00001163 1.41483511 0.00002325 2.14368956 0.00003523 C4.29068902 0.00007161 6.43768849 0.000111 8.58468795 0.00015163 C9.29424579 0.00016501 10.00380364 0.00017838 10.73486323 0.00019215 C16.65913748 0.00030608 16.65913748 0.00030608 19.34750505 0.00037833 C41.95915565 0.00097284 64.57079148 -0.00668504 87.1824379 -0.02018738 C112.92505859 -0.0355553 138.66766962 -0.0441549 164.41029519 -0.04322416 C167.14903684 -0.04314956 169.8877785 -0.04310084 172.62652016 -0.04306984 C173.30029838 -0.04305819 173.9740766 -0.04304653 174.66827235 -0.04303452 C184.76760207 -0.04300585 194.8669194 -0.04830697 204.96624565 -0.05640221 C216.37669411 -0.06549649 227.78711788 -0.06768794 239.19756839 -0.06089278 C244.99883064 -0.05763408 250.8000454 -0.0575499 256.6013031 -0.06624603 C261.91436119 -0.07413007 267.22733421 -0.07266073 272.54039028 -0.0639619 C274.45256883 -0.06243222 276.3647538 -0.06422284 278.27692477 -0.06982198 C307.08134259 -0.14854859 333.99012733 5.11649393 356.56110001 24.18562317 C357.97842422 25.35931458 357.97842422 25.35931458 359.42438126 26.55671692 C377.33560758 42.04014216 388.8704276 63.89503851 392.56110001 87.18562317 C392.95422997 92.61379093 392.96280024 98.01670643 392.93341446 103.454422 C392.93581254 105.07474558 392.93949792 106.69506767 392.94433117 108.31538582 C392.95369799 112.79722953 392.94395977 117.27885851 392.93093014 121.76068568 C392.91957607 126.75727659 392.92531303 131.75385864 392.92822647 136.75045776 C392.9309849 146.88119026 392.9156701 157.01182868 392.89449966 167.14253646 C392.87706168 175.62835423 392.86639703 184.11415816 392.85965347 192.59999084 C392.77875657 289.51664668 392.31997976 386.43282178 391.64016193 532.56800264 C391.62363084 536.05412158 391.60715188 539.54024076 391.59069109 543.02636003 C391.44737277 573.37436335 391.29908917 603.72233749 391.14423961 634.0702842 C391.10760551 641.26804377 391.07211856 648.46580836 391.03713608 655.66357613 C390.93471184 676.62552655 390.81819827 697.58728751 390.6736449 718.54899293 C390.59590215 729.96232747 390.53662516 741.37560218 390.49074041 752.78910919 C390.45340411 761.81787613 390.4012519 770.84649277 390.33941806 779.87512449 C390.30290488 785.28387682 390.2728049 790.69247154 390.25966084 796.10133529 C390.24723545 801.14391969 390.21616728 806.18606777 390.17171307 811.22846827 C390.15866364 813.06570439 390.15206099 814.90300138 390.15292434 816.74028364 C390.15471269 846.0355562 382.10699747 872.18317948 361.36188126 893.44343567 C338.8839934 915.45107482 311.74888338 922.73215841 280.97980118 922.51374817 C279.0193183 922.51103853 277.05883334 922.50960368 275.09834862 922.50930786 C269.68962065 922.50434049 264.2811335 922.47980074 258.87248254 922.45172501 C254.15800669 922.42975926 249.44353067 922.41924902 244.72901767 922.40862751 C228.50041999 922.37166444 212.2721228 922.29479351 196.04372692 922.20917511 C192.2633025 922.18923909 188.48287558 922.16983226 184.70244751 922.15060252 C128.13540476 921.86282543 71.56887286 921.49245701 15.00238419 921.11274719 C-35.77828719 920.77190554 -86.55896435 920.4578738 -137.34025087 920.223333 C-142.80946206 920.19803628 -148.2786688 920.17195235 -153.74787342 920.1452741 C-174.8113293 920.04273672 -195.87471078 919.95555713 -216.93837696 919.9108057 C-225.49341216 919.89243431 -234.04831742 919.8682974 -242.60327339 919.82646179 C-249.76181026 919.7915456 -256.92021727 919.77045331 -264.07884188 919.76769602 C-267.70875511 919.76593327 -271.33835177 919.75789708 -274.96818185 919.73229218 C-278.90287653 919.70476767 -282.83719153 919.70874034 -286.7719841 919.71565247 C-287.90374516 919.70283957 -289.03550621 919.69002668 -290.20156306 919.67682552 C-300.13861577 919.74177024 -308.91255893 921.80693153 -316.12639999 928.99812317 C-317.03261093 929.87726379 -317.93882187 930.75640442 -318.87249374 931.66218567 C-320.14286484 932.91128723 -320.14286484 932.91128723 -321.43889999 934.18562317 C-322.84535197 935.42646481 -324.26097758 936.65705051 -325.68889999 937.87312317 C-328.79324781 940.56734373 -331.68731393 943.41017411 -334.5651207 946.34284973 C-336.37172594 948.11956066 -338.23264425 949.78024543 -340.15374374 951.43171692 C-344.37182917 955.0996594 -348.44579797 958.90226079 -352.50139999 962.74812317 C-353.99725777 964.16113344 -355.49335616 965.57388902 -356.98968124 966.98640442 C-357.73427597 967.68974915 -358.4788707 968.39309387 -359.2460289 969.11775208 C-367.62151041 977.01580689 -376.05897015 984.84762011 -384.52581406 992.64753723 C-388.67934857 996.47669565 -392.81177762 1000.32802715 -396.93889999 1004.18562317 C-402.11664651 1009.02523113 -407.31210242 1013.84468156 -412.52483749 1018.64656067 C-417.32146305 1023.06881545 -422.0891079 1027.52172655 -426.85515976 1031.97688293 C-430.84843086 1035.70745908 -434.85592759 1039.42189423 -438.87639999 1043.12312317 C-443.75643648 1047.61662211 -448.60348033 1052.14416395 -453.43889999 1056.68562317 C-458.79431054 1061.71546138 -464.17028854 1066.72121907 -469.57561874 1071.69734192 C-473.71341019 1075.50900202 -477.82905142 1079.34386511 -481.93889999 1083.18562317 C-487.11662492 1088.02525408 -492.31210259 1092.84468172 -497.52483749 1097.64656067 C-502.32146305 1102.06881545 -507.0891079 1106.52172655 -511.85515976 1110.97688293 C-515.84843086 1114.70745908 -519.85592759 1118.42189423 -523.87639999 1122.12312317 C-528.75643648 1126.61662211 -533.60348033 1131.14416395 -538.43889999 1135.68562317 C-543.79431054 1140.71546138 -549.17028854 1145.72121907 -554.57561874 1150.69734192 C-558.07131181 1153.91751238 -561.55306381 1157.15209295 -565.02508163 1160.39778137 C-566.29226592 1161.5815536 -567.56096436 1162.76370724 -568.83123398 1163.94416809 C-571.95219986 1166.84640308 -575.04852746 1169.76802827 -578.10296249 1172.74031067 C-578.68626328 1173.29976379 -579.26956406 1173.85921692 -579.87054062 1174.43562317 C-580.97005011 1175.49074646 -582.06052218 1176.55539917 -583.14007187 1177.63093567 C-585.33991855 1179.72438454 -586.86615633 1181.09302423 -589.90935898 1181.58503723 C-592.43889999 1181.18562317 -592.43889999 1181.18562317 -594.1613121 1179.42341614 C-594.67443954 1178.59986633 -595.18756699 1177.77631653 -595.71624374 1176.92781067 C-596.59905014 1175.5413031 -596.59905014 1175.5413031 -597.49969101 1174.12678528 C-598.11900497 1173.11495178 -598.73831894 1172.10311829 -599.37639999 1171.06062317 C-600.36047836 1169.50130066 -600.36047836 1169.50130066 -601.3644371 1167.91047668 C-602.73210221 1165.74094675 -604.0924372 1163.56678016 -605.44573593 1161.38825989 C-607.85876571 1157.51097858 -610.31685225 1153.66381879 -612.77874374 1149.81745911 C-614.51834599 1147.09661863 -616.2493826 1144.37050887 -617.97796249 1141.64265442 C-620.27943699 1138.01130929 -622.58657631 1134.38369016 -624.89983749 1130.75984192 C-638.28420252 1109.78805376 -651.40946988 1088.66005287 -664.42718124 1067.45906067 C-666.41764602 1064.22020731 -668.41195098 1060.98375353 -670.40764999 1057.74812317 C-683.82686646 1035.98776772 -697.11562213 1014.15766071 -710.13903427 992.15834045 C-716.51690213 981.38664975 -722.95922654 970.65646893 -729.49065781 959.97712708 C-732.71184774 954.70420917 -735.90101568 949.42026497 -738.98968124 944.06843567 C-739.80674545 942.66416321 -739.80674545 942.66416321 -740.64031601 941.23152161 C-741.63849968 939.50991836 -742.62557035 937.78179986 -743.5988121 936.04597473 C-744.03588486 935.29541809 -744.47295761 934.54486145 -744.92327499 933.77156067 C-745.2916246 933.12235657 -745.65997421 932.47315247 -746.03948593 931.80427551 C-748.45204855 929.01375036 -751.46770518 928.27343097 -755.06814575 927.94790745 C-756.48823252 927.95651751 -756.48823252 927.95651751 -757.9370079 927.96530151 C-759.02998184 927.96688766 -760.12295578 927.96847382 -761.24905014 927.97010803 C-762.43866348 927.98201172 -763.62827682 927.99391541 -764.85393906 928.00617981 C-766.78969101 928.01312949 -768.72544298 928.02007662 -770.66119528 928.02692878 C-772.73877169 928.03617585 -774.816264 928.05035411 -776.89380264 928.06585884 C-781.24229195 928.09780333 -785.59074487 928.11320197 -789.93932724 928.12591553 C-800.75058041 928.15994226 -811.56173644 928.21223802 -822.37285995 928.27503967 C-830.75869657 928.3237499 -839.14443858 928.36575552 -847.53039718 928.38654798 C-851.13653402 928.39609424 -854.74242527 928.41155215 -858.34845352 928.44168282 C-893.51251446 928.73051169 -893.51251446 928.73051169 -910.12639999 922.49812317 C-910.81862656 922.24538635 -911.51085312 921.99264954 -912.22405624 921.73225403 C-922.98096733 917.63561447 -932.6882778 911.65410291 -941.43889999 904.18562317 C-942.61839218 903.22269348 -942.61839218 903.22269348 -943.82171249 902.24031067 C-960.01204492 888.48614112 -969.89414399 870.51639518 -975.43889999 850.18562317 C-975.61308431 849.548045 -975.78726862 848.91046683 -975.96673125 848.25356811 C-977.9658279 839.79609425 -977.70815185 831.28484338 -977.66895676 822.65487671 C-977.66811868 820.89321009 -977.66807207 819.13154295 -977.6687516 817.36987627 C-977.6676539 812.5901704 -977.65322244 807.81059053 -977.63570081 803.03091995 C-977.62558084 799.99382356 -977.61917076 796.9567417 -977.61402285 793.91963303 C-977.54003691 750.41163487 -977.09661602 706.90801216 -976.56647022 663.40353426 C-976.43226263 652.37688916 -976.30412088 641.3501751 -976.17591593 630.32345886 C-975.94413296 610.40482068 -975.70732177 590.48624569 -975.46746445 570.56770325 C-975.24168388 551.81774631 -975.01944849 533.06775228 -974.80144882 514.31770325 C-973.63303733 413.86340577 -972.39138479 313.41026273 -970.98065112 212.95904696 C-970.86666007 204.8350407 -970.75435981 196.71101223 -970.64273262 188.58697319 C-970.50789772 178.78195254 -970.37015355 168.97697765 -970.22869803 159.17205019 C-970.15685101 154.19030861 -970.08606803 149.20855892 -970.01843095 144.22675824 C-969.95629219 139.65540389 -969.89057014 135.0841147 -969.82213042 130.51285047 C-969.79814811 128.87237383 -969.77537869 127.23187885 -969.75404032 125.59136569 C-969.64488599 117.25801444 -969.43651568 108.93638894 -969.01882076 100.61225796 C-968.98613559 99.89451203 -968.95345042 99.1767661 -968.91977479 98.43727029 C-967.44030687 71.59339961 -953.84999486 49.57886702 -934.35589218 31.83210754 C-918.39131699 18.12030226 -897.63655073 10.6240493 -876.77215195 9.66365051 C-875.90455655 9.62233694 -875.03696115 9.58102337 -874.14307499 9.53845787 C-862.13701862 8.99921074 -850.12176541 8.78108969 -838.10686874 8.53718567 C-836.07006025 8.49463801 -834.03326016 8.45170237 -831.99646008 8.40875405 C-823.00226994 8.21931519 -814.00792221 8.03805761 -805.01353216 7.85839987 C-802.61574187 7.81040985 -800.21795765 7.76212728 -797.82017517 7.71374893 C-699.631393 5.73333247 -601.4326128 4.23932432 -427.50494623 2.09104776 C-424.88124787 2.06138459 -422.25755232 2.03148612 -419.63385773 2.00149155 C-398.85275764 1.76400738 -378.07155073 1.54603964 -357.28997993 1.35384369 C-347.16515978 1.26005208 -337.04042105 1.16156971 -326.91573715 1.05400085 C-237.0061324 0.10544598 -147.09458246 0.03343128 0 0 Z M-934.43889999 38.18562317 C-935.24972031 38.79663879 -936.06054062 39.40765442 -936.89593124 40.03718567 C-951.01627083 51.96681204 -959.84540147 72.25886677 -962.43889999 90.18562317 C-962.52802374 92.28667152 -962.56924573 94.39009113 -962.57226181 96.49302673 C-962.57616173 97.74475803 -962.58006165 98.99648933 -962.58407974 100.28615189 C-962.58309871 101.66426357 -962.58189843 103.04237512 -962.58050156 104.42048645 C-962.58232016 105.88508517 -962.58443145 107.34968355 -962.58681107 108.81428146 C-962.59138455 112.82226777 -962.5882855 116.83021321 -962.58280087 120.83819723 C-962.5794924 123.40623728 -962.57775956 125.97427473 -962.57629776 128.54231644 C-962.54768812 167.4553059 -961.98616802 206.35796676 -961.38512802 245.26554871 C-961.02734384 268.44045124 -960.69665559 291.61575246 -960.36858749 314.79109192 C-960.35053196 316.06313264 -960.33247643 317.33517336 -960.31387377 318.64576077 C-959.58583327 369.98748765 -958.97159967 421.33039425 -958.38421249 472.67390442 C-958.37309826 473.64529027 -958.36198403 474.61667613 -958.35053301 475.61749792 C-958.00072728 506.20265837 -957.65637877 536.7878799 -957.31389999 567.37312317 C-957.30306059 568.34105753 -957.29222118 569.3089919 -957.2810533 570.30625761 C-957.15145937 581.8793361 -957.02199607 593.45241605 -956.8926212 605.02549699 C-956.82926336 610.69274229 -956.76585707 616.35998704 -956.70240361 622.02723126 C-956.650433 626.66891085 -956.59848314 631.31059067 -956.54653549 635.95227051 C-956.53637281 636.86015536 -956.52621013 637.76804021 -956.51573949 638.70343672 C-956.40787375 648.34154308 -956.30036196 657.97965311 -956.19406128 667.61777687 C-955.97602517 687.38438766 -955.75374437 707.15094092 -955.52323455 726.91741048 C-955.46479512 731.93552714 -955.40731477 736.95365397 -955.35035584 741.97178764 C-955.25013793 750.79782454 -955.14714916 759.6238217 -955.03958324 768.44977233 C-954.98859184 772.63776127 -954.93870552 776.82575471 -954.89204192 781.0137943 C-954.66565262 802.43930076 -954.66565262 802.43930076 -954.00478745 823.85473633 C-953.97219082 824.69980061 -953.93959419 825.54486489 -953.90600979 826.41553718 C-953.02942431 844.72005101 -945.79394612 861.68297394 -933.43889999 875.18562317 C-932.55331406 876.20849426 -932.55331406 876.20849426 -931.64983749 877.25202942 C-917.6614975 892.46062886 -897.33141416 899.88077037 -877.08514023 900.74836731 C-875.7194863 900.80961965 -875.7194863 900.80961965 -874.3262434 900.87210941 C-864.04036871 901.29662922 -853.7534935 901.36816233 -843.46012688 901.41541862 C-839.93863563 901.43218308 -836.41723659 901.45541728 -832.89579391 901.48031616 C-822.90101518 901.55018886 -812.90620436 901.61128612 -802.9113121 901.66242981 C-796.75323997 901.69438767 -790.59528638 901.73567577 -784.43731117 901.7826252 C-782.11276445 901.79850898 -779.78819081 901.81089229 -777.46360588 901.81953239 C-741.34470317 901.95592303 -741.34470317 901.95592303 -729.43889999 912.18562317 C-724.02458359 919.3585368 -719.94568708 927.5753808 -715.75139999 935.49812317 C-714.51498174 937.81482886 -713.27799407 940.13123074 -712.04046249 942.44734192 C-711.12635605 944.16123108 -711.12635605 944.16123108 -710.19378281 945.90974426 C-707.70237253 950.56051542 -705.16508833 955.18555161 -702.62639999 959.81062317 C-696.96849102 970.14516249 -691.4436806 980.54897616 -685.92791367 990.95979309 C-681.8990056 998.56290482 -677.84825293 1006.15316161 -673.76702499 1013.72834778 C-666.46587709 1027.28636882 -659.37457747 1040.94269993 -652.34482956 1054.6427002 C-651.99688843 1055.32073196 -651.6489473 1055.99876373 -651.29046249 1056.69734192 C-650.94908752 1057.36260391 -650.60771255 1058.02786591 -650.25599289 1058.71328735 C-647.70457403 1063.6804242 -645.11682863 1068.62697369 -642.50139999 1073.56062317 C-624.58167689 1107.48009905 -607.54673765 1141.85245702 -590.43889999 1176.18562317 C-581.88153698 1172.09735419 -575.36370148 1164.17226867 -568.75896835 1157.48664856 C-566.08949755 1154.79572934 -563.39154685 1152.20018461 -560.50139999 1149.74812317 C-556.77932281 1146.58552314 -553.37024195 1143.15591339 -549.93889999 1139.68562317 C-546.54884145 1136.25717212 -543.18695992 1132.86301575 -539.50139999 1129.74812317 C-535.59620044 1126.43989679 -532.03608831 1122.82048824 -528.43889999 1119.18562317 C-524.27243305 1114.97551688 -520.08604598 1110.91321106 -515.55999374 1107.08796692 C-512.56750779 1104.4040983 -509.7645674 1101.54328228 -506.93889999 1098.68562317 C-503.54883619 1095.25717766 -500.18696043 1091.86301618 -496.50139999 1088.74812317 C-492.59620044 1085.43989679 -489.03608831 1081.82048824 -485.43889999 1078.18562317 C-481.27243305 1073.97551688 -477.08604598 1069.91321106 -472.55999374 1066.08796692 C-469.56750779 1063.4040983 -466.7645674 1060.54328228 -463.93889999 1057.68562317 C-460.54883619 1054.25717766 -457.18696043 1050.86301618 -453.50139999 1047.74812317 C-449.59620044 1044.43989679 -446.03608831 1040.82048824 -442.43889999 1037.18562317 C-438.27243305 1032.97551688 -434.08604598 1028.91321106 -429.55999374 1025.08796692 C-425.96152538 1021.86061131 -422.61366469 1018.37937344 -419.2159996 1014.94319153 C-415.79834185 1011.50174152 -412.29611791 1008.25953665 -408.59514999 1005.12312317 C-405.59275296 1002.42531714 -402.77629417 999.55518279 -399.93889999 996.68562317 C-396.54883882 993.25717489 -393.18696017 989.86301597 -389.50139999 986.74812317 C-385.59620044 983.43989679 -382.03608831 979.82048824 -378.43889999 976.18562317 C-374.27243305 971.97551688 -370.08604598 967.91321106 -365.55999374 964.08796692 C-362.00823828 960.90250668 -358.69009247 957.47788667 -355.3566246 954.0662384 C-352.50831271 951.17197887 -349.59917978 948.42141056 -346.52093124 945.77156067 C-342.33567682 942.15561291 -338.48816356 938.26578575 -334.62639999 934.31062317 C-317.87270212 917.39328452 -306.01436427 910.97205618 -281.8982048 910.78913879 C-280.47427894 910.77170579 -279.0503626 910.75347958 -277.62645614 910.73452759 C-273.78752051 910.68588713 -269.94855529 910.64901447 -266.10946928 910.61458397 C-262.84976529 910.58386061 -259.59015555 910.54622649 -256.3305257 910.50854349 C-245.36681149 910.38186961 -234.40292733 910.28068853 -223.43889999 910.18562317 C-221.90224935 910.17206994 -220.36559884 910.15850024 -218.8289485 910.14491272 C-198.99234882 909.97063334 -179.15554946 909.84083894 -159.31852308 909.72663322 C-151.18210966 909.67969959 -143.04571686 909.62951761 -134.90932292 909.57933873 C-120.13567619 909.48831616 -105.36201544 909.39982816 -90.58834457 909.31282043 C-76.19304825 909.22802471 -61.79776503 909.14131469 -47.40249252 909.05256653 C-46.50285172 909.04702135 -45.60321091 909.04147618 -44.67630827 909.03576297 C-41.03808149 909.01333494 -37.39985474 908.99090227 -33.76162803 908.96846351 C29.11719561 908.58081576 91.99598537 908.19912426 154.87546349 907.93409729 C161.7326705 907.90515758 168.58987107 907.87486459 175.44707108 907.84431458 C179.75680901 907.82522071 184.06654724 907.80619344 188.37628555 907.78718567 C189.40779106 907.78261982 190.43929657 907.77805397 191.50205982 907.77334976 C203.33460268 907.72122581 215.16713059 907.67561047 226.99973869 907.64120817 C234.16163117 907.62003713 241.32348025 907.59252162 248.48532963 907.55988741 C252.47684704 907.54199044 256.46830673 907.52711427 260.45986176 907.52142334 C279.73413172 907.52983452 279.73413172 907.52983452 298.96173477 906.32429504 C300.09435572 906.21563236 300.09435572 906.21563236 301.2498579 906.10477448 C321.90966029 903.75634323 340.49516672 892.97727273 353.99078751 877.37702942 C364.81770863 863.65199305 372.68271685 846.70697601 372.68766308 828.98820114 C372.69039527 827.75748013 372.69312747 826.52675911 372.69594246 825.25874352 C372.6938961 823.90003968 372.69174575 822.54133598 372.68950272 821.18263245 C372.69073605 819.73104365 372.6923927 818.27945516 372.69443506 816.82786727 C372.69870101 812.83635002 372.69657677 808.84485822 372.69325909 804.85334098 C372.69117106 801.42360522 372.69266302 797.99387473 372.69417588 794.56413895 C372.69829788 785.17637709 372.69499114 775.78863043 372.6882721 766.40087062 C372.68324915 759.37939154 372.68019488 752.35791395 372.67813301 745.33643341 C372.64894096 655.50990787 372.23106296 565.68567997 371.74421148 475.8606481 C371.65714434 459.79483272 371.57289719 443.72900495 371.49103165 427.66316223 C371.48561146 426.60025351 371.48019127 425.53734479 371.47460683 424.44222671 C371.45273439 420.15265726 371.43087286 415.86308775 371.40902374 411.57351819 C371.21324792 373.14427992 371.00779147 334.71510887 370.78933644 296.28599262 C370.65676703 272.96395264 370.53179496 249.64190698 370.42216903 226.31974721 C370.35403388 211.85491635 370.27957576 197.39012703 370.19997376 182.92535472 C370.15009044 173.81536799 370.10562113 164.70539129 370.06886162 155.59534198 C370.04381443 149.51587408 370.01180751 143.43646808 369.97425131 137.35706466 C369.95312165 133.90324154 369.93494989 130.44947698 369.92542529 126.9956007 C369.83109631 97.43827713 367.89820694 71.88830495 346.56110001 49.18562317 C327.30796699 31.09057334 305.40477927 25.84072868 279.73807144 25.95184326 C278.05397866 25.95168692 276.36988577 25.9506454 274.685794 25.94880301 C270.08065858 25.94628325 265.47562226 25.95617399 260.87050486 25.96815097 C255.88628476 25.97889117 250.90206498 25.9779524 245.91783524 25.97842407 C237.25701705 25.98078711 228.59623107 25.99037787 219.9354248 26.00472832 C207.25457432 26.02561983 194.57373729 26.03413245 181.89287187 26.03964967 C161.10616553 26.04892296 140.31947476 26.06635788 119.53277969 26.0896759 C118.28890807 26.09106922 117.04503644 26.09246253 115.76347174 26.09389807 C113.24941026 26.0967171 110.73534879 26.09953676 108.22128732 26.10235703 C106.35550504 26.10444871 106.35550504 26.10444871 104.45203018 26.10658264 C103.20876575 26.10797797 101.96550131 26.10937329 100.6845622 26.1108109 C59.53634611 26.15662061 18.3881145 26.18841586 -22.76012054 26.21098289 C-26.32766953 26.21297024 -29.89521845 26.21507238 -33.46276736 26.21719289 C-112.146025 26.26303935 -190.82037154 26.00099944 -269.50028127 25.28350031 C-280.80507919 25.18089273 -292.10995737 25.09084963 -303.41488314 25.0036484 C-326.33893125 24.82650422 -349.26267252 24.62324665 -372.1863308 24.40151215 C-375.19570512 24.37245397 -378.20508161 24.34362876 -381.21445847 24.31483459 C-459.56423744 23.5632803 -537.90822827 22.47644203 -616.25230024 21.28352199 C-621.21068368 21.20804192 -626.16907248 21.13292237 -631.12746429 21.05799484 C-649.98657474 20.77290283 -668.84560411 20.48302891 -687.70452499 20.18562317 C-688.99099308 20.16534695 -690.27746117 20.14507073 -691.60291314 20.12418008 C-719.41875241 19.68455416 -747.23335577 19.21148324 -775.04632187 18.61531067 C-776.14414537 18.59186836 -777.24196887 18.56842606 -778.37305975 18.54427338 C-788.6221662 18.32496123 -798.87113781 18.10134124 -809.11974692 17.85982895 C-820.55881342 17.59114485 -831.99793058 17.3567055 -843.43889999 17.18562317 C-844.85045081 17.16442162 -844.85045081 17.16442162 -846.29051781 17.14279175 C-852.14909062 17.05865223 -858.00734045 16.99774603 -863.86641741 16.96300125 C-865.70725424 16.9502095 -867.5480649 16.93242078 -869.38879728 16.90900803 C-893.83215736 16.61345609 -915.25004608 22.32766465 -934.43889999 38.18562317 Z " fill="#000000" transform="translate(977.4388999938965,-0.1856231689453125)"/>
<path d="M0 0 C2.13547249 -0.01246334 4.27092223 -0.0299074 6.40631104 -0.05255127 C32.51934222 -0.31131826 47.94075821 6.22072972 66.76626587 24.3744812 C84.71519355 42.0013772 88.24813197 56.08793768 88.64590454 80.86300659 C88.6719957 82.30153564 88.69846534 83.74005787 88.72528076 85.17857361 C88.78196429 88.25369693 88.8363255 91.32884908 88.88891411 94.4040451 C88.97248388 99.27126631 89.06331734 104.13833577 89.15544128 109.00540161 C89.4162447 122.83749816 89.6688088 136.66973237 89.91104126 150.50216675 C90.04518872 158.15894102 90.18602423 165.815563 90.33412129 173.47208047 C90.42724414 178.30629741 90.51213271 183.14056552 90.59086788 187.9750371 C90.64183145 190.98336142 90.70062071 193.99149549 90.76160049 196.99963188 C90.7882293 198.38989149 90.81168041 199.78021631 90.83164787 201.17058754 C90.80563244 210.92485234 90.80563244 210.92485234 93.28872681 220.23117065 C100.18277508 224.28649317 107.79837884 224.38558424 115.61465454 224.38156128 C116.44164164 224.38431564 117.26862873 224.38707001 118.12067604 224.38990784 C120.92543117 224.39588057 123.73006449 224.39248521 126.53482056 224.38742065 C127.53275572 224.38684158 128.53069088 224.38626251 129.5588665 224.38566589 C160.34698201 224.35139754 191.12909479 223.57439884 221.90818822 222.89502525 C235.14004803 222.60306066 248.37210642 222.32025212 261.60418218 222.03826952 C266.21751054 221.93977438 270.8307919 221.83936979 275.44404042 221.73720551 C278.30614053 221.6740475 281.16826591 221.6120921 284.03039742 221.55037498 C285.95481757 221.50847843 287.87920426 221.46505314 289.80358887 221.42155457 C329.52755695 220.57163095 329.52755695 220.57163095 344.66763306 234.4772644 C358.56790334 249.51635201 359.63031772 265.53023927 359.47622681 284.98117065 C359.46668424 286.83232573 359.45724459 288.68348133 359.44790649 290.53463745 C359.41551899 295.76712438 359.35591252 300.99903166 359.28872681 306.23117065 C359.27470825 307.5062146 359.2606897 308.78125854 359.24624634 310.09494019 C359.00856182 326.63729267 356.98262092 340.83455931 345.18716431 353.4850769 C340.06364983 358.25555769 334.40459558 361.86042043 328.28872681 365.23117065 C328.62646118 365.86023315 328.96419556 366.48929565 329.31216431 367.13742065 C329.98118774 368.4213269 329.98118774 368.4213269 330.66372681 369.73117065 C331.10458618 370.56648315 331.54544556 371.40179565 331.99966431 372.26242065 C335.33747176 379.94949236 335.71602951 387.49616403 336.02700806 395.77023315 C336.10002388 397.56791641 336.10002388 397.56791641 336.17451477 399.4019165 C336.27382426 401.93157924 336.36852425 404.46142664 336.45889282 406.99142456 C336.60002966 410.82366505 336.76887621 414.65403347 336.93911743 418.4850769 C337.6433553 436.15266613 338.10727534 452.37864785 326.21450806 466.7350769 C321.5507537 471.67556363 316.58454534 475.58240133 310.28872681 478.23117065 C309.62872681 478.23117065 308.96872681 478.23117065 308.28872681 478.23117065 C308.63806274 479.1232019 308.98739868 480.01523315 309.34732056 480.93429565 C309.80235962 482.1047644 310.25739868 483.27523315 310.72622681 484.48117065 C311.17868774 485.6413269 311.63114868 486.80148315 312.09732056 487.99679565 C313.57063479 491.99648151 314.40156053 495.44657272 314.58584595 499.70162964 C314.62581192 500.58032211 314.66577789 501.45901459 314.70695496 502.36433411 C314.76483437 503.7814846 314.76483437 503.7814846 314.82388306 505.2272644 C314.8668602 506.21179092 314.90983734 507.19631744 314.95411682 508.2106781 C315.04427798 510.2977466 315.13240647 512.38490375 315.21865845 514.47213745 C315.34944826 517.62578583 315.48749803 520.77905187 315.62661743 523.93234253 C317.40412288 565.07286125 317.40412288 565.07286125 305.29653931 579.6257019 C301.82867854 583.25714101 299.08149028 585.56159447 294.28872681 587.23117065 C294.56587524 587.89503784 294.84302368 588.55890503 295.12857056 589.2428894 C295.6719104 590.56740112 295.6719104 590.56740112 296.22622681 591.91867065 C296.58587524 592.78878784 296.94552368 593.65890503 297.31607056 594.5553894 C299.40964238 600.31481391 299.52144465 605.9279525 299.67544556 611.9928894 C299.71373222 613.41164116 299.71373222 613.41164116 299.75279236 614.85905457 C299.80470525 616.8586016 299.85414331 618.85821421 299.90127563 620.85787964 C299.97554759 623.89093353 300.06640444 626.92320245 300.15786743 629.95578003 C300.20641989 631.90562453 300.25397743 633.85549411 300.30044556 635.8053894 C300.3440345 637.14811165 300.3440345 637.14811165 300.38850403 638.51795959 C300.63318202 650.99464641 297.77173729 661.79104109 289.10122681 671.04367065 C281.16821311 678.5146952 271.40463161 682.50402219 260.48020935 682.45710754 C259.17480289 682.45524476 257.86939642 682.45338198 256.52443218 682.45146275 C255.11488535 682.43838171 253.70534353 682.42475024 252.29580688 682.41061401 C250.81457898 682.40252798 249.33334873 682.39486238 247.85211658 682.38759518 C234.34130717 682.3021404 220.83912772 681.93487413 207.33567238 681.49448967 C199.78455224 681.24875098 192.2326787 681.02742599 184.68081665 680.80587769 C183.87414146 680.78212204 183.06746626 680.7583664 182.23634636 680.73389089 C160.82546688 680.10650175 139.41089884 679.64975299 117.99575806 679.1960144 C115.98636737 679.15328396 113.97697686 679.11054536 111.96758652 679.06779861 C99.74504506 678.80814547 87.52242272 678.55243716 75.29977417 678.29788208 C59.79146601 677.97480588 44.28322789 677.64838912 28.77503031 677.3200503 C23.02981278 677.19852106 17.2845679 677.0784179 11.53929609 676.95948344 C-5.2601387 676.61107724 -22.05914535 676.24868225 -38.85592902 675.78778946 C-40.3424441 675.74711658 -41.82898025 675.70720481 -43.31553876 675.66815174 C-82.75037503 674.62342858 -82.75037503 674.62342858 -96.71127319 662.23117065 C-97.39963257 661.66140503 -98.08799194 661.0916394 -98.79721069 660.50460815 C-102.91179268 657.05214281 -106.46009096 653.3592697 -109.93002319 649.2663269 C-111.77576549 647.15748538 -113.71266736 645.19518523 -115.71127319 643.23117065 C-118.98329447 640.00958515 -122.00443374 636.6452492 -124.99642944 633.1647644 C-127.18262477 630.69969223 -129.51751071 628.4123546 -131.86752319 626.10494995 C-133.64339049 624.30015897 -135.31036968 622.44385634 -136.96517944 620.52804565 C-140.64493752 616.30036274 -144.3642851 612.11541933 -148.14877319 607.98117065 C-148.7655896 607.28765503 -149.38240601 606.5941394 -150.01791382 605.87960815 C-158.0308277 597.17463199 -165.81760219 595.2207519 -177.31088257 594.6257019 C-180.32583522 594.45205021 -182.82920249 594.19186089 -185.71127319 593.23117065 C-185.71127319 592.24117065 -185.71127319 591.25117065 -185.71127319 590.23117065 C-181.89903807 590.11371822 -178.08727637 590.04350462 -174.27377319 589.98117065 C-173.20449585 589.94765503 -172.13521851 589.9141394 -171.03353882 589.87960815 C-161.91411988 589.76805563 -154.91530661 591.53498467 -148.21127319 597.98117065 C-146.96603882 599.15872925 -146.96603882 599.15872925 -145.69564819 600.3600769 C-145.23223022 600.80754272 -144.76881226 601.25500854 -144.29135132 601.71603394 C-142.47488678 603.45784156 -140.63353658 605.17103729 -138.78939819 606.8835144 C-131.17733712 613.96934395 -123.70997363 621.17124741 -116.39682007 628.56491089 C-112.93312772 632.05335834 -109.38656783 635.35900751 -105.62533569 638.52804565 C-103.23961546 640.65084978 -101.05606276 642.93578454 -98.83627319 645.23117065 C-87.92752412 656.22357577 -77.6805341 661.1956273 -62.24090576 661.34942627 C-60.15598595 661.34913893 -58.07106023 661.34239607 -55.98617554 661.33029175 C-54.8496221 661.3267185 -53.71306866 661.32314526 -52.5420742 661.31946373 C-39.46238596 661.25604449 -26.38849072 660.95758908 -13.31283569 660.64523315 C-10.61968057 660.58317576 -7.92652086 660.52136663 -5.23335266 660.45988464 C0.45551889 660.32957612 6.14434034 660.19725458 11.83312988 660.06341553 C20.78579128 659.85282221 29.7385426 659.64622626 38.6913147 659.44039917 C40.95606913 659.38831191 43.22082346 659.33622019 45.48557776 659.28412741 C46.99366959 659.24944057 48.50176156 659.2147596 50.00985366 659.18008453 C54.52625215 659.07621094 59.04264258 658.97199529 63.55902678 658.86750227 C86.50103309 658.33674162 109.44352238 657.83258704 132.38652802 657.34685707 C138.80925443 657.21050233 145.23187604 657.06985515 151.65444946 656.92648315 C152.54325806 656.90666571 153.43206665 656.88684826 154.34780884 656.86643028 C157.88038193 656.78762853 161.4129544 656.70880124 164.94551849 656.62959671 C175.77774933 656.38720267 186.6101248 656.16464811 197.44323444 655.9652338 C204.8490788 655.82831813 212.25459126 655.67849847 219.65999126 655.51937008 C224.81071564 655.40946269 229.96138224 655.31519539 235.11262798 655.23355961 C238.23927941 655.17994821 241.36542094 655.11035029 244.49164391 655.03609657 C245.92630988 655.0052003 247.36113424 654.98082142 248.79603004 654.96364403 C259.78890055 655.06678558 259.78890055 655.06678558 269.28872681 650.23117065 C272.65511249 644.86269988 272.74320366 639.7154108 272.72232056 633.5710144 C272.72756241 632.66291519 272.73280426 631.75481598 272.73820496 630.81919861 C272.74459918 628.90892556 272.74332202 626.998613 272.73477173 625.08834839 C272.72624139 622.17365365 272.75509164 619.26090761 272.78677368 616.34640503 C272.78838548 614.4837754 272.78780857 612.62114233 272.78482056 610.7585144 C272.80167152 609.45985695 272.80167152 609.45985695 272.81886292 608.13496399 C272.75768882 602.80185004 272.28767224 599.14010393 268.28872681 595.23117065 C265.13266341 594.58579993 262.69807291 594.34856944 259.53091431 594.34835815 C258.65200027 594.32352859 257.77308624 594.29869904 256.86753845 594.27311707 C254.96422947 594.2211453 253.06054589 594.18171366 251.15673828 594.15338135 C246.0463431 594.0727718 240.93954952 593.88761115 235.83169556 593.7116394 C234.78441788 593.67756485 233.7371402 593.6434903 232.65812683 593.60838318 C222.22805966 593.24590614 211.86124395 592.43441978 201.47622681 591.41867065 C200.61458923 591.33472046 199.75295166 591.25077026 198.86520386 591.16427612 C186.87421298 589.97457388 174.94456245 588.46306323 163.03872681 586.60617065 C162.36933075 586.5020285 161.69993469 586.39788635 161.01025391 586.29058838 C154.90746465 585.32707029 149.12524689 584.30040316 143.28872681 582.23117065 C143.61872681 580.91117065 143.94872681 579.59117065 144.28872681 578.23117065 C163.63796107 574.65713108 182.93910744 571.72331352 202.53872681 569.91867065 C203.41116028 569.83790283 204.28359375 569.75713501 205.1824646 569.67391968 C219.16519707 568.3951781 233.14772145 567.28377139 247.19107056 567.02023315 C248.30607437 566.99860863 248.30607437 566.99860863 249.44360352 566.97654724 C252.47404303 566.91972419 255.5042791 566.86441538 258.5350647 566.82980347 C272.36616563 566.66758648 272.36616563 566.66758648 285.10122681 561.54367065 C294.57440568 551.52916728 292.80533729 536.54104614 293.1847229 523.72824097 C293.25360062 521.41226801 293.3293544 519.0964885 293.41226196 516.78097534 C293.52456896 513.45190929 293.59922406 510.12397031 293.66372681 506.79367065 C293.70183472 505.78328735 293.73994263 504.77290405 293.77920532 503.73190308 C293.86022953 496.51834799 292.20996626 491.30511505 288.28872681 485.23117065 C285.72166209 482.66410594 284.6282483 482.92819634 281.05264282 482.79220581 C279.94870682 482.74503418 278.84477081 482.69786255 277.7073822 482.64926147 C276.49801498 482.60668213 275.28864777 482.56410278 274.04263306 482.52023315 C271.44529155 482.41127751 268.84796127 482.30205408 266.25064087 482.19259644 C264.86625291 482.13731605 263.48185326 482.08232789 262.09744263 482.02761841 C254.97870933 481.7436399 247.86207521 481.41356724 240.74575806 481.07492065 C239.68004389 481.02428656 239.68004389 481.02428656 238.59280014 480.97262955 C170.98993659 477.72629647 170.98993659 477.72629647 143.28872681 470.23117065 C143.28872681 468.91117065 143.28872681 467.59117065 143.28872681 466.23117065 C153.04841832 464.17107746 162.76165785 462.47413541 172.66372681 461.23117065 C173.64816772 461.10660492 173.64816772 461.10660492 174.65249634 460.97952271 C196.9077166 458.17770677 219.20236858 456.27134909 241.60122681 455.10617065 C242.81544815 455.04276993 242.81544815 455.04276993 244.05419922 454.97808838 C253.17378577 454.51248228 262.28287466 454.1836747 271.41372681 454.0632019 C273.05785173 454.0367077 274.70197609 454.01017829 276.34609985 453.98361206 C279.42894863 453.93518523 282.50950837 453.91953288 285.59268188 453.92404175 C293.77706572 453.8594909 300.48546507 453.11892495 307.28872681 448.23117065 C314.27981661 440.54097187 313.67000588 429.28481275 313.91372681 419.48117065 C313.9480481 418.20652954 313.98236938 416.93188843 314.01773071 415.61862183 C314.08340846 413.040204 314.14450113 410.46166499 314.20083618 407.88302612 C314.28003474 404.59232586 314.39595501 401.30544203 314.52310181 398.0163269 C315.06447831 384.80789858 315.06447831 384.80789858 309.28872681 373.23117065 C308.86591431 372.68331909 308.44310181 372.13546753 308.00747681 371.5710144 C305.11810293 368.55565039 302.37053743 367.94641893 298.40396118 367.64840698 C297.42370972 367.57425568 296.44345825 367.50010437 295.4335022 367.42370605 C289.98116787 367.08989291 284.52794354 366.83919585 279.06997681 366.6178894 C277.12487204 366.53460911 275.17976788 366.45131287 273.23469067 366.36739159 C271.86942788 366.30852832 270.50415323 366.24993985 269.13886738 366.19161415 C244.43891511 365.13640235 219.76609384 363.86235849 195.10122681 362.16867065 C193.89820923 362.08676483 192.69519165 362.00485901 191.45571899 361.92047119 C179.56210752 361.10544388 167.67600483 360.22024883 155.80044556 359.1725769 C154.87915359 359.09305283 153.95786163 359.01352875 153.00865173 358.93159485 C152.1648143 358.8545784 151.32097687 358.77756195 150.4515686 358.69821167 C149.71625412 358.63199112 148.98093964 358.56577057 148.2233429 358.49754333 C146.28872681 358.23117065 146.28872681 358.23117065 143.28872681 357.23117065 C143.28872681 356.24117065 143.28872681 355.25117065 143.28872681 354.23117065 C146.47559347 352.63773732 149.97949933 352.69926128 153.48794556 352.3991394 C154.35644135 352.32261642 155.22493713 352.24609344 156.11975098 352.16725159 C159.07138247 351.9110569 162.02365199 351.6637473 164.97622681 351.41867065 C166.00891693 351.33224304 167.04160706 351.24581543 168.10559082 351.1567688 C188.335352 349.48195039 208.58545823 348.24101843 228.85122681 347.10617065 C229.60991184 347.06355606 230.36859688 347.02094147 231.15027237 346.97703552 C247.08390943 346.08389627 263.01681684 345.24335725 278.96450806 344.6413269 C280.62254204 344.57757874 280.62254204 344.57757874 282.31407166 344.51254272 C287.34112708 344.32173832 292.3677909 344.14663197 297.39639282 344.00216675 C299.13915966 343.94206249 300.88191748 343.88169601 302.62466431 343.8210144 C303.38068436 343.80547012 304.13670441 343.78992584 304.91563416 343.77391052 C312.68466445 343.47930157 320.03944933 341.50706791 325.79702759 336.06613159 C331.63837215 328.88060856 331.83586471 320.39179034 331.60122681 311.54367065 C331.58285767 310.34774292 331.56448853 309.15181519 331.54556274 307.91964722 C331.48979543 304.69929298 331.41382007 301.48007761 331.33297729 298.26028442 C331.27230214 295.47801463 331.24424168 292.69573554 331.21565247 289.91297913 C331.1832512 287.11438287 331.1321733 284.31634182 331.07617188 281.51812744 C331.03952528 279.52460663 331.01808248 277.53082478 330.99697876 275.53707886 C330.77970137 267.34545294 330.04609309 261.58534456 324.54263306 255.20773315 C323.70538696 254.53870972 323.70538696 254.53870972 322.85122681 253.85617065 C322.29564087 253.39468628 321.74005493 252.9332019 321.16763306 252.45773315 C316.50334071 249.41285208 311.99923972 248.85919452 306.53872681 248.65109253 C305.72492554 248.6144323 304.91112427 248.57777206 304.07266235 248.54000092 C290.93263042 247.99467024 277.77771676 247.80436421 264.62934113 247.55692101 C260.64189376 247.48111065 256.65452384 247.40142094 252.66714478 247.32211304 C245.10571007 247.17223134 237.54422263 247.02523435 229.98270607 246.87954569 C216.5303922 246.62033886 203.07814834 246.35758695 189.62596512 246.09168768 C185.68984239 246.01399447 181.75370853 245.9370233 177.8175354 245.86192322 C168.38082886 245.68182439 158.94451657 245.48866534 149.50840759 245.27955246 C147.21333081 245.22952727 144.91821215 245.1819287 142.62307739 245.13464355 C138.6992054 245.05296095 134.77563379 244.96198508 130.852108 244.86513615 C129.3819292 244.83006098 127.91168384 244.79764149 126.44137955 244.76829433 C90.31596897 244.03676745 90.31596897 244.03676745 78.87857056 233.09054565 C73.80477711 227.15657593 73.16408596 219.69649891 73.15591431 212.14352417 C73.15390015 210.91431747 73.15188599 209.68511078 73.14981079 208.4186554 C73.15394967 207.04496097 73.15860967 205.67126804 73.16372681 204.2975769 C73.16494537 203.57869356 73.16616394 202.85981022 73.16741943 202.11914253 C73.21192898 179.01757657 73.75432523 155.9188442 74.21585083 132.82278442 C74.40908207 123.13387222 74.59771198 113.44487172 74.78436279 103.75583076 C74.84928055 100.42099379 74.91640124 97.08620679 74.98379517 93.75141907 C75.16367115 84.69015825 75.3320934 75.6284379 75.38247681 66.56539917 C75.39085571 65.26804337 75.39923462 63.97068756 75.40786743 62.63401794 C74.79540554 45.14112417 59.56746913 32.06164494 47.66372681 20.73117065 C31.97334797 6.92095133 12.45410792 7.55402073 -7.36074829 7.26693726 C-9.94043521 7.22768363 -12.51991079 7.18013367 -15.09945679 7.13253784 C-19.95591813 7.04676686 -24.8121557 6.98856971 -29.66918945 6.94708252 C-31.60576475 6.92822063 -33.54228951 6.90306638 -35.47869873 6.87145996 C-38.22053914 6.82951756 -40.96133844 6.81417485 -43.70346069 6.8053894 C-44.52424606 6.78793671 -45.34503143 6.77048401 -46.19068909 6.75250244 C-51.44354427 6.77205593 -54.72605208 7.48102214 -58.71127319 11.23117065 C-61.04225698 16.63502387 -60.99980512 21.94495385 -60.92611694 27.7272644 C-60.9196666 28.70424789 -60.91321625 29.68123138 -60.90657043 30.68782043 C-60.73371995 46.35947425 -60.01176131 62.02494944 -59.37887573 77.68319702 C-59.10219676 84.55518288 -58.834224 91.42751878 -58.56453323 98.2997818 C-58.49845939 99.9816878 -58.43223445 101.66358786 -58.36585617 103.34548187 C-57.9236032 114.55252097 -57.50462192 125.7599645 -57.12924194 136.9694519 C-57.08964859 138.14500137 -57.05005524 139.32055084 -57.00926208 140.53172302 C-56.04682288 169.96807251 -58.03399142 186.97365705 -78.71127319 209.23117065 C-110.8041983 243.30767383 -110.8041983 243.30767383 -134.91146851 244.37252808 C-144.66726889 244.44534253 -154.10896929 243.56113223 -163.77377319 242.29367065 C-165.24437347 242.10860672 -166.71507669 241.92435903 -168.18588257 241.74093628 C-174.04592021 241.00271886 -179.88980787 240.23575733 -185.71127319 239.23117065 C-185.21627319 237.25117065 -185.21627319 237.25117065 -184.71127319 235.23117065 C-183.55848877 235.07297852 -183.55848877 235.07297852 -182.38241577 234.91159058 C-181.30113403 234.76310669 -180.21985229 234.6146228 -179.10580444 234.4616394 C-177.90415649 234.2966394 -176.70250854 234.1316394 -175.46444702 233.9616394 C-172.82208789 233.59755994 -170.17997279 233.23209324 -167.53817749 232.86398315 C-161.51609367 232.02570007 -155.49426579 231.19529497 -149.46127319 230.4382019 C-130.84995657 228.05834624 -119.30791993 222.44375069 -106.14877319 208.79367065 C-101.07770105 203.58344076 -96.0072453 198.49687113 -90.48641968 193.76168823 C-78.54641454 183.46710809 -73.1121992 175.97315969 -71.71127319 160.23117065 C-71.16783562 152.01052099 -70.94447185 143.7729127 -70.67611694 135.5397644 C-70.59238298 133.14383046 -70.50794284 130.7479211 -70.4228363 128.35203552 C-70.20135318 122.06893782 -69.9885987 115.78557597 -69.77798462 109.50210571 C-69.5224173 101.91995319 -69.25748286 94.33812365 -68.99293613 86.75627995 C-68.78672074 80.8451273 -68.58211364 74.93393823 -68.38313293 69.02253723 C-68.03927557 58.88420005 -67.67188854 48.74776344 -67.20565796 38.61422729 C-67.14955683 37.35678664 -67.14955683 37.35678664 -67.09232235 36.07394314 C-66.0185568 13.66791991 -66.0185568 13.66791991 -60.71127319 6.23117065 C-47.54011655 -4.99567239 -16.35822365 0.08361825 0 0 Z " fill="#000000" transform="translate(699.7112731933594,121.76882934570313)"/>
<path d="M0 0 C6.79677273 7.29920357 7.36053434 14.08291383 7.60961914 23.74560547 C7.64635018 24.92486036 7.68308123 26.10411526 7.72092533 27.31910515 C8.17340273 42.65918955 8.42001424 58.00490405 8.6688261 73.34936333 C8.74138724 77.78872735 8.81707035 82.22803848 8.89227295 86.6673584 C9.03707038 95.24698433 9.17877054 103.8266586 9.31917012 112.40635753 C9.43274654 119.34520075 9.54741716 126.28402512 9.66275024 133.22283936 C10.52122755 184.89934786 11.35182517 236.57631713 12.1176917 288.25428736 C12.18186771 292.58265987 12.24663903 296.91102288 12.31197065 301.23937809 C12.53161556 315.79780021 12.74167927 330.35622398 12.91122913 344.9153347 C12.97906327 350.65419755 13.06350242 356.39219676 13.17353725 362.13040352 C13.22823218 365.15032674 13.26706258 368.17027717 13.30062294 371.19050217 C13.3265671 373.07806165 13.37286259 374.96530979 13.42045593 376.85244751 C13.50093675 387.12564203 11.20468053 395.91974083 3.9375 403.44921875 C-5.04920441 411.53541495 -14.96453394 412.43774467 -26.6796875 412.58203125 C-27.69900864 412.60157867 -28.71832977 412.6211261 -29.76853943 412.64126587 C-33.10733023 412.70195087 -36.44611392 412.74840382 -39.78515625 412.79296875 C-42.12272301 412.82899444 -44.46028809 412.86512902 -46.79785156 412.90136719 C-52.935357 412.99139706 -59.07293173 413.06374929 -65.21075439 413.1282959 C-67.72000496 413.15475834 -70.22924226 413.18251035 -72.73846436 413.21154785 C-80.07123791 413.29612425 -87.40373259 413.36136885 -94.73690796 413.39813232 C-97.04653093 413.41127575 -99.35613215 413.42916075 -101.66567993 413.45196533 C-104.89834941 413.48176385 -108.13049008 413.4915963 -111.36328125 413.49609375 C-112.78029579 413.51453842 -112.78029579 413.51453842 -114.22593689 413.53335571 C-124.54154195 413.49920368 -132.61915788 410.52146712 -139.97265625 403.16796875 C-147.38911615 393.72307537 -148.27883643 383.58523636 -148.23144531 371.91943359 C-148.23489614 370.83535438 -148.23834696 369.75127516 -148.24190235 368.63434505 C-148.25055644 365.04913652 -148.24471039 361.46411709 -148.23828125 357.87890625 C-148.24044032 355.33188312 -148.24325706 352.78486048 -148.24668884 350.23783875 C-148.25239494 343.41939105 -148.24376519 336.60104532 -148.2304039 329.78261185 C-148.22217375 325.5334514 -148.2180552 321.28429206 -148.21426392 317.03512573 C-148.16926806 271.83435335 -147.63543234 226.67414425 -146.05350494 181.4988327 C-145.94299016 178.31269681 -145.83646895 175.12643178 -145.72987556 171.94016266 C-144.54483309 136.5661772 -143.04100276 101.21420878 -141.03881073 65.87662506 C-140.9538259 64.37637553 -140.86918896 62.87610624 -140.78491974 61.37581635 C-140.02037335 47.76766682 -139.25422063 34.15475037 -138.0390625 20.578125 C-137.97629623 19.79457138 -137.91352997 19.01101776 -137.84886169 18.20372009 C-137.17124405 11.29598482 -134.64645675 6.24238072 -129.97265625 1.16796875 C-122.89403111 -4.4627558 -115.32831604 -5.12160728 -106.62597656 -5.25854492 C-105.72724823 -5.27995041 -104.8285199 -5.3013559 -103.90255737 -5.32341003 C-100.95208426 -5.39128115 -98.00153793 -5.44597977 -95.05078125 -5.5 C-92.98344629 -5.54375926 -90.91612455 -5.5881472 -88.84881592 -5.63313293 C-84.52170136 -5.7253043 -80.19452236 -5.81117843 -75.8671875 -5.89233398 C-70.3485255 -5.99614758 -64.8302579 -6.11355431 -59.31196976 -6.23548412 C-55.0430013 -6.32862957 -50.7739228 -6.41549397 -46.50478363 -6.50042152 C-44.4715913 -6.5414145 -42.43843181 -6.58407448 -40.40531158 -6.62849998 C-7.88825033 -7.32591961 -7.88825033 -7.32591961 0 0 Z M-129.95385742 8.04467773 C-131.11883705 11.6161094 -131.32967471 14.38059022 -131.2734375 18.140625 C-131.26298904 18.86081314 -131.25254059 19.58100128 -131.24177551 20.32301331 C-131.01199183 30.9456213 -130.24664153 41.55567262 -129.56964493 52.15703487 C-127.15523218 89.97483203 -125.45780472 127.80818142 -124.13085938 165.67852783 C-124.02889574 168.58563506 -123.92487245 171.4926531 -123.81835938 174.39959717 C-123.46097131 184.15475785 -123.13600858 193.91051574 -122.84765625 203.66796875 C-122.82645596 204.37755611 -122.80525566 205.08714348 -122.78341293 205.81823349 C-122.09604014 229.10326919 -121.9022007 252.38685 -121.82156372 275.6805191 C-121.8050925 280.40834177 -121.78505613 285.13614559 -121.76464844 289.86395264 C-121.75127016 293.04016034 -121.73813444 296.216369 -121.72509766 299.39257812 C-121.72182166 300.18197926 -121.71854566 300.9713804 -121.71517038 301.78470278 C-121.67629604 311.34459597 -121.65644443 320.90418558 -121.6642161 330.46415699 C-121.66815417 336.53452634 -121.65489886 342.60470772 -121.62898535 348.67502224 C-121.6145919 352.23867255 -121.60917546 355.80182274 -121.62568092 359.3654747 C-121.64380562 363.28474599 -121.62371523 367.20330365 -121.6003418 371.12255859 C-121.61210386 372.27732445 -121.62386593 373.4320903 -121.63598442 374.62184906 C-121.56999503 380.87312441 -121.56999503 380.87312441 -118.83766174 386.37826538 C-115.44381059 388.49832653 -113.49153344 388.81011479 -109.50488281 388.84863281 C-107.56823761 388.88642853 -107.56823761 388.88642853 -105.59246826 388.92498779 C-104.18274006 388.92822575 -102.77301094 388.93108342 -101.36328125 388.93359375 C-99.88890168 388.95412697 -98.41455382 388.97706142 -96.94024658 389.0022583 C-93.84714181 389.05203376 -90.75427218 389.08876708 -87.66088867 389.1159668 C-83.12876431 389.15979484 -78.59916703 389.25777372 -74.06835938 389.37304688 C-67.4851607 389.53904393 -60.90206158 389.67976738 -54.31780243 389.79650116 C-50.59914691 389.86277243 -46.88084123 389.9354004 -43.16259766 390.02197266 C-39.46132338 390.1080206 -35.76004658 390.1790866 -32.05826569 390.23935699 C-30.67233031 390.26441236 -29.28647813 390.29468746 -27.90077972 390.33052826 C-25.98982807 390.37896577 -24.07837598 390.40626553 -22.16699219 390.43261719 C-20.54757721 390.46473297 -20.54757721 390.46473297 -18.89544678 390.49749756 C-14.73008079 390.02787509 -12.25224344 388.48794862 -9.35880661 385.50317478 C-7.44451939 382.27823239 -7.55278611 379.81367674 -7.49389648 376.07121277 C-7.47851145 375.34932868 -7.46312641 374.62744459 -7.44727516 373.88368523 C-7.398809 371.43966511 -7.37142289 368.99585154 -7.34375 366.55151367 C-7.31289782 364.77239132 -7.28074843 362.99329108 -7.24742126 361.21421337 C-7.1770447 357.3019628 -7.11620123 353.38971 -7.06219482 349.47719955 C-6.97243891 342.99383952 -6.8603913 336.51096024 -6.74658203 330.02798462 C-6.51067681 316.38055876 -6.30212722 302.73276459 -6.09647751 289.08485436 C-6.00249368 282.85961293 -5.90632765 276.63440497 -5.81041205 270.40919306 C-5.6198032 258.03413031 -5.43092731 245.65904177 -5.24316406 233.28393555 C-5.0638645 221.4668622 -4.88360123 209.64980416 -4.70214844 197.83276367 C-4.679688 196.36956124 -4.6572277 194.9063588 -4.63476753 193.44315636 C-4.54554623 187.63165478 -4.45629309 181.82015369 -4.36686325 176.00865531 C-4.13888865 161.19311177 -3.91235257 146.3775528 -3.69387126 131.56186585 C-3.60490361 125.53163517 -3.51537846 119.50141276 -3.42578125 113.47119141 C-3.40670338 112.1849444 -3.3876255 110.8986974 -3.36796951 109.57347322 C-3.13898642 94.20688103 -2.88226254 78.8413464 -2.57226372 63.47617352 C-2.47314548 58.50153984 -2.38116985 53.52676834 -2.28932285 48.55199569 C-2.20858979 44.2391481 -2.11464591 39.92688875 -2.00897408 35.61458349 C-1.9367973 32.51956471 -1.88397065 29.42420748 -1.828125 26.32885742 C-1.78162811 24.74539426 -1.78162811 24.74539426 -1.73419189 23.12994194 C-1.64155542 16.7039798 -2.07506426 11.45633014 -6.5078125 6.42578125 C-14.66660896 0.37449999 -23.60407147 1.03183137 -33.48828125 0.8515625 C-34.48230453 0.83050949 -35.47632782 0.80945648 -36.50047302 0.7877655 C-39.74112145 0.72138094 -42.98182519 0.66221105 -46.22265625 0.60546875 C-47.88924789 0.57619293 -47.88924789 0.57619293 -49.58950806 0.54632568 C-56.55832421 0.42683428 -63.52728885 0.32191346 -70.49639893 0.22125244 C-73.90774476 0.16896371 -77.3188276 0.10798619 -80.72998047 0.04443359 C-86.03963292 -0.05277047 -91.34900045 -0.12313484 -96.65930176 -0.17306519 C-98.64615431 -0.19555397 -100.63292986 -0.22662275 -102.61950684 -0.26663208 C-105.3873106 -0.32034195 -108.15362269 -0.34183141 -110.921875 -0.35546875 C-111.72491562 -0.3780928 -112.52795624 -0.40071686 -113.35533142 -0.42402649 C-120.53274842 -0.3974553 -125.83248328 2.06043232 -129.95385742 8.04467773 Z " fill="#000000" transform="translate(465.97265625,356.83203125)"/>
<path d="M0 0 C3.42768661 0.58763037 5.12590397 1.7315889 7.609375 4.1328125 C8.28226563 4.77476562 8.95515625 5.41671875 9.6484375 6.078125 C10.34195313 6.75359375 11.03546875 7.4290625 11.75 8.125 C13.11849123 9.44145734 14.48828177 10.75656537 15.859375 12.0703125 C16.54177246 12.72467285 17.22416992 13.3790332 17.92724609 14.05322266 C20.60521958 16.56843591 23.36571985 18.97836745 26.14257812 21.38330078 C28.76562651 23.66640099 31.31886587 26.01712558 33.875 28.375 C38.36818651 32.51077395 42.88949387 36.61236332 47.44140625 40.68359375 C49.78976376 42.80966399 52.10153802 44.97096143 54.41113281 47.13891602 C67.48738074 59.33462965 76.59205333 64.36893192 94.6875 64.1875 C95.85861328 64.18685547 97.02972656 64.18621094 98.23632812 64.18554688 C105.41515961 64.15097786 112.55187989 63.88575152 119.71875 63.50390625 C132.74569371 62.82992324 145.77032421 62.75732616 158.8125 62.75 C160.06602264 62.74899292 161.31954529 62.74798584 162.61105347 62.74694824 C190.22488412 62.76190972 216.82363539 64.87703611 244 70 C243.67 71.32 243.34 72.64 243 74 C199.51812019 81.98846044 156.09791085 82.06734228 112.0625 80.125 C111.15855499 80.08597565 110.25460999 80.04695129 109.32327271 80.00674438 C70.35382633 78.26683344 70.35382633 78.26683344 56 64 C55.06671875 63.0925 54.1334375 62.185 53.171875 61.25 C48.60957722 56.78343108 44.21855993 52.21618161 40.07421875 47.359375 C37.12366457 44.00318908 34.05818518 40.75798609 31 37.5 C26.86867213 33.0947512 22.78126737 28.67412735 18.84375 24.09375 C15.74892749 20.57929054 12.54583212 17.1634587 9.34912109 13.74169922 C7.88814952 12.17097426 6.4399724 10.58999009 5 9 C4.26765137 8.1941748 4.26765137 8.1941748 3.52050781 7.37207031 C0 3.35606527 0 3.35606527 0 0 Z " fill="#000000" transform="translate(573,643)"/>
</svg>
