<?xml version="1.0" encoding="UTF-8"?>
<svg version="1.1" xmlns="http://www.w3.org/2000/svg" viewBox="0 0 1198 1181" width="1198" height="1181">
<path d="M0 0 C1.29537186 -0.00701431 2.59074371 -0.01402863 3.92536926 -0.02125549 C8.09087605 -0.04069156 12.25632746 -0.0456899 16.421875 -0.046875 C17.13049053 -0.04731686 17.83910606 -0.04775871 18.56919479 -0.04821396 C39.57623449 -0.05509056 60.3400676 0.14969978 81.171875 3.203125 C82.39277832 3.37473145 83.61368164 3.54633789 84.87158203 3.72314453 C134.03644467 10.78455915 181.63388022 25.2568667 226.171875 47.203125 C227.81615479 48.01088379 227.81615479 48.01088379 229.49365234 48.83496094 C252.84630785 60.40156463 275.25570023 73.62979248 296.171875 89.203125 C296.73583984 89.62223145 297.29980469 90.04133789 297.88085938 90.47314453 C309.89147219 99.45267666 321.73615911 108.8425958 332.765625 119.0078125 C334.08005016 120.20701207 335.40211043 121.39873829 336.75805664 122.55078125 C343.08330232 127.94459518 348.94279939 133.78794257 354.81665039 139.66259766 C356.59697752 141.44074272 358.38515877 143.21072061 360.17382812 144.98046875 C366.97641001 151.75005504 373.20085283 158.68216473 379.171875 166.203125 C380.16642553 167.36743212 381.16910684 168.52489718 382.18359375 169.671875 C441.63314905 236.91167217 477.28070238 325.89503685 489.171875 414.203125 C489.33558594 415.35039062 489.49929688 416.49765625 489.66796875 417.6796875 C495.07420444 456.90840594 494.91704842 500.03148805 489.171875 539.203125 C489.07241577 539.89764771 488.97295654 540.59217041 488.8704834 541.30773926 C476.29407181 629.00337226 441.47724612 714.14408114 379.83984375 787.0625 C377.30978744 790.02229181 374.86293565 793.04441296 372.421875 796.078125 C369.2917845 799.94138985 366.03176466 803.48272847 362.38671875 806.86328125 C360.94797343 808.14863167 360.94797343 808.14863167 361.171875 810.203125 C363.24042687 811.96969849 365.31817707 813.626325 367.484375 815.265625 C368.78584231 816.26864168 370.08661696 817.27255773 371.38671875 818.27734375 C372.35714111 819.02443604 372.35714111 819.02443604 373.34716797 819.78662109 C376.68433715 822.37723597 379.93362076 825.07341134 383.1953125 827.7578125 C386.842491 830.75405101 390.50688877 833.72871779 394.171875 836.703125 C396.21972713 838.36666107 398.26736464 840.03046095 400.31494141 841.69433594 C401.93753868 843.01272289 403.56053277 844.33062145 405.18359375 845.6484375 C410.64667664 850.09865684 416.03951876 854.62356801 421.40698242 859.18798828 C424.62117935 861.91382586 427.86856511 864.58510469 431.171875 867.203125 C435.62601734 870.73323132 439.96239106 874.38749627 444.28955078 878.07080078 C447.67556395 880.94915985 451.09294744 883.78111085 454.546875 886.578125 C459.66921024 890.74468923 464.64604878 895.06513781 469.62231445 899.40356445 C474.13540554 903.32921366 478.72826573 907.13937074 483.375 910.90625 C488.4408158 915.0664451 493.39056873 919.36253012 498.35595703 923.64160156 C500.17488148 925.2057103 501.99867579 926.76393576 503.82421875 928.3203125 C509.05827472 932.78544423 514.27024544 937.25975829 519.359375 941.890625 C522.6727058 944.90126979 526.06129429 947.76877678 529.546875 950.578125 C533.5601405 953.82265232 537.39600626 957.19061824 541.171875 960.703125 C545.72781973 964.9370871 550.42458659 968.93244165 555.26953125 972.83203125 C558.5614989 975.52143147 561.77205969 978.29468017 564.984375 981.078125 C570.80867472 986.10991051 576.794082 990.89472244 582.8671875 995.62109375 C599.42721784 1008.51651265 615.3990436 1022.22847239 630.234375 1037.078125 C631.11343506 1037.95799072 631.99249512 1038.83785645 632.89819336 1039.74438477 C637.96371033 1044.85809525 642.78119595 1049.97885838 647.1953125 1055.66796875 C649.05322644 1058.05094533 650.99789824 1060.33501876 652.98193359 1062.61328125 C673.55325385 1086.35671222 691.20820444 1113.63112026 706.171875 1141.203125 C706.92227867 1142.55518651 707.67353658 1143.90677439 708.42578125 1145.2578125 C711.94335418 1151.63606221 715.17157615 1158.12804547 718.171875 1164.765625 C718.47520752 1165.42087158 718.77854004 1166.07611816 719.09106445 1166.7512207 C720.8339338 1170.72299612 721.57929828 1173.8742527 721.171875 1178.203125 C720.171875 1180.140625 720.171875 1180.140625 718.171875 1181.203125 C710.18524555 1181.08903029 703.70353218 1177.50339293 696.671875 1174.015625 C696.03892517 1173.70588745 695.40597534 1173.3961499 694.75384521 1173.07702637 C676.45596284 1164.1149154 658.87933686 1153.86942726 642.171875 1142.203125 C641.4907666 1141.73165039 640.8096582 1141.26017578 640.10791016 1140.77441406 C622.08445539 1128.28757612 604.46677899 1115.00575578 588.30859375 1100.15625 C586.40275153 1098.41416387 584.45684198 1096.74357687 582.484375 1095.078125 C572.93723472 1086.73407963 563.98707229 1077.62344502 556.13671875 1067.66796875 C554.26755028 1065.32314707 552.31689795 1063.10574071 550.296875 1060.890625 C546.54967801 1056.72297481 543.10218067 1052.34742463 539.66503906 1047.92529297 C534.16964755 1040.87506202 528.45599174 1034.00742965 522.75537109 1027.12304688 C521.36098394 1025.43241157 519.97583598 1023.73510116 518.59765625 1022.03125 C514.34914131 1016.78177605 509.96360172 1011.71688752 505.4140625 1006.7265625 C503.12671596 1004.15230142 500.95639229 1001.51023011 498.796875 998.828125 C495.11550811 994.27451788 491.24413027 989.96729984 487.25830078 985.68408203 C483.47710747 981.59669785 479.97504832 977.32278327 476.484375 972.984375 C473.97214981 969.96291497 471.34766236 967.0789151 468.671875 964.203125 C464.44109128 959.65071128 460.44911965 954.95698508 456.55078125 950.1171875 C453.81282569 946.76330434 450.99974458 943.48116516 448.171875 940.203125 C444.63564005 936.10093755 441.14323674 931.97510014 437.734375 927.765625 C434.13550964 923.33072558 430.42443962 919.00755321 426.671875 914.703125 C421.38199936 908.63261344 416.23201179 902.4671605 411.171875 896.203125 C406.89017186 890.93214749 402.59126178 885.68087091 398.18310547 880.51513672 C393.41498571 874.92741765 388.81158216 869.2427732 384.30395508 863.44311523 C381.12138698 859.36582195 377.84163173 855.38755554 374.484375 851.453125 C369.93476911 846.12115846 365.5075795 840.71042612 361.171875 835.203125 C360.70652344 834.61225098 360.24117187 834.02137695 359.76171875 833.41259766 C356.56039137 829.34646157 353.36451323 825.27608627 350.171875 821.203125 C344.71183521 824.99072017 340.08845308 829.20738099 335.4453125 833.96435547 C331.55284208 837.91133111 327.42351685 841.39637112 323.08984375 844.84375 C320.46057843 846.96968876 317.91855626 849.16023839 315.38110352 851.39282227 C246.22110649 911.99796178 154.53191672 947.87464763 33.171875 963.203125 C32.14255859 963.27901855 31.11324219 963.35491211 30.05273438 963.43310547 C-58.82776617 969.54913991 -150.87387298 949.17861624 -279.98242188 873.59033203 C-281.65584388 872.3326093 -283.34281685 871.0929667 -285.03125 869.85546875 C-296.86099608 861.14131087 -308.26851549 851.8899351 -318.984375 841.8359375 C-321.13939112 839.84077147 -323.31656797 837.91603759 -325.54296875 836.00390625 C-330.54552305 831.64512813 -335.21129585 826.96611163 -339.890625 822.265625 C-340.74978516 821.41033203 -341.60894531 820.55503906 -342.49414062 819.67382812 C-347.48128962 814.67905935 -352.25218446 809.57568966 -356.828125 804.203125 C-357.7896151 803.09700432 -358.75182523 801.991509 -359.71484375 800.88671875 C-420.36712127 730.7692207 -461.42781128 643.65287075 -473.40625 551.44384766 C-473.68451215 549.3063177 -473.97590024 547.17044997 -474.28125 545.03662109 C-479.68814168 506.51834427 -479.39260857 464.66592119 -473.828125 426.203125 C-473.56488216 424.24820705 -473.30164066 422.29328892 -473.03845215 420.33836365 C-466.34071621 371.21215461 -451.74491873 323.65388479 -429.828125 279.203125 C-429.34375977 278.22053711 -428.85939453 277.23794922 -428.36035156 276.22558594 C-411.42125318 242.20028946 -389.98434557 210.68011509 -364.828125 182.203125 C-364.10625 181.38070312 -363.384375 180.55828125 -362.640625 179.7109375 C-360.39472173 177.18429632 -358.11838271 174.68969052 -355.828125 172.203125 C-355.25046387 171.5750293 -354.67280273 170.94693359 -354.07763672 170.29980469 C-345.66336823 161.17640917 -337.12283437 152.42947697 -327.828125 144.203125 C-327.0134375 143.4503125 -326.19875 142.6975 -325.359375 141.921875 C-313.36734637 130.86429016 -300.09521907 121.39144016 -286.95654297 111.76464844 C-280.87853783 107.30549257 -274.8297608 102.81359285 -268.94140625 98.10546875 C-243.83895845 78.11196211 -216.4677413 61.58540211 -187.828125 47.203125 C-186.42240234 46.49325439 -186.42240234 46.49325439 -184.98828125 45.76904297 C-169.97033323 38.23142863 -154.63032951 31.90462635 -138.828125 26.203125 C-137.84263672 25.84621582 -136.85714844 25.48930664 -135.84179688 25.12158203 C-92.75295319 9.69855779 -45.84650521 0.16592803 0 0 Z M-261.828125 104.203125 C-262.72668213 104.8324292 -263.62523926 105.4617334 -264.55102539 106.11010742 C-272.38762241 111.75056785 -279.13113946 118.10400666 -285.88452148 124.97827148 C-287.64890555 126.7740529 -289.42395545 128.5587223 -291.20117188 130.34179688 C-296.94869602 136.12846557 -302.56374042 141.96809376 -307.828125 148.203125 C-308.67375 149.16734375 -309.519375 150.1315625 -310.390625 151.125 C-327.27007953 170.70949532 -342.52655026 192.03556304 -355.828125 214.203125 C-356.25416016 214.91098145 -356.68019531 215.61883789 -357.11914062 216.34814453 C-393.08049172 276.4302389 -416.95797605 345.04903892 -421.828125 415.203125 C-421.91425049 416.41411865 -422.00037598 417.6251123 -422.08911133 418.87280273 C-422.82335324 429.79782017 -423.02978727 440.69292596 -423.015625 451.640625 C-423.01502075 452.51330017 -423.0144165 453.38597534 -423.01379395 454.28509521 C-422.98629753 469.0047309 -422.46070866 483.56376753 -420.828125 498.203125 C-420.6427417 499.91991455 -420.6427417 499.91991455 -420.45361328 501.67138672 C-411.91781843 578.41076902 -383.54336547 653.50613623 -336.828125 715.203125 C-335.94788052 716.3801813 -335.06767054 717.55726341 -334.1875 718.734375 C-326.30188168 729.1984848 -317.80160764 739.14158773 -308.984375 748.828125 C-307.57602422 750.37935194 -306.17956665 751.94148373 -304.796875 753.515625 C-296.1708707 763.3003463 -286.99040368 772.95646304 -277 781.3671875 C-275.21241132 782.87827865 -273.46255671 784.41582447 -271.71875 785.9765625 C-261.54971889 795.02427759 -250.81449739 803.17812274 -239.828125 811.203125 C-239.11962402 811.7276123 -238.41112305 812.25209961 -237.68115234 812.79248047 C-176.44000168 858.08587542 -103.81776341 883.37533919 -28.828125 893.203125 C-27.82942383 893.33734863 -26.83072266 893.47157227 -25.80175781 893.60986328 C72.03274589 906.1162157 177.62061837 878.30132158 258.171875 822.203125 C258.70941406 821.83010254 259.24695313 821.45708008 259.80078125 821.07275391 C273.91730293 811.24505018 287.25677106 800.55701964 300.171875 789.203125 C301.07550781 788.41292969 301.97914063 787.62273438 302.91015625 786.80859375 C309.58578313 780.82854594 315.96203801 774.54036387 322.32180786 768.22842407 C323.32945655 767.22881529 324.33858101 766.23069145 325.34933472 765.23422241 C332.09422201 758.57460123 338.25503367 751.61772064 344.171875 744.203125 C345.09522318 743.11327141 346.024835 742.02864174 346.96484375 740.953125 C406.31413631 672.79341544 443.23341858 578.43243001 446.375 478.30078125 C446.38201431 477.11256271 446.38902863 475.92434418 446.39625549 474.70011902 C446.41365594 470.88858197 446.42010744 467.0772003 446.421875 463.265625 C446.42254974 461.96322876 446.42322449 460.66083252 446.42391968 459.31896973 C446.40833431 440.40619322 445.99564279 421.93004167 443.171875 403.203125 C443.00558594 402.01686523 442.83929687 400.83060547 442.66796875 399.60839844 C436.42638278 355.51274942 423.0227764 313.46371723 404.171875 273.203125 C403.48762451 271.73504395 403.48762451 271.73504395 402.78955078 270.23730469 C387.29545395 237.31905053 366.52946544 206.0555621 342.51074219 178.75244141 C340.43594899 176.35152281 338.46560928 173.86888172 336.484375 171.390625 C332.99435133 167.08647285 329.26351811 163.18466622 325.29296875 159.32421875 C323.28563703 157.31688703 321.44264596 155.24396213 319.609375 153.078125 C316.71497801 149.70355155 313.5840199 146.84592777 310.1953125 143.9765625 C308.14378528 142.17850583 306.25667959 140.2873824 304.359375 138.328125 C300.5185669 134.43501018 296.39314941 131.01995716 292.12890625 127.6015625 C289.62047254 125.56698087 287.16977835 123.48201099 284.73168945 121.36425781 C271.44092575 109.87291665 257.01124775 99.59715632 242.171875 90.203125 C241.4607959 89.75291992 240.7497168 89.30271484 240.01708984 88.83886719 C225.53054124 79.75012308 210.44746411 71.87313608 195.171875 64.203125 C193.97981445 63.60008545 193.97981445 63.60008545 192.76367188 62.98486328 C143.84850214 38.40261047 89.44225485 25.7964889 35.171875 21.203125 C34.35315918 21.13109863 33.53444336 21.05907227 32.69091797 20.98486328 C-60.71703994 13.09447562 -157.72220968 38.41859543 -261.828125 104.203125 Z " fill="#000000" transform="translate(476.828125,-0.203125)"/>
<path d="M0 0 C4.94908049 4.54814233 9.73606689 9.25914743 14.5 14 C15.48673706 14.97972778 15.48673706 14.97972778 16.4934082 15.97924805 C20.32544858 19.8238763 23.97781845 23.77569039 27.52368164 27.88549805 C29.07094971 29.67751373 30.6411839 31.44521783 32.22265625 33.20703125 C45.88285801 48.55657819 57.67137958 65.17126915 68.1875 82.8125 C68.74727539 83.74594238 68.74727539 83.74594238 69.31835938 84.69824219 C82.63431279 107.24542409 90.47229803 133.12961327 95.5 158.6875 C95.64743652 159.43354492 95.79487305 160.17958984 95.94677734 160.94824219 C98.71789892 176.21052728 99.57002201 191.57900398 99.5 207.0625 C99.49726578 208.33126984 99.49726578 208.33126984 99.49447632 209.62567139 C99.40674367 233.92161385 96.77077495 258.26274105 87.1875 280.8125 C85.2075 280.8125 83.2275 280.8125 81.1875 280.8125 C81.00743408 279.988283 81.00743408 279.988283 80.82373047 279.14741516 C67.87125484 219.93636998 51.55045686 164.54637687 25.1875 109.8125 C24.87449951 109.16116089 24.56149902 108.50982178 24.23901367 107.83874512 C5.32607477 68.52871054 -17.98187513 31.51577237 -51.45703125 2.83203125 C-53.23928267 1.30396494 -55.00463435 -0.24384156 -56.76171875 -1.80078125 C-113.51901934 -51.81153918 -183.63133551 -76.39156416 -257.8125 -85.1875 C-257.8125 -87.1675 -257.8125 -89.1475 -257.8125 -91.1875 C-166.8537516 -98.39215334 -77.80395129 -67.09294134 0 0 Z " fill="#000000" transform="translate(743.8125,215.1875)"/>
</svg>
