<?xml version="1.0" encoding="utf-8"?>
<!-- Generator: Adobe Illustrator 16.0.0, SVG Export Plug-In . SVG Version: 6.00 Build 0)  -->
<!DOCTYPE svg PUBLIC "-//W3C//DTD SVG 1.1//EN" "http://www.w3.org/Graphics/SVG/1.1/DTD/svg11.dtd">
<svg version="1.1" xmlns="http://www.w3.org/2000/svg" xmlns:xlink="http://www.w3.org/1999/xlink" x="0px" y="0px"
	 width="216.424px" height="193.231px" viewBox="0 0 216.424 193.231" style="enable-background:new 0 0 216.424 193.231;"
	 xml:space="preserve">
<g id="flatware">
</g>
<g id="cutting">
</g>
<g id="timer">
</g>
<g id="heat">
</g>
<g id="cost-1">
</g>
<g id="cost-2">
</g>
<g id="cost-3">
</g>
<g id="difficulty-0">
</g>
<g id="difficulty-1">
</g>
<g id="difficulty-2">
</g>
<g id="difficulty-3">
</g>
<g id="hourglass">
</g>
<g id="hourglass-wait">
</g>
<g id="aroow-up">
</g>
<g id="search">
</g>
<g id="plus">
</g>
<g id="minus">
</g>
<g id="grill">
</g>
<g id="steam">
</g>
<g id="kettle">
</g>
<g id="oven">
</g>
<g id="pizza-oven">
</g>
<g id="microwave">
</g>
<g id="fryer">
</g>
<g id="pot">
</g>
<g id="pan">
</g>
<g id="wok">
</g>
<g id="menu">
</g>
<g id="line">
</g>
<g id="home">
</g>
<g id="unchecked">
	<path d="M166.424,106.688c-0.156-1.076-1.221-10.174-1.605-13.025c-0.08,0.052-0.141,0.074-0.148,0.039
		c-0.021-0.092-0.035-0.185-0.055-0.276c-0.033,0.009-0.061,0.009-0.07-0.015c-0.475-1.23-0.605-2.38-0.586-3.621
		c-0.236,1.379-0.486,2.743-0.748,4.017c-0.166-1.407,0.221-3.932,0.198-5.454c0.444-1.804,0.881-5.527,1.231-8.424
		c-0.016-0.639-0.668-1.097-0.336-2.536c0.479-0.694,0.029-1.636,0.395-2.83c0.205,1.39,0.059,2.739-0.004,4.141
		c0.547-0.226,0.461-3.401,0.645-4.505c-0.145-0.486,0.057-2.827,0.006-4.525c-0.062,0.041-0.104,0.059-0.104,0.041
		c-0.002-0.236-0.008-0.471-0.014-0.706c-0.1,0.081-0.182,0.132-0.189,0.116c-0.06-0.135-0.096-0.273-0.131-0.41
		c-0.015,0.002-0.027,0.021-0.043,0.011c0.031,0.128,0.058,0.231,0.078,0.308l-0.137,0.7c-0.08-0.426-0.145-1.179-0.158-1.956
		c0.041,0.179,0.078,0.346,0.113,0.499c0.02-0.058,0.035-0.137,0.053-0.214c-0.004-0.26,0.037-0.519,0.094-0.775
		c0.059-0.857,0.052-1.986,0.057-2.734c-0.217-0.017-0.257,0.39-0.357,0.356c-0.074-0.356-0.119-0.853-0.158-1.349
		c-0.006-0.144-0.012-0.284-0.02-0.425c-0.086-0.31-0.107-0.658-0.125-0.913c-0.006-0.098-0.006-0.195-0.01-0.292
		c-0.098-0.433-0.201-0.863-0.303-1.296c-0.038,0.038-0.072,0.138-0.098,0.345l0.13,0.475c-0.28,5.035-2.978-4.514-3.31,1.304
		c0.743-2.504,0.667,0.867,0.672,3.513c-0.235,0.25-0.604,1.417-0.832,3.315c0.008,1.647,0.221,0.977,0.383,1.295
		c-0.178,0.908-0.352,2.651-0.7,2.412c0.387,1.296-0.326,2.045-0.224,3.588c0.158,1.361,0.186-0.086,0.363,0.882
		c-0.102,2.035-0.24,4.888-0.366,6.505c-0.349,0.618-0.991,2.512-1.468,1.107c0.012-0.208,0.023-0.377,0.039-0.523
		c-0.064,0.067-0.131,0.129-0.195,0.183c0.047,1.636,0.054,4.158-0.342,5.596c-0.089-0.139-0.174-0.141-0.248-0.134
		c-0.014,0.195-0.031,0.391-0.039,0.586c-0.015,0.353-0.033,0.7-0.07,1.046c0.113,0.909-0.007,1.796-0.17,2.49
		c-0.074,0.058-0.052,0.83,0.02,1.938c0.223,0.435,0.117,0.998,0.141,1.468c0.01,0.22,0.008,0.439,0.017,0.658
		c0.257,3.18,0.633,7.029,0.532,6.822c-0.016,0.72-0.121,1.177-0.201,1.617c-0.002-0.092-0.006-0.189-0.008-0.287
		c-0.054,0.078-0.126,0.158-0.201,0.231c0.172,3.701,0.282,7.027,0.035,7.437c-0.01,1.124,0.012,2.481,0.306,2.227
		c-0.191,1.895-0.53-0.585-0.835,0.76c0.043,0.032,0.146-0.106,0.123,0.325l-0.397,1.289c0.362,2.962-0.334,7.271,0.167,10.374
		c-0.023-0.076-0.053-0.156-0.079-0.234c0.001,0.016,0.005,0.031,0.007,0.047c0.018,0.219-0.381,0.734-0.606,0.75
		c-0.181,0.013-0.481,0.088-0.778,0.137c0.004,0.139-0.012,0.282-0.096,0.445c-0.146,0.289-0.516,0.53-0.568,0.853
		c-0.004,0.017-0.016,0.04-0.027,0.062c-0.101,2.369,0.521,6.719,0.111,9.378c0.09,1.02,0.14,0.1,0.266,1.369
		c-0.43,3.513-0.752,5.937-1.048,9.613c0.328,1.187,0.47,1.282,0.886-0.128l-0.195,2.777c-0.891-2.555-1.059,5.172-1.941,2.355
		c-0.242,0.809-0.334,2.473-0.221,4.035c0.237,0.164,0.619,0.419,0.563,2.379c-0.396,2.719-0.261,2.072-0.632,4.322
		c-0.33,0.526-0.432-0.307-0.686-0.218c0.308,3.495-0.789,8.872-0.735,10.161c0.02,0.322,0.038,0.629,0.054,0.909
		c0.012,0.181,0.028,0.155,0.045,0.224c0.019,0.048,0.037,0.094,0.053,0.135c0.078,0.17,0.181,0.3,0.317,0.338
		c-0.058,1.184-0.974,1.24-0.974,1.24c0.004-0.556-2.305-1.091-2.305-1.091c-0.02,0.002,0.013,0.004-0.049,0.006l-0.203,0.007
		l-0.407,0.014c-0.541,0.023-1.079,0.048-1.613,0.071c-1.068,0.056-2.12,0.128-3.155,0.22c-4.138,0.365-7.983,1.025-11.357,2.085
		c-1.379-2.123-17.34-3.109-17.665-2.587c-3.313,0.389-6.669,0.707-10.063,0.969c-21.453,1.646-44.756,0.927-68.866,0.105
		c-3.098-0.073-7.427-0.176-12.435-0.294c-2.504-0.049-5.177-0.102-7.951-0.155l-0.521-0.01c0,0-0.12-0.003-0.141-0.006
		l-0.041-0.005l-0.16-0.02l-0.306-0.041c-0.183-0.027-0.368-0.055-0.555-0.082l0.098-0.718l0.05-0.313l0.006-0.037
		c0.001-0.012,0.002,0.002,0.003-0.032l0.003-0.154l0.013-0.618l0.026-1.232c0.073-3.277,0.144-6.482,0.211-9.504
		c0.145-6.042,0.299-11.35,0.463-15.028c0.07-1.987,0.139-3.964,0.21-5.97c-0.19,3.325-0.19,3.325-0.381,6.65
		c-0.567-8.359-1.118-15.934-1.482-23.269c-0.305,1.292-0.6,1.518-1.019,4.583l0.202-3.742c-0.881-3.409-0.842-11.271-1.214-14.967
		c0.462,0.795,0.554-2.117,0.623-4.686l-0.306,1.016c0.192-9.75-0.184-21.066-0.126-29.781c-0.001-1.215,0.172-2.125,0.331-2.675
		l-0.357-8.355c0.619,0.643,0.544-6.929,0.932-2.942c-0.731-6.253-0.283-12.598-1.04-18.561c-0.013-1.863-0.025-3.74-0.039-5.63
		c-0.021-1.067-0.041-2.143-0.062-3.228c7.404-0.168,14.947-0.339,22.517-0.512c8.906-0.244,17.842-0.568,26.674-0.983l-0.539-0.229
		c7.713-0.409,14.508-1.628,23.884-1.224c6.693-0.824,16.212-1.26,18.876-2.548c7.725-0.177,10.806-0.824,18.381-1.158
		c-1.953-0.638,7.357-0.771,3.631-1.266c-5.025-0.892-5.301-0.133-9.566-0.853l0.126,0.214c-19.901-0.959-39.83-1.507-60.002-1.804
		c-6.731,0.271-13.746,0.295-20.828,0.272c-3.542-0.015-7.099-0.029-10.646-0.045c-4.069,0.012-8.126,0.023-12.141,0.034
		C7.246,30.35,3.806,30.383,0.28,30.416c0.032,2.939,0.064,5.895,0.097,8.854l0.053,4.394l0.056,2.805
		c0.084,3.343,0.169,6.67,0.251,9.934c0.182,6.527,0.391,12.8,0.622,18.433c0.183,3.084-0.351,5.309-0.649,7.938
		c0.288,11.886,0.07,27.014,0.42,40.422c0.008-0.253,0.016-0.497,0.021-0.657c0.106,7.124-0.549,12.459-0.44,19.416
		c0.182-0.035,0.193,1.043,0.288,1.566c-0.406,0.58-0.016,10.043,0.446,19.994c0.229,4.977,0.463,10.074,0.655,14.245
		c0.011,0.261,0.021,0.519,0.032,0.772c0.011,0.386,0.021,0.766,0.03,1.139c0.019,0.742,0.037,1.459,0.055,2.148
		c0.03,1.363,0.057,2.615,0.081,3.732c0.041,2.221,0.051,3.895,0.021,4.879c0.337,0.01,0.559,0.024,0.688,0.044
		c1.112-0.032,2.264-0.065,3.44-0.099c2.692,0.064,5.396,0.13,8.105,0.195c1.844,0.094,3.691,0.187,5.535,0.279
		c3.685,0.223,7.354,0.445,10.958,0.663c7.207,0.441,14.153,0.816,20.454,0.742c2.737-0.398,5.817-0.748,8.122-1.197
		c2.229,0.363,2.657-0.341,5.343-0.243c6.819,1.698,10.813,0.987,7.292,0.387c5.611-0.229,11.241-0.079,16.224-0.138
		c2.313-0.134,4.609-0.266,6.941-0.4c1.98-0.143,3.084,0.109,4.082,0.512c5.068-0.24,3.574,0.179,8.887,0.351
		c1.283,0.594,13.323-0.944,14.825-0.764l-0.868,0.088c6.143,0.104,10.225,1.252,16.229,1.303c2.893,0.076,5.832,0.125,8.795,0.155
		c4.869,0.015,9.777,0.03,14.688,0.045c0.191-7.56,0.385-15.124,0.572-22.495c0.134-5.486,0.279-10.828,0.484-15.872
		c-0.617-0.17,0.045,3.411-0.783,3.568c0.359-9.109,1.385-18.276,1.742-27.47c0.213-1.653,0.581-3.674,0.8-4.425
		c0.313-2.932-0.249-1.742-0.109-3.892l0.569-0.274c-0.373-3.157,0.749-4.579,0.598-7.546c-0.221-0.163-0.221-1.245-0.174-2.296
		c0.596-0.037,0.047-3.241,0.587-3.073l-0.044-0.031C166.326,107.912,166.3,107.461,166.424,106.688z M163.689,63.886
		c-0.148,0.141-0.287,0.118-0.367-0.099C163.354,63.131,163.498,63.308,163.689,63.886z"/>
</g>
<g id="checked">
</g>
<g id="cross">
</g>
<g id="mixeur_plongeant">
</g>
<g id="batteur_électrique">
</g>
<g id="grille_pain">
</g>
<g id="balance">
</g>
<g id="robot_pâtissier">
</g>
<g id="fouet">
</g>
<g id="poche_à_douille">
</g>
<g id="mixer_x5F_blender">
</g>
<g id="Calque_42">
</g>
<g id="Calque_44">
</g>
</svg>
