<?xml version="1.0" encoding="UTF-8"?>
<svg version="1.1" xmlns="http://www.w3.org/2000/svg" width="1181" height="1181">
<path d="M0 0 C3.68942795 0.29453416 5.61652687 2.16647788 8.25 4.625 C9.12785156 5.43839844 10.00570313 6.25179688 10.91015625 7.08984375 C11.94037846 8.05960452 12.97030451 9.02967997 14 10 C15.22747793 11.14754914 16.45536569 12.29466002 17.68359375 13.44140625 C20.40757117 15.98803349 23.12719044 18.53921188 25.84375 21.09375 C29.78456556 24.79929299 33.73330835 28.49623642 37.6875 32.1875 C38.30786133 32.76661133 38.92822266 33.34572266 39.56738281 33.94238281 C43.51176328 37.62089667 47.47016099 41.28377494 51.4375 44.9375 C57.64768635 50.65738328 63.80558825 56.43216118 69.9609375 62.2109375 C73.80029258 65.81481704 77.64879494 69.40879191 81.5 73 C94.32030875 84.95843925 107.09556345 96.96467885 119.85888672 108.98388672 C123.40529863 112.32325611 126.95269669 115.66157757 130.5 119 C131.91667145 120.33332826 133.33333811 121.66666159 134.75 123 C135.45125 123.66 136.1525 124.32 136.875 125 C211.25 195 211.25 195 213.37524414 197.00024414 C214.79107789 198.33278398 216.20693074 199.66530353 217.62280273 200.99780273 C221.17737038 204.34310987 224.73159931 207.68877549 228.28515625 211.03515625 C235.18341545 217.53059739 242.08573248 224.02159864 249 230.5 C256.63064102 237.64961563 264.24626716 244.81509103 271.85888672 251.98388672 C274.69858873 254.65780453 277.53892139 257.33105178 280.37939453 260.00415039 C281.78809519 261.32997676 283.19662509 262.65598459 284.60498047 263.98217773 C288.2551768 267.41907285 291.90838581 270.85268226 295.56640625 274.28125 C296.31921875 274.98765625 297.07203125 275.6940625 297.84765625 276.421875 C299.26983909 277.75626878 300.69293801 279.08968726 302.1171875 280.421875 C306.21470589 284.26885479 310.21926846 288.19143765 314.1628418 292.19628906 C315.96431537 293.96496505 317.82552383 295.61694983 319.75 297.25 C323.34516715 300.3356159 326.67338096 303.63197291 330 307 C333.85120964 310.89896918 337.76421745 314.60824312 341.94140625 318.16015625 C345.07230281 320.95835792 347.98829695 323.96773656 350.93603516 326.95556641 C353.52022318 329.56120739 356.14209158 332.06053109 358.9375 334.4375 C363.04426535 337.93710497 366.78724806 341.75982009 370.57568359 345.59521484 C373.90566329 348.95044557 377.33922489 352.09717875 380.94140625 355.16015625 C384.07230281 357.95835792 386.98829695 360.96773656 389.93603516 363.95556641 C392.52022318 366.56120739 395.14209158 369.06053109 397.9375 371.4375 C402.04426535 374.93710497 405.78724806 378.75982009 409.57568359 382.59521484 C412.90566329 385.95044557 416.33922489 389.09717875 419.94140625 392.16015625 C423.07230281 394.95835792 425.98829695 397.96773656 428.93603516 400.95556641 C431.52022318 403.56120739 434.14209158 406.06053109 436.9375 408.4375 C440.99654291 411.896438 444.71728898 415.65835029 448.43725586 419.47436523 C451.1522343 422.23729031 453.9393359 424.84642995 456.875 427.375 C461.8453353 431.67443452 466.40103784 436.35027686 471 441.0390625 C474.87539047 444.95986771 478.85496085 448.65675095 483.03125 452.25390625 C486.99672457 455.77090453 490.64859394 459.60961697 494.35546875 463.39453125 C497.46624598 466.54443775 500.61359379 469.5788596 503.96875 472.46875 C508.91227222 476.73139913 513.4321549 481.38200168 518 486.0390625 C521.23997537 489.31700634 524.50697069 492.49135561 528 495.5 C532.93462131 499.75032812 537.44253389 504.39258338 542 509.0390625 C545.23997537 512.31700634 548.50697069 515.49135561 552 518.5 C556.93462131 522.75032812 561.44253389 527.39258338 566 532.0390625 C569.87539047 535.95986771 573.85496085 539.65675095 578.03125 543.25390625 C581.99672457 546.77090453 585.64859394 550.60961697 589.35546875 554.39453125 C592.45986442 557.53797592 595.59996672 560.56640662 598.94921875 563.44921875 C603.2910066 567.1922847 607.29900311 571.22320524 611.3125 575.3125 C612.70206438 576.72758439 614.093897 578.14044599 615.48828125 579.55078125 C616.39380737 580.47370972 616.39380737 580.47370972 617.31762695 581.4152832 C619.11691651 583.19836134 619.11691651 583.19836134 622 585 C621.41102502 588.37099115 620.3226104 590.07913929 617.97265625 592.5390625 C617.35003906 593.19712891 616.72742188 593.85519531 616.0859375 594.53320312 C615.08433594 595.56864258 615.08433594 595.56864258 614.0625 596.625 C613.04349609 597.69524414 613.04349609 597.69524414 612.00390625 598.78710938 C607.44729095 603.55515853 602.803331 608.2267779 598.109375 612.859375 C596.23176972 614.76479665 594.48009371 616.71157276 592.75 618.75 C588.8005956 623.37644515 584.44323915 627.58218478 580.12304688 631.85742188 C576.48321265 635.47389888 573.01866548 639.15975898 569.703125 643.078125 C566.76378362 646.39499647 563.55779281 649.44892758 560.40625 652.5625 C558.34550655 654.65000635 556.40484374 656.77169223 554.5 659 C551.01787024 663.07343481 547.22444574 666.79035118 543.4140625 670.5546875 C540.71248706 673.29123479 538.20921265 676.14979366 535.7109375 679.0703125 C533.25426881 681.84107582 530.60640023 684.402929 527.96875 687 C526.06013545 688.93891002 524.27289448 690.93699551 522.5 693 C519.48358077 696.51001511 516.26904868 699.75051276 512.97265625 702.99609375 C510.42662171 705.58246151 508.07978443 708.3153528 505.71484375 711.06640625 C503.49830603 713.56569138 501.12837719 715.88281884 498.74609375 718.22265625 C496.93522357 720.06593574 495.24678646 721.97822799 493.5625 723.9375 C491.14382221 726.74576347 488.64100317 729.39970593 486 732 C483.37959391 734.58009215 480.89676588 737.21103607 478.5 740 C476.10323412 742.78896393 473.62040609 745.41990785 471 748 C468.44130741 750.51955389 466.01829389 753.08118782 463.6875 755.8125 C460.77749511 759.20195649 457.67839292 762.36450761 454.5 765.5 C451.42594766 768.53283829 448.4200074 771.57939426 445.625 774.875 C441.95241398 779.18629664 437.92931549 783.12637923 433.88134766 787.08154297 C431.07405812 789.84428595 428.40031851 792.65877648 425.84153748 795.65428162 C421.83360717 800.25504998 417.57286928 804.56765983 413.25415039 808.87524414 C411.98442131 810.1476017 411.98442131 810.1476017 410.68904114 811.44566345 C408.38920797 813.74911804 406.08717235 816.05034093 403.78393483 818.35039067 C401.35985515 820.77191678 398.93824105 823.19590667 396.51622009 825.61949158 C392.45051514 829.68700953 388.38272088 833.75242905 384.3137207 837.81665039 C379.62723826 842.4976919 374.94436881 847.18232462 370.26335913 851.86883837 C366.22506146 855.911692 362.18479587 859.9525712 358.14291567 863.99184316 C355.73728625 866.39592342 353.33231397 868.80065063 350.92912483 871.20717049 C348.24691723 873.89193117 345.56150144 876.57344245 342.87524414 879.25415039 C342.09213867 880.03928009 341.3090332 880.82440979 340.50219727 881.6333313 C336.38325719 885.73660394 332.18581067 889.67908799 327.76451778 893.45578671 C324.86499878 895.99329346 322.19130369 898.74552797 319.5 901.5 C315.42935449 905.62214304 311.30998672 909.57723816 306.890625 913.328125 C303.85760892 916.0102136 301.06491566 918.92733249 298.22265625 921.80859375 C295.5729856 924.42101068 292.78827197 926.83302621 289.96484375 929.25390625 C287.26621639 931.65209001 284.75685425 934.21611524 282.25 936.8125 C280.2929236 938.71521316 278.29414693 940.50773004 276.234375 942.296875 C272.14367701 945.85021951 268.18694596 949.5279475 264.25 953.25 C258.51587336 958.64858736 252.74931694 964.00571193 246.93359375 969.31640625 C243.73654667 972.24100191 240.55525152 975.18217758 237.375 978.125 C232.79519705 982.3596662 228.18095284 986.55251217 223.53515625 990.71484375 C220.63086677 993.3327318 217.75232833 995.97757057 214.875 998.625 C210.98334143 1002.20336781 207.05318859 1005.72831675 203.05859375 1009.19140625 C200.5104335 1011.4301125 198.00589407 1013.71410212 195.5 1016 C191.70990918 1019.45643771 187.88943967 1022.86843854 184.015625 1026.23046875 C181.71392236 1028.25114956 179.45235621 1030.31312618 177.1875 1032.375 C173.76770672 1035.46636801 170.28041476 1038.42459032 166.6875 1041.3125 C161.8749471 1045.20191158 157.3540148 1049.3274325 152.84106445 1053.5534668 C148.60505142 1057.49790439 144.19365192 1061.16480701 139.6796875 1064.7890625 C136.86746685 1067.1093495 134.18202737 1069.53071134 131.5 1072 C127.13230508 1076.01605847 122.63150764 1079.79385454 118.015625 1083.51953125 C114.45329519 1086.44968595 110.97534874 1089.46769057 107.5 1092.5 C102.31736044 1097.018082 97.07525163 1101.43927195 91.73046875 1105.765625 C88.68033309 1108.26158723 85.68418301 1110.8154359 82.6875 1113.375 C78.22936453 1117.17610525 73.69089945 1120.84602205 69.0625 1124.4375 C64.25842303 1128.16593794 59.59231289 1132.01379545 55 1136 C49.31950035 1140.92610776 43.49131692 1145.61403627 37.5546875 1150.2265625 C33.89859685 1153.0679479 30.29333367 1155.97030065 26.6875 1158.875 C19.11803952 1164.95838846 11.4239015 1170.87762045 3.671875 1176.72631836 C2.32161464 1177.75498487 0.994759 1178.81432968 -0.32421875 1179.8828125 C-2 1181 -2 1181 -4.625 1180.8125 C-7 1180 -7 1180 -9 1178 C-8.63640172 1174.9632954 -7.49543879 1173.00174922 -5.6640625 1170.6015625 C-5.18267822 1169.96476562 -4.70129395 1169.32796875 -4.20532227 1168.671875 C-3.68381592 1167.99640625 -3.16230957 1167.3209375 -2.625 1166.625 C-2.08480225 1165.91601562 -1.54460449 1165.20703125 -0.98803711 1164.4765625 C0.66656239 1162.31134978 2.331331 1160.15438251 4 1158 C4.47324707 1157.38737305 4.94649414 1156.77474609 5.43408203 1156.14355469 C11.82539787 1147.88820131 18.3988913 1139.78253863 24.99609375 1131.69140625 C27.43116179 1128.70356942 29.84737413 1125.70152967 32.25 1122.6875 C36.00507959 1117.98196458 39.80875985 1113.31772817 43.63085938 1108.66650391 C44.61707136 1107.46609681 45.60267445 1106.26518937 46.58789062 1105.06396484 C53.06155902 1097.17163826 59.55692657 1089.301809 66.171875 1081.52734375 C68.94838653 1078.25941425 71.67539607 1074.95663461 74.375 1071.625 C79.02027055 1065.91984597 83.84156796 1060.37621385 88.671875 1054.828125 C91.81941686 1051.21265589 94.94523933 1047.57908782 98.0625 1043.9375 C98.55121582 1043.36700928 99.03993164 1042.79651855 99.54345703 1042.20874023 C102.06602302 1039.2629724 104.58516963 1036.3143238 107.1015625 1033.36328125 C111.57310484 1028.12510827 116.05172474 1022.90702385 120.6875 1017.8125 C123.64132181 1014.56329601 126.44449748 1011.24125315 129.1875 1007.8125 C134.09003486 1001.74679782 139.42258037 996.11835023 144.76953125 990.4453125 C147.71032579 987.32224078 150.56399177 984.13727908 153.36328125 980.88671875 C155.37873772 978.56341213 157.43848462 976.28251535 159.5 974 C162.15113994 971.06321535 164.78290171 968.11397458 167.375 965.125 C170.78614726 961.2084976 174.29592653 957.3849239 177.81201172 953.56298828 C180.7276106 950.39256068 183.62367705 947.20622379 186.5 944 C194.09206542 935.5448934 201.80737101 927.202294 209.51879883 918.85620117 C212.85424085 915.24509388 216.18029205 911.62557271 219.5 908 C229.2261525 897.38412263 239.01564603 886.8335158 248.89453125 876.359375 C251.62831608 873.45980774 254.35466475 870.55354328 257.07421875 867.640625 C268.31294859 855.60574359 268.31294859 855.60574359 274.19726562 849.83569336 C275.84791096 848.15486964 277.36055959 846.42790524 278.875 844.625 C284.9659597 837.61878498 291.72335227 831.22284799 298.32080078 824.69970703 C300.10141939 822.93736104 301.87887935 821.17187068 303.65625 819.40625 C304.18875366 818.88204468 304.72125732 818.35783936 305.26989746 817.81774902 C308.10225761 815.00347011 310.79634413 812.12022903 313.40649414 809.09790039 C317.04545907 804.89429549 320.90379676 800.95171651 324.83984375 797.02734375 C325.56563126 796.30059952 326.29141876 795.57385529 327.03919983 794.8250885 C328.56323556 793.30037704 330.08851569 791.7769085 331.61499023 790.25463867 C333.93132463 787.94366109 336.24227078 785.62739229 338.55273438 783.31054688 C340.04395034 781.8199918 341.53547653 780.329747 343.02734375 778.83984375 C343.70780258 778.15736069 344.38826141 777.47487762 345.08934021 776.77171326 C348.96848299 772.9111675 352.95992733 769.25289507 357.10133362 765.67628479 C359.99331739 763.12302506 362.70088272 760.40444412 365.40625 757.65625 C365.97525024 757.08346313 366.54425049 756.51067627 367.13049316 755.92053223 C368.92282982 754.11614749 370.71184316 752.3085264 372.5 750.5 C386.07194277 736.77345414 386.07194277 736.77345414 392.28710938 731.49023438 C395.17533212 728.97744765 397.82608227 726.236678 400.5 723.5 C404.57064551 719.37785696 408.69001328 715.42276184 413.109375 711.671875 C416.14101727 708.99100126 418.9324994 706.07530129 421.7734375 703.1953125 C424.44633174 700.55993257 427.25368303 698.12233511 430.1015625 695.6796875 C432.59096719 693.4771278 434.8945103 691.11647364 437.22265625 688.74609375 C439.06593574 686.93522357 440.97822799 685.24678646 442.9375 683.5625 C445.74576347 681.14382221 448.39970593 678.64100317 451 676 C454.20029522 672.74970017 457.54224576 669.75275755 461 666.78125 C463.78885533 664.29742572 466.37686983 661.63288563 468.99609375 658.97265625 C471.58246151 656.42662171 474.3153528 654.07978443 477.06640625 651.71484375 C478.95494597 650.03995701 480.73155648 648.30052413 482.5 646.5 C484.87042357 644.08667283 487.30736308 641.82728147 489.875 639.625 C492.8846753 637.03365795 495.71088616 634.32745217 498.5 631.5 C501.22829407 628.73439592 503.98516834 626.08712969 506.9375 623.5625 C510.1103592 620.84380752 513.06338382 617.97248325 516 615 C518.87557659 612.08946199 521.75874094 609.27575978 524.875 606.625 C529.079663 603.03816503 532.93020135 599.12575063 536.78857422 595.17431641 C539.38298792 592.53530452 541.95820871 590.11476918 545 588 C543.37066876 584.04034617 540.64340153 581.19705826 537.75 578.125 C537.22639893 577.56272705 536.70279785 577.0004541 536.16333008 576.42114258 C531.50873126 571.45975249 526.69512173 566.66377978 521.86010742 561.87915039 C518.98302938 559.02204374 516.18009758 556.16334637 513.5625 553.0625 C509.53953297 548.29873086 505.04038095 543.99097111 500.59204102 539.62915039 C497.4451397 536.52490224 494.41671577 533.38126921 491.53125 530.03125 C487.88933509 525.8076119 483.97965701 521.90341837 480 518 C475.39197045 513.48024688 470.98982203 508.89067773 466.77734375 504 C463.67613415 500.51028722 460.33165868 497.2678338 457 494 C452.39197045 489.48024688 447.98982203 484.89067773 443.77734375 480 C440.67613415 476.51028722 437.33165868 473.2678338 434 470 C429.35104166 465.44010217 424.90263782 460.80958178 420.65234375 455.875 C418.2250393 453.12061197 415.62759938 450.56146342 413 448 C409.09850621 444.15149764 405.39153636 440.2355232 401.83984375 436.05859375 C399.49504936 433.43501277 397.00369432 430.97009896 394.5 428.5 C391.40508867 425.44661717 388.38065743 422.37676339 385.5625 419.0625 C382.54647173 415.523209 379.30552099 412.26505555 376 409 C372.12271626 405.17012306 368.4375639 401.27948694 364.90625 397.125 C361.8799847 393.75145836 358.62789294 390.60796464 355.40454102 387.42407227 C352.04939106 384.0941767 348.90274548 380.66068601 345.83984375 377.05859375 C343.49504936 374.43501277 341.00369432 371.97009896 338.5 369.5 C335.40508867 366.44661717 332.38065743 363.37676339 329.5625 360.0625 C326.54647196 356.52320926 323.30552422 353.26505255 320 350 C316.10104317 346.14878063 312.39175703 342.23578271 308.83984375 338.05859375 C306.04233133 334.92846838 303.03375494 332.01314342 300.04663086 329.06616211 C296.82001347 325.86614229 293.82069539 322.54927728 290.875 319.09375 C288.06468711 315.95556727 285.04881363 313.0279331 282.05126953 310.07080078 C278.77979369 306.82635263 275.73036494 303.46382493 272.7421875 299.9609375 C270.02955756 296.90770829 267.09399547 294.0859685 264.1875 291.21875 C261.59803119 288.59228878 259.21163036 285.83023542 256.8125 283.03125 C254.7890712 280.76361428 252.66346653 278.6342305 250.5 276.5 C247.0928121 273.13885518 243.92541826 269.66298797 240.8125 266.03125 C238.7890712 263.76361428 236.66346653 261.6342305 234.5 259.5 C231.0928121 256.13885518 227.92541826 252.66298797 224.8125 249.03125 C222.7890712 246.76361428 220.66346653 244.6342305 218.5 242.5 C215.0928121 239.13885518 211.92541826 235.66298797 208.8125 232.03125 C206.7890712 229.76361428 204.66346653 227.6342305 202.5 225.5 C199.0928121 222.13885518 195.92541826 218.66298797 192.8125 215.03125 C190.7890712 212.76361428 188.66346653 210.6342305 186.5 208.5 C183.0928121 205.13885518 179.92541826 201.66298797 176.8125 198.03125 C174.7890712 195.76361428 172.66346653 193.6342305 170.5 191.5 C167.0928121 188.13885518 163.92541826 184.66298797 160.8125 181.03125 C158.7890712 178.76361428 156.66346653 176.6342305 154.5 174.5 C151.0928121 171.13885518 147.92541826 167.66298797 144.8125 164.03125 C142.7890712 161.76361428 140.66346653 159.6342305 138.5 157.5 C135.0928121 154.13885518 131.92541826 150.66298797 128.8125 147.03125 C126.7890712 144.76361428 124.66346653 142.6342305 122.5 140.5 C119.0928121 137.13885518 115.92541826 133.66298797 112.8125 130.03125 C110.07222917 126.96025683 107.12053098 124.11213124 104.19140625 121.22265625 C101.57898932 118.5729856 99.16697379 115.78827197 96.74609375 112.96484375 C94.90384325 110.89179676 92.97598338 108.94564198 91 107 C88.40017817 104.44009866 85.93731602 101.8322046 83.5625 99.0625 C80.28989507 95.25315804 76.76899563 91.75178891 73.1953125 88.2265625 C70.55993257 85.55366826 68.12233511 82.74631697 65.6796875 79.8984375 C63.47834607 77.41040974 61.11911485 75.10805923 58.75 72.78125 C56.29365151 70.28103815 54.03690632 67.62319484 51.75 64.96875 C49.55005105 62.49380743 47.20618555 60.19286326 44.84350586 57.87475586 C43.06663359 56.06776312 41.40563127 54.20655066 39.75390625 52.28515625 C36.08596197 48.06706876 32.28332468 43.99314028 28.4375 39.9375 C27.02841158 38.4455337 25.61956212 36.95334169 24.2109375 35.4609375 C23.50807617 34.71682617 22.80521484 33.97271484 22.08105469 33.20605469 C17.21204879 28.04458856 12.37036708 22.85828287 7.546875 17.65429688 C6.07730351 16.08267181 4.58913781 14.53139913 3.09375 12.984375 C2.2584375 12.10265625 1.423125 11.2209375 0.5625 10.3125 C-0.15808594 9.56613281 -0.87867188 8.81976563 -1.62109375 8.05078125 C-3 6 -3 6 -2.84765625 3.85546875 C-2 2 -2 2 0 0 Z " fill="#000000" transform="translate(284,0)"/>
</svg>
