<?xml version="1.0" encoding="utf-8"?>
<!-- Generator: Adobe Illustrator 16.0.0, SVG Export Plug-In . SVG Version: 6.00 Build 0)  -->
<!DOCTYPE svg PUBLIC "-//W3C//DTD SVG 1.1//EN" "http://www.w3.org/Graphics/SVG/1.1/DTD/svg11.dtd">
<svg version="1.1" xmlns="http://www.w3.org/2000/svg" xmlns:xlink="http://www.w3.org/1999/xlink" x="0px" y="0px"
	 width="412.653px" height="414.804px" viewBox="0 0 412.653 414.804" enable-background="new 0 0 412.653 414.804"
	 xml:space="preserve">
<g id="Calque_1">
</g>
<g id="Calque_2">
</g>
<g id="Calque_3">
</g>
<g id="Calque_4">
</g>
<g id="Calque_5">
</g>
<g id="Calque_6">
</g>
<g id="Calque_7">
</g>
<g id="Calque_8">
</g>
<g id="Calque_9">
</g>
<g id="Calque_10">
</g>
<g id="Calque_11">
</g>
<g id="Calque_12">
</g>
<g id="Calque_13">
</g>
<g id="Calque_14">
</g>
<g id="Calque_15">
	<g>
		<g>
			<g>
				<g>
					<g>
						<g>
							<path fill="#202020" d="M273.202,119.141c0.79-0.339,2.611-1.046,2.275-0.844l-3.063,1.261L273.202,119.141z"/>
							<path fill="#202020" d="M279.056,117.301c-1.465,0.66-4.062,1.768-6.91,2.83c2.871-1.228,1.792-0.766,5.191-2.221
								c0.336-0.203-1.028,0.282-2.158,0.739c0.783-0.333-0.711,0.173,1.209-0.623c2.414-0.863,2.548-0.794,0.619,0.083
								C277.693,117.867,278.49,117.53,279.056,117.301z"/>
							<path fill="#202020" d="M286.154,121.804l-0.386,0.082C285.978,121.829,286.096,121.806,286.154,121.804z"/>
							<path fill="#202020" d="M289.17,125.299c0.067-0.054,0.377-0.159,0.665-0.246
								C289.636,125.144,289.449,125.225,289.17,125.299z"/>
							<path fill="#202020" d="M292.875,124.989c-0.089,0.008-0.152,0.014-0.228,0.02
								C292.945,124.94,293.111,124.91,292.875,124.989z"/>
							<path fill="#202020" d="M286.154,121.804l1.022-0.219C286.154,121.931,286.398,121.781,286.154,121.804z"/>
							<path fill="#202020" d="M271.914,121.003c0.143-0.077,0.424-0.204,0.792-0.363c-0.11,0.062-0.211,0.119-0.308,0.173
								C272.23,120.88,272.087,120.936,271.914,121.003z"/>
							<path fill="#202020" d="M288.107,119.163l-0.008-0.034c0.356-0.133,0.783-0.292,1.261-0.47L288.107,119.163z"/>
							<path fill="#202020" d="M288.082,117.627c0.126-0.011-2.514,0.952-3.665,1.38c1.083-0.409,1.593-0.619,1.788-0.719
								C286.708,118.111,287.308,117.9,288.082,117.627z"/>
							<path fill="#202020" d="M282.656,117.218l0.351-0.176C282.906,117.092,282.781,117.155,282.656,117.218z"/>
							<path fill="#202020" d="M289.018,119.952c0.395-0.128,0.741-0.24,0.957-0.31C289.641,119.75,289.326,119.853,289.018,119.952
								z"/>
							<path fill="#202020" d="M274.718,160.297c0.201-0.002,0.327-0.004,0.5-0.006
								C274.936,160.301,274.736,160.306,274.718,160.297z"/>
							<path fill="#202020" d="M288.676,161.716l0.15-0.022c0.533-0.001,1.055-0.003,1.575-0.005L288.676,161.716z"/>
							<path fill="#202020" d="M296.701,125.352c-0.028,0.004-0.032,0.005-0.054,0.008
								C296.946,125.239,296.897,125.274,296.701,125.352z"/>
							<path fill="#202020" d="M297.509,138.319c-2.498,0.298-3.141,0.786-5.921,1.062
								C292.673,139.211,295.871,138.427,297.509,138.319z"/>
							<path fill="#202020" d="M272.27,120.902c-0.024,0.028-0.041,0.053-0.009,0.06
								C272.167,120.972,272.173,120.953,272.27,120.902z"/>
							<path fill="#202020" d="M291.587,139.381c-0.012,0.002-0.024,0.004-0.024,0.004l-0.263,0.024
								C291.416,139.398,291.489,139.391,291.587,139.381z"/>
							<path fill="#202020" d="M295.898,128.9c-0.474,0.106-0.842,0.188-1.202,0.269C294.977,129.1,295.319,129.021,295.898,128.9z"
								/>
							<path fill="#202020" d="M291.423,127.637l0.378-0.043C291.548,127.639,291.458,127.644,291.423,127.637z"/>
							<path fill="#202020" d="M292.357,131.031c0.215-0.02,0.595-0.101,0.239,0.029c-0.138,0.027-0.235,0.047-0.337,0.068
								C292.63,131.022,292.799,130.96,292.357,131.031z"/>
							<path fill="#202020" d="M292.608,132.258c-0.206,0.039-0.37,0.07-0.557,0.105l0.139-0.073L292.608,132.258z"/>
							<path fill="#202020" d="M275.995,157.052c0.813-0.018,1.672-0.036,2.523-0.054
								C276.522,157.063,275.814,157.248,275.995,157.052z"/>
							<path fill="#202020" d="M273.389,120.438c-0.661,0.261-0.984,0.395-1.119,0.464c0.025-0.023,0.074-0.054,0.128-0.088
								C272.79,120.666,273.146,120.53,273.389,120.438z"/>
							<path fill="#202020" d="M270.811,136.278l0.438,0.064C270.976,136.361,270.823,136.336,270.811,136.278z"/>
							<path fill="#202020" d="M275.805,149.419l-0.33,0.075C275.41,149.487,275.488,149.464,275.805,149.419z"/>
							<path fill="#202020" d="M270.948,136.918c0.971-0.198,1.539-0.298,1.912-0.352c-0.216,0.056-0.397,0.104-0.702,0.184
								L270.948,136.918z"/>
							<path fill="#202020" d="M278.55,156.997c-0.013,0-0.032,0.001-0.032,0.001S278.538,156.997,278.55,156.997z"/>
							<path fill="#202020" d="M271.902,158.341c-0.084-0.152,3.612-0.188,5.732-0.29c1.042-0.229-2.723,0-4.613-0.002
								c0.976-0.148,4.363-0.36,4.217-0.446c-0.607,0.016-0.83,0.006-1.591,0.054c2.932-0.236,0.136-0.379,3.818-0.679
								c-0.34,0.006-0.643,0.012-0.915,0.018c1.863-0.068,3.728-0.136,5.064-0.184c0.062-0.079,2.329-0.241-0.084-0.168
								c0.072,0.044-0.901,0.089-1.655,0.142l1.047-0.124c-3.47,0.075-1.198,0.159-3.766,0.266c1.126-0.197,3.992-0.505,3.009-0.581
								c-3.393,0.13-1.135,0.325-4.156,0.304l1.301,0.123c-5.357,0.094,0.375,0.09-5.354,0.212c-0.988-0.181,1.724-0.33,0.729-0.512
								c1.884-0.141,2.788-0.114,4.674-0.256c3.365-0.505-8.548,0.164-4.046-0.301c2.255-0.178,6.544-0.432,4.262-0.487l-3.83,0.266
								c-0.395-0.199,5.502-0.432,2.906-0.525c-1.503,0.128-1.257,0.249-1.715,0.24c-3.039,0.02,2.167-0.229,2.158-0.35
								l-3.397,0.172c0.517-0.265,2.949-0.678,3.548-0.989c-1.008,0.08-2.067,0.194-3.109,0.199
								c1.671-0.443-0.466-0.685-2.499-0.845l2.917-0.339c-0.036-0.026-1.326,0.047-1.891,0.12
								c-1.119-0.039,1.854-0.146,3.002-0.293c0.199-0.088-1.689,0.034-2.564,0.146c2.465-0.402,5.299-1.062,2.149-1.035
								l-0.865,0.119c-1.2-0.078,5.979-0.717,3.24-0.656l-0.516,0.078c-1.298-0.283,1.357-0.984-3.089-0.86
								c4.202-0.469-1.922-0.199,3.941-0.812c-2.935,0.066-3.974,0.237-5.966,0.132c-0.279-0.053,3.646-0.51,4.245-0.682
								l-3.066,0.326l3.199-0.488l-3.674,0.324l0.775-0.183c0.184,0.019,1.386-0.068,2.269-0.171c1.367-0.309-2.18-0.138-3.75,0.039
								l2.547-0.653c-1.231,0.151-1.646,0.26-2.426,0.397c3.101-0.55-3.229,0.339-0.386-0.165c0.696-0.058,1.822-0.226,2.44-0.302
								c-1.861,0.128-1.901-0.063-1.138-0.303l-2.107,0.283c-0.566-0.192,0.948-0.671,0.874-0.962
								c0.993-0.021,4.645-0.511,4.985-0.646l-3.229,0.38c1.986-0.314,1.227-0.063,3.656-0.498c-0.387-0.067-3.682,0.401-4.725,0.6
								l1.103-0.28c-0.965,0.118-1.469,0.216-2.698,0.384c2-0.319-3.268,0.201,0.206-0.338l-0.962,0.121
								c-0.061-0.285,1.035-0.568,1.168-0.829c2.785-0.393,2.155-0.401,4.397-0.792c-0.906-0.059-3.122,0.06-2.925-0.185
								c1.359-0.353,2.348-0.39,3.988-0.702c-2.533,0.361-2.333,0.113-4.132,0.495c0.367-0.317,0.447-0.397,2.447-1.042
								c1.046-0.125,1.502-0.154,2.362-0.308c0.405-0.125-1.085,0.026-2.299,0.224l-0.258,0.056
								c3.726-0.983-7.516,0.343-2.293-0.797l-0.257,0.06l2.692-0.761c-0.459-0.066-1.883,0.403-3.463,0.564
								c4.158-1.041-0.696-0.401,2.064-1.155c-7.474,1.119,0.401-0.827-4.39-0.234l1.752-0.309c1.704-0.391-1.015,0.1-1.424,0.124
								c1.359-0.247,1.584-0.217,2.528-0.438c2.019-1.016-2.799-0.761-4.497-1.02c-0.513-0.118,8.99-1.984,4.767-1.409l-3.216,0.754
								c3.784-1.266-0.332-0.88,2.857-2.041c-0.738,0.191-1.706,0.406-1.685,0.446c-2.363,0.426-0.188-0.316,1.722-0.749
								c-0.232-0.021-1.731,0.371-2.712,0.547c-1.401,0.22,2.938-0.91,0.599-0.432c-0.383,0.078-0.754,0.199-0.931,0.257
								c1.12-0.318-0.349-0.215,2.362-0.776c-1.323,0.13,1.132-0.599-0.495-0.361c2.995-0.795-1.514,0.057,2.743-0.979
								c-4.4,1.053-3.614,0.554-1.567-0.053c-1.322,0.355-1.399,0.24-3.229,0.726c0.038-0.133,0.819-0.438,3.084-0.968
								c-5.315,1.071,4.108-1.491-2.657,0.054c2.265-0.938,3.767-1.68,4.708-2.275c-4.365,1.142-0.341,0.474-4.931,1.634
								c1.721-0.756,5.419-1.914,4.283-1.948c-0.616,0.078-1.879,0.543-2.618,0.765c1.714-0.78-0.552-0.478,1.746-1.391
								c-0.405,0.111-0.84,0.261-1.165,0.378c0.129-0.093-0.667,0.048,1.307-0.482l-0.521,0.198
								c2.896-0.689,5.939-1.852,7.452-2.281c-5.643,1.647-1.5,0.109-8.621,2.228c0.365-0.138,1.29-0.441,2.614-0.797
								c-0.4,0.053-1.176,0.25-2.666,0.718c1.024-0.489,3.144-1.004,3.051-1.169c-0.957,0.268-1.316,0.406-2.436,0.737
								c1.842-0.607,3.681-1.222,2.833-1.146c-0.573,0.171-1.328,0.365-1.302,0.405c0.222-0.333,4.839-1.853,2.964-1.629
								c-4.12,1.279-1.389,0.295-4.979,1.319l1.03-0.46l1.755-0.445c-0.094-0.115,2.481-0.999,1.269-0.77l-1.444,0.532l0.6-0.448
								l1.403-0.259c1.802-0.681,4.536-1.32,3.48-1.209c-0.349,0.145-0.089-0.127-2.22,0.43c0,0-0.001,0-0.009,0.003
								c1.118-0.406,2.295-0.836,1.374-0.672c-1.175,0.354-3.933,1.184-4.715,1.42c2.967-0.963,0.731-0.561,3.886-1.611
								c-0.739,0.255-2.614,0.827-2.998,0.933l2.407-0.792c-0.795,0.173-1.174,0.279-2.666,0.745
								c-0.503-0.051,4.549-1.324,2.525-0.952c-0.19,0.078-0.555,0.181-0.912,0.33c-1.088,0.09,1.399-0.91,0.142-0.748
								c-3.605,1.061-0.822,0.453-3.869,1.327c0.56-0.485,4.102-1.956,3.167-1.979l0.412-0.073c5.037-1.659-2.563,0.585-0.228-0.324
								c-0.363,0.157-2.787,0.952-2.228,0.761c-0.872,0.069,1.115-0.795,2.605-1.621l-1.284,0.464
								c-1.191,0.266-0.762-0.083-1.389-0.011c1.278-0.467,1.047-0.47,2.938-1.055c-7.477,2.1,3.71-2.089-2.534-0.336
								c0.001,0.045-1.091,0.483-1.103,0.452l1.076-0.692c2.19-0.736,1.335-0.422,3.058-0.951c1.28-0.485,2.252-0.919,2.225-0.993
								c-1.396,0.638-3.505,1.219-4.742,1.59c0.674-0.237,1.403-0.494,2.083-0.734c-3.937,1.207,4.378-1.562,1.687-0.858
								l-1.141,0.414c0.556-0.284,2.042-0.892,1.683-0.862c-2.533,0.857-1.145,0.501-3.217,1.239
								c0.103-0.166,4.686-1.928,2.136-1.144c-0.683,0.301-0.667,0.377-1.346,0.675c-3.001,0.935-2.253,0.656-2.754,0.738
								l0.07-0.016l-1.41,0.285l0.818-0.237c6.506-2.503,1.09-0.726,5.308-2.482c-3.989,1.671-2.338,0.886-5.18,1.936
								c-0.808,0.237-1.721,0.485-2.513,0.798c2.262-0.929-1.862,0.512,1.444-0.844c-0.914,0.329-0.125-0.064-2.416,0.802
								c0.676-0.381,1.602-0.559,2.747-0.991c3.057-1.343-3.945,0.98,0.242-0.879c1.676-0.889,4.736-2.095,6.184-2.901
								c-1.485,0.48-3.298,1.323-3.298,1.323c-1.386,0.391-1.171,0.211-0.17-0.299c-0.785,0.327-1.466,0.561-2.5,0.919
								c0.205-0.178,3.292-1.332,1.907-0.933c-0.995,0.41-2.558,1.054-3.625,1.495c0.801-0.423,2.463-1.181,3.242-1.607
								c-1.595,0.585-2.38,0.997-3.4,1.433c0.669-0.393,1.321-0.863,3.813-1.879l0.923-0.27c0.106-0.093-2.16,0.815-2.606,1.026
								c-1.928,0.867,0.922-0.188,1.84-0.536l0.554-0.304c5.363-1.987-0.739,0.649-0.373,0.68l3.859-1.557l-3.163,1.399
								c1.022-0.353,3.203-1.157,3.755-1.46c1.961-0.616-1.344,0.63,0.835-0.086c0.337-0.116,0.522-0.192,0.671-0.261l-1.115,0.555
								c0.809-0.333,2.753-1.023,2.165-0.881c2.322-0.64-2.794,1.438,0.184,0.404l0.233-0.108c-1.21,0.782-2.85,1.105-6.127,2.571
								l7.109-2.491l-2.85,1.094c0.114-0.009,0.351-0.031,1.491-0.467c-1.918,0.838-1.251,0.444-3.078,1.194
								c2.66-0.824-1.079,0.834,3.5-0.812c-2.161,0.85-1.732,0.483-3.191,1.189c4.928-1.757-0.777,0.481,1.524-0.214
								c2.523-0.963,1.132-0.6,3.447-1.292c-4.261,1.639,1.034-0.083,0.255,0.329c-3.416,1.237-1.337,0.756-2.407,1.348
								c1.143-0.421,2.008-0.319,3.313-0.578l0.574-0.207c-3.451,1.252-2.731,1.199-3.403,1.58c2.078-0.729,2.885-1.037,3.788-1.434
								l0.03,0.131c-1.1,0.417-1.672,0.659-2.039,0.876l2.581-0.93c-0.081,0.22-2.929,1.387-1.129,1.009
								c-2.421,0.837-6.799,2.145-8.349,2.912c1.313-0.439,3.557-1.195,4.074-1.437c-0.163,0.077-1.067,0.439-0.496,0.286
								l2.176-0.841c0.999-0.233-1.826,0.679-1.596,0.685c1.869-0.638,1.352-0.397,2.832-0.912c0.174-0.082-0.796,0.196-0.07-0.084
								c0.363-0.027,1.507-0.297,2.934-0.74c-1.066,0.353-2.518,0.853-2.741,1c-0.083,0.213,2.269-0.703,3.261-0.927
								c-1.285,0.478,0.097,0.134-2.701,1.075c0.03,0.044,1.338-0.384,2.104-0.619c-1.208,0.501-0.224,0.527-3.235,1.418
								l-0.204,0.043c-0.045,0.021-0.067,0.031-0.118,0.055l0,0l0,0c-2.699,1.197,1.773,0.058,0.663,0.732l0.938-0.304
								c-1.02,0.514-0.516,0.577-2.501,1.341c0.009,0.024,0.447-0.084,1.023-0.246c0.576-0.161,1.289-0.375,1.845-0.564
								c-0.667,0.354-1.719,0.701-0.108,0.395c1.603-0.648,1.47-0.415,1.162-0.513c0.865-0.09,2.388-0.522-0.131,0.466
								c2.396-0.819,3.082-0.823,2.387-0.517l-1.767,0.42c-0.323,0.2-0.084,0.211,0.147,0.228l3.164-1.03
								c3.983-0.829-6.385,2.649,0.18,0.94c-2.198,0.766-1.628,0.285-4.207,1.158c0.24,0.013,1.516-0.285,2.735-0.577
								c0.613-0.148,1.202-0.29,1.65-0.398c0.218-0.05,0.401-0.092,0.537-0.124c0.13-0.028,0.205-0.042,0.208-0.036
								c1.837-0.302-4.591,1.601-3.313,1.468c-1.145,0.307-4.19,1.184-5.211,1.664c0.47,0.027,4.836-1.214,5.718-1.584
								c0.084-0.067-0.285,0.022-0.668,0.137c0.398-0.173,0.863-0.386,2.118-0.687l-1.131,0.357
								c1.187-0.264,1.135-0.004,2.988-0.604c-1.048,0.442-1.853,0.6-2.472,0.683c1.718-0.276,0.141,0.312,1.31,0.206
								c-0.338,0.085-0.827,0.208-1.229,0.31c-0.414,0.111-0.746,0.208-0.735,0.223c1.497-0.092-2.126,0.762-2.57,1.113
								c1.771-0.378,4.141-1.229,2.741-0.6c1.214-0.204,3.037-0.832,3.952-1.151c-2.147,0.825,1.548-0.034,1.984-0.028l0.893-0.367
								c-0.53,0.219-0.5,0.267-0.48,0.319l-2.302,0.58c0.414-0.049,0.44,0,1.39-0.266c-1.48,0.482-3.814,1.016-5.83,1.711
								c1.184-0.243-1.182,0.589,1.861-0.223c-1.1,0.029,3.057-0.815,3.487-1.172c-0.351,0.144-0.323,0.192,0.097,0.143
								c0.341-0.084,0.625-0.183,0.795-0.248c2.781-0.497-3.402,1.065-3.264,1.3c1.703-0.502,3.263-0.829,2.91-0.687
								c-0.063-0.096-2.87,0.732-4.156,1.184c1.376-0.2-0.945,0.446-0.767,0.488l-0.655,0.074c-1.702,0.497-1.457,0.515-1.967,0.771
								c1.337-0.35,0.89-0.348,1.49-0.467c-2.98,0.932,3.194-0.558,1.211,0.161c1.185-0.228,3.225-0.849,4.032-0.986
								c-2.172,0.789,2.41-0.402,0.627,0.295c-2.324,0.543-1.761,0.387-3.974,1.121l1.534-0.767l-3.297,1.1
								c-0.06-0.091,1.395-0.595,0.984-0.552c-1.854,0.6-1.283,0.437-3.21,0.895c3.498-0.775-1.945,0.797,0.435,0.341l5.716-1.494
								c2.614-0.411-2.819,1.196-1.295,1.14l-1.023,0.152c-2.265,0.622-0.266,0.273-1.162,0.609c1.913-0.493,2.623-0.604,3.828-0.86
								c-1.422,0.352,0.193,0.203-3.625,1.186l2.561-0.487c1.102,0.003-5.384,1.638-4.669,1.712
								c2.065-0.581,3.454-0.801,4.902-1.331c0.041,0.078,0.412,0.067-0.918,0.392c1.216-0.244-2.524,0.852-0.688,0.487
								c-0.835,0.238-2.843,0.732-2.665,0.785c0.4-0.097,0.95-0.229,0.95-0.229c-0.95,0.229-1.261,0.45-3.403,0.881
								c6.046-1.179-0.287,0.782,4.91-0.202c-0.605,0.328-1.178,0.683-1.284,0.875c0.574-0.141,0.959-0.218,0.753-0.203
								c1.839-0.181-5.498,1.385-3.446,1.181c3.142-0.569,1.655-0.51,2.852-0.694c6.347-1.383-0.799,0.498,2.94-0.151l0.365-0.125
								c2.185-0.339-2.333,0.852-1.834,0.964c0,0,0.551-0.12,0.959-0.208c-3.206,0.848-4.22,1.345-5.077,1.734
								c2.473-0.587,1.296-0.37,3.832-0.865c-0.338,0.167-4.064,0.832-4.732,1.158c1.374-0.229,2.592-0.349,5.295-0.893l0.108-0.204
								c3.511-0.642-0.07,0.251,0.556,0.216l1.523-0.328c-0.436,0.375-4.284,1.167-3.948,1.392l-1.162,0.205
								c-3.782,0.923,2.172-0.305-0.631,0.419l3.881-0.729c-0.911,0.292-3.665,1.104-4.355,1.423
								c2.851-0.663,4.272-1.169,5.948-1.645c0.051,0.098-0.208,0.41-2.109,0.837c0.365-0.114,1.302-0.353,0.697-0.277
								c-3.017,0.727-4.48,1.177-4.371,1.361c7.513-1.485,1.984,0.16,7.853-0.79c-2.721,0.889,1.312,0.521,0.94,1.046
								c-5.886,0.892-0.145,0.156-6.17,1.199c-0.366,0.165-0.261,0.184,0.13,0.124l3.648-0.331c1.766-0.232,1.312-0.327,2.665-0.554
								c0.5,0.144,2.568-0.35,4.196-0.476c-2.161,0.342-3.074,0.611-2.229,0.599l-2.809,0.297c-3.156,0.857,5.104-0.593,1.98,0.266
								l1.88-0.42c-1.092,0.351,0.142,0.608-4.68,1.555c0.701-0.085,2.358-0.315,2.782-0.458c0.795,0.282-5.019,1.676-1.981,1.504
								l1.472-0.256c-0.415,0.139-2.757,0.551-1.253,0.413c0.61-0.098,1.47-0.254,1.563-0.233c-0.503,0.117-2.558,0.583-1.681,0.547
								l1.65-0.332c2,0.093-3.956,1.181-4.921,1.627c4.356-0.63,5.81-0.532,6.534-0.479l0.616-0.092
								c0.594,0.378-3.521,1.26-5.187,1.882c4.768-0.369,2.088,0.593,4.795,0.674c-0.8,0.034-3.403,0.426-3.834,0.55
								c0.899-0.012-3.001,0.623,1.004,0.129l-0.08-0.024c3.941-0.399,2.92-0.072,3.045,0.07l-5.243,0.636
								c7.679-0.47-2.682,1.34,4.183,0.81c-1.302,0.237-1.273,0.355-2.573,0.587l2.816-0.299c0.75,0.195,1.119,0.298,0.488,0.7
								l2.006-0.268c0.21,0.176-8.097,1.037-8.243,1.216l4.213-0.353c-0.042,0.326,3.679,0.33-0.116,0.995
								c0.618-0.06,1.833-0.177,1.999-0.246c0.121,0.143,2.896,0.361-2.889,0.793c3.764-0.315,0.392,0.309-1.255,0.613l2.774-0.252
								c-3.537,0.436-4.508,0.516-5.477,0.794c0.366,0.019,2.228-0.132,1.512-0.141c1.467,0.047-2.622,0.329-1.128,0.406l1.77-0.208
								c0.226,0.148-0.727,0.209-2.79,0.453c-1.108,0.184,0.723,0.253,3.238,0.098c-1.53,0.133-3.574,0.369-2.842,0.412
								c0.951-0.054,1.538-0.131,1.824-0.169c1.913,0.146-3.203,0.628-0.459,0.63c0.921-0.057,1.382-0.075,1.661-0.078
								c-0.082-0.216-0.248-0.382-0.449-0.352c2.563-0.178,3.026-0.025,6.555-0.414c-1.92,0.285-6.103,0.809-4.885,0.903
								c0.254-0.01,0.5-0.019,0.889-0.034l0.286-0.037c0.259,0.024,0.022,0.076-0.406,0.138c0.426,0.029,0.74,0.046,0.78,0.098
								c2.124-0.111,1.16,0.139,1.269,0.224c-2.806,0.162-2.347,0.251-4.669,0.281c0.198,0.002,0.333-0.037,0.445-0.103
								c0.082-0.019,0.123-0.037,0.288-0.056c-0.078,0.007-0.165,0.014-0.246,0.021c0.076-0.063,0.134-0.143,0.172-0.232
								c-1.42,0.16-2.614,0.305-1.05,0.307c-1.792,0.156-3.64,0.317-4.519,0.394c3.922-0.12,6.054-0.007,8.47-0.11
								c-1.556,0.363-0.993,0.71-6.255,1.146c-0.672,0.109,1.518,0.01,2.349-0.003c0.526-0.071,0.442-0.119,1.199-0.182
								c-1.343,0.222-0.492,0.482-4.181,0.691c1.668,0.112,3.39-0.267,2.793,0.024l1.126-0.088c5.904,0.286-9.388,1.229-1.811,1.499
								c-0.465-0.023-0.68-0.036-1.297-0.021c3.352,0.551-3.099,1.41,2.208,1.926c1.071,0.163-1.284,0.23-3.073,0.373l3.021-0.015
								l-3.479,0.25c-2.544,0.296,7.42,0.364,2.604,0.77l-2.034-0.022c0.388,0.118-1.19,0.394,1.148,0.354
								c-0.371,0.016-2.113,0.056-1.053,0.096l1.58-0.007l-2.701,0.314c1.148,0.227,6.271-0.067,6.587,0.282
								c-0.605,0.135-4.591,0.372-5.65,0.323c-0.079-0.051-0.989-0.128-2.571-0.13l-0.82,0.112
								c-4.655,0.024-9.421,0.095-12.68-0.148l2.842-0.18l-2.26-0.048l-0.138,0.145c-2.128-0.077-0.25-0.132,1.04-0.196
								c-1.202-0.009-2.042-0.03-2.49-0.062l4.444-0.194c-1.824-0.009-3.614,0.097-4.623-0.009c2.063-0.093,4.086,0.051,5.44-0.092
								c-2.119-0.07-3.842-0.031-2.038-0.143c-1.199-0.004-1.962,0.023-2.489,0.065c1.436-0.098,0.602-0.231,3.076-0.302
								c-2.614-0.058,0.671-0.304-3.735-0.24c1.054-0.04,3.456-0.197,3.637-0.282c-5.272,0.224-0.317-0.294-5.973-0.161
								c4.741-0.187,2.098-0.416,4.724-0.661c-0.375,0.019-1.139,0.057-0.897,0.068c-0.396-0.098-1.827-0.096-2.724-0.142
								c3.917-0.105,4.809-0.294,7.223-0.451c-3.784-0.034-4.596,0.2-8.229,0.251c3.175-0.074,3.165-0.307,5.809-0.335
								c-2.34-0.037-1.137-0.056-4.384-0.015c4.897-0.158,0.825-0.115,3.832-0.288c-2.417-0.073-4.588,0.104-3.101-0.101
								C273.634,158.15,271.902,158.341,271.902,158.341z M280.183,154.182c-0.027,0.002-0.046,0.003-0.056,0.004
								c-0.063,0.038-0.118,0.069-0.153,0.09C280.018,154.257,280.077,154.23,280.183,154.182z M280.203,153.852
								c0.113,0.033,0.136,0.081,0.12,0.135c0.97-0.053,1.966-0.131,1.912-0.162C281.591,153.886,281.025,153.846,280.203,153.852z
								 M299.696,153.345c0.393-0.085-0.159-0.071-0.735-0.043c-0.047,0.031-0.14,0.071-0.329,0.126
								c-0.104,0.008-0.225,0.018-0.343,0.028C298.821,153.414,299.316,153.375,299.696,153.345z"/>
							<path fill="#202020" d="M296.024,153.678c-0.063,0.012-0.179,0.024-0.203,0.036c-0.241,0.001-0.452,0.003-0.634,0.004
								c0.297-0.025,0.592-0.05,0.878-0.075C296.049,153.655,296.043,153.667,296.024,153.678z"/>
							<path fill="#202020" d="M285.706,121.899l0.063-0.013c-0.115,0.033-0.222,0.064-0.385,0.111
								C285.518,121.956,285.597,121.932,285.706,121.899z"/>
							<polygon fill="#202020" points="274.471,149.917 275.175,149.842 274.562,149.935 							"/>
							<path fill="#202020" d="M275.967,123.197c-0.225,0.07-0.454,0.142-0.688,0.215
								C275.446,123.36,275.688,123.284,275.967,123.197z"/>
							<path fill="#202020" d="M275.098,122.666l-0.981,0.233C274.669,122.751,274.937,122.693,275.098,122.666z"/>
							<path fill="#202020" d="M273.577,122.573c0.465-0.174,0.81-0.303,1.127-0.422c0.009-0.003,0.01-0.003,0.021-0.006
								L273.577,122.573z"/>
							<path fill="#202020" d="M273.257,132.51c-0.012,0.011-0.045,0.028-0.117,0.055
								C272.628,132.758,272.827,132.667,273.257,132.51z"/>
							<path fill="#202020" d="M278.818,127.984c-0.48,0.175-0.95,0.347-1.245,0.467
								C277.352,128.464,277.286,128.442,278.818,127.984z"/>
							<path fill="#202020" d="M270.759,136.272c0.017-0.004,0.024-0.006,0.048-0.012c-0.008,0.009,0.002,0.012,0.003,0.018
								L270.759,136.272z"/>
							<path fill="#202020" d="M277.661,128.566c-0.552,0.109-0.45,0.035-0.088-0.114
								C277.767,128.438,278.058,128.404,277.661,128.566z"/>
							<path fill="#202020" d="M271.49,120.601l-0.119,0.016c0.172-0.068,0.311-0.124,0.419-0.167L271.49,120.601z"/>
							<path fill="#202020" d="M271.79,120.45l0.298-0.15C272.094,120.313,272.078,120.333,271.79,120.45z"/>
							<path fill="#202020" d="M272.725,119.979l-0.637,0.321C272.074,120.28,271.982,120.285,272.725,119.979z"/>
							<path fill="#202020" d="M272.975,120.874l-0.951,0.372C272.225,121.167,272.528,121.048,272.975,120.874z"/>
							<path fill="#202020" d="M272.782,121.205c-0.237,0.027-2.083,0.638-1.513,0.336l0.755-0.295
								C270.62,121.819,274.37,120.543,272.782,121.205z"/>
							<path fill="#202020" d="M284.952,117.787l-0.842,0.074c1.032-0.341,2.419-0.799,2.628-0.986
								C289.876,116.018,284.44,117.663,284.952,117.787z"/>
							<path fill="#202020" d="M286.673,117.901c0.433-0.287,1.483-0.536,2.057-0.751
								C287.828,117.561,287.597,117.663,286.673,117.901z"/>
							<path fill="#202020" d="M288.313,122.704l2.434-0.787C290.425,122.119,289.803,122.217,288.313,122.704z"/>
							<polygon fill="#202020" points="275.979,127.539 274.436,127.932 276.662,127.2 							"/>
							<polygon fill="#202020" points="293.563,122.717 293.901,122.57 293.063,122.995 							"/>
							<path fill="#202020" d="M294.981,131.476l-3.076,0.688C292.443,131.973,295.887,131.152,294.981,131.476z"/>
							<path fill="#202020" d="M292.643,135.826c1.552-0.274,2.567-0.37,1.064-0.001
								C293.476,135.785,292.255,135.947,292.643,135.826z"/>
							<polygon fill="#202020" points="299.47,146.211 300.508,146.013 299.653,146.259 							"/>
						</g>
					</g>
				</g>
			</g>
		</g>
		<g>
			<g>
				<g>
					<g>
						<g>
							<path fill="#202020" d="M166.111,46.336c-0.062-0.859-0.025-2.814,0.139-2.422l0.11,3.314L166.111,46.336z"/>
							<path fill="#202020" d="M167.255,40.242c0.187,1.61,0.373,4.437,0.213,7.473c-0.152-3.188-0.21-1.861-0.386-5.654
								c-0.166-0.391-0.299,1.053-0.278,2.272c-0.054-0.852-0.258,0.719-0.34-1.361c0.224-2.557,0.515-2.65,0.783-0.527
								C167.316,41.719,167.264,40.853,167.255,40.242z"/>
							<path fill="#202020" d="M184.573,36.438l-0.167,0.372C184.468,36.599,184.523,36.486,184.573,36.438z"/>
							<path fill="#202020" d="M195.543,36.677c-0.063-0.097-0.022-0.422,0.042-0.716C195.612,36.189,195.627,36.4,195.543,36.677z"
								/>
							<path fill="#202020" d="M198.247,33.544c-0.065,0.093-0.11,0.13-0.165,0.193C198.198,33.451,198.282,33.296,198.247,33.544z"
								/>
							<path fill="#202020" d="M184.573,36.438l0.437-0.984C184.871,36.524,184.747,36.223,184.573,36.438z"/>
							<path fill="#202020" d="M169.325,48.294c-0.049-0.163-0.085-0.472-0.116-0.874c0.041,0.143,0.081,0.264,0.123,0.354
								C169.329,47.954,169.327,48.106,169.325,48.294z"/>
							<path fill="#202020" d="M180.167,33.167l-0.088-0.013c0.021-0.399,0.044-0.85,0.07-1.345L180.167,33.167z"/>
							<path fill="#202020" d="M176.511,32.313c0.094-0.114-0.102,2.69-0.17,3.917c0.047-1.158,0.03-1.714-0.025-1.937
								C176.357,33.76,176.418,33.123,176.511,32.313z"/>
							<path fill="#202020" d="M170.446,36.934l-0.088-0.394C170.381,36.664,170.421,36.777,170.446,36.934z"/>
							<path fill="#202020" d="M182.886,32.843c0.06-0.413,0.12-0.774,0.163-0.992C183.003,32.202,182.947,32.531,182.886,32.843z"
								/>
							<path fill="#202020" d="M253.379,96.964c0.163-0.12,0.263-0.194,0.402-0.297C253.565,96.85,253.408,96.974,253.379,96.964z"
								/>
							<path fill="#202020" d="M266.985,91.97l0.091-0.132c0.437-0.307,0.864-0.607,1.288-0.905L266.985,91.97z"/>
							<path fill="#202020" d="M202.593,31.012c-0.014,0.022-0.018,0.028-0.03,0.048C202.558,30.726,202.595,30.794,202.593,31.012z
								"/>
							<path fill="#202020" d="M231.99,45.507c-1.555,2.003-1.092,3.096-2.94,5.248C229.641,49.828,230.788,46.699,231.99,45.507z"
								/>
							<path fill="#202020" d="M169.42,47.928c0.043,0.033,0.087,0.059,0.133,0.033C169.489,48.05,169.449,48.037,169.42,47.928z"/>
							<path fill="#202020" d="M229.049,50.755c-0.006,0.011-0.012,0.021-0.012,0.021l-0.178,0.202
								C228.937,50.887,228.983,50.833,229.049,50.755z"/>
							<path fill="#202020" d="M209.956,35.086c-0.178,0.462-0.333,0.807-0.481,1.135C209.571,35.949,209.704,35.624,209.956,35.086
								z"/>
							<path fill="#202020" d="M203.01,37.051l0.248-0.319C203.129,36.961,203.059,37.033,203.01,37.051z"/>
							<path fill="#202020" d="M211.551,39.864c0.15-0.174,0.313-0.528,0.283-0.14c-0.057,0.115-0.101,0.205-0.152,0.311
								C211.781,39.661,211.793,39.476,211.551,39.864z"/>
							<path fill="#202020" d="M214.529,41.032c-0.09,0.17-0.177,0.334-0.266,0.502c-0.008-0.064-0.026-0.12-0.037-0.18
								L214.529,41.032z"/>
							<path fill="#202020" d="M249.339,89.716c0.637-0.471,1.321-1.011,1.993-1.55C249.793,89.438,249.506,90.208,249.339,89.716z"
								/>
							<path fill="#202020" d="M169.371,46.715c-0.003,0.711,0.011,1.061,0.049,1.213c-0.031-0.033-0.061-0.09-0.089-0.154
								C169.334,47.356,169.344,46.961,169.371,46.715z"/>
							<path fill="#202020" d="M203.881,60.668l0.544-0.248C204.218,60.635,204.023,60.719,203.881,60.668z"/>
							<path fill="#202020" d="M235.664,75.874l-0.137,0.325C235.458,76.223,235.482,76.138,235.664,75.874z"/>
							<path fill="#202020" d="M205.45,61.242c0.432-0.893,0.718-1.396,0.933-1.713c-0.064,0.211-0.112,0.387-0.221,0.694
								L205.45,61.242z"/>
							<path fill="#202020" d="M251.357,88.146c-0.011,0.009-0.024,0.02-0.024,0.02S251.346,88.155,251.357,88.146z"/>
							<path fill="#202020" d="M248.04,94.604c-0.315-0.252,2.676-2.437,4.261-3.849c0.491-1.048-2.247,1.555-3.808,2.633
								c0.566-0.851,3.019-3.205,2.76-3.292c-0.477,0.377-0.675,0.486-1.226,1.016c2.038-2.143-0.499-0.828,2.056-3.525
								c-0.266,0.191-0.511,0.382-0.726,0.559c1.44-1.158,2.875-2.376,3.881-3.259c-0.076-0.191,1.531-1.808-0.341-0.285
								c0.13,0.046-0.6,0.691-1.135,1.228l0.664-0.844c-2.739,2.133-0.731,1-2.678,2.679c0.612-1.033,2.479-3.281,1.546-2.87
								c-2.588,2.196-0.413,1.293-2.937,2.977l1.27-0.502c-4.265,3.25,0.456-0.035-4.072,3.482c-1.109,0.208,0.902-1.65-0.245-1.412
								c1.32-1.35,2.116-1.822,3.436-3.175c1.93-2.898-6.803,5.228-3.861,1.753c1.567-1.637,4.689-4.589,2.707-3.381l-2.722,2.711
								c-0.663-0.154,3.827-3.988,1.519-2.675c-1.028,1.109-0.621,1.198-1.014,1.446c-2.483,1.784,1.406-1.685,1.196-1.909
								l-2.522,2.282c-0.019-0.803,1.297-2.993,1.267-3.934c-0.698,0.733-1.383,1.559-2.236,2.169
								c0.652-1.826-1.568-1.017-3.56-0.116l1.827-2.311c-0.077-0.026-1.022,0.857-1.363,1.318
								c-1.004,0.582,1.286-1.344,1.979-2.278c0.009-0.274-1.349,1.046-1.879,1.758c1.336-2.161,2.519-5.001-0.064-3.119
								l-0.51,0.718c-1.141,0.559,3.706-4.777,1.528-3.072l-0.291,0.441c-0.804,0.117-0.947-0.523-1.354-0.834
								c-0.417-0.297-1.077-0.283-2.826,1.141c2.659-3.288-1.989,0.79,1.8-3.728c-2.346,1.845-2.901,2.753-4.773,3.745
								c-0.334,0.072,2.117-3.031,2.3-3.682l-1.971,2.371l1.781-2.73l-2.486,2.725l0.312-0.772c0.189-0.076,1.037-0.936,1.589-1.633
								c0.574-1.339-2.09,1.045-3.081,2.275l0.916-2.62c-0.753,0.986-0.891,1.408-1.291,2.103c1.566-2.759-2.084,2.493-0.65-0.034
								c0.479-0.513,1.109-1.461,1.486-1.957c-1.333,1.329-1.743,1.046-1.565,0.198l-1.241,1.727
								c-0.86,0.033-0.509-1.651-1.141-2.076c0.805-0.632,2.957-3.624,2.98-4.048l-2.006,2.561c1.075-1.705,0.92-0.842,2.14-3.007
								c-0.461,0.125-2.351,2.867-2.851,3.816l0.391-1.117c-0.59,0.772-0.829,1.234-1.546,2.247
								c1.079-1.721-2.391,2.293-0.487-0.671l-0.583,0.774c-0.612-0.417-0.22-1.554-0.636-2.031
								c1.601-2.312,1.041-1.932,2.177-3.904c-0.905,0.478-2.576,2.026-2.899,1.528c0.456-1.375,1.232-2.039,2.013-3.524
								c-1.449,2.109-1.778,1.606-2.556,3.295c-0.324-0.71-0.417-0.882,0-3.099c0.646-0.834,0.981-1.157,1.41-1.922
								c0.094-0.44-0.881,0.706-1.525,1.755l-0.108,0.245c0.634-1.881-0.842-0.618-2.159,0.523
								c-1.315,1.124-2.516,2.191-1.452-0.286l-0.101,0.247l0.753-2.774c-0.54,0.2-0.797,1.761-1.838,2.99
								c1.445-4.097-1.449-0.118-0.622-2.927c-2.105,3.147-2.429,2.807-2.622,2.147c-0.188-0.657-0.251-1.636-1.7,0.31l0.88-1.546
								c0.668-1.629-0.674,0.781-0.986,1.084c0.669-1.21,0.934-1.32,1.289-2.224c-0.424-2.602-4.118,0.859-6.169,1.627
								c-0.706,0.178,3.665-8.459,1.178-4.956l-1.218,3.084c0.331-2.07-0.247-2.288-0.848-2.412
								c-0.601-0.135-1.216-0.193-1.087-1.965c-0.238,0.727-0.629,1.637-0.521,1.67c-1.174,2.109-0.867-0.241-0.115-2.049
								c-0.254,0.133-0.728,1.614-1.217,2.488c-0.767,1.212,0.618-3.067-0.419-0.914c-0.169,0.353-0.235,0.747-0.266,0.935
								c0.299-1.136-0.788-0.015,0.399-2.518c-0.896,1.053-0.312-1.474-1.241-0.088c0.925-2.976-1.229,1.099,0.284-2.999
								c-1.609,4.227-2.026,3.154-1.542,1.068c-0.395,1.31-0.725,1.248-1.288,3.055c-0.268-0.162-0.245-1.044,0.61-3.207
								c-2.395,4.894,0.359-4.493-2.282,1.929c-0.06-2.602-0.373-4.458-0.862-5.761c-1.375,4.299,0.758,0.75-0.779,5.228
								c-0.147-2.016,0.6-5.899-0.524-5.069c-0.387,0.529-0.472,1.898-0.64,2.652c-0.223-1.995-1.604-0.031-1.597-2.584
								c-0.117,0.404-0.171,0.865-0.198,1.216c-0.095-0.182-0.5,0.54,0.088-1.417l-0.022,0.57c1.068-2.79,1.187-6.126,1.586-7.647
								c-1.385,5.716-1.124,1.214-2.777,8.466c0.017-0.399,0.169-1.367,0.563-2.681c-0.245,0.346-0.502,1.105-0.792,2.645
								c-0.184-1.214,0.573-3.265,0.108-3.351c-0.262,0.959-0.272,1.354-0.537,2.493c0.292-1.931,0.564-3.867-0.039-3.167
								c-0.132,0.584-0.377,1.324-0.261,1.342c-0.565-0.463,0.183-5.34-1.036-3.687c-0.831,4.23-0.598,1.32-1.533,4.935
								l-0.121-1.166l0.588-1.725c-0.357-0.014-0.033-2.727-0.619-1.604l-0.098,1.553l-0.487-0.833l0.694-1.296
								c0.082-1.952,1.122-4.59,0.403-3.684c0.014,0.388-0.376-0.036-1.05,2.068c0,0,0.001,0-0.001,0.01
								c0.088-1.198,0.175-2.462-0.294-1.616c-0.326,1.151-0.838,4.043-1.055,4.81c0.502-3.084-0.627-1.027-0.155-4.328
								c-0.088,0.781-0.492,2.699-0.599,3.083l0.38-2.512c-0.333,0.757-0.436,1.136-0.73,2.671
								c-0.582,0.346,1.124-4.602,0.121-2.734c0.005,0.211-0.093,0.577-0.076,0.976c-0.794,0.914-0.823-1.831-1.606-0.728
								c-0.863,3.655,0.293,1.008-0.488,4.08c-0.609-0.845-0.776-4.692-1.697-3.957l0.213-0.386
								c0.792-5.243-1.013,2.492-0.975-0.032c0.031,0.402-0.359,2.924-0.287,2.337c-0.649,0.761-0.832-1.45-1.384-3.228
								l-0.104,1.365c-0.485,1.154-0.905,0.566-1.32,1.128c0.092-1.362-0.129-1.174,0.258-3.118
								c-1.046,3.763-1.367,2.655-1.695,1.391c-0.323-1.236-0.648-2.636-1.47,0.533c0.107,0.025,0.122,1.208,0.037,1.2l-0.631-1.314
								c0.311-2.291,0.252-1.381,0.615-3.154c0.05-1.371-0.064-2.448-0.266-2.467c0.201,1.557-0.399,3.689-0.681,4.958
								c0.099-0.702,0.128-1.484,0.216-2.199c-0.834,4.051,0.407-4.63-0.449-1.931l-0.089,1.21c-0.15-0.637-0.196-2.252-0.463-1.929
								c-0.346,2.653,0.111,1.264-0.084,3.455c-0.296-0.183-0.17-5.102-0.705-2.477c0.072,0.755,0.268,0.786,0.337,1.535
								c-0.6,3.097-0.559,2.299-0.833,2.773l0.028-0.068l-0.647,1.366l0.205-0.834c0.174-6.984-0.696-1.346-0.898-5.95
								c0.215,4.36-0.097,2.501-0.275,5.527c-0.197,0.824-0.464,1.745-0.467,2.601c-0.077-2.461-0.533,1.881-0.644-1.717
								c-0.078,0.967-0.27,0.071-0.367,2.521c-0.27-0.774,0.18-1.692,0.231-2.912c-0.314-3.344-1.385,4-1.863-0.589
								c-0.535-1.897-0.521-5.187-1.071-6.843c-0.258,1.553,0.038,3.555,0.038,3.555c-0.375,1.424-0.6,1.154-0.871,0.029
								c0.036,0.852-0.049,1.569-0.171,2.66c-0.23-0.261-0.063-3.554-0.421-2.126c0.028,1.087,0.054,2.83,0.138,3.924
								c-0.252-0.907-0.487-2.736-0.766-3.624c-0.11,1.696,0.126,2.583,0.202,3.694c-0.304-0.774-0.806-1.564-0.874-4.258
								l0.229-0.953c-0.121-0.136-0.097,2.308-0.017,2.801c0.244,2.118,0.421-0.917,0.458-1.897l-0.2-0.632
								c0.33-5.712,0.846,0.945,1.264,0.626l-0.066-4.164l0.347,3.465c0.125-1.078,0.267-3.399,0.067-4.028
								c0.383-2.042,0.232,1.487,0.581-0.795c0.042-0.355,0.036-0.556,0.013-0.72l0.268,1.247c-0.029-0.875,0.16-2.934-0.056-2.339
								c0.666-2.38,0.785,3.146,1.131,0.004l-0.036-0.257c0.719,1.429-0.057,3.056,0.341,6.651l0.773-7.51l-0.084,3.05
								c0.085-0.107,0.257-0.331,0.294-1.551c0.184,2.096-0.124,1.325-0.061,3.3c0.546-2.766,0.967,1.331,1.364-3.504
								c-0.014,2.33-0.481,1.754-0.179,3.403c0.463-5.21,0.41,0.938,0.922-1.424c0.087-2.703-0.357-1.308,0.173-3.681
								c-0.115,4.574,0.771-0.931,1.017-0.03c-0.274,3.623,0.535,1.573,0.934,2.824c0.074-1.217,1.126-1.897,1.737-3.159
								l0.046-0.608c-0.272,3.663,0.279,3.018,0.55,3.809c0.221-2.191,0.25-3.056,0.157-4.053l0.338,0.049
								c-0.046,1.178-0.008,1.804,0.162,2.242l0.217-2.735c0.444,0.194,0.537,3.297,1.33,1.532
								c-0.287,2.544-1.296,7.038-0.931,8.788c0.19-1.372,0.504-3.72,0.418-4.297c0.029,0.182,0.039,1.159,0.213,0.582l0.049-2.334
								c0.383-0.991-0.104,1.944,0.125,1.747c0.242-1.962,0.327-1.377,0.494-2.936c-0.029-0.2-0.282,0.789-0.266,0.011
								c0.278-0.336,0.708-1.439,0.996-2.911c-0.165,1.111-0.341,2.637-0.204,2.917c0.422,0.212,0.461-2.331,0.858-3.294
								c-0.074,1.375,0.406,0.011,0.012,2.937c0.131,0.006,0.344-1.354,0.505-2.14c0.053,1.328,1.032,0.54,0.32,3.606l-0.088,0.196
								c0.002,0.063,0.014,0.067,0.018,0.134l-0.002,0l0.002,0c0.301,3.018,1.79-1.412,2.341-0.046l0.159-0.974
								c0.258,1.183,0.877,0.813,0.823,2.955c0.128,0.018,0.618-1.729,0.768-2.894c0.211,0.785,0.046,1.88,0.828,0.356
								c-0.031-1.75,0.395-1.482-0.124-1.297c0.595-0.768,0.996-2.306,0.974,0.424c0.307-2.522,0.933-3.057,1.003-2.268l-0.654,1.71
								c0.166,0.414,0.414,0.239,0.665,0.074l0.527-3.291c1.751-3.759,0.262,7.11,2.354,0.634c-0.249,2.328-0.841,1.492-1.193,4.202
								c0.499-0.35,1.96-4.917,2.101-4.896c0.994-1.667-0.52,4.864,0.353,3.768c-0.344,1.136-1.119,4.21-0.945,5.394
								c0.496-0.34,1.644-4.733,1.598-5.719c-0.078-0.12-0.212,0.238-0.299,0.629c-0.035-0.451-0.1-0.985,0.359-2.201l-0.214,1.167
								c0.483-1.133,1.04-0.878,1.355-2.804c0.06,1.174-0.318,1.925-0.696,2.471c0.944-1.55,0.857,0.139,1.693-0.857
								c-0.248,0.615-0.665,1.95-0.575,1.958c1.168-1.237-0.188,2.249,0.213,2.901c0.754-1.666,0.967-4.214,1.132-2.59
								c0.644-1.09,0.87-3.026,0.974-4.001c-0.071,2.358,1.339-1.181,1.752-1.5l-0.025-1.002c0.017,0.596,0.156,0.618,0.294,0.652
								l-0.776,2.246c0.266-0.353,0.404-0.326,0.661-1.278c-0.248,1.546-1.161,3.773-1.408,5.915
								c0.527-1.104,0.271,1.424,1.192-1.588c-0.94,0.843,0.926-3.026,0.5-3.676c0.009,0.394,0.145,0.417,0.417,0.062
								c0.119-0.332,0.153-0.634,0.158-0.821c1.408-2.524-0.668,3.514-0.001,3.63c0.406-1.73,1.084-3.191,1.088-2.796
								c-0.279-0.042-0.946,2.81-1.088,4.184c0.801-1.208,0.159,1.115,0.418,1.022l-0.429,0.555
								c-0.418,1.725-0.151,1.56-0.031,2.176c0.42-1.317,0.016-0.984,0.291-1.54c-0.587,3.078,1.645-2.887,1.48-0.747
								c0.561-1.09,1.003-3.181,1.429-3.906c-0.179,2.345,1.283-2.159,1.251-0.188c-0.881,2.227-0.724,1.666-1.065,3.988
								l-0.356-1.852l-0.494,3.468c-0.264-0.041-0.09-1.589-0.367-1.245c-0.32,1.933-0.173,1.357-0.885,3.212
								c1.422-3.309,0.054,2.173,1.178,0.006l1.803-5.627c1.439-2.282,0.145,3.266,1.396,2.132l-0.583,0.884
								c-0.648,2.262,0.376,0.48,0.321,1.471c0.619-1.876,1.011-2.496,1.525-3.619c-0.495,1.378,0.632,0.082-0.608,3.825
								l1.218-2.327c1.005-0.772-1.182,5.55-0.367,5.127c0.56-2.078,1.319-3.293,1.437-4.881c0.212,0.055,0.522-0.218,0.051,1.068
								c0.552-1.117-0.364,2.692,0.477,1.002c-0.219,0.842-0.921,2.787-0.642,2.712c0.167-0.366,0.345-0.914,0.345-0.914
								c-0.344,0.914-0.124,1.366-1.094,3.339c1.394-2.768,1.796-2.52,2.124-2.148c0.329,0.379,0.598,0.851,1.848-1.49
								c0.184,0.796,0.457,1.602,0.787,1.899c0.202-0.556,0.376-0.909,0.224-0.751c1.247-1.465-1.857,5.368-0.473,3.73
								c1.553-2.807,0.354-1.725,1.017-2.756c2.624-5.944,0.387,1.128,2.298-2.179l0.051-0.395c1.206-1.885-0.205,2.588,0.49,2.38
								c0,0,0.208-0.535,0.397-0.897c-0.995,3.177-0.802,4.45-0.709,5.49c0.915-2.372,0.342-1.316,1.516-3.622
								c0.064,0.43-1.792,3.731-1.681,4.592c0.72-1.195,1.538-2.146,2.752-4.62l-0.345-0.337c1.718-3.128,0.48,0.375,0.956-0.081
								l0.638-1.422c0.421,0.773-1.271,4.318-0.492,4.393l-0.583,1.027c-1.352,3.674,1.261-1.815,0.344,0.96l1.857-3.485
								c-0.176,0.976-0.862,3.834-0.784,4.702c1.09-2.727,1.256-4.317,1.711-6.032c0.256,0.095,0.697,0.672-0.061,2.472
								c0.077-0.388,0.39-1.312,0.021-0.817c-1.1,2.919-1.424,4.463-0.932,4.632c3.432-6.837,2.105-1.104,5.244-6.179
								c-0.491,2.939,2.243-0.116,3.025,0.848c-3.266,4.987,0.203,0.311-2.87,5.599c0.027,0.463,0.159,0.424,0.375,0.092l2.491-2.78
								c1.054-1.447,0.459-1.291,1.164-2.468c0.738-0.116,1.506-2.122,2.664-3.331c-1.168,1.851-1.399,2.809-0.688,2.255l-1.829,2.2
								c-0.957,3.205,3.211-4.071,2.285-0.885l0.759-1.783c-0.216,1.187,1.398,0.765-0.823,5.153
								c0.433-0.564,1.396-1.938,1.467-2.408c1.261-0.073-0.929,5.636,1.339,3.504l0.748-1.296c-0.077,0.467-1.259,2.536-0.244,1.4
								c0.328-0.524,0.752-1.291,0.872-1.317c-0.196,0.487-1.022,2.463-0.339,1.87l0.749-1.521c1.908-1.087-1.017,4.236-0.947,5.511
								c2.475-3.64,3.93-4.393,4.663-4.762l0.344-0.519c1.288,0.195-0.517,4.136-0.708,6.131c3.339-3.47,2.942-0.302,5.407-1.802
								c-0.615,0.537-2.065,2.739-2.188,3.198c0.743-0.56-1.336,2.815,1.108-0.396l-0.116,0.007c2.576-3.018,2.346-1.875,2.73-1.72
								l-3.22,4.184c2.794-2.72,2.869-1.698,2.833-0.687c-0.036,1.022-0.201,2.068,2.213-0.396
								c-0.653,1.177-0.408,1.364-1.069,2.531l1.812-2.177c0.997-0.105,1.499-0.145,1.718,0.923l1.187-1.646
								c0.505,0.181-4.877,6.566-4.665,6.963l2.886-3.093c0.591,0.571,3.727-1.614,1.744,1.808c0.408-0.467,1.212-1.387,1.228-1.607
								c0.358,0.188,3.068-1.035-0.985,3.116c2.577-2.761,0.883,0.33,0.054,1.838l1.864-2.071c-2.172,2.847-2.838,3.557-3.148,4.624
								c0.34-0.179,1.623-1.536,1.011-1.134c1.31-0.77-1.6,2.12-0.214,1.39l1.104-1.406c0.456,0.137-0.232,0.8-1.516,2.442
								c-0.595,0.978,1.059,0.037,2.879-1.708c-1.038,1.132-2.322,2.747-1.632,2.399c0.697-0.651,1.049-1.131,1.219-1.367
								c1.864-0.855-1.556,3.008,0.718,1.438c0.666-0.639,1.017-0.939,1.243-1.104c-0.432-0.366-0.853-0.586-0.971-0.408
								c1.823-1.818,2.468-1.794,4.728-4.563c-1.104,1.646-3.681,5.053-2.512,4.532c0.194-0.158,0.383-0.312,0.678-0.576
								l0.175-0.234c0.255-0.103,0.148,0.132-0.103,0.497c0.402-0.189,0.69-0.338,0.811-0.263c1.57-1.435,1.196-0.402,1.429-0.303
								c-2.049,1.923-1.519,1.829-3.391,3.223c0.168-0.11,0.213-0.261,0.195-0.452c0.037-0.082,0.039-0.14,0.144-0.271
								c-0.052,0.056-0.111,0.12-0.168,0.181c-0.043-0.164-0.13-0.35-0.25-0.542c-0.905,1.123-1.649,2.085-0.351,1.189
								c-1.197,1.305-2.45,2.67-3.076,3.353c3.045-2.484,5.002-3.495,6.828-5.082c-0.673,1.589,0.38,1.93-3.242,5.788
								c-0.373,0.595,1.274-0.854,1.94-1.356c0.316-0.438,0.165-0.481,0.686-1.036c-0.737,1.195,0.405,1.207-2.291,3.724
								c1.577-0.75,2.352-2.456,2.36-1.563l0.783-0.813c2.658-1.448,1.241,0.551-0.03,2.37c-1.266,1.832-2.402,3.494,0.965,1.625
								c-0.421,0.219-0.618,0.318-1.104,0.699c1.81-0.433,1.764,0.738,1.885,1.728c0.118,1.003,0.443,1.794,3.01,0.855
								c1.125-0.271-0.71,1.208-1.969,2.521l2.461-1.75l-2.488,2.497c-1.651,2.061,6.649-3.466,3.293,0.114l-1.708,1.11
								c0.497,0.024-0.391,1.493,1.476,0.083c-0.282,0.244-1.656,1.318-0.724,0.796l1.289-0.914l-1.752,2.188
								c1.283-0.183,5.061-3.703,5.842-3.158c-0.296,0.624-3.222,3.382-4.167,3.881c-0.141-0.061-1.006,0.296-2.31,1.191
								l-0.507,0.699c-3.795,2.695-7.611,5.549-10.656,6.898l2.07-1.987l-1.932,1.184l0.104,0.378
								c-1.866,1.052-0.403-0.131,0.562-0.998c-1.002,0.664-1.725,1.1-2.141,1.289l3.368-2.927c-1.515,1.019-2.829,2.255-3.817,2.61
								c1.559-1.366,3.439-2.217,4.34-3.283c-1.848,1.059-3.207,2.121-1.891,0.862c-0.992,0.674-1.58,1.165-1.95,1.551
								c1.036-1.018,0.15-0.821,2.081-2.375c-2.239,1.366,0.099-1.011-3.431,1.627c0.809-0.681,2.549-2.374,2.572-2.652
								c-4.003,3.462-0.7-0.429-5.151,3.064c3.62-3.084,1.106-2.056,2.901-4.058c-0.28,0.253-0.852,0.765-0.636,0.651
								c-0.469,0.02-1.645,0.839-2.461,1.263c3.062-2.444,3.491-3.327,5.23-5.014c-3.177,2.093-3.468,3.021-6.383,5.195
								c2.5-1.959,2.115-2.414,4.251-3.979c-1.99,1.265-1.029,0.538-3.642,2.474c3.786-3.109,0.495-0.699,2.697-2.757
								c-2.111,1.237-3.619,2.826-2.72,1.574C249.16,93.237,248.04,94.604,248.04,94.604z M247.986,81.8
								c-0.02,0.019-0.033,0.032-0.041,0.039c0.011,0.109,0.021,0.201,0.026,0.261C247.971,82.042,247.971,81.959,247.986,81.8z
								 M247.447,81.157c0.147-0.002,0.248,0.077,0.326,0.189c0.714-0.659,1.405-1.381,1.31-1.408
								C248.652,80.425,248.115,80.672,247.447,81.157z M262.727,68.982c0.181-0.388-0.252-0.044-0.683,0.339
								c0.015,0.087,0.004,0.215-0.059,0.43c-0.069,0.074-0.158,0.168-0.236,0.251C262.127,69.62,262.479,69.26,262.727,68.982z"/>
							<path fill="#202020" d="M260.25,71.729c-0.031,0.06-0.108,0.149-0.106,0.187c-0.187,0.134-0.357,0.256-0.519,0.371
								c0.204-0.22,0.407-0.439,0.601-0.647C260.232,71.671,260.246,71.697,260.25,71.729z"/>
							<path fill="#202020" d="M184.378,36.869l0.028-0.06c-0.032,0.109-0.063,0.215-0.098,0.39
								C184.341,37.044,184.354,36.985,184.378,36.869z"/>
							<polygon fill="#202020" points="235.469,77.521 235.921,76.977 235.579,77.5 							"/>
							<path fill="#202020" d="M178.336,45.838c-0.035,0.244-0.079,0.498-0.136,0.71C178.222,46.365,178.275,46.112,178.336,45.838z
								"/>
							<path fill="#202020" d="M176.264,46.276l-0.368,0.971C176.065,46.691,176.178,46.43,176.264,46.276z"/>
							<path fill="#202020" d="M174.619,47.52c0.025-0.517,0.042-0.872,0.058-1.203c0.002-0.009,0.003-0.013,0.004-0.022
								L174.619,47.52z"/>
							<path fill="#202020" d="M197.566,55.056c0.015,0.02,0.023,0.06,0.019,0.138C197.559,55.752,197.533,55.521,197.566,55.056z"
								/>
							<path fill="#202020" d="M192.224,46.88c-0.036,0.515-0.072,1.02-0.063,1.347C191.985,48.408,191.874,48.441,192.224,46.88z"
								/>
							<path fill="#202020" d="M203.821,60.699c0.006-0.018,0.008-0.022,0.016-0.046c0.012,0.015,0.029,0.011,0.044,0.016
								L203.821,60.699z"/>
							<path fill="#202020" d="M192.506,48.253c-0.254,0.516-0.333,0.376-0.345-0.026C192.308,48.067,192.497,47.813,192.506,48.253
								z"/>
							<path fill="#202020" d="M167.967,48.509l-0.075,0.115c0-0.182-0.001-0.325-0.001-0.452L167.967,48.509z"/>
							<path fill="#202020" d="M167.891,48.172l-0.077-0.335C167.852,47.839,167.884,47.862,167.891,48.172z"/>
							<path fill="#202020" d="M167.652,47.124l0.162,0.713C167.755,47.843,167.681,47.929,167.652,47.124z"/>
							<path fill="#202020" d="M170.016,47.275l-0.012,1.021C169.999,48.085,170.002,47.756,170.016,47.275z"/>
							<path fill="#202020" d="M170.621,47.589c-0.157,0.227-0.446,2.163-0.625,1.517l0.008-0.811
								C170.044,49.814,170.544,45.867,170.621,47.589z"/>
							<path fill="#202020" d="M173.956,35.09l-0.617,0.795c0.16-1.082,0.379-2.535,0.13-2.804
								C174.388,29.871,173.18,35.501,173.956,35.09z"/>
							<path fill="#202020" d="M175.839,33.672c-0.273-0.533,0.121-1.573,0.151-2.185C176.116,32.492,176.142,32.747,175.839,33.672
								z"/>
							<path fill="#202020" d="M188.701,35.283l0.417-2.524C189.294,33.16,188.946,33.735,188.701,35.283z"/>
							<polygon fill="#202020" points="188.568,48.701 188.058,50.214 188.412,47.893 							"/>
							<polygon fill="#202020" points="193.597,31.156 193.566,30.774 193.78,31.771 							"/>
							<path fill="#202020" d="M214.923,38.5l-1.231,2.9C213.75,40.811,215.019,37.504,214.923,38.5z"/>
							<path fill="#202020" d="M222.39,45.327c0.779-1.371,1.469-2.159,0.936-0.696C223.037,44.73,222.309,45.739,222.39,45.327z"/>
							<polygon fill="#202020" points="249.581,56.381 250.082,55.431 249.825,56.356 							"/>
						</g>
					</g>
				</g>
			</g>
		</g>
		<g>
			<g>
				<g>
					<g>
						<g>
							<path fill="#202020" d="M222.569,27.827c-0.1-0.974,0.922-2.672,1.916-1.803l-0.515,3.396L222.569,27.827z"/>
							<path fill="#202020" d="M232.848,25.823c0.671,2.104,0.881,5.377-1.352,7.647c0.147-3.469-0.755-2.432-0.521-6.534
								c-0.985-0.912-2.451-0.021-2.774,1.182c-0.052-0.953-2.08-0.129-1.852-2.302c1.275-0.834,2.422-1.056,3.384-0.713
								c0.947,0.373,1.708,1.307,2.224,2.736C232.704,27.394,232.677,26.418,232.848,25.823z"/>
							<path fill="#202020" d="M316.417,118.533l-0.612-0.698C316.077,117.994,316.272,118.238,316.417,118.533z"/>
							<path fill="#202020" d="M319.848,198.933c0.216-0.589,0.595-0.768,0.895-0.73
								C320.401,198.72,320.097,199.135,319.848,198.933z"/>
							<path fill="#202020" d="M319.434,213.517c-0.001-0.323,0.037-0.582,0.057-0.869
								C319.677,213.048,319.733,213.41,319.434,213.517z"/>
							<path fill="#202020" d="M316.417,118.533l1.605,1.804C317.022,120.765,316.94,119.48,316.417,118.533z"/>
							<path fill="#202020" d="M243.648,41.111c-0.262-0.356-0.388-0.8-0.442-1.309c0.213,0.303,0.428,0.581,0.669,0.837
								C243.793,40.801,243.723,40.938,243.648,41.111z"/>
							<path fill="#202020" d="M305.134,84.356l-0.318-0.588c0.233-0.356,0.542-0.742,0.903-1.148L305.134,84.356z"/>
							<path fill="#202020" d="M289.956,61.012c0.495,0.415-1.557,2.345-2.368,3.294c0.684-0.993,0.822-1.697,0.646-2.258
								C288.642,61.703,289.188,61.362,289.956,61.012z"/>
							<path fill="#202020" d="M254.862,34.934l-0.405-0.751C254.552,34.396,254.763,34.676,254.862,34.934z"/>
							<path fill="#202020" d="M314.271,102.104c0.405-0.112,0.784-0.155,1.031-0.138
								C314.974,102.097,314.625,102.128,314.271,102.104z"/>
							<path fill="#202020" d="M138.18,25.772c-0.06-0.192-0.058-0.323-0.099-0.491C138.277,25.535,138.36,25.723,138.18,25.772z"/>
							<path fill="#202020" d="M166.111,9.032l-0.429-0.14c-0.047-0.531-0.097-1.052-0.099-1.573L166.111,9.032z"/>
							<path fill="#202020" d="M312.31,239.221c-0.004-0.062,0.004-0.077,0.007-0.132
								C312.921,238.613,312.689,238.941,312.31,239.221z"/>
							<path fill="#202020" d="M102.532,312.445c1.768-0.664,1.019-1.781,0.516-2.952c-0.518-1.156-0.832-2.26,1.536-2.719
								C103.763,307.661,106.324,312.185,102.532,312.445z"/>
							<path fill="#202020" d="M244.399,41.149c0.27,0.208,0.55,0.41,0.847,0.588C244.813,41.542,244.545,41.373,244.399,41.149z"/>
							<path fill="#202020" d="M104.584,306.774c0.004-0.012,0.009-0.022,0.009-0.022l0.479-0.078
								C104.871,306.714,104.756,306.738,104.584,306.774z"/>
							<path fill="#202020" d="M273.041,285.833c-0.229-0.457-0.293-0.899-0.339-1.335
								C272.876,284.729,273.002,285.084,273.041,285.833z"/>
							<path fill="#202020" d="M299.555,249.608l-0.279,1.131C299.297,250.23,299.414,249.885,299.555,249.608z"/>
							<path fill="#202020" d="M252.022,296.586c-0.386,0.503-0.351,0.941-1.238,1.063c-0.013-0.162-0.003-0.288,0.025-0.425
								C251.262,297.393,251.69,297.33,252.022,296.586z"/>
							<path fill="#202020" d="M230.943,307.929c0.029-0.249,0.115-0.465,0.171-0.699c0.235-0.055,0.51-0.118,0.752-0.175
								L230.943,307.929z"/>
							<path fill="#202020" d="M80.549,50.915c-0.124-0.909-0.427-1.78-0.773-2.605C80.741,50.092,83.589,48.753,80.549,50.915z"/>
							<path fill="#202020" d="M244.516,39.791c-0.278,0.665-0.313,1.056-0.117,1.359c-0.191-0.159-0.362-0.333-0.523-0.51
								C244.049,40.255,244.252,39.915,244.516,39.791z"/>
							<path fill="#202020" d="M239.36,278.364c0,0-0.635,0.532-1.27,1.064c-0.315,0.271-0.637,0.532-0.888,0.713
								c-0.247,0.187-0.412,0.311-0.412,0.311C237.461,279.783,238.373,278.993,239.36,278.364z"/>
							<path fill="#202020" d="M27.689,184.437l0.197-0.808C28.001,183.91,27.97,184.189,27.689,184.437z"/>
							<path fill="#202020" d="M228.053,284.775c-0.073,1.151-0.374,1.954-0.786,2.59c-0.219-0.135-0.438-0.226-0.66-0.476
								L228.053,284.775z"/>
							<path fill="#202020" d="M79.763,48.28c0.002,0.014,0.014,0.029,0.014,0.029S79.765,48.294,79.763,48.28z"/>
							<path fill="#202020" d="M101.674,41.993c-2.642,1.588-3.02-2.439-4.636-3.963c-3.846,1.007-0.175,3.243-0.323,5.507
								c-1.258,0.145-2.711-0.268-4.018-0.535c-1.315-0.285-2.515-0.479-3.226,0.063c0.219,0.581,0.052,0.952,0.807,1.374
								c-0.926-0.279-1.792-0.17-2.637,0.123c-0.838,0.304-1.623,0.841-2.448,1.341c-1.631,1.034-3.412,1.926-5.681,1.409
								c0.024,0.398,0.125,0.713,0.25,0.969c-0.745-1.767-1.818-3.316-2.708-4.318c-1.209,0.872-3.638-0.105-2.583,2.137
								c0.68-0.625,1.342,0.093,2.142,0.424l-1.876,0.141c1.068,3.577,2.416-0.372,3.989,1.66c-1.513,0.474-3.415,0.69-5.1,1.085
								c-1.638,0.447-3.064,1.059-3.621,2.191c1.881,2.865,4.804-2.659,4.458,1.642c0,0,0.454-0.825,0.907-1.649
								c0.486-0.797,0.972-1.595,0.972-1.595c1.282,5.807,1.418-1.589,3.113,4.368c-0.737,0.867-1.378,1.454-2.005,1.871
								c-0.629,0.414-1.242,0.66-1.857,0.908c-0.615,0.248-1.232,0.497-1.868,0.915c-0.317,0.21-0.642,0.458-0.966,0.775
								c-0.313,0.331-0.629,0.726-0.95,1.204c-2.025-0.674-1.654-2.278-3.695-2.942c-3.556,1.064-3.054,3.481-2.331,5.661
								c0.684,2.174,1.478,4.028-1.796,4.184c-2.507-0.677-6.039-3.152-6.599,0.979l3.662,1.637
								c-2.546,3.569-5.954-1.696-6.845,3.644c1.7,0.278,3.149-1.959,3.089-1.142c0.514,4.263-3.002,0.303-4.46,2.161l2.4,2.449
								c-0.413,0.42-0.861,0.823-1.321,1.227c-0.442,0.418-0.907,0.829-1.389,1.237c-0.964,0.816-1.998,1.621-3.05,2.445
								c-2.09,1.655-4.09,3.51-5.812,5.57c1.024,0.274,2.412,0.084,2.642,1.65c-2.34,2.41-4.113,5.487-5.115,8.871
								c-1.147,3.317-1.526,6.917-1.897,10.125c0,0-0.906,0.259-1.799,0.538c-0.899,0.283-1.798,0.566-1.798,0.566
								c-0.175,0.539,0.851,1.458,1.6,1.109c0.143,2.677-1.775-0.569-3.284,0.112c-0.713,1.25,0.894,2.329,2.042,1.821
								c-0.488,0.391-1.005,0.835-1.534,1.327c-0.515,0.497-1.007,1.053-1.511,1.642c-0.999,1.18-1.973,2.516-2.786,3.923
								c-0.781,1.417-1.319,2.929-1.608,4.396c-0.27,1.473-0.291,2.9,0.246,4.223l1.045-0.662c0.181,1.882-1.506,2.504-3.008,3.185
								c-1.485,0.675-2.85,1.398-1.825,3.338l0.623-0.536c-0.032,2.01-0.317,4.011-0.678,6c-0.374,1.986-0.617,3.991-0.872,5.935
								c-0.102,0.975-0.229,1.932-0.213,2.882c0.011,0.949,0.068,1.879,0.196,2.783c0.278,1.809,0.738,3.507,1.831,5.036
								c-2.125,0.469-1.703,2.444-1.488,4.302c0.176,1.862,0.309,3.623-2.634,3.922c1.52,2.251,2.532,3.006,3.43,3.995
								c0.868,0.983,1.726,2.191,2.944,5.182c0.197,0.807-0.675,1.493-1.652,2.258c-0.991,0.765-2.052,1.604-2.212,2.675
								l3.071-0.292c0,0-0.715,0.787-1.43,1.573c-0.713,0.803-1.427,1.605-1.427,1.605l3.839,0.98c0,0-0.136,0.504-0.272,1.008
								c-0.148,0.507-0.243,1.008-0.242,1.008c-0.333-0.72-1.588-1.413-2.464-1.169c-0.522,1.621,0.414,3.377,1.544,4.674
								c1.154,1.298,2.6,2.124,3.38,2.004c0,0-0.102,0.468-0.18,1.159c-0.089,0.698-0.208,1.629-0.327,2.56
								c-0.235,1.89-0.47,3.779-0.47,3.779c1.167-0.461,1.313-1.724,1.875-2.813c-1.107,2.203-0.278,2.189,0.568,2.105
								c0.852-0.076,1.691-0.209,0.778,1.803c-0.801-0.264-1.705,0.715-2.284,0.956c2.279,1.192,3.297,4.924,3.56,7.913l1.838-1.202
								c0.545,1.183,0.965,2.44,1.339,3.747c0.434,1.285,0.809,2.624,1.176,3.993c0.667,2.764,1.633,5.521,2.82,8.198
								c-1.753-1.49-4.914,0.466-4.497,2.254l3.23-0.771c-1.301,1.895-1.928-1.12-3.093,2.052c1.377,1.862,4.001-0.314,4.383-1.896
								l0.213,2.896c0.936-0.305,1.106-1.099,2.139-1.802c-0.655,0.941,0.597,1.595,1.695,2.361c1.075,0.785,2.14,1.605,0.981,3.157
								l0.917-0.349c0.727,1.251,1.291,2.367,1.765,3.406c0.5,1.023,0.948,1.946,1.35,2.861c0.819,1.82,1.508,3.586,2.857,5.547
								c-2.249,1.69-0.651,2.86-1.641,5.396c1.407,1.206,3.247,2.185,4.941,3.35c1.676,1.186,3.432,2.374,4.727,4.071
								c0.917,3.202-1.208,2.242-1.556,4.396c2.039-1.516,4.834,1.724,4.639-1.134c3.221,4.018,4.118,5.043,7.56,11.016
								c-1.238,0.316-2.162,0.12-2.43,1.044c0.642,1.111,2.799,1.004,3.473-0.04l-0.065-0.405c1.496,3.925,6.118,5.189,10.311,6.24
								c2.14,0.489,4.175,0.969,5.779,1.807c1.658,0.764,2.88,1.898,3.388,3.813l-0.132-0.398c0,0,0.223,0.351,0.558,0.876
								c0.334,0.529,0.784,1.236,1.269,1.898c0.966,1.357,1.932,2.715,1.932,2.715c2.638,1.011-0.492-2.504,2.072-2.854
								c0.433,0.865,0.906,1.591,1.407,2.204c0.511,0.595,1.062,1.054,1.618,1.447c1.117,0.782,2.288,1.246,3.438,1.65
								c2.318,0.798,4.606,1.184,6.474,3.623c1.691-1.309,3.365-1.671,5.014-1.415c1.651,0.249,3.298,1.087,5.027,1.879
								c1.721,0.804,3.438,1.819,5.201,2.258c1.756,0.456,3.491,0.535,5.107-0.256l-0.761,1.634
								c0.928,2.097,1.927-0.545,3.028-0.704c-0.47,1.31-1.893,1.206-1.261,2.343c2.839,1.189,5.84,2.075,8.968,2.389
								c1.561,0.169,3.121,0.373,4.715,0.35c1.591-0.003,3.186-0.053,4.777-0.13c1.587-0.036,3.192-0.303,4.775-0.48
								c1.588-0.225,3.158-0.349,4.727-0.658c3.136-0.575,6.213-1.013,9.236-1.566c2.204-0.294,2.924,1.993,3.813,3.802
								c0.874,1.787,1.955,3.05,4.688,0.717l-1.873-3.17c2.328,0.817,4.694,1.164,7.021,1.041c2.334-0.07,4.661-0.362,6.936-0.881
								c2.286-0.464,4.563-0.908,6.827-1.333c2.277-0.373,4.594-0.486,6.984-0.347c-0.723-0.586-0.997-1.539-1.833-1.287
								c1.172-2.833,6.647-1.992,7.297-0.23c1.266-0.665-0.236-1.789,0.263-3.011c1.294-1.942,5.537,1.394,5.639-1.272
								c0.02-0.428-0.769-0.533-1.152-0.58c1.551,0.631,5.203-2.373,5.153,0.622c1.339-1.194,2.9-1.628,4.415-2.006
								c1.498-0.404,2.955-0.747,3.791-2.109c1.463,0.986,2.607-0.02,3.667-0.802c1.061-0.791,2.067-1.333,3.357,0.425
								c-1.187-1.926-0.344-3.468,1.149-4.421c1.5-0.945,3.679-1.333,5.135-1.049c-1.325-0.773,0.811-2.208-0.908-3.353
								c2.051-1.243,4.39-1.735,5.336,0.4c0.313-3.551,2.73-3.934,4.929-4.394c2.119-0.53,4-1.109,2.813-4.586
								c1.822-0.604,3.476-1.395,5.151-2.145c0.829-0.392,1.652-0.779,2.468-1.165c0.812-0.397,1.567-0.854,2.341-1.288
								c1.526-0.889,3.054-1.767,4.487-2.731c1.409-0.988,2.788-1.999,4.139-3.031c-1.744-1.44-3.081-0.202-4.39,0.972
								c-1.286,1.199-2.654,2.217-4.202,0.431c1.458-0.701,2.795-1.317,4.138-1.835c1.336-0.523,2.641-0.988,3.887-1.522
								c1.217-0.561,2.345-1.221,3.397-2.063c1.029-0.86,2.041-1.857,2.78-3.28c0.51-1.671-2.069-0.491-3.024-0.596
								c1.349-0.897,2.432-1.999,3.441-3.127c1.008-1.13,1.905-2.317,2.717-3.539c0.836-1.204,1.676-2.377,2.637-3.448
								c0.953-1.076,1.938-2.111,3.222-2.952c-0.363-0.213-1.074,0.048-1.668,0.337c0.717-0.845,0.816-2.491,2.482-1.304
								l-1.049,0.609c0.779,1.543,2.675,1.463,4.592,1.025c1.94-0.415,3.78-1.254,4.51-0.944c-6.013-1.328,1.564-5.691-6.403-6.729
								c0.694-0.43,1.997-0.746,3.115,0.063c0.194-1.14-0.345-1.808-2.253-1.619c2.847-2.908,4.085-0.699,5.713-3.934
								c-0.896-0.43-1.571,0.047-2.78-0.152c1.273-0.365,2.559-0.75,3.607-1.438c1-0.708,1.759-1.725,2.009-3.299
								c-0.622-0.077-1.187-0.718-1.546,0.115c0.605-1.16,1.434-2.118,2.351-3.009c0.878-0.906,1.817-1.757,2.721-2.652
								c0.899-0.897,1.748-1.848,2.397-2.956c0.606-1.124,0.979-2.421,1.009-3.958c-4.635,0.248-0.709-2.332-4.169-3.748
								c0,0,0.127-0.16,0.319-0.398c0.197-0.237,0.444-0.56,0.675-0.889c0.475-0.657,0.949-1.313,0.949-1.313l1.398,1.712
								c0.339-1.317,1.326-2.365,2.167-3.425c0.836-1.059,1.557-2.123,1.202-3.429c0,0-0.487,0.402-0.974,0.805
								c-0.49,0.399-1.011,0.784-1.011,0.784s0.13-0.295,0.325-0.738c0.171-0.45,0.4-1.051,0.629-1.651
								c0.459-1.206,0.918-2.412,0.918-2.412l0.725,3.164c2.5-2.286,4.523,1.407,4.354-2.491c-0.554,0.667,0.64-2.777-1.327-4.637
								c0,0-0.001,0.009-0.011,0.007c1.409-1.128,2.897-2.345,2.349-4.548c-1.085-0.711-4.153-0.222-4.878-0.688
								c1.69-0.404,2.076-1.984,2.533-3.599c0.449-1.619,0.931-3.278,2.695-3.969c-0.85,0.494-2.803,0.313-3.175,0.087
								c0,0,0.663-0.215,1.327-0.431c0.652-0.222,1.304-0.443,1.304-0.443c-0.71-1.366-1.088-1.58-2.66-1.512
								c-0.173-3.859,4.626,1.615,2.94-3.134c-0.232,0.348-0.597,0.151-1.039,0.872c-0.184-1.167-0.11-2.292,0.028-3.4
								c0.108-1.11,0.331-2.203,0.548-3.288c0.437-2.168,0.871-4.323,0.167-6.438c-3.781-1.175-0.849,3.681-4.045,2.279
								c0.14-1.487,0.478-3.008,0.89-4.557c0.418-1.548,0.794-3.12,1.186-4.701c0.401-1.582,0.653-3.163,0.75-4.715
								c0.103-1.552,0.039-3.075-0.399-4.506l0.558,1.042c2.579-0.719,1.778-1.765,0.601-2.995c-0.593-0.616-1.264-1.28-1.687-1.991
								c-0.436-0.71-0.593-1.47-0.104-2.312c-0.263,0.79-2.743,1.421-2.193,1.134c-0.754-1.893-0.758-3.942-0.638-6.319
								c0.192-2.391,0.482-5.099,0.538-8.302l-1.135,1.086c-0.849-1.003-1.496-2.433-2.019-3.922
								c-0.271-0.742-0.51-1.499-0.792-2.202c-0.293-0.699-0.599-1.354-0.946-1.909c1.056-1.139,0.383-2.473,2.54-2.257
								c-4.937-2.52-5.282-6.239-5.616-10.109c-0.14-1.93-0.366-3.825-1.022-5.507c-0.667-1.674-1.942-3.051-4.148-3.876
								c0.364,0.757-0.169,2.314-0.466,1.724c0,0-0.096-0.365-0.241-0.913c-0.149-0.546-0.326-1.289-0.557-2.005
								c-0.442-1.451-0.884-2.902-0.884-2.902c2.246-0.709,1.598,0.002,3.792,0.257c0.832-1.321,0.93-3.375,0.172-4.71
								c0.019,3.178-3.218,1.793-4.94,1.48c0.711-0.19,1.179-0.93,1.85-1.21c-5.164-0.588,3.744-2.872-0.94-5.157l-0.899,0.843
								c-0.362-1.688,0.165-3.854-1.113-5.144c-2.615,0.89-0.065,2.148-1.852,3.459c-0.583-1.073-0.227-2.767-0.167-4.264
								c0.065-1.494-0.153-2.8-1.885-2.928c0.012,1.292,0.859,2.54,0.854,3.814c-3.97-0.162-3.412-0.858-4.896-1.972l0.162,0.096
								l-3.58-2.379l1.293,0.303c1.874-3.347,1.075-4.759,0.028-6.094c-1.045-1.356-2.465-2.516-2.136-5.608
								c-0.578,5.9-1.444,2.145-3.508,4.388c-1.316-0.228-3.038-0.767-3.378,0.138c0.516-3.055-3.531-0.968-2.789-5.379
								c-0.78,0.596-1.514-1.362-2.941,0.669c-1.193-2.259,1.605-0.798,2.333-1.798c-0.179-2.529-2.508-3.431-4.908-4.433
								c-2.365-1.069-4.82-2.186-5.456-5.736c-1.268-2.205-1.577-4.121-1.915-5.982c-0.359-1.834-0.727-3.639-2.109-5.681
								c-1.092,0.189-1.337,1.095-1.329,1.954c0.005,0.866,0.269,1.681,0.269,1.681c-2.811-0.307-4.183-1.479-5.467-3.739
								c-0.083,0.977-0.875,1.29-2.063,1.841c-1.398-1.186,0.878-3.646-1.953-3.738c-0.217,1.149-0.689,2.911-0.541,4.296
								c-0.659-0.942-1.186-2.104-1.759-3.239c-0.58-1.122-1.184-2.257-1.938-3.206c-1.356,1.175-0.122,2.915-0.023,4.255
								c-0.875-0.943-2.055-2.109-2.978-3.331c-0.929-1.207-1.572-2.535-1.291-3.91l1.896-0.072
								c-0.761-0.558-1.515,1.809-1.157,2.557c0.877,2.838,3.153,0.711,3.766-0.084l-1.087-1.358
								c2.115-2.079,3.455-1.029,4.584,0.676c1.146,1.695,1.978,4.162,3.443,4.871l1.091-4.233c0,0,0.251,1.181,0.502,2.361
								c0.251,1.165,0.451,2.369,0.451,2.369c1.184-0.5,2.909-2.135,1.889-3.589c3.138-0.339,0.913,2.419,3.923,1.703
								c0.394-0.162,0.424-0.384,0.343-0.638c0,0,0.316,0.58,0.611,1.182c0.292,0.601,0.584,1.202,0.584,1.202
								c0.141-0.983,2.044-2.142,0.514-2.526c2.426,0.302,3.374,1.971,4.066,3.341c0.671,1.411,1.115,2.521,2.73,1.794l-0.12-0.424
								c1.894,2.396,1.491,3.083,0.798,3.855c-0.698,0.766-1.684,1.644-1.216,4.404c0,0,1.781-0.953,3.563-1.906
								c1.809-0.929,3.617-1.859,3.617-1.859l-1.594,2.669c0.519,0.328,1.555,0.971,2.215-0.081
								c0.253,3.074-1.177,0.721-1.551,3.059c1.001-0.023,1.819,0.369,2.536,0.915c0.706,0.56,1.292,1.292,1.883,1.917
								c1.171,1.26,2.343,2.113,4.305,0.678c-0.942,2.362-3.215-0.748-2.225,2.604c2.183-1.497,2.65-0.674,2.997,0.538
								c0.351,1.216,0.578,2.799,2.333,3.012c1.488-2.417-1.307-3.376,2.295-2.968c-1.158,2.143-0.121,2.947,1.339,3.537
								c1.475,0.57,3.293,1.006,3.69,2.171c-1.374,1.192-0.885,2.383,0.117,3.75c0.958,1.399,2.456,2.98,3.096,4.862
								c0.423-0.457,1.855,0.715,3.584,2.293c1.744,1.566,3.629,3.644,5.185,4.797l0.459-0.414
								c-2.744,2.545-0.252,5.292,0.396,7.989c1.854-1.168,2.411-2.036,2.495-3.79c0,0,0.332,0.547,0.641,1.107
								c0.305,0.563,0.61,1.125,0.61,1.125c-0.735,1.105-0.896,2.098-0.477,3.732l2.107-1.863c0.78,1.523,0.818,3.445,1.14,5.324
								c0.346,1.874,0.866,3.754,2.602,5.358c-1.117,0.637-3.098,0.594-4.748,1.017c-1.652,0.418-2.98,1.289-2.854,3.613
								c1.332-0.417,3.569-1.219,3.596-2.519c-0.005,0.427-0.471,1.704,0.371,2.176c0,0,0.352-0.643,0.704-1.286
								c0.344-0.646,0.688-1.293,0.688-1.293c1.747,1.364-1.341,1.707-0.549,3.043c1.803-0.808,1.737,0.51,3.096-0.305
								c0.02-0.448-1.277-0.943-0.796-1.807c1.004,1.492,2.911,3.031,4.576,3.146c-1.106,0.275-2.458,0.991-2.216,2.29
								c1.04,3.201,2.62,0.226,4.265,1.739c-0.996,1.246,1.104,2.813-1.688,3.844c0.323,0.93,1.685,0.66,2.565,0.771
								c-0.353,1.051,0.246,3.017,0.375,4.634c0.134,1.618-0.089,2.831-1.869,2.331l-0.323-0.367
								c-0.035,0.097-0.01,0.191-0.045,0.308c-0.004-0.014,0,0-0.004-0.014l0.004,0.014c-0.58,3.112,0.507,5.796,1.822,8.498
								c0.643,1.35,1.277,2.712,1.789,4.09c0.522,1.375,0.827,2.787,0.745,4.23l0.97-0.181c-0.486,3.501,0.47,7.538-1.347,10.136
								c0.095,0.97,2.015,2.13,3.144,1.596c-0.505,2.653-1.526,2.985,0.29,6.6c1.572-2.705,1.575,0.809,1.107-2.748
								c0.522,1.655,1.189,2.662,1.414,3.728c0.231,1.063,0.018,2.195-1.314,4.044c2.505-1.321,3.238,2.506,2.506,4.143
								l-1.852-2.374c-0.173,0.908-0.176,1.754-0.148,2.576c0.017,0.822,0.107,1.619,0.195,2.425l3.349-0.832
								c1.93,3.58,0.181,6.789-1.484,9.623c-0.801,1.429-1.511,2.788-1.626,4.163c-0.117,1.377,0.253,2.762,1.779,4.305
								c-2.541,1.551-1.149-3.974-4.063-2.627c0.041,3.148,4.392,7.174,4.195,8.211c0.518,2.359-0.867,3.2-2.319,4.007
								c-0.727,0.405-1.471,0.808-2.007,1.403c-0.526,0.598-0.862,1.384-0.826,2.565c-1.024-0.83-4.012-1.97-5.846,1.009
								c-0.261,3.092,3.966,4.951,5.349,3.196c0.271-0.729-0.014-1.177-0.411-1.237c0.652-0.905,1.456-2.133,2.424-0.602
								l-1.251,0.144c0.411,0.915,0.333,2.454,0.417,3.699c0.086,1.245,0.252,2.18,1.35,1.923c-1.768,2.092-2.165,0.501-2.271-1.388
								c0.269,2.212-0.166,3.792-0.669,5.354c-0.253,0.781-0.52,1.562-0.736,2.423c-0.251,0.851-0.447,1.784-0.517,2.893
								c-0.402-0.854-1.531-1.87-1.734-1.23c-0.299,3.184-1.055,3.66-1.957,3.794c-0.921,0.13-1.914-0.031-2.93,1.799
								c0.825,2.844,4.351,0.738,1.384,4.139c0.183,2.878,2.711,1.709,4.002,1.069c-1.789,1.422-2.092,3.27-2.144,5.04
								c-0.018,1.78,0.346,3.531,0.063,4.666l1.743-1.532c-1.042,0.924-1.453,1.874-1.885,2.839l-1.65-2.107
								c-0.125,1.296-0.559,2.246,0.327,2.649c-1.969,0.439-3.125-2.561-6.147-1.314c0.348,1.972-3.345,3.699-0.821,5.678
								c1.366-5.011,2.533,1.997,4.967-1.645c-0.719,0.581-1.172,1.497-1.369,2.795c0.226,0.331,0.655,0.151,0.97-0.065
								c0.125,2.893-1.029,2.936-2.374,2.856c-1.372-0.086-3.044-0.336-4.267,1.865c1.854,0.336,2.309,2.738,1.563,3.274
								c0.992-1.824-2.031-2.339-4.167-1.486c-0.56,3.443-2.749,2.391-3.509,3.877l0.48-1.959c-1.851-0.424-2.464,1.053-4.164,2.546
								c1.053,0.946,1.905-1.121,1.974-0.128c-1.964,0.155-2.11,1.698-2.213,3.477c-0.12,1.755-0.183,3.77-2.083,4.498
								c-0.029,1.988,2.563,2.135,2.329,3.756c-2.129,0.852-2.302,2.055-2.472,3.335c-0.148,1.288-0.359,2.599-2.45,3.563
								c-1.027-2.46-0.473-2.207-4.111-1.558c0,0,1.416-0.996,2.832-1.992c0.721-0.492,1.407-1.019,1.916-1.421
								c0.514-0.399,0.856-0.665,0.856-0.665s-1.34,0.301-2.68,0.603c-1.361,0.254-2.723,0.508-2.723,0.508
								c1.306-1.498,3.835-2.318,4.272-3.518c-2.781,0.391-2.174,0.579-3.14-1.397c0.565,2.18-0.671,2.936-2.11,3.541
								c-1.424,0.629-2.966,1.171-3.081,3.15l4.479,3.853c-0.154,0.677-0.391,1.262-0.705,1.766
								c-0.328,0.49-0.723,0.907-1.167,1.274c-0.888,0.735-1.968,1.269-3.099,1.802c-2.232,1.105-4.783,2.041-6.529,4.741
								l0.743-2.13c-1.115-0.559-1.858,0.037-2.59,0.864c-0.366,0.413-0.73,0.885-1.133,1.295c-0.415,0.396-0.879,0.723-1.413,0.874
								c1.458,1.35,0.981,2.711,1.128,4.213c-0.885-1.194-3.395,3.176-6.369,0.423l-0.556,3.748
								c-3.344,4.038-7.962-1.031-11.37,2.251c2.392,0.932,1.395,3.358,4.928,2.729c-1.313,0.959-2.306,2.107-3.097,0.989
								c-0.096,1.591-5.214,0.209-5.43,2.587c-1.038-0.375-2.297-1.988-3.725-0.928c0.039,0.44,0.512,0.832,0.512,0.832
								c-0.519-0.827-3.087,0.247-2.866-2.402c-0.52,3.831-3.54,5.549-6.63,6.808c-1.538,0.654-3.046,1.308-4.3,2.149
								c-1.267,0.816-2.246,1.896-2.686,3.546c-3.434,0.922-7.615,1.756-10.583,2.805c0.393,0.48,0.35,0.919,0.836,0.507
								c-3.514,3.215-4.414-4.461-8.34-0.951c-1.414,3.847,2.998,0.809,1.886,2.46c0.681,3.188-0.833,3.518-2.786,3.459
								c-1.952-0.025-4.26-0.303-5.408,1.992l0.89,0.146c-0.961,1.454-2.694,1.181-4.623,0.782
								c-0.967-0.204-1.988-0.451-3.015-0.562c-1.025-0.105-2.056-0.076-3.069,0.205c0,0,0.313,0.526,0.214,0.958
								c-1.742-1.369-3.961-2.093-6.238-2.502c-2.279-0.424-4.647-0.698-6.645-0.888c1.514,2.37,1.951,1.108,1.512,3.768
								c-1.819-0.138-0.004-4.181-3.552-4.458c-0.979,1.506-3.419,2.886-3.557,5.669l3.412-0.112
								c-1.418,3.687-4.437,0.218-6.162,0.97l0.326,1.537c-0.664-0.014-1.249-0.086-1.774-0.203
								c-0.526-0.137-0.992-0.321-1.419-0.526c-0.853-0.413-1.548-0.925-2.247-1.412c-1.401-0.995-2.813-1.807-5.58-1.688
								l0.575-1.165c-2.942-3.966-2.563,2.124-5.491-0.844l-1.072,3.921c-0.994-0.469-2.708-1.576-4.578-2.646
								c-0.937-0.537-1.913-1.07-2.869-1.532c-0.957-0.45-1.891-0.855-2.744-1.168c0.828,1.609,2.267,2.815,3.821,3.894
								c1.553,1.079,3.22,2.017,4.498,2.983c-2.023-0.126-6.865-0.801-7.692-2.844c0.76,0.466,1.692,1.489,2.544,0.95
								c-2.201-3.212-5.111-5.222-8.976-5.619c-0.209,3.866-2.847,3.918-5.911,3.627c-3.082-0.211-6.484-0.999-8.613,1.564
								c-3.211-2.117-6.641-2.902-10.413-3.326c-1.864-0.271-3.778-0.553-5.736-0.924c-0.975-0.195-1.968-0.395-2.944-0.694
								c-0.97-0.315-1.942-0.684-2.906-1.125c4.924-4.455-2.223-1.059,0.544-6.542c-1.615-1.058-2.324-1.221-2.629-0.939
								c0,0-1.683,0.241-3.365,0.482c-1.712,0.227-3.425,0.453-3.425,0.453c-2.037,1.029,1.118,1.986,0.387,3.161
								c-2.065-0.679-2.759-0.284-3.35,0.317c-0.593,0.603-1.08,1.422-2.741,1.479c1.49-1.695,0.038-3.497-2.556-3.892l4.377-0.924
								c-1.937-2.82-3.649-2.259-5.435-1.73c-1.762,0.522-3.561,0.944-5.417-1.975l0.725,2.638
								c-2.206-2.467-10.121-6.073-9.771-11.909c-0.845,0.265-2.407,1.206-1.534,2.369c-1.634-0.935-3.117-2.28-4.501-3.771
								c-1.337-1.556-2.565-3.271-3.784-4.879c-1.243-1.581-2.363-3.194-3.622-4.437c-1.244-1.261-2.635-2.148-4.186-2.584
								l-0.601,1.49c-0.725-1.286,0.171-3.718-2.115-3.817c-0.364,0.506-0.627,1.464-1.155,1.081
								c-0.183-0.897-0.852-4.388-2.693-5.129l-0.115,2.316c-1.607-0.975-2.719-2.158-3.519-3.447
								c-0.808-1.282-1.292-2.683-1.613-4.154c-0.338-1.457-0.57-2.936-0.906-4.367c-0.168-0.716-0.363-1.42-0.611-2.105
								c-0.231-0.699-0.503-1.391-0.862-2.052c-1.709,1.387-3.716,1.192-5.609,0.394c-0.942-0.401-1.869-0.938-2.676-1.515
								c-0.792-0.589-1.495-1.192-2.058-1.677l-0.447,0.446c-1.344-1.682-2.405-3.373-3.156-5.147
								c-0.737-1.783-1.264-3.583-1.707-5.388c-0.473-1.786-0.727-3.661-1.077-5.511c-0.32-1.867-0.781-3.688-1.257-5.617
								c-3.18-1.016-5.618-4.441-7.61-8.481c-0.509-1.006-1.028-2.033-1.549-3.063c-0.487-1.045-0.957-2.101-1.466-3.123
								c-0.99-2.056-2.181-3.962-3.404-5.629c1.14,0.875,3.167-1.341,3.148-2.776c-1.436-1.457,1.312-5.665-2.447-4.189l0.279,0.595
								c-4.213-0.12-4.226-4.154-5.144-6.977l4.98-1.792c-2.297-1.357-3.555-3.353-4.273-5.564
								c-0.179-0.554-0.324-1.121-0.441-1.696c-0.094-0.58-0.157-1.169-0.203-1.76c-0.091-1.183-0.105-2.375-0.107-3.537
								c-0.005-1.157-0.01-2.287-0.014-3.363c0.008-1.075-0.04-2.085-0.208-3.002c-0.337-1.834-1.16-3.295-3.001-4.167
								c1.14-1.987,0.972-4.274,2.144-6.184l-2.818,0.289c-0.595-2.556-0.884-4.493-1.032-6.591c-0.13-2.097-0.188-4.36,0.28-7.56
								l-2.056,1.288c-0.05-1.835,2.021-2.948,4.132-3.967c2.134-1.024,4.218-1.96,4.44-3.552l-4.145-1.229
								c0.283-3.099-0.468-6.315-0.444-9.497c-0.021-1.59,0.077-3.172,0.468-4.701c0.422-1.523,1.205-2.984,2.41-4.332
								c-0.628-0.009-1.862-0.043-2.21,0.935c0.103-0.735,0.104-1.841,0.137-3.059c0.03-1.218,0.084-2.549,0.384-3.701
								c0.555-2.318,1.717-3.956,4.417-2.76c-1.818-0.463-1.583-2.082-0.498-3.894c1.12-1.805,3.001-3.79,4.251-5.142l-2.811-0.3
								c2.084-0.862,3.376-1.209,4.437-1.772c1.047-0.564,1.829-1.35,2.911-3.011c-0.051-0.983-1.849-1.496-1.568-0.102
								c-0.379-3.398,3.197-1.385,3.165-5.322l-2.169,0.654c0.958-3.025,1.761-2.455,4.312-3.269
								c0.44-0.348,0.745-0.883,0.946-1.505c0.219-0.614,0.317-1.322,0.293-2.037c-0.048-1.428-0.578-2.891-1.626-3.631
								c1.597,0.25,4.094-0.458,4.282-2.399c-0.742-0.642-1.578-0.302-1.993-0.122c0.348-2.77,1.976-4.172,3.392-5.391
								c1.406-1.237,2.745-2.223,2.438-4.48c-0.763-0.525-1.044-0.961-1.134-1.364c-1.01,1.854-1.947,3.512-2.494,4.735
								c-0.547,1.223-0.818,1.948-0.656,1.854c-2.289-1.167-1.087-4.5-5.493-3.681c1.479-0.831,3.772-1.756,5.748-2.881
								c1.988-1.124,3.566-2.505,3.971-4.22c-0.125-0.267-0.247-0.529-0.518-0.84l-0.433,0.142c0.201-0.791,0.781-1.254,1.498-1.574
								c0.222-1.13,0.331-1.879,0.858-2.771c-0.77-0.746-0.5-1.771,0.15-2.744c0.648-0.975,1.601-1.939,2.063-2.679
								c2.214,1.735,3.134-0.34,3.813,2.709c-0.005-0.334-0.458,0.066-1.207,0.92c-0.216,0.161-0.424,0.382-0.658,0.425
								c0.083,0.018,0.179,0.035,0.27,0.046c-0.354,0.432-0.759,0.933-1.19,1.499c-0.404,0.584-0.846,1.224-1.316,1.904
								c0.96-0.175,1.876-0.385,2.514-0.855c0.646-0.464,1.053-1.162,0.947-2.371c1.986,0.323,4.041,0.638,5.051,0.721
								c-1.953-4.146-0.829-8.965-2.325-10.97c1.137-0.784,2.187-1.777,3.338-2.716c1.147-0.941,2.304-1.903,3.503-2.736
								c2.359-1.702,5.073-2.716,8.064-2.057c1.482-0.571,0.06-2.257-0.152-3.237c-0.962,0.241-1.6,1.027-2.465,0.836
								c2.932-1.257,6.6-5.765,9.59-3.549c0.747-1.863-0.188-2.144-0.822-2.32c-0.316-0.089-0.554-0.156-0.457-0.391
								c0.092-0.24,0.524-0.645,1.589-1.354l-1.271-0.389c0.909-2.743,2.569-4.379,4.534-5.434c2.031-0.982,4.367-1.389,6.657-1.825
								c1.135-0.233,2.299-0.423,3.422-0.695c1.12-0.277,2.194-0.644,3.192-1.183c1.973-1.121,3.746-2.755,5.044-5.844
								c-0.394,0.804-0.596,1.189-0.392,1.792c4.307-4.853,10.481-7.259,16.412-9.642c6.066-2.213,11.902-4.425,16.947-8.86
								c3.023-2.144,4.117-0.068,6.67,1.09l-0.126-3.104c0,0,1.123,0.586,2.246,1.172c1.104,0.592,2.207,1.184,2.207,1.184
								c1.39,0.243,2.507-0.151,3.533-0.898c1.024-0.75,1.958-1.844,2.969-2.882c0.506-0.519,1.031-1.024,1.592-1.464
								c0.563-0.43,1.171-0.76,1.827-0.992c1.312-0.455,2.839-0.441,4.657,0.459l-0.498,2.155c2.24-0.884,7.475,0.163,6.794-2.14
								c0.288,0.337,1.014,2.002,1.796,0.835l-0.106-1.579c0,0,0.377,0.123,0.943,0.307c0.563,0.171,1.317,0.456,2.065,0.74
								c1.483,0.565,2.967,1.131,2.967,1.131c2.159-0.737,1.899-2.29,1.89-3.757c-0.003-0.733,0.059-1.446,0.541-2.025
								c0.241-0.289,0.587-0.549,1.083-0.753c0.496-0.186,1.142-0.316,1.98-0.377c2.56,0.541,7.107,4.423,6.17,5.503
								c-0.976,0.102-2.473,1.048-2.514,2.631l2.17,0.769c0.203,2.32,0.704,4.67,0.509,6.853c-0.195,2.181-1.059,4.214-3.452,5.901
								l-3.521-2.76c0,0-0.249,0.573-0.498,1.146c-0.244,0.585-0.488,1.17-0.488,1.17c0,0,0.714-0.031,1.432,0.002
								c0.716,0.018,1.433,0.036,1.433,0.036c-0.772,1.083-1.419,1.159-2.039,0.808c-0.617-0.333-1.203-1.072-1.821-1.675
								c-0.199,1.22-0.617,2.095-1.25,2.591c0,0-0.916-1.046-1.832-2.091c-0.941-1.044-1.883-2.088-1.883-2.088
								c-0.222,1.845,1.825,3.489-0.291,4.655c-1.769-1.863,1.099-4.258-1.655-5.273c-1.421,2.313-0.708,3.96-2.849,2.411
								c-0.112,1.223,0.394,1.929,1.204,2.357c-1.865-1.212-4.52-0.063-5.782-2.298c-1.237,2.878-5.854,0.356-4.816,4.646
								c-0.711-0.916-3.63-2.707-5.23-2.526c2.007,2.244,0.591,2.651-1.041,3.154c-1.635,0.525-3.47,1.281-2.353,3.887
								c-1.615-1.986-3.613-2.03-5.684-1.631c-2.067,0.432-4.239,1.152-6.464,0.534c0.323,0.267,0.979,0.867,1.206,0.531
								c-1.849,1.07-1.885,2.686-2.794,3.99c-1.661-3.528-5.104-3.235-7.711-4.635c-0.855,4.541,3.293,3.557,3.976,7.235
								c-1.125-2.975-5.315-1.071-5.635-3.83c-0.816,2.948-1.098,1.714-0.58,5.098c-2.462-4.245-1.974,0.083-4.801-1.85
								c-1.426,3.469,1.472,4.345-1.956,4.537c-0.273,1.025,0.402,1.569,1.132,1.865c0.366,0.148,0.746,0.232,1.034,0.281
								C101.47,41.969,101.674,41.993,101.674,41.993z M42.855,86.667c0.023,0.014,0.04,0.024,0.048,0.029
								c0.412-0.52,0.763-0.962,0.987-1.245C43.679,85.708,43.386,86.061,42.855,86.667z M39.61,92.216
								c0.294-0.731,0.764-1.587,1.294-2.473c-0.729-0.681-1.717-0.966-2-0.37C39.643,89.385,39.368,90.992,39.61,92.216z
								 M30.577,69.68c-0.986,0.728-0.714,1.377-0.326,1.823c0.339-0.427,0.741-0.921,1.393-1.484
								c0.106,0.032,0.245,0.043,0.362,0.084C31.499,69.89,31.011,69.708,30.577,69.68z"/>
							<path fill="#202020" d="M34.801,70.093c0.146-0.096,0.294-0.103,0.437-0.262c0.069,0.329,0.116,0.629,0.13,0.909
								c-0.328-0.061-0.662-0.122-0.956-0.176C34.544,70.405,34.68,70.241,34.801,70.093z"/>
							<path fill="#202020" d="M315.703,117.712l0.102,0.123c-0.142-0.085-0.279-0.162-0.47-0.182
								C315.493,117.708,315.577,117.683,315.703,117.712z"/>
							<polygon fill="#202020" points="28.123,177.384 27.418,177.454 27.966,176.849 							"/>
							<path fill="#202020" d="M292.243,87.562c-0.248,0.066-0.538,0.08-0.862-0.038C291.551,87.448,291.875,87.491,292.243,87.562z
								"/>
							<path fill="#202020" d="M283.195,75.003l-2.113-1.135C282.1,74.272,282.733,74.66,283.195,75.003z"/>
							<path fill="#202020" d="M274.7,66.675c0.273-0.437,0.524-0.714,0.754-0.966c0.013,0,0.018,0.005,0.032,0.002L274.7,66.675z"
								/>
							<path fill="#202020" d="M284.268,238.603c-0.095,0.122-0.208,0.23-0.345,0.304
								C282.91,239.483,283.468,239.007,284.268,238.603z"/>
							<path fill="#202020" d="M310.911,189.761c-0.608,0.499-1.198,0.984-1.625,1.533
								C309.258,190.265,309.333,189.491,310.911,189.761z"/>
							<path fill="#202020" d="M239.636,278.128c0.015,0.011,0.013,0.021,0.032,0.037c-0.112,0.061-0.201,0.13-0.308,0.198
								L239.636,278.128z"/>
							<path fill="#202020" d="M308.744,193.859c-0.32-1.099-0.016-1.883,0.542-2.565
								C309.285,192.133,309.348,193.143,308.744,193.859z"/>
							<path fill="#202020" d="M234.586,36.01l-0.55-0.162c0.097-0.159,0.139-0.308,0.156-0.429L234.586,36.01z"/>
							<path fill="#202020" d="M234.192,35.42l-0.394-0.588C234.051,34.968,234.261,35.105,234.192,35.42z"/>
							<path fill="#202020" d="M232.965,33.582l0.833,1.25C233.393,34.623,232.856,34.435,232.965,33.582z"/>
							<path fill="#202020" d="M248.431,43.072l-0.438,0.937C248.034,43.783,248.171,43.477,248.431,43.072z"/>
							<path fill="#202020" d="M252.087,46.081c-1.063-0.474-3.519,0.051-4.439-1.325l0.345-0.746
								C247.73,45.624,252.232,44.054,252.087,46.081z"/>
							<path fill="#202020" d="M275.865,49.939c0,0-0.905-0.609-1.811-1.218c-0.924-0.581-1.848-1.163-1.848-1.163
								c1.288-0.29,3.033-0.667,1.754-2.201c3.137,0.679,2.501,0.955,1.657,1.458C274.771,47.33,273.714,48.117,275.865,49.939z"/>
							<path fill="#202020" d="M286.161,58.658c-1.157-2.089,1.211-1.011,1.599-1.498C287.996,58.934,288.03,59.354,286.161,58.658z
								"/>
							<path fill="#202020" d="M323.538,146.897l2.525-0.474C325.869,148.276,325.078,146.53,323.538,146.897z"/>
							<polygon fill="#202020" points="310.939,165.167 309.391,163.542 311.754,162.803 							"/>
							<path fill="#202020" d="M328.523,176.904l0.427-0.776c0,0-0.291,0.751-0.581,1.501c-0.276,0.75-0.618,1.49-0.618,1.49
								c0,0,0.228-0.548,0.404-1.104C328.34,177.46,328.523,176.904,328.523,176.904z"/>
							<path fill="#202020" d="M235.898,308.412l-0.861-3.07C236.367,305.289,238.187,308.375,235.898,308.412z"/>
							<path fill="#202020" d="M165.818,320.972c-0.768,1.557-2.824,2.52-4.025,0.94
								C163.409,321.737,165.01,320.547,165.818,320.972z"/>
							<polygon fill="#202020" points="6.325,199.331 5.632,201.016 5.861,198.098 							"/>
						</g>
					</g>
				</g>
			</g>
		</g>
		<g>
			<g>
				<g>
					<g>
						<g>
							<path fill="#202020" d="M409.717,414.491c0.679-0.537,2.01-1.969,1.533-1.896l-2.473,2.21L409.717,414.491z"/>
							<path fill="#202020" d="M412.645,408.764c-1.369,0.902-3.63,2.633-5.61,4.949c2.476-2.026,1.6-1.024,4.52-3.463
								c0.477-0.071-0.388,1.109-1.279,1.942c0.67-0.532-0.192,0.833,1.379-0.535c1.535-2.088,1.268-2.496-0.572-1.342
								C411.517,409.723,412.198,409.181,412.645,408.764z"/>
							<path fill="#202020" d="M396.187,385.24l-0.147,0.407C396.157,385.458,396.197,385.329,396.187,385.24z"/>
							<path fill="#202020" d="M385.018,371.647c0.151,0.036,0.421-0.157,0.637-0.366
								C385.414,371.348,385.2,371.421,385.018,371.647z"/>
							<path fill="#202020" d="M385.458,366.953c-0.028,0.12-0.022,0.19-0.033,0.283
								C385.591,366.972,385.662,366.804,385.458,366.953z"/>
							<path fill="#202020" d="M396.187,385.24l0.398-1.068C395.803,384.917,396.192,384.91,396.187,385.24z"/>
							<path fill="#202020" d="M404.263,411.705c0.183-0.046,0.457-0.207,0.792-0.439c-0.157,0.044-0.296,0.074-0.415,0.08
								C404.51,411.468,404.401,411.573,404.263,411.705z"/>
							<path fill="#202020" d="M403.559,388.754l0.104,0.097c0.294-0.238,0.643-0.535,1.029-0.874L403.559,388.754z"/>
							<path fill="#202020" d="M408.126,392.555c-0.009-0.182-2.018,1.785-2.917,2.622c0.867-0.77,1.326-1.093,1.562-1.165
								C407.147,393.633,407.585,393.167,408.126,392.555z"/>
							<path fill="#202020" d="M411.325,402.671l0.393-0.16C411.602,402.567,411.471,402.596,411.325,402.671z"/>
							<path fill="#202020" d="M400.973,385.343c0.286-0.304,0.529-0.579,0.669-0.753
								C401.393,384.842,401.172,385.094,400.973,385.343z"/>
							<path fill="#202020" d="M268.36,283.966c0.145-0.146,0.229-0.232,0.352-0.356C268.488,283.788,268.34,283.922,268.36,283.966
								z"/>
							<path fill="#202020" d="M273.266,269.242l0.174-0.041c0.383-0.377,0.754-0.743,1.122-1.105L273.266,269.242z"/>
							<path fill="#202020" d="M384.1,360.547c-0.015,0.03-0.012,0.033-0.021,0.056C384.407,360.477,384.31,360.459,384.1,360.547z"
								/>
							<path fill="#202020" d="M346.944,326.737c-1.361,2.186-2.927,1.645-4.278,4.229
								C343.381,330.128,346.3,328.396,346.944,326.737z"/>
							<path fill="#202020" d="M404.413,411.334c-0.079-0.033-0.154-0.073-0.193-0.149
								C404.235,411.327,404.296,411.371,404.413,411.334z"/>
							<path fill="#202020" d="M342.666,330.966c-0.009,0.009-0.017,0.017-0.017,0.017l-0.123,0.25
								C342.583,331.124,342.617,331.06,342.666,330.966z"/>
							<path fill="#202020" d="M373.952,352.893c-0.33,0.371-0.558,0.674-0.773,0.966
								C373.378,353.651,373.605,353.38,373.952,352.893z"/>
							<path fill="#202020" d="M377.816,362.334l0.099-0.43C377.801,362.151,377.792,362.266,377.816,362.334z"/>
							<path fill="#202020" d="M367.698,352.29c0.061-0.242,0.304-0.549-0.083-0.402c-0.09,0.113-0.149,0.196-0.205,0.282
								C367.725,351.939,367.91,351.871,367.698,352.29z"/>
							<path fill="#202020" d="M364.079,348.736c-0.132,0.172-0.22,0.312-0.332,0.469c0.075-0.005,0.148,0.005,0.221,0.005
								L364.079,348.736z"/>
							<path fill="#202020" d="M280.274,293.84c0.477-0.641,1.041-1.309,1.608-1.96C280.534,293.356,279.503,293.339,280.274,293.84
								z"/>
							<path fill="#202020" d="M405.371,410.58c-0.521,0.484-0.797,0.702-0.958,0.755c0.064,0.019,0.143,0.018,0.227,0.011
								C404.943,411.059,405.224,410.78,405.371,410.58z"/>
							<path fill="#202020" d="M351.962,367.916l-0.281-0.862C351.651,367.405,351.758,367.713,351.962,367.916z"/>
							<path fill="#202020" d="M306.435,319.135l-0.368,0.11C306.073,319.34,306.176,319.33,306.435,319.135z"/>
							<path fill="#202020" d="M349.688,365.667c0.594-0.806,0.891-1.323,1.043-1.701c-0.178,0.133-0.333,0.235-0.577,0.45
								L349.688,365.667z"/>
							<path fill="#202020" d="M281.903,291.857c-0.012,0.014-0.021,0.023-0.021,0.023S281.892,291.871,281.903,291.857z"/>
							<path fill="#202020" d="M273.434,292.875c0.49,0.597,2.798-2.318,4.406-3.713c1.388-0.101-1.612,2.234-2.718,3.798
								c1.095-0.294,3.791-2.397,3.993-1.995c-0.405,0.455-0.502,0.671-1.106,1.145c2.495-1.663,1.379,1.16,4.473-0.968
								c-0.192,0.27-0.392,0.509-0.578,0.716c1.218-1.395,2.529-2.746,3.486-3.681c0.29,0.196,2.095-1.211,0.49,0.598
								c-0.101-0.199-0.798,0.481-1.398,0.948l0.995-0.493c-2.209,2.697-1.195,0.509-3.002,2.337c1.295-0.31,3.898-1.777,3.591-0.7
								c-2.307,2.494-1.7-0.073-3.311,2.58l0.32-1.51c-3.314,4.259-0.098-0.622-3.711,3.866c0.089,1.472,2.09-0.368,2.171,1.106
								c1.502-1.169,1.904-2.042,3.408-3.213c3.49-1.317-5.132,6.936-1.139,4.521c1.802-1.4,4.904-4.376,3.885-2.188l-2.897,2.536
								c0.489,1.017,4.312-3.499,3.287-0.88c-1.201,0.934-1.488,0.317-1.694,0.756c-1.619,2.663,1.893-1.191,2.288-0.801
								l-2.309,2.499c1.18,0.415,3.793-0.456,5.12-0.017c-0.76,0.67-1.661,1.276-2.184,2.223c2.318-0.098,2.107,2.666,1.773,5.172
								l2.477-1.678c0.072,0.119-0.753,1.119-1.257,1.421c-0.36,1.209,1.33-1.302,2.344-1.923c0.385,0.092-0.868,1.514-1.64,1.99
								c2.494-1.032,5.893-1.714,4.467,1.299l-0.766,0.469c-0.226,1.451,4.919-3.597,3.562-1.09l-0.474,0.263
								c0.433,2.217,3.79,1.755,1.688,5.907c3.165-2.816-0.011,2.64,4.219-1.47c-1.297,2.828-2.253,3.362-2.567,5.814
								c0.094,0.475,3.013-2.198,3.798-2.287l-2.159,2.201l2.752-1.827l-2.337,2.873l0.887-0.235
								c-0.005-0.259,0.693-1.262,1.338-1.874c1.496-0.48-0.251,2.772-1.349,3.908l3.055-0.646c-0.899,0.855-1.402,0.955-2.12,1.357
								c2.863-1.592-2.164,2.427,0.46,0.967c0.411-0.575,1.334-1.263,1.785-1.692c-1.012,1.619-0.346,2.302,0.709,2.239
								l-1.591,1.417c0.527,1.279,2.627,1.162,3.617,2.195c0.331-1.063,3.004-3.602,3.551-3.558l-2.167,2.43
								c1.605-1.238,0.55-1.179,2.677-2.54c0.116,0.643-2.348,2.887-3.311,3.424l1.254-0.345c-0.656,0.717-1.125,0.975-2.024,1.829
								c1.612-1.252-1.501,3.113,1.242,0.885l-0.655,0.715c0.998,1.024,2.247,0.683,3.19,1.386c1.993-1.984,1.878-1.221,3.722-2.593
								c-0.021,1.239-0.9,3.479,0.001,4.034c1.499-0.485,1.824-1.544,3.229-2.503c-1.761,1.857-0.86,2.411-2.532,3.343
								c1.172,0.575,1.481,0.75,4.056,0.371c0.619-0.867,0.803-1.325,1.487-1.877c0.497-0.099-0.295,1.219-1.189,2.064l-0.239,0.135
								c3.947-1.494-2.366,8.162,2.382,5.348l-0.241,0.133l2.986-0.958c0.164,0.784-1.637,1.087-2.399,2.562
								c4.116-1.938,1.322,2.179,4.24,1.061c-4.603,6.075,2.892,2.109,0.458,6.487l1.196-1.321c1.475-0.996-0.416,1.021-0.52,1.49
								c0.945-1.008,0.855-1.402,1.689-1.938c3.604,0.548,2.5,6.126,3.52,9.394c0.452,1.115,6.918-6.107,4.923-2.106l-2.603,2.071
								c4.375-1.253,3.148,3.304,7.064,2.448c-0.628,0.45-1.327,1.152-1.47,0.994c-1.359,2.031,1.13,1.282,2.513-0.104
								c0.085,0.396-1.188,1.313-1.74,2.17c-0.666,1.332,2.98-1.363,1.477,0.508c-0.245,0.308-0.64,0.463-0.831,0.535
								c1.031-0.614,0.791,1.197,2.532-0.975c-0.346,1.516,1.982,0.226,1.293,1.852c2.479-1.901-0.051,2.048,3.125-0.973
								c-3.222,3.177-1.544,3.606,0.321,2.456c-1.084,0.851-0.677,1.326-2.151,2.529c0.465,0.37,1.441,0.154,3.001-1.571
								c-3.03,4.615,4.62-1.559,0.18,3.806c2.959-0.494,5.271-0.52,7.141-0.164c-3.212,3.168-1.56-0.907-4.839,2.507
								c2.373-0.267,5.709-2.413,6.001-0.594c-0.159,0.708-1.53,1.237-2.165,1.694c2.371-0.269,1.771,2.328,4.445,1.518
								c-0.298,0.297-0.723,0.521-1.061,0.671c0.292,0.079-0.027,0.896,1.388-0.577l-0.572,0.214
								c1.794-2.411,5.111-3.688,6.25-4.772c-4.448,3.865-0.102,1.976-5.827,6.76c0.396-0.154,1.233-0.693,2.169-1.697
								c-0.099,0.466-0.604,1.092-1.886,2.019c1.454-0.132,2.749-1.917,3.322-1.285c-0.701,0.704-1.093,0.856-1.976,1.624
								c1.668-1.073,3.337-2.146,3.259-1.042c-0.451,0.396-0.939,1.008-1.082,0.847c1.091,0.656,5.123-2.184,4.773,0.101
								c-3.315,2.785-0.668,1.333-3.242,4.039l1.302-0.279l1.065-1.494c0.41,0.495,2.724-1.043,2.255,0.214l-1.419,0.76l1.35,0.339
								l0.513-1.484c1.813-0.913,3.271-3.408,3.146-2.07c-0.387,0.146,0.422,0.482-0.887,2.281c0,0-0.001-0.002-0.008,0.005
								c1.061-0.623,2.172-1.285,1.856-0.293c-0.752,0.936-2.972,2.867-3.475,3.489c2.416-2,1.674,0.436,4.292-1.651
								c-0.643,0.463-2.026,1.853-2.275,2.166l1.968-1.618c-0.359,0.784-0.604,1.095-1.737,2.172
								c0.308,0.956,3.128-3.567,2.445-1.372c-0.203,0.087-0.441,0.384-0.835,0.537c0.007,1.503,2.59,0.298,2.407,1.871
								c-2.437,2.874-1.253,0.055-3.247,2.54c1.479,0.505,5.236-1.153,5.583,0.432l0.111-0.474c3.862-3.639-1.121,2.576,1.126,1.282
								c-0.396,0.161-2.227,1.938-1.779,1.55c0.064,1.262,2.272,0.413,4.451,0.219l-1.084,0.848
								c-0.464,1.25,0.537,1.515,0.522,2.373c1.082-0.844,1.168-0.448,2.414-2.002c-4.153,6.805,5.407-0.505,2.017,5.234
								c-0.148-0.126-1.167,0.522-1.057,0.631l1.862,0.083c1.546-1.72,0.854-1.122,1.913-2.606c1.087-0.851,2.111-1.332,2.355-1.091
								c-1.519,0.651-2.605,2.644-3.32,3.749c0.466-0.535,1.08-1.026,1.57-1.555c-2.376,3.432,3.354-3.221,2.109-0.559l-0.891,0.826
								c0.699-0.182,2.068-1.083,2.107-0.557c-1.762,2.018-1.156,0.611-2.721,2.158c0.506,0.283,4.344-2.826,2.832-0.576
								c-0.692,0.363-0.944,0.131-1.633,0.49c-1.815,2.621-1.208,2.098-1.267,2.74l0.021-0.079l-0.326,1.676l0.426-0.773
								c5.397-4.466,1.909,0.095,5.789-2.489c-3.689,2.43-1.865,1.672-4.045,3.777c-0.419,0.766-0.822,1.693-1.495,2.227
								c2.035-1.425-0.824,1.891,2.134-0.207c-0.663,0.71,0.272,0.402-1.521,2.073c0.951-0.138,1.096-1.303,1.99-2.139
								c2.978-1.743-1.348,4.349,2.78,1.999c2.109-0.559,4.566-2.753,6.449-3.196c-0.85,1.354-2.699,2.327-2.699,2.327
								c-0.611,1.414-0.126,1.522,1.033,1.1c-0.673,0.529-1.102,1.119-1.756,2.01c0.479,0.117,2.696-2.326,2.083-0.911
								c-0.832,0.706-2.143,1.857-3.055,2.49c0.986-0.288,2.617-1.237,3.602-1.5c-1.097,1.305-2.034,1.614-2.942,2.275
								c0.95-0.136,2.15-0.038,4.169-1.825l0.41-0.944c0.243,0.056-1.546,1.72-2.002,1.959c-1.836,1.15,0.144-1.166,0.814-1.884
								l0.701-0.186c3.753-4.334-1.695-0.386-1.988-1.142l3.144-2.742l-2.967,1.922c0.646-0.883,2.201-2.613,2.898-2.8
								c1.066-1.833-1.374,0.723-0.086-1.229c0.215-0.289,0.372-0.415,0.52-0.499l-1.239,0.517c0.687-0.551,2.003-2.149,1.808-1.499
								c1.025-2.36-3.26,1.165-1.293-1.323l0.235-0.128c-1.907,0.093-2.238,2.087-5.444,3.953l4.831-5.814l-2.235,2.081
								c-0.018-0.172-0.044-0.521,0.849-1.354c-1.822,1.138-0.874,1.004-2.465,2.205c1.499-2.429-2.172-0.317,1.146-3.879
								c-1.796,1.489-0.824,1.705-2.445,2.372c3.539-3.858-1.193,0.081,0.078-2.037c2.026-1.795,1.415-0.387,2.694-2.515
								c-3.461,2.999-0.109-1.512-1.075-1.237c-2.571,2.567-1.83,0.323-3.269,0.601c0.894-0.83,0.293-2.515,0.668-3.991l0.445-0.418
								c-2.687,2.506-2.766,1.454-3.713,1.589c1.564-1.551,2.246-2.092,3.161-2.571l-0.399-0.37
								c-0.919,0.746-1.476,1.068-2.022,1.118l2.026-1.855c-0.622-0.401-3.31,1.273-2.684-0.686
								c-1.837,1.784-4.486,5.593-6.388,6.115c0.947-1.01,2.586-2.72,3.167-2.941c-0.186,0.067-1.022,0.605-0.729,0.066l1.917-1.38
								c0.417-1.026-1.526,1.228-1.614,0.835c1.393-1.4,0.812-1.179,1.948-2.26c0.196-0.074-0.364,0.79,0.274,0.329
								c-0.023-0.521,0.471-1.68,1.413-2.85c-0.766,0.822-1.869,1.892-2.249,1.876c-0.617-0.406,1.494-1.863,1.905-2.881
								c-1.088,0.851-0.417-0.485-2.501,1.605c-0.14-0.159,0.8-1.166,1.304-1.793c-1.183,0.663-1.508-0.966-3.415,1.564
								l-0.078,0.215c-0.056,0.031-0.072,0.018-0.134,0.049l0.002,0.002l-0.002-0.002c-2.937,1.223-0.641-2.984-2.395-2.943
								l0.695-0.7c-1.311,0.29-1.621-0.665-3.484,0.479c-0.151-0.152,0.907-1.641,1.798-2.41c-0.917,0.137-1.741,0.881-1.168-0.843
								c1.609-0.832,0.935-1.221,1.295-0.494c0.085-1.114,1.081-2.354-1.37-0.98c1.968-1.614,1.853-2.648,1.078-2.354l-0.913,1.645
								c-0.534-0.01-0.617-0.407-0.71-0.801l2.472-2.236c1.793-3.919-6.74,3.022-2.778-2.588c-1.914,1.38-0.58,1.73-2.743,3.42
								c-0.168-0.798,2.685-4.692,2.54-4.85c0.632-1.966-4.036,2.846-3.844,1.264c-0.744,0.93-2.888,3.267-4.192,3.55
								c-0.175-0.792,2.904-4.129,3.879-4.504c0.187,0.043-0.023,0.368-0.31,0.647c0.46-0.152,1.023-0.311,1.735-1.415l-0.897,0.781
								c0.611-1.099-0.145-1.667,1.381-2.898c-1.162,0.444-1.526,1.231-1.688,1.938c0.587-1.837-0.935-0.996-0.762-2.45
								c-0.358,0.566-1.245,1.65-1.337,1.542c0.095-1.973-1.995,1.192-2.997,0.934c0.911-1.644,3.166-2.943,1.46-2.498
								c0.471-1.258,2.131-2.321,2.966-2.855c-2.191,1.051-0.032-2.146-0.07-2.773l0.979-0.378
								c-0.583,0.224-0.722,0.063-0.872-0.093l-1.493,1.861c0.11-0.472-0.034-0.631,0.663-1.329
								c-1.279,0.923-2.633,2.948-4.497,4.097c0.607-1.096-1.642,0.196,0.489-2.126c0.004,1.508,2.141-2.333,3.138-2.062
								c-0.388,0.146-0.528-0.014-0.416-0.489c0.22-0.276,0.484-0.438,0.66-0.519c1.255-2.717-2.836,2.205-3.535,1.412
								c1.343-1.168,2.193-2.566,1.805-2.418c0.276,0.324-1.938,2.249-3.17,2.942c0.491-1.458-1.245,0.215-1.383-0.149l-0.171,0.748
								c-1.344,1.164-1.421,0.762-2.149,0.828c0.943-1.011,0.972-0.375,1.281-0.927c-2.565,1.852,1.43-3.128-0.566-2.146
								c0.606-1.094,2.321-2.396,2.684-3.184c-2.2,1.063,1.08-2.352-0.869-1.604c-1.501,1.87-1.06,1.486-3.125,2.716l2.186-0.202
								l-3.084,1.83c0.279,0.324,1.695-0.436,1.591,0.034c-1.675,1.08-1.227,0.689-2.474,2.241c2.102-2.955-2.288,0.67-1.068-1.523
								l4.168-4.188c1.129-2.584-3.413,0.891-3.304-1.092l-0.422,1.028c-1.776,1.546-0.808-0.339-1.78,0.038
								c1.417-1.377,1.73-2.072,2.465-3.075c-1.014,1.057-0.591-0.773-3.448,1.947l1.41-2.263c-0.008-1.504-4.817,3.147-5.072,1.952
								c1.728-1.31,2.38-2.632,3.947-3.242c-0.229-0.254-0.193-0.727-1.16,0.244c0.729-1.021-2.542,1.226-1.447-0.328
								c-0.711,0.515-2.199,1.952-2.356,1.567c0.251-0.314,0.688-0.693,0.688-0.693c-0.688,0.693-1.36,0.522-2.658,2.312
								c3.583-5.119-2.403-1.747,0.664-6.15c-0.995-0.054-2.079-0.232-2.661-0.605c0.446-0.39,0.693-0.698,0.64-0.462
								c0.627-1.961-4.391,3.627-3.706,1.425c1.857-2.651,1.614-0.832,2.223-1.929c4.462-4.725-1.534-0.271,0.624-3.469l0.392-0.15
								c1.164-1.954-2.677,0.813-2.985-0.144c0,0,0.434-0.377,0.693-0.694c-2.763,1.928-4.354,1.896-5.611,1.947
								c1.977-1.619,1.223-0.683,2.923-2.634c-0.531-0.01-2.836,3.029-3.89,3.004c0.801-1.165,1.262-2.419,3.147-4.432l0.62,0.403
								c2.244-2.798-0.752-0.572-0.587-1.281l1.129-1.073c-1.144-0.421-3.917,2.362-4.567,1.324l-0.741,0.925
								c-3.199,2.311,1.149-1.939-1.347-0.339l2.635-2.946c-0.975,0.375-3.753,1.655-4.824,1.642
								c2.369-1.775,4.063-2.205,5.682-3.049c-0.283-0.32-1.234-0.812-2.762,0.418c0.39-0.15,1.224-0.686,0.917-0.134
								c-2.553,1.839-4.115,2.44-4.671,1.795c5.486-5.336-0.219-2.928,3.522-7.589c-3.059,0.958-1.272-2.953-2.836-3.861
								c-3.743,4.67-0.482-0.239-4.705,4.187c-0.563-0.011-0.603-0.191-0.351-0.498l1.689-3.467
								c1.042-1.472,1.223-0.686,2.161-1.688c-0.305-0.961,1.555-2.105,2.278-3.678c-1.452,1.641-2.423,2.01-2.198,1.059
								l-1.473,2.509c-3.175,1.438,2.841-4.407-0.319-3l1.635-1.089c-1.257,0.354-1.666-1.701-5.568,1.348
								c0.415-0.582,1.483-1.877,1.996-1.992c-0.579-1.607-6.116,1.305-4.842-1.688l1.133-0.981
								c-0.508,0.105-2.332,1.646-1.529,0.322c0.447-0.426,1.131-0.979,1.098-1.136c-0.471,0.26-2.385,1.326-2.044,0.438
								l1.415-0.968c0.307-2.45-4.522,1.291-6.14,1.134c3.097-3.129,3.261-4.979,3.342-5.9l0.452-0.428
								c-0.863-1.619-4.68,0.502-7.049,0.591c2.643-4.105-1.019-3.821-0.287-6.863c-0.385,0.741-2.44,2.411-2.955,2.523
								c0.358-0.902-2.894,1.434-0.014-1.394l0.043,0.148c2.58-3.018,1.285-2.817,0.928-3.322l-3.784,3.686
								c4.266-6.584-4.954-0.93-0.736-6.434c-1.202,0.669-1.531,0.323-2.729,0.993l2.005-2c-0.25-1.263-0.379-1.889-1.79-2.335
								l1.614-1.251c-0.396-0.656-6.406,5.146-7.01,4.783l2.824-3.151c-0.968-0.863,0.707-4.426-2.898-2.6
								c0.451-0.426,1.336-1.268,1.606-1.242c-0.357-0.507,0.333-3.693-3.588,0.588c2.645-2.697-0.692-1.203-2.36-0.511l2.036-1.904
								c-2.922,2.116-3.621,2.796-4.901,2.917c0.117-0.396,1.447-1.707,1.13-1.018c0.563-1.497-2.216,1.52-1.735-0.092l1.461-1.059
								c-0.326-0.624-0.959,0.093-2.681,1.309c-1.085,0.499-0.41-1.394,1.291-3.255c-1.144,1.028-2.85,2.232-2.619,1.438
								c0.631-0.715,1.149-1.034,1.403-1.188c0.536-2.137-3.463,1.133-2.087-1.355c0.637-0.668,0.926-1.031,1.076-1.274
								c0.587,0.673,0.989,1.286,0.799,1.384c1.806-1.827,1.611-2.654,4.512-4.774c-1.772,0.971-5.433,3.271-5.082,1.918
								c0.151-0.201,0.299-0.398,0.559-0.697l0.254-0.154c0.065-0.296-0.206-0.228-0.607-0.016c0.138-0.458,0.256-0.78,0.129-0.957
								c1.436-1.571,0.22-1.396,0.037-1.722c-1.954,2.02-1.971,1.368-3.288,3.327c0.098-0.181,0.283-0.19,0.535-0.105
								c0.097-0.021,0.171-0.007,0.313-0.1c-0.057,0.048-0.124,0.104-0.19,0.158c0.224,0.108,0.487,0.279,0.766,0.493
								c-1.206,0.816-2.261,1.463-1.446,0.074c-1.401,1.155-2.851,2.334-3.545,2.874c2.407-3.134,3.224-5.306,4.83-7.117
								c-1.888,0.352-2.566-1.074-6.768,2.197c-0.699,0.264,0.81-1.328,1.31-2c0.5-0.251,0.596-0.043,1.199-0.515
								c-1.396,0.526-1.683-0.922-4.382,1.598c0.612-1.736,2.701-2.105,1.51-2.435l0.896-0.7c2.636-5.685-9.072,4.273-5.425-2.763
								c-0.21,0.444-0.303,0.654-0.714,1.117c0.439-4.259-6.131-1.657-4.292-7.281c0.215-1.287-1.499,0.331-3.085,1.282l2.007-2.262
								l-3.007,1.926c-2.584,1.032,3.838-6.625-0.555-4.184l-1.3,1.574c-0.089-0.631-1.983-0.274-0.278-1.879
								c-0.298,0.228-1.604,1.388-1,0.495l1.1-1.135l-2.787,1.052c0.118-1.489,4.516-4.354,3.732-5.562
								c-0.799,0.064-4.292,2.225-4.896,3.114c0.095,0.204-0.31,1.081-1.411,2.217l-0.918,0.249
								c-3.334,3.251-6.948,6.384-8.399,9.521l2.583-1.45l-1.4,1.791l-0.589-0.383c-1.217,1.787,0.28,0.624,1.385-0.1
								c-0.798,0.9-1.307,1.578-1.505,2.01l3.698-2.6c-1.213,1.366-2.798,2.318-3.122,3.413c1.719-1.204,2.615-3.158,4.012-3.687
								c-1.21,1.781-2.503,2.926-0.906,1.964c-0.797,0.898-1.403,1.373-1.903,1.62c1.302-0.735,1.197,0.328,3.087-1.284
								c-1.546,2.145,1.458,0.487-1.668,3.593c0.833-0.659,2.944-1.954,3.34-1.82c-4.197,3.27,0.781,1.208-3.324,5.104
								c3.696-3.017,2.785-0.209,5.274-1.449c-0.3,0.232-0.907,0.706-0.794,0.479c0.083,0.636-0.817,1.756-1.216,2.622
								c2.801-2.741,3.991-2.824,5.993-4.245c-2.217,3.126-3.501,3.007-5.917,5.728c2.21-2.281,2.996-1.498,4.704-3.526
								c-1.307,1.996-0.507,1.095-2.616,3.575c3.503-3.426,0.896-0.278,3.292-2.142c-1.209,2.199-3.101,3.388-1.516,2.857
								C275.131,292.111,273.434,292.875,273.434,292.875z M292.145,299.457c-0.019,0.02-0.033,0.033-0.04,0.04
								c-0.156-0.062-0.29-0.113-0.375-0.147C291.813,299.375,291.928,299.411,292.145,299.457z M293.248,300.485
								c-0.053-0.207-0.202-0.382-0.388-0.537c0.646-0.729,1.388-1.398,1.46-1.256C293.807,299.094,293.665,299.744,293.248,300.485
								z M304.674,284.389c0.45-0.115,0.119,0.334-0.263,0.767c-0.115-0.045-0.275-0.069-0.534-0.054
								c-0.074,0.063-0.181,0.155-0.262,0.225C304.009,284.961,304.381,284.622,304.674,284.389z"/>
							<path fill="#202020" d="M301.778,286.71c-0.069,0.021-0.165,0.091-0.214,0.076c-0.139,0.21-0.255,0.394-0.344,0.55
								c0.232-0.193,0.464-0.388,0.68-0.567C301.857,286.75,301.82,286.724,301.778,286.71z"/>
							<path fill="#202020" d="M396.018,385.715l0.022-0.068c-0.06,0.099-0.12,0.194-0.234,0.332
								C395.887,385.867,395.948,385.804,396.018,385.715z"/>
							<polygon fill="#202020" points="304.268,318.94 304.765,318.435 304.235,318.784 							"/>
							<path fill="#202020" d="M395.139,398.413c-0.162,0.187-0.32,0.391-0.429,0.589
								C394.837,398.866,394.983,398.651,395.139,398.413z"/>
							<path fill="#202020" d="M397.246,401.381l-0.343,1.068C397.147,401.89,397.224,401.585,397.246,401.381z"/>
							<path fill="#202020" d="M398.227,404.31c0.372-0.326,0.64-0.583,0.885-0.817l0.011-0.02L398.227,404.31z"/>
							<path fill="#202020" d="M364.729,375.845c-0.037-0.016-0.088-0.015-0.165,0.016
								C364.004,376.073,364.276,376.04,364.729,375.845z"/>
							<path fill="#202020" d="M378.624,380.344c-0.457,0.266-0.906,0.526-1.232,0.65
								C377.406,381.311,377.495,381.477,378.624,380.344z"/>
							<path fill="#202020" d="M351.991,368.012c0.016-0.016,0.016-0.015,0.036-0.033c-0.029-0.016-0.042-0.042-0.064-0.063
								L351.991,368.012z"/>
							<path fill="#202020" d="M376.995,380.534c-0.228,0.561-0.006,0.611,0.397,0.461
								C377.388,380.727,377.432,380.365,376.995,380.534z"/>
							<path fill="#202020" d="M405.829,413.617l0.012,0.177c0.129-0.134,0.241-0.235,0.329-0.311L405.829,413.617z"/>
							<path fill="#202020" d="M406.17,413.483l0.338-0.132C406.46,413.303,406.403,413.278,406.17,413.483z"/>
							<path fill="#202020" d="M407.227,413.066l-0.718,0.285C406.58,413.431,406.612,413.587,407.227,413.066z"/>
							<path fill="#202020" d="M404.146,410.127l-0.747,0.696C403.563,410.69,403.805,410.466,404.146,410.127z"/>
							<path fill="#202020" d="M403.15,409.558c0.025,0.351-1.057,2.014-0.345,1.818l0.594-0.553
								C402.21,411.78,404.537,408.512,403.15,409.558z"/>
							<path fill="#202020" d="M408.715,397.342l0.087,1.233c0.648-0.887,1.523-2.075,2.007-1.964
								C412.254,393.484,409.274,398.509,408.715,397.342z"/>
							<path fill="#202020" d="M407.773,394.197c0.71-0.009,1.104-1.126,1.554-1.543
								C408.407,393.134,408.175,393.259,407.773,394.197z"/>
							<path fill="#202020" d="M392.969,379.55l1.834-1.784C394.271,377.757,394.104,378.468,392.969,379.55z"/>
							<polygon fill="#202020" points="380.844,386.155 379.993,387.548 381.768,386.006 							"/>
							<polygon fill="#202020" points="391.98,371.542 392.357,371.401 391.249,371.609 							"/>
							<path fill="#202020" d="M366.467,347.602l-2.133,2.323C364.917,349.706,367.445,347.226,366.467,347.602z"/>
							<path fill="#202020" d="M353.474,339.27c0.99-1.236,1.4-2.255,0.126-1.338C353.688,338.325,353.066,339.436,353.474,339.27z"
								/>
							<polygon fill="#202020" points="324.876,303.788 325.833,303.25 324.809,303.473 							"/>
						</g>
					</g>
				</g>
			</g>
		</g>
	</g>
</g>
<g id="Calque_16">
</g>
<g id="Calque_17">
</g>
<g id="Calque_18">
</g>
<g id="Calque_19">
</g>
<g id="Calque_20">
</g>
<g id="Calque_21">
</g>
<g id="Calque_22">
</g>
<g id="Calque_23">
</g>
<g id="Calque_24">
</g>
<g id="Calque_25">
</g>
<g id="Calque_26">
</g>
<g id="Calque_27">
</g>
</svg>
