<?xml version="1.0" encoding="UTF-8"?>
<svg version="1.1" xmlns="http://www.w3.org/2000/svg" viewBox="0 0 1181 1181">
<path d="M0 0 C0.6906616 0.02399553 1.38132321 0.04799106 2.09291395 0.07271373 C77.41819311 2.68972554 152.74347292 5.30671841 228.0687561 7.9236145 C229.19699725 7.96281104 230.3252384 8.00200758 231.48766868 8.04239189 C256.01748592 8.89458892 280.54730327 9.74678263 305.07712074 10.59897291 C317.10951932 11.01699044 329.14191787 11.4350087 341.17431641 11.85302734 C342.37157559 11.89462142 343.56883478 11.9362155 344.80237454 11.97907 C383.48942712 13.32310034 422.17647801 14.66717905 460.86352801 16.01128331 C500.67642598 17.39450265 540.48932567 18.77767227 580.30222749 20.16078083 C585.94762581 20.35690318 591.59302411 20.55302608 597.23842239 20.74914932 C598.34933115 20.78774269 599.4602399 20.82633606 600.60481255 20.86609892 C618.36433014 21.48307234 636.12384594 22.10009696 653.88336105 22.71714156 C671.81216272 23.3400668 689.74096634 23.96293612 707.66977184 24.5857514 C718.2743949 24.95413904 728.879017 25.32255443 739.48363594 25.69106059 C743.97683169 25.84719311 748.47002861 26.00329162 752.9632283 26.15931071 C754.71086106 26.21999727 756.45849377 26.28068492 758.20612645 26.34137368 C759.06032086 26.3710365 759.91451528 26.40069932 760.79459437 26.43126101 C765.81366322 26.60560196 770.83271876 26.78032041 775.85176312 26.95536538 C779.83995518 27.09444213 783.82815374 27.23333183 787.81635666 27.37209702 C788.96967539 27.41222625 788.96967539 27.41222625 790.14629348 27.45316617 C800.55319126 27.81490065 810.96036455 28.16735164 821.36784132 28.51200949 C826.09911087 28.66900981 830.83031468 28.82798729 835.56153305 28.98652102 C839.21368296 29.10786269 842.86593123 29.22581712 846.51819742 29.34359729 C848.7024431 29.41662177 850.88668337 29.48980845 853.07091713 29.56318855 C854.02659679 29.59287899 854.98227645 29.62256943 855.9669161 29.65315957 C862.33807508 29.8720984 868.65738857 30.36200327 875 31 C875 31.99 875 32.98 875 34 C876.32 34 877.64 34 879 34 C880.48771073 122.60748126 881.91718483 211.21587864 886.15762138 483.58520889 C886.18599395 485.41946347 886.21436656 487.25371805 886.24273921 489.08797263 C886.2567986 489.99690024 886.27085799 490.90582785 886.28534342 491.84229872 C886.34224358 495.52084187 886.39914426 499.19938502 886.45604538 502.87792816 C886.4845379 504.71993593 886.51302969 506.56194371 886.54152072 508.40395151 C887.00484717 538.35864857 887.47009108 568.31331544 887.93641271 598.26796601 C888.43654966 630.39521189 888.93505784 662.52248263 889.43168145 694.64978302 C889.48611371 698.1707058 889.54055232 701.6916285 889.5949955 705.21255112 C889.6150835 706.51175141 889.6150835 706.51175141 889.63557733 707.83719817 C889.84905438 721.64154109 890.063981 735.44586107 890.27945705 749.25017292 C890.49472896 763.0438329 890.70832153 776.83751812 890.9202375 790.63123007 C891.04547663 798.78004303 891.17192637 806.92883497 891.30020882 815.07760061 C891.39625152 821.18741796 891.48989924 827.29726997 891.58268384 833.40713762 C891.62017267 835.85238141 891.65839419 838.29761413 891.69748809 840.74283279 C891.97540384 858.16344934 892.04443566 875.5774677 892 893 C883.16828123 893.78052076 874.397911 894.17524578 865.53383923 894.26360416 C864.23573416 894.27995337 862.93762909 894.29630258 861.60018751 894.31314722 C858.01953118 894.35812348 854.43883362 894.39787423 850.85810623 894.43671906 C846.95251697 894.48003012 843.04698813 894.52828333 839.14144927 894.5758881 C832.30153886 894.65858023 825.4615975 894.73812559 818.6216259 894.81558418 C808.44578141 894.93082674 798.26999826 895.05092857 788.09422119 895.17196006 C769.89488701 895.38825433 751.6954983 895.59964273 733.49608201 895.80890168 C717.51712884 895.99263112 701.53819369 896.17783859 685.55927467 896.3645153 C683.41081315 896.38960923 681.26235162 896.41470293 679.11389009 896.4397964 C675.8752227 896.47762533 672.63655533 896.51545565 669.397888 896.55329009 C639.25915234 896.90534069 609.12039738 897.2556993 578.98160076 897.60249424 C577.27654591 897.62211383 577.27654591 897.62211383 575.5370455 897.64212977 C566.30870328 897.74830742 557.08036051 897.85443811 547.8520177 897.9605655 C512.06738494 898.37213081 476.28281492 898.78879513 440.49829102 899.2097168 C400.17970639 899.68395903 359.86107998 900.15440225 319.54238731 900.61937374 C315.21073604 900.66933956 310.87908491 900.71931673 306.54743385 900.76930046 C304.94793764 900.78775324 304.94793764 900.78775324 303.31612837 900.80657881 C288.46918702 900.97792832 273.62227366 901.1515365 258.77537913 901.32689351 C233.8564315 901.62116516 208.93743138 901.91044721 184.01831055 902.18969727 C183.08551293 902.20016019 182.1527153 902.21062311 181.19165109 902.22140309 C122.79307096 902.87548847 64.40285129 903.31133598 6 903 C5.42484129 831.13945977 4.85103118 759.27890881 4.28393555 687.41830444 C4.27547712 686.34652474 4.2670187 685.27474504 4.25830396 684.17048717 C4.07427439 660.85085922 3.89047343 637.53122949 3.70690638 614.2115979 C3.61682107 602.76769254 3.52668549 591.32378757 3.43652344 579.87988281 C3.42755438 578.74136809 3.41858533 577.60285336 3.40934448 576.42983819 C3.12112348 539.8465884 2.82961493 503.26336575 2.53631191 466.68015638 C2.23370399 428.9341141 1.93459115 391.18804559 1.6395834 353.44194311 C1.59745271 348.05153944 1.555284 342.66113607 1.51309204 337.27073288 C1.50064369 335.68011738 1.50064369 335.68011738 1.48794385 334.05736824 C1.36483713 318.33867693 1.23882108 302.62001079 1.11117554 286.90135574 C0.91864953 263.173376 0.7307286 239.44536384 0.55078125 215.71728516 C0.54367428 214.78134041 0.53656732 213.84539566 0.52924499 212.88108895 C-0.00854942 141.91992891 -0.16884152 70.96296316 0 0 Z M813.59839078 39.93715723 C809.61186515 40.07829687 805.62514995 40.21389727 801.63845879 40.35026604 C794.68054679 40.58900811 787.72276051 40.83116579 780.76504898 41.07567787 C770.41937701 41.43924181 760.07352195 41.7973798 749.72762626 42.15451321 C731.2486175 42.79257603 712.76979692 43.43595915 694.29105357 44.0816579 C678.135081 44.64618051 661.97904835 45.208944 645.82295418 45.76997566 C644.7492953 45.8072619 643.67563642 45.84454814 642.56944242 45.88296426 C638.21085962 46.03432874 633.8522766 46.1856865 629.49369319 46.33703328 C588.67524695 47.75444086 547.85699223 49.17729699 507.03882178 50.60262196 C470.76293735 51.8693013 434.48688734 53.13113388 398.21069336 54.38891602 C357.42688643 55.80300475 316.64318514 57.2200811 275.85965115 58.64202172 C271.51698486 58.79342315 267.17431833 58.94481736 262.83165169 59.09620857 C261.76241727 59.13348621 260.69318285 59.17076385 259.59154739 59.20917112 C243.4271752 59.77267103 227.2627244 60.33387712 211.09823418 60.89398003 C192.74282331 61.53001231 174.38753062 62.16934119 156.03238844 62.81308299 C145.75257131 63.17351761 135.47267186 63.53137108 125.1926381 63.88557431 C118.33862649 64.12198887 111.48473721 64.36174521 104.63094001 64.60429605 C100.71849779 64.74265946 96.80601799 64.87951299 92.89338344 65.01233654 C88.69198805 65.15499884 84.4908764 65.30474605 80.28975582 65.45528316 C79.05775567 65.49597348 77.82575552 65.53666379 76.55642202 65.57858714 C75.44651377 65.6195367 74.33660551 65.66048626 73.19306368 65.70267671 C72.23108889 65.73621255 71.26911411 65.76974838 70.27798858 65.80430045 C67.96952299 65.86148222 67.96952299 65.86148222 66 67 C64.94560711 81.26360959 64.78859242 95.50168531 64.68992615 109.79945374 C64.66880527 112.39735139 64.64730644 114.99524599 64.62546498 117.59313768 C64.57877171 123.2198702 64.5352659 128.84662016 64.49391747 134.47339439 C64.43237896 142.8464552 64.36583723 151.2194712 64.29835665 159.59248596 C64.17773163 174.58067335 64.06207638 189.568896 63.94855373 204.55713869 C63.848705 217.73878812 63.74724283 230.92042392 63.64421272 244.10204887 C63.63734973 244.9804317 63.63048673 245.85881452 63.62341577 246.76381501 C63.59553908 250.33162899 63.56765698 253.89944293 63.53976551 257.46725679 C63.27786122 290.97399727 63.0210726 324.48077527 62.76653818 357.98757245 C62.54249667 387.47604361 62.31389621 416.96447597 62.08129883 446.45288086 C61.81869478 479.74737753 61.55927023 513.04189677 61.30449444 546.33645433 C61.27699317 549.9292787 61.24948416 553.52210301 61.22197151 557.11492729 C61.21520226 557.99924439 61.20843301 558.88356148 61.20145863 559.79467606 C61.10786626 572.01489874 61.01247684 584.23510612 60.91565202 596.4553036 C60.75248272 617.05487743 60.59375731 637.65448088 60.44311523 658.25415039 C60.43739029 659.03592698 60.43166535 659.81770357 60.42576692 660.62317036 C59.96206774 724.08267113 59.87188159 787.53896052 60 851 C133.45201648 851.85887831 206.90403704 852.71740836 280.3560791 853.57409668 C281.44390259 853.58678432 282.53172608 853.59947196 283.65251391 853.61254407 C307.29617831 853.88830571 330.93984343 854.16400511 354.5835093 854.43964043 C366.17904539 854.57482033 377.77458133 854.71001397 389.37011719 854.84521484 C390.52398721 854.85866843 391.67785724 854.87212201 392.86669303 854.88598328 C430.23934773 855.32173738 467.61199177 855.75839853 504.98463037 856.19553214 C543.40300264 856.64489248 581.82138553 857.09333361 620.23978194 857.5406249 C625.67121236 857.60386148 631.10264265 857.66710852 636.53407288 857.73036194 C637.6030132 857.74281029 638.67195352 857.75525865 639.77328597 857.76808422 C656.95187136 857.96816447 674.13044534 858.16920825 691.30901521 858.37061609 C708.59646003 858.57327972 725.88391656 858.77491936 743.17138535 858.97552812 C753.43099606 859.09461433 763.69059707 859.21447128 773.95018555 859.33545729 C780.81956889 859.41638669 787.68896374 859.49628499 794.55836849 859.57537595 C798.46217738 859.6203511 802.36598001 859.66574492 806.26976913 859.71240658 C823.51366004 859.91820966 840.75466533 860.05529525 858 860 C858.72405423 856.07059922 859.13941687 852.31733389 859.20114285 848.32395035 C859.22059115 847.20812762 859.24003945 846.0923049 859.26007709 844.94266936 C859.27670222 843.72460743 859.29332735 842.5065455 859.31045628 841.25157261 C859.3318706 839.94615583 859.35328493 838.64073904 859.37534818 837.29576418 C859.43482135 833.66237523 859.4886303 830.02892089 859.54153668 826.3954312 C859.60004435 822.44565655 859.66380506 818.49596618 859.7269029 814.54626268 C859.8368275 807.61965886 859.94336886 800.69300935 860.04771042 793.76631927 C860.20290584 783.4644632 860.36327956 773.16269231 860.52469759 762.8609321 C860.81293843 744.4544733 861.09602238 726.04793789 861.37699324 707.64136684 C861.62321129 691.51291694 861.87124231 675.38449614 862.12106133 659.25610161 C862.14591246 657.65150241 862.14591246 657.65150241 862.17126563 656.01448707 C862.2385267 651.67176198 862.30579739 647.32903704 862.37308179 642.98631232 C863.00486029 602.20833196 863.63159057 561.43027542 864.25589326 520.65218 C864.80960597 484.48656896 865.36708093 448.3210179 865.92797852 412.15551758 C865.96391925 409.83806152 865.99985988 407.52060545 866.0358004 405.20314939 C866.05356926 404.05740973 866.07133811 402.91167008 866.08964541 401.73121104 C866.1791045 395.96272727 866.26855461 390.19424337 866.35799503 384.42575932 C866.3756434 383.28754089 866.39329176 382.14932246 866.41147493 380.97661256 C866.88061912 350.71610997 867.34689676 320.45556322 867.81227487 290.1950025 C867.86244322 286.93302556 867.91261196 283.67104862 867.9627816 280.4090717 C867.99605896 278.24536489 868.02933406 276.08165804 868.06260688 273.91795115 C868.29369512 258.89188763 868.52586928 243.86584124 868.75879988 228.83980617 C869.05952059 209.44048039 869.35823852 190.04112547 869.65355069 170.64171655 C869.79583404 161.29831478 869.93902248 151.95492929 870.08495331 142.61158371 C870.93692866 90.8085951 870.93692866 90.8085951 871 39 C851.84393368 38.84204117 832.74087604 39.25429399 813.59839078 39.93715723 Z " fill="#000000" transform="translate(0,278)"/>
</svg>
