<?xml version="1.0" encoding="UTF-8"?>
<svg version="1.1" xmlns="http://www.w3.org/2000/svg" width="1181" height="1181">
<path d="M0 0 C2.32023379 1.29444622 3.42695272 2.8209564 4.85546875 5.03515625 C0.96238942 9.59088738 -3.0220476 13.96219722 -7.29931641 18.15869141 C-9.07678615 19.96626384 -10.73835986 21.82797729 -12.390625 23.75 C-16.05856628 27.96808404 -19.86114376 32.04207972 -23.70703125 36.09765625 C-25.12265603 37.59610839 -26.5380157 39.09481103 -27.953125 40.59375 C-28.65679199 41.33866699 -29.36045898 42.08358398 -30.08544922 42.85107422 C-33.15810069 46.11025611 -36.21527576 49.38374153 -39.26953125 52.66015625 C-39.83728271 53.26915771 -40.40503418 53.87815918 -40.98999023 54.50561523 C-42.13272361 55.73153921 -43.27538338 56.95753182 -44.41796875 58.18359375 C-46.17967612 60.07284555 -47.94309994 61.96048083 -49.70703125 63.84765625 C-50.8945696 65.11845375 -52.08206982 66.38928688 -53.26953125 67.66015625 C-53.84727295 68.27842285 -54.42501465 68.89668945 -55.02026367 69.53369141 C-58.89364314 73.68315508 -62.74164115 77.85517694 -66.58203125 82.03515625 C-70.16063013 85.92953092 -73.80200802 89.73417564 -77.578125 93.4375 C-79.30597317 95.19981896 -80.91132298 97.03818717 -82.51953125 98.91015625 C-85.1108733 101.91983155 -87.81707908 104.74604241 -90.64453125 107.53515625 C-94.07335915 110.91757024 -97.26501643 114.41586067 -100.3984375 118.0703125 C-102.87056543 120.85214773 -105.52883672 123.42891576 -108.1796875 126.0390625 C-110.06683869 127.95622802 -111.831385 129.93090947 -113.58203125 131.97265625 C-116.15118396 134.96317341 -118.83770381 137.76632309 -121.64453125 140.53515625 C-124.43074266 143.28371615 -127.09761517 146.06375416 -129.64453125 149.03515625 C-132.89617753 152.82874358 -136.40166219 156.30908272 -139.95703125 159.81640625 C-141.94173467 161.82946257 -143.80550041 163.88962028 -145.64453125 166.03515625 C-148.89617753 169.82874358 -152.40166219 173.30908272 -155.95703125 176.81640625 C-157.94173467 178.82946257 -159.80550041 180.88962028 -161.64453125 183.03515625 C-164.89617753 186.82874358 -168.40166219 190.30908272 -171.95703125 193.81640625 C-173.94173467 195.82946257 -175.80550041 197.88962028 -177.64453125 200.03515625 C-180.89617753 203.82874358 -184.40166219 207.30908272 -187.95703125 210.81640625 C-189.94173467 212.82946257 -191.80550041 214.88962028 -193.64453125 217.03515625 C-196.89617753 220.82874358 -200.40166219 224.30908272 -203.95703125 227.81640625 C-205.94173467 229.82946257 -207.80550041 231.88962028 -209.64453125 234.03515625 C-212.89617753 237.82874358 -216.40166219 241.30908272 -219.95703125 244.81640625 C-221.94173467 246.82946257 -223.80550041 248.88962028 -225.64453125 251.03515625 C-228.89617753 254.82874358 -232.40166219 258.30908272 -235.95703125 261.81640625 C-237.94173467 263.82946257 -239.80550041 265.88962028 -241.64453125 268.03515625 C-244.89617753 271.82874358 -248.40166219 275.30908272 -251.95703125 278.81640625 C-253.94173467 280.82946257 -255.80550041 282.88962028 -257.64453125 285.03515625 C-260.19144733 288.00655834 -262.85831984 290.78659635 -265.64453125 293.53515625 C-268.41013533 296.26345032 -271.05740156 299.02032459 -273.58203125 301.97265625 C-276.30072373 305.14551545 -279.172048 308.09854007 -282.14453125 311.03515625 C-285.07571316 313.93107583 -287.90856299 316.83758196 -290.58203125 319.97265625 C-293.44625499 323.32440744 -296.50787594 326.44071703 -299.64453125 329.53515625 C-302.73944997 332.58853243 -305.76387422 335.65839333 -308.58203125 338.97265625 C-311.59805952 342.51194725 -314.83901026 345.7701007 -318.14453125 349.03515625 C-321.42921116 352.27967501 -324.65187129 355.51437983 -327.64453125 359.03515625 C-331.11996675 363.1239039 -334.92553362 366.84332309 -338.73999023 370.61108398 C-342.09514019 373.94097955 -345.24178577 377.37447024 -348.3046875 380.9765625 C-351.10288917 384.10745906 -354.11226781 387.0234532 -357.10009766 389.97119141 C-359.70573864 392.55537943 -362.20506234 395.17724783 -364.58203125 397.97265625 C-368.08163622 402.0794216 -371.90435134 405.82240431 -375.73974609 409.61083984 C-379.09497682 412.94081954 -382.24171 416.37438114 -385.3046875 419.9765625 C-388.10288917 423.10745906 -391.11226781 426.0234532 -394.10009766 428.97119141 C-396.70573864 431.55537943 -399.20506234 434.17724783 -401.58203125 436.97265625 C-404.59806018 440.51194803 -407.83901995 443.77009171 -411.14453125 447.03515625 C-414.36663716 450.21802799 -417.53505657 453.38205837 -420.45703125 456.84765625 C-424.53111542 461.64602205 -429.06101127 466.00189802 -433.55200195 470.40551758 C-436.69906258 473.50993399 -439.72766413 476.65371132 -442.61328125 480.00390625 C-446.87593038 484.94742847 -451.52653293 489.46731115 -456.18359375 494.03515625 C-460.10439896 497.91054672 -463.8012822 501.8901171 -467.3984375 506.06640625 C-470.91543578 510.03188082 -474.75414822 513.68375019 -478.5390625 517.390625 C-481.688969 520.50140223 -484.72339085 523.64875004 -487.61328125 527.00390625 C-491.87593038 531.94742847 -496.52653293 536.46731115 -501.18359375 541.03515625 C-504.46153759 544.27513162 -507.63588686 547.54212694 -510.64453125 551.03515625 C-514.89485937 555.96977756 -519.53711463 560.47769014 -524.18359375 565.03515625 C-528.17475839 568.98009118 -531.95540423 573.02922895 -535.61767578 577.28125 C-537.36104989 579.28387225 -539.18551992 581.17734923 -541.08203125 583.03515625 C-541.66855469 583.61265625 -542.25507812 584.19015625 -542.859375 584.78515625 C-543.28347656 585.19765625 -543.70757813 585.61015625 -544.14453125 586.03515625 C-537.1888283 594.49479497 -529.43307717 602.18900891 -521.10546875 609.29296875 C-518.05223954 612.00559869 -515.23049975 614.94116078 -512.36328125 617.84765625 C-510.35022493 619.83235967 -508.29006722 621.69612541 -506.14453125 623.53515625 C-502.35234366 626.78560276 -498.87317594 630.28965194 -495.3671875 633.84375 C-492.71751685 636.45616693 -489.93280322 638.86818246 -487.109375 641.2890625 C-484.32891293 643.75997014 -481.75334907 646.41682565 -479.14453125 649.06640625 C-477.20562123 650.9750208 -475.20753574 652.76226177 -473.14453125 654.53515625 C-469.63451614 657.55157548 -466.39401849 660.76610757 -463.1484375 664.0625 C-460.56206974 666.60853454 -457.82917845 668.95537182 -455.078125 671.3203125 C-452.57883987 673.53685022 -450.26171241 675.90677906 -447.921875 678.2890625 C-446.07859551 680.09993268 -444.16630326 681.78836979 -442.20703125 683.47265625 C-439.39876778 685.89133404 -436.74482532 688.39415308 -434.14453125 691.03515625 C-431.5644391 693.65556234 -428.93349518 696.13839037 -426.14453125 698.53515625 C-423.35556732 700.93192213 -420.7246234 703.41475016 -418.14453125 706.03515625 C-415.64513361 708.57330424 -413.10671333 710.97643928 -410.39453125 713.28515625 C-406.28091581 716.81573958 -402.48949413 720.62961649 -398.70800781 724.50878906 C-396.00290156 727.26164328 -393.22712349 729.8611585 -390.30078125 732.37890625 C-385.09101566 736.88545253 -380.32365533 741.80723209 -375.5 746.71875 C-374.79488281 747.43160156 -374.08976563 748.14445313 -373.36328125 748.87890625 C-372.43418945 749.82540039 -372.43418945 749.82540039 -371.48632812 750.79101562 C-369.51670855 752.67849927 -367.50997425 754.45896608 -365.44386292 756.23780823 C-361.48202924 759.69675615 -357.72503622 763.31284736 -354.01342773 767.03686523 C-353.01904694 768.02861755 -353.01904694 768.02861755 -352.00457764 769.04040527 C-349.83909134 771.2015319 -347.67723487 773.36624663 -345.515625 775.53125 C-343.99697705 777.04922322 -342.47818077 778.56704806 -340.95924377 780.08473206 C-337.7863875 783.25611933 -334.61533325 786.42929448 -331.44555664 789.60375977 C-327.39860987 793.65640331 -323.34718965 797.70454025 -319.29440212 801.75134182 C-316.16033937 804.88177742 -313.02867908 808.01460773 -309.89772224 811.14814949 C-308.40543913 812.64109591 -306.91242328 814.13331031 -305.41863823 815.62475395 C-303.32539836 817.71543177 -301.23542862 819.8093273 -299.14624023 821.90405273 C-298.53877457 822.50949417 -297.9313089 823.11493561 -297.30543518 823.73872375 C-293.59221204 827.47004221 -290.07505562 831.32718199 -286.63981724 835.31613255 C-284.90719746 837.30800199 -283.09202146 839.18728839 -281.20703125 841.03515625 C-280.53929687 841.69515625 -279.8715625 842.35515625 -279.18359375 843.03515625 C-278.51070312 843.69515625 -277.8378125 844.35515625 -277.14453125 845.03515625 C-272.47509969 849.6151351 -268.00357237 854.26612778 -263.734375 859.22265625 C-261.64353843 861.60631268 -259.4156544 863.8237995 -257.14453125 866.03515625 C-253.53733998 869.59875608 -250.14975236 873.25440481 -246.85546875 877.10546875 C-244.40001848 879.87485787 -241.75356786 882.43550749 -239.1171875 885.03125 C-236.57115296 887.61761776 -234.22431568 890.35050905 -231.859375 893.1015625 C-230.18448826 894.99010222 -228.44505538 896.76671273 -226.64453125 898.53515625 C-224.35127089 900.79313568 -222.18025097 903.09512129 -220.08203125 905.53515625 C-216.62067893 909.54876927 -213.0175424 913.41818598 -209.39453125 917.28515625 C-203.26564511 923.82798117 -197.19232355 930.41732167 -191.14453125 937.03515625 C-190.20863864 938.05496777 -189.27243641 939.07449523 -188.3359375 940.09375 C-182.56707128 946.37336488 -176.83881518 952.68776448 -171.14453125 959.03515625 C-169.64481997 960.70208272 -168.14481804 962.36874774 -166.64453125 964.03515625 C-165.90460938 964.85757813 -165.1646875 965.68 -164.40234375 966.52734375 C-162.87744881 968.22108519 -161.35137723 969.91376794 -159.82421875 971.60546875 C-155.83209399 976.03063755 -151.87127233 980.4785276 -147.95703125 984.97265625 C-145.87241961 987.34480054 -143.76024481 989.6907169 -141.64453125 992.03515625 C-136.81225849 997.39532436 -132.04634269 1002.80525199 -127.359375 1008.29296875 C-126.32945646 1009.49872301 -125.29950772 1010.70445148 -124.26953125 1011.91015625 C-123.74987793 1012.51867432 -123.23022461 1013.12719238 -122.69482422 1013.75415039 C-119.66560592 1017.29139483 -116.59304542 1020.77908202 -113.45703125 1024.22265625 C-110.42740257 1027.55742739 -107.53845033 1030.96803264 -104.70703125 1034.47265625 C-101.63116537 1038.27603128 -98.45699959 1041.93598277 -95.14453125 1045.53515625 C-91.12847278 1049.90285117 -87.35067671 1054.40364861 -83.625 1059.01953125 C-80.69484118 1062.58186606 -77.67672174 1066.05969878 -74.64453125 1069.53515625 C-70.20421142 1074.63179376 -65.84249811 1079.77523398 -61.5859375 1085.02734375 C-58.45886027 1088.8799029 -55.30146324 1092.70705233 -52.14453125 1096.53515625 C-46.79737969 1103.02396235 -41.46448011 1109.5240234 -36.14453125 1116.03515625 C-35.45488281 1116.87691406 -34.76523438 1117.71867187 -34.0546875 1118.5859375 C-31.74891423 1121.40039855 -29.44653844 1124.21761401 -27.14453125 1127.03515625 C-26.64904785 1127.64020996 -26.15356445 1128.24526367 -25.64306641 1128.86865234 C-18.32160493 1137.81264775 -11.1501311 1146.84172343 -4.14453125 1156.03515625 C-3.25743989 1157.18561313 -2.36940016 1158.33533929 -1.48046875 1159.484375 C2.73270869 1164.93201112 6.91393024 1170.38561772 10.85546875 1176.03515625 C9.53546875 1177.68515625 8.21546875 1179.33515625 6.85546875 1181.03515625 C1.99176898 1180.5822978 -0.94698944 1178.17228221 -4.58203125 1175.16015625 C-5.83053591 1174.15210434 -7.07923937 1173.14429863 -8.328125 1172.13671875 C-8.96218262 1171.62012695 -9.59624023 1171.10353516 -10.24951172 1170.57128906 C-13.18672593 1168.19033676 -16.16628397 1165.86440606 -19.14453125 1163.53515625 C-20.31528475 1162.61481301 -21.48585736 1161.6942396 -22.65625 1160.7734375 C-24.94630452 1158.97369853 -27.24075857 1157.17981516 -29.5390625 1155.390625 C-38.22739265 1148.61574426 -46.74255138 1141.64420692 -55.22900391 1134.61865234 C-57.81871144 1132.47783625 -60.41803254 1130.34913094 -63.01953125 1128.22265625 C-64.3034375 1127.17271484 -64.3034375 1127.17271484 -65.61328125 1126.1015625 C-67.34109423 1124.69104851 -69.07032411 1123.28226882 -70.80078125 1121.875 C-76.35701372 1117.34858648 -81.85260295 1112.75873933 -87.3125 1108.1171875 C-90.68265465 1105.25693805 -94.08461535 1102.44274391 -97.51953125 1099.66015625 C-102.63980332 1095.49527022 -107.6158097 1091.17777476 -112.58837891 1086.83911133 C-116.30388208 1083.60521238 -120.06090918 1080.44193692 -123.89453125 1077.34765625 C-128.56505947 1073.56839747 -132.98343298 1069.56449602 -137.40234375 1065.49609375 C-140.04469008 1063.1247573 -142.75147292 1060.88262628 -145.51953125 1058.66015625 C-150.3175429 1054.79167393 -154.81820033 1050.68277304 -159.3125 1046.47265625 C-162.61613381 1043.3955127 -165.98855385 1040.47865157 -169.51953125 1037.66015625 C-175.5362709 1032.83266968 -181.08984028 1027.55245161 -186.69921875 1022.265625 C-189.82496307 1019.32231385 -193.01326286 1016.46685406 -196.265625 1013.6640625 C-200.28033054 1010.18353816 -204.20007111 1006.59479101 -208.14453125 1003.03515625 C-208.94890625 1002.31328125 -209.75328125 1001.59140625 -210.58203125 1000.84765625 C-215.64582431 996.30322658 -220.67529657 991.7229382 -225.68530273 987.11938477 C-228.80050318 984.25942238 -231.93287665 981.42015624 -235.08203125 978.59765625 C-240.05102657 974.13748605 -244.95410481 969.60832111 -249.85546875 965.07421875 C-252.94328089 962.21849114 -256.04212517 959.3750116 -259.14453125 956.53515625 C-270.19616458 946.41143966 -281.1760891 936.21493652 -292.10058594 925.95410156 C-294.76551064 923.45215362 -297.43310269 920.9530604 -300.10083008 918.45410156 C-302.09149846 916.58878519 -304.08099646 914.7222272 -306.0703125 912.85546875 C-308.855601 910.24202844 -311.64538371 907.63348707 -314.4375 905.02734375 C-321.86530831 898.08123073 -329.21790407 891.08657388 -336.32861328 883.81420898 C-338.93176883 881.16854468 -341.5699106 878.65204885 -344.41162109 876.26367188 C-351.30509743 870.25541868 -357.6599816 863.66313736 -364.1171875 857.1953125 C-365.56857476 855.74460006 -367.02011033 854.294036 -368.4717865 852.84361267 C-371.50340734 849.81346042 -374.53322692 846.78152172 -377.56176758 843.74829102 C-381.42711215 839.8772497 -385.2969295 836.01071585 -389.16811466 832.1455164 C-392.16320862 829.15405073 -395.15589854 826.16018914 -398.14788628 823.16561699 C-399.57318346 821.73965681 -400.99921253 820.31442775 -402.42601204 818.88997078 C-415.60036425 805.73250915 -415.60036425 805.73250915 -420.83518982 799.56687927 C-422.62755137 797.47009887 -424.55287869 795.53040101 -426.51953125 793.59765625 C-427.2775 792.84742188 -428.03546875 792.0971875 -428.81640625 791.32421875 C-429.96882813 790.19113281 -429.96882813 790.19113281 -431.14453125 789.03515625 C-436.12480409 784.13844503 -440.94321108 779.20395909 -445.49609375 773.90625 C-448.07673802 770.9770353 -450.85357757 768.2620953 -453.64453125 765.53515625 C-457.78839973 761.44312294 -461.76750427 757.30143247 -465.5390625 752.859375 C-467.95113367 750.1186518 -470.57136497 747.5994876 -473.171875 745.0390625 C-475.71790954 742.45269474 -478.06474682 739.71980345 -480.4296875 736.96875 C-482.10457424 735.08021028 -483.84400712 733.30359977 -485.64453125 731.53515625 C-488.07842857 729.14462458 -490.35808684 726.68469363 -492.58203125 724.09765625 C-495.00070904 721.28939278 -497.50352808 718.63545032 -500.14453125 716.03515625 C-503.41655253 712.81357075 -506.4376918 709.4492348 -509.4296875 705.96875 C-511.10457424 704.08021028 -512.84400712 702.30359977 -514.64453125 700.53515625 C-517.07842857 698.14462458 -519.35808684 695.68469363 -521.58203125 693.09765625 C-524.00070904 690.28939278 -526.50352808 687.63545032 -529.14453125 685.03515625 C-531.72378185 682.49543439 -534.16670514 679.91064311 -536.51953125 677.16015625 C-539.26074574 673.96833116 -542.15139013 670.99212648 -545.14453125 668.03515625 C-548.73011824 664.49283426 -552.09344787 660.85959964 -555.3671875 657.03125 C-557.37721902 654.77382999 -559.49286078 652.65779912 -561.64453125 650.53515625 C-564.34836518 647.86761539 -566.9370866 645.18056133 -569.39453125 642.28515625 C-572.62792133 638.50783139 -576.11154483 635.02833998 -579.64453125 631.53515625 C-583.07299062 628.14510561 -586.46713931 624.78321541 -589.58203125 621.09765625 C-593.45452864 616.52636234 -597.76083347 612.39397201 -602.015625 608.18359375 C-605.71246168 604.51055645 -609.24436305 600.76816741 -612.61328125 596.7890625 C-615.29689063 593.71523441 -618.22086719 590.87884166 -621.14453125 588.03515625 C-619.79395011 585.02127552 -618.2884835 582.93168855 -615.94921875 580.609375 C-615.32015625 579.98160156 -614.69109375 579.35382812 -614.04296875 578.70703125 C-613.37523437 578.0521875 -612.7075 577.39734375 -612.01953125 576.72265625 C-611.33375 576.04332031 -610.64796875 575.36398437 -609.94140625 574.6640625 C-606.19454672 570.97418943 -602.38671749 567.42331308 -598.36328125 564.03515625 C-594.33544069 560.40442673 -590.5691471 556.49794298 -586.7734375 552.62695312 C-583.66927349 549.48013147 -580.5257126 546.45179634 -577.17578125 543.56640625 C-572.95214315 539.92449134 -569.04794962 536.01481326 -565.14453125 532.03515625 C-560.62477813 527.4271267 -556.03520898 523.02497828 -551.14453125 518.8125 C-547.65481847 515.7112904 -544.41236505 512.36681493 -541.14453125 509.03515625 C-536.62477813 504.4271267 -532.03520898 500.02497828 -527.14453125 495.8125 C-523.65481847 492.7112904 -520.41236505 489.36681493 -517.14453125 486.03515625 C-512.61474412 481.41689672 -508.01493641 477.00318345 -503.11328125 472.78125 C-499.80715024 469.84902667 -496.7353546 466.69104956 -493.64453125 463.53515625 C-489.92863101 459.74102653 -486.20140661 456.03379059 -482.17578125 452.56640625 C-477.95214315 448.92449134 -474.04794962 445.01481326 -470.14453125 441.03515625 C-465.59467176 436.39643232 -460.9743884 431.95959131 -456.05078125 427.71875 C-453.11221106 425.12341445 -450.38322616 422.33810207 -447.64453125 419.53515625 C-443.63797997 415.47811428 -439.58563795 411.59516425 -435.234375 407.90625 C-431.8703404 404.89433865 -428.74052351 401.65092536 -425.56835938 398.43945312 C-422.23854793 395.08438395 -418.80512815 391.93782596 -415.203125 388.875 C-412.57954402 386.53020561 -410.11463021 384.03885057 -407.64453125 381.53515625 C-404.59114842 378.44024492 -401.52129464 375.41581368 -398.20703125 372.59765625 C-394.66774051 369.58162821 -391.4095838 366.34068047 -388.14453125 363.03515625 C-384.29331188 359.13619942 -380.38031396 355.42691328 -376.203125 351.875 C-373.57954402 349.53020561 -371.11463021 347.03885057 -368.64453125 344.53515625 C-365.59114842 341.44024492 -362.52129464 338.41581368 -359.20703125 335.59765625 C-355.66774025 332.58162798 -352.4095868 329.34067724 -349.14453125 326.03515625 C-345.31465431 322.15787251 -341.42401819 318.47272015 -337.26953125 314.94140625 C-333.89598961 311.91514095 -330.75249589 308.66304919 -327.56860352 305.43969727 C-324.23870795 302.08454731 -320.80521726 298.93790173 -317.203125 295.875 C-314.07454205 293.07886609 -311.16055516 290.07189441 -308.21508789 287.08618164 C-304.97072351 283.81478559 -301.60826789 280.76544587 -298.10546875 277.77734375 C-295.05223954 275.06471381 -292.23049975 272.12915172 -289.36328125 269.22265625 C-286.73682003 266.63318744 -283.97476667 264.24678661 -281.17578125 261.84765625 C-278.90814553 259.82422745 -276.77876175 257.69862278 -274.64453125 255.53515625 C-271.28338643 252.12796835 -267.80751922 248.96057451 -264.17578125 245.84765625 C-261.90814553 243.82422745 -259.77876175 241.69862278 -257.64453125 239.53515625 C-254.28338643 236.12796835 -250.80751922 232.96057451 -247.17578125 229.84765625 C-244.90814553 227.82422745 -242.77876175 225.69862278 -240.64453125 223.53515625 C-237.28338643 220.12796835 -233.80751922 216.96057451 -230.17578125 213.84765625 C-227.90814553 211.82422745 -225.77876175 209.69862278 -223.64453125 207.53515625 C-220.28338643 204.12796835 -216.80751922 200.96057451 -213.17578125 197.84765625 C-210.90814553 195.82422745 -208.77876175 193.69862278 -206.64453125 191.53515625 C-203.28338643 188.12796835 -199.80751922 184.96057451 -196.17578125 181.84765625 C-193.90814553 179.82422745 -191.77876175 177.69862278 -189.64453125 175.53515625 C-186.28338643 172.12796835 -182.80751922 168.96057451 -179.17578125 165.84765625 C-176.10478808 163.10738542 -173.25666249 160.15568723 -170.3671875 157.2265625 C-167.71751685 154.61414557 -164.93280322 152.20213004 -162.109375 149.78125 C-160.03632801 147.9389995 -158.09017323 146.01113963 -156.14453125 144.03515625 C-153.58462991 141.43533442 -150.97673585 138.97247227 -148.20703125 136.59765625 C-145.21651409 134.02850354 -142.41336441 131.34198369 -139.64453125 128.53515625 C-136.28338643 125.12796835 -132.80751922 121.96057451 -129.17578125 118.84765625 C-126.90814553 116.82422745 -124.77876175 114.69862278 -122.64453125 112.53515625 C-119.28338643 109.12796835 -115.80751922 105.96057451 -112.17578125 102.84765625 C-109.90814553 100.82422745 -107.77876175 98.69862278 -105.64453125 96.53515625 C-102.28338643 93.12796835 -98.80751922 89.96057451 -95.17578125 86.84765625 C-92.10615803 84.10860784 -89.25924517 81.15831985 -86.37109375 78.23046875 C-83.69819951 75.59508882 -80.89084822 73.15749136 -78.04296875 70.71484375 C-75.55494099 68.51350232 -73.25259048 66.1542711 -70.92578125 63.78515625 C-68.4255694 61.32880776 -65.76772609 59.07206257 -63.11328125 56.78515625 C-60.63833868 54.5852073 -58.33739451 52.2413418 -56.01928711 49.87866211 C-54.21229437 48.10178984 -52.35108191 46.44078752 -50.4296875 44.7890625 C-46.21160139 41.12111942 -42.13764602 37.31850606 -38.08203125 33.47265625 C-36.58747064 32.06095325 -35.09267437 30.64949972 -33.59765625 29.23828125 C-32.85322266 28.53509766 -32.10878906 27.83191406 -31.34179688 27.10742188 C-26.80246185 22.82632458 -22.24310052 18.56701649 -17.66796875 14.32421875 C-15.3126534 12.13741799 -12.98883043 9.92307924 -10.68359375 7.68359375 C-10.13807861 7.16192627 -9.59256348 6.64025879 -9.03051758 6.1027832 C-7.55717414 4.69344848 -6.09458322 3.27289696 -4.6328125 1.8515625 C-2.14453125 0.03515625 -2.14453125 0.03515625 0 0 Z " fill="#000000" transform="translate(1159.14453125,-0.03515625)"/>
<path d="M0 0 C1.8125 0.875 1.8125 0.875 3.8125 2.875 C3.47724563 6.1741217 2.18392953 7.89633383 -0.07421875 10.23828125 C-0.67564697 10.87000244 -1.2770752 11.50172363 -1.89672852 12.15258789 C-2.54955811 12.82410889 -3.2023877 13.49562988 -3.875 14.1875 C-5.25288511 15.62994002 -6.63048285 17.07265459 -8.0078125 18.515625 C-8.7080957 19.24458984 -9.40837891 19.97355469 -10.12988281 20.72460938 C-13.20060967 23.93378856 -16.22563335 27.18470035 -19.25 30.4375 C-20.40474437 31.67597107 -21.55969264 32.91425205 -22.71484375 34.15234375 C-23.2857373 34.7644873 -23.85663086 35.37663086 -24.44482422 36.00732422 C-26.21355322 37.90292198 -27.98355249 39.79732588 -29.75390625 41.69140625 C-35.22810601 47.54944472 -40.6938679 53.4144875 -46.125 59.3125 C-51.84608971 65.52407831 -57.62214 71.68330934 -63.40234375 77.83984375 C-66.98484645 81.65636551 -70.55600519 85.48335067 -74.125 89.3125 C-81.11068539 96.80393637 -88.13092291 104.26260505 -95.15527344 111.71777344 C-98.50066868 115.26894023 -101.84398894 118.82205932 -105.1875 122.375 C-106.52082318 123.79167623 -107.85415652 125.20834289 -109.1875 126.625 C-109.8475 127.32625 -110.5075 128.0275 -111.1875 128.75 C-149.1875 169.12499999 -149.1875 169.12499999 -151.18774414 171.25024414 C-152.52028398 172.66607789 -153.85280353 174.08193074 -155.18530273 175.49780273 C-158.53060987 179.05237038 -161.87627549 182.60659931 -165.22265625 186.16015625 C-171.71809739 193.05841545 -178.20909864 199.96073248 -184.6875 206.875 C-191.83711563 214.50564102 -199.00259103 222.12126716 -206.17138672 229.73388672 C-209.51075611 233.28029863 -212.84907757 236.82769669 -216.1875 240.375 C-217.52082826 241.79167145 -218.85416159 243.20833811 -220.1875 244.625 C-220.8475 245.32625 -221.5075 246.0275 -222.1875 246.75 C-234.85416667 260.20833333 -247.52083333 273.66666667 -260.1875 287.125 C-260.84806396 287.82689453 -261.50862793 288.52878906 -262.18920898 289.25195312 C-263.51666279 290.66228156 -264.84429822 292.07243907 -266.17211914 293.48242188 C-269.59695242 297.11965118 -273.01815459 300.76019639 -276.43359375 304.40625 C-282.64136772 311.02744492 -288.85687832 317.61056471 -295.32421875 323.98046875 C-297.15582558 325.84279435 -298.86453342 327.76572523 -300.5625 329.75 C-303.44964819 333.12057765 -306.52997378 336.26003521 -309.6875 339.375 C-312.78242241 342.42837286 -315.80684317 345.49823732 -318.625 348.8125 C-322.12460497 352.91926535 -325.94732009 356.66224806 -329.78271484 360.45068359 C-333.13794557 363.78066329 -336.28467875 367.21422489 -339.34765625 370.81640625 C-342.14585792 373.94730281 -345.15523656 376.86329695 -348.14306641 379.81103516 C-350.74870739 382.39522318 -353.24803109 385.01709158 -355.625 387.8125 C-359.12460497 391.91926535 -362.94732009 395.66224806 -366.78271484 399.45068359 C-370.13794557 402.78066329 -373.28467875 406.21422489 -376.34765625 409.81640625 C-379.14585792 412.94730281 -382.15523656 415.86329695 -385.14306641 418.81103516 C-387.74870739 421.39522318 -390.24803109 424.01709158 -392.625 426.8125 C-395.64102849 430.35179126 -398.88198224 433.60994145 -402.1875 436.875 C-405.45132932 440.09897793 -408.65580164 443.31017874 -411.625 446.8125 C-414.78760024 450.53457743 -418.2172126 453.94365537 -421.6875 457.375 C-426.78332142 462.41349888 -426.78332142 462.41349888 -431.5625 467.75 C-435.61111065 472.53102263 -440.1255354 476.86287141 -444.59521484 481.24560547 C-447.74219581 484.34993775 -450.77070856 487.49364293 -453.65625 490.84375 C-457.91889913 495.78727222 -462.56950168 500.3071549 -467.2265625 504.875 C-470.50450634 508.11497537 -473.67885561 511.38197069 -476.6875 514.875 C-480.93782812 519.80962131 -485.58008338 524.31753389 -490.2265625 528.875 C-493.50450634 532.11497537 -496.67885561 535.38197069 -499.6875 538.875 C-503.93782812 543.80962131 -508.58008338 548.31753389 -513.2265625 552.875 C-516.49988026 556.11040288 -519.66771534 559.37160333 -522.66796875 562.86328125 C-527.02877314 567.9296373 -531.8436283 572.51631143 -536.66601562 577.13867188 C-537.69178711 578.14317383 -537.69178711 578.14317383 -538.73828125 579.16796875 C-539.66120972 580.05778442 -539.66120972 580.05778442 -540.6027832 580.96557617 C-542.40868848 583.1415098 -543.26794007 585.21591773 -544.1875 587.875 C-543.53116577 588.48589478 -543.53116577 588.48589478 -542.86157227 589.10913086 C-535.50814976 595.96001956 -528.17907295 602.80779716 -521.125 609.96875 C-518.59318186 612.45973236 -515.91438728 614.75195376 -513.21875 617.0625 C-510.14638689 619.80399323 -507.29704846 622.75710156 -504.40625 625.6875 C-502.39319368 627.67220342 -500.33303597 629.53596916 -498.1875 631.375 C-494.39671215 634.62424673 -490.91871576 638.12686032 -487.4140625 641.6796875 C-484.74116826 644.31506743 -481.93381697 646.75266489 -479.0859375 649.1953125 C-476.59653281 651.3978722 -474.2929897 653.75852636 -471.96484375 656.12890625 C-470.12156426 657.93977643 -468.20927201 659.62821354 -466.25 661.3125 C-463.44173653 663.73117779 -460.78779407 666.23399683 -458.1875 668.875 C-455.60740785 671.49540609 -452.97646393 673.97823412 -450.1875 676.375 C-446.67748489 679.39141923 -443.43698724 682.60595132 -440.19140625 685.90234375 C-437.60503849 688.44837829 -434.8721472 690.79521557 -432.12109375 693.16015625 C-430.23255403 694.83504299 -428.45594352 696.57447587 -426.6875 698.375 C-424.33716899 700.76777491 -421.923276 703.00691112 -419.375 705.1875 C-416.16416245 707.95118029 -413.16482835 710.86119596 -410.1875 713.875 C-407.33226317 716.76489828 -404.47249804 719.55951745 -401.375 722.1875 C-397.04577705 725.88446321 -393.08199524 729.92431158 -389.10620117 733.9934082 C-386.31581341 736.82878129 -383.46995254 739.527505 -380.44726562 742.11523438 C-376.35013999 745.68341098 -372.50283624 749.44719178 -368.6875 753.3125 C-368.00751953 753.99626709 -367.32753906 754.68003418 -366.62695312 755.38452148 C-363.75524857 758.27237773 -360.88961562 761.16623075 -358.0234375 764.05957031 C-355.91357213 766.18765725 -353.80060355 768.31262917 -351.6875 770.4375 C-351.05392578 771.07937256 -350.42035156 771.72124512 -349.76757812 772.38256836 C-345.96767953 776.20290187 -342.04988633 779.82101431 -337.96107483 783.33094788 C-335.4037105 785.55735736 -333.01939033 787.91097289 -330.625 790.3125 C-329.75746094 791.17746094 -328.88992188 792.04242187 -327.99609375 792.93359375 C-325.93109242 795.05028835 -323.99439589 797.24736217 -322.07250977 799.49438477 C-317.98956829 804.1736537 -313.63131811 808.53974164 -309.21875 812.90625 C-308.3796106 813.74160278 -307.54047119 814.57695557 -306.67590332 815.43762207 C-304.015531 818.08587086 -301.35193987 820.73084406 -298.6875 823.375 C-295.17412727 826.86162601 -291.66418029 830.35164926 -288.15625 833.84375 C-287.36126099 834.63044067 -286.56627197 835.41713135 -285.74719238 836.22766113 C-281.55963039 840.39696697 -277.53931923 844.641975 -273.70251465 849.1373291 C-271.33304033 851.85503653 -268.76784762 854.35963131 -266.1875 856.875 C-262.22086235 860.78753596 -258.44164849 864.77061196 -254.828125 869.015625 C-252.40026113 871.76720405 -249.77000081 874.30146074 -247.15625 876.875 C-244.63324541 879.43805228 -242.31187183 882.14845824 -239.96875 884.875 C-237.55652191 887.58346663 -234.98341903 890.10652645 -232.375 892.625 C-230.47228684 894.5820764 -228.67976996 896.58085307 -226.890625 898.640625 C-223.33727985 902.73132372 -219.65953885 906.68804027 -215.9375 910.625 C-209.63039563 917.32454642 -203.3907148 924.07923931 -197.1875 930.875 C-196.25298335 931.89357718 -195.31808088 932.91180052 -194.3828125 933.9296875 C-189.39340035 939.36045746 -184.43255987 944.81509455 -179.5078125 950.3046875 C-176.87670168 953.219285 -174.22093641 956.11035594 -171.5625 959 C-167.98415859 962.89168343 -164.45918387 966.82181069 -160.99609375 970.81640625 C-158.7573875 973.3645665 -156.47339788 975.86910593 -154.1875 978.375 C-150.73106229 982.16509082 -147.31906146 985.98556033 -143.95703125 989.859375 C-141.93635044 992.16107764 -139.87437382 994.42264379 -137.8125 996.6875 C-134.70221149 1000.12878205 -131.72271688 1003.63821298 -128.8125 1007.25 C-125.13178153 1011.80280507 -121.26101352 1016.10917411 -117.27612305 1020.3918457 C-113.47364986 1024.50260957 -109.94486701 1028.79766523 -106.43359375 1033.16015625 C-104.0991941 1035.98173495 -101.66759402 1038.68090712 -99.1875 1041.375 C-95.07371091 1045.8448512 -91.21662703 1050.46544893 -87.40234375 1055.19140625 C-85.23117173 1057.82208557 -82.98508643 1060.35442424 -80.6875 1062.875 C-76.82216655 1067.12151686 -73.17351754 1071.5051311 -69.5625 1075.96875 C-67.02085233 1079.07892413 -64.42163887 1082.13408621 -61.8125 1085.1875 C-58.01129525 1089.64554763 -54.34147412 1094.18410548 -50.75 1098.8125 C-47.02156451 1103.6165738 -43.17375141 1108.28273064 -39.1875 1112.875 C-34.7704118 1117.96755114 -30.53380399 1123.1641342 -26.40014648 1128.48876953 C-22.91908993 1132.96751787 -19.34782476 1137.36473484 -15.75 1141.75 C-10.26131064 1148.45731054 -5.02117645 1155.32336445 0.12890625 1162.29296875 C2.88023843 1166.0045889 5.79224322 1169.57167042 8.80078125 1173.078125 C9.8125 1174.875 9.8125 1174.875 9.60546875 1176.984375 C8.8125 1178.875 8.8125 1178.875 6.8125 1180.875 C2.38159669 1180.61747741 -0.1926884 1178.67539406 -3.625 1176 C-4.3977124 1175.40324463 -4.3977124 1175.40324463 -5.18603516 1174.79443359 C-6.86052068 1173.49707089 -8.52431473 1172.1868081 -10.1875 1170.875 C-11.32127397 1169.98914722 -12.45539105 1169.10373341 -13.58984375 1168.21875 C-15.94149606 1166.38033666 -18.28719517 1164.53465147 -20.62890625 1162.68359375 C-22.94264611 1160.8546976 -25.26247498 1159.03417532 -27.58984375 1157.22265625 C-36.27716382 1150.45240882 -44.78835084 1143.48170725 -53.27197266 1136.45849609 C-57.56194779 1132.91213123 -61.87699306 1129.39635259 -66.1875 1125.875 C-68.94193103 1123.62173336 -71.69600483 1121.36803494 -74.44921875 1119.11328125 C-76.24069681 1117.64892044 -78.03486638 1116.18784469 -79.83203125 1114.73046875 C-85.63465837 1110.01530323 -91.33460531 1105.19574414 -96.99755859 1100.31494141 C-100.49928453 1097.30294059 -104.03509665 1094.34462827 -107.625 1091.4375 C-113.95695047 1086.29221081 -120.09461528 1080.9298229 -126.24365234 1075.56884766 C-129.4079274 1072.81153287 -132.57874128 1070.06177672 -135.75 1067.3125 C-136.36810547 1066.77616943 -136.98621094 1066.23983887 -137.62304688 1065.68725586 C-141.28819525 1062.50999438 -144.96834534 1059.35118432 -148.65942383 1056.20410156 C-154.4462687 1051.26823992 -160.13136716 1046.24972836 -165.73828125 1041.109375 C-168.50979524 1038.58097628 -171.32877003 1036.11316 -174.16015625 1033.65234375 C-176.52239173 1031.58140513 -178.85545853 1029.47987152 -181.1875 1027.375 C-184.16812721 1024.68516569 -187.15995233 1022.01189636 -190.1875 1019.375 C-194.08679326 1015.97884136 -197.923791 1012.51598157 -201.76171875 1009.05078125 C-203.82452788 1007.20056437 -205.9046237 1005.37555191 -208 1003.5625 C-212.16785805 999.93351652 -216.21348364 996.17671029 -220.26660156 992.42089844 C-224.36677199 988.62391797 -228.50721036 984.87509814 -232.66796875 981.14453125 C-237.02595391 977.21896632 -241.34055731 973.24604065 -245.65966797 969.27783203 C-247.15870702 967.90143728 -248.65914076 966.52658261 -250.16015625 965.15234375 C-256.42671885 959.41479683 -262.67806378 953.66105774 -268.91796875 947.89453125 C-271.04304916 945.93083339 -273.17062256 943.96990626 -275.30078125 942.01171875 C-283.58150985 934.394589 -291.77859026 926.69073819 -299.96289062 918.97021484 C-302.21663187 916.84756259 -304.47484648 914.72977094 -306.734375 912.61328125 C-320.33619247 899.86333361 -320.33619247 899.86333361 -326.03515625 893.96484375 C-327.87967015 892.17389105 -329.76369937 890.51515101 -331.71655273 888.84594727 C-336.65851344 884.53169184 -341.26058637 879.9093408 -345.875 875.25 C-346.77694092 874.34427246 -347.67888184 873.43854492 -348.6081543 872.50537109 C-351.95355444 869.14578694 -355.29438392 865.78168738 -358.6348877 862.41723633 C-361.920418 859.10865649 -365.20983791 855.80397519 -368.5 852.5 C-369.35231201 851.63938965 -370.20462402 850.7787793 -371.08276367 849.89208984 C-375.41330413 845.54398562 -379.80157687 841.34911597 -384.48091125 837.37686157 C-387.33033252 834.86926488 -389.83062411 832.06075459 -392.375 829.25 C-401.28652043 819.56147941 -410.66821655 810.3392477 -420.02026367 801.07958984 C-425.42800347 795.71456928 -430.7810847 790.38200863 -435.71484375 784.5703125 C-438.21988847 781.68652096 -440.95688855 779.0430092 -443.6875 776.375 C-447.7662296 772.34709569 -451.67324746 768.27240225 -455.3828125 763.8984375 C-458.16328846 760.78093415 -461.15986493 757.88198437 -464.13232422 754.94970703 C-467.44848265 751.66102109 -470.54764059 748.25312102 -473.578125 744.703125 C-475.75243204 742.23328108 -478.09486519 739.95707561 -480.44140625 737.65234375 C-482.25227643 735.80906426 -483.94071354 733.89677201 -485.625 731.9375 C-488.04367779 729.12923653 -490.54649683 726.47529407 -493.1875 723.875 C-496.45952128 720.6534145 -499.48066055 717.28907855 -502.47265625 713.80859375 C-504.14754299 711.92005403 -505.88697587 710.14344352 -507.6875 708.375 C-510.12139732 705.98446833 -512.40105559 703.52453738 -514.625 700.9375 C-517.04367779 698.12923653 -519.54649683 695.47529407 -522.1875 692.875 C-524.78732183 690.31509866 -527.25018398 687.7072046 -529.625 684.9375 C-532.19415271 681.94698284 -534.88067256 679.14383316 -537.6875 676.375 C-541.0946879 673.01385518 -544.26208174 669.53798797 -547.375 665.90625 C-549.3984288 663.63861428 -551.52403347 661.5092305 -553.6875 659.375 C-556.43250542 656.66696435 -559.0602091 653.93330751 -561.5625 651 C-564.44964857 647.6294219 -567.52998137 644.48997164 -570.6875 641.375 C-573.74067342 638.36269221 -576.72822432 635.33951074 -579.5 632.0625 C-582.85638289 628.12098498 -586.51067934 624.51361992 -590.1875 620.875 C-594.39562004 616.71051003 -598.46029129 612.52969909 -602.27734375 608 C-605.50920576 604.40463613 -609.00044368 601.05674658 -612.48266602 597.70483398 C-616.2333649 594.03558596 -619.2401875 590.21927289 -622.1875 585.875 C-621.77089111 585.48868408 -621.35428223 585.10236816 -620.92504883 584.7043457 C-613.04675441 577.38778351 -605.21201152 570.05005003 -597.70239258 562.3527832 C-595.00285178 559.60604922 -592.23087286 557.01446551 -589.3125 554.5 C-585.06130425 550.82263486 -581.12177691 546.88611825 -577.1875 542.875 C-572.65771287 538.25674047 -568.05790516 533.8430272 -563.15625 529.62109375 C-559.85011899 526.68887042 -556.77832335 523.53089331 -553.6875 520.375 C-549.97159976 516.58087028 -546.24437536 512.87363434 -542.21875 509.40625 C-537.9951119 505.76433509 -534.09091837 501.85465701 -530.1875 497.875 C-525.66774688 493.26697045 -521.07817773 488.86482203 -516.1875 484.65234375 C-512.69778722 481.55113415 -509.4553338 478.20665868 -506.1875 474.875 C-501.66774688 470.26697045 -497.07817773 465.86482203 -492.1875 461.65234375 C-488.69778722 458.55113415 -485.4553338 455.20665868 -482.1875 451.875 C-477.65771287 447.25674047 -473.05790516 442.8430272 -468.15625 438.62109375 C-464.84994604 435.68871702 -461.7803021 432.52917362 -458.6875 429.375 C-454.30235084 424.94244382 -449.90938096 420.63171699 -445.140625 416.609375 C-442.03813073 413.85436009 -439.16340104 410.87096427 -436.25073242 407.91870117 C-433.66679259 405.3132993 -431.04514479 402.81424473 -428.25 400.4375 C-424.71070926 397.42147196 -421.45255255 394.18052422 -418.1875 390.875 C-414.33628063 386.97604317 -410.42328271 383.26675703 -406.24609375 379.71484375 C-403.62251277 377.37004936 -401.15759896 374.87869432 -398.6875 372.375 C-395.63411717 369.28008867 -392.56426339 366.25565743 -389.25 363.4375 C-385.710709 360.42147173 -382.45255555 357.18052099 -379.1875 353.875 C-375.35762306 349.99771626 -371.46698694 346.3125639 -367.3125 342.78125 C-363.93895836 339.7549847 -360.79546464 336.50289294 -357.61157227 333.27954102 C-354.2816767 329.92439106 -350.84818601 326.77774548 -347.24609375 323.71484375 C-344.62251277 321.37004936 -342.15759896 318.87869432 -339.6875 316.375 C-336.63411717 313.28008867 -333.56426339 310.25565743 -330.25 307.4375 C-326.14402263 303.93856651 -322.40168998 300.11667411 -318.61401367 296.28198242 C-315.26183357 292.9043548 -311.80544352 289.73258681 -308.1796875 286.6484375 C-304.84566175 283.68050085 -301.76489515 280.45944731 -298.62890625 277.28515625 C-295.91547273 274.60645468 -293.07972977 272.12891882 -290.18359375 269.65234375 C-287.12083273 266.92522777 -284.28526507 263.98095363 -281.40625 261.0625 C-278.77978878 258.47303119 -276.01773542 256.08663036 -273.21875 253.6875 C-270.95111428 251.6640712 -268.8217305 249.53846653 -266.6875 247.375 C-263.32635518 243.9678121 -259.85048797 240.80041826 -256.21875 237.6875 C-253.95111428 235.6640712 -251.8217305 233.53846653 -249.6875 231.375 C-246.32635518 227.9678121 -242.85048797 224.80041826 -239.21875 221.6875 C-236.95111428 219.6640712 -234.8217305 217.53846653 -232.6875 215.375 C-229.32635518 211.9678121 -225.85048797 208.80041826 -222.21875 205.6875 C-219.14775683 202.94722917 -216.29963124 199.99553098 -213.41015625 197.06640625 C-210.7604856 194.45398932 -207.97577197 192.04197379 -205.15234375 189.62109375 C-203.07929676 187.77884325 -201.13314198 185.85098338 -199.1875 183.875 C-196.62759866 181.27517817 -194.0197046 178.81231602 -191.25 176.4375 C-188.25948284 173.86834729 -185.45633316 171.18182744 -182.6875 168.375 C-179.32635518 164.9678121 -175.85048797 161.80041826 -172.21875 158.6875 C-169.95111428 156.6640712 -167.8217305 154.53846653 -165.6875 152.375 C-162.32635518 148.9678121 -158.85048797 145.80041826 -155.21875 142.6875 C-152.95111428 140.6640712 -150.8217305 138.53846653 -148.6875 136.375 C-145.32635518 132.9678121 -141.85048797 129.80041826 -138.21875 126.6875 C-135.95111428 124.6640712 -133.8217305 122.53846653 -131.6875 120.375 C-128.32635518 116.9678121 -124.85048797 113.80041826 -121.21875 110.6875 C-118.95111428 108.6640712 -116.8217305 106.53846653 -114.6875 104.375 C-111.32635518 100.9678121 -107.85048797 97.80041826 -104.21875 94.6875 C-101.14775683 91.94722917 -98.29963124 88.99553098 -95.41015625 86.06640625 C-92.7604856 83.45398932 -89.97577197 81.04197379 -87.15234375 78.62109375 C-84.37325486 76.1514064 -81.79889504 73.49596678 -79.19140625 70.84765625 C-76.60503849 68.30162171 -73.8721472 65.95478443 -71.12109375 63.58984375 C-68.62318444 61.3745262 -66.30725011 59.0060183 -63.96875 56.625 C-61.46853815 54.16865151 -58.81069484 51.91190632 -56.15625 49.625 C-53.68130743 47.42505105 -51.38036326 45.08118555 -49.06225586 42.71850586 C-47.25526312 40.94163359 -45.39405066 39.28063127 -43.47265625 37.62890625 C-39.2545653 33.96095897 -35.18070412 30.15826179 -31.125 26.3125 C-29.6395193 24.90994822 -28.15383799 23.5076089 -26.66796875 22.10546875 C-25.92466309 21.40341309 -25.18135742 20.70135742 -24.41552734 19.97802734 C-20.92899668 16.68710305 -17.43614626 13.40303851 -13.9375 10.125 C-13.330271 9.55322021 -12.72304199 8.98144043 -12.09741211 8.39233398 C-2.95058294 -0.16860474 -2.95058294 -0.16860474 0 0 Z " fill="#000000" transform="translate(633.1875,0.125)"/>
</svg>
