<?xml version="1.0" encoding="utf-8"?>
<!-- Generator: Adobe Illustrator 16.0.0, SVG Export Plug-In . SVG Version: 6.00 Build 0)  -->
<!DOCTYPE svg PUBLIC "-//W3C//DTD SVG 1.1//EN" "http://www.w3.org/Graphics/SVG/1.1/DTD/svg11.dtd">
<svg version="1.1" xmlns="http://www.w3.org/2000/svg" xmlns:xlink="http://www.w3.org/1999/xlink" x="0px" y="0px"
	 width="482.499px" height="368.176px" viewBox="0 0 482.499 368.176" enable-background="new 0 0 482.499 368.176"
	 xml:space="preserve">
<g id="flatware">
</g>
<g id="cutting">
</g>
<g id="timer">
</g>
<g id="heat">
</g>
<g id="cost-1">
</g>
<g id="cost-2">
	<g>
		<path d="M404.149,160.843c-0.131-1.963-0.296-3.907-0.51-5.839c-0.105-0.963-0.228-1.934-0.36-2.887
			c-0.117-0.892-0.232-1.777-0.348-2.654c-0.245-1.832-0.551-3.804-1.071-5.812c-0.517-2.007-1.265-4.043-2.256-5.918
			c-0.822-1.261-1.38-2.564-1.456-3.233c-0.169-1.318-0.462-2.315-0.757-3.197c-0.209-2.863-1.037-3.162-1.849-6.21
			c-0.391-4.052-1.304-7.037-1.93-8.53c-0.64-1.492-0.989-1.491-0.525,0.491l-0.962-2.207c-0.299-0.702-0.599-1.402-0.896-2.1
			c-0.584-1.438-1.164-2.867-1.735-4.276c-1.162-2.868-2.39-5.746-3.866-8.393c-1.45-2.406-3.129-4.757-5.171-6.896
			c-0.868-0.904-1.539-1.618-2.067-2.263c-0.271-0.321-0.484-0.621-0.729-0.936c-0.222-0.299-0.701-2.38-0.889-3.076
			c-0.392-1.331-0.821-2.827-2.622-5.689c-0.1-0.417-0.803-1.458-1.758-2.638c-0.457-0.55-0.973-1.171-1.519-1.828
			c-0.536-0.649-1.188-1.438-1.813-2.156c-2.527-2.939-5.26-5.685-5.742-6.394l0.701,0.703c-4.402-5.425-6.758-9.578-11.431-14.456
			c-1.599-1.711-3.231-3.411-4.881-5.104c-1.732-1.797-3.948-3.849-6.593-5.422c-1.312-0.796-2.7-1.461-4.061-1.998
			c-0.674-0.272-3.666-4.269-4.94-5.508c-1.284-1.256-2.521-2.127-3.594-2.864c-1.004-0.672-2.006-1.341-3.002-2.008
			c-1.999-1.322-3.999-2.61-5.99-3.859c-3.986-2.492-7.936-4.831-11.775-6.987c-0.447,0.451,3.463,1.764,3.226,2.591
			c-8.905-5.227-18.056-10.501-27.957-14.292c-1.73-0.817-3.838-1.886-4.608-2.346c-3.157-1.287-1.998-0.346-4.347-1.166
			l-0.159-0.635c-3.621-0.601-4.964-2.084-8.383-2.689c-0.115,0.088-0.48,0.066-0.966-0.016c-0.551-0.11-1.245-0.249-1.931-0.385
			c0.016-0.302-1.007-0.48-1.942-0.609c-0.942-0.133-1.826-0.231-1.7-0.489L258.943,0.7c-0.74-0.113-1.269-0.146-2.15-0.361
			c-0.714,0.009-4.341,0.04-7.907,0.186c-3.572,0.135-8.441,0.294-8.441,0.294C238.548,0.708,229.753,1,226.509,0.615
			c-0.717,0.008-1.23,0.653-2.842,0.31c-0.723-0.448-1.687-0.105-2.893-0.344c-0.549,0.07-1.096,0.122-1.641,0.158
			c-0.145,0.156-0.32,0.297-0.451,0.297c-2.59-0.005-6.079,0.254-8.586-0.654c-0.297,0.005-0.581,0.012-0.822,0.017
			c-0.012,0.218,0.443,0.247,0.41,0.347c-0.398,0.084-0.955,0.144-1.512,0.198c-0.18,0.011-0.359,0.023-0.535,0.036l-0.331-0.041
			c-0.247,0.033-0.515,0.057-0.776,0.077c-0.211,0.115-0.376,0.257-0.465,0.431c1.113,0.041,1.499,0.213,1.487,0.459
			c0.153,0.028,0.312,0.049,0.459,0.085c-0.069-0.065,0.155-0.172,0.557-0.301c0.164,0.144,0.146,0.285-0.096,0.371
			c-0.132-0.003-0.225-0.012-0.3-0.022c0.529,0.142,1.034,0.33,1.545,0.55c0.781,0.114,1.531,0.279,2.246,0.593
			c2.166,0.194,4.472,0.557,6.424,1.424c0.471,0.095,0.792,0.208,0.728,0.355c0.012,0.006,0.022,0.013,0.034,0.02
			c1.414-0.371,2.252,0.327,3.948,0.232c1.511-0.149-0.097-0.187,0.979-0.357c2.26,0.114,5.425,0.304,7.218,0.474
			c0.518,0.276,1.842,0.746,1.761,1.146c0.423,0.016,0.843,0.106,1.233,0.296c0.062,0.03,0.071,0.064,0.048,0.132
			c-0.011,0.034-0.022,0.068-0.034,0.102c-0.001,0.003-0.005,0.008-0.006,0.011c1.442,0.059,2.971,0.196,3.992,0.495
			c-0.447,0.239,0.336,0.489-0.906,0.477l2.316,0.201c0.301-0.063,0.609-0.129-0.056-0.236c1.108-0.131,2.196,0.063,3.026,0.283
			c0.115,0.15,3.219,0.085,6.249,0.064c3.03-0.029,5.989,0.004,5.792,0.07c0.792,0.093,1.284,0.248,1.762,0.379
			c-0.152-0.012-0.31-0.024-0.475-0.037c-1.457-0.108-3.397-0.205-5.275-0.265c-3.756-0.124-7.26-0.108-6.152-0.068
			c0.7,0.213,5.457,0.236,10.156,0.477c2.349,0.12,4.685,0.291,6.474,0.547c1.776,0.263,3.042,0.619,3.262,0.792
			c1.208,0.285,2.674,0.605,2.466,0.257c1.99,0.686-0.748,0.363,0.622,1.014c0.045-0.035-0.08-0.17,0.377-0.035l1.279,0.735
			c3.258,0.45,7.605,2.479,10.991,3.113c-1.034-0.047-2.271,0.076-4.422-0.355l-0.314-0.263c-0.32-0.02-2.055-0.481-2.095-0.188
			c1.907,0.81,3.59,1.326,5.729,1.804c0.352,0.21,0.766,0.439,1.031,0.624c0.005-0.038-0.016-0.079,0.007-0.117
			c0.603,0.417,0.522,0.418,0.241,0.431c-0.039,0.008-0.086,0.015-0.164,0.008c0.918,1.193,7.739,2.442,10.996,4.446
			c1.061,0.354,0.154-0.087,1.479,0.349c3.355,1.934,5.615,3.354,9.078,5.413c1.305,0.288,1.466,0.21,0.268-0.856l2.627,1.558
			c-2.873-0.512,4.504,3.585,1.373,2.925c0.662,0.628,2.207,1.569,3.741,2.308c0.268-0.116,0.703-0.327,2.528,0.793
			c2.365,1.836,1.824,1.365,3.738,2.944c0.322,0.577-0.507,0.198-0.554,0.466c2.833,1.43,2.618,2.115,4.193,3.424
			c0.75,0.408,1.583,0.908,2.094,1.431c0.808,0.509,1.648,1.055,2.189,1.445c0.042,0.03,0.069,0.05,0.109,0.078
			c1.106,0.326,2.156,1.171,3.187,1.646c0.774,0.356,1.432,0.741,2.02,1.272c0.156,0.052,0.301,0.11,0.419,0.176
			c0.289,0.004,0.565,0.061,0.72,0.339c0.021,0.037,0.016,0.083,0,0.13c1.449,0.265,0.502,0.092,0,0.001
			c-0.002,0.005-0.006,0.011-0.008,0.017c0.092,0.011,0.168,0.021,0.262,0.033l0.001,0.01l0.001,0.006v0.008l0.002,0.014v0.011
			l0.003,0.041c0,0.004-0.001,0.013-0.001,0.018c0-0.008-0.001-0.017-0.001-0.025c0.001,0.016,0.001,0.031,0.001,0.047
			c0.001,0.075-0.001,0.168-0.008,0.276c0.002-0.024,0.004-0.049,0.005-0.075c-0.002,0.033-0.003,0.074-0.007,0.111v0.002
			c-0.005,0.058-0.01,0.116-0.018,0.195c-0.002,0.011-0.005,0.031-0.006,0.043c0.009-0.066,0.016-0.13,0.02-0.202
			c-0.012,0.133-0.027,0.277-0.055,0.429c-0.006,0.036-0.014,0.076-0.021,0.113c-0.016,0.088-0.03,0.178-0.052,0.262
			c-0.026,0.127-0.059,0.272-0.094,0.408l0.006-0.019c-0.004,0.015-0.008,0.031-0.012,0.046c-0.001,0.006-0.002,0.013-0.004,0.019
			l-0.11,0.411c-0.009,0.032-0.017,0.063-0.024,0.091l-0.012,0.042l-0.006,0.019c-0.043,0.152-0.071,0.242-0.071,0.242l0.032-0.115
			l-0.153,0.5c-0.001,0.005-0.003,0.01-0.005,0.015c1.17,1.368,2.338,2.736,3.455,4.146c0.937,0.474,1.769,0.992,2.667,1.661
			c0.657,0.489,1.342,1.055,2.048,1.671c0.796,0.706,1.635,1.439,2.444,2.119c3.263,2.747,6.447,5.093,9.527,6.939
			c-0.261,1.275,2.356,5.222,4.841,8.921c2.512,3.689,4.881,7.185,5.191,7.174c1.213,1.359,2.432,2.726,3.657,4.1
			c1.053,1.209,1.906,2.358,2.359,3.212c0.132,0.243,0.232,0.457,0.306,0.63l0.085,0.188c0.014,0.021,0.024,0.075,0.032,0.071
			c0.021,0.169,0.044,0.629,0.19,1.302c0.141,0.666,0.451,1.5,0.838,2.142c0.382,0.648,0.798,1.138,1.163,1.508
			c0.175,0.175,0.351,0.337,0.513,0.475l0.231,0.189l0.117,0.093c-0.034-0.028-0.053-0.043-0.063-0.052l0.01,0.007l0.021,0.015
			l0.33,0.243c0.52,0.385,0.655,0.484,1.021,0.78c1.337,1.087,2.561,2.39,3.68,3.887c2.25,2.992,4.03,6.749,5.729,10.873
			c0.861,2.118,1.728,4.249,2.6,6.391c0.832,2.061,1.617,4.162,2.322,6.265c0.701,2.097,1.336,4.222,1.771,6.228
			c0.214,0.99,0.375,1.974,0.419,2.726c0.023,0.362,0.005,0.68-0.015,0.715l-0.001-0.001l0.443,5.566
			c1.55,2.203,2.416,4.585,2.967,7.671c0.282,1.541,0.491,3.249,0.765,5.139l0.374,2.632l0.311,2.591
			c0.318,2.814,0.703,6.646,0.923,11.045c0.105,2.192,0.172,4.539,0.109,6.86c-0.032,1.152-0.101,2.312-0.228,3.312
			c-0.063,0.488-0.146,0.95-0.22,1.218l-0.007,0.026c0.018,0.023,0.166,4.785,0.166,4.785c-0.079,0.126-0.016,1.061-0.16,1.198
			l-0.072,0.588c-0.049,0.041-0.082,0.071-0.065,0.067l0.007,0.042l0.015,0.088l0.06,0.438c0.078,0.663,0.129,1.5,0.148,2.366
			c0.039,1.748-0.023,3.646-0.145,5.532c-0.123,1.891-0.307,3.79-0.543,5.624c-0.118,0.917-0.25,1.818-0.396,2.686
			c-0.172,0.962-0.342,1.915-0.509,2.854c-0.661,4.038-1.121,7.378-1.813,9.983c-0.668,2.614-1.515,4.413-2.315,5.612
			c-0.192,0.291-0.386,0.572-0.593,0.834c-0.103,0.133-0.205,0.265-0.313,0.388l-0.03,0.036c-0.018,0.063-0.037,0.129-0.057,0.196
			l0.002-0.001l0.008-0.01l0.035-0.04l0.069-0.079l0.146-0.162c0.097-0.115,0.199-0.237,0.313-0.373
			c0.217-0.284,0.485-0.62,0.806-1.133c-0.293,0.701-0.622,1.345-0.995,1.947l-0.033,0.057l-0.018,0.029l-0.009,0.014
			c-0.003,0.01-0.005,0.017-0.008,0.026c0.222-0.772,0.474-1.653-1.511,5.263l0.001,0.004l0.001,0.007l0.024,0.122l0.046,0.25
			l0.08,0.541c0.044,0.379,0.075,0.784,0.096,1.202c0.073,1.689-0.053,3.58-0.286,5.459c-0.478,3.783-1.357,7.586-2.458,11.238
			c0.724-1.171,1.115-1.285,2.452-4.232c0,0-0.337,0.921-0.675,1.842c-0.358,0.915-0.717,1.83-0.717,1.83
			c-0.162,1.834-1.004,4.713-2.089,7.518c-1.074,2.811-2.398,5.511-3.209,7.146c0.009-0.459-0.382-0.066-0.95,0.625
			c-0.138,0.167-0.291,0.353-0.455,0.551l-0.06,0.073l-0.016,0.019l-0.294,0.449l-0.021,0.028l-0.084,0.117
			c-0.062,0.083-0.124,0.167-0.188,0.253c-0.268,0.354-0.615,0.768-0.997,1.177l0.783-0.467c-0.62,0.758-1.424,1.575-2.321,2.404
			c-0.449,0.416-0.923,0.836-1.421,1.27l-0.46,0.405c-0.009,0.037-0.079,0.008-0.039,0.098l0.11,0.259l0.111,0.259
			c0.029,0.078,0.104,0.205,0.054,0.197l-0.271,0.263c-0.361,0.349-0.727,0.692-1.085,0.999c-0.265,0.225-0.526,0.428-0.761,0.574
			c-0.258,0.066-0.368,0.447-0.556,0.706c-0.348,0.571-0.751,1.195-1.215,1.877c-0.027,0.372-0.051,0.745-0.09,1.113
			c-0.016,0.185-0.036,0.369-0.061,0.552l-0.061,0.458c-0.059,0.403-0.121,0.767-0.198,1.134c-0.152,0.729-0.349,1.409-0.601,2.073
			c-0.513,1.348-1.212,2.569-2.224,4.003c-2.019,2.943-4.081,5.698-6.059,8.131c-0.823,1.026-1.586,1.676-2.086,2.035
			c0,0-1.396,1.783-2.793,3.567c-1.439,1.759-2.878,3.517-2.878,3.517c0.023-0.917-5.51,5.174-2.851,1.73
			c-2.043,2.739-4.38,5.264-6.726,7.732c-0.52,0.598-1.542,1.255-2.791,1.865c-1.251,0.612-2.683,1.188-4.163,1.822l-1.876,0.555
			c-0.654,0.198-1.311,0.398-1.953,0.62c-0.642,0.222-1.286,0.445-1.935,0.669l-0.976,0.348c-0.187,0.044-0.278,0.147-0.385,0.242
			l-0.32,0.284c-0.063,1.073-0.088,2.154-0.259,3.281l-0.06,0.411c-0.011,0.066-0.028,0.124,0.012,0.266
			c0.041,0.168,0.008,0.108,0.006,0.146c-0.025,0.069-0.063,0.148-0.107,0.234c-0.08,0.167-0.191,0.357-0.314,0.554
			c-0.505,0.8-1.266,1.705-2.109,2.579c-1.707,1.762-3.748,3.471-5.867,5.114c-2.129,1.643-4.37,3.235-6.648,4.78
			c-2.23,1.51-4.577,2.936-6.975,4.303c-9.631,5.437-19.992,10.04-30.418,13.908l0.631,0.038c-3.953,1.491-7.659,2.983-11.678,4.266
			c-3.98,1.271-8.383,2.171-13.529,2.593c-3.612,0.851-8.052,1.566-11.952,2.194c-3.9,0.633-7.264,1.192-8.726,1.884
			c-4.299,0.228-7.309,0.451-10.316,0.647c-3.018,0.17-5.982,0.393-10.378,0.113c1.078,0.416-0.984,0.476-3.132,0.207
			c-0.549-0.076-1.104-0.17-1.713-0.352c-0.391-0.102-0.658-0.158-0.848-0.181c-0.362-0.04-0.277,0.101,0.643,0.584
			c1.109,0.518,1.801,0.718,2.454,0.915c0.636,0.181,1.175,0.304,1.662,0.401c0.97,0.19,1.724,0.271,2.446,0.337
			c1.445,0.129,2.754,0.206,5.186,0.652l-0.137-0.219c5.679,0.425,11.292,0.544,16.924,0.498c5.63-0.055,11.264-0.292,16.934-0.768
			c5.669-0.499,11.382-1.154,17.233-2.511c5.658-1.293,11.185-2.911,16.646-4.754c7.161-2.82,14.537-5.87,21.854-9.449
			c3.656-1.796,7.296-3.724,10.867-5.917c1.814-1.119,3.485-2.234,5.172-3.397c1.682-1.165,3.344-2.376,4.978-3.668
			c2.108-1.687,4.217-3.483,6.301-5.722c1.041-1.145,2.083-2.363,3.087-4.027c0.25-0.418,0.496-0.871,0.731-1.365l0.174-0.388
			c0.053-0.124,0.146-0.335,0.074-0.185l0.031-0.115c0.046-0.16,0.026-0.335,0.029-0.508l-0.001-0.153l0.127-0.058l0.263-0.109
			l0.547-0.211l0.141-0.054l0.071-0.027l0.27-0.086l1.125-0.366c0.76-0.253,1.539-0.525,2.336-0.831
			c1.592-0.615,3.268-1.35,5.005-2.474c0.865-0.561,1.753-1.248,2.602-2.098c0.521-0.552,1.038-1.102,1.554-1.649
			c3.953-4.245,7.626-8.449,10.847-12.438c2.15-2.758,4.167-4.362,6.272-6.531c1.953-2.573,3.997-5.352,6.033-8.317
			c1.139-1.646,2.294-3.624,3.117-5.835c0.412-1.101,0.737-2.243,0.976-3.365c0.119-0.556,0.222-1.131,0.299-1.655l0.025-0.17
			l0.012-0.107l0.022-0.215c0.068-0.307-0.094-0.738,0.341-0.769c0.285-0.189,0.218-0.174,1.143-0.982
			c0.708-0.632,1.437-1.31,2.163-2.041c0.728-0.731,1.457-1.531,2.173-2.433c0.357-0.459,0.712-0.934,1.056-1.468
			c0.129-0.193,0.255-0.408,0.381-0.621l0.032-0.046l0.23-0.331c1.194-1.756,2.118-3.445,2.972-5.132
			c0.847-1.685,1.596-3.357,2.279-5.018c-0.12,0.27-0.247,0.528-0.332,0.696c1.649-3.838,3.026-7.176,4.266-10.584
			c1.217-3.414,2.313-6.873,2.972-11.077c-0.183,0.014,0.014-1.293-0.001-1.952c0.125-0.174,0.311-1.086,0.433-2.634
			c0.059-0.775,0.098-1.713,0.067-2.822c-0.002-0.089-0.009-0.188-0.013-0.28c1.354-2.197,2.478-4.83,3.194-7.574
			c0.81-3.025,1.208-6.141,1.498-9.085c0.135-1.43,0.271-2.863,0.404-4.278c0.157-1.427,0.313-2.837,0.464-4.208
			c0.274-2.887,0.388-5.563,0.435-7.929c0.105-4.709-0.184-8.228-0.145-9.024c-0.117-0.897-0.255-1.837-0.5-2.921l-0.071-0.367
			l-0.06-0.25c-0.047-0.164-0.104-0.325-0.195-0.464c0.148-0.193,0.262-0.422,0.344-0.647c0.056-0.096,0.261-0.932,0.364-1.492
			c0.228-1.19,0.353-2.282,0.453-3.36c0.191-2.145,0.261-4.205,0.288-6.248C404.536,168.761,404.406,164.77,404.149,160.843z"/>
		<g>
			<path d="M231.714,363.188l4.586-0.709c-7.408,1.306-14.965,2.38-22.627,3.341c-7.662,0.948-15.396,1.782-23.183,2.356
				c8.501-0.279,17.274-0.901,26.112-1.752c4.418-0.43,8.846-0.924,13.258-1.502c2.206-0.29,4.408-0.601,6.611-0.944
				c2.228-0.351,4.353-0.703,6.716-1.188c2.931-0.657,5.249-1.597,7.474-2.602c2.202-1.011,4.221-2.112,6.149-3.25
				c3.845-2.283,7.313-4.722,10.535-7.198c6.429-4.962,11.862-10.073,16.29-14.972c1.773-0.065,9.153-5.142,15.907-10.579
				c3.797-3.063,6.884-6.488,9.04-9.054c2.154-2.588,3.438-4.394,3.439-4.607c3.867-5.794,7.434-11.592,11.236-17.13
				c-2.635,3.791-5.183,7.721-7.787,11.678c2.604-3.957,5.152-7.887,7.787-11.678c2.405-3.498,4.898-6.902,7.597-10.01
				c1.348-1.553,2.749-3.024,4.206-4.371c0.729-0.674,1.473-1.31,2.229-1.905c0.379-0.296,0.761-0.585,1.146-0.859l0.58-0.403
				l0.292-0.196l0.437-0.278c0.819-0.496,1.559-1.114,2.212-1.813c0.651-0.686,1.273-1.526,1.652-2.094
				c0.83-1.24,1.455-2.396,2.035-3.541c1.144-2.283,2.063-4.507,2.932-6.74c1.719-4.459,3.177-8.926,4.549-13.444
				c1.364-4.518,2.623-9.078,3.778-13.717c0.575-2.322,1.124-4.661,1.626-7.052c0.251-1.196,0.49-2.405,0.707-3.649
				c0.215-1.257,0.418-2.502,0.547-3.989l0.182-3.711l0.223-3.442c0.172-2.301,0.391-4.616,0.639-6.95
				c0.544-4.741,1.092-9.506,1.641-14.291c0.53-4.874,0.959-9.885,1.054-14.998c0.101-5.11-0.146-10.311-0.807-15.478
				c-0.237-1.819-0.535-3.707-0.88-5.772c-0.348-2.064-0.751-4.283-1.216-6.631c-0.931-4.696-2.107-9.911-3.564-15.444
				c-2.906-11.064-6.945-23.408-12.175-35.396c-5.207-11.987-11.665-23.607-18.886-33.156c-3.597-4.777-7.367-9.032-11.08-12.609
				c-1.854-1.789-3.692-3.41-5.468-4.858c-0.448-0.358-0.888-0.709-1.318-1.053c-0.399-0.312-0.791-0.618-1.174-0.917
				c-0.764-0.595-1.494-1.164-2.188-1.704c-3.232-2.5-6.487-4.951-9.842-7.393c5.484,4.14,5.48,4.144,10.86,8.365
				c-14.093-9.808-27.433-18.21-41.128-25.122c2.221,1.562,2.531,2,7.81,5.565c0,0-1.653-1.017-3.307-2.033
				c-1.661-1.007-3.348-1.98-3.348-1.98c-3.32-1.315-8.614-3.828-14.106-6.102c-5.479-2.299-11.159-4.324-14.871-5.354
				c1.721,0.095-3.997-1.987-9.177-3.418l1.966,0.858c-9.758-2.888-20.638-4.775-31.266-5.63
				c-10.633-0.847-20.986-0.848-30.036-0.311c-2.518,0.163-4.413,0.15-5.568,0.099c0,0-4.321,0.48-8.607,1.176
				c-4.289,0.685-8.534,1.585-8.534,1.585c0.6-0.432-2.968,0.102-5.664,0.596c-2.693,0.493-4.533,0.857-0.523-0.271
				c-12.55,3.532-25.251,7.422-36.203,13.308C83.14,26.109,64.201,39.517,48.394,56.154c-15.838,16.602-28.475,36.426-36.736,57.533
				l0.642-0.931c-2.911,7.375-5.003,14.543-6.837,22.168c-1.823,7.632-3.395,15.727-4.861,25.18c-0.51,6.82-0.79,15.08-0.454,22.284
				c0.298,7.206,1.158,13.333,2.015,15.949c0.729,7.739,1.768,13.087,2.953,18.338c1.223,5.245,2.602,10.409,4.888,17.626
				c-0.236-1.962,0.953,1.517,2.128,4.519c1.168,2.979,2.273,5.658,1.272,1.985c-1.175-4.864-1.846-7.39-2.499-9.737
				c-0.631-2.348-1.235-4.521-1.811-8.71l-0.154,0.29c-3.858-19.293-4.518-39.174-2.01-58.641
				c2.516-19.465,8.289-38.518,17.122-56.17c5.55-11.948,12.987-23.654,21.858-34.334c8.86-10.696,19.133-20.359,30.072-28.632
				c11.748-8.95,25.162-16.727,38.905-22.448c13.729-5.77,27.726-9.488,40.313-11.52c6.009-1.017,10.45-0.862,15.622-0.85
				c2.916-0.185,5.938-0.295,9.042-0.317c3.125-0.022,6.327,0.027,9.583,0.162c6.51,0.271,13.235,0.88,19.968,1.945
				c6.735,1.053,13.472,2.569,20.026,4.505c6.553,1.943,12.924,4.301,18.973,6.937c-0.45-0.21-0.887-0.414-1.173-0.548
				c6.434,2.789,11.836,5.765,17.089,8.913c5.251,3.161,10.354,6.509,16.145,10.331c0.044-0.189,1.836,1.003,2.751,1.52
				c0.378,0.518,4.854,3.558,11.293,8.141c1.607,1.152,3.34,2.395,5.167,3.706c1.794,1.276,3.49,2.588,5.263,4.104
				c3.511,2.999,7.007,6.564,10.255,10.423c6.519,7.714,11.966,16.575,15.754,23.737c3.797,7.172,6.045,12.612,6.408,13.779
				c0.585,1.315,1.173,2.688,1.746,4.101c5.113,13.725,8.713,28.29,11.013,42.422c0.286,1.767,0.553,3.527,0.796,5.278
				c0.248,1.766,0.445,3.404,0.597,5.102c0.306,3.363,0.417,6.695,0.386,9.989c-0.057,6.587-0.713,13.04-1.327,19.353
				c-0.178,5.512-0.518,11.871-0.39,16.676c-0.342,2.294-0.326,3.685-0.274,5.192c0.026,0.754,0.053,1.539,0.085,2.483
				c0.034,0.636-0.037,1.558-0.25,2.805c-0.976,3.199-1.846,6.055-2.573,8.441c-0.732,2.423-1.29,4.388-1.624,5.748
				c-0.68,2.716-0.422,3.036,0.763-0.276c-1.294,5.433-2.856,10.83-4.584,15.952c-0.865,2.559-1.774,5.051-2.732,7.413
				c-0.956,2.35-1.971,4.616-3.027,6.473c-0.323,0.605-0.713,1.238-0.968,1.6c-0.204,0.296-0.442,0.584-0.757,0.78l-0.42,0.276
				l-0.522,0.359c-0.353,0.236-0.686,0.489-1.027,0.734c-0.669,0.502-1.326,1.015-1.957,1.548c-1.267,1.061-2.465,2.174-3.604,3.327
				c-2.989,3.087-4.655,4.705-6.348,6.051c-3.341,4.191-4.42,5.667-5.668,7.134c-1.217,1.472-2.525,2.982-5.741,7.334
				c-1.022,0.877-4.682,6.582-8.493,11.958c-1.912,2.689-3.901,5.272-5.605,7.193c-0.85,0.964-1.624,1.768-2.255,2.375
				c-0.618,0.598-1.202,1.111-1.482,1.332l1.226-1.209c-4.604,4.038-8.745,7.162-12.849,10.168c-4.116,3.007-8.231,5.935-13.012,9.5
				c-3.345,2.443-6.76,4.841-10.241,7.093c-3.476,2.24-7.043,4.372-10.57,6.021c-1.746,0.815-3.523,1.509-5.026,1.873
				c-0.299,0.079-0.879,0.191-1.368,0.292l-1.546,0.301l-3.145,0.573c-4.225,0.741-8.503,1.417-12.765,2.057
				c-8.526,1.273-17.019,2.409-25.27,3.305c-4.121,0.442-8.194,0.828-12.111,1.061c-0.978,0.057-1.943,0.103-2.884,0.131
				c-0.966,0.031-1.79,0.036-2.791,0.022c-1.933-0.018-3.847-0.072-5.737-0.161c-0.162,0.304,1.511,0.343,3.265,0.366
				c1.742,0.025,3.614,0.044,3.734,0.45c-8.902-0.028-17.94-0.96-26.795-2.581c-8.873-1.618-17.625-3.918-26.224-6.683
				c-3.063-1.127-6.713-2.75-8.031-3.452c-5.302-2.246-3.29-0.913-7.176-2.563l-0.311-0.736c-5.854-1.98-7.983-4.165-13.242-6.547
				c-0.377,0.066-2.271-0.873-4.072-1.864c0.179-0.547-5.561-3.032-5.019-3.379l-0.073,0.009c-1.066-0.629-1.844-1.043-3.086-1.912
				c-1.06-0.511-6.505-3.296-11.775-6.46c-5.289-3.127-10.386-6.624-11.393-7.295l-0.806-0.786
				c-2.567-2.107-3.922-2.719-2.518-1.368c0,0-0.774-0.676-1.548-1.352c-0.767-0.684-1.533-1.368-1.533-1.368l0.383,0.284
				c0,0-0.756-0.687-1.512-1.373c-0.749-0.694-1.497-1.389-1.497-1.389c-0.518-0.552-0.95-1.332,0.076-0.736
				c-1.832-1.415-3.782-3.135-5.333-4.847c4.249,4.822,9.866,10.555,14.797,15.237c-2.314-1.567-5.958-5.052-8.232-7.028
				c-2.439-2.675-7.554-8.011-11.223-12.41c-0.877-0.898-1.966-1.083-3.642-3.421c-0.572-1.35-2.132-2.424-3.386-4.467
				c1.92,1.945,3.572,4.03,5.408,6.095c0.061-0.695-4.17-5.267-5.396-7.075c-0.792-0.672-3.949-4.94-6.002-7.566
				c1.269,0.873-1.312-2.367-2.175-4.162c-1.205-1.884-2.15-2.976-1.809-2.112c-0.437-0.148,0.715,1.768,1.746,3.41
				c1.027,1.643,1.915,3.025,0.761,1.919c-0.269-0.824-2.846-4.405-4.128-6.402c-0.276,0.141,0.68,1.494-0.4,0.355
				c-1.377-2.261-3.132-4.486-3.616-5.964c0.319,0.389,0.827,1.354,1.219,2.023c-0.865-1.49,1.921,2.293,4.835,5.778
				c2.896,3.503,5.893,6.723,4.505,5.001c0.229,0.545-3.029-3.101-5.947-6.868c-2.939-3.748-5.537-7.594-4.981-6.589
				c0.922,1.896-1.239-1.032-0.24,0.912l1.551,1.897c1.438,2.606,1.658,3.922,0.912,3.146c-1.298-2.148,0.996,0.631,3.42,3.377
				c2.415,2.757,4.966,5.479,3.594,3.851l0.895,1.485c-1.244-1.322-4.145-5.19-4.869-6.934c-0.264,0.156-1.684-1.82-2.831-3.483
				l-0.331-0.636c-1.221-1.697-2.604-4.267-2.275-2.89c3.137,5.257,1.478,3.933-0.3,2.563c-1.735-1.388-3.584-2.833-0.553,2.422
				c-2.021-4.71,1.392,1.156,4.439,5.501c0.102,0.55,1.126,2.716,3.251,5.92c2.018,2.64,1.365,1.423,1.879,1.827
				c0.977,1.564,3.07,4.397,2.51,4.256c1.954,1.75,2.405,3.39,4.56,5.649c1.954,1.932,0.013-0.256,1.452,1.066
				c2.678,3.118,6.641,7.304,8.94,9.634c0.661,1.126,3.085,4.215,0.676,2.648c-4.461-4.418,2.282,1.073-2.457-3.408
				c0.732,1.255-0.337,0.286-1.724-1.079c-1.388-1.363-3.07-3.136-3.684-3.379c1.164,1.766,4.108,4.817,6.726,7.198l-0.438-0.566
				c2.287,2.122,6.988,6.2,9.313,8.673c-0.777-0.315,0.212,0.799-1.572-0.648c0,0,0.81,0.709,1.619,1.418
				c0.816,0.701,1.635,1.401,1.635,1.401c0.475,0.285,0.962,0.576,0.045-0.263c1.693,1.137,3.202,2.491,4.336,3.577
				c0.092,0.26,4.788,3.557,9.545,6.456c4.742,2.927,9.52,5.47,9.179,5.363c2.63,1.604,3.061,2.349,5.81,3.607
				c0.099-0.013-1.487-0.872-3.831-2.188c-2.345-1.315-5.437-3.11-8.382-4.927c-5.902-3.618-11.174-7.378-9.519-6.167
				c0.949,0.936,8.217,5.913,15.785,10.154c7.533,4.312,15.315,7.882,16.06,8.538c2.052,1.006,4.574,2.125,4.212,1.637
				c3.438,1.758-1.284,0.009,1.099,1.412c0.076-0.015-0.145-0.225,0.65,0.153l2.268,1.417c2.84,1.019,6.248,2.473,9.742,3.821
				c3.492,1.351,7.072,2.581,10.156,3.26c-1.826-0.264-3.98-0.385-7.904-1.508l-0.616-0.388c-0.577-0.106-3.738-1.216-3.754-0.92
				c3.538,1.582,6.688,2.664,10.646,3.669c0.691,0.305,1.498,0.66,2.041,0.899c-0.004-0.041-0.055-0.089-0.026-0.125
				c1.218,0.571,1.077,0.551,0.578,0.516c-0.066,0.001-0.147,0-0.289-0.023c1.036,0.764,4.729,1.768,9.028,2.691
				c4.299,0.94,9.198,1.77,12.64,2.629c2.076,0.259,0.218-0.094,2.804,0.199c7.076,1.523,12.025,2.386,19.594,3.086
				c2.445-0.223,2.631-0.354-0.259-0.899c0,0,1.424,0.108,2.848,0.216c1.426,0.084,2.853,0.169,2.853,0.169
				c-2.615,0.389,0.043,0.731,2.658,1c2.576,0.272,5.277,0.456,2.282,0.958c1.772,0.248,5.314,0.139,8.503-0.268
				c0.304-0.272,0.787-0.674,4.791-1.041c5.596-0.229,4.258-0.217,8.883-0.42c1.123,0.187-0.547,0.505-0.324,0.732
				c7.031-1.236,6.262-0.05,12.919-0.985c4.161-0.637,12.38-1.896,12.497-2.483C232.13,362.274,232.199,362.648,231.714,363.188z"/>
		</g>
		<path d="M97.181,58.639l-3.145,2.044c9.931-6.96,21.361-12.966,33.236-17.235c-1.643,0.52-3.303,1.045-4.977,1.575
			c-1.653,0.591-3.297,1.249-4.967,1.887c-3.375,1.213-6.605,2.833-9.92,4.351c-1.657,0.762-3.22,1.691-4.833,2.543l-2.398,1.314
			c-0.805,0.431-1.594,0.884-2.354,1.379c-3.057,1.95-6.18,3.808-9,5.977c-1.428,1.063-2.846,2.119-4.251,3.165
			c-1.362,1.078-2.673,2.177-3.976,3.262c-1.291,1.105-2.542,2.239-3.771,3.353c-1.22,1.13-2.389,2.298-3.535,3.436
			c-4.542,4.625-8.325,9.479-10.996,14.204c-1.584,0.138-6.895,5.372-11.101,11.298c-1.013,1.494-2.03,2.98-2.913,4.408
			c-0.852,1.442-1.642,2.792-2.286,3.972c-1.217,2.387-1.973,4.038-1.914,4.217c-1.997,5.308-3.708,10.721-5.222,16.176
			c0.496-1.872,1.122-3.738,1.67-5.606c0.585-1.863,1.242-3.708,1.851-5.561c-0.608,1.853-1.266,3.698-1.851,5.561
			c-0.548,1.868-1.174,3.734-1.67,5.606c-2.364,8.599-4.403,17.371-6.022,26.446c-1.589,9.079-2.902,18.403-2.936,28.257
			c0.004,1.232,0.008,2.467,0.012,3.704c0.07,1.196,0.141,2.395,0.211,3.595c0.104,2.404,0.354,4.806,0.572,7.22L30.862,201
			l0.229,1.809c0.152,1.208,0.305,2.417,0.457,3.627c0.331,2.418,0.761,4.833,1.147,7.261c1.774,9.675,4.374,19.349,7.927,28.81
			c1.998,5.229,5.159,12.633,9.805,20.659c1.178,1.995,2.358,4.079,3.734,6.112c0.67,1.028,1.349,2.067,2.033,3.118
			c0.73,1.02,1.467,2.049,2.21,3.086c2.946,4.169,6.321,8.212,9.925,12.141c7.199,7.837,15.554,14.591,23.367,19.77
			c1.975,1.254,3.846,2.57,5.717,3.65c1.871,1.087,3.661,2.128,5.355,3.113c1.692,0.992,3.336,1.784,4.838,2.602
			c1.512,0.787,2.898,1.562,4.172,2.189c1.482,0.717,2.961,1.433,4.442,2.149c1.479,0.717,2.958,1.438,4.547,2.103
			c-1.297-0.579-2.248-1.024-3.006-1.417c-0.771-0.384-1.388-0.692-2.005-1c-1.231-0.622-2.471-1.213-4.926-2.475
			c3.218,1.331,6.297,2.618,9.436,3.818c1.588,0.581,3.159,1.157,4.717,1.727c1.577,0.505,3.141,1.006,4.691,1.503
			c6.23,1.879,12.338,3.352,18.396,4.438c-1.025-0.388-1.613-0.675-2.557-1.058c-0.939-0.397-2.255-0.815-4.66-1.716
			c0,0,0.373,0.114,0.934,0.286c0.559,0.175,1.305,0.403,2.063,0.589c1.51,0.395,3.02,0.79,3.02,0.79
			c1.43,0.127,3.313,0.309,5.418,0.561c2.101,0.296,4.445,0.521,6.798,0.778c1.174,0.146,2.354,0.25,3.515,0.324
			c1.158,0.085,2.291,0.169,3.373,0.249c2.164,0.131,4.131,0.103,5.659,0.104c-0.669,0.198,0.198,0.38,1.769,0.547
			c0.785,0.083,1.744,0.166,2.774,0.238c1.032,0.008,2.133,0.016,3.198,0.024l-1.686-0.286c2.02-0.01,4.079-0.02,6.165-0.03
			l1.57-0.016l1.574-0.11c1.052-0.078,2.108-0.157,3.169-0.236c1.06-0.082,2.123-0.165,3.188-0.247
			c0.532-0.046,1.066-0.075,1.597-0.136l1.588-0.222c2.116-0.3,4.232-0.601,6.336-0.899c1.055-0.125,2.091-0.354,3.124-0.567
			c1.033-0.213,2.062-0.424,3.083-0.635c1.021-0.21,2.035-0.419,3.041-0.627c0.503-0.105,1.004-0.209,1.502-0.313
			c0.492-0.134,0.982-0.267,1.469-0.4c3.889-1.095,7.672-1.96,11.066-3.21c1.906-0.646,3.392-0.967,4.313-1.111
			c0,0,0.203-0.075,0.56-0.206c0.354-0.137,0.871-0.3,1.46-0.58c1.189-0.529,2.775-1.234,4.36-1.94
			c1.576-0.723,3.183-1.372,4.333-1.98c1.149-0.607,1.916-1.012,1.916-1.012c-0.69,1.049,10.561-4.659,4.802-1.344
			c8.866-5.489,17.857-11.085,25.022-17.939c13.469-11.227,25.585-25.216,34.379-41.298c8.86-16.04,14.258-33.984,16.281-51.847
			l-0.357,0.836c0.792-6.243,0.843-12.185,0.801-18.407c-0.114-6.235-0.504-12.762-1.094-20.333
			c-0.553-2.666-1.053-5.616-1.813-8.557c-0.64-2.962-1.531-5.903-2.341-8.642c-0.856-2.727-1.813-5.208-2.618-7.256
			c-0.912-2.017-1.714-3.591-2.351-4.492c-0.471-1.462-1.055-2.762-1.553-3.999c-0.517-1.228-1-2.376-1.461-3.471
			c-1.037-2.14-1.985-4.058-2.946-5.957c-1.036-1.859-2.07-3.712-3.21-5.756c-1.239-1.987-2.496-4.209-4.09-6.747
			c0.524,1.48-1.148-0.909-2.616-2.997c-1.438-2.082-2.845-3.909-1.427-1.241c3.332,7.194,4.188,7.198,6.645,13.433l0.104-0.273
			c6.679,14.028,10.962,29.034,12.657,44.334c0.846,7.653,1.039,15.381,0.623,23.104c-0.406,7.718-1.515,15.454-3.091,23.066
			c-1.703,10.247-4.999,20.62-9.535,30.507c-2.329,4.913-4.861,9.766-7.805,14.354c-1.388,2.345-2.999,4.543-4.508,6.797
			c-0.782,1.107-1.618,2.175-2.419,3.265c-0.804,1.088-1.605,2.173-2.475,3.204c-0.91,1.128-1.826,2.263-2.745,3.402
			c-0.969,1.1-1.941,2.204-2.916,3.311c-0.954,1.126-1.99,2.186-3.019,3.257c-1.041,1.059-2.022,2.177-3.112,3.195
			c-4.224,4.199-8.751,8.149-13.351,11.744c-9.197,7.24-19.018,12.958-28.145,17.081c-1.086,0.5-2.113,0.928-3.103,1.308
			c-0.987,0.386-1.935,0.723-2.903,0.942c-1.913,0.469-3.746,0.919-5.727,1.405c-8.713,2.865-18.988,5.118-29.719,6.134
			c-10.714,1.035-21.82,0.864-32.141-0.452c0.386,0.063,0.76,0.125,1.006,0.165c-10.976-1.423-18.898-3.993-29.003-7.545
			c-0.012,0.189-1.581-0.37-2.377-0.558c-0.179-0.185-1.234-0.68-2.954-1.401c-1.719-0.68-4.109-1.751-6.953-2.988
			c-2.877-1.182-6.049-2.769-9.515-4.366c-1.703-0.841-3.418-1.774-5.19-2.686c-0.875-0.471-1.793-0.899-2.652-1.414
			c-0.865-0.509-1.733-1.021-2.603-1.534c-3.545-1.965-6.829-4.31-10.019-6.445c-2.993-2.368-5.966-4.459-8.244-6.665
			c-1.179-1.062-2.274-2.049-3.266-2.943c-0.957-0.931-1.752-1.827-2.462-2.569c-1.404-1.501-2.328-2.528-2.604-2.918
			c-0.813-0.775-1.527-1.709-2.311-2.608c-7.148-8.973-12.783-19.29-17.023-29.632c-2.134-5.175-3.848-10.396-5.397-15.469
			c-1.434-5.112-2.762-10.065-3.767-14.847c-0.313-1.018-0.67-2.062-0.956-3.13c-0.286-1.07-0.575-2.146-0.858-3.201
			c-0.607-2.108-1.043-4.169-1.526-5.922c-0.077-1.747-0.266-2.768-0.491-3.879c-0.226-1.11-0.521-2.309-0.659-4.411
			c0.124-1.351,0.215-2.624,0.279-3.81c0.025-0.593,0.051-1.164,0.075-1.711c0.046-0.531,0.089-1.04,0.13-1.525
			c0.156-1.93,0.198-3.471,0.17-4.532c-0.005-1.065-0.016-1.665-0.154-1.646c-0.102,0.011-0.38,0.648-0.511,1.977
			c0.003-8.604,1.544-17.375,3.024-25.049c0.323-1.791,0.588-3.588,0.951-5.374c0.364-1.786,0.729-3.577,1.098-5.38
			c0.634-3.064,1.395-4.668,2.188-6.074c0.972-3.872,1.512-5.171,2.014-6.535c0.512-1.364,1.146-2.718,2.625-6.569
			c0.321-0.411,0.895-1.834,1.592-3.777c0.773-1.9,1.631-4.345,2.668-6.713c1.982-4.781,4.419-9.417,5.145-10.326
			c0,0-0.164,0.291-0.328,0.582c-0.171,0.287-0.314,0.591-0.314,0.591c5.186-7.943,10.078-12.035,16.611-18.526
			c4.643-4.446,9.732-8.734,15.053-12.907c1.337-0.999,2.676-2,4.016-3.001c1.346-0.992,2.654-2.042,4.061-2.941
			c2.774-1.856,5.498-3.793,8.378-5.438c1.426-0.843,2.821-1.738,4.261-2.537c1.453-0.772,2.902-1.542,4.345-2.308l2.161-1.144
			c0.738-0.339,1.474-0.678,2.207-1.016c1.468-0.677,2.928-1.349,4.378-2.018c1.471-0.618,2.958-1.167,4.42-1.749
			c1.47-0.559,2.904-1.186,4.391-1.619c2.949-0.93,5.816-1.953,8.72-2.602c0.033-0.33-1.229,0.036-2.559,0.393
			c-1.322,0.384-2.686,0.854-2.945,0.493c0.841-0.264,1.678-0.54,2.523-0.787l2.57-0.628c1.718-0.403,3.424-0.856,5.155-1.203
			c3.487-0.579,6.95-1.283,10.481-1.569l2.635-0.287l1.316-0.145l1.326-0.07l5.297-0.282c0.881-0.071,1.767-0.062,2.652-0.06
			l2.654-0.01c1.77-0.004,3.537-0.07,5.309,0.046c2.554,0.274,5.657,0.609,6.8,0.946c4.48,0.624,2.682-0.063,5.975,0.301
			l0.384,0.596c2.425,0.047,4.158,0.494,5.845,0.901c0.843,0.211,1.675,0.427,2.579,0.614c0.899,0.23,1.869,0.447,2.998,0.604
			c0.277-0.177,1.919,0.109,3.505,0.431c-0.028,0.32,1.225,0.476,2.374,0.78c1.159,0.282,2.283,0.546,2.105,0.781l0.057-0.032
			c0.93,0.249,1.604,0.382,2.719,0.772c0.456,0.069,1.866,0.281,3.754,0.565c1.858,0.429,4.187,0.967,6.516,1.506
			c1.162,0.291,2.364,0.489,3.445,0.843c1.09,0.337,2.122,0.657,3.039,0.94c1.841,0.566,3.229,0.985,3.688,1.109l0.768,0.428
			c0.606,0.235,1.125,0.439,1.535,0.614c0.417,0.162,0.741,0.26,0.953,0.297c0.423,0.075,0.394-0.095-0.263-0.49l2.852,1.493
			l-0.35-0.132l2.834,1.481c0.502,0.314,0.961,0.858,0.029,0.679c1.736,0.576,3.495,1.605,4.996,2.617
			c-1.03-0.732-2.123-1.509-3.25-2.31c-1.174-0.727-2.384-1.476-3.601-2.229c-1.216-0.77-2.438-1.543-3.639-2.303
			c-0.591-0.404-1.21-0.733-1.817-1.063c-0.605-0.335-1.202-0.666-1.785-0.989c0.523,0.165,1.137,0.401,1.795,0.677
			c0.66,0.274,1.37,0.578,2.043,0.974c1.365,0.749,2.742,1.522,3.812,2.031c0.584,0.408,1.335,0.896,2.192,1.435
			c0.43,0.266,0.886,0.547,1.359,0.84c0.465,0.308,0.93,0.658,1.417,0.997c1.942,1.348,4.056,2.816,5.906,4.1
			c0.878,0.453,1.768,0.352,3.452,1.876c0.634,1.01,2.085,1.451,3.416,2.795c-1.896-1.037-3.538-2.332-5.299-3.605
			c0.004,0.667,4.098,3.346,5.407,4.453c0.817,0.242,3.907,3.086,6.054,4.612c-1.224-0.317,1.44,1.582,2.449,2.792
			c1.254,1.252,2.225,1.868,1.819,1.241c0.388,0-0.813-1.314-1.931-2.359c-1.13-1.03-2.077-1.917-0.924-1.362
			c0.159,0.318,0.955,0.979,1.843,1.768c0.867,0.816,1.871,1.708,2.567,2.337c0.227-0.211-0.785-1.049,0.31-0.436
			c1.49,1.477,3.381,2.723,4.043,3.771c-0.348-0.208-0.945-0.833-1.39-1.256c0.99,0.939-2.078-1.216-5.014-3.292
			c-0.727-0.529-1.461-1.035-2.164-1.439c-0.69-0.417-1.307-0.79-1.779-1.075c-0.949-0.563-1.336-0.762-0.632-0.248
			c-0.132-0.195,0.618,0.223,1.802,0.945c0.581,0.375,1.316,0.77,2.021,1.304c0.716,0.525,1.48,1.087,2.24,1.645
			c3.038,2.24,6.009,4.452,5.348,3.827c-1.116-1.243,1.269,0.42,0.076-0.835l-1.669-1.037c-1.649-1.686-1.997-2.746-1.241-2.334
			c1.442,1.371-0.993-0.169-3.419-1.765c-1.185-0.833-2.51-1.51-3.274-1.967c-0.779-0.44-1.066-0.583-0.366-0.114l-0.965-0.973
			c0.616,0.371,1.691,1.124,2.73,1.931c0.528,0.391,1.018,0.833,1.424,1.26c0.412,0.419,0.756,0.806,0.971,1.117
			c0.211-0.219,1.694,1.011,2.942,2.018l0.381,0.422c1.317,1.012,2.964,2.635,2.457,1.616c-3.577-3.281-1.884-2.77-0.114-2.224
			c1.767,0.542,3.613,1.123,0.149-2.211c2.485,3.224-1.47-0.42-4.603-3.221c-0.118-0.481-1.349-1.92-3.604-3.968
			c-2.074-1.619-1.356-0.786-1.852-0.968c-1.037-1.031-3.11-2.908-2.633-2.934c-1.929-0.844-2.522-2.109-4.625-3.415
			c-1.884-1.091,0.016,0.235-1.357-0.484c-0.66-0.474-1.375-1.014-2.136-1.54c-0.784-0.49-1.595-0.997-2.387-1.493
			c-1.58-1.002-3.089-1.96-4.183-2.654c-0.35-0.397-1.094-1.143-1.512-1.654c-0.425-0.498-0.478-0.843,0.643-0.549
			c4.228,2.638-2.033-0.249,2.445,2.33c-1.52-1.807,4.021,2.188,5.137,2.191c-1.23-1.144-4.109-2.89-6.56-4.26l0.432,0.378
			c-1.059-0.64-2.748-1.415-4.427-2.261c-1.676-0.853-3.344-1.772-4.45-2.564c0.679,0.047-0.28-0.667,1.376,0.104
			c0,0-0.758-0.4-1.515-0.8c-0.38-0.197-0.755-0.406-1.044-0.543c-0.295-0.129-0.49-0.215-0.49-0.215
			c-0.437-0.092-0.884-0.186,0,0.252c-1.572-0.438-3.008-1.166-4.092-1.793c-0.135-0.154-4.375-1.846-8.711-2.827
			c-2.138-0.554-4.248-1.101-5.79-1.5c-1.569-0.292-2.556-0.483-2.411-0.492c-2.369-0.598-2.842-1.156-5.223-1.47
			c-0.074,0.041,1.318,0.364,3.404,0.817c1.044,0.223,2.261,0.482,3.552,0.758c1.297,0.26,2.616,0.719,3.945,1.071
			c2.639,0.763,5.219,1.444,6.908,1.974c1.664,0.595,2.495,0.882,1.735,0.587c-0.228-0.138-0.81-0.39-1.655-0.727
			c-0.847-0.333-2.002-0.632-3.313-1.03c-1.316-0.378-2.809-0.808-4.387-1.261c-0.788-0.224-1.598-0.454-2.417-0.687
			c-0.835-0.173-1.681-0.348-2.526-0.523c-1.685-0.351-3.365-0.7-4.949-1.03c-0.79-0.168-1.557-0.331-2.287-0.487
			c-0.73-0.149-1.439-0.233-2.092-0.346c-2.618-0.42-4.471-0.769-4.821-0.973c-1.776-0.363-3.96-0.562-3.581-0.228
			c-3.01-0.562,0.993-0.412-1.129-0.98c-0.056,0.038,0.156,0.167-0.533,0.06l-2.033-0.65c-2.387-0.171-5.315-0.428-8.276-0.697
			c-2.954-0.344-5.965-0.344-8.464-0.151c1.449-0.245,3.125-0.795,6.372-0.888l0.554,0.199c0.463-0.048,3.122,0.083,3.074-0.208
			c-1.525-0.228-2.948-0.387-4.395-0.485c-1.451-0.023-2.926,0.013-4.549,0.102c-0.596-0.096-1.292-0.196-1.758-0.29
			c0.012,0.038,0.061,0.071,0.048,0.114c-1.057-0.212-0.945-0.237-0.557-0.336c0.05-0.02,0.112-0.041,0.226-0.058
			c-0.96-0.509-4.009-0.286-7.499-0.018c-0.873,0.075-1.774,0.118-2.677,0.223c-0.902,0.11-1.808,0.221-2.691,0.329
			c-1.769,0.198-3.455,0.339-4.871,0.345c-1.637,0.329-0.142,0.158-2.17,0.598c-5.75,0.403-9.725,0.888-15.658,2.086
			c-1.785,0.84-1.884,1.015,0.451,0.793l-4.425,1.038c1.876-0.983-0.242-0.682-2.319-0.351c-2.044,0.424-4.058,0.839-2.008-0.333
			c-1.34,0.22-4.004,0.991-6.385,2.001c-0.159,0.322-0.403,0.833-3.412,2.01c-4.318,1.333-3.273,1.05-6.793,2.32
			c-0.935,0.083,0.262-0.603,0.016-0.767c-2.544,1.395-3.77,1.749-4.965,2.093c-1.176,0.378-2.341,0.702-4.749,2.008
			c-0.749,0.418-1.68,0.938-2.657,1.485c-0.942,0.604-1.93,1.236-2.831,1.813c-1.788,1.177-3.192,2.192-3.116,2.468
			c-1.978,1.169-2.939,1.793-3.472,1.927C97.139,59.194,97.114,58.954,97.181,58.639z"/>
		<path d="M328.067,317.418c-0.005-0.16,0.08-0.214,0.104-0.338c-0.345,0.168-0.171-0.364-0.454-0.364
			c-0.184,0.025-0.525,0.003-0.604,0.274c-0.229-0.04-0.177-0.239-0.097-0.457l-0.179-0.053c0.609,0.055,1.225,0.223,1.835,0.397
			c-1.16-1.064-2.519-2.089-4.113-0.245c0.166-1.059-1.019-1.701-1.116-1.447c-0.327,0.159-0.651,0.282-0.968,0.377
			c-1.005,0.297-1.976,0.304-2.917,0.147c-0.92-0.178-1.82-0.51-2.722-0.856c-1.029-0.372-3.797-0.998-4.854-1.502
			c-0.15-0.065-0.303-0.127-0.459-0.185c0.243,0.139,0.243,0.139,0.482,0.277c-0.806,0.157-1.555,0.319-2.204,0.391
			c0.045,0.166,0.007,0.311,0.174,0.558l-0.264-0.151c-0.378,0.32-0.881,0.281-1.255,0.337c-0.487,0.588-1.075,1.087-1.502,1.748
			c-0.567,0.877-1.303,1.597-1.965,2.399c-0.041,0.049-0.119,0.109-0.209,0.166c0.754,0.118,1.545,0.265,2.326,0.28
			c-0.021-0.005-0.039-0.014-0.052-0.02c0.618,0.052,0.963,0.457,1.554,0.497c0.029-0.088,0.122-0.079,0.184-0.118
			c-0.029,0.212,0.893,0.143,1.86,0.048c0.986-0.1,1.984-0.223,2.046-0.089c0.069-0.01,0.139-0.018,0.208-0.019
			c1.185,0.372,2.221,1.373,3.341,1.464c0.299-0.16,0.619-0.291,0.887-0.482c0.137,0.207,0.279-0.133,0.496-0.05
			c0.334,0.924,0.783,0.613,0.568,0.282c0.515-0.056,0.972,0.076,1.406,0.098c0.216-0.037,0.43-0.078,0.651-0.126
			c0.188-0.049,0.246,0.085,0.276,0.293c0.466-0.067,0.28,0.124,0.709,0.263c0.028,0.305,1.271-0.329,1.371-0.225l-0.085,0.034
			c0.51,0.114,0.706,0.72,1.214,0.807c1.096,0.308,2.34,0.356,3.458,0.479c0.035-1.274,0.634-2.779,1.197-3.939
			c0.021-0.226,0.042-0.451,0.067-0.677c-0.027,0.014-0.059,0.023-0.096,0.019C328.181,317.527,328.221,317.591,328.067,317.418z"/>
		<path d="M370.278,271.729c-0.109,0.049-0.022,0.069-0.161,0.138c-0.309-0.196-0.522-0.344-0.866-0.473
			c-0.145,0.17-0.165,0.241-0.059,0.439l-0.258-0.078c0.322-0.461-0.428-0.49-0.081-0.949c-0.063-0.115-0.222-0.148-0.386-0.082
			c-0.034,0.12-0.088,0.311-0.277,0.297c-0.24-0.178-0.188-0.115-0.385-0.284c-0.029-0.16,0.06-0.217,0.068-0.342
			c-0.368,0.177-0.25-0.361-0.578-0.353c-0.212,0.03-0.61,0.028-0.653,0.302c-0.267-0.026-0.243-0.228-0.188-0.45l-0.215-0.042
			c0.709,0.011,1.458,0.166,2.184,0.327c-1.48-1.054-3.342-1.973-4.758-0.036c-0.031-1.064-1.548-1.62-1.601-1.36
			c-0.339,0.18-0.676,0.329-1.013,0.449c-2.127,0.754-4.33,0.336-6.631-0.113c-1.276-0.232-4.752-0.505-6.063-0.818
			c-0.19-0.041-0.381-0.078-0.571-0.109c0.318,0.098,0.318,0.098,0.635,0.195c-0.806,0.276-1.535,0.548-2.237,0.729
			c0.121,0.153,0.143,0.3,0.433,0.511l-0.355-0.103c-0.331,0.439-1.081,0.417-1.434,0.602c0.077-0.231-0.2-0.277-0.445-0.312
			l0.096,0.153c-0.142-0.015-0.29-0.013-0.438-0.016c-0.747,1.708-2.327,3.888-3.879,4.834c0.294-0.054,0.581-0.111,0.85-0.17
			c0.288-0.092,0.5,0.174,0.747,0.322c1.114-0.146,2.535-0.04,3.795-0.208c-0.023-0.001-0.046-0.007-0.063-0.011
			c0.671-0.051,1.168,0.278,1.821,0.227c-0.002-0.091,0.1-0.096,0.15-0.143c0.104,0.421,3.862-0.849,4.091-0.599
			c0.068-0.019,0.141-0.036,0.212-0.046c1.377,0.204,2.767,1.059,3.948,1.005c0.264-0.193,0.56-0.361,0.786-0.581
			c0.2,0.187,0.257-0.164,0.506-0.109c0.595,0.864,0.985,0.517,0.673,0.209c0.532-0.104,1.054-0.013,1.52-0.027
			c0.221-0.055,0.439-0.114,0.662-0.18c0.189-0.065,0.283,0.064,0.361,0.268c0.482-0.105,0.329,0.1,0.817,0.201
			c0.097,0.299,1.271-0.422,1.405-0.327l-0.084,0.041c0.566,0.075,0.893,0.663,1.443,0.711c1.508,0.291,3.186,0.167,4.547,0.372
			c0.064-0.308,0.444-0.19,0.782-0.061c-0.155-0.869,0.368-1.902,0.696-2.446c0.299-0.496,0.648-1.022,1.102-1.348
			C370.794,271.915,370.364,271.802,370.278,271.729z"/>
		<path d="M324.439,43.473c-0.341,0.129-0.669,0.262-0.964,0.399c-0.212,0.135-0.461-0.143-0.708-0.284
			c-0.877,0.288-2.078,0.324-3.061,0.664c0.019-0.001,0.041,0.002,0.053,0.004c-0.532,0.139-1.044-0.173-1.566-0.036
			c0.031,0.102-0.05,0.121-0.076,0.18c-0.226-0.467-2.887,1.444-3.15,1.203c-0.048,0.031-0.1,0.059-0.155,0.081
			c-1.189-0.047-2.633-0.804-3.586-0.565c-0.146,0.257-0.324,0.491-0.427,0.771c-0.233-0.177-0.148,0.224-0.371,0.202
			c-0.814-0.873-1.004-0.425-0.629-0.131c-0.394,0.197-0.854,0.178-1.229,0.277c-0.083,0.052-0.163,0.11-0.244,0.165
			c0.618,0.54,1.16,1.25,1.665,1.742c1.306,1.27,2.662,2.443,4.17,3.444c0.074,0.027,0.141,0.068,0.211,0.101
			c0.027,0.002,0.054,0.004,0.081,0.007c1.078,0.083,3.887-0.067,5.021,0.138c0.164,0.022,0.324,0.042,0.484,0.055
			c-0.282-0.072-0.282-0.072-0.563-0.144c0.545-0.409,1.034-0.802,1.536-1.086c-0.144-0.158-0.206-0.322-0.502-0.526l0.314,0.074
			c0.125-0.534,0.729-0.597,0.955-0.844c0.009,0.27,0.244,0.291,0.45,0.304l-0.123-0.162c0.771,0.007,1.577-0.323,2.25-0.382
			c0.093-0.013,0.188,0.075,0.252,0.16l0.586-0.287c0.042,0.357,0.606,0.238,0.361,0.497c0.37-0.476,0.918-0.287,1.264-0.775
			c1.548-0.257,3.143-0.724,4.635-1.465C329.091,45.939,326.649,44.9,324.439,43.473z"/>
		<path d="M393.806,183.252c-0.138-0.053-0.274-0.103-0.44-0.145c-0.121,0.18-0.13,0.252,0.021,0.441l-0.294-0.059
			c0.26-0.48-0.551-0.458-0.265-0.938c-0.087-0.11-0.262-0.132-0.425-0.054c-0.015,0.121-0.039,0.315-0.245,0.314
			c-0.29-0.16-0.219-0.102-0.46-0.256c-0.057-0.157,0.029-0.219,0.018-0.345c-0.364,0.202-0.325-0.342-0.67-0.312
			c-0.217,0.046-0.645,0.065-0.65,0.341c-0.293-0.013-0.295-0.214-0.269-0.438l-0.238-0.031c0.768-0.021,1.576,0.077,2.372,0.188
			c-1.742-0.938-3.795-1.767-5.107,0.229c-0.158-1.061-1.844-1.554-1.874-1.293c-0.348,0.194-0.698,0.354-1.054,0.485
			c-2.248,0.823-4.703,0.464-7.245,0.054c-1.408-0.204-5.233-0.435-6.68-0.742c-0.214-0.036-0.423-0.07-0.628-0.104
			c0.352,0.095,0.352,0.095,0.701,0.19c-0.875,0.283-1.671,0.559-2.439,0.741c0.139,0.152,0.163,0.3,0.488,0.509l-0.395-0.101
			c-0.354,0.441-1.182,0.421-1.567,0.607c0.081-0.231-0.226-0.277-0.496-0.312l0.107,0.153c-0.974-0.091-2.088,0.068-2.983,0.061
			c0.01,0.133,0.023,0.266,0.022,0.401c-0.009,1.072-0.338,2.068-0.389,3.128c-0.019,0.399-0.005,0.77-0.035,1.121
			c0.139,0.074,0.271,0.18,0.413,0.256c1.249-0.144,2.843-0.035,4.251-0.21c-0.027-0.001-0.054-0.007-0.069-0.011
			c0.749-0.053,1.313,0.274,2.046,0.22c-0.006-0.091,0.107-0.097,0.161-0.144c0.133,0.423,4.3-0.882,4.561-0.639
			c0.075-0.02,0.154-0.038,0.233-0.049c1.548,0.189,3.155,1.014,4.48,0.939c0.285-0.199,0.608-0.374,0.847-0.599
			c0.238,0.182,0.278-0.171,0.562-0.122c0.727,0.849,1.143,0.494,0.77,0.194c0.589-0.115,1.181-0.04,1.704-0.069
			c0.244-0.062,0.486-0.127,0.729-0.201c0.209-0.071,0.325,0.055,0.434,0.256c0.531-0.12,0.376,0.089,0.937,0.175
			c0.138,0.296,1.396-0.472,1.556-0.382l-0.092,0.044c0.647,0.052,1.084,0.626,1.715,0.651c1.759,0.217,3.674-0.003,5.301,0.099
			c0.012-0.311-0.357,0.069-0.382-0.343c0.269,0.015,0.539,0.058,0.81,0.111c0.045-0.245,0.127-0.498,0.202-0.765
			c0.067-0.24,0.114-0.481,0.161-0.723C393.913,184.945,393.76,184.12,393.806,183.252z"/>
		<path d="M388.584,142.837c0.369-0.01,0.747,0.028,1.128,0.076c-0.618-1.812-1.108-3.601-1.988-5.337v-0.002
			c-0.037,0.012-0.073,0.008-0.109,0.031c-0.003,0.137-0.005,0.358-0.224,0.365c-0.317-0.171-0.239-0.107-0.505-0.273
			c-0.073-0.176,0.009-0.25-0.015-0.392c-0.359,0.242-0.365-0.375-0.72-0.33c-0.219,0.061-0.66,0.098-0.649,0.411
			c-0.304-0.003-0.319-0.232-0.308-0.487l-0.247-0.027c0.79-0.052,1.63,0.029,2.466,0.128c-1.912-1-3.967-1.868-5.279,0.447
			c-0.194-1.204-1.945-1.761-1.977-1.464c-0.359,0.222-0.726,0.403-1.098,0.553c-2.345,0.96-4.988,0.484-7.656-0.022
			c-1.508-0.255-5.602-0.623-7.192-0.98c-0.235-0.042-0.464-0.084-0.689-0.125c0.383,0.112,0.383,0.112,0.766,0.224
			c-0.978,0.312-1.858,0.615-2.707,0.813c0.146,0.174,0.171,0.342,0.521,0.583l-0.429-0.12c-0.398,0.497-1.301,0.465-1.727,0.671
			c0.093-0.259-0.239-0.321-0.538-0.355l0.117,0.172c-0.656-0.054-1.367,0-2.049,0.053c0.205,0.792,0.396,1.584,0.57,2.379
			c0.303,1.024,0.592,2.054,0.815,3.101c0.652-0.023,1.314-0.05,1.955-0.12c-0.028-0.001-0.055-0.008-0.073-0.013
			c0.795-0.052,1.384,0.326,2.157,0.272c-0.001-0.103,0.118-0.108,0.178-0.162c0.104,0.469,4.615-0.935,4.896-0.644
			c0.082-0.021,0.167-0.039,0.253-0.05c1.646,0.251,3.332,1.22,4.789,1.158c0.32-0.221,0.678-0.414,0.949-0.664
			c0.248,0.211,0.308-0.188,0.613-0.128c0.757,0.976,1.225,0.581,0.828,0.234c0.644-0.118,1.285-0.023,1.865-0.062
			c0.269-0.071,0.534-0.145,0.805-0.229c0.229-0.082,0.355,0.062,0.471,0.29c0.586-0.138,0.413,0.1,1.029,0.196
			c0.153,0.337,1.537-0.539,1.711-0.437l-0.102,0.05c0.712,0.059,1.2,0.711,1.914,0.708c1.982,0.16,4.107-0.109,5.956-0.14
			C389.033,142.836,388.657,143.301,388.584,142.837z"/>
		<path d="M385.813,228.078c0.093-0.743,0.251-1.518,0.68-2.14c-1.278-0.04-2.57-0.183-3.842-0.18
			c-2.013,0.02-4.182,0.152-5.915,0.348c-0.416,0.078-0.675-0.199-1.005-0.36c-1.579,0.088-3.556-0.089-5.334,0.034
			c0.034,0.002,0.065,0.009,0.086,0.013c-0.938,0.025-1.609-0.327-2.529-0.296c-0.002,0.091-0.146,0.093-0.22,0.139
			c-0.123-0.429-5.448,0.735-5.748,0.489c-0.096,0.018-0.195,0.033-0.297,0.042c-1.068-0.134-2.146-0.459-3.18-0.715
			c0.107,1.878-0.437,3.923-1.209,5.619c0.206,0.031,0.411,0.061,0.617,0.093c1.714,0.235,6.396,0.582,8.137,0.94
			c0.259,0.043,0.512,0.084,0.762,0.126c-0.422-0.107-0.422-0.107-0.842-0.214c1.104-0.253,2.109-0.503,3.074-0.654
			c-0.152-0.157-0.169-0.305-0.545-0.527l0.475,0.116c0.484-0.426,1.501-0.375,1.998-0.546c-0.125,0.228,0.248,0.285,0.576,0.33
			l-0.117-0.157c1.254,0.133,2.736,0.001,3.863,0.068c0.156,0.005,0.266,0.095,0.326,0.177l1.102-0.139
			c-0.12,0.306,0.861,0.307,0.324,0.479c0.852-0.333,1.641-0.077,2.459-0.424c2.063,0.05,4.23,0.006,6.413-0.166
			C385.641,229.81,385.721,228.806,385.813,228.078z"/>
		<path d="M376.349,91.397c0.041-0.051,0.076-0.099,0.13-0.158c0.306-0.358,0.521-0.686,0.424-0.647
			c-0.084,0.004-0.113-0.04-0.134-0.089c0.001-0.013-0.008-0.028-0.02-0.042c-0.021-0.066-0.041-0.131-0.143-0.117l-0.02,0.084
			c-0.394,0.128-0.477-0.244-0.617-0.607c-0.144-0.394-0.368-0.765-0.69-0.682c0.491,0.174,0.148,0.33-0.136,0.484
			c-0.09-0.092-0.293-0.208-0.517-0.23c-0.139,0.073-0.028,0.141-0.015,0.229c-0.125-0.041-0.318-0.047-0.38-0.218
			c-0.022,0.235-0.247-0.071-0.353,0.036c-0.082,0.125,0.049,0.083,0.004,0.202c-0.196,0.03-0.469,0.074-0.631,0.076
			c-0.124-0.142-0.408-0.377-0.385-0.651c0.286-0.036,0.059,0.424,0.322,0.296c-0.272-0.323,0.211-0.167,0.141-0.45
			c-0.161-0.136-0.336-0.087-0.469-0.003l0.051,0.04c-0.114,0.08-0.354,0.223-0.577,0.067c-0.017-0.135-0.116-0.214-0.031-0.27
			l-0.19,0.021c-0.008,0.046-0.018,0.093,0.047,0.109c-0.048,0.119-0.155,0.086-0.252,0.028c-0.063-0.126-0.785,0.796-0.788,0.707
			c-0.064,0.017-0.122-0.019-0.173-0.042c0.298-0.174,0.941-0.691,0.812-0.624c-0.163-0.122-1.287,1.029-1.466,0.788
			c-0.099,0.032-0.211,0.087-0.141,0.22c-0.193-0.029-0.037-0.273-0.201-0.375c0.005,0.022,0.033,0.067-0.009,0.07l-0.173-0.148
			c-0.193,0.271-0.672,0.079-0.86,0.418c0.034-0.167,0.043-0.447,0.177-0.62l0.054,0.066c0.014-0.047,0.143-0.127,0.094-0.264
			c-0.196-0.054-0.333,0-0.468,0.173c-0.045-0.03-0.096-0.059-0.133-0.092c0.006,0.018,0.012,0.033,0.02,0.053
			c-0.084-0.074-0.084-0.088-0.078-0.147l0.002-0.034c-0.234-0.381-0.582,0.395-0.956,0.251c-0.073,0.076,0.013,0.07-0.076,0.17
			c-0.366-0.096-0.622-0.174-0.98-0.201c-0.052,0.195-0.042,0.267,0.142,0.423l-0.268-0.006c0.09-0.511-0.598-0.349-0.486-0.863
			c-0.103-0.092-0.257-0.083-0.375,0.02c0.021,0.12,0.053,0.312-0.124,0.347c-0.29-0.106-0.216-0.062-0.461-0.171
			c-0.092-0.143-0.034-0.218-0.079-0.337c-0.256,0.257-0.37-0.276-0.654-0.189c-0.172,0.082-0.531,0.171-0.465,0.44
			c-0.252,0.036-0.307-0.16-0.345-0.381l-0.21,0.009c0.65-0.146,1.36-0.189,2.068-0.215c-1.736-0.613-3.686-1.082-4.303,1.073
			c-0.408-1.005-1.975-1.21-1.936-0.952c-0.248,0.245-0.51,0.458-0.782,0.642c-1.727,1.165-3.937,1.209-6.232,1.217
			c-1.267,0.026-4.632,0.413-5.963,0.349c-0.19-0.004-0.382-0.005-0.571,0c0.329,0.037,0.329,0.037,0.655,0.072
			c-0.69,0.417-1.31,0.814-1.932,1.117c0.158,0.125,0.215,0.265,0.55,0.417l-0.368-0.034c-0.196,0.486-0.918,0.601-1.206,0.846
			c0.011-0.238-0.266-0.232-0.51-0.222l0.132,0.131c-0.099,0.008-0.199,0.035-0.299,0.049c0.468,0.822,0.778,1.727,1.218,2.567
			c0.334,0.638,0.724,1.251,1.038,1.899c0.111-0.033,0.231-0.056,0.339-0.092c-0.022,0.003-0.046,0.002-0.063,0
			c0.633-0.172,1.201,0.056,1.817-0.116c-0.026-0.087,0.068-0.111,0.104-0.167c0.217,0.391,3.492-1.549,3.778-1.353
			c0.061-0.032,0.125-0.062,0.192-0.086c1.383-0.063,2.975,0.483,4.105,0.197c0.197-0.239,0.434-0.462,0.586-0.72
			c0.25,0.139,0.199-0.21,0.455-0.209c0.841,0.71,1.113,0.296,0.715,0.064c0.481-0.206,1.014-0.229,1.461-0.343
			c0.197-0.1,0.389-0.203,0.582-0.313c0.162-0.103,0.295,0.001,0.439,0.179c0.43-0.204,0.349,0.025,0.856,0.017
			c0.195,0.267,1.092-0.688,1.252-0.626l-0.066,0.058c0.573-0.057,1.101,0.429,1.657,0.349c1.586-0.083,3.197-0.623,4.652-0.814
			c-0.075-0.303-0.294,0.13-0.428-0.264c0.854-0.118,1.813,0.082,2.689-0.051c0.18,0.048,0.418,0.159,0.519,0.239
			c0.313,0.052,0.117-0.179,0.333-0.184l0.115,0.264c0.225-0.286,0.535,0.203,0.779,0.03c-0.021-0.112,0.075-0.148,0.178-0.162
			c0.102,0.285,0.302-0.089,0.38,0.173l-0.005-0.022c0.064-0.01,0.1-0.038,0.194-0.007c0.087-0.129,0.886-1.155,0.966-1.312
			l0.076,0.032c0.162-0.05,0.151-0.277,0.033-0.303l0.212-0.035l-0.017,0.025l0.209-0.035c0.048,0.016,0.144,0.136,0.137,0.274
			c0.076-0.128,0.179-0.21,0.328-0.197c-0.412-0.083-0.896-0.236-1.337-0.437c0.097-0.13,0.399-0.042,0.534-0.109
			c0.245,0.146,0.678,0.209,1.045,0.247c0.06-0.035-0.037-0.356,0.174-0.261c0.174,0.193,0.166-0.054,0.363,0.065
			c-0.09,0.153-0.255,0.141-0.404,0.17c0.141,0.245,0.434,0.073,0.59,0.108c0.025-0.099,0.401-0.122,0.573-0.259
			c0.027,0.172,0.129,0.161,0.251,0.155c0.006-0.012,0.018-0.028,0.024-0.041c-0.009,0.016-0.014,0.026-0.021,0.041
			c0.064-0.003,0.133-0.004,0.203,0.024c0.18-0.028,0.299-0.195,0.145-0.235C376.465,91.433,376.409,91.41,376.349,91.397z
			 M375.839,91.303c-0.006,0.021-0.01,0.036-0.012,0.048l-0.117-0.026c0.036-0.063,0.096-0.125,0.176-0.169
			c-0.008,0.025-0.016,0.047-0.022,0.068c0.059,0.032,0.133,0.032,0.212,0.009c0.098-0.028,0.268-0.113,0.357-0.156
			c-0.063-0.092-0.134-0.084-0.162-0.124c0.033-0.062,0.092-0.121,0.155-0.178c0.022-0.015,0.043-0.031,0.063-0.046l0.063-0.002
			c0.039-0.044,0.088-0.081,0.134-0.116c0.046-0.013,0.096-0.014,0.154,0.005c-0.009,0.052-0.117,0.069-0.184,0.093
			c0.143-0.054-0.046,0.312-0.33,0.682C376.134,91.361,375.888,91.435,375.839,91.303z"/>
		<g>
			<path d="M242.12,240.419c-0.062-0.121-0.201-0.08-0.377,0.038c0.04-0.088,0.078-0.178,0.117-0.267
				c-0.008,0.006-0.015,0.013-0.023,0.019c-0.01,0.006-0.033,0.02-0.051,0.03c-0.035,0.087-0.066,0.17-0.103,0.259
				c-0.222,0.163-0.492,0.427-0.753,0.667c-0.399,0.348-0.754,0.64-0.834,0.483c-0.032,0.087-0.057,0.156-0.073,0.208l-0.41,0.284
				c0.129-0.277,0.407-0.719,0.729-1.145c-0.046,0.125-0.089,0.24-0.13,0.346c0.359-0.149,0.941-0.883,1.389-1.485
				c0.076-0.136,0.163-0.266,0.254-0.397c0.006-0.008,0.021-0.019,0.027-0.027c-0.079-0.053-0.163-0.038-0.235-0.019
				c-0.001,0.002-0.002,0.004-0.003,0.006c-0.018,0.029-0.1,0.116-0.201,0.208c-0.117,0.154-0.272,0.284-0.457,0.396
				c-0.163,0.099-0.385,0.105-0.252-0.135c0.04-0.072,0.086-0.136,0.13-0.202c0.008-0.021,0.017-0.05,0.024-0.096
				c-0.009-0.142-0.006-0.283,0.008-0.424c-0.001-0.043-0.001-0.087-0.002-0.131c-0.006-0.223-0.036-0.5,0.051-0.714
				c0.013-0.031,0.037-0.062,0.053-0.093c-0.061-0.047-0.098-0.112-0.085-0.208c0.097-0.114,0.157-0.15,0.202-0.154
				c0.011-0.057,0.026-0.117,0.052-0.182c0.013-0.033,0.048-0.089,0.099-0.153c-0.143-0.237-0.222-0.631-0.303-1.036
				c-0.203-1.034-0.441-2.067-1.723-0.603c1.554-0.867,0.2,0.856-0.82,2.259c-0.271-0.008-1.026,0.36-1.984,1.16
				c-0.67,0.832-0.234,0.634-0.243,0.901c-0.509,0.343-1.356,1.104-1.516,0.749c-0.275,0.886-1.129,0.756-1.724,1.562
				c-0.48,0.76,0.172,0.087-0.125,0.675c-0.934,0.937-2.406,2.076-3.226,2.73c-0.515,0.035-1.827,0.365-1.482-0.601
				c1.508-1.257-0.015,1.141,1.443-0.315c-1.16,0.02,1.216-1.369,1.1-2.036c-0.718,0.184-1.69,1.049-2.444,1.853l0.229-0.07
				c-0.633,0.741-2.099,2.029-3.149,2.371c0.029-0.364-0.445-0.242,0.064-0.732c0,0-0.266,0.195-0.53,0.39
				c-0.261,0.201-0.54,0.375-0.54,0.375c-0.086,0.164-0.177,0.333,0.171,0.163c-0.387,0.523-0.968,0.791-1.448,0.936
				c-0.14-0.075-1.381,1.199-2.707,2.331c-1.28,1.202-2.648,2.239-2.59,2.119c-0.401,0.217-0.699,0.275-0.978,0.347
				c0.726-0.468,1.745-1.173,2.703-1.898c0.835-0.675,1.643-1.328,2.181-1.763c0.516-0.458,0.752-0.71,0.51-0.508
				c-0.201,0.065-0.82,0.524-1.668,1.163c-0.838,0.652-1.891,1.51-3.014,2.257c-0.557,0.386-1.112,0.771-1.637,1.133
				c-0.545,0.326-1.062,0.628-1.519,0.882c-0.917,0.505-1.587,0.836-1.782,0.756c-0.656,0.276-1.438,0.643-1.178,0.849
				c-1.178,0.307,0.139-0.639-0.757-0.581c-0.002,0.049,0.116,0.108-0.142,0.197l-0.888-0.044c-0.789,0.54-1.907,0.821-3.007,1.169
				c-1.103,0.351-2.244,0.582-3.115,1.126c0.477-0.441,0.964-1.127,2.081-1.7l0.249,0.086c0.145-0.138,1.082-0.542,0.969-0.806
				c-1.157,0.198-2.105,0.466-3.228,1.045c-0.237-0.018-0.512-0.028-0.701-0.062c0.014,0.036,0.039,0.061,0.044,0.104
				c-0.429-0.074-0.393-0.112-0.277-0.257c0.014-0.025,0.031-0.053,0.067-0.084c-0.865-0.626-4.354,1.441-6.554,1.239
				c-0.608,0.198-0.041,0.158-0.8,0.405c-1.098-0.077-2.025-0.143-2.964-0.208c-0.933-0.063-1.878-0.183-3.007-0.24
				c-0.717,0.38-0.78,0.526,0.106,0.879c0,0-0.432-0.018-0.863-0.036c-0.433-0.037-0.865-0.075-0.865-0.075
				c1.563-0.922-3.185-0.998-1.442-1.914c-0.487-0.242-1.492-0.273-2.441-0.214c-0.109,0.234-0.282,0.61-1.478,0.519
				c-1.632-0.442-1.25-0.287-2.576-0.77c-0.283-0.353,0.229-0.414,0.199-0.67c-2.129,0.111-1.73-0.854-3.657-1.154
				c-0.612-0.063-1.516-0.19-2.289-0.236c-0.769-0.073-1.405-0.079-1.495,0.186c-1.621-0.4-1.521-0.79-1.255-1.189
				c0,0-0.322-0.09-0.645-0.18c-0.321-0.095-0.637-0.208-0.637-0.208c4.19,1.066,8.648,2.022,13.135,2.568
				c-4.839-1.284-9.818-3.074-14.49-4.611c-4.693-1.525-9.114-2.79-13.413-2.775c0.063-0.575-0.406-1.294-1.088-2.123
				c-0.675-0.844-1.62-1.698-2.537-2.538c-0.904-0.86-1.853-1.593-2.56-2.16c-0.706-0.568-1.226-0.892-1.34-0.813
				c-0.447-0.2-0.898-0.4-1.343-0.615l-1.302-0.703c-0.868-0.479-1.749-0.963-2.572-1.533c-2.696-1.694-5.165-3.834-7.517-6.17
				c-2.334-2.361-4.417-5.041-6.322-7.889c-1.873-2.874-3.479-5.968-4.871-9.18c-1.361-3.23-2.434-6.606-3.297-10.043
				c-0.983-3.798-2.413-10.992-2.354-18.28c-0.052-3.639,0.318-7.269,0.788-10.442c0.264-1.585,0.518-3.064,0.856-4.371
				c0.157-0.655,0.293-1.275,0.446-1.844c0.173-0.564,0.333-1.085,0.479-1.559l0.491-1.641c0.188-0.54,0.377-1.08,0.566-1.625
				c-0.72,1.78-0.701,1.785-1.313,3.609c0.51-4.822,1.432-9.213,2.836-13.314c-0.594,0.572-0.938,0.563-1.986,2.114
				c0,0,0.252-0.5,0.503-1.001c0.239-0.505,0.53-0.986,0.53-0.986c-0.022-2.227,2.132-6.473,3-8.555
				c0.155,0.646,1.1-0.833,2.018-2.077l-0.588,0.351c0.409-0.611,0.827-1.233,1.25-1.864c0.441-0.618,0.89-1.244,1.34-1.874
				c0.859-1.29,1.872-2.491,2.785-3.746c1.961-2.398,3.936-4.708,5.893-6.476c0.531-0.508,1.047-0.762,1.394-0.873
				c0,0,0.213-0.232,0.551-0.563c0.335-0.334,0.781-0.78,1.229-1.226c0.876-0.914,1.835-1.74,1.835-1.74
				c0.074,0.704,3.623-2.117,1.96-0.357c2.568-2.839,6.032-4.515,8.819-6.896c11.299-6.234,24.92-9.932,38.601-10.155l-0.322-0.242
				c0.601-0.029,1.194-0.071,1.785-0.122c0.591-0.048,1.174-0.031,1.762-0.058c1.182-0.032,2.364-0.064,3.574-0.098
				c1.22-0.023,2.45,0.151,3.753,0.31c1.3,0.178,2.663,0.406,4.058,0.926c1.069,0.072,2.25,0.198,3.452,0.334
				c1.197,0.149,2.38,0.434,3.52,0.614c1.129,0.211,2.219,0.319,3.115,0.46c0.898,0.131,1.654,0.163,2.179,0.038
				c1.171,0.462,2.193,0.8,3.117,1.13c0.905,0.366,1.736,0.675,2.569,0.979c0.836,0.309,1.67,0.618,2.587,0.958
				c0.884,0.41,1.845,0.877,2.956,1.46c-0.384-0.609,0.757-0.137,1.772,0.282c1.038,0.417,1.813,0.785,0.974-0.081
				c-2.415-2.507-2.942-2.013-5.09-4.064l-0.027,0.227c-11.322-7.382-24.93-11.607-38.87-12.042
				c-4.649,0.222-9.47,0.593-14.301,1.344c-4.828,0.738-9.652,1.917-14.18,3.607c-4.868,1.83-9.726,4.257-14.107,7.055
				c-4.39,2.79-8.294,5.942-11.469,8.988c-0.732,0.757-1.474,1.276-2.221,1.741c-0.727,0.487-1.47,0.907-2.225,1.422
				c-2.818,2.939-5.906,6.384-8.724,10.21c-2.824,3.817-5.338,8.027-7.236,12.191c0.086-0.149,0.169-0.294,0.224-0.389
				c-1.094,2.172-2.05,4.071-3.002,5.961c-0.452,0.958-0.903,1.916-1.343,2.915c-0.402,1.013-0.776,2.074-1.134,3.211
				c0.187,0.036-0.058,0.732-0.054,1.107c-0.239,0.14-0.811,1.916-1.338,4.558c-0.229,1.329-0.555,2.85-0.711,4.507
				c-0.093,0.824-0.188,1.675-0.285,2.54c-0.055,0.868-0.109,1.75-0.164,2.634c-0.14,1.762-0.094,3.539-0.118,5.208
				c0.009,1.672,0.116,3.247,0.151,4.622c0.215,2.751,0.331,4.718,0.271,5.136c0.076,0.482,0.15,0.981,0.211,1.491
				c0.192,4.924,0.541,9.987,1.378,14.853c0.815,4.862,2.161,9.503,4.054,13.403c0.281,0.388,0.569,0.787,0.859,1.188
				c0.307,0.39,0.614,0.782,0.917,1.167c0.61,0.763,1.2,1.487,1.761,2.071c0.436,1.488,1.193,1.394,2.013,3.012
				c0.985,4.842,3.285,6.658,2.357,4.353c2.325,3.017,4.643,6.042,6.923,8.536c1.175,1.046,2.313,2.108,3.545,3.096
				c1.063,0.819,1.426,1.512,1.645,2.275c1.349,1.069,1.796,1.474,2.201,1.964c0.414,0.48,0.789,1.041,2.17,2.213
				c0.154,0.507,2.085,1.744,4.132,2.797c2.019,1.098,4.167,1.969,4.532,2.34l-0.54-0.241c3.482,2.218,5.388,4.588,9.15,6.318
				c5.139,2.544,10.896,4.437,16.675,5.619c5.783,1.196,11.574,1.685,16.88,1.79c0.11-0.619-2.345,0.081-2.443-0.747
				c6.176,0.304,12.69,0.607,19.043-0.812c1.171-0.124,2.645-0.179,3.222-0.124c2.069-0.404,1.095-0.655,2.576-1.042l0.375,0.47
				c1.006-0.542,1.811-0.719,2.636-0.833c0.816-0.127,1.653-0.193,2.589-0.728c0.015-0.255,0.733-0.604,1.428-0.903
				c0.284,0.52,2.26-1.004,2.26-0.491v-0.051c0-0.207,0.657-0.394,1.2-0.567c0.337-0.3,2.124-1.738,3.745-3.343
				c0.41-0.39,0.813-0.781,1.203-1.152c0.366-0.393,0.71-0.766,1.019-1.097c0.611-0.663,1.058-1.161,1.194-1.335l0.384-0.15
				c0.951-0.707,1.046-1.398,0.454-1.049l1.15-0.872l-0.105,0.136l1.146-0.869c0.24-0.125,0.653-0.1,0.499,0.358
				c0.525-0.656,1.106-1.376,1.792-1.833c-0.484,0.304-0.999,0.627-1.53,0.96c-0.555,0.296-1.128,0.603-1.705,0.911
				c-1.151,0.605-2.326,1.179-3.474,1.584c0.328-0.366,0.91-0.709,1.473-1.095c0.562-0.387,1.144-0.769,1.53-1.118
				c1.248-0.427,3.371-1.891,5.048-3.041c0.301-0.325,0.043-1.024,0.949-1.514c0.667-0.019,0.778-0.805,1.599-1.16
				c-0.494,0.845-1.233,1.431-1.931,2.097c0.493,0.272,1.923-1.409,2.572-1.849c0.152-0.354,1.499-1.648,2.175-2.619
				c0.03,0.472,0.402,0.12,0.84-0.28c0.047-0.105,0.102-0.221,0.156-0.338c-0.052,0.116-0.099,0.222-0.146,0.329
				c0.229-0.209,0.475-0.429,0.699-0.551C242.309,240.812,242.463,240.284,242.12,240.419z"/>
		</g>
		<g>
			<path d="M192.653,163.206c-0.951-0.929-1.034-0.172-1.844-0.924l0.017,0.215c-3.866-1.107-7.754-1.804-11.699-2.252
				c-2.661,0.439-5.508-0.113-8.259-0.054c-2.965,0.118-6.178,0.411-8.733,0.843c-0.611,0.16-1.027-0.39-1.532-0.708
				c-2.342,0.198-5.301-0.133-7.943,0.116c0.049,0.004,0.097,0.017,0.128,0.026c-1.401,0.053-2.423-0.642-3.792-0.585
				c0,0.182-0.212,0.186-0.318,0.276c-0.204-0.854-8.1,1.454-8.563,0.949c-0.143,0.035-0.291,0.065-0.441,0.082
				c-2.866-0.489-5.781-2.251-8.259-2.198c-0.552,0.378-1.169,0.704-1.639,1.136c-0.423-0.38-0.534,0.321-1.058,0.203
				c-1.272-1.748-2.083-1.067-1.415-0.441c-1.109,0.188-2.208-0.005-3.188,0.016c-0.458,0.106-0.914,0.22-1.377,0.348
				c-0.394,0.127-0.601-0.133-0.78-0.542c-1.004,0.202-0.695-0.205-1.73-0.417c-0.229-0.603-2.648,0.843-2.937,0.652l0.173-0.082
				c-1.2-0.15-1.957-1.328-3.133-1.424c-3.256-0.56-6.847-0.257-9.87-0.577c-0.054,0.62,0.674-0.112,0.678,0.712
				c-1.784-0.176-3.558-1.017-5.357-1.189c-0.319-0.179-0.705-0.507-0.847-0.71c-0.567-0.254-0.352,0.284-0.771,0.188l-0.035-0.563
				c-0.635,0.436-0.878-0.657-1.468-0.447c-0.039,0.225-0.253,0.247-0.459,0.221c0.013-0.595-0.637,0.017-0.586-0.525l-0.008,0.045
				c-0.124-0.015-0.214,0.021-0.362-0.088c-0.244,0.2-2.521,1.747-2.771,1.99l-0.021-0.021c-0.049,0.063-0.107,0.126-0.174,0.185
				c0.003,0.003,0.007,0.005,0.01,0.008c0.13,0.124-0.222,0.472-0.488,0.617c0.274,0.216,0.547,0.444,0.8,0.688
				c-0.282,0.194-0.768-0.141-1.068-0.088c-0.341-0.407-1.061-0.769-1.62-1.062c-0.127,0.03-0.238,0.69-0.511,0.387
				c-0.122-0.464-0.321,0.004-0.546-0.336c0.052-0.043,0.103-0.064,0.153-0.086c-0.03-0.006-0.062-0.013-0.093-0.017
				c-0.307,0.195-0.619,0.37-0.947,0.508c-0.105,0.103-0.215,0.196-0.328,0.275c-0.17,0.441-0.457,0.773-0.95,0.898
				c-0.002,0.003-0.001,0.01-0.003,0.013c-0.009-0.001-0.012-0.007-0.02-0.01c-0.048,0.012-0.104,0.016-0.156,0.023
				c-0.139,0.917-0.933,2.459-0.113,2.613c-0.469-0.692,0.192-0.684,0.715-0.742c0.041,0.23,0.259,0.575,0.626,0.765
				c0.325-0.041,0.2-0.239,0.268-0.408c0.173,0.159,0.511,0.298,0.452,0.651c0.269-0.413,0.393,0.285,0.7,0.151
				c0.273-0.185-0.011-0.184,0.186-0.381c0.398,0.061,0.956,0.142,1.271,0.235c0.08,0.245,0.285,0.63,0.281,1.016
				c0.083,0.172,0.155,0.352,0.215,0.54c0.256-0.008,0.52,0.046,0.693,0.281c-0.017,0.051-0.021,0.097-0.025,0.143
				c0.023-0.014,0.052-0.034,0.068-0.038c1.051-0.227,2.178-0.644,3.252-0.659c0.117-0.001,0.047,0.139-0.028,0.252
				c0.11,0.009,0.222,0.04,0.332,0.083c0.576-0.176,1.04-0.265,1.101-0.067c0.222-0.012,0.49-0.062,0.449-0.35
				c0.367,0.153-0.133,0.542,0.122,0.82c0.008-0.045-0.016-0.144,0.068-0.13l0.241,0.371c0.596-0.422,1.422,0.188,2.051-0.375
				c-0.188,0.303-0.408,0.838-0.81,1.104l-0.063-0.153c-0.059,0.086-0.383,0.173-0.385,0.458c0.362,0.205,0.682,0.165,1.082-0.102
				c0.069,0.079,0.15,0.16,0.204,0.241c0-0.038-0.006-0.069-0.002-0.112c0.12,0.183,0.105,0.211,0.055,0.321
				c-0.007,0.021-0.015,0.043-0.029,0.064c0.2,0.846,1.475-0.475,2.135-0.016c0.203-0.11,0.023-0.141,0.278-0.292
				c0.679,0.358,1.146,0.632,1.86,0.854c0.244-0.352,0.269-0.495,0.004-0.882l0.541,0.139c-0.533,0.941,0.984,0.955,0.4,1.894
				c0.151,0.226,0.477,0.283,0.788,0.14c0.04-0.241,0.104-0.627,0.487-0.611c0.523,0.341,0.4,0.22,0.832,0.545
				c0.093,0.318-0.075,0.437-0.065,0.688c0.698-0.377,0.57,0.707,1.218,0.671c0.041-0.008,0.088-0.015,0.136-0.021
				c0.153-0.197,0.397-0.418,0.56-0.407c0.149,0.011,0.293,0.036,0.436,0.063c0.062-0.072,0.107-0.157,0.115-0.27
				c0.332,0.028,0.444,0.197,0.473,0.42c1.036,0.345,1.959,0.994,3.053,1.235c0.241,0.053,0.484,0.104,0.727,0.154
				c0.023-0.003,0.047-0.004,0.07-0.007c0.043-0.005,0.048,0.017,0.061,0.035c0.055,0.012,0.109,0.024,0.165,0.035
				c0.524-0.358,1.026-0.851,1.492-1.536c0.072,0.812,0.566,1.474,1.155,1.955c0.262,0.027,0.522,0.056,0.785,0.071
				c0.084,0.005-0.011,0.182-0.161,0.357c0.787,0.451,1.546,0.587,1.587,0.333c0.665-0.363,1.335-0.656,2.011-0.893
				c4.271-1.483,8.813-0.59,13.511,0.411c2.607,0.509,9.715,1.244,12.38,1.961c0.387,0.092,0.772,0.178,1.163,0.254
				c-0.646-0.215-0.646-0.215-1.29-0.431c1.661-0.503,3.168-0.998,4.62-1.307c-0.241-0.314-0.274-0.61-0.859-1.052l0.727,0.23
				c0.702-0.854,2.242-0.756,2.981-1.101c-0.173,0.456,0.395,0.569,0.896,0.658l-0.188-0.313c1.904,0.265,4.139-0.025,5.846,0.097
				c0.238,0.008,0.41,0.188,0.512,0.351l1.652-0.294c-0.149,0.613,1.339,0.595,0.542,0.953c1.255-0.684,2.481-0.188,3.681-0.9
				c4.182,0.068,8.646-0.232,13.006-1.1l-0.097-0.233c1.528-0.352,2.907-1.518,4.731-1.044c1.344-0.773,3.228-1.137,3.8-2.404
				c1.521-0.119,2.15-0.743,3.649-1.02C191.534,163.792,193.365,163.728,192.653,163.206z"/>
		</g>
		<g>
			<path d="M188.786,201.068c-1.578-0.179-3.119-0.54-4.604-1.22c-0.038-0.018-0.046-0.054-0.042-0.096
				c-0.29-0.033-0.577-0.077-0.864-0.154c-0.071-0.019-0.046-0.112,0.023-0.224c-0.188,0.039-0.372,0.06-0.5-0.045
				c0.354-0.311,0.742-0.588,1.122-0.84c-0.048-0.053-0.096-0.109-0.145-0.169l-0.394,0.022c0.189-0.102,0.065-0.547-0.255-0.575
				l-0.11,0.095c-0.225-0.26-2.32-1.952-2.542-2.168c-0.15,0.098-0.234,0.057-0.355,0.063l-0.004-0.045
				c0.013,0.544-0.573-0.109-0.601,0.485c-0.199,0.012-0.404-0.024-0.427-0.25c-0.556-0.249-0.862,0.826-1.445,0.349l-0.071,0.56
				c-0.41,0.068-0.166-0.454-0.73-0.238c-0.149,0.193-0.543,0.495-0.862,0.653c-1.747,0.054-3.513,0.775-5.244,0.834
				c0.058-0.822,0.711-0.044,0.7-0.666c-2.938,0.12-6.38-0.418-9.557-0.074c-1.14,0.019-1.946,1.144-3.114,1.214l0.162,0.093
				c-0.29,0.172-2.528-1.431-2.789-0.844c-1.013,0.143-0.741,0.57-1.695,0.301c-0.2,0.397-0.417,0.643-0.789,0.49
				c-0.438-0.159-0.869-0.302-1.305-0.438c-0.943-0.086-2.015,0.034-3.072-0.226c0.685-0.581-0.053-1.313-1.394,0.348
				c-0.513,0.083-0.574-0.623-1.007-0.272c-0.424-0.462-0.998-0.828-1.506-1.242c-2.386-0.217-5.312,1.35-8.107,1.649
				c-0.145-0.026-0.285-0.066-0.421-0.11c-0.479,0.473-7.941-2.35-8.195-1.511c-0.096-0.098-0.3-0.115-0.288-0.296
				c-1.316-0.147-2.347,0.479-3.694,0.334c0.03-0.007,0.077-0.017,0.125-0.018c-2.532-0.422-5.407-0.287-7.653-0.639
				c-0.507,0.284-0.944,0.806-1.523,0.606c-2.437-0.6-5.516-1.104-8.366-1.416c-2.648-0.24-5.43,0.124-7.967-0.49
				c-3.834,0.188-7.629,0.627-11.43,1.477l0.029-0.213c-0.829,0.697-0.859-0.064-1.838,0.801c-0.721,0.474,1.041,0.658,0.652,1.285
				c1.427,0.375,1.992,1.039,3.451,1.258c0.469,1.302,2.262,1.789,3.508,2.648c1.789-0.353,3.043,0.902,4.493,1.354l-0.108,0.227
				c4.147,1.153,8.432,1.746,12.471,1.954c1.108,0.788,2.324,0.375,3.489,1.14c-0.745-0.409,0.688-0.293,0.585-0.915l1.574,0.402
				c0.108-0.156,0.286-0.324,0.517-0.316c1.653-0.01,3.789,0.427,5.644,0.288l-0.201,0.3c0.488-0.056,1.043-0.131,0.906-0.598
				c0.689,0.392,2.182,0.396,2.803,1.294l0.716-0.182c-0.594,0.403-0.645,0.696-0.898,0.993c1.381,0.404,2.802,0.996,4.37,1.608
				c-0.636,0.172-0.636,0.172-1.271,0.344c0.382-0.049,0.758-0.11,1.138-0.177c2.616-0.54,9.519-0.806,12.066-1.141
				c4.595-0.69,9.034-1.282,13.056,0.479c0.636,0.28,1.264,0.617,1.881,1.023c0.046,0.524,3.102-0.375,3.424-2.49
				c2.297,4.058,6.027,2.506,9.199,0.72c-1.439,0.183-2.899,0.337-4.282,0.255l0.43-0.05c-0.013-0.136-0.013-0.263-0.003-0.381
				c-0.328-0.075-0.652-0.169-0.967-0.314c-0.237-0.109,0.441-0.806,0.668-0.701c0.061,0.028,0.123,0.043,0.184,0.069
				c0.133-0.101,0.263-0.18,0.314-0.191c1.441-0.328,2.906-0.493,4.38-0.582c-0.412-0.106-0.825-0.209-1.233-0.345
				c-0.225-0.075,0.417-0.785,0.668-0.701c0.075,0.025,0.152,0.04,0.228,0.063c0.101-0.094,0.201-0.169,0.271-0.186
				c0.343-0.081,0.678-0.047,1.009,0.021l0.421-0.081c-0.043,0.057-0.074,0.106-0.104,0.154c0.326,0.092,0.65,0.206,0.974,0.293
				c0.061,0.017,0.122,0.028,0.183,0.044c0.233-0.103,0.472-0.215,0.742-0.34c0.236,0.167,0.061,0.186,0.25,0.31
				c0.666-0.415,1.809,0.987,2.057,0.156c-0.012-0.021-0.019-0.044-0.024-0.066c-0.041-0.113-0.054-0.142,0.075-0.316
				c-0.004,0.042-0.006,0.074-0.01,0.111c0.057-0.078,0.141-0.153,0.212-0.228c0.369,0.292,0.674,0.353,1.038,0.173
				c0.017-0.285-0.291-0.393-0.342-0.482l-0.07,0.148c-0.369-0.292-0.547-0.84-0.708-1.155c0.132,0.14,0.28,0.214,0.435,0.256
				c0.151-0.214,0.447-0.477,0.615-0.44c0.432,0.095,0.867,0.172,1.303,0.244c-0.006-0.231-0.184-0.485,0.086-0.581
				c-0.059,0.285,0.197,0.352,0.41,0.379c0.116-0.316,1.219,0.199,2.144,0.603c0.056,0.009,0.112,0.02,0.168,0.029
				c0.009-0.046,0.034-0.103,0.079-0.168c-0.359-0.157-0.733-0.31-0.992-0.393c0.086-0.066,0.176-0.157,0.313-0.148
				c-0.025-0.077,0.338,0.161,0.764,0.435c0.162-0.188,0.398-0.372,0.539-0.337c0.674,0.169,1.357,0.261,2.043,0.336
				c0.141-0.003,0.277,0.012,0.402,0.045c0.318,0.032,0.637,0.068,0.956,0.099c0.052-0.041,0.103-0.083,0.142-0.147
				c-0.095-0.578-0.912-0.049-0.628-0.801c-0.606-0.129,0.181,0.664-0.407,0.717c-0.249-0.522,0.13-1.101,0.259-1.43
				c0.31-0.073,0.853-0.117,1.24-0.151c0.146,0.173,0.001,0.196,0.083,0.312c0.139-0.147,0.307-0.28,0.408-0.291
				c0.148-0.016,0.299-0.028,0.447-0.043c0.105-0.133,0.27-0.219,0.379-0.311c0.029,0.093,0.009,0.19,0.029,0.271
				c0.168-0.016,0.336-0.033,0.505-0.048c0.188-0.166,0.314-0.365,0.352-0.52c0.368,0.068,0.81,0.107,0.817,0.387
				c0.065-0.008,0.131-0.016,0.197-0.024C189.002,202.074,188.89,201.563,188.786,201.068z"/>
		</g>
	</g>
	<path d="M482.149,160.843c-0.131-1.963-0.296-3.907-0.51-5.839c-0.105-0.963-0.228-1.934-0.36-2.887
		c-0.117-0.892-0.232-1.777-0.348-2.654c-0.245-1.832-0.551-3.804-1.071-5.812c-0.517-2.007-1.265-4.043-2.256-5.918
		c-0.822-1.261-1.38-2.564-1.456-3.233c-0.169-1.318-0.462-2.315-0.757-3.197c-0.209-2.863-1.037-3.162-1.849-6.21
		c-0.391-4.052-1.304-7.037-1.93-8.53c-0.64-1.492-0.989-1.491-0.525,0.491l-0.962-2.207c-0.299-0.702-0.599-1.402-0.896-2.1
		c-0.584-1.438-1.164-2.867-1.735-4.276c-1.162-2.868-2.39-5.746-3.866-8.393c-1.45-2.406-3.129-4.757-5.171-6.896
		c-0.868-0.904-1.539-1.618-2.067-2.263c-0.271-0.321-0.484-0.621-0.729-0.936c-0.222-0.299-0.701-2.38-0.889-3.076
		c-0.392-1.331-0.821-2.827-2.622-5.689c-0.1-0.417-0.803-1.458-1.758-2.638c-0.457-0.55-0.973-1.171-1.519-1.828
		c-0.536-0.649-1.188-1.438-1.813-2.156c-2.527-2.939-5.26-5.685-5.742-6.394l0.701,0.703c-4.402-5.425-6.758-9.578-11.431-14.456
		c-1.599-1.711-3.231-3.411-4.881-5.104c-1.732-1.797-3.948-3.849-6.593-5.422c-1.312-0.796-2.7-1.461-4.061-1.998
		c-0.674-0.272-3.666-4.269-4.94-5.508c-1.284-1.256-2.521-2.127-3.594-2.864c-1.004-0.672-2.006-1.341-3.002-2.008
		c-1.999-1.322-3.999-2.61-5.99-3.859c-3.986-2.492-7.936-4.831-11.775-6.987c-0.447,0.451,3.463,1.764,3.226,2.591
		c-8.905-5.227-18.056-10.501-27.957-14.292c-1.73-0.817-3.838-1.886-4.608-2.346c-3.157-1.287-1.998-0.346-4.347-1.166
		l-0.159-0.635c-3.621-0.601-4.964-2.084-8.383-2.689c-0.115,0.088-0.48,0.066-0.966-0.016c-0.551-0.11-1.245-0.249-1.931-0.385
		c0.016-0.302-1.007-0.48-1.942-0.609c-0.942-0.133-1.826-0.231-1.7-0.489L336.943,0.7c-0.74-0.113-1.269-0.146-2.15-0.361
		c-0.714,0.009-4.341,0.04-7.907,0.186c-3.572,0.135-7.114,0.357-7.809,0.436l-0.633-0.142c-1.896-0.111-2.733,0.283-1.636,0.459
		l-1.806-0.137c-0.098,0.104-0.215,0.2-0.32,0.263c1.83,0.338,3.655,0.708,5.333,1.1c-1.581,0.087-4.392-0.414-6.096-0.445
		c-2.005-0.515-6.167-1.058-9.411-1.444c-0.717,0.008-1.23,0.653-2.842,0.31c-0.723-0.448-1.687-0.105-2.893-0.344
		c-0.549,0.07-1.096,0.122-1.641,0.158c-0.145,0.156-0.32,0.297-0.451,0.297c-2.59-0.005-6.079,0.254-8.586-0.654
		c-0.297,0.005-0.581,0.012-0.822,0.017c-0.012,0.218,0.443,0.247,0.41,0.347c-0.398,0.084-0.955,0.144-1.512,0.198
		c-0.18,0.011-0.359,0.023-0.535,0.036l-0.331-0.041c-0.247,0.033-0.515,0.057-0.776,0.077c-0.211,0.115-0.376,0.257-0.465,0.431
		c1.113,0.041,1.499,0.213,1.487,0.459c0.153,0.028,0.312,0.049,0.459,0.085c-0.069-0.065,0.155-0.172,0.557-0.301
		c0.164,0.144,0.146,0.285-0.096,0.371c-0.132-0.003-0.225-0.012-0.3-0.022c0.529,0.142,1.034,0.33,1.545,0.55
		c0.781,0.114,1.531,0.279,2.246,0.593c2.166,0.194,4.472,0.557,6.424,1.424c0.471,0.095,0.792,0.208,0.728,0.355
		c0.012,0.006,0.022,0.013,0.034,0.02c1.414-0.371,2.252,0.327,3.948,0.232c1.511-0.149-0.097-0.187,0.979-0.357
		c2.26,0.114,5.425,0.304,7.218,0.474c0.518,0.276,1.842,0.746,1.761,1.146c0.423,0.016,0.843,0.106,1.233,0.296
		c0.062,0.03,0.071,0.064,0.048,0.132c-0.011,0.034-0.022,0.068-0.034,0.102c-0.001,0.003-0.005,0.008-0.006,0.011
		c1.442,0.059,2.971,0.196,3.992,0.495c-0.447,0.239,0.336,0.489-0.906,0.477l2.316,0.201c0.301-0.063,0.609-0.129-0.056-0.236
		c1.108-0.131,2.196,0.063,3.026,0.283c0.115,0.15,3.219,0.085,6.249,0.064c3.03-0.029,5.989,0.004,5.792,0.07
		c0.792,0.093,1.284,0.248,1.762,0.379c-0.152-0.012-0.31-0.024-0.475-0.037c-1.457-0.108-3.397-0.205-5.275-0.265
		c-3.756-0.124-7.26-0.108-6.152-0.068c0.7,0.213,5.457,0.236,10.156,0.477c2.349,0.12,4.685,0.291,6.474,0.547
		c1.776,0.263,3.042,0.619,3.262,0.792c1.208,0.285,2.674,0.605,2.466,0.257c1.99,0.686-0.748,0.363,0.622,1.014
		c0.045-0.035-0.08-0.17,0.377-0.035l1.279,0.735c3.258,0.45,7.605,2.479,10.991,3.113c-1.034-0.047-2.271,0.076-4.422-0.355
		l-0.314-0.263c-0.32-0.02-2.055-0.481-2.095-0.188c1.907,0.81,3.59,1.326,5.729,1.804c0.352,0.21,0.766,0.439,1.031,0.624
		c0.005-0.038-0.016-0.079,0.007-0.117c0.603,0.417,0.522,0.418,0.241,0.431c-0.039,0.008-0.086,0.015-0.164,0.008
		c0.918,1.193,7.739,2.442,10.996,4.446c1.061,0.354,0.154-0.087,1.479,0.349c3.355,1.934,5.615,3.354,9.078,5.413
		c1.305,0.288,1.466,0.21,0.268-0.856l2.627,1.558c-2.873-0.512,4.504,3.585,1.373,2.925c0.662,0.628,2.207,1.569,3.741,2.308
		c0.268-0.116,0.703-0.327,2.528,0.793c2.365,1.836,1.824,1.365,3.738,2.944c0.322,0.577-0.507,0.198-0.554,0.466
		c2.833,1.43,2.618,2.115,4.193,3.424c0.75,0.408,1.583,0.908,2.094,1.431c0.808,0.509,1.648,1.055,2.189,1.445
		c0.042,0.03,0.069,0.05,0.109,0.078c1.106,0.326,2.156,1.171,3.187,1.646c0.774,0.356,1.432,0.741,2.02,1.272
		c0.156,0.052,0.301,0.11,0.419,0.176c0.289,0.004,0.565,0.061,0.72,0.339c0.021,0.037,0.016,0.083,0,0.13
		c1.449,0.265,0.502,0.092,0,0.001c-0.002,0.005-0.006,0.011-0.008,0.017c0.092,0.011,0.168,0.021,0.262,0.033l0.001,0.01
		l0.001,0.006v0.008l0.002,0.014v0.011l0.003,0.041c0,0.004-0.001,0.013-0.001,0.018c0-0.008-0.001-0.017-0.001-0.025
		c0.001,0.016,0.001,0.031,0.001,0.047c0.001,0.075-0.001,0.168-0.008,0.276c0.002-0.024,0.004-0.049,0.005-0.075
		c-0.002,0.033-0.003,0.074-0.007,0.111v0.002c-0.005,0.058-0.01,0.116-0.018,0.195c-0.002,0.011-0.005,0.031-0.006,0.043
		c0.009-0.066,0.016-0.13,0.02-0.202c-0.012,0.133-0.027,0.277-0.055,0.429c-0.006,0.036-0.014,0.076-0.021,0.113
		c-0.016,0.088-0.03,0.178-0.052,0.262c-0.026,0.127-0.059,0.272-0.094,0.408l0.006-0.019c-0.004,0.015-0.008,0.031-0.012,0.046
		c-0.001,0.006-0.002,0.013-0.004,0.019l-0.11,0.411c-0.009,0.032-0.017,0.063-0.024,0.091l-0.012,0.042l-0.006,0.019
		c-0.043,0.152-0.071,0.242-0.071,0.242l0.032-0.115l-0.153,0.5c-0.001,0.005-0.003,0.01-0.005,0.015
		c1.17,1.368,2.338,2.736,3.455,4.146c0.937,0.474,1.769,0.992,2.667,1.661c0.657,0.489,1.342,1.055,2.048,1.671
		c0.796,0.706,1.635,1.439,2.444,2.119c3.263,2.747,6.447,5.093,9.527,6.939c-0.261,1.275,2.356,5.222,4.841,8.921
		c2.512,3.689,4.881,7.185,5.191,7.174c1.213,1.359,2.432,2.726,3.657,4.1c1.053,1.209,1.906,2.358,2.359,3.212
		c0.132,0.243,0.232,0.457,0.306,0.63l0.085,0.188c0.014,0.021,0.024,0.075,0.032,0.071c0.021,0.169,0.044,0.629,0.19,1.302
		c0.141,0.666,0.451,1.5,0.838,2.142c0.382,0.648,0.798,1.138,1.163,1.508c0.175,0.175,0.351,0.337,0.513,0.475l0.231,0.189
		l0.117,0.093c-0.034-0.028-0.053-0.043-0.063-0.052l0.01,0.007l0.021,0.015l0.33,0.243c0.52,0.385,0.655,0.484,1.021,0.78
		c1.337,1.087,2.561,2.39,3.68,3.887c2.25,2.992,4.03,6.749,5.729,10.873c0.861,2.118,1.728,4.249,2.6,6.391
		c0.832,2.061,1.617,4.162,2.322,6.265c0.701,2.097,1.336,4.222,1.771,6.228c0.214,0.99,0.375,1.974,0.419,2.726
		c0.023,0.362,0.005,0.68-0.015,0.715l-0.001-0.001l0.443,5.566c1.55,2.203,2.416,4.585,2.967,7.671
		c0.282,1.541,0.491,3.249,0.765,5.139l0.374,2.632l0.311,2.591c0.318,2.814,0.703,6.646,0.923,11.045
		c0.105,2.192,0.172,4.539,0.109,6.86c-0.032,1.152-0.101,2.312-0.228,3.312c-0.063,0.488-0.146,0.95-0.22,1.218l-0.007,0.026
		c0.018,0.023,0.166,4.785,0.166,4.785c-0.079,0.126-0.016,1.061-0.16,1.198l-0.072,0.588c-0.049,0.041-0.082,0.071-0.065,0.067
		l0.007,0.042l0.015,0.088l0.06,0.438c0.078,0.663,0.129,1.5,0.148,2.366c0.039,1.748-0.023,3.646-0.145,5.532
		c-0.123,1.891-0.307,3.79-0.543,5.624c-0.118,0.917-0.25,1.818-0.396,2.686c-0.172,0.962-0.342,1.915-0.509,2.854
		c-0.661,4.038-1.121,7.378-1.813,9.983c-0.668,2.614-1.515,4.413-2.315,5.612c-0.192,0.291-0.386,0.572-0.593,0.834
		c-0.103,0.133-0.205,0.265-0.313,0.388l-0.03,0.036c-0.018,0.063-0.037,0.129-0.057,0.196l0.002-0.001l0.008-0.01l0.035-0.04
		l0.069-0.079l0.146-0.162c0.097-0.115,0.199-0.237,0.313-0.373c0.217-0.284,0.485-0.62,0.806-1.133
		c-0.293,0.701-0.622,1.345-0.995,1.947l-0.033,0.057l-0.018,0.029l-0.009,0.014c-0.003,0.01-0.005,0.017-0.008,0.026
		c0.222-0.772,0.474-1.653-1.511,5.263l0.001,0.004l0.001,0.007l0.024,0.122l0.046,0.25l0.08,0.541
		c0.044,0.379,0.075,0.784,0.096,1.202c0.073,1.689-0.053,3.58-0.286,5.459c-0.478,3.783-1.357,7.586-2.458,11.238
		c0.724-1.171,1.115-1.285,2.452-4.232c0,0-0.337,0.921-0.675,1.842c-0.358,0.915-0.717,1.83-0.717,1.83
		c-0.162,1.834-1.004,4.713-2.089,7.518c-1.074,2.811-2.398,5.511-3.209,7.146c0.009-0.459-0.382-0.066-0.95,0.625
		c-0.138,0.167-0.291,0.353-0.455,0.551l-0.06,0.073l-0.016,0.019l-0.294,0.449l-0.021,0.028l-0.084,0.117
		c-0.062,0.083-0.124,0.167-0.188,0.253c-0.268,0.354-0.615,0.768-0.997,1.177l0.783-0.467c-0.62,0.758-1.424,1.575-2.321,2.404
		c-0.449,0.416-0.923,0.836-1.421,1.27l-0.46,0.405c-0.009,0.037-0.079,0.008-0.039,0.098l0.11,0.259l0.111,0.259
		c0.029,0.078,0.104,0.205,0.054,0.197l-0.271,0.263c-0.361,0.349-0.727,0.692-1.085,0.999c-0.265,0.225-0.526,0.428-0.761,0.574
		c-0.258,0.066-0.368,0.447-0.556,0.706c-0.348,0.571-0.751,1.195-1.215,1.877c-0.027,0.372-0.051,0.745-0.09,1.113
		c-0.016,0.185-0.036,0.369-0.061,0.552l-0.061,0.458c-0.059,0.403-0.121,0.767-0.198,1.134c-0.152,0.729-0.349,1.409-0.601,2.073
		c-0.513,1.348-1.212,2.569-2.224,4.003c-2.019,2.943-4.081,5.698-6.059,8.131c-0.823,1.026-1.586,1.676-2.086,2.035
		c0,0-1.396,1.783-2.793,3.567c-1.439,1.759-2.878,3.517-2.878,3.517c0.023-0.917-5.51,5.174-2.851,1.73
		c-2.043,2.739-4.38,5.264-6.726,7.732c-0.52,0.598-1.542,1.255-2.791,1.865c-1.251,0.612-2.683,1.188-4.163,1.822l-1.876,0.555
		c-0.654,0.198-1.311,0.398-1.953,0.62c-0.642,0.222-1.286,0.445-1.935,0.669l-0.976,0.348c-0.187,0.044-0.278,0.147-0.385,0.242
		l-0.32,0.284c-0.063,1.073-0.088,2.154-0.259,3.281l-0.06,0.411c-0.011,0.066-0.028,0.124,0.012,0.266
		c0.041,0.168,0.008,0.108,0.006,0.146c-0.025,0.069-0.063,0.148-0.107,0.234c-0.08,0.167-0.191,0.357-0.314,0.554
		c-0.505,0.8-1.266,1.705-2.109,2.579c-1.707,1.762-3.748,3.471-5.867,5.114c-2.129,1.643-4.37,3.235-6.648,4.78
		c-2.23,1.51-4.577,2.936-6.975,4.303c-9.631,5.437-19.992,10.04-30.418,13.908l0.631,0.038c-3.953,1.491-7.659,2.983-11.678,4.266
		c-3.98,1.271-8.383,2.171-13.529,2.593c-3.612,0.851-8.052,1.566-11.952,2.194c-3.9,0.633-7.264,1.192-8.726,1.884
		c-4.299,0.228-7.309,0.451-10.316,0.647c-3.018,0.17-5.982,0.393-10.378,0.113c1.078,0.416-0.984,0.476-3.132,0.207
		c-0.549-0.076-1.104-0.17-1.713-0.352c-0.391-0.102-0.658-0.158-0.848-0.181c-0.362-0.04-0.277,0.101,0.643,0.584
		c1.109,0.518,1.801,0.718,2.454,0.915c0.636,0.181,1.175,0.304,1.662,0.401c0.97,0.19,1.724,0.271,2.446,0.337
		c1.445,0.129,2.754,0.206,5.186,0.652l-0.137-0.219c5.679,0.425,11.292,0.544,16.924,0.498c5.63-0.055,11.264-0.292,16.934-0.768
		c5.669-0.499,11.382-1.154,17.233-2.511c5.658-1.293,11.185-2.911,16.646-4.754c7.161-2.82,14.537-5.87,21.854-9.449
		c3.656-1.796,7.296-3.724,10.867-5.917c1.814-1.119,3.485-2.234,5.172-3.397c1.682-1.165,3.344-2.376,4.978-3.668
		c2.108-1.687,4.217-3.483,6.301-5.722c1.041-1.145,2.083-2.363,3.087-4.027c0.25-0.418,0.496-0.871,0.731-1.365l0.174-0.388
		c0.053-0.124,0.146-0.335,0.074-0.185l0.031-0.115c0.046-0.16,0.026-0.335,0.029-0.508l-0.001-0.153l0.127-0.058l0.263-0.109
		l0.547-0.211l0.141-0.054l0.071-0.027l0.27-0.086l1.125-0.366c0.76-0.253,1.539-0.525,2.336-0.831
		c1.592-0.615,3.268-1.35,5.005-2.474c0.865-0.561,1.753-1.248,2.602-2.098c0.521-0.552,1.038-1.102,1.554-1.649
		c3.953-4.245,7.626-8.449,10.847-12.438c2.15-2.758,4.167-4.362,6.272-6.531c1.953-2.573,3.997-5.352,6.033-8.317
		c1.139-1.646,2.294-3.624,3.117-5.835c0.412-1.101,0.737-2.243,0.976-3.365c0.119-0.556,0.222-1.131,0.299-1.655l0.025-0.17
		l0.012-0.107l0.022-0.215c0.068-0.307-0.094-0.738,0.341-0.769c0.285-0.189,0.218-0.174,1.143-0.982
		c0.708-0.632,1.437-1.31,2.163-2.041c0.728-0.731,1.457-1.531,2.173-2.433c0.357-0.459,0.712-0.934,1.056-1.468
		c0.129-0.193,0.255-0.408,0.381-0.621l0.032-0.046l0.23-0.331c1.194-1.756,2.118-3.445,2.972-5.132
		c0.847-1.685,1.596-3.357,2.279-5.018c-0.12,0.27-0.247,0.528-0.332,0.696c1.649-3.838,3.026-7.176,4.266-10.584
		c1.217-3.414,2.313-6.873,2.972-11.077c-0.183,0.014,0.014-1.293-0.001-1.952c0.125-0.174,0.311-1.086,0.433-2.634
		c0.059-0.775,0.098-1.713,0.067-2.822c-0.002-0.089-0.009-0.188-0.013-0.28c1.354-2.197,2.478-4.83,3.194-7.574
		c0.81-3.025,1.208-6.141,1.498-9.085c0.135-1.43,0.271-2.863,0.404-4.278c0.157-1.427,0.313-2.837,0.464-4.208
		c0.274-2.887,0.388-5.563,0.435-7.929c0.105-4.709-0.184-8.228-0.145-9.024c-0.117-0.897-0.255-1.837-0.5-2.921l-0.071-0.367
		l-0.06-0.25c-0.047-0.164-0.104-0.325-0.195-0.464c0.148-0.193,0.262-0.422,0.344-0.647c0.056-0.096,0.261-0.932,0.364-1.492
		c0.228-1.19,0.353-2.282,0.453-3.36c0.191-2.145,0.261-4.205,0.288-6.248C482.536,168.761,482.406,164.77,482.149,160.843z"/>
	<g>
		<path d="M440.715,160.463c-0.237-1.819-0.535-3.707-0.88-5.772c-0.348-2.064-0.751-4.283-1.216-6.631
			c-0.931-4.696-2.107-9.911-3.564-15.444c-2.906-11.064-6.945-23.408-12.175-35.396c-5.207-11.987-11.665-23.607-18.886-33.156
			c-3.597-4.777-7.367-9.032-11.08-12.609c-1.854-1.789-3.692-3.41-5.468-4.858c-0.448-0.358-0.888-0.709-1.318-1.053
			c-0.399-0.312-0.791-0.618-1.174-0.917c-0.764-0.595-1.494-1.164-2.188-1.704c-3.232-2.5-6.487-4.951-9.842-7.393
			c5.484,4.14,5.48,4.144,10.86,8.365c-14.093-9.808-27.433-18.21-41.128-25.122c2.221,1.562,2.531,2,7.81,5.565
			c0,0-1.653-1.017-3.307-2.033c-1.661-1.007-3.348-1.98-3.348-1.98c-3.32-1.315-8.614-3.828-14.106-6.102
			c-5.479-2.299-11.159-4.324-14.871-5.354c1.721,0.095-3.997-1.987-9.177-3.418l1.966,0.858c-9.758-2.888-20.638-4.775-31.266-5.63
			c-10.633-0.847-20.986-0.848-30.036-0.311c-2.518,0.163-4.413,0.15-5.568,0.099c0,0-3.367,0.375-7.104,0.941
			c0.347,0.043,0.692,0.1,1.035,0.166c6.375,0.411,12.7-1.274,19.04-0.846c3.252,0.219,6.291,1.306,9.479,1.875
			c2.09,0.373,4.2,0.728,6.081,1.751l0.003,0l-0.001,0c0.015,0.008,0.029,0.014,0.044,0.022c0.036,0.02,0.031,0.063,0.008,0.115
			c2.537,0.598,5.057,1.259,7.487,2.248c2.313,0.941,4.446,2.215,6.766,3.162c0.771,0.314,1.562,0.789,2.351,1.206
			c1.059,0.018,1.993,0.18,2.842,0.763c0.269,0.093,0.535,0.204,0.809,0.349c6.007,1.028,12,2.4,17.848,4.127
			c6.553,1.943,12.924,4.301,18.973,6.937c-0.45-0.21-0.887-0.414-1.173-0.548c6.434,2.789,11.836,5.765,17.089,8.913
			c5.251,3.161,10.354,6.509,16.145,10.331c0.044-0.189,1.836,1.003,2.751,1.52c0.378,0.518,4.854,3.558,11.293,8.141
			c1.607,1.152,3.34,2.395,5.167,3.706c1.794,1.276,3.49,2.588,5.263,4.104c3.511,2.999,7.007,6.564,10.255,10.423
			c6.519,7.714,11.966,16.575,15.754,23.737c3.797,7.172,6.045,12.612,6.408,13.779c0.585,1.315,1.173,2.688,1.746,4.101
			c5.113,13.725,8.713,28.29,11.013,42.422c0.286,1.767,0.553,3.527,0.796,5.278c0.248,1.766,0.445,3.404,0.597,5.102
			c0.306,3.363,0.417,6.695,0.386,9.989c-0.057,6.587-0.713,13.04-1.327,19.353c-0.178,5.512-0.518,11.871-0.39,16.676
			c-0.342,2.294-0.326,3.685-0.274,5.192c0.026,0.754,0.053,1.539,0.085,2.483c0.034,0.636-0.037,1.558-0.25,2.805
			c-0.976,3.199-1.846,6.055-2.573,8.441c-0.732,2.423-1.29,4.388-1.624,5.748c-0.68,2.716-0.422,3.036,0.763-0.276
			c-1.294,5.433-2.856,10.83-4.584,15.952c-0.865,2.559-1.774,5.051-2.732,7.413c-0.956,2.35-1.971,4.616-3.027,6.473
			c-0.323,0.605-0.713,1.238-0.968,1.6c-0.204,0.296-0.442,0.584-0.757,0.78l-0.42,0.276l-0.522,0.359
			c-0.353,0.236-0.686,0.489-1.027,0.734c-0.669,0.502-1.326,1.015-1.957,1.548c-1.267,1.061-2.465,2.174-3.604,3.327
			c-2.989,3.087-4.655,4.705-6.348,6.051c-3.341,4.191-4.42,5.667-5.668,7.134c-1.217,1.472-2.525,2.982-5.741,7.334
			c-1.022,0.877-4.682,6.582-8.493,11.958c-1.912,2.689-3.901,5.272-5.605,7.193c-0.85,0.964-1.624,1.768-2.255,2.375
			c-0.618,0.598-1.202,1.111-1.482,1.332l1.226-1.209c-4.604,4.038-8.745,7.162-12.849,10.168c-4.116,3.007-8.231,5.935-13.012,9.5
			c-3.345,2.443-6.76,4.841-10.241,7.093c-3.476,2.24-7.043,4.372-10.57,6.021c-1.746,0.815-3.523,1.509-5.026,1.873
			c-0.299,0.079-0.879,0.191-1.368,0.292l-1.546,0.301l-3.145,0.573c-4.225,0.741-8.503,1.417-12.765,2.057
			c-1.952,0.292-3.901,0.574-5.848,0.85c-0.854,0.652-1.921,1.058-2.943,1.35c-0.363,0.104-0.727,0.201-1.09,0.303
			c-0.633,0.279-1.264,0.56-1.889,0.856c-1.319,0.625-2.598,1.265-3.97,1.684c-1.922,0.913-3.954,1.787-5.926,2.314
			c-1.927,0.516-3.846,1.364-5.854,1.432c-0.071,0.064-0.139,0.118-0.185,0.134c-2.775,0.977-5.785,1.45-8.645,2.15
			c-2.383,0.584-4.74,1.261-7.21,1.252c-0.022,0-0.026-0.019-0.022-0.045c-1.303,0.362-2.66,0.661-3.99,0.795
			c0.715,0.124,1.713,0.238,2.717,0.341c2.576,0.272,5.277,0.456,2.282,0.958c1.772,0.248,5.314,0.139,8.503-0.268
			c0.304-0.272,0.787-0.674,4.791-1.041c5.596-0.229,4.258-0.217,8.883-0.42c1.123,0.187-0.547,0.505-0.324,0.732
			c7.031-1.236,6.262-0.05,12.919-0.985c4.161-0.637,12.38-1.896,12.497-2.483c5.609-0.845,5.679-0.472,5.193,0.068l4.586-0.709
			c-7.408,1.306-14.965,2.38-22.627,3.341c-7.662,0.948-15.396,1.782-23.183,2.356c8.501-0.279,17.274-0.901,26.112-1.752
			c4.418-0.43,8.846-0.924,13.258-1.502c2.206-0.29,4.408-0.601,6.611-0.944c2.228-0.351,4.353-0.703,6.716-1.188
			c2.931-0.657,5.249-1.597,7.474-2.602c2.202-1.011,4.221-2.112,6.149-3.25c3.845-2.283,7.313-4.722,10.535-7.198
			c6.429-4.962,11.862-10.073,16.29-14.972c1.773-0.065,9.153-5.142,15.907-10.579c3.797-3.063,6.884-6.488,9.04-9.054
			c2.154-2.588,3.438-4.394,3.439-4.607c3.867-5.794,7.434-11.592,11.236-17.13c2.405-3.498,4.898-6.902,7.597-10.01
			c1.348-1.553,2.749-3.024,4.206-4.371c0.729-0.674,1.473-1.31,2.229-1.905c0.379-0.296,0.761-0.585,1.146-0.859l0.58-0.403
			l0.292-0.196l0.437-0.278c0.819-0.496,1.559-1.114,2.212-1.813c0.651-0.686,1.273-1.526,1.652-2.094
			c0.83-1.24,1.455-2.396,2.035-3.541c1.144-2.283,2.063-4.507,2.932-6.74c1.719-4.459,3.177-8.926,4.549-13.444
			c1.364-4.518,2.623-9.078,3.778-13.717c0.575-2.322,1.124-4.661,1.626-7.052c0.251-1.196,0.49-2.405,0.707-3.649
			c0.215-1.257,0.418-2.502,0.547-3.989l0.182-3.711l0.223-3.442c0.172-2.301,0.391-4.616,0.639-6.95
			c0.544-4.741,1.092-9.506,1.641-14.291c0.53-4.874,0.959-9.885,1.054-14.998C441.622,170.832,441.376,165.63,440.715,160.463z"/>
	</g>
	<path d="M406.067,317.418c-0.005-0.16,0.08-0.214,0.104-0.338c-0.345,0.168-0.171-0.364-0.454-0.364
		c-0.184,0.025-0.525,0.003-0.604,0.274c-0.229-0.04-0.177-0.239-0.097-0.457l-0.179-0.053c0.609,0.055,1.225,0.223,1.835,0.397
		c-1.16-1.064-2.519-2.089-4.113-0.245c0.166-1.059-1.019-1.701-1.116-1.447c-0.327,0.159-0.651,0.282-0.968,0.377
		c-1.005,0.297-1.976,0.304-2.917,0.147c-0.92-0.178-1.82-0.51-2.722-0.856c-1.029-0.372-3.797-0.998-4.854-1.502
		c-0.15-0.065-0.303-0.127-0.459-0.185c0.243,0.139,0.243,0.139,0.482,0.277c-0.806,0.157-1.555,0.319-2.204,0.391
		c0.045,0.166,0.007,0.311,0.174,0.558l-0.264-0.151c-0.378,0.32-0.881,0.281-1.255,0.337c-0.487,0.588-1.075,1.087-1.502,1.748
		c-0.567,0.877-1.303,1.597-1.965,2.399c-0.041,0.049-0.119,0.109-0.209,0.166c0.754,0.118,1.545,0.265,2.326,0.28
		c-0.021-0.005-0.039-0.014-0.052-0.02c0.618,0.052,0.963,0.457,1.554,0.497c0.029-0.088,0.122-0.079,0.184-0.118
		c-0.029,0.212,0.893,0.143,1.86,0.048c0.986-0.1,1.984-0.223,2.046-0.089c0.069-0.01,0.139-0.018,0.208-0.019
		c1.185,0.372,2.221,1.373,3.341,1.464c0.299-0.16,0.619-0.291,0.887-0.482c0.137,0.207,0.279-0.133,0.496-0.05
		c0.334,0.924,0.783,0.613,0.568,0.282c0.515-0.056,0.972,0.076,1.406,0.098c0.216-0.037,0.43-0.078,0.651-0.126
		c0.188-0.049,0.246,0.085,0.276,0.293c0.466-0.067,0.28,0.124,0.709,0.263c0.028,0.305,1.271-0.329,1.371-0.225l-0.085,0.034
		c0.51,0.114,0.706,0.72,1.214,0.807c1.096,0.308,2.34,0.356,3.458,0.479c0.035-1.274,0.634-2.779,1.197-3.939
		c0.021-0.226,0.042-0.451,0.067-0.677c-0.027,0.014-0.059,0.023-0.096,0.019C406.181,317.527,406.221,317.591,406.067,317.418z"/>
	<path d="M448.278,271.729c-0.109,0.049-0.022,0.069-0.161,0.138c-0.309-0.196-0.522-0.344-0.866-0.473
		c-0.145,0.17-0.165,0.241-0.059,0.439l-0.258-0.078c0.322-0.461-0.428-0.49-0.081-0.949c-0.063-0.115-0.222-0.148-0.386-0.082
		c-0.034,0.12-0.088,0.311-0.277,0.297c-0.24-0.178-0.188-0.115-0.385-0.284c-0.029-0.16,0.06-0.217,0.068-0.342
		c-0.368,0.177-0.25-0.361-0.578-0.353c-0.212,0.03-0.61,0.028-0.653,0.302c-0.267-0.026-0.243-0.228-0.188-0.45l-0.215-0.042
		c0.709,0.011,1.458,0.166,2.184,0.327c-1.48-1.054-3.342-1.973-4.758-0.036c-0.031-1.064-1.548-1.62-1.601-1.36
		c-0.339,0.18-0.676,0.329-1.013,0.449c-2.127,0.754-4.33,0.336-6.631-0.113c-1.276-0.232-4.752-0.505-6.063-0.818
		c-0.19-0.041-0.381-0.078-0.571-0.109c0.318,0.098,0.318,0.098,0.635,0.195c-0.806,0.276-1.535,0.548-2.237,0.729
		c0.121,0.153,0.143,0.3,0.433,0.511l-0.355-0.103c-0.331,0.439-1.081,0.417-1.434,0.602c0.077-0.231-0.2-0.277-0.445-0.312
		l0.096,0.153c-0.142-0.015-0.29-0.013-0.438-0.016c-0.747,1.708-2.327,3.888-3.879,4.834c0.294-0.054,0.581-0.111,0.85-0.17
		c0.288-0.092,0.5,0.174,0.747,0.322c1.114-0.146,2.535-0.04,3.795-0.208c-0.023-0.001-0.046-0.007-0.063-0.011
		c0.671-0.051,1.168,0.278,1.821,0.227c-0.002-0.091,0.1-0.096,0.15-0.143c0.104,0.421,3.862-0.849,4.091-0.599
		c0.068-0.019,0.141-0.036,0.212-0.046c1.377,0.204,2.767,1.059,3.948,1.005c0.264-0.193,0.56-0.361,0.786-0.581
		c0.2,0.187,0.257-0.164,0.506-0.109c0.595,0.864,0.985,0.517,0.673,0.209c0.532-0.104,1.054-0.013,1.52-0.027
		c0.221-0.055,0.439-0.114,0.662-0.18c0.189-0.065,0.283,0.064,0.361,0.268c0.482-0.105,0.329,0.1,0.817,0.201
		c0.097,0.299,1.271-0.422,1.405-0.327l-0.084,0.041c0.566,0.075,0.893,0.663,1.443,0.711c1.508,0.291,3.186,0.167,4.547,0.372
		c0.064-0.308,0.444-0.19,0.782-0.061c-0.155-0.869,0.368-1.902,0.696-2.446c0.299-0.496,0.648-1.022,1.102-1.348
		C448.794,271.915,448.364,271.802,448.278,271.729z"/>
	<path d="M402.439,43.473c-0.341,0.129-0.669,0.262-0.964,0.399c-0.212,0.135-0.461-0.143-0.708-0.284
		c-0.877,0.288-2.078,0.324-3.061,0.664c0.019-0.001,0.041,0.002,0.053,0.004c-0.532,0.139-1.044-0.173-1.566-0.036
		c0.031,0.102-0.05,0.121-0.076,0.18c-0.226-0.467-2.887,1.444-3.15,1.203c-0.048,0.031-0.1,0.059-0.155,0.081
		c-1.189-0.047-2.633-0.804-3.586-0.565c-0.146,0.257-0.324,0.491-0.427,0.771c-0.233-0.177-0.148,0.224-0.371,0.202
		c-0.814-0.873-1.004-0.425-0.629-0.131c-0.394,0.197-0.854,0.178-1.229,0.277c-0.083,0.052-0.163,0.11-0.244,0.165
		c0.618,0.54,1.16,1.25,1.665,1.742c1.306,1.27,2.662,2.443,4.17,3.444c0.074,0.027,0.141,0.068,0.211,0.101
		c0.027,0.002,0.054,0.004,0.081,0.007c1.078,0.083,3.887-0.067,5.021,0.138c0.164,0.022,0.324,0.042,0.484,0.055
		c-0.282-0.072-0.282-0.072-0.563-0.144c0.545-0.409,1.034-0.802,1.536-1.086c-0.144-0.158-0.206-0.322-0.502-0.526l0.314,0.074
		c0.125-0.534,0.729-0.597,0.955-0.844c0.009,0.27,0.244,0.291,0.45,0.304l-0.123-0.162c0.771,0.007,1.577-0.323,2.25-0.382
		c0.093-0.013,0.188,0.075,0.252,0.16l0.586-0.287c0.042,0.357,0.606,0.238,0.361,0.497c0.37-0.476,0.918-0.287,1.264-0.775
		c1.548-0.257,3.143-0.724,4.635-1.465C407.091,45.939,404.649,44.9,402.439,43.473z"/>
	<path d="M471.806,183.252c-0.138-0.053-0.274-0.103-0.44-0.145c-0.121,0.18-0.13,0.252,0.021,0.441l-0.294-0.059
		c0.26-0.48-0.551-0.458-0.265-0.938c-0.087-0.11-0.262-0.132-0.425-0.054c-0.015,0.121-0.039,0.315-0.245,0.314
		c-0.29-0.16-0.219-0.102-0.46-0.256c-0.057-0.157,0.029-0.219,0.018-0.345c-0.364,0.202-0.325-0.342-0.67-0.312
		c-0.217,0.046-0.645,0.065-0.65,0.341c-0.293-0.013-0.295-0.214-0.269-0.438l-0.238-0.031c0.768-0.021,1.576,0.077,2.372,0.188
		c-1.742-0.938-3.795-1.767-5.107,0.229c-0.158-1.061-1.844-1.554-1.874-1.293c-0.348,0.194-0.698,0.354-1.054,0.485
		c-2.248,0.823-4.703,0.464-7.245,0.054c-1.408-0.204-5.233-0.435-6.68-0.742c-0.214-0.036-0.423-0.07-0.628-0.104
		c0.352,0.095,0.352,0.095,0.701,0.19c-0.875,0.283-1.671,0.559-2.439,0.741c0.139,0.152,0.163,0.3,0.488,0.509l-0.395-0.101
		c-0.354,0.441-1.182,0.421-1.567,0.607c0.081-0.231-0.226-0.277-0.496-0.312l0.107,0.153c-0.974-0.091-2.088,0.068-2.983,0.061
		c0.01,0.133,0.023,0.266,0.022,0.401c-0.009,1.072-0.338,2.068-0.389,3.128c-0.019,0.399-0.005,0.77-0.035,1.121
		c0.139,0.074,0.271,0.18,0.413,0.256c1.249-0.144,2.843-0.035,4.251-0.21c-0.027-0.001-0.054-0.007-0.069-0.011
		c0.749-0.053,1.313,0.274,2.046,0.22c-0.006-0.091,0.107-0.097,0.161-0.144c0.133,0.423,4.3-0.882,4.561-0.639
		c0.075-0.02,0.154-0.038,0.233-0.049c1.548,0.189,3.155,1.014,4.48,0.939c0.285-0.199,0.608-0.374,0.847-0.599
		c0.238,0.182,0.278-0.171,0.562-0.122c0.727,0.849,1.143,0.494,0.77,0.194c0.589-0.115,1.181-0.04,1.704-0.069
		c0.244-0.062,0.486-0.127,0.729-0.201c0.209-0.071,0.325,0.055,0.434,0.256c0.531-0.12,0.376,0.089,0.937,0.175
		c0.138,0.296,1.396-0.472,1.556-0.382l-0.092,0.044c0.647,0.052,1.084,0.626,1.715,0.651c1.759,0.217,3.674-0.003,5.301,0.099
		c0.012-0.311-0.357,0.069-0.382-0.343c0.269,0.015,0.539,0.058,0.81,0.111c0.045-0.245,0.127-0.498,0.202-0.765
		c0.067-0.24,0.114-0.481,0.161-0.723C471.913,184.945,471.76,184.12,471.806,183.252z"/>
	<path d="M466.584,142.837c0.369-0.01,0.747,0.028,1.128,0.076c-0.618-1.812-1.108-3.601-1.988-5.337v-0.002
		c-0.037,0.012-0.073,0.008-0.109,0.031c-0.003,0.137-0.005,0.358-0.224,0.365c-0.317-0.171-0.239-0.107-0.505-0.273
		c-0.073-0.176,0.009-0.25-0.015-0.392c-0.359,0.242-0.365-0.375-0.72-0.33c-0.219,0.061-0.66,0.098-0.649,0.411
		c-0.304-0.003-0.319-0.232-0.308-0.487l-0.247-0.027c0.79-0.052,1.63,0.029,2.466,0.128c-1.912-1-3.967-1.868-5.279,0.447
		c-0.194-1.204-1.945-1.761-1.977-1.464c-0.359,0.222-0.726,0.403-1.098,0.553c-2.345,0.96-4.988,0.484-7.656-0.022
		c-1.508-0.255-5.602-0.623-7.192-0.98c-0.235-0.042-0.464-0.084-0.689-0.125c0.383,0.112,0.383,0.112,0.766,0.224
		c-0.978,0.312-1.858,0.615-2.707,0.813c0.146,0.174,0.171,0.342,0.521,0.583l-0.429-0.12c-0.398,0.497-1.301,0.465-1.727,0.671
		c0.093-0.259-0.239-0.321-0.538-0.355l0.117,0.172c-0.656-0.054-1.367,0-2.049,0.053c0.205,0.792,0.396,1.584,0.57,2.379
		c0.303,1.024,0.592,2.054,0.815,3.101c0.652-0.023,1.314-0.05,1.955-0.12c-0.028-0.001-0.055-0.008-0.073-0.013
		c0.795-0.052,1.384,0.326,2.157,0.272c-0.001-0.103,0.118-0.108,0.178-0.162c0.104,0.469,4.615-0.935,4.896-0.644
		c0.082-0.021,0.167-0.039,0.253-0.05c1.646,0.251,3.332,1.22,4.789,1.158c0.32-0.221,0.678-0.414,0.949-0.664
		c0.248,0.211,0.308-0.188,0.613-0.128c0.757,0.976,1.225,0.581,0.828,0.234c0.644-0.118,1.285-0.023,1.865-0.062
		c0.269-0.071,0.534-0.145,0.805-0.229c0.229-0.082,0.355,0.062,0.471,0.29c0.586-0.138,0.413,0.1,1.029,0.196
		c0.153,0.337,1.537-0.539,1.711-0.437l-0.102,0.05c0.712,0.059,1.2,0.711,1.914,0.708c1.982,0.16,4.107-0.109,5.956-0.14
		C467.033,142.836,466.657,143.301,466.584,142.837z"/>
	<path d="M463.813,228.078c0.093-0.743,0.251-1.518,0.68-2.14c-1.278-0.04-2.57-0.183-3.842-0.18
		c-2.013,0.02-4.182,0.152-5.915,0.348c-0.416,0.078-0.675-0.199-1.005-0.36c-1.579,0.088-3.556-0.089-5.334,0.034
		c0.034,0.002,0.065,0.009,0.086,0.013c-0.938,0.025-1.609-0.327-2.529-0.296c-0.002,0.091-0.146,0.093-0.22,0.139
		c-0.123-0.429-5.448,0.735-5.748,0.489c-0.096,0.018-0.195,0.033-0.297,0.042c-1.068-0.134-2.146-0.459-3.18-0.715
		c0.107,1.878-0.437,3.923-1.209,5.619c0.206,0.031,0.411,0.061,0.617,0.093c1.714,0.235,6.396,0.582,8.137,0.94
		c0.259,0.043,0.512,0.084,0.762,0.126c-0.422-0.107-0.422-0.107-0.842-0.214c1.104-0.253,2.109-0.503,3.074-0.654
		c-0.152-0.157-0.169-0.305-0.545-0.527l0.475,0.116c0.484-0.426,1.501-0.375,1.998-0.546c-0.125,0.228,0.248,0.285,0.576,0.33
		l-0.117-0.157c1.254,0.133,2.736,0.001,3.863,0.068c0.156,0.005,0.266,0.095,0.326,0.177l1.102-0.139
		c-0.12,0.306,0.861,0.307,0.324,0.479c0.852-0.333,1.641-0.077,2.459-0.424c2.063,0.05,4.23,0.006,6.413-0.166
		C463.641,229.81,463.721,228.806,463.813,228.078z"/>
	<path d="M454.349,91.397c0.041-0.051,0.076-0.099,0.13-0.158c0.306-0.358,0.521-0.686,0.424-0.647
		c-0.084,0.004-0.113-0.04-0.134-0.089c0.001-0.013-0.008-0.028-0.02-0.042c-0.021-0.066-0.041-0.131-0.143-0.117l-0.02,0.084
		c-0.394,0.128-0.477-0.244-0.617-0.607c-0.144-0.394-0.368-0.765-0.69-0.682c0.491,0.174,0.148,0.33-0.136,0.484
		c-0.09-0.092-0.293-0.208-0.517-0.23c-0.139,0.073-0.028,0.141-0.015,0.229c-0.125-0.041-0.318-0.047-0.38-0.218
		c-0.022,0.235-0.247-0.071-0.353,0.036c-0.082,0.125,0.049,0.083,0.004,0.202c-0.196,0.03-0.469,0.074-0.631,0.076
		c-0.124-0.142-0.408-0.377-0.385-0.651c0.286-0.036,0.059,0.424,0.322,0.296c-0.272-0.323,0.211-0.167,0.141-0.45
		c-0.161-0.136-0.336-0.087-0.469-0.003l0.051,0.04c-0.114,0.08-0.354,0.223-0.577,0.067c-0.017-0.135-0.116-0.214-0.031-0.27
		l-0.19,0.021c-0.008,0.046-0.018,0.093,0.047,0.109c-0.048,0.119-0.155,0.086-0.252,0.028c-0.063-0.126-0.785,0.796-0.788,0.707
		c-0.064,0.017-0.122-0.019-0.173-0.042c0.298-0.174,0.941-0.691,0.812-0.624c-0.163-0.122-1.287,1.029-1.466,0.788
		c-0.099,0.032-0.211,0.087-0.141,0.22c-0.193-0.029-0.037-0.273-0.201-0.375c0.005,0.022,0.033,0.067-0.009,0.07l-0.173-0.148
		c-0.193,0.271-0.672,0.079-0.86,0.418c0.034-0.167,0.043-0.447,0.177-0.62l0.054,0.066c0.014-0.047,0.143-0.127,0.094-0.264
		c-0.196-0.054-0.333,0-0.468,0.173c-0.045-0.03-0.096-0.059-0.133-0.092c0.006,0.018,0.012,0.033,0.02,0.053
		c-0.084-0.074-0.084-0.088-0.078-0.147l0.002-0.034c-0.234-0.381-0.582,0.395-0.956,0.251c-0.073,0.076,0.013,0.07-0.076,0.17
		c-0.366-0.096-0.622-0.174-0.98-0.201c-0.052,0.195-0.042,0.267,0.142,0.423l-0.268-0.006c0.09-0.511-0.598-0.349-0.486-0.863
		c-0.103-0.092-0.257-0.083-0.375,0.02c0.021,0.12,0.053,0.312-0.124,0.347c-0.29-0.106-0.216-0.062-0.461-0.171
		c-0.092-0.143-0.034-0.218-0.079-0.337c-0.256,0.257-0.37-0.276-0.654-0.189c-0.172,0.082-0.531,0.171-0.465,0.44
		c-0.252,0.036-0.307-0.16-0.345-0.381l-0.21,0.009c0.65-0.146,1.36-0.189,2.068-0.215c-1.736-0.613-3.686-1.082-4.303,1.073
		c-0.408-1.005-1.975-1.21-1.936-0.952c-0.248,0.245-0.51,0.458-0.782,0.642c-1.727,1.165-3.937,1.209-6.232,1.217
		c-1.267,0.026-4.632,0.413-5.963,0.349c-0.19-0.004-0.382-0.005-0.571,0c0.329,0.037,0.329,0.037,0.655,0.072
		c-0.69,0.417-1.31,0.814-1.932,1.117c0.158,0.125,0.215,0.265,0.55,0.417l-0.368-0.034c-0.196,0.486-0.918,0.601-1.206,0.846
		c0.011-0.238-0.266-0.232-0.51-0.222l0.132,0.131c-0.099,0.008-0.199,0.035-0.299,0.049c0.468,0.822,0.778,1.727,1.218,2.567
		c0.334,0.638,0.724,1.251,1.038,1.899c0.111-0.033,0.231-0.056,0.339-0.092c-0.022,0.003-0.046,0.002-0.063,0
		c0.633-0.172,1.201,0.056,1.817-0.116c-0.026-0.087,0.068-0.111,0.104-0.167c0.217,0.391,3.492-1.549,3.778-1.353
		c0.061-0.032,0.125-0.062,0.192-0.086c1.383-0.063,2.975,0.483,4.105,0.197c0.197-0.239,0.434-0.462,0.586-0.72
		c0.25,0.139,0.199-0.21,0.455-0.209c0.841,0.71,1.113,0.296,0.715,0.064c0.481-0.206,1.014-0.229,1.461-0.343
		c0.197-0.1,0.389-0.203,0.582-0.313c0.162-0.103,0.295,0.001,0.439,0.179c0.43-0.204,0.349,0.025,0.856,0.017
		c0.195,0.267,1.092-0.688,1.252-0.626l-0.066,0.058c0.573-0.057,1.101,0.429,1.657,0.349c1.586-0.083,3.197-0.623,4.652-0.814
		c-0.075-0.303-0.294,0.13-0.428-0.264c0.854-0.118,1.813,0.082,2.689-0.051c0.18,0.048,0.418,0.159,0.519,0.239
		c0.313,0.052,0.117-0.179,0.333-0.184l0.115,0.264c0.225-0.286,0.535,0.203,0.779,0.03c-0.021-0.112,0.075-0.148,0.178-0.162
		c0.102,0.285,0.302-0.089,0.38,0.173l-0.005-0.022c0.064-0.01,0.1-0.038,0.194-0.007c0.087-0.129,0.886-1.155,0.966-1.312
		l0.076,0.032c0.162-0.05,0.151-0.277,0.033-0.303l0.212-0.035l-0.017,0.025l0.209-0.035c0.048,0.016,0.144,0.136,0.137,0.274
		c0.076-0.128,0.179-0.21,0.328-0.197c-0.412-0.083-0.896-0.236-1.337-0.437c0.097-0.13,0.399-0.042,0.534-0.109
		c0.245,0.146,0.678,0.209,1.045,0.247c0.06-0.035-0.037-0.356,0.174-0.261c0.174,0.193,0.166-0.054,0.363,0.065
		c-0.09,0.153-0.255,0.141-0.404,0.17c0.141,0.245,0.434,0.073,0.59,0.108c0.025-0.099,0.401-0.122,0.573-0.259
		c0.027,0.172,0.129,0.161,0.251,0.155c0.006-0.012,0.018-0.028,0.024-0.041c-0.009,0.016-0.014,0.026-0.021,0.041
		c0.064-0.003,0.133-0.004,0.203,0.024c0.18-0.028,0.299-0.195,0.145-0.235C454.465,91.433,454.409,91.41,454.349,91.397z
		 M453.839,91.303c-0.006,0.021-0.01,0.036-0.012,0.048l-0.117-0.026c0.036-0.063,0.096-0.125,0.176-0.169
		c-0.008,0.025-0.016,0.047-0.022,0.068c0.059,0.032,0.133,0.032,0.212,0.009c0.098-0.028,0.268-0.113,0.357-0.156
		c-0.063-0.092-0.134-0.084-0.162-0.124c0.033-0.062,0.092-0.121,0.155-0.178c0.022-0.015,0.043-0.031,0.063-0.046l0.063-0.002
		c0.039-0.044,0.088-0.081,0.134-0.116c0.046-0.013,0.096-0.014,0.154,0.005c-0.009,0.052-0.117,0.069-0.184,0.093
		c0.143-0.054-0.046,0.312-0.33,0.682C454.134,91.361,453.888,91.435,453.839,91.303z"/>
</g>
<g id="cost-3">
</g>
<g id="difficulty-0">
</g>
<g id="difficulty-1">
</g>
<g id="difficulty-2">
</g>
<g id="difficulty-3">
</g>
<g id="hourglass">
</g>
<g id="hourglass-wait">
</g>
<g id="aroow-up">
</g>
<g id="search">
</g>
<g id="plus">
</g>
<g id="minus">
</g>
<g id="grill">
</g>
<g id="steam">
</g>
<g id="kettle">
</g>
<g id="oven">
</g>
<g id="pizza-oven">
</g>
<g id="microwave">
</g>
<g id="fryer">
</g>
<g id="pot">
</g>
<g id="pan">
</g>
<g id="wok">
</g>
<g id="menu">
</g>
<g id="line">
</g>
<g id="home">
</g>
</svg>
