<?xml version="1.0" encoding="UTF-8"?>
<svg version="1.1" xmlns="http://www.w3.org/2000/svg" viewBox="0 0 1304 1181" width="1304" height="1181">
<path d="M0 0 C33.10140272 -0.16244017 66.20263657 -0.28255474 99.30439645 -0.33752537 C106.72804002 -0.3505533 114.15161958 -0.37270297 121.57522774 -0.39876366 C130.40166932 -0.42934927 139.22798717 -0.44517242 148.05448365 -0.44135034 C152.48408594 -0.43964508 156.9134449 -0.44378267 161.34300041 -0.46535683 C165.37558436 -0.48471209 169.40772355 -0.48498406 173.44032419 -0.47058821 C174.88070889 -0.46857926 176.32112346 -0.47311386 177.76145709 -0.48540926 C190.85717462 -0.59010451 203.97893525 1.49455642 215.64392281 7.7683506 C216.30472847 8.11269142 216.96553413 8.45703224 217.64636421 8.81180763 C223.41570764 11.91295312 228.44895558 15.57481545 233.26892281 20.0183506 C234.12099312 20.79049904 234.97306343 21.56264748 235.85095406 22.35819435 C241.79295387 27.99730362 246.2574599 33.8902896 250.26892281 41.0183506 C250.73040718 41.81885841 251.19189156 42.61936623 251.66736031 43.44413185 C255.35884238 50.27896685 257.39752508 57.50523915 259.26892281 65.0183506 C259.44760053 65.71137213 259.62627825 66.40439365 259.81037045 67.11841583 C260.46980844 71.28877311 260.40980477 75.40060776 260.40263557 79.61652565 C260.40490432 80.59524179 260.40717306 81.57395793 260.40951055 82.58233213 C260.41587636 85.88800256 260.41502744 89.19363173 260.41418648 92.49930763 C260.4171373 94.8919543 260.42048986 97.2846005 260.42420959 99.67724609 C260.43210189 105.6024766 260.43506567 111.52769797 260.43569463 117.45293262 C260.43630632 122.41904096 260.43893791 127.38514477 260.44281006 132.3512516 C260.45795982 152.0965454 260.46053404 171.84182362 260.45740499 191.5871224 C260.45651627 197.44298018 260.4563273 203.29883767 260.45650673 209.15469551 C260.45885675 308.958548 260.22746603 408.76122072 259.4890905 572.613464 C259.41948047 587.10178474 259.35361727 601.59011864 259.28978627 616.07846591 C259.20047426 636.33364993 259.10399479 656.58878104 258.99546665 676.84387183 C258.94274865 686.70143967 258.89268575 696.55900016 258.85072327 706.41662025 C258.81564054 714.64562646 258.77395025 722.8745658 258.72356717 731.10349315 C258.69831083 735.25648173 258.67596933 739.40942619 258.6620878 743.56246972 C258.45736062 802.44458881 258.45736062 802.44458881 236.02282906 825.2996006 C235.11403999 826.1967881 234.20525093 827.0939756 233.26892281 828.0183506 C232.51482124 828.7711631 231.76071968 829.5239756 230.98376656 830.2996006 C210.00906141 850.09424067 183.7568086 850.35309578 156.70642281 850.2058506 C154.12984504 850.19895109 151.55326619 850.19244778 148.97668648 850.18631935 C120.40417353 850.09087908 91.83545231 849.58355212 63.26892281 849.0183506 C63.15532417 850.10196877 63.04172554 851.18558693 62.92468452 852.30204201 C62.23611761 857.77540814 61.00355078 863.1053671 59.77673531 868.4792881 C59.5197184 869.61855751 59.26270149 870.75782692 58.99789619 871.93161964 C58.28516511 875.08519224 57.56874961 878.23789779 56.85022163 881.39015388 C56.38838322 883.41766992 55.92782329 885.44547238 55.46765327 887.47336769 C53.08062167 897.99123832 50.67762462 908.50542371 48.26892281 919.0183506 C48.09058403 919.79701485 47.91224525 920.57567909 47.72850227 921.37793922 C38.13284892 963.27129621 28.34536718 1005.11778889 18.35479927 1046.91876411 C17.6575104 1049.83649478 16.96075259 1052.75435191 16.26403999 1055.67222023 C13.69538484 1066.42475121 11.11023097 1077.17314335 8.5041523 1087.91666603 C7.67312723 1091.34396443 6.84741743 1094.77248153 6.02588081 1098.20206642 C5.02792279 1102.3664821 4.01895299 1106.5280844 3.00191307 1110.68787956 C2.63011561 1112.21596085 2.26195344 1113.74493246 1.89790154 1115.27487755 C-3.28468724 1137.02285868 -13.71021539 1156.32077798 -32.73107719 1169.0183506 C-53.55285574 1181.48834651 -76.39961697 1184.82620637 -100.06426334 1179.03129864 C-102.15603145 1178.50310584 -104.24418443 1177.96182554 -106.33263969 1177.42069435 C-107.90934823 1177.02349583 -109.48641134 1176.62770286 -111.06377983 1176.23313332 C-114.62149661 1175.34119494 -118.17714246 1174.44149392 -121.73174858 1173.53724098 C-128.28874335 1171.87258165 -134.85451506 1170.24390672 -141.4210186 1168.61722755 C-156.57462139 1164.86110564 -171.7224304 1161.08206116 -186.86865377 1157.29631615 C-188.99551435 1156.76474227 -191.12240446 1156.23328672 -193.2493 1155.7018528 C-239.06329583 1144.25382079 -284.82829219 1132.63471596 -330.50515366 1120.64974403 C-336.41339525 1119.10012746 -342.32427462 1117.5608158 -348.23580742 1116.02379799 C-432.98239195 1093.98884419 -517.44031897 1070.83607368 -601.91525078 1047.78565407 C-688.24858472 1024.22836807 -774.61406599 1000.78839238 -861.00915337 977.45859718 C-868.50287773 975.43492429 -875.99607546 973.40934963 -883.48791313 971.37870216 C-886.43089123 970.58129572 -889.37393335 969.78412592 -892.31701469 968.9871006 C-893.04579826 968.78970032 -893.77458183 968.59230003 -894.52544975 968.38891792 C-904.43458049 965.70612045 -914.35069621 963.05063818 -924.27278233 960.41615868 C-931.7271873 958.43669325 -939.17875522 956.44677761 -946.62864208 954.45037651 C-951.96837407 953.02032942 -957.31145186 951.60387247 -962.65760612 950.1980381 C-965.97822738 949.32110374 -969.29506759 948.43047328 -972.61107826 947.53627968 C-974.13394066 947.12849547 -975.65826023 946.72610143 -977.18420601 946.33001137 C-992.38247353 942.37878123 -1007.08540962 936.87823783 -1018.73107719 926.0183506 C-1019.55865532 925.29260841 -1020.38623344 924.56686623 -1021.23888969 923.81913185 C-1035.33852829 910.77588819 -1043.45756827 892.4019987 -1044.2639904 873.25048256 C-1044.59431318 861.20817836 -1043.02858237 850.57430099 -1039.84435844 839.00663185 C-1039.43685839 837.48104049 -1039.03072108 835.95508457 -1038.62583733 834.42879677 C-1037.55878649 830.42153776 -1036.4731183 826.41956613 -1035.38300896 822.4185276 C-1034.32883279 818.53743218 -1033.29202304 814.65171459 -1032.25353813 810.76639748 C-1029.86054776 801.82945894 -1027.43797667 792.90065444 -1025.01135445 783.9727993 C-1023.76155872 779.37263097 -1022.51438808 774.7717509 -1021.26696587 770.17093849 C-1019.68575699 764.33962688 -1018.10428823 758.50838623 -1016.52168083 752.67745399 C-1013.16356126 740.30454769 -1009.81187574 727.92992009 -1006.46627426 715.5536232 C-989.98198046 654.57450406 -973.36970307 593.63048849 -956.73753166 532.69158363 C-951.38697838 513.0875225 -946.03853648 493.48288661 -940.69201469 473.8777256 C-940.5067915 473.19853239 -940.32156831 472.51933917 -940.1307323 471.81956434 C-938.44867533 465.65163135 -936.76664392 459.48369139 -935.08464527 453.31574249 C-932.48172268 443.77075554 -929.87856024 434.22583403 -927.27526665 424.68094826 C-920.14477837 398.53713274 -913.01506659 372.39310593 -905.88733137 346.24853969 C-904.47072835 341.05246575 -903.05404063 335.85641492 -901.63729668 330.66037941 C-901.43816646 329.93005131 -901.23903624 329.19972321 -901.03387177 328.44726396 C-900.03594296 324.78728283 -899.03800274 321.12730481 -898.04005432 317.46732903 C-896.1390424 310.49530912 -894.23819187 303.5232453 -892.33776665 296.55106544 C-891.8004913 294.58000272 -891.26321123 292.60894127 -890.72592759 290.6378808 C-890.37158428 289.3379277 -890.01725276 288.03797139 -889.66293311 286.73801184 C-887.76204591 279.76401293 -885.85979904 272.79038883 -883.9540081 265.81772804 C-883.27241598 263.32373604 -882.59084659 260.82973782 -881.90929985 258.33573341 C-881.57200418 257.10154797 -881.23470852 255.86736252 -880.88719177 254.59577751 C-878.8628773 247.18242599 -876.84920612 239.76630632 -874.84506327 232.34748089 C-873.29503822 226.61008327 -871.73976593 220.87412444 -870.18102926 215.13908756 C-869.25315259 211.72387872 -868.3281459 208.30795309 -867.4103775 204.89001274 C-866.39798931 201.11969725 -865.37293251 197.35288735 -864.34704399 193.58622169 C-864.05442617 192.48782841 -863.76180836 191.38943512 -863.46032333 190.25775719 C-857.55546183 168.73292359 -847.38392847 151.8848256 -828.38342094 139.9558506 C-825.51647802 138.33280385 -822.56688197 137.10376137 -819.50280571 135.89725685 C-818.60763741 135.54348976 -817.7124691 135.18972267 -816.79017448 134.82523537 C-816.11067238 134.55896339 -815.43117027 134.29269142 -814.73107719 134.0183506 C-814.72521095 133.28522652 -814.71934471 132.55210243 -814.7133007 131.79676247 C-814.6549543 124.82546266 -814.5826456 117.85447187 -814.49536228 110.88348389 C-814.45098195 107.30118449 -814.41165897 103.71899042 -814.38464165 100.13651466 C-814.35828038 96.66736378 -814.31765884 93.19862558 -814.26789093 89.72973442 C-814.24353529 87.78822474 -814.23326336 85.84655432 -814.22343254 83.90491676 C-814.0360978 72.35669048 -812.5261844 60.98104681 -806.98107719 50.7058506 C-806.45501884 49.69832741 -806.45501884 49.69832741 -805.91833305 48.67045021 C-803.05058399 43.31744807 -799.82849374 38.51764596 -795.73107719 34.0183506 C-795.05431938 33.26167091 -794.37756157 32.50499123 -793.68029594 31.72538185 C-779.63250701 16.82923621 -761.53563861 10.22777475 -741.46520805 9.47855568 C-740.4607788 9.43829923 -739.45634954 9.39804277 -738.42148304 9.35656643 C-726.19630044 8.88852439 -713.96642173 8.64158617 -701.73498344 8.40506935 C-700.38728977 8.37834888 -699.03959795 8.35153434 -697.69190788 8.32463264 C-687.72819925 8.12600772 -677.76432204 7.9370743 -667.80034685 7.75234175 C-665.27781764 7.70555832 -662.75529231 7.65856943 -660.23276711 7.61157036 C-575.47996288 6.03590782 -490.72014946 4.87188299 0 0 Z M-792.73107719 36.0183506 C-806.13291433 52.49361996 -810.23726854 69.83381313 -810.04588127 90.75623512 C-810.04206452 92.41241154 -810.03957414 94.06859143 -810.03827631 95.72477174 C-810.03080482 100.2610916 -810.00428264 104.79712595 -809.97444315 109.3333464 C-809.94517438 114.28774062 -809.9335597 119.24218374 -809.91943836 124.19664001 C-809.88848603 134.01415904 -809.84045857 143.83152623 -809.78644569 153.6489427 C-809.74218997 161.74488103 -809.70410732 169.84082764 -809.67009163 177.93681526 C-809.53486043 210.00736306 -809.36587992 242.07767451 -809.1822117 274.14797512 C-809.12503688 284.13444911 -809.06892837 294.12092868 -809.0134697 304.10741234 C-809.00744882 305.19118129 -809.00744882 305.19118129 -809.00130632 306.29684456 C-808.98499299 309.23331681 -808.96868263 312.16978908 -808.9523775 315.10626138 C-808.80101684 342.36180858 -808.64673818 369.61733854 -808.49107731 396.87286149 C-808.35421001 420.84110294 -808.22009561 444.80935833 -808.08825493 468.77762794 C-807.93842698 496.01443209 -807.78673215 523.25122488 -807.63226455 550.48800313 C-807.61567266 553.41448424 -807.59908544 556.34096537 -807.58250046 559.26744652 C-807.57841843 559.98747 -807.5743364 560.70749348 -807.57013067 561.44933586 C-807.51368848 571.41031378 -807.45831942 581.37129712 -807.40380354 591.33228576 C-807.06311026 653.56424246 -806.65309246 715.79188823 -805.73107719 778.0183506 C-799.63859184 772.97589213 -794.06790589 767.49046862 -788.49012566 761.89092445 C-787.4629259 760.86344432 -786.43550387 759.83618634 -785.40788025 758.80913013 C-782.59790224 755.99944644 -779.79104 753.18666831 -776.98468578 750.37336576 C-773.95237899 747.33466566 -770.91715079 744.29888611 -767.88226128 741.26276588 C-762.62717077 736.00479268 -757.37385888 730.74504791 -752.1217041 725.4841423 C-744.51982451 717.86969055 -736.91469157 710.25849475 -729.3086729 702.64817774 C-716.9567508 690.2891925 -704.60669794 677.92834131 -692.2581768 665.56595802 C-691.15026768 664.45680718 -691.15026768 664.45680718 -690.01997655 663.32524925 C-684.0278394 657.3263682 -678.03579277 651.32739672 -672.04375076 645.32842064 C-666.80732554 640.0859431 -661.57086443 634.8435014 -656.33434868 629.60111427 C-655.59694907 628.86288654 -654.85954946 628.1246588 -654.09980441 627.36406053 C-641.79774946 615.0483123 -629.4937254 602.73453311 -617.18829864 590.42215389 C-609.60296746 582.83234606 -602.0194182 575.2407661 -594.43816971 567.64688014 C-589.24249976 562.44277408 -584.04505426 557.24044581 -578.84621782 552.03950305 C-575.84851753 549.04046004 -572.85164899 546.04059793 -569.85699081 543.038517 C-567.11236584 540.28711489 -564.36541246 537.53805941 -561.61663961 534.7908014 C-560.62592635 533.79981803 -559.63605496 532.80799211 -558.6471426 531.8152116 C-527.04873737 500.09901775 -527.04873737 500.09901775 -505.68102837 499.63773537 C-485.40992198 499.69098899 -471.59722243 509.86146006 -456.5850811 522.46854591 C-454.94151703 523.84243909 -453.28590487 525.197897 -451.61779594 526.5417881 C-446.27994218 530.84529114 -441.12075495 535.29642227 -436.05138969 539.91288185 C-434.02953535 541.74752746 -431.98429197 543.54603846 -429.91857719 545.3308506 C-422.09478557 552.1531969 -414.55682916 559.30559558 -406.97790337 566.39725685 C-404.45296186 568.75807556 -401.92335011 571.11385082 -399.39269829 573.46854591 C-397.97597117 574.78993641 -396.56572673 576.11827168 -395.15685844 577.4480381 C-390.03015219 582.20046868 -384.62747237 586.55025182 -379.10607719 590.8308506 C-378.40112114 591.38264992 -377.69616508 591.93444923 -376.96984673 592.50296974 C-371.33241612 596.81104127 -364.1088255 602.32575678 -356.73107719 602.0183506 C-350.54079972 598.45389463 -346.10041372 593.30432655 -341.73107719 587.7683506 C-340.8156414 586.63248512 -340.8156414 586.63248512 -339.88171196 585.47367287 C-338.1558901 583.32885738 -336.44202799 581.17503367 -334.73107719 579.0183506 C-333.99760063 578.10440529 -333.26412407 577.19045998 -332.50842094 576.24881935 C-331.28211373 574.72049168 -330.05944901 573.18923415 -328.84045219 571.65506935 C-326.05582101 568.17428037 -323.23539092 564.72311015 -320.41857719 561.2683506 C-316.25852361 556.16460057 -312.15135093 551.02597204 -308.10607719 545.8308506 C-304.14247579 540.74471831 -300.04117435 535.80200944 -295.84899712 530.90336037 C-292.13298855 526.54160407 -288.59076099 522.06155264 -285.07360649 517.53885841 C-280.7210947 511.9611211 -276.22318062 506.50841032 -271.71447563 501.05668068 C-268.04779688 496.62181758 -264.42030745 492.16048547 -260.84045219 487.65506935 C-258.05582036 484.17427955 -255.23532747 480.72316277 -252.41857719 477.2683506 C-248.32530522 472.24484293 -244.27725728 467.19165306 -240.29357719 462.0808506 C-235.61036121 456.07544655 -230.78026262 450.1998499 -225.92272758 444.33500099 C-222.29418732 439.94433331 -218.72944349 435.51328416 -215.23107719 431.0183506 C-210.57128979 425.03114602 -205.76175204 419.17741592 -200.92248344 413.33475685 C-197.29406792 408.94413588 -193.72937296 404.51319353 -190.23107719 400.0183506 C-185.57517314 394.0361356 -180.77152683 388.18563747 -175.93346977 382.35013771 C-172.18476048 377.81737791 -168.52284515 373.22899858 -164.91857719 368.5808506 C-161.06360564 363.62026537 -157.04143093 358.88334372 -152.78576469 354.25663185 C-150.85005117 352.14795533 -148.97287743 350.00048732 -147.10607719 347.8308506 C-132.30690413 330.98462638 -111.9680116 314.56021227 -88.85998344 312.7996006 C-70.071634 312.21322819 -55.42406977 321.06220142 -41.73107719 333.0183506 C-39.59291844 335.03032294 -37.53418744 337.08157961 -35.50842094 339.2058506 C-33.7282878 341.02119517 -31.86748638 342.63707048 -29.91857719 344.2683506 C-22.41373729 350.72428571 -16.01136067 358.49481019 -9.53967094 365.95975685 C-7.30096469 368.5079171 -5.01697508 371.01245653 -2.73107719 373.5183506 C0.72220434 377.30498058 4.12991332 381.1231138 7.49157906 384.99100685 C9.56251767 387.35324233 11.66405128 389.68630913 13.76892281 392.0183506 C18.60119557 397.37851871 23.36711137 402.78844634 28.05407906 408.2761631 C29.08399759 409.48191736 30.11394633 410.68764583 31.14392281 411.8933506 C31.66357613 412.50186867 32.18322945 413.11038673 32.71862984 413.73734474 C35.74784813 417.27458918 38.82040864 420.76227637 41.95642281 424.2058506 C45.71041456 428.34262864 49.24038736 432.62556291 52.75329781 436.96756935 C55.69817333 440.53891684 58.72612367 444.030467 61.76892281 447.5183506 C66.26653306 452.6767472 70.65888167 457.89992689 74.96814156 463.21756935 C77.64951196 466.48164844 80.38955144 469.6908578 83.14392281 472.8933506 C83.65100777 473.48293556 84.15809273 474.07252052 84.6805439 474.67997169 C85.18795113 475.26987892 85.69535835 475.85978615 86.21814156 476.46756935 C92.46319601 483.72866063 98.6652343 491.02388489 104.70642281 498.4558506 C108.11367579 502.64658956 111.60993322 506.74754205 115.14392281 510.8308506 C119.6334278 516.02514892 123.92016141 521.34062531 128.12390327 526.76761818 C131.38830863 530.95828248 134.78649565 535.00765553 138.26892281 539.0183506 C142.74325572 544.17229257 147.01236715 549.44596509 151.19470406 554.8386631 C154.29198162 558.81706273 157.48913022 562.68940776 160.76892281 566.5183506 C164.95970145 571.41474975 168.97728723 576.41910108 172.93298531 581.50663185 C176.63051163 586.24571488 180.43403261 590.8899811 184.26892281 595.5183506 C188.98374518 601.21170898 193.61780699 606.95487969 198.16003609 612.78666115 C201.59355016 617.18589017 205.10847106 621.5133077 208.64392281 625.8308506 C215.97658146 634.80212281 223.07637676 643.96386917 229.94519234 653.29569435 C230.48643745 654.02917091 231.02768257 654.76264748 231.58532906 655.5183506 C232.0758979 656.1886631 232.56646675 656.8589756 233.07190132 657.5496006 C233.46691841 658.0342881 233.8619355 658.5189756 234.26892281 659.0183506 C234.59892281 659.0183506 234.92892281 659.0183506 235.26892281 659.0183506 C235.32136007 617.3147037 235.2832568 575.61222501 235.08532906 533.9089756 C235.08059743 532.9048978 235.07586581 531.90082 235.0709908 530.8663156 C234.98371708 512.3688068 234.89069986 493.87132702 234.79623985 475.37385368 C234.70911619 458.3087499 234.62425671 441.24363656 234.54236031 424.17850685 C234.5332063 422.28235299 234.5332063 422.28235299 234.52386737 420.347893 C234.32600767 379.21922778 234.21459807 338.09082352 234.14620191 296.9617542 C234.12705072 285.52995897 234.10426001 274.098175 234.07914925 262.66639137 C234.07651498 261.46032255 234.07651498 261.46032255 234.0738275 260.22988869 C234.05790954 252.94352906 234.0418558 245.65716975 234.0252279 238.3708117 C233.9833199 219.97950991 233.9508976 201.5882684 233.9396193 183.19692069 C233.93147631 170.30292157 233.90914975 157.40900796 233.8729372 144.51505667 C233.85174223 136.79326558 233.84194781 129.07165015 233.84826483 121.3498316 C233.85181585 115.53413189 233.83452536 109.71863755 233.80948913 103.90299749 C233.80259879 101.55098446 233.80237771 99.19893999 233.80965436 96.84692812 C233.86755647 76.07424027 232.25495501 57.79060522 216.95642281 42.1433506 C203.21008477 29.1451126 187.51053027 25.90422215 169.10968208 25.82889748 C168.00358408 25.82058151 166.89748608 25.81226555 165.75786996 25.80369759 C162.05551524 25.77700859 158.35315534 25.7570705 154.65075874 25.7371006 C151.98693669 25.71927922 149.32311967 25.70108124 146.65930367 25.6824131 C140.89971497 25.64279505 135.14011283 25.60663998 129.38048744 25.57279396 C120.90944916 25.52298966 112.43845337 25.4676685 103.9674578 25.41111279 C90.0318356 25.31820733 76.09619024 25.2294383 62.16052437 25.1433506 C43.33424125 25.02703544 24.50798869 24.90632388 5.68174389 24.78397639 C1.66874223 24.75790317 -2.34425973 24.73187513 -6.35726166 24.70584202 C-11.17173258 24.67460721 -15.98620345 24.64336348 -20.80067408 24.6120829 C-28.8444841 24.559829 -36.88829498 24.50771503 -44.93210793 24.45591354 C-226.52653766 23.28636014 -226.52653766 23.28636014 -317.50001276 22.17290121 C-323.26807948 22.09794098 -329.03616356 22.02443753 -334.80425835 21.95166969 C-335.66598054 21.94079643 -336.52770273 21.92992318 -337.41553771 21.91872042 C-339.17088458 21.89657545 -340.92623147 21.87443295 -342.6815784 21.8522929 C-356.7165067 21.67514956 -370.75139897 21.49534248 -384.78626752 21.31353199 C-398.86742597 21.13114525 -412.94862085 20.95246443 -427.02990532 20.78006935 C-445.63869573 20.55216222 -464.24743418 20.32052173 -482.85607719 20.0808506 C-483.9866725 20.06629365 -483.9866725 20.06629365 -485.14010811 20.05144262 C-524.09432323 19.5490218 -563.04591974 18.94771678 -601.99670219 18.22538185 C-602.92306465 18.20821373 -603.8494271 18.19104561 -604.80386114 18.17335725 C-623.81898411 17.82057814 -642.83393363 17.45935582 -661.84862328 17.08393192 C-667.68506684 16.96876148 -673.52154671 16.85547843 -679.35803509 16.74260408 C-683.20877373 16.66794759 -687.05948018 16.59210919 -690.91013145 16.51306534 C-705.65098228 16.21085565 -720.39230786 15.95380132 -735.13641667 15.89383245 C-736.51591723 15.88743655 -737.89540891 15.87851283 -739.27487445 15.86678576 C-759.48719507 15.70572301 -778.20039497 21.24138563 -792.73107719 36.0183506 Z M-838.18420219 153.41288185 C-839.02467094 154.27268654 -839.86513969 155.13249123 -840.73107719 156.0183506 C-841.32404594 156.57909279 -841.91701469 157.13983498 -842.52795219 157.71756935 C-851.61784347 167.02737735 -855.30522429 180.24380457 -858.44640923 192.46195412 C-858.79153406 193.78272257 -859.13716985 195.10335759 -859.48327637 196.42386913 C-860.57894794 200.61870105 -861.65695173 204.81795701 -862.73107719 209.0183506 C-862.90496562 209.69745035 -863.07885405 210.37655009 -863.25801182 211.07622862 C-865.81033578 221.05028188 -868.3218597 231.03446916 -870.82469511 241.02103686 C-871.83818639 245.06268787 -872.85438266 249.10365882 -873.87026787 253.14470863 C-875.80164441 260.82897182 -877.73097315 268.51374739 -879.65939724 276.19875199 C-883.46743398 291.37399538 -887.27965366 306.54818856 -891.09238005 321.72225428 C-891.72433248 324.23744417 -892.35619204 326.75265738 -892.98803902 329.26787376 C-900.12233345 357.66587858 -907.30563706 386.05127145 -914.50858498 414.43192959 C-914.68866395 415.14147687 -914.86874293 415.85102414 -915.05427885 416.58207285 C-915.41402226 417.99952992 -915.7737739 419.41698489 -916.13353395 420.83443773 C-919.66446354 434.74702392 -923.18174168 448.66303772 -926.69201469 462.5808506 C-926.95892994 463.63911175 -927.22584518 464.69737289 -927.50084877 465.78770256 C-928.82892649 471.05365321 -930.15668038 476.31968543 -931.48425102 481.58576393 C-934.35396533 492.96865024 -937.22627588 504.35088176 -940.09826469 515.73319435 C-940.38378448 516.86479422 -940.66930428 517.99639408 -940.96347618 519.16228485 C-951.97704063 562.81195002 -951.97704063 562.81195002 -957.23107719 583.5808506 C-957.43235222 584.37649422 -957.63362724 585.17213783 -957.84100151 585.99189186 C-964.25999443 611.36251897 -970.75035447 636.71434881 -977.27474785 662.05805397 C-984.32394137 689.44326214 -991.26528775 716.85510118 -998.18252373 744.2739048 C-1005.30763377 772.51440859 -1012.50863495 800.73451156 -1019.79822159 828.93302155 C-1020.52099619 831.72950173 -1021.24288726 834.52620965 -1021.96471214 837.3229351 C-1022.45371524 839.21561626 -1022.9443289 841.10788107 -1023.43499565 843.00013161 C-1023.7251757 844.1239222 -1024.01535576 845.24771278 -1024.31432915 846.40555763 C-1024.69111557 847.86060204 -1024.69111557 847.86060204 -1025.07551384 849.34504128 C-1029.09634634 865.7415176 -1027.64785377 882.47367125 -1019.48107719 897.3308506 C-1007.30066993 916.77812505 -989.90858449 923.55125634 -968.60607719 928.9246006 C-966.76707792 929.39646638 -964.92829865 929.86919026 -963.08971977 930.34269142 C-958.04407604 931.63907093 -952.99512836 932.92212001 -947.94537163 934.2023716 C-943.57311231 935.31231093 -939.20262233 936.42913436 -934.83207989 937.54581165 C-920.41816753 941.22818614 -905.99830257 944.88696615 -891.57766914 948.54291344 C-880.38024732 951.38240916 -869.18393549 954.22628147 -857.98767304 957.07034469 C-856.02722891 957.56832334 -854.06677068 958.06624645 -852.1063118 958.56416702 C-831.77547985 963.72816307 -811.45450031 968.92916209 -791.14205742 974.16495705 C-758.2023115 982.65533787 -725.21975477 990.97341791 -692.23339653 999.28064919 C-662.99277169 1006.6449742 -633.76673527 1014.06068944 -604.56874275 1021.59224129 C-581.92091487 1027.43377167 -559.24592702 1033.15610553 -536.54841805 1038.80142021 C-504.13786181 1046.86279674 -471.79552659 1055.16880844 -439.47546196 1063.58515358 C-438.63783318 1063.80327328 -437.80020439 1064.02139297 -436.93719292 1064.24612236 C-435.25205763 1064.68496349 -433.56693796 1065.12386463 -431.88183403 1065.56282616 C-420.29031911 1068.58183689 -408.69237514 1071.5743871 -397.08654594 1074.53788185 C-321.92124286 1093.73805599 -247.04752772 1114.04025732 -172.26051331 1134.65999031 C-169.16237683 1135.51399996 -166.06411544 1136.36755474 -162.96580315 1137.22092628 C-161.42946142 1137.64408497 -161.42946142 1137.64408497 -159.86208248 1138.07579231 C-157.79154067 1138.64606713 -155.72099101 1139.21631349 -153.65043354 1139.78653145 C-147.59364701 1141.45490294 -141.53787074 1143.12687898 -135.48287773 1144.80174732 C-131.67894185 1145.85317876 -127.87416779 1146.90155333 -124.06920052 1147.94924545 C-122.31107418 1148.43403193 -120.55329087 1148.92006473 -118.79590797 1149.40753937 C-109.36813354 1152.02200641 -99.91938435 1154.51773904 -90.41003227 1156.81986427 C-89.53866725 1157.03367146 -88.66730223 1157.24747866 -87.7695322 1157.46776485 C-71.19218935 1161.41395154 -56.21980275 1157.85921987 -41.73107719 1149.0183506 C-27.6981746 1138.68537998 -20.9280417 1124.25873191 -16.30529594 1107.88163185 C-15.84889229 1106.3036834 -15.84889229 1106.3036834 -15.38326836 1104.69385719 C-14.3870045 1101.24177635 -13.40276373 1097.78639214 -12.41857719 1094.3308506 C-11.71218225 1091.87467077 -11.00505549 1089.41870131 -10.2972393 1086.96293068 C-8.096888 1079.31803835 -5.91278736 1071.6685771 -3.73107719 1064.0183506 C-3.05373696 1061.64560966 -2.3763298 1059.27288782 -1.69885063 1056.90018654 C-0.38544309 1052.29937144 0.92763036 1047.6984612 2.24035835 1043.09745216 C2.56386269 1041.96360085 2.88736702 1040.82974953 3.22067451 1039.66153908 C3.88283826 1037.34022476 4.54480228 1035.01885346 5.20657539 1032.69742775 C13.07696917 1005.09344384 21.14144812 977.54760174 29.26892281 950.0183506 C29.50507301 949.21844955 29.74122322 948.41854851 29.9845295 947.59440804 C33.7226914 934.93349036 37.46612517 922.27413648 41.21313667 909.61583519 C42.01127283 906.91919734 42.80907281 904.22246022 43.60681343 901.52570534 C44.87401822 897.24245343 46.1425987 892.95961108 47.41217995 888.67706299 C47.87951658 887.1000452 48.34646855 885.52291335 48.81298256 883.94565201 C49.46348401 881.74672201 50.11536014 879.54820573 50.76794624 877.34989357 C50.97299656 876.65777999 51.17804688 875.96566641 51.38931084 875.25257969 C52.45746665 871.66714745 53.55659013 868.09437502 54.69970894 864.53208351 C54.93254711 863.80341639 55.16538528 863.07474926 55.40527916 862.32400131 C55.84925073 860.94121004 56.29815683 859.55998956 56.75289726 858.18070221 C57.80528597 854.90329628 58.26892281 852.51351338 58.26892281 849.0183506 C-34.73509336 848.42961234 -127.73928612 847.928762 -220.74433357 847.53377485 C-224.38644168 847.51830459 -228.02854967 847.50280652 -231.67065763 847.48730278 C-267.70762851 847.3339658 -303.74461183 847.18364589 -339.78159809 847.0339756 C-359.79661804 846.95084524 -379.81163742 846.86757946 -399.8266553 846.78395033 C-403.55822035 846.76836286 -407.28978549 846.75279448 -411.02135062 846.73722649 C-437.86431876 846.62515804 -464.70727248 846.51050115 -491.55019951 846.38895607 C-492.72881529 846.38362633 -493.90743106 846.3782966 -495.12176247 846.37280536 C-505.70197424 846.3249552 -516.28218571 846.27704057 -526.86239457 846.22855186 C-553.92625933 846.10462717 -580.99010757 845.99279807 -608.05411154 845.90402031 C-624.65737955 845.84935601 -641.26059333 845.78524059 -657.86379617 845.71346092 C-668.29398591 845.66877886 -678.72412822 845.63258127 -689.15438606 845.60842049 C-696.10552309 845.5915508 -703.05656676 845.56411278 -710.00763123 845.52817619 C-713.95474385 845.50809431 -717.9017217 845.49259139 -721.84888816 845.49030876 C-749.69860902 845.4688233 -774.24723908 843.84627321 -795.86779594 823.9714756 C-812.38573727 806.6570717 -817.42914371 785.66863227 -817.14477348 762.55578041 C-817.13916919 760.85442355 -817.13536669 759.15306 -817.13317585 757.45169532 C-817.12207111 752.79755506 -817.08577508 748.14390925 -817.0452193 743.48994528 C-817.00541256 738.39396189 -816.98955863 733.29789267 -816.97067833 728.20179653 C-816.93435998 719.2430542 -816.88325626 710.28449116 -816.82290459 701.32588005 C-816.73331174 687.96717317 -816.67124338 674.60843082 -816.61503285 661.24954683 C-816.48790259 631.21087242 -816.32224484 601.17246864 -816.15045097 571.13402535 C-816.09065463 560.67163827 -816.03217878 550.20924437 -815.97453117 539.74684525 C-815.97037213 538.99213365 -815.96621309 538.23742205 -815.96192802 537.45984041 C-815.94079285 533.62358899 -815.9196766 529.78733747 -815.89856762 525.9510859 C-815.75087119 499.11550434 -815.60084375 472.2799363 -815.44933891 445.44437599 C-815.30260112 419.45219525 -815.15698563 393.4600086 -815.01281548 367.46781349 C-815.00833331 366.65980873 -815.00385114 365.85180397 -814.99923315 365.01931421 C-814.9542029 356.9014524 -814.90919468 348.78359047 -814.86420255 340.66572845 C-814.77263226 324.14393028 -814.68091547 307.62213293 -814.58910942 291.10033607 C-814.58278472 289.9620679 -814.58278472 289.9620679 -814.57633225 288.8008044 C-814.29704505 238.53997267 -814.01433737 188.27916008 -813.73107719 138.0183506 C-822.35449825 138.0183506 -832.47294962 147.73355734 -838.18420219 153.41288185 Z M-116.73107719 355.0183506 C-117.22430473 355.45276466 -117.71753227 355.88717873 -118.2257061 356.33475685 C-129.23913226 366.06424314 -139.12638524 376.63510104 -148.33263969 388.08475685 C-151.17219784 391.55789719 -154.09838035 394.94726473 -157.04357719 398.3308506 C-157.59489311 398.96458595 -158.14620903 399.5983213 -158.71423149 400.25126076 C-159.83317226 401.53717115 -160.95223172 402.82297828 -162.07140923 404.10868263 C-168.19186179 411.15107451 -174.29138056 418.20837861 -180.16857719 425.4558506 C-184.27087669 430.50768777 -188.51809697 435.4214104 -192.79113579 440.32840919 C-196.77811478 444.90931698 -200.71919401 449.52576567 -204.63244438 454.16971779 C-208.01589668 458.18219244 -211.43207903 462.16545448 -214.85607719 466.1433506 C-218.34931576 470.20455936 -221.79556426 474.29354031 -225.16857719 478.4558506 C-229.2702299 483.50689128 -233.5169873 488.41963456 -237.78893852 493.32621193 C-242.70973794 498.98079591 -247.5588144 504.69298389 -252.38830376 510.42557716 C-254.66529158 513.12649872 -256.94853513 515.82212304 -259.23107719 518.5183506 C-260.14777304 519.60165925 -261.06443972 520.68499257 -261.98107719 521.7683506 C-289.4810772 554.2683506 -289.4810772 554.2683506 -290.85656548 555.89383888 C-291.77172132 556.97544581 -292.6867607 558.0571513 -293.60168266 559.13895607 C-295.91551197 561.87452999 -298.23144191 564.60827535 -300.55138969 567.3386631 C-304.8007364 572.3435804 -309.02788411 577.36018686 -313.16857719 582.4558506 C-318.13741366 588.55761747 -323.26071064 594.52091053 -328.40637016 600.47342873 C-329.52994727 601.78378551 -330.63460227 603.11033023 -331.73498344 604.4402256 C-337.97103242 611.90612182 -344.79029827 618.26085442 -354.80920219 619.3542881 C-373.51682974 619.5846776 -386.48060353 607.91273842 -399.73107719 596.0183506 C-400.28054008 595.52673439 -400.83000298 595.03511818 -401.39611626 594.52860451 C-408.43919535 588.19915069 -415.18804409 581.61263291 -421.84777641 574.88260841 C-425.3336023 571.37231029 -428.89740927 568.04939172 -432.67638969 564.8542881 C-435.47543888 562.35323654 -438.09344107 559.68771647 -440.73107719 557.0183506 C-445.23740745 552.46893082 -449.84079454 548.15628208 -454.73107719 544.0183506 C-455.76845804 543.11837119 -456.80482552 542.21722303 -457.84045219 541.3152256 C-461.44379261 538.18412802 -465.0797582 535.09329798 -468.73107719 532.0183506 C-469.31727837 531.52190041 -469.90347954 531.02545021 -470.50744438 530.51395607 C-481.36654738 521.38781781 -492.40374535 512.59092472 -507.35607719 513.47538185 C-526.2063757 516.50801089 -540.55708822 532.77057987 -553.44201469 545.74100685 C-555.73316546 548.04336833 -558.05172073 550.24399112 -560.54357719 552.3308506 C-563.75441475 555.09453089 -566.75374885 558.00454656 -569.73107719 561.0183506 C-572.62699677 563.94953252 -575.53350291 566.78238234 -578.66857719 569.4558506 C-582.02032793 572.32007396 -585.13664476 575.38168777 -588.23107719 578.5183506 C-591.92102307 582.25865398 -595.70611417 585.8007441 -599.70373344 589.20975685 C-602.14536353 591.38793552 -604.43155751 593.69083068 -606.73107719 596.0183506 C-609.62699677 598.94953252 -612.53350291 601.78238234 -615.66857719 604.4558506 C-619.02032793 607.32007396 -622.13664476 610.38168777 -625.23107719 613.5183506 C-628.92102307 617.25865398 -632.70611417 620.8007441 -636.70373344 624.20975685 C-640.04850773 627.19363064 -643.14442877 630.42454793 -646.29357719 633.6121006 C-648.98391625 636.26794813 -651.79681244 638.71970492 -654.66857719 641.1746006 C-657.12032408 643.36631373 -659.41993292 645.67902164 -661.73107719 648.0183506 C-665.25214042 651.58235362 -668.86293727 654.92139228 -672.66857719 658.1746006 C-675.12032408 660.36631373 -677.41993292 662.67902164 -679.73107719 665.0183506 C-683.25214042 668.58235362 -686.86293727 671.92139228 -690.66857719 675.1746006 C-693.12032408 677.36631373 -695.41993292 679.67902164 -697.73107719 682.0183506 C-701.25214042 685.58235362 -704.86293727 688.92139228 -708.66857719 692.1746006 C-711.12032408 694.36631373 -713.41993292 696.67902164 -715.73107719 699.0183506 C-719.25214042 702.58235362 -722.86293727 705.92139228 -726.66857719 709.1746006 C-729.12032408 711.36631373 -731.41993292 713.67902164 -733.73107719 716.0183506 C-737.25214042 719.58235362 -740.86293727 722.92139228 -744.66857719 726.1746006 C-747.12032408 728.36631373 -749.41993292 730.67902164 -751.73107719 733.0183506 C-755.25214042 736.58235362 -758.86293727 739.92139228 -762.66857719 743.1746006 C-765.12032408 745.36631373 -767.41993292 747.67902164 -769.73107719 750.0183506 C-773.25214042 753.58235362 -776.86293727 756.92139228 -780.66857719 760.1746006 C-784.01533703 763.16640106 -787.11880857 766.39760441 -790.27013969 769.59256935 C-793.04614669 772.3289191 -795.94038579 774.86605495 -798.94201469 777.35038185 C-801.24681927 779.49918437 -803.07587878 781.31161437 -804.73107719 784.0183506 C-802.70228543 798.06383208 -792.50768823 811.35958954 -781.73107719 820.0183506 C-769.47876512 828.85418734 -755.46311104 833.16791402 -740.38519287 833.12513065 C-739.30699835 833.1240972 -739.30699835 833.1240972 -738.20702212 833.12304286 C-735.76929316 833.11933426 -733.33165517 833.10819484 -730.89394951 833.09707069 C-729.08983455 833.09253818 -727.28571854 833.08840678 -725.48160183 833.08463186 C-720.3547565 833.072258 -715.22795876 833.05272963 -710.10114223 833.03175101 C-706.64644516 833.01801408 -703.19174583 833.00592415 -699.737041 832.99431157 C-682.54959201 832.93634505 -665.36221817 832.86484393 -648.17483838 832.78957175 C-640.10274118 832.75425101 -632.03063955 832.7199911 -623.95853776 832.68573764 C-608.10818538 832.61844386 -592.2578374 832.55015433 -576.40749118 832.48142515 C-562.44083195 832.4208663 -548.4741713 832.36064589 -534.50750923 832.3007431 C-533.57176268 832.29672919 -532.63601612 832.29271527 -531.67191361 832.28857972 C-527.86934184 832.27226866 -524.06677008 832.25595879 -520.2641983 832.23965091 C-484.60713353 832.08672376 -448.95007325 831.93276995 -413.29301491 831.77835072 C-383.08087616 831.64751776 -352.8687341 831.51748324 -322.65658839 831.38826725 C-317.6969685 831.36705336 -312.73734865 831.34582925 -307.7777288 831.32460463 C-306.79746662 831.32040963 -305.81720445 831.31621463 -304.80723737 831.3118925 C-293.96414226 831.26548856 -283.1210472 831.21907396 -272.27795219 831.17264748 C-271.3063132 831.16848768 -270.33467421 831.16432789 -269.33359162 831.16004204 C-224.21914383 830.96688943 -179.10470483 830.77201359 -133.9902935 830.57050514 C-132.12995492 830.56219902 -130.26961635 830.553893 -128.40927777 830.54558708 C-112.09199144 830.4727216 -95.77470567 830.3997313 -79.45742178 830.32631993 C-69.09954442 830.27972699 -58.74166638 830.23329 -48.38378716 830.18711281 C-47.55199106 830.1834044 -46.72019496 830.179696 -45.86319292 830.17587522 C-19.83654135 830.05995159 6.19013468 829.95338891 32.2168566 829.8545931 C51.10293268 829.7828748 69.98898073 829.70597115 88.87501276 829.62344187 C99.95879968 829.57527412 111.04257542 829.53254549 122.12641385 829.49815126 C129.28815042 829.47545424 136.44983705 829.44602774 143.61152253 829.41071533 C147.57921764 829.39135715 151.54685774 829.37495062 155.51459455 829.3674705 C159.69401767 829.35957944 163.87322432 829.33677802 168.05258369 829.31240273 C169.82492022 829.31283847 169.82492022 829.31283847 171.63306153 829.31328303 C187.73486342 829.18362923 201.2384984 825.70630142 214.26892281 816.0183506 C215.27954781 815.2964756 216.29017281 814.5746006 217.33142281 813.8308506 C229.58851139 803.17399302 234.91406641 787.83368494 236.05493355 772.17222023 C236.89905118 757.62395621 236.5661079 742.97122862 236.52983665 728.40543365 C236.51562851 722.55585176 236.52291252 716.70803221 236.58093452 710.85868263 C236.63698483 705.16306874 236.63907699 699.46975574 236.60369301 693.77400017 C236.59930116 691.61716304 236.61364239 689.46019757 236.64771461 687.30362511 C237.24335473 674.0506395 237.24335473 674.0506395 231.39973259 662.74581528 C229.14981666 660.66246751 226.73156353 658.84142569 224.26892281 657.0183506 C223.14559325 655.804167 222.0505157 654.56138085 221.01892281 653.2683506 C217.49260708 649.12578553 213.63131128 645.34343033 209.76892281 641.5183506 C205.38192872 637.17365099 201.1171351 632.82788747 197.13611031 628.1042881 C193.92612016 624.51823216 190.45647063 621.18688916 187.03503609 617.80399513 C183.50418971 614.29766143 180.16188711 610.70412043 176.94079781 606.9089756 C174.25870921 603.87595952 171.34159031 601.08326626 168.46032906 598.24100685 C165.84791213 595.59133621 163.4358966 592.80662257 161.01501656 589.98319435 C158.6168328 587.28456699 156.05280757 584.77520485 153.45642281 582.2683506 C151.56236558 580.32017745 149.77942086 578.33120733 147.99939156 576.28006935 C144.30213885 572.02384951 140.46155281 567.92004957 136.58142281 563.8308506 C131.74149823 558.70983338 126.91420336 553.57935603 122.14392281 548.3933506 C117.87202969 543.7496728 113.57789549 539.12764918 109.26892281 534.5183506 C104.43139161 529.34291818 99.6134252 524.15031065 94.8145771 518.9390049 C90.92355615 514.71743762 87.00440004 510.52271195 83.08142281 506.3308506 C78.51053164 501.4439594 73.99115203 496.51825574 69.53064156 491.53006935 C65.34033009 486.87658011 61.07546112 482.29147418 56.82165718 477.69608498 C49.06819107 469.31844046 41.33626621 460.92130435 33.62780952 452.50223732 C30.88223647 449.50410706 28.1347499 446.50772954 25.38708687 443.51151466 C23.13078768 441.05082319 20.87626138 438.58856904 18.62439156 436.12381935 C9.35009751 425.98048458 -0.04154949 415.94785892 -9.44762993 405.92679787 C-14.62340973 400.41201342 -19.79082025 394.8903564 -24.91857719 389.3308506 C-25.40431206 388.80459084 -25.89004692 388.27833107 -26.39050102 387.73612404 C-28.80694317 385.11531022 -31.21561631 382.48783395 -33.61388969 379.85038185 C-56.01744968 352.95515088 -56.01744968 352.95515088 -86.41857719 339.3308506 C-98.17998013 339.76534829 -108.27294019 347.45395243 -116.73107719 355.0183506 Z " fill="#000000" transform="translate(1043.7310771942139,-0.018350601196289063)"/>
<path d="M0 0 C0.78632812 0.70382813 1.57265625 1.40765625 2.3828125 2.1328125 C3.00414062 2.67164063 3.62546875 3.21046875 4.265625 3.765625 C18.31081635 16.76559281 27.22625855 35.45436104 30.3828125 54.1328125 C30.65544922 55.50566406 30.65544922 55.50566406 30.93359375 56.90625 C34.3761938 81.63309904 28.00999312 106.95544202 13.3828125 127.1328125 C10.00293671 131.42149934 6.26535041 135.29997992 2.3828125 139.1328125 C1.56941406 139.94492187 0.75601563 140.75703125 -0.08203125 141.59375 C-20.02720679 160.53681785 -45.17417911 167.6557843 -72.0234375 167.34765625 C-97.15953608 166.66589886 -120.31272792 154.56407883 -137.5 136.58984375 C-155.42251729 115.79046483 -161.96353658 91.25925312 -160.6171875 64.1328125 C-158.78328514 43.29542917 -149.04691732 25.01181962 -134.6171875 10.1328125 C-134.07835937 9.52050781 -133.53953125 8.90820312 -132.984375 8.27734375 C-127.51239172 2.2691611 -120.50393983 -1.69559667 -113.6171875 -5.8671875 C-113.0401709 -6.22490234 -112.4631543 -6.58261719 -111.86865234 -6.95117188 C-75.96023716 -29.15917715 -32.54418351 -27.98989544 0 0 Z M-131.6171875 16.1328125 C-145.93468032 34.81280113 -151.96229696 56.7074891 -149.1484375 80.015625 C-145.3427062 101.7173547 -134.09602226 120.65569456 -116.1953125 133.70703125 C-98.66118371 145.80484647 -77.92548789 150.43820461 -56.9296875 146.859375 C-37.15060266 142.52103799 -19.83010176 131.88542365 -8.4609375 114.9140625 C2.82074775 96.67980146 6.68338768 74.7231496 2.35717773 53.6171875 C-0.90826148 40.38736893 -7.4154972 28.15394832 -16.6171875 18.1328125 C-17.34292969 17.30394531 -18.06867188 16.47507812 -18.81640625 15.62109375 C-32.85682596 0.46672338 -53.51763003 -8.07934778 -74.0078125 -9.15234375 C-98.42477016 -9.88714379 -115.40147996 -2.53982043 -131.6171875 16.1328125 Z " fill="#000000" transform="translate(555.6171875,192.8671875)"/>
</svg>
