<?xml version="1.0" encoding="UTF-8"?>
<svg version="1.1" xmlns="http://www.w3.org/2000/svg" viewBox="0 0 1004 1181" width="1004" height="1181">
<path d="M0 0 C1.69400126 0.21149912 3.38801217 0.42292098 5.08203125 0.63427734 C53.34773532 6.7341845 102.08001351 16.25910873 146 38 C146.69254883 38.34272949 147.38509766 38.68545898 148.09863281 39.03857422 C160.69132093 45.35305465 172.22092114 52.9192326 183 62 C183.82242188 62.67546875 184.64484375 63.3509375 185.4921875 64.046875 C200.9798308 77.26685713 209.98701624 93.40503084 212.31640625 113.765625 C212.73845389 122.86007092 210.09948122 132.46218426 206.89282227 140.92041016 C205.30384332 146.53474066 206.19573275 152.33276628 206.64453125 158.0703125 C206.78101749 160.01577478 206.91750204 161.96123717 207.0538969 163.90670586 C207.24791342 166.6284865 207.45339848 169.34935822 207.65863037 172.0703125 C208.10786183 178.0690938 208.52892962 184.06999759 208.95703125 190.0703125 C209.09626511 192.00780365 209.09626511 192.00780365 209.23831177 193.98443604 C209.77296652 201.50488224 210.26535214 209.02430756 210.63671875 216.5546875 C210.67602005 217.32023956 210.71532135 218.08579163 210.7558136 218.87454224 C210.96000672 223.36374644 211.00439992 227.83552819 210.98168945 232.3293457 C210.96055896 240.68875041 211.25370054 249.03058831 211.55558777 257.38372231 C211.65900676 260.25224524 211.75895242 263.1208718 211.85803223 265.98954773 C212.13997215 274.13683866 212.42744366 282.28392957 212.71826172 290.4309082 C212.8970453 295.44608954 213.07144968 300.46140944 213.24345398 305.47682762 C213.30878297 307.35695312 213.37568937 309.23702468 213.44441223 311.11702919 C213.86361083 322.59162984 214.03674017 334.0412703 213.99975681 345.5235939 C213.9827418 352.59657703 214.05757262 359.66150683 214.21655273 366.73266602 C214.23863894 367.72015587 214.26072515 368.70764572 214.28348064 369.72505951 C214.33013126 371.79258559 214.3769647 373.86010755 214.42396736 375.92762566 C215.19294355 410.72445398 215.1192621 445.52027638 215.07202661 480.32342303 C215.06055662 488.93384102 215.05527888 497.54426013 215.05032361 506.15468395 C215.04005749 523.76979817 215.02263986 541.38489739 215 559 C215.85791421 558.8553062 216.71582842 558.71061239 217.59974003 558.56153393 C220.82751696 558.0179637 224.05553907 557.47589538 227.28373051 556.93479443 C228.67249734 556.70170781 230.06116815 556.46804822 231.44973469 556.23377132 C241.92033861 554.46774747 252.37533628 552.90689887 262.9375 551.8125 C264.05662781 551.69400696 264.05662781 551.69400696 265.19836426 551.57312012 C269.76841234 551.09147114 274.34030674 550.63404187 278.91497803 550.19854736 C280.84810086 550.01446468 282.78076222 549.82555321 284.71337891 549.63623047 C322.68580856 546.07515426 362.03954488 546.35452832 400 550 C400.67111816 550.06316406 401.34223633 550.12632812 402.03369141 550.19140625 C471.39772097 556.7500445 563.11790937 569.85504313 610.64672852 626.23535156 C622.10815128 640.52111872 627.44556179 656.68321048 626 675 C624.24237516 685.57954954 624.24237516 685.57954954 621.92919922 690.08618164 C620.59329961 694.27534661 620.98911606 698.07572739 621.28125 702.42578125 C621.33446411 703.34821121 621.38767822 704.27064117 621.44250488 705.22102356 C621.61543725 708.14831178 621.80580873 711.07405097 622 714 C622.05913574 714.92359314 622.11827148 715.84718628 622.17919922 716.79876709 C622.59364276 723.26354106 623.04251382 729.72564896 623.5 736.1875 C624.01175336 743.45755667 624.51613776 750.72802884 625 758 C625.05365723 758.80133362 625.10731445 759.60266724 625.16259766 760.42828369 C625.72412005 768.98459261 626.05529867 777.48483282 625.98756409 786.06144714 C625.93399507 797.08850085 626.50163827 808.10888399 626.9375 819.125 C627.31630134 828.74920495 627.67104518 838.37395759 628 848 C628.06945831 849.97593643 628.06945831 849.97593643 628.14031982 851.99179077 C629.18952627 882.43054306 629.21989094 912.88167816 629.23881906 943.33489299 C629.24359718 950.87923823 629.26126378 958.42340667 629.2898953 965.96769863 C629.31159414 971.89732065 629.32160221 977.82689283 629.32293582 983.75655407 C629.32397161 987.25976172 629.32962084 990.76279816 629.34775543 994.2659626 C629.36749414 998.14815098 629.36291441 1002.03011646 629.35644531 1005.91235352 C629.37026749 1007.59639282 629.37026749 1007.59639282 629.3843689 1009.31445312 C629.32767097 1020.24397776 627.65035786 1031.30601291 622.5 1041.0625 C622.15815674 1041.72459473 621.81631348 1042.38668945 621.46411133 1043.06884766 C600.77845122 1081.33892452 551.09545297 1099.90046206 512.02734375 1111.81005859 C433.30983043 1135.10639776 348.44527412 1138.75750693 185.2109375 1116.515625 C184.1394043 1116.26127686 183.06787109 1116.00692871 181.96386719 1115.74487305 C180.10050486 1115.27657663 178.24824284 1114.75858725 176.41894531 1114.17114258 C172.27369784 1112.87057374 172.27369784 1112.87057374 168.17724609 1113.79541016 C166.30225079 1115.13995492 164.6715771 1116.59752043 163 1118.1875 C161.70229142 1119.31904363 160.3986894 1120.44385724 159.08984375 1121.5625 C158.42065918 1122.13871094 157.75147461 1122.71492188 157.06201172 1123.30859375 C115.30091286 1157.56396824 53.36613867 1177.96822482 -0.0703125 1178.203125 C-1.1090451 1178.20882507 -2.14777771 1178.21452515 -3.21798706 1178.22039795 C-5.41142783 1178.22979504 -7.60488237 1178.23636072 -9.79833984 1178.24023438 C-13.06765263 1178.24983165 -16.33630586 1178.28086135 -19.60546875 1178.3125 C-88.66214791 1178.66025057 -154.5486518 1151.44336469 -206 1106 C-206.78987305 1105.30487305 -206.78987305 1105.30487305 -207.59570312 1104.59570312 C-221.1155868 1092.62001029 -233.19751686 1079.46812851 -244 1065 C-244.41169434 1064.45585449 -244.82338867 1063.91170898 -245.24755859 1063.35107422 C-252.99045025 1053.07526038 -259.590841 1042.14500179 -266 1031 C-266.61705811 1029.93507324 -266.61705811 1029.93507324 -267.24658203 1028.84863281 C-283.85739858 999.89297527 -293.98848064 966.31478769 -298.75 933.375 C-298.87947021 932.51624268 -299.00894043 931.65748535 -299.14233398 930.77270508 C-299.88867901 925.11729475 -299.98779313 919.63132771 -299.8125 913.9375 C-298.95816788 899.91153354 -298.95816788 899.91153354 -304.08105469 887.58056641 C-309.54753719 883.57366144 -315.71258461 881.3659204 -322.06542969 879.13916016 C-326.39125176 877.45993505 -330.00447776 875.08100176 -333.75 872.375 C-334.38671631 871.92519775 -335.02343262 871.47539551 -335.67944336 871.01196289 C-343.45243843 865.39875805 -350.2585224 858.79619739 -357 852 C-357.57363281 851.42378906 -358.14726562 850.84757813 -358.73828125 850.25390625 C-369.78431621 838.38558581 -375.52619756 824.75491457 -375.328125 808.6171875 C-375.32661438 807.54048798 -375.32510376 806.46378845 -375.32354736 805.35446167 C-375.31422034 801.86105279 -375.28268633 798.36826183 -375.25 794.875 C-375.23806364 792.44954839 -375.22700388 790.02409232 -375.21679688 787.59863281 C-375.12957475 771.41731351 -374.86092618 755.23971177 -374.35644531 739.06591797 C-374.11834828 731.4239547 -373.94061036 723.78657683 -373.90625 716.140625 C-373.8997644 715.38392517 -373.89327881 714.62722534 -373.88659668 713.84759521 C-373.8567398 709.92472906 -373.8567398 709.92472906 -374.49911499 706.07374573 C-375.07459816 703.69115142 -375.12710193 701.56694175 -375.12939453 699.1159668 C-375.13250641 698.1396077 -375.13561829 697.1632486 -375.13882446 696.15730286 C-375.13684052 695.0986351 -375.13485657 694.03996735 -375.1328125 692.94921875 C-375.13413177 691.83918991 -375.13545105 690.72916107 -375.1368103 689.585495 C-375.13873384 685.95280202 -375.13236913 682.32018522 -375.125 678.6875 C-375.12411377 677.45114807 -375.12322754 676.21479614 -375.12231445 674.940979 C-375.10574851 655.27051396 -374.74906999 635.62924802 -374.16259766 615.96899414 C-373.98441793 609.83338268 -373.88834126 603.70058953 -373.875 597.5625 C-373.87048828 596.77601074 -373.86597656 595.98952148 -373.86132812 595.17919922 C-373.87007167 591.93315939 -374.01397136 588.91041929 -374.51586914 585.69238281 C-375.35913664 579.13183901 -375.00622588 572.51538906 -374.87890625 565.91796875 C-374.85448533 564.42142137 -374.83064881 562.92486435 -374.80735779 561.42829895 C-374.74469576 557.47806877 -374.67582596 553.52797406 -374.60510254 549.57788086 C-374.26822428 530.67601837 -373.94738142 511.77420023 -373.90760612 492.86898232 C-373.90413533 491.34001529 -373.89907063 489.81105095 -373.89230537 488.28209496 C-373.88378326 486.16630388 -373.88211496 484.05062034 -373.88256836 481.93481445 C-373.88091171 480.73661575 -373.87925507 479.53841705 -373.87754822 478.3039093 C-373.99589105 475.11086478 -374.45827582 472.14393172 -375 469 C-375.08163921 467.21792679 -375.11934883 465.43335155 -375.11523438 463.64941406 C-375.11463013 462.63111511 -375.11402588 461.61281616 -375.11340332 460.56365967 C-375.10691772 459.47530823 -375.10043213 458.38695679 -375.09375 457.265625 C-375.09016479 456.11974915 -375.08657959 454.97387329 -375.08288574 453.79327393 C-375.0311178 442.55828743 -374.81735108 431.32738131 -374.57220459 420.09521484 C-374.22619746 404.06481863 -373.89943667 388.03452921 -373.875 372 C-373.87048828 370.81631836 -373.86597656 369.63263672 -373.86132812 368.41308594 C-373.86326172 367.34864258 -373.86519531 366.28419922 -373.8671875 365.1875 C-373.86831543 364.29417969 -373.86944336 363.40085937 -373.87060547 362.48046875 C-373.93589448 360.00075285 -373.93589448 360.00075285 -374.5 357.62255859 C-375.12832391 354.32692604 -375.12982432 351.20729019 -375.1328125 347.8515625 C-375.13413177 347.14306152 -375.13545105 346.43456055 -375.1368103 345.70458984 C-375.13874684 343.34468408 -375.13230891 340.98489414 -375.125 338.625 C-375.12411377 337.80553894 -375.12322754 336.98607788 -375.12231445 336.14178467 C-375.10293555 320.6166752 -374.78765243 305.10111129 -374.42980957 289.58068848 C-374.03190113 272.47963836 -374.03190113 272.47963836 -373.875 255.375 C-373.87048828 254.45283691 -373.86597656 253.53067383 -373.86132812 252.58056641 C-373.86326172 251.75733887 -373.86519531 250.93411133 -373.8671875 250.0859375 C-373.86831543 249.4057959 -373.86944336 248.7256543 -373.87060547 248.02490234 C-373.95045417 245.95058099 -373.95045417 245.95058099 -374.49780273 243.77368164 C-375.1759688 240.02810817 -375.16225086 236.32834249 -375.16796875 232.53515625 C-375.17211288 231.66621735 -375.17625702 230.79727844 -375.18052673 229.90200806 C-375.19040758 226.95546495 -375.19013517 224.00905759 -375.1875 221.0625 C-375.18756042 220.03653717 -375.18762085 219.01057434 -375.18768311 217.95352173 C-375.17008554 196.4032601 -374.71243497 174.86236375 -374.18811417 153.31943893 C-374.12522158 150.69674033 -374.06534861 148.07398777 -374.00619507 145.45120239 C-373.91090856 141.26077261 -373.80615103 137.07067682 -373.69430733 132.8806572 C-373.65399654 131.32778211 -373.61639692 129.77483374 -373.58180046 128.22182083 C-373.03299116 103.98954916 -367.1194803 87.46058627 -349.74584961 70.2644043 C-300.66016143 23.45433859 -217.3039133 7.61879206 -151.95410156 0.43798828 C-149.3790297 0.15275249 -146.80531565 -0.14511528 -144.23339844 -0.45751953 C-97.4248353 -6.02767846 -46.75900691 -6.01220329 0 0 Z M-353.296875 79.3359375 C-363.4728581 90.23877654 -369.45949939 102.86438359 -369.27734375 117.90234375 C-367.84690273 133.87895962 -357.94692611 148.36147855 -345.9375 158.5 C-334.37469788 167.5304529 -322.29588708 174.83384173 -309 181 C-307.42992187 181.74830078 -307.42992187 181.74830078 -305.828125 182.51171875 C-242.78505907 211.13201609 -167.0411975 215.2530345 -98.875 215.1875 C-97.11336014 215.18659363 -97.11336014 215.18659363 -95.31613159 215.18566895 C-12.19916935 215.07041515 98.54060453 210.0009944 173.51953125 148.51171875 C174.33808594 147.68285156 175.15664063 146.85398438 176 146 C176.68449219 145.32582031 177.36898437 144.65164062 178.07421875 143.95703125 C186.61035119 134.97650146 190.40959929 124.6278868 190.2734375 112.44140625 C189.01021208 96.54281205 177.47530238 84.01695611 166 74 C156.81797582 66.42298521 146.53487978 60.47516665 136 55 C135.23896973 54.60312988 134.47793945 54.20625977 133.69384766 53.79736328 C111.00776494 42.12798672 86.68900416 34.21883751 62 28 C60.85321777 27.7102832 59.70643555 27.42056641 58.52490234 27.12207031 C-23.67771825 6.71329731 -111.55720065 4.93050793 -353.296875 79.3359375 Z M-368 138 C-368.11452432 158.79761664 -368.03275701 179.58172443 -367.5625 200.375 C-367.54285187 201.28568237 -367.52320374 202.19636475 -367.50296021 203.13464355 C-367.30343287 212.21175251 -367.04737799 221.28694452 -366.59765625 230.35546875 C-366.53457275 231.66668701 -366.47148926 232.97790527 -366.40649414 234.32885742 C-365.26940483 244.5981739 -360.35140811 253.06406869 -354 261 C-353.41605469 261.74765625 -352.83210938 262.4953125 -352.23046875 263.265625 C-309.97380897 314.15153951 -221.06918245 324.75169298 -159.359375 330.65234375 C-139.37954479 332.44445143 -119.43175754 333.20972013 -99.375 333.1875 C-98.35497894 333.18689575 -97.33495789 333.1862915 -96.2840271 333.18566895 C-13.07265911 333.05298512 95.20408109 323.34225108 178.19140625 258.8515625 C190.33449592 246.0863411 191.95597956 231.59075946 192.8515625 214.6640625 C192.94719986 212.98043106 192.94719986 212.98043106 193.04476929 211.26278687 C193.17708372 208.90843259 193.30633455 206.55390426 193.43261719 204.19921875 C193.62418551 200.64013217 193.82696009 197.08181412 194.03125 193.5234375 C194.67681266 182.00657557 195.23780001 170.5369036 195 159 C191.68072322 162.29698194 191.68072322 162.29698194 188.4375 165.66796875 C178.03217624 176.66707457 164.99228493 184.46811305 152 192 C151.37931641 192.36335449 150.75863281 192.72670898 150.11914062 193.10107422 C105.77158143 218.80641583 51.93075174 229.84318334 1.5625 236.25 C0.38171875 236.40114258 -0.7990625 236.55228516 -2.015625 236.70800781 C-6.00622083 237.18683608 -9.99998435 237.60969491 -14 238 C-14.88168854 238.08720306 -15.76337708 238.17440613 -16.67178345 238.26425171 C-34.97305475 240.0168025 -53.19687315 240.36334629 -71.56282425 240.31785583 C-73.84648046 240.3124191 -76.13012631 240.31004927 -78.41378784 240.3079834 C-101.05704594 240.27607095 -123.50214834 239.76456652 -146 237 C-147.19367188 236.86078125 -148.38734375 236.7215625 -149.6171875 236.578125 C-199.54457326 230.6265161 -249.36325288 218.34473067 -295 197 C-296.29623291 196.39720215 -296.29623291 196.39720215 -297.61865234 195.78222656 C-315.55051746 187.36086625 -332.42215811 177.50737286 -347 164 C-347.48936035 163.55301758 -347.9787207 163.10603516 -348.48291016 162.64550781 C-355.6283476 156.07047462 -360.92813314 149.23701685 -366 141 C-366.66 140.01 -367.32 139.02 -368 138 Z M-368 260 C-368.11218635 280.68543707 -368.08365719 301.37091116 -367.73654175 322.0541687 C-367.7041694 324.08121762 -367.67650513 326.10834788 -367.65383911 328.13552856 C-367.38173605 351.40745052 -363.57959527 367.65922104 -347.0546875 385.046875 C-296.45045295 433.07128583 -211.56306405 442.64884805 -145 448 C-143.72125 448.10530029 -142.4425 448.21060059 -141.125 448.3190918 C-127.9350738 449.25116887 -114.72061189 449.1872739 -101.50390625 449.18530273 C-98.77629858 449.18522226 -96.04886169 449.19205282 -93.32128906 449.20581055 C-67.87633317 449.33191599 -42.52962665 448.3644819 -17.25 445.25 C-16.56918365 445.16763092 -15.88836731 445.08526184 -15.18692017 445.00039673 C47.56500341 437.35984306 135.62398741 423.28355967 178.16015625 371.36328125 C184.5114605 362.55775753 188.00261397 354.81312661 188.52734375 343.94921875 C188.56866928 343.12693283 188.60999481 342.30464691 188.65257263 341.45744324 C189.20755004 329.58337955 189.36154669 317.69663257 189.5625 305.8125 C189.60582011 303.39387482 189.649438 300.97525496 189.69335938 298.55664062 C189.79899712 292.70448375 189.90099257 286.85227261 190 281 C189.29620964 281.60434624 189.29620964 281.60434624 188.57820129 282.22090149 C187.64580879 283.02094856 187.64580879 283.02094856 186.69458008 283.8371582 C186.08101151 284.36380569 185.46744293 284.89045319 184.83528137 285.43305969 C174.23016481 294.48757573 163.08114665 302.04266055 151 309 C150.33726074 309.38897461 149.67452148 309.77794922 148.99169922 310.17871094 C85.24374777 347.31000067 4.28785172 353.48231489 -67.89333344 353.31805801 C-70.41426151 353.31241207 -72.93518285 353.30959517 -75.45611572 353.30697632 C-99.00386971 353.2714191 -122.43245344 353.02272788 -145.84564209 350.25323486 C-148.11699493 349.98624778 -150.38957731 349.73235598 -152.66259766 349.47998047 C-204.3013801 343.68071308 -258.23874488 333.51944384 -305 310 C-305.85013672 309.58427734 -306.70027344 309.16855469 -307.57617188 308.74023438 C-329.53339899 297.97688775 -349.233353 284.76880584 -364 265 C-365.3304525 263.33103274 -366.6634559 261.66409298 -368 260 Z M-368 375 C-368.09513846 398.06595304 -368.18686885 421.13805928 -367.73654175 444.20095825 C-367.70421405 445.92245341 -367.67653707 447.64404309 -367.65383911 449.36569214 C-367.36370429 470.28032665 -362.06098716 485.93901284 -347 501 C-338.30502386 509.02693475 -328.33683643 515.32006823 -318 521 C-317.40058594 521.33064453 -316.80117188 521.66128906 -316.18359375 522.00195312 C-264.68743859 549.97448665 -203.6598277 559.16776747 -146 564 C-144.74533936 564.10602539 -143.49067871 564.21205078 -142.19799805 564.32128906 C-126.97621469 565.4039167 -111.69033539 565.24591181 -96.4375 565.25 C-95.68226421 565.25044186 -94.92702843 565.25088371 -94.14890671 565.25133896 C-69.65634566 565.25884277 -45.35933363 564.76577295 -21 562 C-20.23691528 561.91514343 -19.47383057 561.83028687 -18.68762207 561.74285889 C31.04751279 556.18100538 81.80044209 546.1153649 127 524 C127.79986328 523.61231445 128.59972656 523.22462891 129.42382812 522.82519531 C152.30439509 511.6234422 177.19040486 496.46926024 186.1388092 471.29634094 C187.77160752 465.04655291 187.60563564 458.68367687 187.609375 452.26953125 C187.62438904 450.78307829 187.64112284 449.29664181 187.65948486 447.81022644 C187.70280988 443.93548737 187.72307904 440.06097314 187.73822021 436.18603516 C187.75791847 432.21698906 187.79987323 428.24818142 187.83984375 424.27929688 C187.91476723 416.51959592 187.96528631 408.75999623 188 401 C187.46056763 401.4046196 186.92113525 401.8092392 186.36535645 402.22612 C185.6524646 402.76082413 184.93957275 403.29552826 184.20507812 403.84643555 C183.50064575 404.37480515 182.79621338 404.90317474 182.07043457 405.44755554 C181.38719116 405.95986221 180.70394775 406.47216888 180 407 C179.43825073 407.42187088 178.87650146 407.84374176 178.29772949 408.27839661 C169.27362948 415.01446693 159.98464311 420.80201088 150 426 C149.30374512 426.36448242 148.60749023 426.72896484 147.89013672 427.10449219 C99.51016438 452.0712463 42.9659111 460.97771514 -10.8125 465.75 C-12.76506714 465.92341919 -12.76506714 465.92341919 -14.75708008 466.1003418 C-34.2124365 467.70950492 -53.67098308 468.20784639 -73.1875 468.1875 C-74.81466446 468.18659363 -74.81466446 468.18659363 -76.47470093 468.18566895 C-95.71197183 468.15681295 -114.83059233 467.63220284 -134 466 C-135.08139252 465.90878876 -135.08139252 465.90878876 -136.18463135 465.81573486 C-171.52491507 462.79271929 -206.74534922 457.29633577 -241 448 C-242.13002441 447.69481445 -243.26004883 447.38962891 -244.42431641 447.07519531 C-285.01594928 435.95183148 -338.49697162 418.44500478 -362.875 381.0625 C-364.22549984 379.02109876 -365.59497349 377.0050271 -367 375 C-367.33 375 -367.66 375 -368 375 Z M-369 488 C-368.75200202 503.86072488 -368.48806484 519.72103514 -368.1995697 535.58106995 C-368.07754662 542.35341572 -367.96751846 549.12552082 -367.88545227 555.89846802 C-367.84293417 559.17705163 -367.78586005 562.45524849 -367.72409058 565.73352051 C-367.70006864 567.18044617 -367.68254386 568.62749723 -367.67214966 570.07458496 C-367.53568264 588.04141199 -361.46652585 601.94203187 -348.875 614.6875 C-314.84358276 648.01952681 -263.19636696 661.15380878 -218.03417969 670.35839844 C-215.16442205 670.96523164 -212.32393405 671.64826484 -209.4765625 672.3515625 C-201.19347169 674.41157024 -201.19347169 674.41157024 -193.09765625 672.62890625 C-190.78809992 670.68944831 -188.70090366 668.63017612 -186.59326172 666.47705078 C-183.41893851 663.53425958 -179.75523272 661.27394512 -176.125 658.9375 C-175.28630371 658.39625488 -174.44760742 657.85500977 -173.58349609 657.29736328 C-161.41135494 649.58087752 -148.73875371 642.72491851 -136 636 C-134.9903418 635.46568359 -133.98068359 634.93136719 -132.94042969 634.38085938 C-76.73759098 605.03924738 -3.60912276 594.9334211 57.796875 612.6171875 C66.72919363 615.64828583 66.72919363 615.64828583 75.78125 615.07421875 C77.93549992 613.40708921 77.93549992 613.40708921 79.80078125 611.30078125 C82.5448784 608.42995848 85.66112825 606.54479926 89.0625 604.5625 C89.70453369 604.18279053 90.34656738 603.80308105 91.00805664 603.41186523 C98.15657991 599.23755152 105.5166398 595.53220211 113 592 C113.69432129 591.6714502 114.38864258 591.34290039 115.10400391 591.00439453 C138.57844612 580.00024626 163.08246005 572.88259415 188 566 C188.12198574 549.63139008 187.92545946 533.34427516 187 517 C182.24743473 520.12571816 177.56581086 523.27051879 173.0625 526.75 C101.14610551 579.07091771 -10.32497867 585.44490563 -181.54881287 575.29627991 C-238.0175445 566.32888984 -301.86755911 552.62571921 -346 514 C-346.83660156 513.29488281 -347.67320312 512.58976563 -348.53515625 511.86328125 C-356.51084288 504.97026701 -363.11163883 497.36935891 -368 488 C-368.33 488 -368.66 488 -369 488 Z M241 565 C239.44337655 565.17886051 237.88673541 565.35756705 236.33007812 565.53613281 C181.30002278 571.94168475 123.0687472 583.42344851 77 616 C77.94482777 618.45846434 77.94482777 618.45846434 81.69921875 619.375 C83.36104917 619.9195132 85.02389392 620.46093618 86.6875 621 C135.27328074 637.46106757 181.79740651 670.06953913 213 711 C213.78117188 711.97582031 214.56234375 712.95164062 215.3671875 713.95703125 C226.06117562 727.38327457 234.79932313 741.9546406 242.91601562 757.04980469 C243.27373047 757.69336914 243.63144531 758.33693359 244 759 C244.38844086 759.84635513 244.77688171 760.69271027 245.17709351 761.56471252 C246.79956583 764.25616677 246.79956583 764.25616677 249.80056763 764.7462616 C250.93904144 764.80187759 252.07751526 764.85749359 253.25048828 764.91479492 C254.54437469 764.987491 255.83826111 765.06018707 257.1713562 765.13508606 C258.5959658 765.18885186 260.02062008 765.24144435 261.4453125 765.29296875 C262.93113692 765.3628529 264.41690539 765.43393568 265.90261841 765.50614929 C281.77095155 766.230277 297.65430204 766.35650126 313.53667068 766.31805801 C315.92214272 766.31238795 318.30760755 766.30958609 320.69308472 766.30697632 C345.89199487 766.26697408 370.92186811 765.65449922 396 763 C396.83696411 762.91278687 397.67392822 762.82557373 398.53625488 762.73571777 C462.53512722 756.01757077 549.59614996 745.39916201 594.0625 693.375 C601.05663781 684.28782095 605.48466124 674.85718421 604.84375 663.14453125 C602.35668296 646.18942998 589.54987767 632.24142825 576.24267578 622.3203125 C510.65883406 574.98381032 416.77809505 562.02404625 337.5234375 561.796875 C335.99465406 561.78985046 334.4658709 561.78276366 332.93708801 561.77561951 C328.08305431 561.75624022 323.2290685 561.75118575 318.375 561.75 C317.13396704 561.74933722 317.13396704 561.74933722 315.8678627 561.74866104 C290.79504628 561.7416403 265.92729808 562.039443 241 565 Z M-368 605 C-368.16729471 627.17298332 -367.77896167 649.31192174 -367.12792969 671.47460938 C-367.01574151 675.33170732 -366.93064661 679.18894572 -366.8515625 683.046875 C-366.37880188 701.97125017 -361.50564157 715.27217314 -348.375 729.125 C-330.78803926 745.82182315 -296.92301075 769 -272 769 C-271.69932617 768.42781738 -271.39865234 767.85563477 -271.08886719 767.26611328 C-257.21139582 740.99542014 -240.6065922 717.77263191 -220.5625 695.875 C-219.81830811 695.05805664 -219.81830811 695.05805664 -219.05908203 694.22460938 C-217.02935013 692.03202769 -215.05559055 690.04125355 -212.65234375 688.2578125 C-212.10707031 687.84273437 -211.56179687 687.42765625 -211 687 C-211 686.34 -211 685.68 -211 685 C-212.12752686 684.75262085 -212.12752686 684.75262085 -213.27783203 684.50024414 C-264.68245389 673.11973489 -331.88175382 656.96011913 -363.69140625 610.53125 C-364.8207986 608.70362934 -365.91529673 606.8544927 -367 605 C-367.33 605 -367.66 605 -368 605 Z M-196.625 680.375 C-197.51372803 681.12511353 -197.51372803 681.12511353 -198.42041016 681.89038086 C-201.40215904 684.45426921 -203.61507019 686.82009358 -206 690 C-200.06 690.99 -200.06 690.99 -194 692 C-193.62875 693.36125 -193.2575 694.7225 -192.875 696.125 C-191.17085951 701.87647414 -188.7822567 707.254938 -186.3046875 712.703125 C-185.06000521 715.84837008 -184.41566607 718.65439504 -184 722 C-188.06073666 723.35357889 -190.63086021 721.93528172 -194.4375 720.4375 C-195.14600098 720.15938477 -195.85450195 719.88126953 -196.58447266 719.59472656 C-198.03177834 719.01814969 -199.47646601 718.43495762 -200.91845703 717.84521484 C-202.81876045 717.07359269 -204.73490917 716.34129117 -206.65234375 715.61328125 C-214.39292527 712.33878071 -214.39292527 712.33878071 -216.1796875 708.3984375 C-216.69658562 705.88475485 -216.97974185 703.5626556 -217 701 C-218.69581452 702.64282032 -220.35512306 704.30662546 -222 706 C-222.80244141 706.82564453 -222.80244141 706.82564453 -223.62109375 707.66796875 C-234.59582616 719.49235786 -244.00082655 733.06015735 -251.91699219 747.09570312 C-253.04787943 749.08418835 -254.21349877 751.04952227 -255.3828125 753.015625 C-277.24963972 790.34449869 -290.91753861 836.5322791 -290 880 C-289.13375 879.484375 -288.2675 878.96875 -287.375 878.4375 C-282.13122281 876.20403934 -278.36193433 877.7827971 -273.25 879.77734375 C-271.49749535 880.49127825 -269.74754069 881.21149964 -268 881.9375 C-260.08589348 885.19810663 -260.08589348 885.19810663 -252 888 C-252.24951172 889.87280273 -252.24951172 889.87280273 -253 892 C-254.74658203 893.14086914 -254.74658203 893.14086914 -257.0078125 894.03515625 C-257.83023438 894.36966797 -258.65265625 894.70417969 -259.5 895.04882812 C-260.36625 895.38333984 -261.2325 895.71785156 -262.125 896.0625 C-263.81511036 896.74086998 -265.50521462 897.41925516 -267.1953125 898.09765625 C-268.42000244 898.57803345 -268.42000244 898.57803345 -269.66943359 899.06811523 C-271.77630772 899.9105559 -273.84885254 900.80476398 -275.921875 901.7265625 C-280.24268432 903.51410544 -283.30959068 903.64314407 -287.6796875 901.98046875 C-288.82824219 901.49513672 -288.82824219 901.49513672 -290 901 C-286.36583263 954.31589449 -269.66687322 1006.16955003 -237 1049 C-236.54592773 1049.59683594 -236.09185547 1050.19367188 -235.62402344 1050.80859375 C-227.35387626 1061.88495838 -227.35387626 1061.88495838 -218 1072 C-217.34 1072 -216.68 1072 -216 1072 C-215.66935547 1071.08541016 -215.66935547 1071.08541016 -215.33203125 1070.15234375 C-213.53791237 1067.25334228 -211.85015214 1066.77310459 -208.6875 1065.5625 C-207.61757812 1065.14742187 -206.54765625 1064.73234375 -205.4453125 1064.3046875 C-203.73988281 1063.65886719 -203.73988281 1063.65886719 -202 1063 C-200.26363281 1062.29230469 -200.26363281 1062.29230469 -198.4921875 1061.5703125 C-188.86004387 1057.6867375 -188.86004387 1057.6867375 -184 1058 C-185.34097476 1065.05093179 -187.5314784 1071.2958716 -190.375 1077.875 C-190.76171875 1078.81085938 -191.1484375 1079.74671875 -191.546875 1080.7109375 C-191.93101562 1081.608125 -192.31515625 1082.5053125 -192.7109375 1083.4296875 C-193.05431152 1084.23647949 -193.39768555 1085.04327148 -193.75146484 1085.87451172 C-195.17041097 1088.29010518 -196.67319051 1089.47836571 -199 1091 C-154.78582877 1130.5194811 -90.66629677 1161.40527168 -30 1159 C-29.608125 1157.7625 -29.21625 1156.525 -28.8125 1155.25 C-26.43490323 1148.11720969 -23.63709757 1141.06166069 -20.1875 1134.375 C-18.8509288 1132.14441272 -18.8509288 1132.14441272 -19 1130 C-17.21875 1130.09375 -17.21875 1130.09375 -15 1131 C-13.63640954 1133.17696021 -12.55700165 1135.18148336 -11.5 1137.5 C-11.19884277 1138.13349365 -10.89768555 1138.7669873 -10.58740234 1139.41967773 C-9.7109801 1141.27364787 -8.85436581 1143.13578826 -8 1145 C-7.56945312 1145.90878906 -7.13890625 1146.81757812 -6.6953125 1147.75390625 C-4.94838951 1151.52190438 -3.72660484 1154.88969617 -3 1159 C56.18688001 1157.25920941 119.87609644 1131.12390356 162 1089 C161.62362397 1084.37595159 160.1288304 1080.31829454 158.5 1076 C156.85848816 1071.6480849 155.61913103 1067.61534037 155 1063 C159.06462171 1061.30640762 162.35600527 1062.87848398 166.25 1064.3125 C171.45726907 1066.18136651 176.61232163 1067.72491612 182 1069 C221.35049449 1024.45957809 249.53897327 962.2456735 248 902 C246.87980469 901.44570313 245.75960937 900.89140625 244.60546875 900.3203125 C243.13275962 899.58864809 241.66010628 898.85687139 240.1875 898.125 C239.44951172 897.76019531 238.71152344 897.39539063 237.95117188 897.01953125 C237.23896484 896.66503906 236.52675781 896.31054688 235.79296875 895.9453125 C235.1383667 895.62062988 234.48376465 895.29594727 233.80932617 894.96142578 C232 894 232 894 229 892 C229 890.68 229 889.36 229 888 C230.12019531 887.44570313 231.24039063 886.89140625 232.39453125 886.3203125 C233.86724038 885.58864809 235.33989372 884.85687139 236.8125 884.125 C237.55048828 883.76019531 238.28847656 883.39539063 239.04882812 883.01953125 C239.76103516 882.66503906 240.47324219 882.31054688 241.20703125 881.9453125 C241.8616333 881.62062988 242.51623535 881.29594727 243.19067383 880.96142578 C245.24652798 879.90744328 245.24652798 879.90744328 248 878 C248.17229609 875.18687482 248.14003103 872.66947622 247.9375 869.875 C247.88295654 869.03606201 247.82841309 868.19712402 247.7722168 867.33276367 C243.54869127 811.42595113 220.55888163 757.34737122 184 715 C183.319375 714.07960938 183.319375 714.07960938 182.625 713.140625 C180.95944458 711.72109754 180.95944458 711.72109754 178.28515625 712.15234375 C173.92149619 713.2782822 169.71091214 714.73971973 165.47851562 716.27148438 C161.86211926 717.53336022 158.83614613 718.28715873 155 718 C156.13746434 710.63194744 158.39272526 703.98835663 161.171875 697.1015625 C162.236598 694.15813597 162.236598 694.15813597 161.4140625 691.85546875 C148.68631518 675.15469534 126.97269226 663.09835682 109 653 C108.23397461 652.56349121 107.46794922 652.12698242 106.67871094 651.67724609 C72.84428527 632.52855508 34.66755168 621.89466588 -4 619 C-3.90847656 619.94488281 -3.81695312 620.88976562 -3.72265625 621.86328125 C-3.72399182 627.16949226 -6.16871897 631.50189912 -8.4375 636.1875 C-9.27233513 637.95049792 -10.10447416 639.71477567 -10.93359375 641.48046875 C-11.30540771 642.25285889 -11.67722168 643.02524902 -12.06030273 643.82104492 C-12.94554974 645.8737416 -13.52910952 647.81914778 -14 650 C-15.65 650 -17.3 650 -19 650 C-19.36738281 649.03320312 -19.36738281 649.03320312 -19.7421875 648.046875 C-20.74627089 645.61462332 -21.81107295 643.26231453 -22.9453125 640.890625 C-23.47705078 639.75753906 -23.47705078 639.75753906 -24.01953125 638.6015625 C-24.75193185 637.04359374 -25.49661661 635.49133634 -26.25390625 633.9453125 C-28.84368592 628.34835277 -29.38044509 624.16075592 -29 618 C-91.4849459 616.94835996 -149.55425247 640.44227958 -196.625 680.375 Z M608 711 C607.21625 711.969375 606.4325 712.93875 605.625 713.9375 C601.34132623 719.00651396 596.21009102 722.92703202 591 727 C589.69289063 728.06541016 589.69289063 728.06541016 588.359375 729.15234375 C532.32717217 773.41778399 449.30989686 786.45204145 380 791 C379.15937012 791.05784668 378.31874023 791.11569336 377.45263672 791.17529297 C342.14338426 793.51076266 306.09843468 792.64996297 270.94287109 788.60986328 C266.5830099 788.10955134 262.37868525 787.91976231 258 788 C258.61712431 791.32643259 259.41098039 794.49339794 260.453125 797.7109375 C269.4785252 826.09891063 273.84384596 854.35191426 276 884 C279.45881322 885.05338836 282.65517411 885.13909174 286.26098633 885.16113281 C288.1759919 885.17532509 288.1759919 885.17532509 290.12968445 885.18980408 C291.53046546 885.19462565 292.93124786 885.19905469 294.33203125 885.203125 C295.78957662 885.21012484 297.24712158 885.21721172 298.70466614 885.22438049 C303.40728096 885.24406209 308.10984828 885.24882036 312.8125 885.25 C313.61026604 885.25044186 314.40803207 885.25088371 315.22997284 885.25133896 C339.93316867 885.25854183 364.4402019 884.92136873 389 882 C390.11949036 881.8691803 390.11949036 881.8691803 391.26159668 881.73571777 C456.18811031 874.1003296 550.92313272 859.67485282 595.16015625 806.3984375 C601.81078937 797.27676236 604.76154629 788.9322939 605.48071289 777.69433594 C605.56072037 776.46575867 605.64072784 775.2371814 605.72315979 773.97137451 C605.80549362 772.65566467 605.88782745 771.33995483 605.97265625 769.984375 C606.06073055 768.60441982 606.1489854 767.22447614 606.2374115 765.84454346 C606.42175842 762.95654411 606.60387854 760.06841521 606.78442383 757.18017578 C607.01439642 753.50416177 607.24994529 749.82853072 607.48720646 746.1529808 C607.67053113 743.30300184 607.85080727 740.45283599 608.03021049 737.60260773 C608.15702359 735.59643339 608.28637308 733.59041988 608.41578674 731.58441162 C608.84134155 724.71185351 609.1213027 717.88598115 609 711 C608.67 711 608.34 711 608 711 Z M-368 722 C-368.17611735 744.14743452 -367.76327107 766.26572027 -367.12792969 788.40332031 C-367.01830931 792.24515059 -366.93247063 796.08713782 -366.8515625 799.9296875 C-366.34528445 819.27379668 -360.06798811 833.46650991 -346 847 C-333.24650512 857.8818781 -316.60536486 870.26021661 -300 874 C-299.90501221 873.21165771 -299.81002441 872.42331543 -299.7121582 871.61108398 C-296.00279161 841.26912571 -289.49709394 812.73672525 -279 784 C-284.22250457 781.30589952 -289.49392874 778.91431501 -294.91625977 776.65234375 C-321.10969651 765.66536396 -353.47218542 748.49197021 -367 722 C-367.33 722 -367.66 722 -368 722 Z M602 834 C600.82266609 835.23995805 599.65902122 836.49290775 598.5 837.75 C586.99994856 849.3227216 572.45084765 857.65773953 558 865 C557.27103516 865.37189453 556.54207031 865.74378906 555.79101562 866.12695312 C477.65847392 905.22770436 376.46476495 908.66970042 291.08203125 902.1875 C286.05496426 901.88167083 281.03386096 901.91563362 276 902 C274.99748139 905.00755582 274.7125033 907.46594854 274.45703125 910.6171875 C271.77108553 941.2129603 265.26165653 970.40657419 254 999 C340.66849723 1007.9447447 434.9977039 1001.11107635 575 939 C579.21563942 935.54623732 583.14221419 931.84595211 587 928 C587.67546875 927.34773437 588.3509375 926.69546875 589.046875 926.0234375 C597.31623699 917.42476464 601.93639536 906.30536721 602.31640625 894.48828125 C602.35838135 893.18818115 602.40035645 891.88808105 602.44360352 890.54858398 C602.48367487 889.13656838 602.5232962 887.72453995 602.5625 886.3125 C602.59426834 885.24142502 602.59426834 885.24142502 602.62667847 884.14871216 C603.11678389 867.43340335 603.10215699 850.72074175 603 834 C602.67 834 602.34 834 602 834 Z M596.95263672 956.1484375 C589.96764458 961.69316312 582.75917513 966.58547326 575 971 C574.00782471 971.57186035 574.00782471 971.57186035 572.99560547 972.15527344 C523.07726541 1000.63086986 462.56234715 1010.3930004 405.98565674 1015.80859375 C404.14075289 1015.98643221 402.29665343 1016.17256202 400.45263672 1016.359375 C357.82400871 1020.51886941 313.5995276 1019.22693239 271.01690674 1015.19000244 C267.93811383 1014.89996515 264.85762078 1014.62922264 261.77734375 1014.35546875 C257.18079231 1013.93842178 252.58945078 1013.48885127 248 1013 C247.69408936 1013.57741943 247.38817871 1014.15483887 247.07299805 1014.74975586 C234.2234799 1038.90570163 219.92513831 1062.07880178 201 1082 C199.868134 1083.30658357 198.74269848 1084.61877662 197.625 1085.9375 C192.72916959 1091.58472885 187.31768428 1096.75493963 182 1102 C181.01 1102.99 181.01 1102.99 180 1104 C212.20655409 1110.29119215 244.20751643 1115.04882596 277 1117 C277.96035156 1117.05784668 278.92070313 1117.11569336 279.91015625 1117.17529297 C363.62406717 1121.97318208 453.90025633 1113.93533384 582 1050 C583.06347656 1049.08154297 583.06347656 1049.08154297 584.1484375 1048.14453125 C594.53289235 1038.51941401 601.20408421 1026.70529361 602.26042175 1012.49725342 C602.34448577 1008.67681361 602.33792317 1004.86795721 602.29296875 1001.046875 C602.28735681 999.65155499 602.28309429 998.25622897 602.28010559 996.86090088 C602.26878222 993.23096704 602.2394271 989.60140716 602.20599365 985.97161865 C602.1750189 982.25066178 602.1615424 978.52964305 602.14648438 974.80859375 C602.11454182 967.53889407 602.06350229 960.2694999 602 953 C599.93825804 953 598.5008615 954.91798332 596.95263672 956.1484375 Z " fill="#000000" transform="translate(375,3)"/>
<path d="M0 0 C1.69425188 1.56742688 3.41214686 3.01770457 5.22265625 4.4453125 C8.19278254 7.01942195 10.66513386 9.75469243 13.203125 12.74609375 C14.38431538 14.12372944 15.59381251 15.47782383 16.8359375 16.80078125 C52.6652732 55.1522648 69.25096749 109.1442446 68.03515625 160.8828125 C66.19289091 201.35899187 53.88646895 241.81087399 30.03515625 274.8828125 C29.35066406 275.84058594 28.66617187 276.79835938 27.9609375 277.78515625 C-6.3384718 324.64664724 -56.68597455 355.10254129 -114.02734375 364.0703125 C-121.9814855 365.11061113 -129.9533756 365.57706178 -137.96484375 365.8828125 C-139.52912109 365.94662109 -139.52912109 365.94662109 -141.125 366.01171875 C-158.92301362 366.36345815 -176.68213771 363.98696103 -193.96484375 359.8828125 C-194.71008301 359.70911133 -195.45532227 359.53541016 -196.22314453 359.35644531 C-228.40300936 351.67869146 -262.41911822 334.78522974 -285.40234375 310.48046875 C-287.12547506 308.71856699 -288.95476371 307.15716699 -290.83984375 305.5703125 C-319.82158991 280.29424763 -338.15448694 241.61683656 -346.71484375 204.6953125 C-346.91360107 203.84163086 -347.1123584 202.98794922 -347.31713867 202.10839844 C-350.43739568 187.96893975 -351.34094442 174.17669426 -351.27734375 159.7578125 C-351.27552094 158.89908539 -351.27369812 158.04035828 -351.27182007 157.15560913 C-351.22551221 144.18774927 -350.72718258 131.59609632 -347.96484375 118.8828125 C-347.79855469 118.08037109 -347.63226563 117.27792969 -347.4609375 116.45117188 C-341.19136028 86.84483499 -328.64936369 58.7463692 -309.96484375 34.8828125 C-309.53026855 34.32271484 -309.09569336 33.76261719 -308.64794922 33.18554688 C-298.96622834 20.85731671 -287.59287736 9.65018979 -275.73999023 -0.57617188 C-273.55478395 -2.47316295 -271.45196303 -4.45197581 -269.33984375 -6.4296875 C-202.24273773 -66.76586375 -94.5554165 -68.8134801 0 0 Z M-195.96484375 -31.3046875 C-196.70774658 -31.13437012 -197.45064941 -30.96405273 -198.21606445 -30.78857422 C-240.22666071 -20.87801632 -278.47051253 0.60807259 -303.96484375 35.8828125 C-304.37508789 36.44339355 -304.78533203 37.00397461 -305.20800781 37.58154297 C-334.90413231 78.59887407 -348.00869631 131.37211512 -340.3671875 181.50341797 C-333.30712215 223.2554792 -315.15220589 259.31990458 -285.96484375 289.8828125 C-285.20300781 290.68589844 -284.44117188 291.48898437 -283.65625 292.31640625 C-259.99688987 316.65054314 -228.61389019 333.36713338 -195.96484375 341.8828125 C-194.90007812 342.17800781 -193.8353125 342.47320313 -192.73828125 342.77734375 C-146.29750727 355.21464865 -93.89721387 346.02750368 -52.50390625 322.40234375 C-38.7211482 314.18727086 -26.53727699 303.93566711 -14.96484375 292.8828125 C-14.02769531 291.99851562 -13.09054687 291.11421875 -12.125 290.203125 C-1.21917852 279.64910421 7.05883529 267.71294117 15.03515625 254.8828125 C15.5559375 254.10164063 16.07671875 253.32046875 16.61328125 252.515625 C28.49827364 234.16571917 35.285947 211.26075397 39.03515625 189.8828125 C39.24011719 188.76261719 39.44507813 187.64242187 39.65625 186.48828125 C44.48432197 155.22235308 40.18998454 123.60083618 30.03515625 93.8828125 C29.81633789 93.23103027 29.59751953 92.57924805 29.37207031 91.90771484 C21.8557612 69.76787546 9.43416439 49.43768178 -5.96484375 31.8828125 C-7.09019531 30.59310547 -7.09019531 30.59310547 -8.23828125 29.27734375 C-24.20915966 11.26241093 -42.64901125 -3.00558112 -63.96484375 -14.1171875 C-64.62822754 -14.46523438 -65.29161133 -14.81328125 -65.97509766 -15.171875 C-92.18439673 -28.72555384 -121.88574755 -35.30570852 -151.29125977 -35.30249023 C-153.49841127 -35.30465907 -155.70504699 -35.32281934 -157.91210938 -35.34179688 C-170.77596626 -35.39341893 -183.40660396 -34.24069734 -195.96484375 -31.3046875 Z " fill="#000000" transform="translate(508.96484375,737.1171875)"/>
<path d="M0 0 C1.28994873 -0.01401855 2.57989746 -0.02803711 3.90893555 -0.04248047 C20.88166779 0.0415803 38.33183757 3.5010363 52.4375 13.375 C51.78691146 20.54643004 50.45624321 27.41713448 48.875 34.4375 C48.64103516 35.49388672 48.40707031 36.55027344 48.16601562 37.63867188 C47.59403688 40.21841273 47.01778727 42.79711775 46.4375 45.375 C44.04764216 44.20527648 41.7936937 42.98562182 39.51171875 41.60546875 C19.65200926 29.62550558 -0.94453368 26.74793479 -23.57275391 31.87890625 C-42.84308827 36.68348532 -56.86957818 48.91778323 -67.26171875 65.38671875 C-72.31969783 73.83468627 -75.17963469 82.84353875 -77.5625 92.375 C-40.2725 92.375 -2.9825 92.375 35.4375 92.375 C31.4375 114.375 31.4375 114.375 30.4375 115.375 C28.99536001 115.47058036 27.54855921 115.49688394 26.10325623 115.49525452 C24.70023758 115.49731651 24.70023758 115.49731651 23.26887512 115.49942017 C22.23453842 115.49582489 21.20020172 115.49222961 20.13452148 115.48852539 C19.05172913 115.48867142 17.96893677 115.48881744 16.85333252 115.4889679 C13.25506626 115.48826823 9.65685103 115.48047333 6.05859375 115.47265625 C3.57137582 115.47079226 1.08415752 115.46936827 -1.40306091 115.46836853 C-7.29271191 115.4649335 -13.1823439 115.45704277 -19.07198709 115.44701904 C-26.43275374 115.43476246 -33.79352264 115.42937791 -41.15429688 115.42382812 C-54.29037581 115.41308815 -67.42643265 115.39549013 -80.5625 115.375 C-80.5625 122.305 -80.5625 129.235 -80.5625 136.375 C-45.2525 136.375 -9.9425 136.375 26.4375 136.375 C22.4375 157.375 22.4375 157.375 21.4375 159.375 C-10.9025 159.375 -43.2425 159.375 -76.5625 159.375 C-72.19026384 175.11505019 -68.3096717 188.26619569 -57.5625 200.375 C-57.05460937 200.97570312 -56.54671875 201.57640625 -56.0234375 202.1953125 C-45.07046973 214.2273904 -27.74020594 221.36518848 -11.67602539 222.59619141 C8.83712914 223.38175179 28.44983603 221.67975197 44.4375 207.375 C45.0975 207.375 45.7575 207.375 46.4375 207.375 C46.4375 218.925 46.4375 230.475 46.4375 242.375 C37.4289408 246.8792796 37.4289408 246.8792796 33.78125 247.82421875 C32.58822266 248.13649414 32.58822266 248.13649414 31.37109375 248.45507812 C30.56800781 248.65552734 29.76492188 248.85597656 28.9375 249.0625 C28.13441406 249.27455078 27.33132813 249.48660156 26.50390625 249.70507812 C-2.8614602 257.24869333 -36.98577041 252.55099824 -63.23046875 237.4375 C-68.05471192 234.45133307 -72.36075661 231.18128519 -76.5625 227.375 C-77.38105469 226.64925781 -78.19960938 225.92351562 -79.04296875 225.17578125 C-92.90583629 212.17262643 -101.16227479 195.35640975 -106.9375 177.5 C-107.18854492 176.7275293 -107.43958984 175.95505859 -107.69824219 175.15917969 C-107.92930664 174.40797852 -108.16037109 173.65677734 -108.3984375 172.8828125 C-108.60001465 172.22941895 -108.8015918 171.57602539 -109.00927734 170.90283203 C-109.83822227 167.11514636 -110.13432018 163.22861836 -110.5625 159.375 C-119.1425 159.375 -127.7225 159.375 -136.5625 159.375 C-132.9625 137.775 -132.9625 137.775 -131.5625 136.375 C-128.69780675 136.30169669 -125.86356326 136.28282169 -123 136.3125 C-120.215625 136.333125 -117.43125 136.35375 -114.5625 136.375 C-114.5625 129.445 -114.5625 122.515 -114.5625 115.375 C-121.8225 115.375 -129.0825 115.375 -136.5625 115.375 C-133.0625 93.875 -133.0625 93.875 -131.5625 92.375 C-130.14679877 92.28848389 -128.726905 92.26795096 -127.30859375 92.27734375 C-126.02758789 92.28217773 -126.02758789 92.28217773 -124.72070312 92.28710938 C-123.82287109 92.29548828 -122.92503906 92.30386719 -122 92.3125 C-121.09830078 92.31701172 -120.19660156 92.32152344 -119.26757812 92.32617188 C-117.03248686 92.33799775 -114.79752563 92.3544778 -112.5625 92.375 C-112.46074463 91.68519043 -112.35898926 90.99538086 -112.25415039 90.28466797 C-109.40539595 71.70998192 -101.41595301 53.9255102 -89.5625 39.375 C-88.89863281 38.54742188 -88.23476563 37.71984375 -87.55078125 36.8671875 C-72.89276889 19.58102874 -53.13033417 9.35222887 -31.5625 3.375 C-30.37398438 3.0346875 -29.18546875 2.694375 -27.9609375 2.34375 C-18.71825753 0.16900177 -9.44815584 0.0649609 0 0 Z " fill="#000000" transform="translate(381.5625,766.625)"/>
</svg>
