<?xml version="1.0" encoding="utf-8"?>
<!-- Generator: Adobe Illustrator 16.0.0, SVG Export Plug-In . SVG Version: 6.00 Build 0)  -->
<!DOCTYPE svg PUBLIC "-//W3C//DTD SVG 1.1//EN" "http://www.w3.org/Graphics/SVG/1.1/DTD/svg11.dtd">
<svg version="1.1" xmlns="http://www.w3.org/2000/svg" xmlns:xlink="http://www.w3.org/1999/xlink" x="0px" y="0px"
	 width="216.424px" height="193.231px" viewBox="0 0 216.424 193.231" enable-background="new 0 0 216.424 193.231"
	 xml:space="preserve">
<g id="flatware">
</g>
<g id="cutting">
</g>
<g id="timer">
</g>
<g id="heat">
</g>
<g id="cost-1">
</g>
<g id="cost-2">
</g>
<g id="cost-3">
</g>
<g id="difficulty-0">
</g>
<g id="difficulty-1">
</g>
<g id="difficulty-2">
</g>
<g id="difficulty-3">
</g>
<g id="hourglass">
</g>
<g id="hourglass-wait">
</g>
<g id="aroow-up">
</g>
<g id="search">
</g>
<g id="plus">
</g>
<g id="minus">
</g>
<g id="grill">
</g>
<g id="steam">
</g>
<g id="kettle">
</g>
<g id="oven">
</g>
<g id="pizza-oven">
</g>
<g id="microwave">
</g>
<g id="fryer">
</g>
<g id="pot">
</g>
<g id="pan">
</g>
<g id="wok">
</g>
<g id="menu">
</g>
<g id="line">
</g>
<g id="home">
</g>
<g id="unchecked">
</g>
<g id="checked">
	<path d="M166.044,107.216c-0.109-0.75-0.658-5.392-1.112-9.104c-0.192,0.219-0.468,0.413-0.476,0.349
		c-0.276-2.127-0.85-4.201-1.083-6.334c-0.011-0.102,0.083-0.245,0.204-0.377c-0.047-0.207-0.105-0.411-0.144-0.621
		c-0.194,1.1-0.394,2.186-0.603,3.206c-0.166-1.407,0.221-3.932,0.197-5.454c0.444-1.804,0.881-5.527,1.232-8.424
		c-0.017-0.639-0.668-1.097-0.336-2.536c0.479-0.694,0.028-1.636,0.394-2.83c0.206,1.39,0.059,2.739-0.004,4.141
		c0.548-0.226,0.462-3.401,0.645-4.505c0.082-0.496,0.006-1.121-0.016-1.678c-0.638-3.177-1.095-6.387-1.794-9.551
		c-0.869,0.025-2.557-4.737-2.814-0.213c0.742-2.504,0.666,0.867,0.672,3.513c-0.236,0.25-0.604,1.417-0.832,3.315
		c0.008,1.647,0.22,0.977,0.382,1.295c-0.067,0.344-0.208,2.468-0.688,2.43c0.296,1.316-0.746,2.982-0.104,4.192
		c0.027-0.031,0.082-0.069,0.109-0.101c0.199,0.65,0.143,1.313,0.091,1.981c-0.084,1.072-0.147,2.143-0.197,3.217
		c-0.025,0.584-0.059,3.384-1.17,3.064c-0.35-0.101-0.438-0.405-0.416-0.732c-0.064-0.159-0.117-0.322-0.17-0.486
		c-0.011,0.013-0.02,0.026-0.03,0.039c0.095,1.033,0.064,2.075,0.03,3.11c-0.018,0.546-0.046,1.092-0.104,1.636
		c-0.022,0.208-0.332,1.261-0.243,1.398c-0.064-0.1-0.126-0.13-0.184-0.136c0.199,1.699,0.041,3.39-0.156,5.148
		c-0.012,0.099-0.098,0.219-0.203,0.332c0.012,0.217,0.026,0.459,0.043,0.712c0.932,3.606,1.309,7.947,0.868,11.54
		c-0.024,0.195-0.333,0.473-0.519,0.615c0.119,2.936,0.163,5.318-0.043,5.66c-0.011,1.124,0.012,2.481,0.305,2.227
		c-0.191,1.895-0.529-0.585-0.835,0.76c0.044,0.032,0.146-0.106,0.124,0.325l-0.398,1.289c0.363,2.962-0.334,7.271,0.168,10.374
		c-0.285-0.902-0.801-1.938-1.025-3.933l0.159-0.343c-0.08-0.285-0.134-1.924-0.421-1.886c-0.242,1.882-0.235,3.5-0.008,5.494
		c-0.088,0.364-0.177,0.79-0.264,1.075c0.038-0.007,0.07-0.037,0.113-0.027c-0.196,0.645-0.223,0.574-0.328,0.334
		c-0.021-0.03-0.042-0.069-0.062-0.139c-0.87,1.161,0.326,7.427-0.202,10.86c0.09,1.02,0.139,0.1,0.265,1.369
		c-0.429,3.513-0.752,5.937-1.048,9.613c0.328,1.187,0.471,1.282,0.887-0.128l-0.195,2.777c-0.891-2.555-1.06,5.172-1.942,2.355
		c-0.242,0.809-0.333,2.473-0.221,4.035c0.237,0.164,0.619,0.419,0.563,2.379c-0.396,2.719-0.261,2.072-0.632,4.322
		c-0.329,0.526-0.431-0.307-0.685-0.218c0.307,3.495-0.768,3.022-0.799,6.31c0.019,1.031,0.009,2.563,0.063,3.852
		c0.02,0.322,0.038,0.629,0.055,0.909c0.011,0.181,0.027,0.155,0.044,0.224c0.019,0.048,0.037,0.094,0.054,0.135
		c0.078,0.17,0.18,0.3,0.316,0.338c-0.057,1.184-0.453,0.913-0.893,0.596l-0.081,0.645c0.005-0.556,0.024-1.1,0.056-1.659
		c0.074-1.729,0.148-3.474,0.224-5.227c0.2-3.771,0.401-7.573,0.603-11.351c-0.547,3.847-1.086,7.857-1.544,11.908l-0.327,3.043
		l-0.148,1.437l-0.104,0.206c-0.129,0.252-0.229,0.411-0.287,0.562c-0.297-0.063-0.484-0.077-0.695-0.03l-0.081,0.021
		c-0.019,0.002,0.013,0.004-0.048,0.006l-0.204,0.007l-0.407,0.014c-0.541,0.023-1.078,0.048-1.613,0.071
		c-1.068,0.056-2.12,0.128-3.154,0.22c-4.139,0.365-7.984,1.025-11.357,2.085c-1.38-2.123-17.341-3.109-17.666-2.587
		c-3.313,0.389-6.669,0.707-10.063,0.969c-21.453,1.646-44.757,0.927-68.866,0.105c-3.099-0.073-7.427-0.176-12.435-0.294
		c-2.504-0.049-5.178-0.102-7.951-0.155l-0.521-0.01c0,0-0.12-0.003-0.141-0.006l-0.041-0.005l-0.159-0.02l-0.306-0.041
		c-0.184-0.027-0.369-0.055-0.555-0.082l0.098-0.718l0.051-0.313l0.006-0.037c0.001-0.012,0.002,0.002,0.003-0.032l0.003-0.154
		l0.013-0.618l0.026-1.232c0.072-3.277,0.143-6.482,0.211-9.504c0.145-6.042,0.299-11.35,0.463-15.028
		c0.07-1.987,0.139-3.964,0.21-5.97c-0.19,3.325-0.19,3.325-0.381,6.65c-0.567-8.359-1.118-15.934-1.482-23.269
		c-0.305,1.292-0.6,1.518-1.019,4.583l0.202-3.742c-0.881-3.409-0.842-11.271-1.214-14.967c0.462,0.795,0.554-2.117,0.623-4.686
		l-0.306,1.016c0.192-9.75-0.184-21.066-0.126-29.781c-0.001-1.215,0.172-2.125,0.331-2.675l-0.357-8.355
		c0.619,0.643,0.544-6.929,0.932-2.942c-0.731-6.253-0.283-12.598-1.04-18.561c-0.013-1.863-0.025-3.74-0.039-5.63
		c-0.02-1.067-0.041-2.143-0.062-3.228c7.403-0.168,14.946-0.339,22.517-0.512c8.906-0.244,17.842-0.568,26.675-0.983l-0.539-0.229
		c7.713-0.409,14.509-1.628,23.884-1.224c6.692-0.824,16.213-1.26,18.877-2.548c7.725-0.177,10.805-0.824,18.381-1.158
		c-1.953-0.638,7.357-0.771,3.631-1.266c-5.026-0.892-5.302-0.133-9.566-0.853l0.125,0.214c-19.9-0.959-39.829-1.507-60.002-1.804
		c-6.73,0.271-13.746,0.295-20.828,0.272c-3.541-0.015-7.099-0.029-10.646-0.045c-4.068,0.012-8.126,0.023-12.141,0.034
		c-3.403,0.032-6.844,0.065-10.369,0.099c0.032,2.939,0.064,5.895,0.097,8.854l0.053,4.394l0.056,2.805
		c0.084,3.343,0.169,6.67,0.251,9.934c0.182,6.527,0.392,12.8,0.622,18.433c0.183,3.084-0.351,5.309-0.649,7.938
		c0.288,11.886,0.07,27.014,0.42,40.422c0.008-0.253,0.017-0.497,0.021-0.657c0.106,7.124-0.549,12.459-0.44,19.416
		c0.182-0.035,0.193,1.043,0.288,1.566c-0.405,0.58-0.016,10.043,0.446,19.994c0.229,4.977,0.463,10.074,0.654,14.245
		c0.012,0.261,0.021,0.519,0.032,0.772c0.011,0.386,0.021,0.766,0.03,1.139c0.02,0.742,0.037,1.459,0.055,2.148
		c0.029,1.363,0.057,2.615,0.081,3.732c0.04,2.221,0.052,3.895,0.021,4.879c0.338,0.01,0.56,0.024,0.689,0.044
		c1.111-0.032,2.264-0.065,3.439-0.099c2.692,0.064,5.396,0.13,8.105,0.195c1.844,0.094,3.691,0.187,5.534,0.279
		c3.685,0.223,7.354,0.445,10.958,0.663c7.207,0.441,14.152,0.816,20.453,0.742c2.737-0.398,5.817-0.748,8.122-1.197
		c2.229,0.363,2.657-0.341,5.343-0.243c6.819,1.698,10.813,0.987,7.293,0.387c5.611-0.229,11.24-0.079,16.225-0.138
		c2.313-0.134,4.609-0.266,6.941-0.4c1.979-0.143,3.084,0.109,4.082,0.512c5.067-0.24,3.573,0.179,8.886,0.351
		c1.284,0.594,13.323-0.944,14.825-0.764l-0.867,0.088c6.143,0.104,10.224,1.252,16.229,1.303c2.893,0.076,5.832,0.125,8.795,0.155
		c4.869,0.015,9.777,0.03,14.687,0.045c0.192-7.56,0.386-15.124,0.573-22.495c0.133-5.486,0.279-10.828,0.484-15.872
		c-0.617-0.17,0.044,3.411-0.784,3.568c0.359-9.109,1.385-18.276,1.742-27.47c0.213-1.653,0.581-3.674,0.8-4.425
		c0.313-2.932-0.248-1.742-0.109-3.892l0.569-0.274c-0.372-3.157,0.749-4.579,0.599-7.546c-0.222-0.163-0.222-1.245-0.175-2.296
		c0.597-0.037,0.048-3.241,0.587-3.073l-0.043-0.031C165.945,108.44,165.919,107.989,166.044,107.216z M163.309,64.414
		c-0.147,0.141-0.286,0.118-0.366-0.099C162.974,63.659,163.117,63.836,163.309,64.414z"/>
	<path d="M215.829,0.118c-1.766-0.566-3.518-0.059-5.289-0.469c0.061,0.085,0.065,0.203,0.124,0.29
		c-2.112,0.179-4.241,0.172-6.355,0.347c-2.137,0.176-4.265,0.438-6.382,0.773c-4.285,0.68-8.543,1.604-12.693,2.873
		c-1.164,0.355-2.318,0.739-3.467,1.142c-1.119,0.393-2.362,0.713-3.424,1.242c-1.676,0.835-3.319,1.806-5.027,2.694
		c-1.705,0.892-3.453,1.747-5.218,2.594c-1.704,0.954-3.417,1.913-5.124,2.869c-0.848,0.49-1.694,0.979-2.537,1.465
		c-0.848,0.482-1.613,1.079-2.407,1.625c-1.677,1.225-3.374,2.486-5.059,3.763c-1.651,1.318-3.214,2.747-4.774,4.109
		c-0.77,0.69-1.534,1.374-2.287,2.05c-0.734,0.695-1.415,1.426-2.099,2.122c-1.358,1.403-2.646,2.765-3.833,4.056
		c-1.059,1.308-2.43,1.586-3.777,2.244c-1.086,1.198-2.279,2.437-3.536,3.707c-1.199,1.318-2.443,2.687-3.706,4.074
		c-0.63,0.693-1.265,1.391-1.9,2.09c-0.625,0.707-1.203,1.453-1.797,2.182c-1.176,1.465-2.318,2.937-3.379,4.395
		c0.09-0.102,0.188-0.19,0.253-0.249c-1.169,1.515-2.305,2.738-3.497,3.918c-1.16,1.199-2.389,2.352-3.391,3.93
		c0.23,0.146-0.089,0.627-0.136,0.939c-0.669-0.092-3.438,4.713-5.767,9.786c-1.238,2.496-2.32,5.086-3.227,7.064
		c-0.907,1.979-1.614,3.363-1.915,3.563c-0.134,0.362-0.279,0.735-0.446,1.104c-4.363,6.403-10.113,12.558-12.729,18.759
		c-0.053,1.574-0.244,3.277-0.125,4.657c-0.98,0.858-0.082,1.493-0.771,2.737c-0.66,0.41-1.193,0.821-1.624,1.214
		c0.065,0.517-0.126,1.054-0.319,1.56c0.089,0.359-0.104,0.72-0.221,1.054c-0.012,0.036-0.037,0.067-0.055,0.103
		c-0.785,2.648-1.975,5.12-2.729,7.448c-0.249,1.209-0.484,2.412-0.703,3.638c-0.061,0.313-0.059,0.366-0.107,0.461
		c-0.046,0.087-0.117,0.151-0.209,0.195c-0.182,0.088-0.443,0.094-0.746,0.048c-0.034,1.21-0.502,0.606-1.006,1.321
		c-0.381-0.257-0.271,0.532-0.189,1.673c0.067,0.759,0.246,1.733,0.053,2.466c-0.037-0.075-0.045-0.154-0.041-0.24
		c-0.306,0.761-0.908,0.07-1.23-0.234c-0.582-0.548-0.648-0.318-0.971,0.442c0.176-0.415-1.471-2.589-1.729-3.005
		c-0.58-0.944-1.16-1.891-1.604-2.908c-0.46,1.074,0.376,0.242-0.138,1.831c-0.439-0.931-0.726-2.097-0.899-3.063
		c-0.196-1.094-0.48-2.109-1.005-3.096c-0.425-0.797-0.634-1.516-0.727-2.414c-0.061-0.582,0.052-1.285-0.445-1.723
		c-0.349-0.308-0.679-0.258-0.892-0.76c0.221-0.174,0.426-0.373,0.648-0.545c-0.863-0.672-0.788-1.537-0.965-2.513
		c-0.086-0.474-0.252-0.901-0.631-1.155c-0.231-0.156-0.402-0.182-0.59-0.45c-0.26-0.368,0.02-0.714-0.197-1.133
		c-0.141-0.272-0.705-0.806-0.224-1.035l-0.066,0.021c-0.156-0.291-0.326-0.462-0.401-0.889c-0.594-0.378-5.688-4.147-6.342-4.488
		l-0.032-0.329c-0.3-0.45-0.702-0.611-0.938-0.551c0.062,0.221-0.554,0.839-0.638,0.738c-0.11-0.132-0.206-0.271-0.296-0.415
		c0.114,0.716,0.215,1.432,0.271,2.122c-0.638-0.462-0.938-1.826-1.436-2.447c0.004-1.111-0.598-3.025-1.055-4.526
		c-0.22-0.255-1.184,0.08-1.211-0.794c0.079-0.139,0.098-0.246,0.092-0.344c-0.025,0.01-0.044,0.01-0.053-0.002
		c-0.881-1.213-1.971-2.251-2.844-3.469c-0.182-0.253-0.369-0.498-0.562-0.738c-0.683-0.285-1.414-0.621-2.005-1.064
		c-0.729,1.012-4.917,0.222-3.718,2.461c0.13-1.658,1.104-0.201,1.954,0.893c-0.221,0.3-0.297,1.084,0,2.058
		c0.516,0.679,0.576,0.227,0.879,0.226c0.057,0.523,0.373,1.39-0.139,1.574c0.885,0.224,0.218,1.114,0.822,1.671
		c0.617,0.438,0.207-0.187,0.729,0.072c0.499,0.929,1.201,2.226,1.54,3c-0.252,0.537-0.483,1.837-1.519,1.637
		c-0.01-0.017-0.013-0.028-0.021-0.044c-0.051,0.071-0.104,0.131-0.151,0.184c0.544,0.645,1.209,1.593,1.152,2.435
		c-0.446,0.04-0.507,0.512-0.896,0.073l0.507,0.957c0.181,0.05,0.366,0.102,0.279-0.211c0.438,0.221,0.589,0.612,0.632,1
		c0.264,0.488,0.577,0.929,0.921,1.341c1.292,1.196,3.47,2.935,3.253,2.928c0.123,0.197,0.166,0.377,0.191,0.546
		c1.102,1.202,2.047,2.493,2.853,3.92c0.032-0.014,0.058-0.02,0.067-0.006c0.064,0.091,0.074,0.116,0.109,0.223
		c0.013,0.038-0.002,0.09-0.025,0.145c0.025-0.014,0.05-0.029,0.073-0.055c0.21,0.616-0.214,0.505-0.534,0.571
		c-0.069,0.048-0.123,0.069-0.151,0.056c-0.095,0.058-0.16,0.154-0.157,0.344c0.065-0.021,0.154-0.158,0.256,0.04l-0.125,0.852
		c1.352,0.962,1.744,3.313,3.316,4.229c-0.24-0.06-0.539-0.117-0.854-0.187c1.006,1.342,1.664,2.858,2.057,4.506
		c0.324,1.357,0.85,2.759,1.035,4.161c0.631,1.924,1.189,3.552,2.139,5.722c0.685,0.107,0.799-0.129,0.65-1.526l0.788,1.733
		c-0.754,0.134-0.511,1.252-0.224,2.446c0.274,1.173,0.594,2.423-0.225,2.442c0.158,0.941,0.776,2.157,1.443,2.855
		c0.188-0.404,0.48-1.066,1.174,0.15c0.842,2.441,0.654,1.762,1.377,3.957c0.098,1.122-0.256,0.879-0.307,1.551
		c1.469,1.352,1.004,3.824,2.383,6.055c0.372,0.602,0.791,1.189,1.207,1.761c0.169,0.231,0.727,1.18,1.094,1.122
		c0.188-0.03,0.213-0.33,0.24-0.477c0.293,0.364,0.479,0.918,0.634,1.355c0.343,0.964,0.263,1.942,0.452,2.93
		c0.09,0.471,0.289,0.91,0.518,1.332c-0.882-1.523-1.748-3.056-2.59-4.602c-0.944-1.731-1.867-3.475-2.778-5.225
		c-0.509-0.978-1.015-1.957-1.517-2.938c-0.633-1.232-1.457-2.497-1.932-3.797c1.969,5.392,4.469,11.633,7.193,17.526
		c1.356,2.937,2.759,5.768,4.12,8.259c0.681,1.244,1.351,2.403,1.996,3.443c0.157,0.248,0.331,0.537,0.471,0.73l0.42,0.543
		c0.303,0.39,0.571,0.693,0.876,1.026c1.013-6.779,1.686-14.661,1.505-22.205c0.503,1.352,1.157,1.569,1.883,0.916
		c0.362-0.324,0.739-0.86,1.119-1.544c0.38-0.683,0.759-1.533,1.127-2.353c0.733-1.686,1.401-3.646,1.852-5.242
		c0.435-1.647,0.729-2.693,0.606-3.004c0.265-1.954,0.535-3.825,0.812-5.629c0.274-1.81,0.554-3.555,0.907-5.146
		c0.531-2.56,1.086-5.005,1.672-7.388c0.293-1.389,0.616-2.707,0.995-4.062c0.765-2.687,1.755-5.351,2.901-7.988
		c2.288-5.283,5.283-10.426,8.461-15.517c0.865-1.42,2.119-3.434,3.507-5.773c1.432-2.313,3.077-4.907,4.763-7.47
		c3.422-5.095,7.09-9.995,9.379-12.45c0.653-0.72,1.293-1.438,1.928-2.179c-1.165,1.151-1.165,1.151-2.33,2.302
		c0.828-1.908,1.619-3.729,2.383-5.488c0.818-1.73,1.676-3.365,2.553-4.96c-0.076,0.14-0.854,0.159-1.013,0.194
		c-0.534,0.12-0.991,0.385-1.487,0.59c0.787-0.325,1.229-1.193,1.456-1.943c0.298-0.978,0.58-1.959,1.116-2.838
		c0.655-1.074,1.326-2.143,1.998-3.206c-0.08,0.128,0.531,0.153,0.584,0.141c0.229-0.055,0.438-0.28,0.598-0.439
		c0.328-0.324,0.579-0.729,0.983-0.969c-0.21,0.02-0.418,0.048-0.626,0.078c0.369-0.187,0.598-0.615,0.859-0.925
		c0.964-1.136,2.023-2.197,3.012-3.314c1.305-1.477,2.601-2.963,3.963-4.387c0.569-0.595,1.15-1.178,1.753-1.738
		c0.22-0.204,0.437-0.45,0.698-0.601c0.32-0.184,0.71-0.17,1.029-0.356c0.484-0.284,0.799-1.033,1.146-1.465
		c0.473-0.586,0.998-1.13,1.534-1.656c0.461,0.443,1.088-0.037,1.54-0.255c0.503-0.243,0.87-0.372,0.505,0.301
		c0.914-1.581,2.201-2.812,3.543-4.024c0.65-0.589,1.284-1.198,1.835-1.883c0.288-0.359,0.512-0.783,0.844-1.098
		c1.428-1.353,3.232-2.458,4.819-3.618c1.705-1.246,3.428-2.467,5.166-3.665c3.535-2.437,7.137-4.775,10.799-7.016
		c1.031-0.63,2.066-1.253,3.105-1.867c0.525-0.311,1.053-0.619,1.58-0.926c0.174-0.102,1.405-0.965,1.539-0.887l-0.377-0.219
		c0.838-0.502,1.625-1.064,2.41-1.646s1.561-1.207,2.421-1.687c1.698-1.017,3.579-1.933,5.937-2.362
		c1.43-1.172,3.354-2.016,4.995-2.998c1.647-0.961,3.05-1.955,3.534-3.06c0.485-0.148,0.932-0.298,1.35-0.45
		c0.422-0.135,0.816-0.26,1.192-0.381c0.749-0.255,1.421-0.523,2.091-0.799c1.34-0.553,2.676-1.133,4.629-1.689
		c-0.576-0.395,0.352-0.831,1.176-1.224C216.157,0.668,216.815,0.385,215.829,0.118z M52.981,91.276
		c-0.176-0.306,0.063-0.35,0.487-0.265C53.331,91.194,53.15,91.301,52.981,91.276z"/>
</g>
<g id="Calque_31">
</g>
<g id="Calque_32">
</g>
<g id="Calque_33">
</g>
<g id="Calque_34">
</g>
<g id="Calque_35">
</g>
<g id="Calque_36">
</g>
<g id="Calque_38">
</g>
<g id="Calque_39">
</g>
</svg>
