<?xml version="1.0" encoding="UTF-8"?>
<svg version="1.1" xmlns="http://www.w3.org/2000/svg" width="1340" height="1181">
<path d="M0 0 C11.68829889 -0.01132878 23.37654383 -0.03308886 35.0648151 -0.06054465 C48.27219533 -0.09143272 61.47950073 -0.10755178 74.68691861 -0.10365436 C81.39178303 -0.10196869 88.09646938 -0.10655875 94.80131298 -0.12801329 C100.92895872 -0.14729665 107.05631094 -0.14767262 113.18396728 -0.13320497 C115.39058946 -0.13117362 117.59723068 -0.13581141 119.80382007 -0.14801101 C135.22474563 -0.22784766 149.88234064 0.63013622 163.78188663 8.10574564 C164.44269229 8.45008646 165.10349796 8.79442728 165.78432804 9.14920267 C171.55509125 12.25111132 176.5813924 15.91661977 181.40688663 20.35574564 C182.23575382 21.09308939 183.064621 21.83043314 183.91860538 22.59012064 C198.97877776 36.70470792 210.70570727 58.95957526 211.49850636 79.75948461 C211.53610348 82.78544845 211.54007994 85.8098964 211.53387027 88.83609232 C211.53543186 90.00264876 211.53699344 91.1692052 211.53860234 92.37111183 C211.54190498 95.61079819 211.5407169 98.85044705 211.53761841 102.09013247 C211.53533696 105.60557172 211.5388049 109.12100611 211.54151397 112.63644441 C211.54592857 119.58457145 211.54488018 126.53268784 211.54203766 133.48081529 C211.5398252 139.21886719 211.53981203 144.95691549 211.54126888 150.69496759 C211.54147724 151.51951067 211.54168561 152.34405376 211.54190029 153.193583 C211.54233348 154.87338683 211.5427707 156.55319067 211.54321188 158.2329945 C211.54736047 175.17607433 211.54391847 192.11914767 211.5377022 209.0622265 C211.53701992 210.92320148 211.53633898 212.78417647 211.53565937 214.64515146 C211.53532161 215.56903315 211.53498385 216.49291485 211.53463586 217.44479296 C211.5313447 226.77872911 211.52992559 236.11266533 211.52860273 245.44660193 C211.51613128 331.0665876 211.44526865 416.68621158 210.61548954 609.14502176 C210.59149384 613.7562785 210.5675252 618.36753538 210.54360538 622.97879251 C210.53772785 624.11157074 210.53185032 625.24434897 210.52579468 626.41145381 C210.41919673 647.05534664 210.33364575 667.69929162 210.25388431 688.3433034 C210.24738985 690.02390918 210.24738985 690.02390918 210.24076419 691.73846658 C210.2364558 692.85435714 210.2321474 693.9702477 210.22770845 695.11995312 C210.17329358 709.1159946 210.11166712 723.11200487 210.04857879 737.10800966 C210.00397879 747.04232237 209.96211539 756.97662715 209.92815738 766.91098245 C209.90025804 775.06480801 209.86586266 783.21857262 209.82272404 791.37233242 C209.80130352 795.45701227 209.78286741 799.54164213 209.77309757 803.62636789 C209.7641523 807.34405969 209.7461429 811.06159871 209.72123759 814.77921685 C209.71044278 816.72385592 209.7089938 818.66854028 209.70807319 820.61320909 C209.50203019 845.82287975 203.70033084 869.31066343 186.40688663 888.35574564 C185.63473819 889.20910501 184.86258975 890.06246439 184.06704288 890.94168314 C178.42303026 896.87993338 172.53282041 901.33968469 165.40688663 905.35574564 C164.22352725 906.0479722 164.22352725 906.0479722 163.01626163 906.75418314 C149.4328725 914.17557123 134.50508148 915.52302828 119.32587772 915.46109232 C118.1517275 915.46028823 116.97757728 915.45948413 115.76784676 915.45865568 C111.89579285 915.45467694 108.02379807 915.44338782 104.15175968 915.43191751 C101.40436092 915.42682043 98.65696057 915.42315588 95.90955978 915.41933664 C88.09182176 915.4071777 80.27412406 915.38561008 72.45641374 915.36187728 C69.21861433 915.35219064 65.98081253 915.34337416 62.74301105 915.33441385 C47.02173083 915.28960682 31.30053554 915.22810448 15.57933141 915.1622189 C7.81355308 915.12979275 0.04776592 915.0996691 -7.71802182 915.06959756 C-9.19513705 915.06387064 -10.67225229 915.05814357 -12.14936752 915.05241635 C-14.38987699 915.04373234 -16.63038648 915.03505222 -18.870896 915.02638169 C-24.18246694 915.00582134 -29.49403723 914.98510151 -34.80560727 914.96431097 C-69.64881087 914.82801244 -104.49203262 914.69714027 -139.33530087 914.57840189 C-140.13056932 914.57569155 -140.92583777 914.57298122 -141.74520526 914.57018875 C-206.96543219 914.34847643 -272.18498518 914.26816676 -337.40561337 914.29324564 C-339.10973236 914.29388198 -339.10973236 914.29388198 -340.84827799 914.29453119 C-368.76323226 914.30514925 -396.67817464 914.32434904 -424.59311337 914.35574564 C-422.88523648 915.06242883 -422.88523648 915.06242883 -421.14285702 915.78338846 C-416.81518882 917.57435627 -412.4879941 919.36646578 -408.16092343 921.15887674 C-406.30745031 921.92646926 -404.45385809 922.69377425 -402.60013241 923.46075662 C-389.6527134 928.81808198 -376.73376861 934.23824034 -363.84311337 939.73074564 C-362.82114865 940.16582437 -361.79918393 940.60090311 -360.74625058 941.04916605 C-358.43959696 942.03193657 -356.13347366 943.01593948 -353.82748837 944.00027689 C-345.10208865 947.72046189 -336.36320729 951.40812313 -327.62143368 955.08963235 C-284.33609272 973.31892916 -241.20750789 991.91168864 -198.13705868 1010.64232095 C-191.81596852 1013.39094072 -185.49218784 1016.13320656 -179.1648602 1018.86743387 C-173.96161214 1021.11599556 -168.76224298 1023.3734065 -163.5638165 1025.63308939 C-160.57995531 1026.92898165 -157.59372404 1028.21930726 -154.60678525 1029.50808939 C-150.01318972 1031.49056623 -145.42348198 1033.4818482 -140.83566708 1035.47766336 C-139.04141042 1036.25657616 -137.24596195 1037.03275073 -135.44919247 1037.8058494 C-110.574831 1048.51412243 -90.58600407 1060.57032201 -79.59311337 1086.35574564 C-77.63628449 1091.52426542 -75.83480449 1096.73629379 -74.09311337 1101.98074564 C-73.8736102 1102.63890268 -73.65410702 1103.29705972 -73.42795224 1103.97516092 C-68.12678951 1119.99318656 -66.26515816 1134.83927943 -73.06967587 1150.82449564 C-80.73626005 1165.80759167 -91.59282931 1175.05083862 -107.59311337 1180.35574564 C-120.73302332 1184.14815158 -136.62868258 1182.16029131 -148.47201962 1175.81277689 C-163.01406281 1167.16669134 -170.38439266 1155.21238215 -175.59311337 1139.35574564 C-175.59311337 1138.69574564 -175.59311337 1138.03574564 -175.59311337 1137.35574564 C-176.25746396 1137.26236917 -176.92181454 1137.16899271 -177.60629696 1137.07278665 C-181.43430631 1136.15380157 -184.83876118 1134.5543337 -188.38217587 1132.88308939 C-189.52689358 1132.351336 -189.52689358 1132.351336 -190.69473691 1131.80884012 C-192.34260895 1131.04263249 -193.98934058 1130.27396839 -195.63504452 1129.50311502 C-199.1481141 1127.85764772 -202.66666265 1126.22405141 -206.18481869 1124.58949503 C-207.99678206 1123.74741233 -209.80844535 1122.90468366 -211.61981625 1122.0613273 C-220.21843105 1118.05851386 -228.83955859 1114.10601497 -237.46811337 1110.16824564 C-238.91359595 1109.50802402 -240.3590712 1108.84778638 -241.80453915 1108.18753275 C-252.92544639 1103.10959296 -264.05489954 1098.0504573 -275.18710751 1092.9973472 C-282.18892693 1089.81819284 -289.18608299 1086.62926592 -296.17514462 1083.42215189 C-311.55084701 1076.36893959 -326.95567249 1069.39580108 -342.43213315 1062.56622537 C-351.41893972 1058.59702676 -360.36783057 1054.55640193 -369.27280087 1050.40652689 C-370.17551724 1049.98606592 -371.07823361 1049.56560495 -372.00830502 1049.13240274 C-376.37234991 1047.09748458 -380.7325619 1045.05482806 -385.08774228 1043.00100931 C-393.43039289 1039.0844001 -401.81768914 1035.35545736 -410.37045712 1031.91824564 C-411.18989804 1031.5880845 -412.00933896 1031.25792337 -412.85361142 1030.91775735 C-424.59264959 1026.27702464 -438.0204908 1022.34778721 -450.34311337 1027.14480814 C-465.55277715 1035.33056468 -472.00520951 1053.89574981 -479.09311337 1068.73074564 C-479.82702038 1070.25701242 -480.56139319 1071.78305532 -481.29623837 1073.30887064 C-483.06721755 1076.98861604 -484.83195737 1080.67128936 -486.59311337 1084.35574564 C-491.14833617 1083.70405914 -495.03125129 1081.9374395 -499.15561337 1079.99637064 C-499.89059048 1079.65595239 -500.62556759 1079.31553415 -501.38281674 1078.9648002 C-502.96368951 1078.23201048 -504.54345947 1077.49683785 -506.12222714 1076.75952371 C-510.32364032 1074.79767765 -514.5331844 1072.85340024 -518.74155087 1070.90652689 C-519.58672268 1070.5149389 -520.4318945 1070.12335092 -521.30267758 1069.71989664 C-528.58150993 1066.35074919 -535.89148698 1063.05709006 -543.21811337 1059.79324564 C-553.72686407 1055.10612693 -564.19763882 1050.34225051 -574.65561337 1045.54324564 C-586.74242579 1039.99683803 -598.86851829 1034.54746851 -611.03061337 1029.16824564 C-625.20147084 1022.89878136 -639.27744178 1016.45413416 -653.31235165 1009.88504251 C-657.67048592 1007.85353834 -662.0409746 1005.84944552 -666.41171689 1003.84524759 C-671.8131289 1001.3650779 -677.20521494 998.86512281 -682.59311337 996.35574564 C-683.71105282 995.83512552 -684.82899228 995.3145054 -685.98080868 994.77810892 C-701.03829903 987.733431 -715.64317367 980.18543204 -730.01425595 971.82986673 C-732.63744307 970.33040599 -735.287178 968.89160214 -737.94858212 967.46121439 C-744.23090733 964.05269519 -750.32243527 960.35576054 -756.40561337 956.60574564 C-756.97548977 956.25503 -757.54536618 955.90431436 -758.13251156 955.54297098 C-765.81861782 950.80499346 -773.3315088 945.92520409 -780.59701962 940.56277689 C-783.62943111 938.32899267 -786.72325097 936.21521997 -789.84311337 934.10574564 C-797.71731739 928.68798257 -805.19377308 922.75960975 -812.69296689 916.83865579 C-813.32001523 916.34929544 -813.94706357 915.85993509 -814.59311337 915.35574564 C-815.13755817 914.83824558 -815.68200297 914.32074552 -816.2429461 913.78756364 C-819.47506528 911.81842447 -822.42329505 911.93507928 -826.09593625 911.96374734 C-826.85557925 911.95780608 -827.61522225 911.95186482 -828.39788473 911.94574352 C-830.94756568 911.92941626 -833.49676035 911.93440619 -836.04648251 911.93924173 C-837.87563552 911.93186076 -839.70478358 911.92315546 -841.53392453 911.91322549 C-846.52044951 911.88982282 -851.50685005 911.88474578 -856.49342317 911.8825663 C-861.76004747 911.8768825 -867.02659254 911.8535696 -872.29317135 911.83197244 C-882.32936264 911.79334062 -892.36553128 911.76921863 -902.40177811 911.75084778 C-914.71623864 911.7279428 -927.03064732 911.69150834 -939.3450665 911.65262064 C-940.43088914 911.64922001 -941.51671179 911.64581938 -942.63543815 911.64231571 C-965.11055255 911.57146835 -987.58561965 911.49056813 -1010.06052537 911.36938509 C-1011.70541873 911.36052638 -1013.35031298 911.35183094 -1014.99520821 911.34332689 C-1023.41370728 911.29955424 -1031.8315063 911.23848874 -1040.24939198 911.12257989 C-1042.29722857 911.09641818 -1044.34515542 911.07635399 -1046.39311833 911.0634292 C-1070.29927088 910.89830667 -1089.2496761 904.10766049 -1106.59311337 887.35574564 C-1120.08216744 873.51843716 -1128.69807775 853.13256503 -1128.72682614 833.83160623 C-1128.73109647 832.51870835 -1128.73536681 831.20581047 -1128.73976655 829.8531278 C-1128.73941733 828.39322564 -1128.73894952 826.93332351 -1128.73837704 825.47342142 C-1128.7413373 823.90484797 -1128.7446942 822.33627522 -1128.74840874 820.76770338 C-1128.75727278 816.38819874 -1128.75940727 812.00871273 -1128.76015563 807.62920006 C-1128.76109741 804.75439837 -1128.76374204 801.87960305 -1128.76693768 799.00480302 C-1128.78283527 784.68944666 -1128.78391023 770.37411349 -1128.78108878 756.05875 C-1128.78061458 752.48983681 -1128.78076359 748.92092423 -1128.78114361 745.35201105 C-1128.79133352 646.87105807 -1128.37891313 548.39164427 -1127.70604667 403.45157348 C-1127.66691282 395.19407933 -1127.62812266 386.93658361 -1127.58950848 378.67908701 C-1127.34867897 327.20799954 -1127.09579267 275.73702222 -1126.79557722 224.26624271 C-1126.76759391 219.46785114 -1126.73977134 214.66945866 -1126.71207089 209.87106546 C-1126.70672877 208.94612303 -1126.70138665 208.0211806 -1126.69588265 207.06820961 C-1126.61535881 193.04988188 -1126.55060916 179.03154597 -1126.49603344 165.0130954 C-1126.45479627 154.5000146 -1126.40134998 143.98704884 -1126.33561338 133.47408786 C-1126.29466707 126.8493046 -1126.26827494 120.22473322 -1126.25535006 113.59983905 C-1126.2436787 109.72526272 -1126.21588149 105.85093737 -1126.18290109 101.97648915 C-1126.17143246 100.26974897 -1126.16630459 98.5629489 -1126.16889877 96.85617217 C-1126.19868855 71.16921835 -1118.76729507 48.92535319 -1100.57748837 30.18387064 C-1083.98968136 13.94852698 -1063.30755386 9.992357 -1041.00424618 9.70877298 C-1039.32693281 9.67734981 -1037.64964189 9.64470709 -1035.97237439 9.61092409 C-1031.67305023 9.5273037 -1027.37362925 9.45921737 -1023.07398076 9.39478429 C-1019.24433051 9.33452134 -1015.41502883 9.25836411 -1011.58566708 9.18222269 C-1003.22466814 9.01898464 -994.86335925 8.88034188 -986.50183506 8.74708112 C-983.93546994 8.70603637 -981.36911569 8.66436201 -978.80276341 8.62252267 C-966.33426381 8.41939885 -953.86566954 8.22265081 -941.39702887 8.02839788 C-938.33116562 7.98055921 -935.26530636 7.93247216 -932.19944806 7.88431772 C-851.9035017 6.62414466 -771.6049523 5.65036796 -691.3042819 4.7547247 C-688.4611568 4.72299552 -685.61803248 4.69119634 -682.77490816 4.6593972 C-642.38115486 4.20766636 -601.98725016 3.77194845 -561.59311337 3.35574564 C-560.44938527 3.34394156 -559.30565717 3.33213748 -558.12727065 3.3199757 C-470.5966979 2.41726492 -383.06424335 1.76305266 0 0 Z M-1098.59311337 34.35574564 C-1099.35108212 35.05957376 -1100.10905087 35.76340189 -1100.88998837 36.48855814 C-1115.01528947 50.85739891 -1121.79254953 71.16240306 -1121.71649498 91.0595754 C-1121.71762228 91.81017422 -1121.71874958 92.56077303 -1121.71991104 93.33411727 C-1121.72235658 95.85597415 -1121.71752241 98.37776212 -1121.71260495 100.89961465 C-1121.7125604 102.73951029 -1121.71289579 104.57940596 -1121.71357543 106.41930147 C-1121.71388346 111.5206478 -1121.70726359 116.62196492 -1121.69915023 121.72330401 C-1121.69437813 125.02639002 -1121.69143675 128.32947284 -1121.68907387 131.63256141 C-1121.64352765 193.68395598 -1121.33530494 255.73491194 -1121.04424597 317.78553433 C-1120.98730069 329.92617012 -1120.93115525 342.06680939 -1120.87550587 354.20745119 C-1120.85923491 357.75529535 -1120.84296039 361.3031395 -1120.82668484 364.85098364 C-1120.82263536 365.73375734 -1120.81858587 366.61653103 -1120.81441368 367.52605544 C-1120.70146145 392.14292069 -1120.58752105 416.7597812 -1120.47147126 441.37663206 C-1120.46498621 442.75242268 -1120.46498621 442.75242268 -1120.45837016 444.15600706 C-1120.43647432 448.8007246 -1120.41457068 453.4454421 -1120.3926651 458.0901596 C-1120.38831748 459.01203962 -1120.38396986 459.93391964 -1120.37949049 460.88373543 C-1120.37069878 462.74793728 -1120.36190645 464.61213914 -1120.35311349 466.47634099 C-1120.21535334 495.68881275 -1120.08142734 524.90130006 -1119.9502911 554.11380228 C-1119.80184877 587.1808879 -1119.65028445 620.24795722 -1119.49430073 653.31500819 C-1119.47770212 656.83613212 -1119.46111535 660.35725611 -1119.44453663 663.87838014 C-1119.44045461 664.74495484 -1119.43637258 665.61152954 -1119.43216685 666.50436408 C-1119.36682042 680.39199946 -1119.304421 694.27964654 -1119.24307337 708.16730009 C-1119.18155988 722.07384516 -1119.11658238 735.98037077 -1119.04810537 749.88688332 C-1119.00761676 758.12907002 -1118.9696655 766.37125904 -1118.93542515 774.61347413 C-1118.90954836 780.77321186 -1118.87880934 786.9329165 -1118.84621567 793.09262215 C-1118.83381804 795.57640498 -1118.82296953 798.06019616 -1118.81386103 800.54399323 C-1118.70331634 830.13195497 -1118.21976706 858.56344358 -1096.10678525 880.93338235 C-1088.51923689 888.06323021 -1079.46223281 893.10089697 -1069.59311337 896.35574564 C-1068.55231625 896.70079645 -1067.51151913 897.04584726 -1066.43918271 897.40135416 C-1059.48828111 899.09922386 -1052.21672914 898.62511305 -1045.10678525 898.59866556 C-1043.42981306 898.59973996 -1041.75284124 898.60168098 -1040.07587094 898.60441812 C-1035.52364342 898.60925935 -1030.97151426 898.6016077 -1026.4192986 898.59146508 C-1021.60244164 898.58261384 -1016.78558716 898.58444377 -1011.96872372 898.58482584 C-1003.83797003 898.58388859 -995.70725357 898.57521745 -987.57651181 898.56155618 C-979.32585325 898.54774028 -971.07522897 898.54052783 -962.82455868 898.54104837 C-899.20150375 898.58705477 -899.20150375 898.58705477 -835.59311337 897.35574564 C-838.34353974 894.6029426 -841.0957621 891.85225358 -843.86362118 889.1169761 C-847.15420114 885.86232538 -850.43840096 882.60131419 -853.72055478 879.33816751 C-855.12661772 877.9421317 -856.53447443 876.54790006 -857.94418759 875.15555032 C-865.98783028 867.20809187 -873.61171578 859.26384008 -880.59311337 850.35574564 C-881.52700205 849.25316231 -882.46840034 848.15683878 -883.42123837 847.07058939 C-891.09726247 838.26792304 -897.91187116 828.92867598 -904.59311337 819.35574564 C-905.03510067 818.72442728 -905.47708798 818.09310892 -905.93246884 817.4426597 C-913.79445834 806.13932298 -920.68382779 794.25621661 -927.59311337 782.35574564 C-928.13806454 781.41827493 -928.68301571 780.48080423 -929.24448056 779.51492532 C-932.3705404 774.13418777 -935.48626231 768.74759537 -938.59311337 763.35574564 C-930.59653531 762.64450158 -922.59651844 761.98531048 -914.59311337 761.35574564 C-913.75103329 761.28678079 -912.90895321 761.21781595 -912.04135556 761.14676126 C-827.23435876 754.44862903 -745.17744589 781.3205677 -666.91791195 815.9837211 C-657.86421971 819.98308267 -648.74520605 823.77349744 -639.54623837 827.42605814 C-638.14187492 827.98606911 -636.73761665 828.54634387 -635.33345456 829.10685953 C-632.37005877 830.28932073 -629.40607597 831.47029227 -626.44159359 832.65002664 C-619.38715851 835.4576842 -612.33645549 838.27469412 -605.2853188 841.09062227 C-602.91052225 842.03893901 -600.5356166 842.98698214 -598.16069455 843.93498453 C-566.45757958 856.59170401 -534.78647531 869.32848395 -503.29092295 882.49477234 C-501.78058046 883.12279862 -500.26819992 883.74596957 -498.75291545 884.36197641 C-494.70391408 886.015409 -490.73276534 887.75181484 -486.80173726 889.66994794 C-472.06766239 896.62553735 -459.30254324 897.56300059 -443.18930478 897.25003275 C-440.6194955 897.23438905 -438.04965829 897.22288288 -435.47981305 897.21514543 C-429.97772877 897.19254032 -424.4767754 897.13760929 -418.97520489 897.05984911 C-410.88954849 896.94594337 -402.80411415 896.8856271 -394.7178249 896.8381484 C-382.32182292 896.76483762 -369.92628125 896.66392429 -357.53066819 896.54206455 C-339.11364468 896.36179889 -320.6974552 896.27945779 -302.27963681 896.24295267 C-300.87210284 896.24002512 -299.46456892 896.23707873 -298.05703504 896.23411354 C-292.42955207 896.22231763 -286.80206872 896.21075557 -281.17458392 896.19986781 C-266.20263413 896.17032889 -251.23078743 896.11640498 -236.25891926 896.05973699 C-234.09203498 896.05154696 -231.92515044 896.04343024 -229.7582658 896.03533634 C-220.98734547 896.00255237 -212.21642762 895.96914618 -203.44551081 895.93543562 C-198.9162933 895.91803132 -194.38707527 895.90076104 -189.85785718 895.883509 C-162.93757335 895.78091744 -136.01729287 895.67744393 -109.09703206 895.5689668 C-102.37355833 895.54188445 -95.65008407 895.51493301 -88.92660946 895.48806985 C-88.19614965 895.4851504 -87.46568984 895.48223095 -86.71309488 895.47922304 C-63.2579231 895.38561037 -39.80273851 895.30635963 -16.3474812 895.23684057 C1.59260769 895.18348156 19.53264559 895.12085941 37.47267108 895.04925092 C48.49610553 895.00559039 59.51949749 894.97012064 70.54299258 894.94610145 C77.88354878 894.92929904 85.22401491 894.90188148 92.56450092 894.86567154 C96.70381393 894.84555436 100.84299777 894.82997934 104.98236232 894.82768663 C108.71820701 894.82555385 112.45373899 894.80974586 116.18948775 894.78320428 C118.14524037 894.7727565 120.10105407 894.77668783 122.05682903 894.78135236 C140.28703603 894.61045463 155.13478423 888.97344545 168.40688663 876.35574564 C181.48757086 862.54961618 187.59729927 844.49179592 187.52735477 825.67901834 C187.52861068 824.40593622 187.52861068 824.40593622 187.52989196 823.10713526 C187.53140114 820.27998881 187.52570779 817.45290539 187.51992374 814.62576517 C187.51933718 812.60120749 187.5191519 810.57664967 187.51933818 808.55209192 C187.51840419 803.0582529 187.51087236 797.56444092 187.50187378 792.07060989 C187.49494797 787.41554377 187.49158323 782.76047741 187.4880588 778.10540768 C187.45214159 732.80794841 187.25206469 687.51136883 187.02005141 642.214565 C186.90373633 619.43874267 186.7974814 596.6628705 186.69204288 573.88699564 C186.68612833 572.61475625 186.68021378 571.34251687 186.67412 570.03172477 C186.46713611 525.45582633 186.30739489 480.87985811 186.16851645 436.30369934 C186.15297825 431.31825159 186.13729048 426.33280432 186.1215797 421.34735712 C186.03098837 392.58295809 185.94046034 363.81855819 185.85935248 335.05413062 C185.76392999 301.21545188 185.65883978 267.37686791 185.51457649 233.5383571 C185.50226174 230.64281058 185.48997005 227.74726397 185.47768741 224.85171732 C185.47463745 224.13542226 185.47158749 223.41912721 185.46844511 222.68112624 C185.42115479 211.51934099 185.38431916 200.35754832 185.35171085 189.19571146 C185.31282425 175.91512005 185.25917449 162.63467104 185.18759256 149.35421415 C185.15086513 142.47342425 185.1202564 135.59274667 185.10746341 128.7118667 C185.09499941 122.3744392 185.06405102 116.0373704 185.01888805 109.70009407 C185.00567133 107.40156755 184.99903482 105.10299139 184.99978023 102.80442699 C184.99968734 80.10388605 181.88724488 59.7281844 165.15688663 42.98074564 C148.67262224 27.24576599 130.07256014 26.05557204 108.34048038 26.06863626 C106.2995577 26.06254467 104.2586375 26.05556625 102.21772056 26.04778417 C97.78363521 26.0327687 93.34959568 26.02397565 88.91548686 26.0199283 C81.6617847 26.0132066 74.40815942 25.99238405 67.154491 25.97001871 C57.22253454 25.94062588 47.29058155 25.91616815 37.35860263 25.89630991 C19.5554004 25.86069814 1.75226737 25.80936134 -16.05087704 25.75198587 C-16.77893234 25.74964055 -17.50698764 25.74729523 -18.25710522 25.74487884 C-27.25205475 25.71584462 -36.24700187 25.68610948 -45.2419479 25.65601374 C-50.64082857 25.63798101 -56.03971063 25.62040871 -61.43859334 25.60299715 C-135.43845605 25.36364768 -209.43684908 24.92282308 -283.43544013 24.43452915 C-285.90949721 24.41822003 -288.38355459 24.40195663 -290.85761208 24.38571008 C-380.25357056 23.79866581 -469.64869308 23.14852343 -620.80323905 21.57025822 C-634.94522266 21.41562307 -649.08725581 21.26661884 -663.22934384 21.12185892 C-732.59235855 20.41134296 -801.95342981 19.63933062 -871.31186337 18.56277689 C-872.41954091 18.54560877 -873.52721846 18.52844065 -874.66846199 18.51075228 C-897.42161033 18.15792183 -920.17462752 17.79782184 -942.92739815 17.42139371 C-966.48216468 17.03179437 -990.0370548 16.6588607 -1013.59311337 16.35574564 C-1014.31274856 16.34641567 -1015.03238375 16.3370857 -1015.77382607 16.32747301 C-1023.79528193 16.22437969 -1031.8165284 16.13997342 -1039.8385796 16.09993585 C-1041.85168246 16.08846782 -1043.86476568 16.07222078 -1045.87778325 16.05042871 C-1066.29906793 15.84188392 -1083.22672385 20.08695536 -1098.59311337 34.35574564 Z M-923.59311337 770.35574564 C-920.08205035 777.8365011 -915.96440043 784.72068062 -911.40561337 791.60574564 C-910.74142392 792.61500101 -910.07723446 793.62425638 -909.39291806 794.66409525 C-888.82265035 825.77625124 -864.40152784 856.38096398 -835.77670712 880.51199564 C-833.95351331 882.05143656 -832.16286064 883.61592045 -830.37826962 885.19949564 C-821.76256174 892.8145352 -812.85485939 899.91616963 -803.65024228 906.8044761 C-801.74451415 908.24157514 -799.85932295 909.70099818 -797.97983212 911.17215189 C-756.05677961 943.73717663 -707.78581923 968.45210134 -659.26147885 989.45839151 C-654.03949464 991.71967763 -648.83500303 994.0175757 -643.63998837 996.34012064 C-642.89961331 996.67106226 -642.15923825 997.00200388 -641.39642758 997.34297403 C-639.89896445 998.01242682 -638.40151777 998.68191639 -636.90408749 999.35144266 C-621.76380581 1006.11399769 -606.55989252 1012.72429653 -591.33293576 1019.28886636 C-590.56414593 1019.62031152 -589.79535611 1019.95175668 -589.00326962 1020.29324564 C-588.23210309 1020.62569788 -587.46093655 1020.95815012 -586.66640133 1021.30067667 C-578.65322146 1024.75733534 -570.65228912 1028.24193036 -562.65329403 1031.73126443 C-560.23352764 1032.78652348 -557.8132746 1033.84065931 -555.39291806 1034.894564 C-547.72981029 1038.23285815 -540.07169253 1041.5818041 -532.42532773 1044.95829996 C-528.82846745 1046.5458509 -525.22941785 1048.12840225 -521.63016171 1049.71051248 C-519.91262212 1050.46717596 -518.1961675 1051.22630752 -516.48086972 1051.98803934 C-514.10298336 1053.04386541 -511.72154749 1054.09126669 -509.33920712 1055.13699564 C-508.64100354 1055.44967889 -507.94279995 1055.76236215 -507.22343869 1056.08452066 C-503.35484209 1057.77154768 -499.78670715 1058.85764192 -495.59311337 1059.35574564 C-495.20566952 1058.52438089 -494.81822567 1057.69301614 -494.4190411 1056.83645853 C-492.95375694 1053.70658366 -491.47834856 1050.58189219 -489.99618954 1047.45999368 C-489.36098733 1046.11683411 -488.72968743 1044.77182093 -488.10263485 1043.42483743 C-484.36039507 1035.39380568 -480.47224775 1028.07567125 -474.59311337 1021.35574564 C-474.05694394 1020.71411478 -473.5207745 1020.07248392 -472.96835751 1019.4114097 C-466.43413245 1011.77316801 -454.56380899 1006.21309844 -444.59311337 1005.35574564 C-430.88478692 1004.50292348 -418.78358991 1006.99497393 -405.92123837 1011.58621439 C-403.68528913 1012.46035802 -403.68528913 1012.46035802 -401.59311337 1012.35574564 C-401.90554989 1011.15506448 -402.21798642 1009.95438333 -402.53989071 1008.7173179 C-403.94110966 1002.3837558 -404.15736396 996.03447957 -404.44467587 989.57058939 C-404.50843411 988.27375726 -404.57219235 986.97692514 -404.63788266 985.64079507 C-404.80581238 982.22336548 -404.96449106 978.80556927 -405.12112851 975.38760599 C-405.28319719 971.88777923 -405.45417502 968.38838841 -405.62436337 964.88894876 C-405.9559122 958.0449445 -406.27767227 951.20051073 -406.59311337 944.35574564 C-416.14455536 939.55939352 -425.71061554 934.80039626 -435.34311337 930.16824564 C-437.05821103 929.3426011 -437.05821103 929.3426011 -438.80795712 928.50027689 C-448.20292342 923.99233231 -457.6492231 919.60031757 -467.10971493 915.23196634 C-476.2831885 910.98741873 -485.39176154 906.61786323 -494.4881329 902.21097025 C-502.11004896 898.52720863 -509.77546322 894.95144823 -517.46811337 891.41824564 C-533.16199414 884.19335692 -548.64885402 876.54709831 -564.15906186 868.93823465 C-565.10796292 868.47273203 -566.05686398 868.0072294 -567.03451962 867.52762064 C-567.9689993 867.06912729 -568.90347897 866.61063394 -569.86627621 866.13824686 C-576.80044757 862.73837453 -583.7497697 859.37261831 -590.71811337 856.04324564 C-599.81338817 851.69498274 -608.89392011 847.31717408 -617.96411557 842.91687234 C-619.50553849 842.16919887 -621.0471841 841.42198433 -622.58905453 840.67523416 C-630.44883176 836.86784524 -638.28123378 833.02729965 -646.03842587 829.01394876 C-703.83261563 799.25628209 -769.08571532 778.40343176 -833.59311337 770.35574564 C-834.51672665 770.23860208 -835.44033993 770.12145853 -836.3919415 770.00076517 C-851.54010872 768.18933721 -866.7334395 768.15253182 -881.96811337 768.10574564 C-882.94526303 768.10038797 -883.92241269 768.0950303 -884.92917294 768.08951028 C-897.95206224 768.03537356 -910.67263551 768.70760099 -923.59311337 770.35574564 Z M-395.59311337 949.35574564 C-393.04952995 957.25198775 -390.1207563 964.98474288 -387.15561337 972.73074564 C-385.73267935 976.45440076 -384.31285404 980.17913278 -382.90488095 983.90848001 C-382.07715957 986.08369419 -381.23281783 988.25272319 -380.36533017 990.41238626 C-378.11403423 996.16275653 -377.0201779 1000.93631881 -377.28061337 1007.10574564 C-377.29028134 1007.8082847 -377.29994931 1008.51082376 -377.30991025 1009.23465189 C-377.40472384 1013.67852378 -377.88689851 1017.96917526 -378.59311337 1022.35574564 C-370.20290424 1026.70677444 -361.66644763 1030.56684149 -352.96527524 1034.24450906 C-349.09796095 1035.87971847 -345.23650893 1037.52868694 -341.37436337 1039.17605814 C-340.56871441 1039.51938684 -339.76306546 1039.86271555 -338.9330029 1040.21644815 C-330.19466194 1043.94422937 -321.48638713 1047.74016962 -312.78061337 1051.54324564 C-311.16189505 1052.24998664 -309.54316116 1052.956692 -307.9244122 1053.66336282 C-305.42761078 1054.75339672 -302.93082787 1055.84347282 -300.43413205 1056.93374857 C-290.11650115 1061.43863399 -279.79267215 1065.92926516 -269.46811337 1070.41824564 C-268.49644223 1070.8407258 -267.52477109 1071.26320596 -266.52365536 1071.69848856 C-254.28549233 1077.01893667 -242.04371102 1082.33093205 -229.79486508 1087.62674173 C-227.5501527 1088.59729733 -225.3056358 1089.56830396 -223.06113095 1090.53933939 C-216.08070427 1093.55821552 -209.09754729 1096.5704919 -202.10780758 1099.56775125 C-198.76093556 1101.00345007 -195.4153879 1102.44222024 -192.06995053 1103.88125833 C-190.49433512 1104.5580044 -188.91808891 1105.23328424 -187.34112973 1105.9068931 C-179.76104762 1109.14501042 -172.20649291 1112.4361277 -164.77670712 1116.00808939 C-163.67770077 1116.53265726 -162.57869442 1117.05722513 -161.44638485 1117.597689 C-156.85104389 1120.42912994 -154.4955314 1123.98488194 -152.55014462 1128.93777689 C-147.99942575 1140.04237659 -144.21928676 1149.03818053 -132.78061337 1154.35574564 C-125.64585477 1156.51177607 -118.17499317 1156.4558045 -111.34311337 1153.41824564 C-103.55869071 1148.95567805 -98.43011519 1142.79113045 -95.87045712 1134.20340189 C-94.93863335 1124.63580287 -98.03233713 1116.2327867 -101.28061337 1107.35574564 C-101.91386532 1105.54590189 -101.91386532 1105.54590189 -102.55991025 1103.69949564 C-107.57193383 1089.78980726 -113.77037711 1078.71323507 -127.28061337 1071.91824564 C-128.07548153 1071.50904886 -128.8703497 1071.09985208 -129.68930478 1070.6782554 C-140.43762415 1065.26679561 -151.51529851 1060.52974 -162.52768368 1055.68757852 C-172.78382461 1051.17656063 -182.98178329 1046.54919763 -193.15561337 1041.85574564 C-194.70199368 1041.14292248 -196.2483804 1040.43011325 -197.79477353 1039.7173179 C-200.10707994 1038.65125317 -202.4193008 1037.58500443 -204.73129696 1036.518267 C-212.92696522 1032.73766453 -221.13401736 1028.98208328 -229.34311337 1025.23074564 C-230.06608609 1024.9002421 -230.7890588 1024.56973856 -231.53393979 1024.22921976 C-239.26798996 1020.69391934 -247.00515036 1017.16560776 -254.74936337 1013.65262064 C-255.41699704 1013.3497413 -256.0846307 1013.04686197 -256.77249569 1012.73480447 C-257.44000851 1012.43198557 -258.10752133 1012.12916666 -258.79526181 1011.81717142 C-260.14455276 1011.20504513 -261.49383661 1010.59290319 -262.84311337 1009.98074564 C-263.51088803 1009.67779581 -264.17866269 1009.37484598 -264.86667294 1009.06271585 C-277.1312911 1003.49622804 -289.36189622 997.8573583 -301.58600277 992.20254739 C-313.50297421 986.6903724 -325.44421118 981.23538435 -337.40784115 975.82531961 C-349.77138521 970.23019295 -362.05376105 964.46875003 -374.30527157 958.6326011 C-381.31296757 955.30350309 -388.32741188 952.09268424 -395.59311337 949.35574564 Z " fill="#000000" transform="translate(1128.5931133702397,-0.3557456359267235)"/>
<path d="M0 0 C12.14324721 10.61625206 20.5837962 22.19718143 25.859375 37.46875 C29.70011365 48.50033698 34.60784068 56.26516106 45.296875 61.71875 C51.98039651 64.53234473 58.93680042 66.12785803 65.984375 67.71875 C88.17231021 72.78375688 103.20316483 88.09721413 115.296875 106.71875 C115.99683594 107.79640625 116.69679688 108.8740625 117.41796875 109.984375 C129.98489311 130.65978272 136.263741 154.90723078 139.296875 178.71875 C139.42964844 179.75 139.56242187 180.78125 139.69921875 181.84375 C144.27812461 226.00196543 133.52780335 271.41275229 106.296875 306.71875 C105.60722656 307.61980469 104.91757813 308.52085937 104.20703125 309.44921875 C100.16674224 314.60958788 95.8697828 319.50357707 91.453125 324.34375 C89.5112602 326.48261558 87.61709904 328.65294385 85.734375 330.84375 C78.89708661 338.65108846 71.39807745 345.24690332 63.296875 351.71875 C62.49378906 352.3890625 61.69070313 353.059375 60.86328125 353.75 C36.01870621 374.31102762 4.16189983 389.65795492 -28.703125 386.71875 C-38.05590833 385.45172133 -46.13906589 382.20400369 -54.53198242 378.02758789 C-59.69379384 375.53360119 -63.05513196 374.82224317 -68.703125 375.71875 C-73.24568252 377.61197843 -75.86319912 379.6712075 -78.953125 383.46875 C-93.73421088 400.38597287 -116.73851835 406.81670991 -138.45849609 408.57373047 C-170.16319212 410.62208694 -205.49725061 405.71209584 -234.23046875 391.5 C-238.9696612 389.35405804 -242.89780313 389.3341416 -248.015625 389.78125 C-248.87953857 389.8428833 -249.74345215 389.9045166 -250.63354492 389.96801758 C-280.19603995 392.29026848 -308.9745738 399.6947785 -334.703125 414.71875 C-334.03071777 414.80850098 -333.35831055 414.89825195 -332.66552734 414.99072266 C-305.85396167 418.64539712 -281.33193412 425.61325161 -256.578125 436.46875 C-255.70591309 436.84555908 -254.83370117 437.22236816 -253.93505859 437.6105957 C-253.13406738 437.97113037 -252.33307617 438.33166504 -251.5078125 438.703125 C-250.44022705 439.17830566 -250.44022705 439.17830566 -249.35107422 439.66308594 C-247.703125 440.71875 -247.703125 440.71875 -246.703125 443.71875 C-247.92943822 446.55310671 -249.22460272 449.22111677 -250.6640625 451.9453125 C-251.08805328 452.76639496 -251.51204407 453.58747742 -251.94888306 454.43344116 C-253.31597128 457.07517126 -254.69687478 459.70940184 -256.078125 462.34375 C-256.97095265 464.06463724 -257.86288937 465.78598701 -258.75390625 467.5078125 C-264.3381448 478.27922574 -270.0104835 489.00431702 -275.703125 499.71875 C-279.71663493 498.42701727 -283.42983766 496.93682742 -287.20654297 495.05371094 C-320.32957599 478.60608676 -355.82647753 474.55906285 -392.25585938 478.48925781 C-394.24793111 478.67606422 -396.24977559 478.75622391 -398.25 478.8046875 C-402.73794733 479.07092166 -404.85426663 479.79096269 -407.9296875 483.15234375 C-410.46996247 486.89094632 -412.58901963 490.72961958 -414.703125 494.71875 C-415.67208325 496.46414936 -416.64219825 498.20890689 -417.61328125 499.953125 C-439.63669345 540.18106309 -447.18697796 582.42810326 -449.703125 627.71875 C-468.183125 627.38875 -486.663125 627.05875 -505.703125 626.71875 C-505.703125 588.96432711 -500.6376898 551.03677139 -486.703125 515.71875 C-508.11013033 530.33092775 -528.08188688 548.03847386 -543.4453125 569.01220703 C-544.73731795 570.76514144 -546.06057028 572.49064566 -547.390625 574.21484375 C-557.50887479 587.47727397 -565.97913218 601.9483076 -573.703125 616.71875 C-589.9756876 609.24107179 -605.83721246 601.01352587 -621.703125 592.71875 C-608.88648405 566.14255446 -592.462653 542.47432117 -573.06347656 520.27880859 C-571.84956842 518.88669212 -570.64666617 517.48499618 -569.4453125 516.08203125 C-565.77614699 511.84450481 -561.97255304 508.07314553 -557.69140625 504.45703125 C-555.65014128 502.67242828 -553.77649625 500.7910753 -551.890625 498.84375 C-547.64754695 494.55142926 -543.05366196 490.79939745 -538.34130859 487.03613281 C-536.55142754 485.59675901 -534.77690359 484.13980296 -533.00390625 482.6796875 C-505.88767156 460.38194677 -473.40013478 435.04308787 -438.26171875 427.7578125 C-434.70966536 427.13544519 -434.70966536 427.13544519 -433.54296875 424.97265625 C-433.26582031 424.22886719 -432.98867188 423.48507812 -432.703125 422.71875 C-430.92802636 420.64162815 -429.13810424 418.64112507 -427.265625 416.65625 C-426.73356445 416.08696777 -426.20150391 415.51768555 -425.65332031 414.93115234 C-418.59760073 407.42217901 -411.42689156 400.06236822 -403.57421875 393.37890625 C-401.63645352 391.65959472 -399.86748851 389.84133972 -398.078125 387.96875 C-392.46121877 382.27459752 -386.05945482 377.54624911 -379.703125 372.71875 C-378.80722656 372.0278125 -377.91132812 371.336875 -376.98828125 370.625 C-357.7103403 356.1294142 -335.51830873 344.52036352 -312.703125 336.71875 C-313.79367187 335.51605469 -313.79367187 335.51605469 -314.90625 334.2890625 C-343.36955679 302.33655101 -358.54990156 265.68024466 -356.703125 222.71875 C-354.04884588 189.47614801 -335.49427736 159.24091352 -310.9921875 137.5390625 C-308.98065404 135.93944716 -307.11017317 134.74934035 -304.828125 133.59375 C-300.99212942 131.29215265 -299.01324737 128.94113233 -297.703125 124.71875 C-297.14374355 119.86811371 -297.5818583 115.08645412 -298.01171875 110.23828125 C-300.42057405 82.01601365 -289.79583804 55.2500426 -271.703125 33.71875 C-237.43039594 -6.84897011 -191.2322515 -33.06396367 -138.10107422 -38.03808594 C-89.8061235 -41.49416949 -37.80281073 -31.90295009 0 0 Z M-235.703125 3.71875 C-236.64929688 4.43289062 -237.59546875 5.14703125 -238.5703125 5.8828125 C-263.59837187 25.38059247 -281.77735143 54.74615426 -288.33203125 85.6875 C-288.81176501 89.60616738 -288.89353264 93.46141476 -288.890625 97.40625 C-288.89199463 98.20426025 -288.89336426 99.00227051 -288.89477539 99.82446289 C-288.85863702 104.22843635 -288.56529393 108.33279797 -287.640625 112.65625 C-285.85739693 121.10720041 -286.82809679 128.76891523 -290.9921875 136.375 C-294.15425723 140.70660237 -298.40392026 143.59145712 -302.703125 146.71875 C-323.99140657 163.58651408 -337.64361339 192.51266925 -341.015625 219.21875 C-341.61782929 224.73873636 -342.10293823 230.17351431 -341.703125 235.71875 C-341.58324219 237.50925781 -341.58324219 237.50925781 -341.4609375 239.3359375 C-339.97888952 257.02339897 -334.42297859 273.32587868 -325.703125 288.71875 C-324.7440625 290.41257812 -324.7440625 290.41257812 -323.765625 292.140625 C-315.57833717 305.94016659 -304.25207652 322.68611565 -290.703125 331.71875 C-288.54566276 331.65871799 -288.54566276 331.65871799 -286.1796875 331.109375 C-285.25430176 330.93253174 -284.32891602 330.75568848 -283.37548828 330.57348633 C-282.3698584 330.37392334 -281.36422852 330.17436035 -280.328125 329.96875 C-269.22067475 327.91394911 -258.24110376 326.94647451 -246.97509766 326.31542969 C-245.7947998 326.2487207 -244.61450195 326.18201172 -243.3984375 326.11328125 C-241.8208667 326.03364136 -241.8208667 326.03364136 -240.21142578 325.95239258 C-237.70758737 325.87195253 -237.70758737 325.87195253 -235.703125 324.71875 C-235.703125 339.89875 -235.703125 355.07875 -235.703125 370.71875 C-195.97689154 386.60924339 -151.00079114 400.29845206 -108.92578125 384.1640625 C-99.33042897 379.86069239 -92.18502643 373.92744626 -85.390625 366.03125 C-78.13052126 359.78418399 -69.81143635 358.93694845 -60.5390625 359.33203125 C-54.37390774 359.95356926 -49.742313 362.06193514 -44.3671875 364.9921875 C-28.36521484 373.53693018 -11.67408798 372.97287161 5.35888672 368.1328125 C21.84043221 362.90902112 36.63197011 354.16738213 50.296875 343.71875 C51.17730469 343.05101562 52.05773438 342.38328125 52.96484375 341.6953125 C67.52123079 330.35567872 80.92793768 317.23144565 92.296875 302.71875 C93.11027344 301.71070313 93.92367188 300.70265625 94.76171875 299.6640625 C122.54696113 264.8976304 131.72620372 221.37961207 127.8359375 177.56640625 C125.74165846 158.81730688 120.66490585 140.62182072 112.296875 123.71875 C111.98492188 123.07325195 111.67296875 122.42775391 111.3515625 121.76269531 C106.97640999 112.77673675 101.9394262 105.2511524 95.296875 97.71875 C94.81992188 97.09871094 94.34296875 96.47867188 93.8515625 95.83984375 C84.64467473 83.95909935 73.46950213 79.08587521 59.296875 75.71875 C43.63300496 71.71843857 30.67370793 66.29163477 21.984375 52.11328125 C19.9691827 48.05957267 18.58991716 43.96655449 17.234375 39.65625 C9.59455674 15.390495 -9.74282789 -0.77292896 -31.703125 -12.28125 C-95.68800911 -44.38393479 -178.4659812 -41.26396614 -235.703125 3.71875 Z M-389.703125 387.71875 C-390.3523291 388.17330566 -391.0015332 388.62786133 -391.67041016 389.09619141 C-406.0269804 399.20718495 -417.86584177 410.91055637 -428.703125 424.71875 C-429.64321231 425.86023656 -430.58608693 426.99943141 -431.53125 428.13671875 C-454.0349781 455.38459419 -469.56191714 487.35039034 -480.703125 520.71875 C-480.99703125 521.58854492 -481.2909375 522.45833984 -481.59375 523.35449219 C-491.64021004 553.45833059 -495.00746819 585.14131151 -495.703125 616.71875 C-483.98923035 616.84205415 -472.38878521 616.5471006 -460.703125 615.71875 C-460.66348633 615.0067041 -460.62384766 614.2946582 -460.58300781 613.56103516 C-456.26748208 539.01688478 -430.56833596 471.85516327 -374.703125 420.71875 C-339.45271713 390.62926945 -298.44079524 375.87672002 -252.703125 371.71875 C-252.703125 362.14875 -252.703125 352.57875 -252.703125 342.71875 C-301.52270637 341.5280285 -350.17658568 359.64978462 -389.703125 387.71875 Z M-375.703125 443.71875 C-376.92629297 444.89014877 -378.15023211 446.0607429 -379.375 447.23046875 C-384.74681656 452.43799366 -389.46671427 457.52707277 -393.703125 463.71875 C-393.10588623 463.65816406 -392.50864746 463.59757812 -391.89331055 463.53515625 C-355.82951419 459.94912047 -322.92163459 462.79207056 -288.60644531 475.04199219 C-286.97890376 475.62069219 -285.34184605 476.17250965 -283.703125 476.71875 C-281.88774135 472.94929828 -280.07631438 469.17795862 -278.265625 465.40625 C-277.4912207 463.7984668 -277.4912207 463.7984668 -276.70117188 462.15820312 C-276.20810547 461.13017578 -275.71503906 460.10214844 -275.20703125 459.04296875 C-274.75142822 458.09510498 -274.2958252 457.14724121 -273.82641602 456.1706543 C-272.6257517 453.66602141 -272.6257517 453.66602141 -271.703125 450.71875 C-294.79982939 439.63233189 -320.51749214 433.37660353 -345.984375 431.07421875 C-349.703125 430.71875 -349.703125 430.71875 -352.671875 430.14453125 C-362.69647269 428.7735201 -369.14481973 437.25708986 -375.703125 443.71875 Z M-457.6484375 446.40625 C-458.63392578 446.77065186 -459.61941406 447.13505371 -460.63476562 447.51049805 C-496.21437127 460.97253691 -526.50559285 479.41997832 -553.515625 506.28125 C-554.24729385 507.00501831 -554.24729385 507.00501831 -554.9937439 507.7434082 C-561.69215351 514.38586266 -567.85801158 521.31083625 -573.703125 528.71875 C-574.56099818 529.77880751 -575.4190285 530.8387379 -576.27734375 531.8984375 C-588.26157048 547.18331078 -598.69729479 563.51830176 -607.703125 580.71875 C-608.57904297 582.36037109 -608.57904297 582.36037109 -609.47265625 584.03515625 C-610.91152069 586.68121087 -610.91152069 586.68121087 -610.703125 589.71875 C-606.32728805 591.85997162 -601.94900755 593.99608015 -597.56835938 596.12744141 C-596.0777631 596.85357102 -594.58785023 597.58110526 -593.09863281 598.31005859 C-590.96075736 599.35622268 -588.82049333 600.39734832 -586.6796875 601.4375 C-586.01192291 601.76560669 -585.34415833 602.09371338 -584.65615845 602.4317627 C-581.33285112 604.14921236 -581.33285112 604.14921236 -577.703125 604.71875 C-577.43274414 604.20715332 -577.16236328 603.69555664 -576.88378906 603.16845703 C-567.57817676 585.66095761 -557.23437924 569.10951711 -544.703125 553.71875 C-544.26597168 553.17863281 -543.82881836 552.63851562 -543.37841797 552.08203125 C-528.11946866 533.37223702 -510.71454318 517.86086347 -491.1328125 503.83203125 C-490.04528687 503.04832153 -490.04528687 503.04832153 -488.93579102 502.2487793 C-486.703125 500.71875 -486.703125 500.71875 -484.32788086 499.33911133 C-477.90791783 495.53984016 -475.44833087 491.53737532 -472.515625 484.78125 C-467.19489399 473.34187224 -460.85863054 462.7230998 -454.15429688 452.04858398 C-452.64256731 449.62152557 -451.1680236 447.17430533 -449.703125 444.71875 C-452.86469753 444.71875 -454.7023949 445.31635963 -457.6484375 446.40625 Z " fill="#000000" transform="translate(1128.703125,104.28125)"/>
<path d="M0 0 C1.60274021 3.20548041 1.48781939 6.74001884 1.75390625 10.26953125 C1.81907944 11.10151535 1.88425262 11.93349945 1.95140076 12.79069519 C2.08876038 14.56009005 2.22395642 16.32965398 2.35717773 18.09936523 C2.55883594 20.76408296 2.77011353 23.42790929 2.98242188 26.09179688 C3.70668909 35.41808968 4.22165556 44.64013896 4 54 C4.51385254 53.71278076 5.02770508 53.42556152 5.55712891 53.12963867 C7.91232168 51.81421872 10.26864987 50.50084554 12.625 49.1875 C13.43324219 48.73568359 14.24148437 48.28386719 15.07421875 47.81835938 C27.3174042 41 27.3174042 41 30 41 C50.20992607 82.34347992 50.20992607 82.34347992 57.12280273 96.87255859 C59.50125033 101.870591 61.89699881 106.859592 64.3125 111.83984375 C70.05649538 123.68329611 75.74488105 135.54284013 81.25 147.5 C86.7233449 159.38325503 92.42500174 171.14625765 98.17315674 182.89855957 C103.63768983 194.07638966 108.9696682 205.30081008 114.16796875 216.60546875 C118.32983423 225.62805934 122.6449917 234.56967212 127 243.5 C132.48288491 254.74353211 137.83315226 266.03446436 143.06420898 277.39794922 C146.9537379 285.81798706 150.96680685 294.17138369 155.03103638 302.50817871 C157.70937114 308.0047914 160.37544943 313.50736506 163.03808594 319.01159668 C163.67631594 320.33090233 164.31498365 321.64999633 164.95410156 322.96887207 C167.0120582 327.2191509 169.04333607 331.48115321 171.0625 335.75 C171.58142822 336.82072754 172.10035645 337.89145508 172.63500977 338.99462891 C173.09705811 339.98124512 173.55910645 340.96786133 174.03515625 341.984375 C174.4412915 342.83741211 174.84742676 343.69044922 175.26586914 344.56933594 C176.14426507 347.47765314 175.89839958 349.12161481 175 352 C166.81871906 362.99906179 154.07228631 369.04422059 141 372 C132.74521038 372.96305879 125.53473263 369.90104948 119 365 C118.2059375 364.40574219 117.411875 363.81148438 116.59375 363.19921875 C109.843599 357.47582265 105.12551948 349.53739941 100.8515625 341.86328125 C100.27817642 340.83787987 100.27817642 340.83787987 99.69320679 339.79176331 C94.72696223 330.81582573 90.18431299 321.62452342 85.625 312.4375 C84.69262891 310.5665683 83.76009177 308.69571933 82.82739258 306.82495117 C78.03225086 297.19228584 73.29273803 287.53758937 68.6875 277.8125 C65.75218491 271.62131441 62.78955729 265.45295924 59.625 259.375 C59.03976562 258.24835938 58.45453125 257.12171875 57.8515625 255.9609375 C55.45998717 252.13643519 53.16711048 248.6597156 48.703125 247.30078125 C39.1236161 247.34654324 29.53441114 250.73279443 21 255 C20.83878537 264.61159051 21.33286555 274.10560547 22.09375 283.6796875 C22.20635753 285.14645577 22.31844838 286.61326378 22.43005371 288.08010864 C22.72182385 291.9014929 23.01896971 295.72243677 23.31781006 299.54327393 C23.79707394 305.67704883 24.26993983 311.8113096 24.73908997 317.94586563 C24.90280968 320.0724996 25.07005721 322.19883469 25.2376709 324.32516479 C25.33777466 325.62406647 25.43787842 326.92296814 25.54101562 328.26123047 C25.62984009 329.39672333 25.71866455 330.53221619 25.81018066 331.70211792 C26.0081722 335.14198213 26.03209626 338.55521772 26 342 C13.78283665 349.02998785 -0.55074978 353.29650658 -14.6875 350.4609375 C-22.9874187 348.21304285 -29.19004193 344.16931419 -34 337 C-41.55618563 322.85131618 -43.50825908 306.50875142 -44.83908081 290.76556396 C-45.06898058 288.04840683 -45.31529284 285.33310781 -45.56469727 282.61767578 C-46.29617758 274.56757084 -46.97496204 266.51473018 -47.56562805 258.45303345 C-47.7949993 255.32715397 -48.03567529 252.20217156 -48.27560425 249.0770874 C-48.43136044 246.95850956 -48.56528854 244.83939281 -48.69750977 242.71923828 C-49.34315082 234.11948943 -51.12940836 226.65311347 -53.85717773 218.54345703 C-55.17230147 214.4657587 -55.8628979 210.75078349 -56.3125 206.5 C-56.45300781 205.2521875 -56.59351563 204.004375 -56.73828125 202.71875 C-56.82464844 201.8215625 -56.91101563 200.924375 -57 200 C-62.96062817 197.43246886 -67.69128406 196.57917737 -74.14453125 196.62890625 C-75.89127797 196.61152059 -77.63802272 196.59393624 -79.38476562 196.57617188 C-82.09647352 196.56613486 -84.80804974 196.56249719 -87.51977539 196.56420898 C-103.15011327 196.54289295 -114.93267831 194.93372481 -127 184 C-139.22922692 170.08822844 -141.99622983 155.41895186 -141.17333984 137.42285156 C-140.1188902 122.68431876 -132.37788384 109.04281731 -126 96 C-125.60619141 95.19175781 -125.21238281 94.38351563 -124.80664062 93.55078125 C-119.14018894 82.057412 -112.2889814 71.52093126 -105 61 C-103.96081915 59.47924753 -102.92175622 57.95841448 -101.8828125 56.4375 C-96.39505691 48.46691942 -90.76909829 40.94880886 -84 34 C-83.19949219 33.14921875 -82.39898437 32.2984375 -81.57421875 31.421875 C-60.66316863 9.69779804 -29.90963122 -0.49412312 0 0 Z M-76 32 C-76.56074219 32.43957031 -77.12148437 32.87914063 -77.69921875 33.33203125 C-82.05326962 36.74898981 -85.48378803 40.76164853 -89 45 C-89.82628906 45.95390625 -90.65257812 46.9078125 -91.50390625 47.890625 C-105.54384486 64.50818877 -113.51166277 84.80290327 -121 105 C-121.35642578 105.95535645 -121.71285156 106.91071289 -122.08007812 107.89501953 C-128.45504691 125.21449118 -133.64645612 142.71832784 -125.7578125 160.53320312 C-121.22224127 169.99568912 -114.8844651 176.33031834 -105 180 C-100.74463455 181.18123076 -96.78578373 180.91441941 -92.4375 180.5625 C-85.76626263 180.09875957 -79.12492215 179.88436351 -72.4375 179.875 C-71.61757568 179.87056885 -70.79765137 179.8661377 -69.95288086 179.86157227 C-69.16276611 179.86342529 -68.37265137 179.86527832 -67.55859375 179.8671875 C-66.52690063 179.86887939 -66.52690063 179.86887939 -65.47436523 179.87060547 C-61.96746454 180.05399544 -58.4845748 180.56442815 -55 181 C-54.01 172.75 -53.02 164.5 -52 156 C-55.96 156.99 -59.92 157.98 -64 159 C-67.75 159.6875 -67.75 159.6875 -71 160 C-71.64453125 160.11085937 -72.2890625 160.22171875 -72.953125 160.3359375 C-76.29384332 160.70571167 -78.19697054 160.61369731 -80.921875 158.53125 C-88.32548456 150.55813201 -91.41781492 141.35306308 -91.1953125 130.609375 C-90.53228116 121.75127635 -86.91131904 117.40264565 -80.48828125 111.42578125 C-78.26457688 109.2579313 -76.60117789 107.18811262 -74.875 104.625 C-71.89972264 100.54225829 -68.90985494 98.31587402 -64 97 C-52.94554303 95.552213 -45.93969945 98.93832345 -37 105 C-36.70867187 104.41621582 -36.41734375 103.83243164 -36.1171875 103.23095703 C-25.63859216 82.36850208 -25.63859216 82.36850208 -18 74 C-17.50242187 73.37480469 -17.00484375 72.74960938 -16.4921875 72.10546875 C-13.73320333 68.64543123 -11.05697707 66.36372536 -7.33837891 63.94921875 C-3.99698709 61.37642924 -3.99698709 61.37642924 -2.27825928 57.6496582 C-2.13492217 54.87975289 -2.2698109 52.26199221 -2.5234375 49.5 C-2.60556992 48.00823242 -2.60556992 48.00823242 -2.68936157 46.48632812 C-2.87432329 43.31970889 -3.12387257 40.16198838 -3.375 37 C-3.50812015 34.87525982 -3.63706946 32.75025396 -3.76171875 30.625 C-4.24964922 22.71004578 -4.76854541 14.83824211 -6 7 C-32.01321798 6.57174965 -56.35681924 15.19943167 -76 32 Z M-13.59375 73.50390625 C-36.62304159 97.39305775 -43.00365867 131.37152224 -43.23828125 163.5703125 C-43.246353 164.65021454 -43.25442474 165.73011658 -43.26274109 166.84274292 C-43.27649252 169.11682574 -43.2872541 171.39092843 -43.29516602 173.66503906 C-43.3066685 175.96100028 -43.32709261 178.25693512 -43.35668945 180.55273438 C-43.61264793 200.46887803 -43.08847226 219.60273423 -28.625 234.9375 C-22.04822254 241.11702245 -14.75809952 244.3356039 -5.75 245.375 C1.76476336 244.62352366 8.32347086 241.36016069 15.02783203 238.05859375 C28.53240756 231.43912286 43.48664847 225.761438 58.453125 230.78125 C72.44753802 237.47796298 78.25547462 253.03777578 84.19519043 266.40753174 C85.48187759 269.30312686 86.78387942 272.19175897 88.08483887 275.08096313 C88.75198208 276.56287767 89.41840532 278.04511654 90.08410645 279.52767944 C94.78118329 289.98335627 99.62215353 300.37166567 104.484375 310.75146484 C105.98139921 313.96013175 107.46035329 317.17667435 108.9375 320.39453125 C117.72802822 341.31016815 117.72802822 341.31016815 134 356 C141.21528661 358.13370343 147.79031215 354.21119718 154.05859375 350.921875 C157.60234357 348.68601565 157.60234357 348.68601565 159 345 C158.11584781 342.20597918 157.14876062 339.76018827 155.92578125 337.1171875 C155.40003258 335.93253654 155.40003258 335.93253654 154.86366272 334.72395325 C153.69485536 332.10067385 152.50382847 329.48811963 151.3125 326.875 C150.48580581 325.03160448 149.66046895 323.1875997 148.83642578 321.34301758 C146.67345381 316.51238537 144.49127273 311.69069906 142.30291748 306.871521 C140.63831594 303.20287862 138.9815017 299.53074935 137.32496643 295.85845947 C134.54769065 289.70178984 131.76629642 283.5470115 128.97436523 277.39697266 C123.89250913 266.20264474 118.8576202 254.98884508 113.875 243.75 C113.39012115 242.65635635 113.39012115 242.65635635 112.89544678 241.5406189 C112.5727179 240.8126712 112.24998901 240.08472351 111.91748047 239.3347168 C111.26532058 237.86376017 110.61313958 236.39281291 109.9609375 234.921875 C109.63809784 234.19370071 109.31525818 233.46552643 108.9826355 232.71528625 C105.53141012 224.93560042 102.05391858 217.16771127 98.57504272 209.40036011 C86.57587401 182.6085636 74.64636981 155.78766393 62.86080933 128.90115356 C55.57981984 112.29266108 48.2276761 95.71648769 40.84863281 79.15136719 C37.89477259 72.51949717 34.94780716 65.88456207 32 59.25 C31.02086198 57.04686227 30.0416986 54.84373581 29.0625 52.640625 C28.375 51.09375 27.6875 49.546875 27 48 C14.78180106 48 -5.3478488 65.78006698 -13.59375 73.50390625 Z M-76.25 111.75 C-76.79140625 112.15476562 -77.3328125 112.55953125 -77.890625 112.9765625 C-80.78823006 115.30913457 -81.95689659 116.85015627 -82.9921875 120.44921875 C-83.00516542 126.34768304 -80.61040716 130.81494468 -78 136 C-77.68417969 136.71800781 -77.36835938 137.43601563 -77.04296875 138.17578125 C-76.02064073 140.22670476 -76.02064073 140.22670476 -73 142 C-65.79507791 142.10492605 -58.35952738 141.09808702 -53 136 C-48.28952352 130.63668562 -44.74377098 125.86760909 -43.375 118.75 C-44.31400157 113.1159906 -47.72787639 109.66075513 -52 106 C-55.04333929 104.49956296 -57.6098648 103.70800485 -61 103.6875 C-61.639375 103.67074219 -62.27875 103.65398437 -62.9375 103.63671875 C-68.07664198 104.54190853 -72.26529993 108.56614651 -76.25 111.75 Z M-29 255 C-28.63983817 261.07990234 -28.26688392 267.15885038 -27.88305664 273.23730469 C-27.75470691 275.29666896 -27.62959937 277.3562384 -27.50805664 279.41601562 C-27.1423029 308.25852019 -27.1423029 308.25852019 -15 333 C-7.3498335 336.65121583 1.09746293 335.11042413 9 333 C10.2685929 331.96162689 10.2685929 331.96162689 10.0534668 329.67553711 C10.01906494 328.6366333 9.98466309 327.59772949 9.94921875 326.52734375 C9.91111084 325.33568604 9.87300293 324.14402832 9.83374023 322.91625977 C9.78548096 321.60326904 9.73722168 320.29027832 9.6875 318.9375 C9.64063318 317.57544197 9.5938411 316.21338137 9.54711914 314.85131836 C8.90961019 296.8919236 7.94651685 278.94524313 7 261 C4.39215372 259.69607686 3.00159605 260.16644692 0.125 260.5625 C-8.96428288 261.4666695 -17.10765758 259.89469199 -25.2578125 255.8046875 C-26.98277232 254.86022789 -26.98277232 254.86022789 -29 255 Z " fill="#000000" transform="translate(211,83)"/>
<path d="M0 0 C17.20528264 15.28944541 26.91543243 34.58380842 28.60986328 57.53564453 C29.37502698 80.2763098 19.98501264 99.78462724 4.76611328 116.18408203 C-18.61672563 140.2603165 -50.90685336 151.13978677 -83.97998047 151.87548828 C-111.88850431 151.89236776 -138.88473745 143.30018875 -160.60498047 125.62548828 C-164.45357654 127.18981371 -166.7131118 129.63018672 -169.54248047 132.62548828 C-191.37896647 154.99709183 -223.53252213 170.46242514 -254.9921875 170.86694336 C-265.60581305 170.8960788 -275.3373337 170.56420062 -285.60498047 167.62548828 C-287.35101563 167.13242187 -287.35101563 167.13242187 -289.13232422 166.62939453 C-309.10645551 160.25091504 -324.39432496 146.61262367 -334.39404297 128.35986328 C-343.74902258 109.28123492 -344.88614271 85.84401676 -338.29394531 65.59619141 C-330.59002903 43.56004249 -316.62442928 25.02049718 -298.22998047 10.69189453 C-295.52765425 8.5646169 -292.91614062 6.34873518 -290.29248047 4.12548828 C-284.41286548 -0.6806015 -278.20357432 -4.63019335 -271.60498047 -8.37451172 C-270.53763672 -8.98294922 -269.47029297 -9.59138672 -268.37060547 -10.21826172 C-244.21172187 -23.14836843 -215.2016945 -27.36628723 -188.60498047 -20.37451172 C-176.53930631 -16.57281327 -165.73017692 -11.21209453 -156.60498047 -2.37451172 C-156.11771484 -2.71482422 -155.63044922 -3.05513672 -155.12841797 -3.40576172 C-108.95373273 -34.97245563 -43.97711039 -37.66217394 0 0 Z M-118.60498047 -16.37451172 C-119.28447754 -16.19259277 -119.96397461 -16.01067383 -120.6640625 -15.82324219 C-141.95643901 -9.93587641 -160.26483621 1.7250046 -171.57373047 20.97705078 C-180.2518994 37.26700348 -183.8127419 55.01293134 -178.50341797 72.93798828 C-178.05869141 74.26830078 -178.05869141 74.26830078 -177.60498047 75.62548828 C-177.22212891 76.86298828 -177.22212891 76.86298828 -176.83154297 78.12548828 C-169.94774695 97.82956497 -152.86720414 111.761785 -135.04248047 121.31298828 C-126.26617589 125.53425335 -117.00561891 128.167251 -107.60498047 130.62548828 C-106.62013672 130.88330078 -105.63529297 131.14111328 -104.62060547 131.40673828 C-76.53013194 137.49002554 -44.12022791 132.66532257 -19.74169922 117.27001953 C-2.55536015 105.7716777 10.130224 90.1873061 15.00463867 69.77856445 C18.04408081 53.01506211 13.99226732 37.06488129 5.39501953 22.62548828 C2.61183155 18.74082662 -0.39031776 15.1581482 -3.60498047 11.62548828 C-4.15669922 10.99255859 -4.70841797 10.35962891 -5.27685547 9.70751953 C-23.10851246 -9.5806837 -52.38979693 -19.64585518 -77.98388672 -20.69482422 C-91.97936224 -21.03773331 -105.09105754 -20.07117259 -118.60498047 -16.37451172 Z M-298.60498047 15.62548828 C-317.94829972 37.49943727 -329.60149966 64.75885307 -327.83251953 94.18066406 C-326.3877668 109.70400507 -319.57537394 122.78726823 -308.60498047 133.62548828 C-307.99009766 134.26228516 -307.37521484 134.89908203 -306.74169922 135.55517578 C-292.55139317 149.22891823 -271.16238957 153.13068792 -252.20263672 152.83642578 C-223.5784099 151.8587482 -196.73718493 138.61414761 -176.60498047 118.62548828 C-175.24659714 116.97917413 -173.90590204 115.31757534 -172.60498047 113.62548828 C-173.24113281 112.78630859 -173.24113281 112.78630859 -173.89013672 111.93017578 C-179.04967376 104.87691855 -182.87655198 97.49031919 -186.60498047 89.62548828 C-190.0967171 90.78940049 -190.57928623 91.6436209 -192.66748047 94.56298828 C-203.22711274 108.44450487 -216.18292171 117.84945382 -232.60498047 123.62548828 C-233.42611328 123.94388672 -234.24724609 124.26228516 -235.09326172 124.59033203 C-249.39450876 129.41672489 -265.95416596 127.71019916 -279.37060547 121.30517578 C-288.04980338 116.54980686 -293.92770182 109.79254312 -297.60498047 100.62548828 C-297.96205078 99.74376953 -298.31912109 98.86205078 -298.68701172 97.95361328 C-302.54371481 83.97101312 -299.14870501 69.9393149 -292.47998047 57.50048828 C-288.68849385 51.28959479 -283.97237146 46.49101545 -278.60498047 41.62548828 C-277.94626953 41.01189453 -277.28755859 40.39830078 -276.60888672 39.76611328 C-259.63001624 24.37570262 -240.94365901 14.26658346 -217.65966797 15.23876953 C-205.51543917 16.14973038 -195.96154391 21.03016588 -187.60498047 29.62548828 C-186.61498047 29.95548828 -185.62498047 30.28548828 -184.60498047 30.62548828 C-184.20408203 29.94744141 -183.80318359 29.26939453 -183.39013672 28.57080078 C-177.87387525 19.53964254 -171.18897278 11.96483568 -163.60498047 4.62548828 C-177.36507369 -9.39563652 -195.94583331 -16.30439759 -215.4675293 -16.6159668 C-245.96810083 -16.71970016 -276.28734372 -5.62323408 -298.60498047 15.62548828 Z M-269.60498047 37.62548828 C-270.90628906 38.57294922 -270.90628906 38.57294922 -272.23388672 39.53955078 C-281.71442124 47.87992217 -286.30479359 63.3085612 -287.54248047 75.50048828 C-287.92052513 85.164255 -285.94625741 92.17589082 -279.60498047 99.62548828 C-271.40593119 107.40103295 -261.61886323 109.99054075 -250.50341797 109.84033203 C-231.26460071 108.41427415 -216.08114083 99.86503823 -202.83544922 86.21923828 C-199.49556446 82.3353793 -196.95989383 78.16028765 -194.60498047 73.62548828 C-194.26781006 73.03316406 -193.93063965 72.44083984 -193.58325195 71.83056641 C-191.59799656 67.35569076 -191.60605249 62.32757398 -191.16748047 57.50048828 C-191.03921875 56.40994141 -190.91095703 55.31939453 -190.77880859 54.19580078 C-190.07710473 46.42594076 -191.12497846 41.08504347 -195.60498047 34.62548828 C-201.88927904 27.46169061 -210.12963959 23.81181214 -219.35498047 21.81298828 C-220.42748047 21.75111328 -221.49998047 21.68923828 -222.60498047 21.62548828 C-224.33748047 21.50173828 -224.33748047 21.50173828 -226.10498047 21.37548828 C-242.42905742 21.66021055 -256.64085022 28.16110872 -269.60498047 37.62548828 Z " fill="#000000" transform="translate(692.60498046875,164.37451171875)"/>
<path d="M0 0 C1.77491821 0.00845947 1.77491821 0.00845947 3.58569336 0.01708984 C35.71630353 0.45990783 63.56277308 13.38687813 86.8125 35.3125 C87.48925781 35.92480469 88.16601562 36.53710938 88.86328125 37.16796875 C104.413217 51.78303862 114.19671126 72.00674389 119.8125 92.3125 C120.1528125 93.51261719 120.493125 94.71273437 120.84375 95.94921875 C128.26210319 127.71762941 121.77930207 163.25016786 104.68359375 190.85546875 C99.43584586 198.71300896 93.34962087 205.53679808 86.8125 212.3125 C86.08417969 213.10398437 85.35585937 213.89546875 84.60546875 214.7109375 C63.35498803 237.18361655 30.98351342 249.3232063 0.45703125 250.30859375 C-18.99776956 250.53984814 -37.85219178 246.98135361 -55.62109375 239.03515625 C-58.10876758 238.0880084 -58.10876758 238.0880084 -60.26171875 238.9296875 C-62.56017875 240.580103 -64.52823539 242.40669277 -66.5625 244.375 C-90.54847684 266.25694378 -124.08340886 276.69211832 -156.1875 275.3125 C-189.8378025 273.51206935 -220.03409067 258.98133143 -243 234.375 C-264.54932221 209.27403024 -276.41637656 176.5012936 -274.046875 143.34472656 C-271.86633737 116.86853958 -262.34528037 93.59313997 -245.1875 73.3125 C-244.67445313 72.67699219 -244.16140625 72.04148437 -243.6328125 71.38671875 C-240.53259607 67.6078063 -237.16474746 64.40669587 -233.43359375 61.25390625 C-231.82693245 59.86519204 -230.26041353 58.42949054 -228.72265625 56.96484375 C-206.51102386 35.86216217 -176.96366163 24.86534123 -146.5 25 C-145.83697876 25.00215515 -145.17395752 25.0043103 -144.49084473 25.00653076 C-127.27548094 25.09629681 -109.22497889 27.64735656 -93.9140625 36.125 C-91.3289758 37.63058655 -91.3289758 37.63058655 -89.22729492 36.55688477 C-87.2574719 35.35518663 -85.57125655 34.093948 -83.82421875 32.58984375 C-83.19257812 32.05568848 -82.5609375 31.5215332 -81.91015625 30.97119141 C-80.90275391 30.11920166 -80.90275391 30.11920166 -79.875 29.25 C-57.01330121 10.36719632 -29.84881545 -0.15019891 0 0 Z M-81.1875 35.3125 C-84.33463481 38.87228361 -87.29190406 42.54612702 -90.1875 46.3125 C-91.10015625 47.48425781 -91.10015625 47.48425781 -92.03125 48.6796875 C-109.88742983 72.78553027 -116.76603932 103.23002919 -113.5 132.75 C-108.78420831 163.48395276 -93.62103357 189.89278401 -69.1875 209.3125 C-43.64876385 227.79949557 -14.044842 235.64132133 17.41015625 231.8515625 C36.98261209 228.52091436 55.76233587 220.37114903 70.8125 207.3125 C71.60785156 206.64863281 72.40320312 205.98476563 73.22265625 205.30078125 C96.35964476 185.38223009 109.21982499 157.49662087 111.8125 127.3125 C113.44048385 96.68368751 102.68745179 66.9020819 82.359375 44.10546875 C81.51890625 43.18378906 80.6784375 42.26210938 79.8125 41.3125 C79.21953125 40.64863281 78.6265625 39.98476563 78.015625 39.30078125 C58.53064201 18.61004436 29.41211505 6.54536945 1.19799805 5.28320312 C-28.03807045 4.70474835 -60.38356459 13.6781554 -81.1875 35.3125 Z M-224.1875 57.3125 C-224.97382812 57.910625 -225.76015625 58.50875 -226.5703125 59.125 C-232.1986263 63.71593832 -236.20024295 69.2828062 -240.1875 75.3125 C-240.56052246 75.87501465 -240.93354492 76.4375293 -241.31787109 77.01708984 C-258.01556944 102.52298186 -264.92468384 134.95670043 -259.00952148 165.06396484 C-258.20256971 168.52608568 -257.25021627 171.92088949 -256.1875 175.3125 C-255.82527344 176.52421875 -255.46304688 177.7359375 -255.08984375 178.984375 C-245.43477337 208.44052193 -224.05483308 231.52539549 -196.96484375 246.0390625 C-180.82783076 253.83761896 -164.34258541 257.71025651 -146.4375 257.625 C-144.57871216 257.61654053 -144.57871216 257.61654053 -142.68237305 257.60791016 C-133.80221135 257.49010674 -125.73263631 256.88774656 -117.1875 254.3125 C-116.52814453 254.11914062 -115.86878906 253.92578125 -115.18945312 253.7265625 C-99.06332149 248.89319835 -85.27527828 240.7975951 -72.1875 230.3125 C-75.04752635 227.37302848 -77.85904462 224.7048273 -81.1875 222.3125 C-105.41228767 203.65941349 -121.71626421 174.85438696 -125.91748047 144.60839844 C-129.729667 112.19447242 -123.23489805 79.1996094 -102.8125 53.0625 C-101.97436287 52.01321466 -101.13341912 50.96616206 -100.2890625 49.921875 C-98.12031674 47.30911061 -98.12031674 47.30911061 -96.1875 44.3125 C-104.64910938 40.26259869 -113.03462281 36.81829156 -122.125 34.4375 C-123.27609253 34.13356323 -123.27609253 34.13356323 -124.45043945 33.82348633 C-159.7468233 25.00605006 -195.90203142 35.64086616 -224.1875 57.3125 Z " fill="#000000" transform="translate(1111.1875,588.6875)"/>
<path d="M0 0 C0.64066406 0.57878906 1.28132813 1.15757812 1.94140625 1.75390625 C2.61300781 2.32238281 3.28460937 2.89085937 3.9765625 3.4765625 C14.51111231 13.03681868 21.10669458 27.20341965 22.12792969 41.33496094 C22.51865241 50.44428987 22.49009103 58.95584639 19.94140625 67.75390625 C20.75222656 67.41617188 21.56304688 67.0784375 22.3984375 66.73046875 C39.09674629 60.00449105 54.94860793 58.28970148 71.97265625 65.34765625 C90.03575823 73.46236961 101.68953574 87.33989171 109.13476562 105.57373047 C117.91408163 129.30232972 119.55090432 159.22572363 112.94140625 183.75390625 C112.74804688 184.51848145 112.5546875 185.28305664 112.35546875 186.07080078 C106.36334195 209.44286942 95.63838022 228.48060999 79.94140625 246.75390625 C79.14863281 247.68203125 78.35585937 248.61015625 77.5390625 249.56640625 C71.84907041 256.03843516 65.78297304 261.52609886 58.94140625 266.75390625 C57.66523437 267.75357422 57.66523437 267.75357422 56.36328125 268.7734375 C35.15127461 284.87296949 10.32209643 294.8472721 -16.6015625 291.28515625 C-27.54363276 289.08889842 -36.98763656 284.45800175 -45.05859375 276.75390625 C-45.31511719 277.35976563 -45.57164062 277.965625 -45.8359375 278.58984375 C-51.91784967 291.90042595 -61.84490717 300.45517322 -75.24609375 306.06640625 C-102.56315504 316.14872855 -133.93028237 309.65329533 -159.73388672 298.01318359 C-171.23024768 292.61801999 -181.82948094 286.26751687 -192.05859375 278.75390625 C-193.04601562 278.02945312 -194.0334375 277.305 -195.05078125 276.55859375 C-223.31647901 254.49960707 -246.48029668 222.03475093 -251.05859375 185.75390625 C-252.26415918 164.48773204 -250.46005893 146.41869126 -235.89306641 129.79980469 C-223.17150046 115.83342718 -208.38937684 104.07360022 -189.05859375 101.75390625 C-189.5175 101.07585937 -189.97640625 100.3978125 -190.44921875 99.69921875 C-199.76508493 85.56885031 -203.39933333 71.93819246 -200.41015625 55.1015625 C-193.64842114 31.26211179 -172.09831795 11.56744977 -151.05859375 -0.24609375 C-107.65248352 -23.5308743 -41.09144346 -34.85365318 0 0 Z M-174.05859375 20.75390625 C-174.70699219 21.31722656 -175.35539063 21.88054687 -176.0234375 22.4609375 C-186.11218289 31.86337368 -194.40743117 46.10990253 -195.26171875 60.07421875 C-195.44275873 74.76863031 -191.96063221 85.72152129 -181.62109375 96.62890625 C-174.04750701 104.18271861 -163.83264865 107.39475935 -154.05859375 111.06640625 C-152.60126688 111.62096857 -151.14423282 112.17630097 -149.6875 112.73242188 C-146.14784503 114.08182023 -142.60438893 115.42073056 -139.05859375 116.75390625 C-140.04859375 119.72390625 -141.03859375 122.69390625 -142.05859375 125.75390625 C-143.00702148 125.45621338 -143.95544922 125.15852051 -144.93261719 124.85180664 C-148.45829487 123.74550041 -151.98444666 122.64071209 -155.51074219 121.53637695 C-157.03561121 121.05859978 -158.56035211 120.58041347 -160.08496094 120.10180664 C-162.27895932 119.41314287 -164.47341733 118.72596155 -166.66796875 118.0390625 C-167.34728455 117.82548599 -168.02660034 117.61190948 -168.72650146 117.39186096 C-180.62551388 113.67306871 -190.04210589 114.05834562 -201.37109375 119.75390625 C-216.04521318 128.42851845 -229.3090469 141.95509968 -234.1640625 158.52734375 C-238.22428757 175.6707386 -233.58559063 194.2595031 -226.05859375 209.75390625 C-225.775 210.33881836 -225.49140625 210.92373047 -225.19921875 211.52636719 C-218.23228702 225.70377805 -208.90497111 237.36838147 -198.05859375 248.75390625 C-197.341875 249.53507812 -196.62515625 250.31625 -195.88671875 251.12109375 C-178.5100672 269.47763167 -154.08045111 281.72500265 -130.05859375 288.75390625 C-129.01058594 289.07488281 -127.96257812 289.39585937 -126.8828125 289.7265625 C-111.05149695 293.88252446 -90.29615561 294.77647995 -75.7578125 286.43359375 C-67.89072907 281.01108426 -61.72941012 273.8163641 -59.5078125 264.42578125 C-57.11652233 250.20280318 -60.47561494 235.46720465 -62.69140625 221.42675781 C-63.05859375 218.75390625 -63.05859375 218.75390625 -63.05859375 215.75390625 C-62.14335938 215.62113281 -61.228125 215.48835937 -60.28515625 215.3515625 C-59.09664062 215.17496094 -57.908125 214.99835938 -56.68359375 214.81640625 C-55.50023437 214.64238281 -54.316875 214.46835937 -53.09765625 214.2890625 C-50.15156994 213.91927839 -50.15156994 213.91927839 -48.05859375 212.75390625 C-47.9385498 213.60919922 -47.81850586 214.46449219 -47.69482422 215.34570312 C-44.2344337 245.17271314 -44.2344337 245.17271314 -28.74609375 270.00390625 C-17.29676185 277.45928516 -4.14323526 278.56433333 9.18359375 276.38769531 C30.92368396 271.45515598 49.21105053 257.93231967 64.94140625 242.75390625 C65.658125 242.08875 66.37484375 241.42359375 67.11328125 240.73828125 C91.22306606 217.78576611 103.5661599 184.45403515 105.19140625 151.6484375 C105.55554799 130.0502807 101.10277852 106.10667597 86.56640625 89.31640625 C76.1427836 78.57584913 64.00370546 71.00066809 48.6953125 70.6875 C28.91777446 71.41510173 14.27608037 81.6467778 -0.0703125 94.16015625 C-2.72890134 96.46774186 -5.41940647 98.69970852 -8.18359375 100.87890625 C-8.86679688 101.41773438 -9.55 101.9565625 -10.25390625 102.51171875 C-12.05859375 103.75390625 -12.05859375 103.75390625 -15.05859375 104.75390625 C-16.82322058 101.6658093 -17.05859375 100.52078489 -17.05859375 96.75390625 C-14.91975396 94.62396593 -12.83598911 92.76125368 -10.49609375 90.87890625 C-9.88701172 90.37488281 -9.27792969 89.87085938 -8.65039062 89.3515625 C-6.16524042 87.29506783 -3.67145161 85.24967209 -1.16357422 83.22094727 C8.09254654 75.56661064 12.89953291 65.44990004 14.94140625 53.75390625 C16.13867835 39.59386124 12.56323266 25.26940615 3.796875 13.99609375 C1.59386285 11.48158244 -0.6762529 9.09836535 -3.05859375 6.75390625 C-3.62320312 6.19058594 -4.1878125 5.62726563 -4.76953125 5.046875 C-24.1056276 -12.82722382 -53.60155162 -17.00006441 -78.84277344 -16.33496094 C-113.62797138 -14.93987367 -147.7956023 -2.13887346 -174.05859375 20.75390625 Z " fill="#000000" transform="translate(1088.05859375,145.24609375)"/>
<path d="M0 0 C-1.24936279 26.05467421 -4.43414316 51.22498267 -13 76 C-13.29245605 76.85255371 -13.58491211 77.70510742 -13.88623047 78.58349609 C-24.42259899 108.82047531 -41.34012421 135.53513456 -63 159 C-63.825 159.928125 -64.65 160.85625 -65.5 161.8125 C-70.39058293 167.29949548 -75.32097049 172.34191962 -81 177 C-82.17589872 177.98814148 -83.35166734 178.97643778 -84.52734375 179.96484375 C-132.42707917 219.90696602 -192.85788256 238.38042414 -254.98583984 233.69970703 C-293.86876051 229.78498435 -332.03653832 216.74069862 -364 194 C-365.07121094 193.24074219 -366.14242187 192.48148438 -367.24609375 191.69921875 C-402.17855673 166.12447667 -427.2142098 133.21223981 -445 94 C-445.31485352 93.31550781 -445.62970703 92.63101563 -445.95410156 91.92578125 C-447.22475672 89.09021395 -448 87.14682819 -448 84 C-439.67793178 82.45488019 -431.36833807 80.98052801 -422.96484375 79.95263672 C-387.43230565 75.53010154 -352.44631469 67.94965846 -317.38146806 60.82568938 C-306.97055389 58.71127905 -296.55615673 56.61421222 -286.14160156 54.51782227 C-284.22362782 54.13168444 -282.30565525 53.74554075 -280.38768387 53.35939121 C-277.51115578 52.78025434 -274.63462512 52.20113032 -271.75807977 51.62207919 C-265.06335171 50.27429662 -258.36903996 48.92445908 -251.67486572 47.57392883 C-229.0373938 43.00794857 -206.39315046 38.47863691 -183.734375 34.01953125 C-183.06399932 33.88760219 -182.39362364 33.75567312 -181.70293355 33.61974621 C-172.05286319 31.72103536 -162.40165563 29.82813559 -152.75 27.9375 C-151.52383343 27.69730385 -150.29766685 27.4571077 -149.03434372 27.20963287 C-146.58203484 26.72927825 -144.12972145 26.24894664 -141.67740345 25.76863861 C-136.90119814 24.83316572 -132.1250237 23.89753538 -127.34887886 22.96175385 C-125.03578375 22.50858471 -122.72266733 22.05552431 -120.40952873 21.60257721 C-104.92333829 18.56941052 -89.44523635 15.49806987 -73.97375107 12.3907795 C-70.84934636 11.76365416 -67.72467391 11.13788317 -64.59988403 10.51268005 C-63.59821512 10.31225759 -62.59654621 10.11183512 -61.5645237 9.90533924 C-59.5851442 9.50933221 -57.60575265 9.11338542 -55.6263485 8.71750164 C-50.05617907 7.60255047 -44.48795137 6.47851232 -38.92114735 5.34688473 C-35.58674846 4.6712264 -32.2506766 4.00414351 -28.91408348 3.3394146 C-27.40166042 3.03619275 -25.88996082 2.72933334 -24.37911415 2.41835213 C-16.19720468 0.73572751 -8.38454303 -0.45614052 0 0 Z M-21.70710754 14.12686157 C-22.75744065 14.30944025 -22.75744065 14.30944025 -23.82899261 14.49570739 C-26.197232 14.90780253 -28.56504021 15.32232519 -30.93286133 15.73681641 C-32.63622744 16.03372895 -34.33961985 16.33049064 -36.04303646 16.62711334 C-39.75192422 17.27329268 -43.46062139 17.92055209 -47.16918182 18.56860733 C-53.17263877 19.61765507 -59.17653414 20.66417883 -65.18048096 21.7104187 C-78.39155246 24.01299662 -91.60205193 26.31884843 -104.8125 28.625 C-122.04214512 31.63272853 -139.27188189 34.63992989 -156.50199199 37.64499378 C-158.85051835 38.05460426 -161.19903876 38.46424889 -163.5475533 38.87392712 C-194.73431699 44.31406453 -225.9265779 49.72044576 -257.12949353 55.06718814 C-264.10156678 56.261921 -271.07327098 57.45878571 -278.04472351 58.65713501 C-279.01136883 58.8232773 -279.97801415 58.98941959 -280.97395176 59.16059649 C-284.82261891 59.82210505 -288.67128058 60.48364532 -292.51990259 61.1454165 C-302.64565561 62.88641471 -312.77214226 64.62282241 -322.90127563 66.34405518 C-333.11496299 68.08011481 -343.32673358 69.82697699 -353.53515625 71.59375 C-354.32792725 71.73094436 -355.12069825 71.86813872 -355.93749261 72.00949049 C-383.18988831 76.73496109 -410.15597118 82.29571174 -437 89 C-427.31612861 119.18170795 -399.65937296 148.08720658 -375 167 C-374.10539062 167.7115625 -373.21078125 168.423125 -372.2890625 169.15625 C-363.66117536 175.86945534 -354.44715934 181.52177753 -345 187 C-344.29713867 187.40782715 -343.59427734 187.8156543 -342.87011719 188.23583984 C-308.95940192 207.64431305 -268.01704184 217.49879591 -229 216 C-227.70191406 215.97035156 -226.40382813 215.94070313 -225.06640625 215.91015625 C-172.02266784 214.2268984 -119.68279911 192.42220115 -81.55712891 155.50585938 C-80.45868364 154.44358117 -79.35353079 153.38821763 -78.24365234 152.33789062 C-52.65374362 128.08702787 -34.05950204 97.45242568 -23 64 C-22.78150391 63.34966797 -22.56300781 62.69933594 -22.33789062 62.02929688 C-17.13137884 46.28761461 -13.69995501 29.58893374 -13 13 C-15.96905139 13 -18.78232844 13.61644769 -21.70710754 14.12686157 Z " fill="#000000" transform="translate(538,477)"/>
<path d="M0 0 C4.11536262 3.00908235 7.09355421 6.45252018 10.125 10.5 C14.5800272 16.31349032 19.28347837 21.74959201 24.296875 27.0859375 C26.28421178 29.22835547 28.19549841 31.38750862 30.09375 33.60546875 C34.56774313 38.73975821 39.36438439 43.5504364 44.17773438 48.36303711 C45.73860327 49.92608734 47.29127888 51.49697365 48.84375 53.06835938 C54.50701505 58.76250782 60.27659289 64.06341556 66.58496094 69.04638672 C68.99669697 70.99732806 71.2504985 73.05285212 73.5 75.1875 C79.70418687 80.84745995 86.5381715 85.65055805 93.32421875 90.578125 C97.16103482 93.36769603 100.90281797 96.2472103 104.625 99.1875 C111.41911772 104.4507912 118.59668895 109.03371153 125.85449219 113.62646484 C127.89200545 114.93086284 129.90592722 116.26420805 131.9140625 117.61328125 C143.85768566 125.59501573 156.39685075 132.44803372 168.98925781 139.3359375 C171.44734479 140.69454282 173.88333305 142.07749901 176.3046875 143.5 C189.04633369 150.97988658 202.55031226 156.9233417 216 163 C216.62376526 163.28182129 217.24753052 163.56364258 217.89019775 163.85400391 C228.70737778 168.7372659 239.54410193 173.57681936 250.390625 178.39453125 C286.21306685 194.34360773 321.90603842 211.60883161 356 231 C357.14436523 231.64727051 358.28873047 232.29454102 359.46777344 232.96142578 C383.16129625 246.36451199 383.16129625 246.36451199 392 252 C391.67 252.99 391.34 253.98 391 255 C321.94239077 236.95332407 252.59307781 204.0597846 190.390625 169.32763672 C188.10251143 168.05692986 185.80394741 166.80812439 183.5 165.56640625 C171.63564556 159.13795868 160.22175399 152.0308208 148.83325195 144.7980957 C146.9392603 143.59609238 145.04192983 142.39933444 143.14135742 141.20776367 C137.33866104 137.5563403 131.71343948 133.74423384 126.1875 129.6875 C124.62536197 128.54768084 123.062858 127.40836303 121.5 126.26953125 C120.73945313 125.71475098 119.97890625 125.1599707 119.1953125 124.58837891 C117.20498546 123.14831354 115.20208704 121.73005478 113.1875 120.32421875 C106.8243982 115.87923135 100.76213328 111.2540605 94.89331055 106.17089844 C91.59760679 103.32190903 88.23348183 100.61299685 84.76806641 97.97338867 C77.93334222 92.76099131 71.88565741 87.08901208 65.89453125 80.93359375 C63.62518942 78.6069861 61.28848758 76.42130706 58.8125 74.3125 C51.97048817 68.48091186 45.72878574 62.00355474 39.89453125 55.171875 C38.02610506 53.02992663 36.09731377 50.95310368 34.15405273 48.87915039 C23.43045116 37.39104235 14.15182897 24.75402487 5 12 C4.32066406 11.06285156 3.64132812 10.12570312 2.94140625 9.16015625 C2.38324219 8.36480469 1.82507813 7.56945312 1.25 6.75 C0.54617187 5.75226562 0.54617187 5.75226562 -0.171875 4.734375 C-1 3 -1 3 0 0 Z " fill="#000000" transform="translate(253,777)"/>
<path d="M0 0 C19.93883089 -0.49899055 39.6093458 4.53578864 54.55859375 18.46875 C64.20425204 28.80834054 67.55842117 40.12694998 67.09375 53.9921875 C66.35376416 65.72056518 59.6253648 75.77159487 51.74609375 84.15625 C44.45150128 90.04803622 36.56064856 94.91630553 27.74609375 98.15625 C26.19148437 98.7440625 26.19148437 98.7440625 24.60546875 99.34375 C5.24824494 105.59361598 -16.35052615 103.61386576 -34.56640625 94.96875 C-41.04548189 91.54984794 -46.17469806 87.40445218 -51.25390625 82.15625 C-51.83785156 81.56972656 -52.42179688 80.98320312 -53.0234375 80.37890625 C-60.26372182 72.58872692 -64.17264862 62.81478136 -64.28515625 52.2109375 C-63.5800601 38.42630785 -57.35957205 28.32185387 -47.25390625 19.15625 C-33.8058145 7.25219841 -17.92430034 0.8607107 0 0 Z M-45.25390625 22.15625 C-52.17587606 29.96502022 -54.07476897 38.06125144 -53.76171875 48.40234375 C-52.42625114 58.2745312 -46.91139974 66.02750071 -39.25390625 72.15625 C-24.9069296 83.01969815 -5.76343551 85.51396974 11.74609375 84.15625 C26.94470487 82.00070174 39.31496093 75.9497907 49.4140625 64.21875 C53.66753194 58.23146164 54.98880528 51.00265119 54.625 43.73828125 C53.064968 34.6514969 47.53525911 26.9088782 40.5546875 21.10546875 C14.85001618 3.26592635 -20.33617437 1.79005429 -45.25390625 22.15625 Z " fill="#000000" transform="translate(609.25390625,171.84375)"/>
<path d="M0 0 C7.82438245 1.98404455 15.33721822 4.46685269 22.8828125 7.32421875 C23.99934708 7.74279648 25.11588165 8.16137421 26.26625061 8.59263611 C29.88783655 9.95233287 33.50650855 11.31959153 37.125 12.6875 C38.37944141 13.16003707 39.63396875 13.63234606 40.88858032 14.10443115 C58.70038042 20.80700952 76.4696862 27.61463855 94.17700195 34.58911133 C101.51609536 37.47861717 108.85848266 40.34588641 116.2578125 43.078125 C140.84916665 52.16498042 163.60084363 63.4359264 185.125 78.5 C185.69911621 78.89703125 186.27323242 79.2940625 186.86474609 79.703125 C189.80105717 81.82213108 191.73476387 83.56355619 193 87 C173.31792482 93.56069173 133.81723608 71.99539555 116.15283203 63.24853516 C111.35776237 60.81863561 106.6007676 58.32055381 101.85205078 55.80175781 C88.34506334 48.64289503 74.68908584 41.80318021 61 35 C46.54275281 27.81506017 32.12065863 20.59044793 17.87249756 12.99768066 C15.39364446 11.67692925 12.90970378 10.36587442 10.42578125 9.0546875 C9.05455468 8.32837571 7.68344987 7.60183396 6.3125 6.875 C5.58740234 6.49085938 4.86230469 6.10671875 4.11523438 5.7109375 C2.41003495 4.80752059 0.70499603 3.90380071 -1 3 C-0.67 2.01 -0.34 1.02 0 0 Z " fill="#000000" transform="translate(436,846)"/>
<path d="M0 0 C7.83118575 6.88011152 12.0992976 16.68372255 13.5078125 26.81640625 C13.99372684 34.41145865 11.65388951 38.21577789 7.125 44.0625 C6.02683558 45.72964091 4.9289653 47.39699458 3.83911133 49.06958008 C-0.65847043 55.87649892 -4.4936043 60.38960346 -12.3125 63.375 C-20.76931453 65.00701684 -27.15972214 63.89206295 -34.875 60.0625 C-42.12463022 55.06400704 -47.23211447 48.87434056 -48.875 40.0625 C-49.25042575 32.48446177 -46.23460104 27.98817131 -41.875 22.0625 C-41.0286197 20.71644941 -40.19463118 19.36250378 -39.375 18 C-38.54234593 16.68706897 -37.70900924 15.37457061 -36.875 14.0625 C-36.26978516 13.03962891 -36.26978516 13.03962891 -35.65234375 11.99609375 C-31.44052519 5.52487397 -25.85964402 2.98710464 -18.875 0.0625 C-17.86953125 -0.37578125 -16.8640625 -0.8140625 -15.828125 -1.265625 C-8.99823239 -4.03450038 -6.26097489 -4.21935264 0 0 Z M-32.875 15.0625 C-35.70418294 18.43800793 -36.46541047 20.63893303 -36.875 25.0625 C-37.00648438 26.23232422 -37.00648438 26.23232422 -37.140625 27.42578125 C-37.45357854 32.11297182 -37.30340137 35.24546423 -34.3125 39 C-30.07816474 43.20458584 -25.79522891 44.75770176 -19.9375 45.6875 C-14.49577389 45.46688948 -11.49467977 41.74707443 -7.875 38.0625 C-7.20726562 37.47597656 -6.53953125 36.88945312 -5.8515625 36.28515625 C-2.7997064 33.53848576 -1.08758797 31.68845347 0.25 27.75 C-0.0344814 19.3577987 -2.866896 12.05386834 -8.875 6.0625 C-17.67839615 6.0625 -26.31531906 9.25533657 -32.875 15.0625 Z " fill="#000000" transform="translate(246.875,233.9375)"/>
<path d="M0 0 C4.86480543 1.66765136 8.05116419 4.4028772 10.34375 9.0078125 C11.95510219 13.89941737 11.54544633 18.363661 9.9375 23.1875 C6.61106066 28.01620227 1.89234538 32.76671841 -4 34 C-9.46662746 34.23361656 -13.69842417 33.74214948 -18 30.1875 C-21.00060188 27.38164873 -22.75230961 24.74535321 -23.3359375 20.6328125 C-23.42515043 14.90534267 -23.00279176 11.43552601 -19 7 C-16.625 5.375 -16.625 5.375 -14 4 C-13.071875 3.278125 -12.14375 2.55625 -11.1875 1.8125 C-7.32979879 -0.3810948 -4.29224467 -0.80531476 0 0 Z M-12 7 C-12.86358623 8.78141747 -12.86358623 8.78141747 -13 11 C-10.81228945 14.06279477 -9.43885938 14.89872476 -5.75 15.75 C-4.8425 15.8325 -3.935 15.915 -3 16 C-1.78309467 14.23470405 -1.78309467 14.23470405 -1 12 C-1.92548775 9.30066074 -2.42373537 8.28813232 -5 7 C-7.3329866 6.95977609 -9.66706666 6.95679753 -12 7 Z " fill="#000000" transform="translate(795,993)"/>
<path d="M0 0 C3.62011046 2.33296007 5.89022378 4.96794755 7.8125 8.8125 C8.40575593 14.67698076 8.65190505 20.3164823 5.1875 25.30859375 C1.59951756 29.23294954 -1.84659671 31.46228612 -7.1640625 32.2578125 C-11.89506788 32.43390451 -15.33713075 32.19212913 -19.6875 30.25 C-24.0598404 25.98696811 -26.38029913 22.3325772 -26.6875 16.25 C-26.44361041 11.76090725 -25.2614558 9.19385138 -22.1875 5.8125 C-19.62969609 3.92559548 -16.98363855 2.31979343 -14.1875 0.8125 C-13.17816406 0.25755859 -13.17816406 0.25755859 -12.1484375 -0.30859375 C-7.99106998 -2.17195569 -4.15253733 -1.54702371 0 0 Z M-14.1875 5.8125 C-14.47668735 8.55977982 -14.57806296 10.20495761 -13.0625 12.5625 C-10.49983268 14.27094488 -8.22610931 14.5482731 -5.1875 14.8125 C-3.87215212 13.70600443 -3.87215212 13.70600443 -3.875 10.9375 C-3.87917703 7.78322396 -3.87917703 7.78322396 -5.875 5.9375 C-8.49248127 4.66413073 -11.86165716 3.48665716 -14.1875 5.8125 Z " fill="#000000" transform="translate(1016.1875,1115.1875)"/>
<path d="M0 0 C3.73698169 1.62477465 5.84763317 3.55621307 8 7 C9.54033038 11.62099115 9.5385555 15.44769296 7.9375 20.0625 C4.94297746 24.60258255 1.90833033 28.17167807 -3.46875 29.703125 C-8.77793885 30.4387355 -12.50637635 30.20973118 -17 27 C-20.78264208 23.52405863 -21.81982704 20.26607185 -22.16015625 15.27734375 C-21.89251605 11.47163071 -20.49088491 8.84672561 -18 6 C-14.9375 3.6875 -14.9375 3.6875 -12 2 C-7.9556813 -0.69621247 -4.74665346 -0.54319098 0 0 Z M-10 6 C-10.33 7.32 -10.66 8.64 -11 10 C-8.35261084 11.4606285 -7.10551666 12 -4 12 C-4.33 10.35 -4.66 8.7 -5 7 C-6.65 6.67 -8.3 6.34 -10 6 Z " fill="#000000" transform="translate(913,680)"/>
<path d="M0 0 C0.99 0 1.98 0 3 0 C2.51649702 8.64441366 0.88724948 16.79439897 -1.1875 25.1875 C-1.46658203 26.40630859 -1.74566406 27.62511719 -2.03320312 28.88085938 C-4.08681806 37.23585346 -6.65573169 43.22002277 -13.1953125 48.91015625 C-13.83210937 49.29042969 -14.46890625 49.67070313 -15.125 50.0625 C-15.76695312 50.46597656 -16.40890625 50.86945312 -17.0703125 51.28515625 C-19.47540001 52.17610972 -20.64791247 51.96405304 -23 51 C-25.47549049 46.04901901 -24.73061988 38.42328699 -24 33 C-22.61788701 29.41087655 -20.46523712 26.92013206 -18 24 C-16.77916785 22.31506285 -15.59307678 20.60827694 -14.40600586 18.89941406 C-10.91160749 13.88857867 -7.28998744 8.96455551 -3.5625 4.125 C-2.94503906 3.32320312 -2.32757813 2.52140625 -1.69140625 1.6953125 C-1.13324219 1.13585937 -0.57507813 0.57640625 0 0 Z " fill="#000000" transform="translate(261,605)"/>
<path d="M0 0 C3.19972296 2.51893084 5.76680802 5.07620734 7 9 C7.63454342 15.45119144 6.75819714 18.71820943 3 24 C-1.97466567 28.50088799 -4.96278511 29.29985242 -11.52734375 29.21484375 C-16.00041681 28.82618811 -18.13259116 26.84331415 -21.25 23.8125 C-23.49436675 20.20548202 -24.20769101 17.23689667 -24 13 C-22.34053253 8.11379022 -20.45462023 6.39028403 -16 4 C-15.29875 3.29875 -14.5975 2.5975 -13.875 1.875 C-9.94250284 -2.05749716 -5.02539898 -1.29830167 0 0 Z M-13 6 C-12.67 7.65 -12.34 9.3 -12 11 C-9.03 11.495 -9.03 11.495 -6 12 C-6.37904208 8.70924004 -6.37904208 8.70924004 -8 6 C-9.66617115 5.95936168 -11.33388095 5.957279 -13 6 Z " fill="#000000" transform="translate(915,750)"/>
<path d="M0 0 C3.34304731 2.59923972 5.45459615 4.83938702 6.28515625 8.9921875 C6.51086614 14.2918557 6.04863192 18.66120101 2.72265625 22.9296875 C-0.59720101 26.28925597 -4.07039678 28.13544485 -8.71484375 28.9921875 C-14.14863047 28.89850152 -17.59989596 27.54600604 -21.71484375 23.9921875 C-24.95542757 18.55636949 -25.18153195 14.95671953 -23.71484375 8.9921875 C-22.08984375 6.8671875 -22.08984375 6.8671875 -19.71484375 4.9921875 C-18.88339844 4.23228516 -18.88339844 4.23228516 -18.03515625 3.45703125 C-12.62312841 -1.45560346 -7.16469006 -4.21068345 0 0 Z M-12.71484375 4.9921875 C-13.37484375 5.6521875 -14.03484375 6.3121875 -14.71484375 6.9921875 C-13.00591876 10.30679455 -13.00591876 10.30679455 -9.58984375 10.6796875 C-8.16671875 10.834375 -8.16671875 10.834375 -6.71484375 10.9921875 C-7.04484375 9.3421875 -7.37484375 7.6921875 -7.71484375 5.9921875 C-10.11203807 5.31260147 -10.11203807 5.31260147 -12.71484375 4.9921875 Z " fill="#000000" transform="translate(1109.71484375,690.0078125)"/>
<path d="M0 0 C4.60741323 1.18274592 7.19864259 3.38480407 9.9765625 7.1484375 C11.47147792 11.89699235 11.49378607 15.74782981 10.0390625 20.5234375 C7.53373879 24.55607085 4.60913874 27.58139176 0.5390625 30.0234375 C-5.46188452 31.2236269 -9.76721314 30.87050431 -14.9609375 27.5234375 C-18.80910095 23.9872873 -19.55254767 20.79055617 -20.17578125 15.8046875 C-19.68897494 10.63568962 -16.13073729 7.40941161 -12.3359375 4.2109375 C-8.17822347 1.00477026 -5.27536727 -0.54058534 0 0 Z M-7.9609375 6.5234375 C-8.6209375 7.1834375 -9.2809375 7.8434375 -9.9609375 8.5234375 C-8.21158852 10.60676829 -8.21158852 10.60676829 -5.9609375 12.5234375 C-4.6409375 12.5234375 -3.3209375 12.5234375 -1.9609375 12.5234375 C-2.2909375 10.8734375 -2.6209375 9.2234375 -2.9609375 7.5234375 C-5.35813182 6.84385147 -5.35813182 6.84385147 -7.9609375 6.5234375 Z " fill="#000000" transform="translate(978.9609375,653.4765625)"/>
<path d="M0 0 C4.56884617 1.86907343 6.80794622 4.61589244 9 9 C9.8303644 13.60474802 9.51446183 17.6234697 7.375 21.8125 C4.20395591 26.06837496 1.01673632 28.32775456 -4 30 C-10.10489702 30.58700933 -13.130903 29.46454979 -18 26 C-21.02653463 22.26727396 -21.83531697 18.77580801 -22 14 C-20.74615167 9.15178646 -19.15550081 6.7971239 -15 4.1875 C-13.67119477 3.45011376 -12.33813093 2.72032452 -11 2 C-7.282644 -0.47823733 -4.30697331 -0.53203788 0 0 Z M-10 6 C-10 7.32 -10 8.64 -10 10 C-7.69694835 11.89858275 -7.69694835 11.89858275 -5 13 C-4.34 12.67 -3.68 12.34 -3 12 C-3.27617533 10.05925139 -3.27617533 10.05925139 -4 8 C-6.81509993 5.7226499 -6.81509993 5.7226499 -10 6 Z " fill="#000000" transform="translate(1058,656)"/>
<path d="M0 0 C3.91398293 1.98881246 6.3383505 4.97311967 8 9 C8.72913029 13.66304255 8.4660195 17.11789165 6.25 21.3125 C5.5075 22.199375 4.765 23.08625 4 24 C3.38125 24.7425 2.7625 25.485 2.125 26.25 C-1.62772667 29.34048079 -5.21645134 30.2492853 -10 29.875 C-14.1232285 29.17334161 -16.85752193 27.85015453 -20 25 C-22.3055094 21.12943677 -23 17.80559257 -23 13.3125 C-21.79257313 9.3128985 -20.26437023 7.56486232 -17 5 C-16.01 5 -15.02 5 -14 5 C-13.71125 4.360625 -13.4225 3.72125 -13.125 3.0625 C-10.59632254 -1.57340868 -4.63332358 -0.63956921 0 0 Z M-11 6 C-11 7.32 -11 8.64 -11 10 C-8.28450846 12.30671915 -8.28450846 12.30671915 -5.8125 11.625 C-5.214375 11.41875 -4.61625 11.2125 -4 11 C-4.33 9.68 -4.66 8.36 -5 7 C-7.97 6.505 -7.97 6.505 -11 6 Z " fill="#000000" transform="translate(955,784)"/>
<path d="M0 0 C3.13847192 2.60426394 4.71029542 4.13088625 6 8 C6.36826224 13.61599916 6.21556007 17.17665989 3 22 C-1.14025169 26.08504833 -4.36009129 28.17225243 -10.1875 28.4375 C-14.37613086 28.40451865 -16.80383099 27.99368336 -20.0625 25.3125 C-23.11949978 22.16752901 -24.96808118 19.6067033 -25.0234375 15.0859375 C-24.68048117 10.2664986 -23.59028712 7.40616983 -20 4 C-13.22908054 -0.90787386 -8.24352077 -3.35301936 0 0 Z M-14 5 C-13.45291273 7.53744315 -13.45291273 7.53744315 -12 10 C-8.94727535 10.89830839 -8.94727535 10.89830839 -6 11 C-6.37904208 7.70924004 -6.37904208 7.70924004 -8 5 C-9.99958364 4.95919217 -12.00045254 4.95745644 -14 5 Z " fill="#000000" transform="translate(1061,727)"/>
<path d="M0 0 C4.33833918 2.25259919 7.20287362 4.4073437 9 9 C9.68077475 14.01756206 9.59700231 17.80599537 7.3125 22.375 C3.0130325 27.25547662 -0.20901804 29.81698479 -6.8125 30.25 C-10.88601551 30.1752566 -13.57815605 29.33307542 -17 27 C-20.28416064 23.45656352 -21.2890946 20.66178088 -21.5 15.9375 C-21.35128364 12.52215189 -21.05417863 11.09431095 -19.3125 8.0625 C-16.97232212 5.97531433 -14.75964066 4.48078279 -12 3 C-11.21625 2.443125 -10.4325 1.88625 -9.625 1.3125 C-6.12678023 -0.43660989 -3.87221584 -0.47553528 0 0 Z M-11 7 C-10.45291273 9.53744315 -10.45291273 9.53744315 -9 12 C-5.94727535 12.89830839 -5.94727535 12.89830839 -3 13 C-3.10613836 10.54775306 -3.10613836 10.54775306 -4 8 C-7.41749564 5.97557126 -7.41749564 5.97557126 -11 7 Z " fill="#000000" transform="translate(1093,758)"/>
<path d="M0 0 C3.74261402 3.33600904 5.88098336 6.61940699 6.3125 11.625 C6.23372938 16.43876037 4.78085507 20.09294194 2 24 C-1.88734554 27.525732 -5.54576446 28.79927721 -10.6875 29.1640625 C-15.76493301 28.80383921 -19.56329578 26.52649823 -23 22.875 C-24.50251327 18.55527436 -24.68144932 14.51830529 -24 10 C-22.1875 6.875 -22.1875 6.875 -20 5 C-19.01 5 -18.02 5 -17 5 C-16.814375 4.401875 -16.62875 3.80375 -16.4375 3.1875 C-12.54971586 -2.72869326 -5.84911031 -2.95521087 0 0 Z M-13 5 C-13.66 5.66 -14.32 6.32 -15 7 C-13.25065102 9.08333079 -13.25065102 9.08333079 -11 11 C-9.68 11 -8.36 11 -7 11 C-7.33 9.35 -7.66 7.7 -8 6 C-10.39719432 5.32041397 -10.39719432 5.32041397 -13 5 Z " fill="#000000" transform="translate(970,715)"/>
<path d="M0 0 C3.98129682 2.25464121 6.54722828 4.64168485 8 9 C8.51578753 13.91266479 8.57444169 17.8290227 6.375 22.3125 C-0.1363395 29.6805947 -0.1363395 29.6805947 -4.62109375 30.44921875 C-9.18727561 30.62889212 -12.3233161 30.31417467 -16.5 28.375 C-19.86478018 25.17845883 -21.65023472 22.64098134 -22.26953125 17.96484375 C-22.21026152 11.2436559 -18.624814 7.64507139 -14.12890625 2.96875 C-9.96586478 -0.88110854 -5.45617181 -0.87950232 0 0 Z M-13 8 C-12.67 9.32 -12.34 10.64 -12 12 C-9.69 12.33 -7.38 12.66 -5 13 C-5.33 11.35 -5.66 9.7 -6 8 C-9.58327753 6.99782936 -9.58327753 6.99782936 -13 8 Z " fill="#000000" transform="translate(1164,737)"/>
<path d="M0 0 C4.08499621 2.07963443 6.32994101 3.75306265 8 8 C8.68073835 13.2401022 8.65733258 17.6609892 6.3125 22.4375 C2.17831213 27.0186271 -1.02107619 29.77517556 -7.3125 30.25 C-12.66430237 29.88716594 -15.71949363 28.41893949 -19.3125 24.4375 C-22.14996266 20.33894282 -22.66922168 16.93207213 -22 12 C-19.88682226 7.92458579 -18.20814865 5.7647075 -14 4 C-12.9805881 3.01979625 -11.97753644 2.02196992 -11 1 C-7.52817697 -0.73591152 -3.79591036 -0.46571673 0 0 Z M-12 7 C-11.28436734 9.0162233 -11.28436734 9.0162233 -10 11 C-7.86997684 11.79875868 -6.26695035 12 -4 12 C-4.33 10.35 -4.66 8.7 -5 7 C-8.58327753 5.99782936 -8.58327753 5.99782936 -12 7 Z " fill="#000000" transform="translate(1181,667)"/>
<path d="M0 0 C3.16961356 1.28133314 4.57820229 2.5200233 6.8125 5.0625 C8.56864147 9.40663942 8.66743244 13.3798843 8 18 C5.50665497 22.98669007 2.00649051 26.49675474 -3 29 C-8.47850267 29.71774745 -13.51072316 30.03875151 -18.0625 26.5625 C-21.61048396 22.93757181 -22.95615087 19.04264956 -23 14 C-22.23996758 10.01558759 -20.71761409 7.54258627 -17.4375 5.0625 C-15 4 -15 4 -13 4 C-13 3.34 -13 2.68 -13 2 C-8.74178609 -0.83880927 -4.99661255 -0.51165313 0 0 Z M-12 6 C-11.45291273 8.53744315 -11.45291273 8.53744315 -10 11 C-6.94727535 11.89830839 -6.94727535 11.89830839 -4 12 C-4.37904208 8.70924004 -4.37904208 8.70924004 -6 6 C-7.99958364 5.95919217 -10.00045254 5.95745644 -12 6 Z " fill="#000000" transform="translate(1125,630)"/>
<path d="M0 0 C8.0843116 1.31795169 15.92478586 3.17686225 23.8125 5.375 C24.90498047 5.66632812 25.99746094 5.95765625 27.12304688 6.2578125 C35.18160909 8.49439459 40.98415393 10.43043091 45.4375 17.9375 C46.20900391 19.18853516 46.20900391 19.18853516 46.99609375 20.46484375 C48.1779538 23.44938529 47.91555528 24.97162483 47 28 C39.62476779 29.84380805 32.6713758 29.78508798 26 26 C23.67202229 24.16212286 21.51672971 22.21075201 19.35546875 20.1796875 C16.96698677 17.96945045 14.49407097 15.9498698 11.9375 13.9375 C7.49754375 10.42861439 3.21870646 6.77091081 -1 3 C-0.67 2.01 -0.34 1.02 0 0 Z " fill="#000000" transform="translate(391,570)"/>
<path d="M0 0 C0.99 0 1.98 0 3 0 C7.40188816 7.99548916 11.62170254 15.92274951 14.96484375 24.43359375 C15.82747812 26.57227595 16.80249779 28.5281124 17.875 30.5625 C19.89199484 36.72553979 18.86458307 42.6121039 16.6875 48.625 C15 51 15 51 13.11328125 51.8046875 C11 52 11 52 9.21875 51.03125 C8.6515625 50.5259375 8.084375 50.020625 7.5 49.5 C6.9328125 49.0153125 6.365625 48.530625 5.78125 48.03125 C0.57086781 42.0895861 -0.58482854 37.46997978 -0.390625 29.78515625 C-0.38496521 28.92941513 -0.37930542 28.07367401 -0.37347412 27.19200134 C-0.35123507 24.48157789 -0.30106425 21.77251809 -0.25 19.0625 C-0.22991878 17.215514 -0.21167086 15.3685071 -0.1953125 13.52148438 C-0.15141147 9.0138043 -0.08247269 4.50713267 0 0 Z " fill="#000000" transform="translate(333,605)"/>
</svg>
