<?xml version="1.0" encoding="utf-8"?>
<!-- Generator: Adobe Illustrator 16.0.0, SVG Export Plug-In . SVG Version: 6.00 Build 0)  -->
<!DOCTYPE svg PUBLIC "-//W3C//DTD SVG 1.1//EN" "http://www.w3.org/Graphics/SVG/1.1/DTD/svg11.dtd">
<svg version="1.1" xmlns="http://www.w3.org/2000/svg" xmlns:xlink="http://www.w3.org/1999/xlink" x="0px" y="0px"
	 width="401.417px" height="230.64px" viewBox="0 0 401.417 230.64" enable-background="new 0 0 401.417 230.64"
	 xml:space="preserve">
<g id="Calque_1">
</g>
<g id="Calque_2">
</g>
<g id="Calque_3">
</g>
<g id="Calque_4">
</g>
<g id="Calque_5">
</g>
<g id="Calque_6">
</g>
<g id="Calque_7">
</g>
<g id="Calque_8">
</g>
<g id="Calque_9">
</g>
<g id="Calque_10">
</g>
<g id="Calque_11">
</g>
<g id="Calque_12">
</g>
<g id="Calque_13">
</g>
<g id="Calque_14">
	<g>
		<g>
			<g>
				<g>
					<g>
						<path fill="#202020" d="M399.619,230.64c0.84-0.354,2.167-1.798,1.316-2.158l-2.848,1.791L399.619,230.64z"/>
						<path fill="#202020" d="M400.342,222.335c-1.85,0.352-4.701,1.411-6.516,3.932c3.009-1.422,2.188-0.352,5.694-2.126
							c0.852,0.361,0.204,1.799-0.792,2.516c0.828-0.353,0.342,1.455,2.182,0.388c1.157-2.535,0.3-3.627-2.236-3.271
							C399.002,223.054,399.844,222.695,400.342,222.335z"/>
						<path fill="#202020" d="M348.841,158.215l0.065,0.655C348.97,158.618,348.937,158.403,348.841,158.215z"/>
						<path fill="#202020" d="M315.911,119.418c0.32,0.232,0.671,0.13,0.906-0.057C316.414,119.242,316.065,119.16,315.911,119.418z
							"/>
						<path fill="#202020" d="M312.755,110.545c0.048,0.208,0.119,0.355,0.179,0.529
							C313.027,110.725,313.02,110.466,312.755,110.545z"/>
						<path fill="#202020" d="M348.841,158.215l-0.147-1.705C347.832,157.167,348.571,157.564,348.841,158.215z"/>
						<path fill="#202020" d="M386.816,219.354c0.311,0.101,0.697,0.069,1.139-0.041c-0.262-0.077-0.502-0.164-0.725-0.277
							C387.098,219.137,386.988,219.222,386.816,219.354z"/>
						<path fill="#202020" d="M365.932,172.97l0.281,0.302c0.36-0.164,0.774-0.387,1.226-0.653L365.932,172.97z"/>
						<path fill="#202020" d="M377.9,185.339c-0.172-0.369-2.339,1.424-3.347,2.142c1.003-0.617,1.604-0.777,1.995-0.671
							C376.948,186.454,377.387,185.986,377.9,185.339z"/>
						<path fill="#202020" d="M392.632,208.829l0.614,0.094C393.071,208.913,392.846,208.832,392.632,208.829z"/>
						<path fill="#202020" d="M358.082,163.462c0.288-0.303,0.518-0.595,0.637-0.793
							C358.457,162.908,358.252,163.178,358.082,163.462z"/>
						<path fill="#202020" d="M27.976,211.764c-0.132-0.152-0.235-0.228-0.354-0.354C27.75,211.681,27.87,211.845,27.976,211.764z"
							/>
						<path fill="#202020" d="M4.022,215.982l0.089-0.302c-0.354-0.397-0.702-0.79-1.068-1.158L4.022,215.982z"/>
						<path fill="#202020" d="M304.706,96.378c-0.003,0.044,0.005,0.052,0.008,0.088C305.232,96.56,305.031,96.422,304.706,96.378z"
							/>
						<path fill="#202020" d="M187.393,17.837c2.943,0.613,0.373,4.185,4.104,4.403C190.557,21.626,190.004,17.54,187.393,17.837z"
							/>
						<path fill="#202020" d="M386.788,218.775c-0.18-0.15-0.357-0.308-0.497-0.501C386.44,218.572,386.596,218.724,386.788,218.775
							z"/>
						<path fill="#202020" d="M191.496,22.24c0.009,0.008,0.018,0.017,0.018,0.017l0.368,0.006
							C191.723,22.253,191.633,22.248,191.496,22.24z"/>
						<path fill="#202020" d="M278.783,70.465c-0.314,0.39-0.494,0.751-0.657,1.105C278.331,71.367,278.533,71.068,278.783,70.465z"
							/>
						<path fill="#202020" d="M294.211,93.313l-0.177-0.752C294.025,92.931,294.105,93.151,294.211,93.313z"/>
						<path fill="#202020" d="M266.309,62.676c-0.089-0.417,0.114-0.77-0.501-0.887c-0.075,0.131-0.118,0.233-0.152,0.344
							C266.063,62.007,266.357,62.066,266.309,62.676z"/>
						<path fill="#202020" d="M256.361,51.796c-0.105,0.203-0.155,0.387-0.234,0.583c0.14,0.07,0.287,0.167,0.427,0.243
							L256.361,51.796z"/>
						<path fill="#202020" d="M58.752,179.182c-0.787-0.333-1.545-0.808-2.265-1.307C58.059,179.128,57.027,181.162,58.752,179.182z
							"/>
						<path fill="#202020" d="M387.978,218.283c-0.583,0.415-0.926,0.557-1.189,0.492c0.138,0.104,0.288,0.186,0.442,0.26
							C387.567,218.786,387.866,218.526,387.978,218.283z"/>
						<path fill="#202020" d="M249.521,77.177l-1.272-2.01C248.49,75.833,248.958,76.559,249.521,77.177z"/>
						<path fill="#202020" d="M133.374,104.247l-0.144,0.618C133.422,104.763,133.5,104.572,133.374,104.247z"/>
						<path fill="#202020" d="M243.259,70.312c0.45-0.977,0.578-1.692,0.547-2.284c-0.228,0.077-0.436,0.117-0.719,0.288
							L243.259,70.312z"/>
						<path fill="#202020" d="M56.462,177.855c0.012,0.006,0.025,0.02,0.025,0.02S56.474,177.861,56.462,177.855z"/>
						<path fill="#202020" d="M50.248,193.475c1.639-1.518-1.81-3.301-2.972-5.138c1.147-2.622,2.795,1.058,4.771,1.756
							c0.487-1.868-1.003-5.17-0.022-5.944c0.494,0.366,0.821,0.353,1.159,1.092c-0.828-3.321,3.596-3.787,2.442-7.846
							c0.339,0.125,0.612,0.29,0.836,0.459c-1.54-1.074-2.904-2.372-3.801-3.367c0.663-0.751-0.333-2.964,1.639-1.52
							c-0.484,0.383,0.167,1.108,0.496,1.846l0.001-1.483c3.119,1.793-0.165,1.861,1.649,3.682c0.65-2.244,0.31-5.96,2.111-6.371
							c2.629,2.174-1.788,3.395,1.824,4.059l-2.634,0.791c5.096,2.488-1.307,0.774,3.945,3.634c2.954-1.554,1.305-3.744,4.258-5.288
							c-0.824-1.842-2.137-1.81-2.964-3.653c0.81-5.594,8.55,3.536,7.712-2.015c-0.988-2.21-3.785-5.49-0.504-5.55l2.139,3.29
							c2.454-1.912-2.647-5.154,1.466-5.607c0.658,1.474-0.821,2.614-0.167,2.607c3.624,0.669-0.488-2.588,0.652-3.725l2.637,2.173
							c1.951-2.7,2.783-6.996,4.924-10.005c0.571,0.858,0.881,2.052,2.218,2.188c2.054-4.445,7.236-6.626,11.798-8.325l-0.873-3.273
							c0.303-0.253,1.453,0.424,1.553,1.127c2.008-0.43-1.25-1.38-1.478-2.784c0.551-0.839,2.109,0.279,2.291,1.343
							c0.401-3.913,2.362-9.923,6.854-9.961l0.172,1.059c2.611-0.92-2.248-6.252,1.325-5.95l0.053,0.682
							c4.739-2.928,7.088-9.063,13.147-8.847c-2.428-3.551,5.133-2.455,1.219-6.877c4.256-0.116,4.371,1.255,8.848-0.432
							c1.017-0.63-1.369-3.833-0.783-5.286l2.202,2.159l-0.899-3.671l3.34,1.877l0.398-1.514c-0.509,0.252-1.787-0.173-2.356-0.86
							c0.511-2.477,5.16-2.109,6.313-1.027l1.695-5.371c0.797,0.957,0.505,1.848,0.595,2.875c-0.332-4.109,2.635,1.958,2.33-1.808
							c-0.726-0.264-1.172-1.425-1.571-1.905c2.177,0.46,4.151-1.484,5.049-3.488l1.223,1.784c3.003-2.231,4.809-6.233,7.78-9.14
							c-1.754,0.352-4.112-2.499-3.498-3.61l2.641,1.959c-0.861-1.979-1.768,0.03-2.361-2.855c1.364-0.83,3.354,1.887,3.47,3.267
							l0.54-2.131c0.765,0.61,0.813,1.286,1.607,2.246c-0.881-1.98,4.615,0.015,2.927-3.262l0.759,0.612
							c2.962-2.914,3.506-5.038,5.787-7.542c-1.938-2.039-0.56-2.53-1.45-4.852c2.394-1.121,5.911-1.503,7.864-3.788
							c0.504-2.477-1.244-2.12-1.753-3.971c1.917,1.703,3.867-0.58,4.065,1.818c2.254-2.833,2.896-3.603,4.648-8.286
							c-1.092-0.397-1.806-0.327-2.219-1.149c0.287-0.88,2.088-0.564,2.873,0.391l0.031,0.341
							c0.907-6.323,13.619-3.029,12.729-9.681l0.025,0.347l1.023-4.945c1.686-1.057,0.534,2.184,2.669,2.292
							c0.206-6.236,5.527-4.633,6.171-9.293c1.847,0.826,3.202,0.762,4.293,0.211c0.084-0.051,0.113-0.049,0.127-0.034l0.06,0.016
							c0.036,0.008,0.067,0.011,0.095,0.009c0.054-0.003,0.089-0.025,0.113-0.064c0.048-0.076,0.053-0.219,0.061-0.394
							c0.008-0.343,0.047-0.838,0.232-0.968c0.177-0.123,0.481,0.137,0.797,1.525l-0.412-2.101
							c-0.123-1.111,0.002-0.875,0.128-0.262c0.133,0.608,0.28,1.58,0.333,1.814c-0.184-1.768-0.387-1.872-0.441-3.182
							c0.21-0.723,0.521-1.267,0.833-1.6c0.74,0.753,1.353,2.692,1.268,4.129c-0.028,0.733-0.206,1.369-0.479,1.833l-0.051,0.085
							c0.022,0.073,0.1,0.204,0.146,0.302l0.329,0.635l0.67,1.254c0.454,0.829,0.923,1.64,1.413,2.425
							c1.813,2.694,8.031-4.857,7.621,0.998l-3.215,1.377c7.3,2.116,8.833,9.886,15.594,12.309
							c-0.818,0.234-1.558,0.894-1.966,0.428c-0.87,2.608,3.254,3.741,4.716,2.439c0.502,0.88-1.153,1.362-1.479,2.483
							c-0.14,1.948,4.538,0.429,3.256,2.566c-0.206,0.353-0.83,0.246-1.133,0.189c1.449-0.136,2.532,3.215,4.013,0.729
							c0.63,2.65,3.982,2.536,4.05,5.045c3.122-1.171,1.646,4.018,5.147,1.357c-3.457,2.923,0.117,5.545,2.705,5.223
							c-1.35,0.549-0.165,1.923-1.961,2.763c1.205,1.227,2.887,1.825,4.402,0.037c-1.865,5.987,7.507,1.768,3.584,7.759
							c5.237,2.134,9.636,4.517,13.516,7.194c-3.445,2.918-3.756-3.446-7.12-0.111c4.309,1.967,8.863,1.214,10.97,5.141
							c0.3,1.241-1.872,0.849-2.697,1.089c4.307,1.964,5.369,6.495,9.794,7.701c-0.317,0.275-0.938,0.275-1.459,0.215
							c0.625,0.464,0.712,1.754,2.163,0.313l-0.91-0.176c1.377-2.906,6.635-1.95,7.889-2.908c-5.215,3.003,1.486,3.822-5.388,7.306
							c0.626,0.11,1.769-0.08,2.704-1.089c0.207,0.821-0.226,1.535-1.888,2.028c2.667,1.268,3.623-0.919,5.259,0.943
							c-0.74,0.663-1.36,0.552-2.396,1.148c2.275-0.378,4.556-0.751,5.346,1.361c-0.527,0.31-0.938,1.014-1.349,0.543
							c2.645,2.454,7.938,1.055,9.214,5.229c-3.97,2.046-0.144,1.947-2.761,4.617l2.252,0.817l0.764-1.85
							c1.206,1.416,4.321,0.795,4.494,2.799l-2.066,0.017l2.869,2.095l-0.282-2.41c2.688,0.092,3.354-3.333,4.253-0.805
							c-0.616-0.118,1.218,1.404,0.245,3.602c0,0-0.004-0.004-0.011,0.002c1.498-0.122,3.06-0.268,3.301,1.373
							c-0.643,1.068-3.244,2.57-3.676,3.278c2.916-1.433,3.572,2.63,6.803,1.238c-0.835,0.244-2.297,1.55-2.506,1.912l2.385-1.146
							c-0.019,1.183-0.225,1.541-1.473,2.49c1.401,2.225,2.945-3.8,3.508-0.154c-0.314-0.04-0.516,0.3-1.14,0.189
							c1.293,2.998,5.206,3.32,6.195,6.256c-2.212,3.15-2.35-1.21-4.046,1.633c3.259,2.562,9.031,3.221,11.045,6.739l-0.19-0.825
							c4.287-3.168,0.05,3.942,3.245,3.736c-0.62-0.097-2.607,1.51-2.082,1.209c1.196,2.576,4.696,3.214,8.696,5.122l-1.351,0.544
							c0.178,2,2.315,3.579,3.02,5.271c1.35-0.538,1.853,0.339,2.911-1.438c-2.148,9.158,9.91,4.691,8.313,12.534
							c-0.391-0.407-1.787-0.19-1.484,0.141l3.633,2.127c1.491-1.792,0.678-1.333,1.438-3.168c1.354-0.547,2.903-0.425,3.575,0.311
							c-2.35-0.304-2.731,2.512-3.158,3.958c0.436-0.574,1.193-0.903,1.681-1.437c-1.623,4.322,3.671-2.873,3.558,1.111
							l-0.999,0.705c1.181,0.375,3.032,0.024,3.556,1.113c-1.651,2.156-1.691-0.003-3.365,1.425
							c1.208,1.097,5.901-1.043,4.925,1.838c-1.016-0.008-1.693-0.733-2.705-0.745c-1.24,3.299-0.525,2.898-0.092,4.113
							l-0.026-0.134l0.805,2.99l0.155-1.09c6.52-3.195,3.731,2.201,8.95,1.147c-4.986,0.945-2.143,1.36-4.52,3.25
							c-0.148,1.083-0.129,2.504-0.962,2.854c2.678-0.69,0.035,2.893,3.905,1.836c-0.663,0.715,0.863,1.087-1.143,2.522
							c1.7,0.727,0.985-1.438,1.984-2.158c4.21-0.329,1.124,7.229,7.018,6.904c3.558,1.111,6.389-0.666,9.611,0.437
							c-0.473,1.796-3.181,1.784-3.181,1.784c0.035,2.169,1.055,2.895,2.911,3.275c-0.837,0.343-1.153,1.065-1.646,2.147
							c1.017,0.737,3.177-1.785,3.207,0.382c-0.99,0.527-2.517,1.437-3.723,1.733c1.641,0.465,3.951,0.295,5.611,0.812
							c-0.987,1.439-2.516,1.068-3.69,1.425c1.7,0.73,4.08,2.191,6.419,0.763l-0.021-1.446c0.512,0.366-1.493,1.791-2.161,1.786
							c-2.532,0.354-0.717-2.167-0.047-2.888l1.182,0.368c3.486-4.666-3.57-2.552-4.773-4.364l3.677-2.142l-4.036,0.697
							c0.482-1.075,1.983-2.879,3.159-2.514c0.478-2.522-2.013-0.011-1.212-2.535c0.165-0.348,0.357-0.434,0.569-0.444l-1.93-0.279
							c0.845-0.371,2.001-2.165,2.181-1.076c-0.049-3.615-5.243-1.119-3.601-3.995l0.342-0.006
							c-3.567-1.824-2.503,1.792-7.046,2.126l4.289-6.475l-2.504,1.784c-0.18-0.36-0.525-1.081,0.472-1.799
							c-2.515,0.344-0.815,1.077-2.837,1.789c0.8-3.25-4.423-2.918-1.11-6.507c-2.166,1.071-0.124,2.524-2.656,2.142
							c3.483-3.945-2.212-1.095-1.585-3.969c2.348-1.434,2.377,0.722,3.011-2.162c-4.064,2.318-1.495-3.121-3.108-3.593
							c-2.729,2.398-3.224-1.285-5.739-2.25c1.002-0.708-1.581-4.693-2.121-7.233l0.495-0.363c-3.004,2.154-4.05-0.021-5.747-0.751
							c1.672-1.435,2.515-1.793,3.855-1.783l-1.079-1.157c-1.121,0.517-1.911,0.571-2.913,0.095l2.296-1.556
							c-1.531-1.454-5.246-0.955-5.718-4.192c-1.995,1.613-3.816,6.398-7.01,5.433c0.951-1.011,2.629-2.685,3.554-2.513
							c-0.298-0.062-1.44,0.127-1.338-0.636l2.492-0.724c-0.075-1.601-1.872,0.834-2.377-0.041c1.473-1.316,0.549-1.489,1.803-2.44
							c0.311,0.058-0.024,1.187,0.804,0.943c-0.488-1.061-0.528-2.844,0.276-4.179c-0.765,0.829-1.965,1.792-2.703,1.363
							c-1.525-1.458,1.27-2.133,1.19-3.724c-1.356,0.546-1.212-1.404-3.416,0.559c-0.404-0.465,0.536-1.477,0.968-2.193
							c-1.698,0.074-3.707-3.509-5.199-0.486l0.035,0.346c-0.08,0.002-0.123-0.041-0.216-0.044c0.007,0.007,0,0,0.007,0.007
							l-0.007-0.007c-4.575-0.661-3.765-6.609-7.086-8.377l0.733-0.66c-2.26-0.804-3.666-3.03-6.254-2.715
							c-0.42-0.464,0.338-2.307,1.385-2.901c-1.638-0.695-2.578-0.082-2.95-2.905c2.37,0.04,0.749-1.442,2.056,0.38
							c-0.786-2.126,0.062-3.544-3.454-3.392c2.389-1.138,1.288-3.315,0.058-3.545l-0.346,2.309c-1.03-0.582-1.526-1.459-2.039-2.34
							l2.821-1.844c0.093-5.905-10.314-1.088-7.516-8.073c-2.485,0.728,0.364,2.83-2.333,3.913
							c-1.001-1.764,1.139-6.505,0.729-6.969c-0.465-3.244-5.295,1.408-6.275-1.537c-0.631,1.066-2.741,3.455-4.996,2.643
							c-1.009-1.759,2.039-5.152,3.584-4.871c0.395,0.283,0.27,0.708-0.04,0.962c0.75,0.181,1.69,0.459,2.113-0.987l-1.05,0.61
							c0.232-1.542-1.696-3.469,0.174-4.309c-1.845-0.341-1.87,0.84-1.578,2.074c-0.441-3.034-2.635-2.965-3.543-5.674
							c-0.204,0.748-0.976,1.97-1.245,1.656c-1.497-3.823-2.801,0.27-4.936-1.299c0.343-2.309,3.548-2.52,0.665-3.43
							c-0.17-2.006,2.1-2.372,3.241-2.555c-3.296-0.219-1.889-4.302-2.495-5.59l1.553,0.281c-0.926-0.171-1.328-0.636-1.745-1.102
							l-1.271,2.128c-0.191-0.822-0.604-1.291,0.135-1.945c-1.66,0.487-2.525,3.089-5.111,3.41c0.229-1.539-2.972-1.338-0.873-3.711
							c1.291,3.003,2.107-2.384,4.244-0.795c-0.617-0.119-1.021-0.583-1.211-1.411c0.186-0.319,0.553-0.362,0.821-0.335
							c0.088-4.081-3.547,1.396-5.558-0.916c1.574-0.909,2.009-2.793,1.393-2.908c0.805,0.937-1.79,2.432-3.558,2.512
							c-0.304-2.383-2.198-0.885-2.772-1.753l0.31,1.307c-1.577,0.9-2.068,0.019-3.404-0.617c0.942-1.017,1.54,0.279,1.661-0.494
							c-3.329,0.979,0.072-4.715-2.91-4.864c0.229-1.537,2.4-2.318,2.422-3.504c-3.303-0.204,0.063-3.54-3.025-4.104
							c-1.278,2.139-0.762,1.839-3.666,2.108l4.008,1.901l-4.339,0.392c0.81,0.938,2.871,0.92,3.07,1.743
							c-2.284,0.383-1.759,0.079-2.821,1.852c1.502-3.665-3.806-1.078-3.341-4.155l4.405-3.938
							c-0.041-3.951-5.768-1.824-7.247-5.653l0.069,1.602c-2.082,1.203-1.834-1.525-3.372-1.799c1.536-1.246,1.543-2.3,2.096-3.52
							c-1.038,1.035-1.788-2.16-4.935,0.241l0.77-3.014c-1.295-3-6.531,1.186-8.037-1.46c2.188-0.785,2.313-2.725,4.788-2.291
							c-0.654-0.746-0.987-1.647-2.01-0.736c0.523-1.262-3.817-0.24-3.047-2.177c-0.922,0.275-2.542,1.568-3.171,0.636
							c0.214-0.36,0.725-0.655,0.725-0.655c-0.725,0.655-2.156-0.393-3.114,1.798c2.493-6.407-6.083-6.006-3.968-11.534
							c-1.947-1.153-4.173-2.651-5.604-4.005c0.521-0.305,0.731-0.659,0.83-0.246c-0.469-3.239-5.309,2.588-5.873-1.07
							c1.296-3.314,2.378,0.046,2.609-1.494c4.512-4.694-3.162-2.152-1.76-6.24l0.622,0.113c0.562-2.659-4.427-1.201-5.83-3.428
							c0,0,0.509-0.293,0.735-0.65c-3.642,0.923-6.713-0.817-9.072-2.039c2.4-1.139,1.757-0.069,3.346-2.16
							c-1.023-0.579-2.844,3.038-4.881,1.877c0.539-1.474,0.354-3.482,2.246-5.498l1.527,1.454c1.91-3.2-1.925-1.93-2.214-3.167
							l1.246-0.945c-2.546-2.042-5.479,0.573-7.606-2.177l-0.631,1.059c-2.075,0.612-1.938-0.05-1.709-0.795
							c0.114-0.373,0.252-0.767,0.147-1.032c-0.073-0.233-0.55-0.514-1.434-0.41c0,0,0.576-0.832,1.127-1.693
							c0.554-0.858,1.081-1.745,1.081-1.745c-0.946-0.331-2.625-0.755-4.222-1.129c-1.611-0.39-3.132-0.719-4.171-1.308
							c2.171-1.964,5.486-0.55,8.314-0.028c-1.291-1.459-4.67-4.689-6.097-3.362c0.634,0.13,1.732-0.1,1.932,1.02
							c-3.079,1.229-5.144,1.23-7.091-1.007c1.592-5.772-1.498-7.977-3.974-11.595C208.369,1.591,207.09,1.91,206.162,0
							c-2.428,4.419-4.766,6.323-7.662,8.364c-1.433,1.004-2.975,2.014-4.558,3.21c-1.579,1.191-3.2,2.571-4.679,4.205
							c1.591,0.516,2.227,0.947,2.441,1.284c0.209,0.342-0.025,0.613-0.307,0.938c-0.393,0.48-0.831,1.034,1.429,3.099
							c-0.565,1.111-0.956,1.359-1.311,1.154l-5.121-0.053c-1.859-0.66-0.153-1.75-1.199-2.645c-2.169,1.5-2.599-1.066-4.963-1.006
							c1.793,1.301,1.572,2.855-0.064,3.308l3.466,0.527c-0.271,4.865-5.843-1.422-6.156,3.44l-0.54-2.178
							c-0.526,2.127-4.928,4.855-2.762,9.632c-0.733-0.265-2.224-1.141-1.952-2.036c-3.694,2.642-3.376,10.745-7.979,11.061
							l-0.813-1.298c-0.288,0.896,0.952,3.018-0.853,2.69c-0.397-0.476-0.814-1.294-1.15-1.083c0.05,0.677,0.275,3.423-1.125,3.588
							l-0.517-1.86c-4.478,1.699-1.86,7.637-3.732,10.952c-3.101-3.125-6.547-1.71-8.267-1.003l-0.396-0.483
							c-3.99,3.208-3.551,8.688-5.669,13.24c-5.445-1.318-8.434,5.579-13.655,7.002c1.072,0.058,2.338,2.512,2.058,3.416
							c-1.412,0.146-0.005,4.317-2.729,1.335l0.332-0.225c-3.384-2.218-4.248,0.129-5.578,1.303l3.521,3.947
							c-8.703-2.17-6.605,10.567-13.253,7.479c0.142,1.724-0.851,2.691-0.704,4.407l-1.957-2.048
							c-2.704,1.674-4.049,2.515-6.285,5.695l-0.875-1.985c-1.663,1.391,3.831,7.708,2.537,9.231l-3.407-2.57
							c-2.622,2.706-7.942,2.769-7.873,8.112c-0.395-0.482-1.178-1.425-0.866-1.977c-1.334,1.174-6.879,2.815-2.328,6.47
							c-2.697-2.644-3.013,2.483-3.279,5.099l-1.742-2.197c1.297,3.733,1.945,4.462,0.943,6.854
							c-0.659,0.144-1.928-1.229-0.89-1.257c-2.372,0.303,0.817,2.911-1.856,3.48l-0.65-1.865c-1.531,1.224-0.748,1.79-0.043,4.017
							c-0.078,1.657-3.114,2.111-5.097,0.53c0.897,1.273,1.594,3.482,0.267,3.777c-0.782-0.565-0.903-1.278-0.957-1.631
							c-3.647,0.957-1.145,5.715-4.664,5.358c-0.684-0.621-1.113-0.845-1.441-0.911c1.88-1.78,3.465-3.143,3.47-2.861
							c-1.813-1.819-3.612-0.664-4.938-4.35c0.178,2.556,1.116,7.563-1.181,8.146c-0.245-0.107-0.486-0.211-0.817-0.44l-0.055-0.353
							c-0.514,0.15-0.644,0.617-0.619,1.203c-0.759,0.16-1.271,0.23-1.74,0.645c-1.672-1.336-2.508,0.88-3.318,1.543
							c2.045,1.929,0.759,2.573,3.302,3.313c-0.257-0.023-0.097-0.376,0.312-0.948c0.053-0.169,0.154-0.329,0.109-0.519
							c0.036,0.064,0.079,0.143,0.124,0.225c0.428-0.54,1.016-1.215,1.703-1.962c0.425,1.593,0.663,3.051-1.255,2.76
							c0.896,1.657,1.791,3.389,2.171,4.24c-3.778-1.771-7.222-1.33-9.198-2.772c-1.142,3.364-4.578,6.03-2.268,11.183
							c-0.162,1.12-1.806-0.337-2.631-0.687c-0.004-0.744,0.493-1.125,0.157-1.863c-0.325,2.237-3.425,4.158-1.127,7.076
							c-2.791,0.431-1.489-3.31-3.283-0.671l-0.497-1.097c-8.528,0.176-0.451,13.745-10.636,13.209
							c0.663-0.005,0.982-0.021,1.487,0.349c-7.876,3.137-9.163,13.555-18.346,15.234c-2.302,0.787-0.807,2.623-0.486,4.834
							l-2.467-1.805l0.844,4.078c-0.49,4.09-9.198-1.295-8.692,5.013l1.81,1.067c-1.314,0.765-2.453,4.138-3.93,2.308
							c0.154,0.369,1.15,1.838-0.005,1.494l-1.146-1.087l-0.647,4.467c-2.79,1.167-4.117-4.751-7.229-2.084
							c-0.646,1.502,0.184,6.311,1.333,6.657c0.489-0.377,1.806-0.407,2.955,0.681l-0.403,1.563
							c3.108,3.476,5.718,7.607,10.429,7.502l-0.326-3.693l2.136,1.059l-1.316,1.512c2.305,0.706,1.487-1.134,1.146-2.617
							c0.982,0.716,1.812,1.075,2.461,1.059l-1.487-4.797c1.487,1.092,1.812,3.3,3.63,2.907c-0.684-2.234-3.625-2.153-3.302-4.392
							c2.3,0.696,3.281,2.151,2.95-0.07c0.979,0.717,1.318,1.458,1.316,2.204c-0.174-1.857,1.797-2.649,0.484-4.835
							c2.684,1.014,2.361-3.312,5.389-0.108c-0.479-1.011-0.96-3.927-0.316-4.827c2.313,5.145,3.111-2.663,6.73,1.716
							c-2.303-4.401,2.287-5.254,2.28-8.962c0.162,0.369,0.498,1.113,0.164,1.105c1.319-0.76,2.632-0.048,3.934-0.081
							c-2.632-2.909-1.643-5.16-2.474-7.743c3.946,1.406,2.471,4.03,5.437,6.204c-2.307-2.186-0.021-4.458-2.321-5.897
							c2.628,0.683,1.643-0.035,4.438,1.764c-3.288-3.641,0.324-1.492-0.99-4.431c3.117,0.302,3.604,2.888,4.103,0.285
							C50.403,190.87,50.248,193.475,50.248,193.475z M81.187,150.68c0.019,0.019,0.033,0.033,0.04,0.04
							c-0.271,0.364-0.503,0.674-0.65,0.872C80.707,151.406,80.888,151.147,81.187,150.68z M84.258,147.557
							c-0.455,0.299-0.939,0.753-1.423,1.263c-0.795-0.58-1.382-1.404-1.033-1.679C82.089,147.769,83.217,147.437,84.258,147.557z
							 M63.945,140.3c0.209-0.771,0.764-0.544,1.237-0.204c-0.197,0.266-0.401,0.604-0.621,1.095
							c0.061,0.088,0.115,0.203,0.186,0.301C64.415,141.065,64.113,140.656,63.945,140.3z"/>
						<path fill="#202020" d="M65.664,143.791c-0.025,0.116,0.018,0.238-0.058,0.347c0.274,0.075,0.521,0.13,0.739,0.156
							c-0.153-0.274-0.31-0.552-0.448-0.798C65.818,143.595,65.737,143.699,65.664,143.791z"/>
						<path fill="#202020" d="M348.922,158.982l-0.016-0.111c-0.03,0.133-0.064,0.259-0.165,0.413
							C348.801,159.146,348.866,159.087,348.922,158.982z"/>
						<polygon fill="#202020" points="130.896,108.67 130.392,108.173 130.559,108.883 						"/>
						<path fill="#202020" d="M358.051,183.308c-0.15,0.2-0.279,0.44-0.318,0.719C357.86,183.892,357.957,183.618,358.051,183.308z"
							/>
						<path fill="#202020" d="M364.608,191.431l0.254,1.764C364.853,192.34,364.74,191.814,364.608,191.431z"/>
						<path fill="#202020" d="M368.979,198.29c0.433-0.257,0.727-0.486,0.994-0.695c0.004-0.011,0-0.014,0.006-0.026L368.979,198.29
							z"/>
						<path fill="#202020" d="M280.687,106.396c-0.083-0.069-0.182-0.123-0.302-0.143
							C279.494,106.084,279.984,106.304,280.687,106.396z"/>
						<path fill="#202020" d="M311.088,129.979c-0.648,0.046-1.285,0.091-1.803-0.005
							C309.581,130.617,309.893,131.042,311.088,129.979z"/>
						<path fill="#202020" d="M249.658,77.399c0.028-0.021,0.009-0.006,0.039-0.029c-0.068-0.061-0.115-0.126-0.176-0.193
							L249.658,77.399z"/>
						<path fill="#202020" d="M308.133,128.639c0.042,0.875,0.51,1.211,1.152,1.335
							C309.051,129.438,308.824,128.763,308.133,128.639z"/>
						<path fill="#202020" d="M391.439,224.806l0.173,0.364c0.133-0.13,0.261-0.215,0.365-0.271L391.439,224.806z"/>
						<path fill="#202020" d="M391.978,224.899l0.534,0.093C392.379,224.847,392.248,224.736,391.978,224.899z"/>
						<path fill="#202020" d="M393.643,225.182l-1.131-0.189C392.717,225.228,392.911,225.572,393.643,225.182z"/>
						<path fill="#202020" d="M385.251,216.094l-0.836,0.598C384.614,216.599,384.887,216.409,385.251,216.094z"/>
						<path fill="#202020" d="M382.86,213.912c0.347,0.724-0.308,2.891,0.889,3.253l0.666-0.473
							C382.955,217.341,384.622,213.293,382.86,213.912z"/>
						<path fill="#202020" d="M383.104,195.481l1.217,2.545c0.485-1.081,1.146-2.523,2.166-1.792
							C386.586,191.535,385.165,198.39,383.104,195.481z"/>
						<path fill="#202020" d="M378.623,188.232c1.352,0.731,1.153-1.076,1.658-1.432
							C378.93,186.787,378.594,186.792,378.623,188.232z"/>
						<path fill="#202020" d="M337.844,143.511l1.989-1.616C338.807,141.316,339.094,142.555,337.844,143.511z"/>
						<polygon fill="#202020" points="320.28,143.873 319.84,145.748 321.92,144.551 						"/>
						<polygon fill="#202020" points="329.136,126.544 329.735,126.659 327.793,125.905 						"/>
						<path fill="#202020" d="M259.965,52.059l-2.101,2.374C258.793,54.609,261.515,52.341,259.965,52.059z"/>
						<path fill="#202020" d="M228.023,21.8c0.842-1.415,0.758-3.009-0.898-2.528C227.63,20.148,227.385,21.702,228.023,21.8z"/>
						<polygon fill="#202020" points="121.305,82.561 121.186,81.191 120.628,82.988 						"/>
					</g>
				</g>
			</g>
		</g>
	</g>
</g>
<g id="Calque_15">
</g>
<g id="Calque_16">
</g>
<g id="Calque_17">
</g>
<g id="Calque_18">
</g>
<g id="Calque_19">
</g>
<g id="Calque_20">
</g>
<g id="Calque_21">
</g>
<g id="Calque_22">
</g>
<g id="Calque_23">
</g>
<g id="Calque_24">
</g>
<g id="Calque_25">
</g>
<g id="Calque_26">
</g>
<g id="Calque_27">
</g>
</svg>
