<?xml version="1.0" encoding="UTF-8"?>
<svg version="1.1" xmlns="http://www.w3.org/2000/svg" viewBox="0 0 1181 1181">
<path d="M0 0 C3.4146247 0.32925321 5.25784218 1.81485277 7.73828125 4.08203125 C8.43518066 4.71447754 9.13208008 5.34692383 9.85009766 5.99853516 C10.55956543 6.65901855 11.2690332 7.31950195 12 8 C12.66950684 8.62052246 13.33901367 9.24104492 14.02880859 9.88037109 C16.09093817 11.80652509 18.14056788 13.74520947 20.1875 15.6875 C25.28702426 20.50738546 30.39653022 25.31385059 35.5625 30.0625 C40.42428919 34.53253029 45.24959996 39.03988207 50.0625 43.5625 C54.6829978 47.90353001 59.31838113 52.22492606 64 56.5 C70.0277402 62.00571669 75.97944635 67.59045162 81.9296875 73.1796875 C85.75720929 76.77468779 89.59605437 80.35739109 93.4375 83.9375 C99.5066407 89.59636871 105.55343944 95.27862787 111.59350586 100.96850586 C116.38930986 105.48581926 121.19195415 109.99572013 126 114.5 C135.06295153 122.99149449 144.10421197 131.5059693 153.14550781 140.02050781 C163.41779146 149.69376991 173.70291238 159.35314781 184 169 C192.89028524 177.32888588 201.77304227 185.6655887 210.64208984 194.01708984 C218.08375193 201.02310924 225.5412157 208.01221935 233 215 C241.89104044 223.32959339 250.77475051 231.66679511 259.64428711 240.01928711 C264.42368112 244.51911415 269.2097165 249.01176918 274 253.5 C275.97796659 255.35422067 277.95580924 257.20857341 279.93359375 259.06298828 C281.36295952 260.40284981 282.79266958 261.74234412 284.22265625 263.08154297 C286.48298475 265.19890472 288.74163204 267.31804747 291 269.4375 C292.02287109 270.39462891 292.02287109 270.39462891 293.06640625 271.37109375 C297.17690625 275.23222878 301.19592312 279.16768706 305.15283203 283.1862793 C306.99872507 284.99874815 308.90794757 286.69559746 310.875 288.375 C314.06682509 291.11621449 317.04302977 294.00685888 320 297 C322.89591958 299.93118191 325.80242571 302.76403174 328.9375 305.4375 C332.80617798 308.74346118 336.36064305 312.33144678 339.93115234 315.95068359 C343.15350409 319.19984173 346.49331816 322.22436334 349.97265625 325.19140625 C353.31879936 328.17650116 356.41593952 331.40882768 359.56640625 334.59765625 C361.63242365 336.63714373 363.73005549 338.555078 365.9375 340.4375 C369.80617798 343.74346118 373.36064305 347.33144678 376.93115234 350.95068359 C380.15350409 354.19984173 383.49331816 357.22436334 386.97265625 360.19140625 C390.31879936 363.17650116 393.41593952 366.40882768 396.56640625 369.59765625 C398.63242365 371.63714373 400.73005549 373.555078 402.9375 375.4375 C406.28925096 378.30172355 409.40556417 381.36334093 412.5 384.5 C415.57390527 387.61579123 418.66702145 390.65877238 422 393.5 C425.33297901 396.34122801 428.42608801 399.38421623 431.5 402.5 C434.55337951 405.59491502 437.62323685 408.61934277 440.9375 411.4375 C444.47679152 414.45352871 447.73493845 417.69448547 451 421 C454.20342923 424.24297163 457.3910724 427.42936164 460.875 430.375 C465.42089785 434.2361601 469.55685856 438.50433275 473.72607422 442.76318359 C476.70093104 445.78217524 479.725373 448.67080468 482.9375 451.4375 C487.88994174 455.71244008 492.42177931 460.37142343 497 465.0390625 C500.87539047 468.95986771 504.85496085 472.65675095 509.03125 476.25390625 C512.33755551 479.18628435 515.40718115 482.34584132 518.5 485.5 C524.08451207 491.17600394 524.08451207 491.17600394 530 496.5 C534.79514352 500.5380156 539.1045078 505.08125059 543.51171875 509.53125 C546.59207796 512.63005448 549.65516604 515.68329772 553 518.5 C557.78884143 522.53270857 562.09290732 527.06933149 566.49414062 531.51367188 C570.29861988 535.34109272 574.15568695 539.0207006 578.28125 542.50390625 C581.34722524 545.17269833 584.15964806 548.09568978 587 551 C592.02247247 546.7507154 596.89475325 542.3811217 601.6875 537.875 C602.38230469 537.22337891 603.07710937 536.57175781 603.79296875 535.90039062 C608.61925755 531.35356524 613.33176529 526.7092525 617.98974609 521.9909668 C620.51507311 519.44448747 623.0745742 517.00330448 625.8125 514.6875 C629.93704028 511.18553184 633.69570826 507.34134803 637.5 503.5 C641.80187213 499.15634691 646.10307911 494.93951233 650.78125 491 C654.80909056 487.36927048 658.57538415 483.46278673 662.37109375 479.59179688 C665.47525776 476.44497522 668.61881865 473.41664009 671.96875 470.53125 C676.1923881 466.88933509 680.09658163 462.97965701 684 459 C688.53982258 454.37150901 693.14986838 449.94623154 698.0625 445.71484375 C701.18503868 442.9511452 704.08420571 439.97848181 707 437 C711.18538009 432.76593984 715.39679523 428.68167957 719.9453125 424.8359375 C723.29990774 421.83848548 726.41599321 418.60363209 729.57641602 415.40405273 C732.90614333 412.04906433 736.3394922 408.90259395 739.94140625 405.83984375 C743.07153162 403.04233133 745.98685658 400.03375494 748.93383789 397.04663086 C752.13385771 393.82001347 755.45072272 390.82069539 758.90625 387.875 C761.53985527 385.51654752 764.01826514 383.01554596 766.5 380.5 C770.16847581 376.78154495 773.93149229 373.26331805 777.90625 369.875 C781.04520347 367.06399689 783.97350681 364.04732203 786.93139648 361.04907227 C790.15366448 357.79999393 793.49340645 354.77556137 796.97265625 351.80859375 C799.41428634 349.63041508 801.70048032 347.32751992 804 345 C806.89591958 342.06881809 809.80242571 339.23596826 812.9375 336.5625 C816.28925073 333.69827665 819.40556756 330.63666284 822.5 327.5 C826.18994588 323.75969662 829.97503698 320.2176065 833.97265625 316.80859375 C837.31743054 313.82471996 840.41335157 310.59380268 843.5625 307.40625 C846.25283906 304.75040247 849.06573525 302.29864568 851.9375 299.84375 C854.38924689 297.65203687 856.68885573 295.33932896 859 293 C861.89591958 290.06881809 864.80242571 287.23596826 867.9375 284.5625 C871.80538808 281.25721383 875.3592107 277.67005004 878.92895508 274.05151367 C882.17348701 270.77995805 885.53608678 267.73044025 889.0390625 264.7421875 C892.09229171 262.02955756 894.9140315 259.09399547 897.78125 256.1875 C900.40771122 253.59803119 903.16976458 251.21163036 905.96875 248.8125 C909.03974317 246.07222917 911.88786876 243.12053098 914.77734375 240.19140625 C917.4270144 237.57898932 920.21172803 235.16697379 923.03515625 232.74609375 C925.10820324 230.90384325 927.05435802 228.97598338 929 227 C931.55990134 224.40017817 934.1677954 221.93731602 936.9375 219.5625 C939.92801716 216.99334729 942.73116684 214.30682744 945.5 211.5 C948.88241399 208.0711721 952.38070442 204.87951482 956.03515625 201.74609375 C958.81561832 199.27518611 961.39118218 196.6183306 964 193.96875 C966.56305228 191.44574541 969.27345824 189.12437183 972 186.78125 C974.08337078 184.9257479 976.04281207 182.98776899 978 181 C981.20029522 177.74970017 984.54224576 174.75275755 988 171.78125 C990.08337078 169.9257479 992.04281207 167.98776899 994 166 C996.55990134 163.40017817 999.1677954 160.93731602 1001.9375 158.5625 C1004.92801716 155.99334729 1007.73116684 153.30682744 1010.5 150.5 C1013.88241399 147.0711721 1017.38070442 143.87951482 1021.03515625 140.74609375 C1023.10820324 138.90384325 1025.05435802 136.97598338 1027 135 C1029.55990134 132.40017817 1032.1677954 129.93731602 1034.9375 127.5625 C1037.92801716 124.99334729 1040.73116684 122.30682744 1043.5 119.5 C1046.86114482 116.0928121 1050.33701203 112.92541826 1053.96875 109.8125 C1057.03974317 107.07222917 1059.88786876 104.12053098 1062.77734375 101.19140625 C1065.4270144 98.57898932 1068.21172803 96.16697379 1071.03515625 93.74609375 C1073.81561832 91.27518611 1076.39118218 88.6183306 1079 85.96875 C1081.56305228 83.44574541 1084.27345824 81.12437183 1087 78.78125 C1089.70846663 76.36902191 1092.23152645 73.79591903 1094.75 71.1875 C1096.69817315 69.29344277 1098.68714327 67.51049805 1100.73828125 65.73046875 C1104.99450109 62.03321604 1109.09830103 58.19263 1113.1875 54.3125 C1118.30851722 49.47257543 1123.43899457 44.64528055 1128.625 39.875 C1133.26867879 35.60310597 1137.89058647 31.30885065 1142.5 27 C1148.33179519 21.55159966 1154.16455949 16.10449314 1160.05078125 10.71484375 C1161.94708893 8.97835455 1163.81149437 7.22177333 1165.66796875 5.44140625 C1166.45816406 4.69761719 1167.24835938 3.95382813 1168.0625 3.1875 C1168.73410156 2.54167969 1169.40570312 1.89585937 1170.09765625 1.23046875 C1172 -0 1172 -0 1174.12109375 0.17578125 C1176 1 1176 1 1178 3 C1177.96171158 6.69483224 1176.97536935 8.02816596 1174.5234375 10.83203125 C1173.48387043 11.835888 1172.43398879 12.82915326 1171.375 13.8125 C1167.29193896 17.68365534 1163.48804063 21.66473388 1159.8125 25.92700195 C1156.74275634 29.43793857 1153.52216009 32.80489716 1150.3125 36.1875 C1145.47257543 41.30851722 1140.64528055 46.43899457 1135.875 51.625 C1131.01025562 56.91312516 1126.11305871 62.17002702 1121.20605469 67.41894531 C1117.49632705 71.3897203 1113.8042439 75.37598478 1110.125 79.375 C1104.15801622 85.85570426 1098.11717061 92.26598194 1092.07421875 98.67578125 C1088.20834282 102.77656443 1084.35269188 106.88683298 1080.5 111 C1074.66939053 117.22356354 1068.82709974 123.43601981 1062.98046875 129.64453125 C1058.48073787 134.42385706 1053.98801601 139.20967322 1049.5 144 C1041.00846797 153.06291649 1032.49403082 162.10421184 1023.97949219 171.14550781 C1014.9275105 180.75803795 1005.88639539 190.38059561 996.85888672 200.01611328 C993.11437219 204.012426 989.36831494 208.00729269 985.62255859 212.00244141 C982.50959311 215.32277591 979.39697867 218.64343792 976.28515625 221.96484375 C969.19315645 229.53361665 962.09157943 237.09323635 954.98071289 244.64428711 C950.4808862 249.42368075 945.98809466 254.20958927 941.5 259 C935.03360033 265.90151553 928.55497114 272.79142133 922.0703125 279.67578125 C919.27001481 282.6491463 916.47363584 285.62613697 913.6796875 288.60546875 C912.9693335 289.362229 912.25897949 290.11898926 911.52709961 290.89868164 C910.18065706 292.33321951 908.83505138 293.76854354 907.49047852 295.20483398 C904.45425873 298.43773197 901.38959616 301.6288637 898.2421875 304.75390625 C895.95024646 307.03008517 893.76290334 309.33432297 891.6875 311.8125 C888.92381971 315.02333755 886.01380404 318.02267165 883 321 C880.06881809 323.89591958 877.23596826 326.80242571 874.5625 329.9375 C871.25653882 333.80617798 867.66855322 337.36064305 864.04931641 340.93115234 C860.80015827 344.15350409 857.77563666 347.49331816 854.80859375 350.97265625 C851.82349884 354.31879936 848.59117232 357.41593952 845.40234375 360.56640625 C843.36285627 362.63242365 841.444922 364.73005549 839.5625 366.9375 C836.25653882 370.80617798 832.66855322 374.36064305 829.04931641 377.93115234 C825.80015827 381.15350409 822.77563666 384.49331816 819.80859375 387.97265625 C816.82349884 391.31879936 813.59117232 394.41593952 810.40234375 397.56640625 C808.36285627 399.63242365 806.444922 401.73005549 804.5625 403.9375 C801.69827645 407.28925096 798.63665907 410.40556417 795.5 413.5 C792.38420877 416.57390527 789.34122762 419.66702145 786.5 423 C783.65877199 426.33297901 780.61578377 429.42608801 777.5 432.5 C774.40508498 435.55337951 771.38065723 438.62323685 768.5625 441.9375 C765.54647129 445.47679152 762.30551453 448.73493845 759 452 C755.75702837 455.20342923 752.57063836 458.3910724 749.625 461.875 C745.7638399 466.42089785 741.49566725 470.55685856 737.23681641 474.72607422 C734.21782476 477.70093104 731.32919532 480.725373 728.5625 483.9375 C724.28755992 488.88994174 719.62857657 493.42177931 714.9609375 498 C711.04013229 501.87539047 707.34324905 505.85496085 703.74609375 510.03125 C700.81371565 513.33755551 697.65415868 516.40718115 694.5 519.5 C688.82399606 525.08451207 688.82399606 525.08451207 683.5 531 C679.4619844 535.79514352 674.91874941 540.1045078 670.46875 544.51171875 C667.36994552 547.59207796 664.31670228 550.65516604 661.5 554 C657.46662802 558.78962922 652.92917849 563.09435721 648.48413086 567.49633789 C644.67911303 571.27856834 641.02441529 575.11283475 637.5625 579.21484375 C634.55633961 582.649382 631.26387436 585.812424 628 589 C632.08456509 594.10570636 636.61983668 598.50175458 641.46484375 602.87133789 C644.4761595 605.59076897 647.4049418 608.354338 650.25 611.25 C652.7057504 613.74617427 655.21567374 616.09709105 657.875 618.375 C661.9850008 621.90476539 665.74899523 625.73369242 669.5546875 629.5859375 C672.29123479 632.28751294 675.14979366 634.79078735 678.0703125 637.2890625 C680.84107582 639.74573119 683.402929 642.39359977 686 645.03125 C687.93891002 646.93986455 689.93699551 648.72710552 692 650.5 C695.51001511 653.51641923 698.75051276 656.73095132 701.99609375 660.02734375 C704.58246151 662.57337829 707.3153528 664.92021557 710.06640625 667.28515625 C712.53137872 669.47126314 714.81880547 671.80570755 717.12524414 674.15649414 C718.93351223 675.9346205 720.79611503 677.59696686 722.71875 679.25 C726.91314625 682.89746855 730.96655898 686.67623692 735 690.5 C736.49985379 691.91682146 737.99985729 693.33348445 739.5 694.75 C740.25152344 695.46027344 741.00304687 696.17054688 741.77734375 696.90234375 C745.17659961 700.11042881 748.58824432 703.30522094 752 706.5 C753.31647204 707.73430484 754.63287781 708.96868035 755.94921875 710.203125 C758.02309236 712.14773003 760.09778366 714.0914375 762.17431641 716.03320312 C770.04531274 723.39354542 777.88984514 730.75213719 785.41015625 738.47265625 C787.39579528 740.41037639 789.3882181 742.20123075 791.49609375 743.99609375 C798.26461245 749.86372935 804.4350408 756.38084966 810.72753906 762.74804688 C816.37845622 768.46000294 821.98744825 774.12708077 828.10888672 779.34033203 C831.93025004 782.69401494 835.47799804 786.3347563 839.0625 789.9375 C840.2081543 791.07735352 840.2081543 791.07735352 841.37695312 792.24023438 C842.13041016 792.99498047 842.88386719 793.74972656 843.66015625 794.52734375 C844.32668213 795.19499756 844.99320801 795.86265137 845.67993164 796.55053711 C847.61366471 798.59211807 849.45638215 800.66929786 851.29272461 802.79711914 C854.90910171 806.95420591 858.737091 810.8485894 862.65625 814.71875 C863.36221313 815.42092651 864.06817627 816.12310303 864.79553223 816.84655762 C867.02791358 819.06684603 869.26352111 821.28383955 871.5 823.5 C874.45090378 826.42409479 877.39833203 829.35163057 880.34375 832.28125 C881.00749634 832.936698 881.67124268 833.592146 882.35510254 834.26745605 C886.21516867 838.10752311 889.87726602 842.05738915 893.41748047 846.19482422 C895.96998902 849.10646387 898.73190458 851.79539492 901.5 854.5 C905.64386848 858.59203331 909.62297302 862.73372378 913.39453125 867.17578125 C915.73551716 869.8357336 918.26437087 872.2897374 920.8125 874.75 C922.70655723 876.69817315 924.48950195 878.68714327 926.26953125 880.73828125 C929.96678516 884.99450248 933.80739472 889.09827587 937.6875 893.1875 C944.02544999 899.8943099 950.31512574 906.64168567 956.56005859 913.43505859 C958.55107456 915.59891285 960.54699596 917.75821761 962.54272461 919.91772461 C971.75698841 929.88985235 980.9332016 939.89328207 990 950 C991.49971128 951.66692647 992.99971321 953.33359149 994.5 955 C1003.5 965 1003.5 965 1005.7421875 967.4921875 C1007.26708244 969.18592894 1008.79315402 970.87861169 1010.3203125 972.5703125 C1015.87225646 978.72450123 1021.37295293 984.91482631 1026.75 991.22265625 C1031.49079323 996.78122479 1036.24086217 1002.30937974 1041.1875 1007.6875 C1045.21393836 1012.07355646 1048.98109722 1016.61741628 1052.71875 1021.25 C1055.06718968 1024.08099578 1057.50909902 1026.79383598 1060 1029.5 C1064.11378909 1033.9698512 1067.97087297 1038.59044893 1071.78515625 1043.31640625 C1073.95632827 1045.94708557 1076.20241357 1048.47942424 1078.5 1051 C1082.34510875 1055.22364277 1085.96758171 1059.5869793 1089.55859375 1064.02734375 C1092.27719139 1067.33750824 1095.07070096 1070.5750821 1097.875 1073.8125 C1102.36474116 1079.00658397 1106.65124952 1084.3222888 1110.85498047 1089.74926758 C1114.11939491 1093.93994355 1117.51776108 1097.98913204 1121 1102 C1125.41783137 1107.09329957 1129.65432812 1112.29125159 1133.78955078 1117.6159668 C1137.25246867 1122.07014031 1140.79939015 1126.44846605 1144.375 1130.8125 C1149.38335105 1136.94106212 1154.25617103 1143.15885759 1159.0234375 1149.47680664 C1161.94131874 1153.33847337 1164.9096923 1157.14405667 1167.96484375 1160.8984375 C1168.61718994 1161.70877441 1169.26953613 1162.51911133 1169.94165039 1163.35400391 C1171.20598418 1164.9208901 1172.48211412 1166.47834935 1173.77124023 1168.02490234 C1174.33915283 1168.73340332 1174.90706543 1169.4419043 1175.4921875 1170.171875 C1176.00120605 1170.7915918 1176.51022461 1171.41130859 1177.03466797 1172.04980469 C1178.36198048 1174.73128479 1177.91561935 1176.20567388 1177 1179 C1176.34 1179.66 1175.68 1180.32 1175 1181 C1169.68459743 1180.98049394 1166.01214961 1177.26993467 1162.0625 1174.125 C1161.31250732 1173.53928223 1160.56251465 1172.95356445 1159.78979492 1172.35009766 C1157.52006321 1170.57478913 1155.2597216 1168.78802235 1153 1167 C1151.755929 1166.02512131 1150.51118903 1165.05109539 1149.265625 1164.078125 C1146.96675236 1162.28050305 1144.67267909 1160.47704834 1142.3828125 1158.66796875 C1140.13390307 1156.89152473 1137.87871945 1155.12362644 1135.6171875 1153.36328125 C1128.42215474 1147.75491929 1121.34792402 1142.01745734 1114.32373047 1136.1965332 C1109.87355821 1132.51695136 1105.37413912 1128.91512622 1100.8125 1125.375 C1095.41731919 1121.18191821 1090.20436034 1116.81084719 1085.03833008 1112.33935547 C1081.56842176 1109.33700962 1078.064109 1106.3909464 1074.5 1103.5 C1069.65688767 1099.56853235 1064.92375819 1095.52120602 1060.20019531 1091.44799805 C1056.59434997 1088.34560475 1052.94796208 1085.3053422 1049.25 1082.3125 C1044.87348373 1078.76137934 1040.6916854 1075.04202602 1036.52734375 1071.24609375 C1033.93037607 1068.93812402 1031.26595987 1066.74444137 1028.5625 1064.5625 C1023.78571491 1060.69941783 1019.26053118 1056.62088565 1014.7421875 1052.4609375 C1012.09984117 1050.08960105 1009.39305833 1047.84747003 1006.625 1045.625 C1001.19108991 1041.24055753 996.10173982 1036.54499937 991 1031.78515625 C988.04123978 1029.02653661 985.01604915 1026.35388674 981.95703125 1023.70703125 C979.6144085 1021.66366569 977.30726578 1019.58319141 975 1017.5 C972.06321535 1014.84886006 969.11397458 1012.21709829 966.125 1009.625 C962.15747276 1006.17148439 958.2915236 1002.6099606 954.42236328 999.04736328 C951.64541318 996.49474237 948.85036687 993.97031795 946 991.5 C942.11949075 988.13474509 938.33977721 984.66284384 934.56030273 981.18530273 C931.41251291 978.29032364 928.24779048 975.4163131 925.0625 972.5625 C919.54870443 967.61241516 914.11087042 962.58180428 908.67333984 957.54833984 C906.49033075 955.5284035 904.30487201 953.51113038 902.11914062 951.49414062 C900.49188669 949.99251305 898.86508533 948.49039616 897.23828125 946.98828125 C895.11224285 945.02563698 892.98455224 943.06480905 890.85546875 941.10546875 C883.57528547 934.4022014 876.34140152 927.65102911 869.12890625 920.875 C866.35046996 918.2649738 863.56628324 915.66129918 860.77734375 913.0625 C854.20341129 906.93077063 847.67011203 900.79459299 841.40625 894.34375 C839.43015374 892.41898092 837.42333403 890.62655453 835.33203125 888.83203125 C831.13502078 885.17036466 827.19346191 881.30549271 823.28125 877.34375 C822.57907349 876.63778687 821.87689697 875.93182373 821.15344238 875.20446777 C818.18616234 872.22102625 815.22494637 869.2315929 812.26318359 866.24267578 C810.08381535 864.04509421 807.90135053 861.85062062 805.71875 859.65625 C805.063302 858.99250366 804.407854 858.32875732 803.73254395 857.64489746 C799.88988104 853.78222195 795.92693722 850.13269841 791.80239868 846.5730896 C789.55312282 844.60997649 787.4210475 842.55050195 785.30859375 840.44140625 C784.50873047 839.64283203 783.70886719 838.84425781 782.88476562 838.02148438 C782.07716797 837.21001953 781.26957031 836.39855469 780.4375 835.5625 C779.62603516 834.75490234 778.81457031 833.94730469 777.97851562 833.11523438 C774.43163265 829.562626 770.94939148 826.00429477 767.69140625 822.18359375 C762.6344299 816.30371277 757.01383156 810.94633493 751.5 805.5 C738.92769711 793.08159881 738.92769711 793.08159881 733.55664062 786.77929688 C730.8607342 783.69777774 727.92425218 780.86268045 725 778 C720.70082317 773.75042689 716.54459924 769.47208324 712.63671875 764.85546875 C709.96948407 761.83175402 707.06066135 759.05307203 704.19140625 756.22265625 C701.57898932 753.5729856 699.16697379 750.78827197 696.74609375 747.96484375 C694.34790999 745.26621639 691.78388476 742.75685425 689.1875 740.25 C687.29097086 738.29928431 685.50528958 736.30750988 683.72265625 734.25390625 C680.06631468 730.04507678 676.27335413 725.9824702 672.4375 721.9375 C671.02056798 720.43775066 669.60390626 718.9377459 668.1875 717.4375 C667.48367188 716.69242188 666.77984375 715.94734375 666.0546875 715.1796875 C663.00384969 711.94324739 659.96956 708.69152379 656.9375 705.4375 C651.53235136 699.63936128 646.11721442 693.85072902 640.69311523 688.0703125 C637.44647194 684.6103799 634.20279846 681.14775462 630.96484375 677.6796875 C630.300896 676.9693335 629.63694824 676.25897949 628.95288086 675.52709961 C627.69621913 674.18246056 626.44044968 672.83698677 625.18579102 671.49047852 C622.26296074 668.36520113 619.30620697 665.28852832 616.26953125 662.2734375 C613.96843509 659.98805833 611.77122615 657.67561505 609.6875 655.1875 C606.14169793 651.06799512 602.3075597 647.28566753 598.43359375 643.4765625 C595.59645484 640.58932965 593.00853002 637.55114544 590.47265625 634.3984375 C588.97590293 632.6557011 588.97590293 632.6557011 586 633 C584.4010083 634.27606971 584.4010083 634.27606971 582.890625 636.03515625 C582.30023437 636.68033203 581.70984375 637.32550781 581.1015625 637.99023438 C580.49054687 638.67408203 579.87953125 639.35792969 579.25 640.0625 C578.0481703 641.38789444 576.84504694 642.712117 575.640625 644.03515625 C575.0427417 644.69378662 574.4448584 645.35241699 573.82885742 646.03100586 C571.45640287 648.58525041 568.98724111 651.03237951 566.50927734 653.48364258 C564.81093096 655.18995597 563.23299576 656.96706976 561.6875 658.8125 C558.92381971 662.02333755 556.01380404 665.02267165 553 668 C549.39280873 671.56359983 546.00522111 675.21924856 542.7109375 679.0703125 C540.25426881 681.84107582 537.60640023 684.402929 534.96875 687 C533.06013545 688.93891002 531.27289448 690.93699551 529.5 693 C526.48358077 696.51001511 523.26904868 699.75051276 519.97265625 702.99609375 C517.42662171 705.58246151 515.07978443 708.3153528 512.71484375 711.06640625 C510.4995262 713.56431556 508.1310183 715.88024989 505.75 718.21875 C503.91757513 720.08389674 502.20646865 722.01927746 500.5 724 C497.71760668 727.22956367 494.78980571 730.23322653 491.75 733.21875 C489.91757513 735.08389674 488.20646865 737.01927746 486.5 739 C484.2544206 741.60647609 481.95448488 744.08934521 479.5 746.5 C477.10722509 748.85033101 474.86808888 751.264224 472.6875 753.8125 C469.92381971 757.02333755 467.01380404 760.02267165 464 763 C461.08946199 765.87557659 458.27575978 768.75874094 455.625 771.875 C452.14207302 775.95217045 448.36295927 779.69652562 444.52587891 783.43701172 C441.84527662 786.07110372 439.31490642 788.76564235 436.875 791.625 C431.40662659 797.94668003 425.34198022 803.71358443 419.39746094 809.58203125 C412.33037067 816.49688292 412.33037067 816.49688292 405.68359375 823.80859375 C400.50475455 829.87433855 394.73872048 835.40941207 389.09399414 841.03637695 C387.0673702 843.05764268 385.04614453 845.08419574 383.02539062 847.11132812 C377.52742818 852.61183385 372.059823 858.05790554 366.12670898 863.09155273 C360.51052173 868.1313571 355.30491158 873.63700545 350 879 C335.83641679 893.31865893 335.83641679 893.31865893 329.6640625 898.55859375 C326.96502102 900.89649587 324.49101019 903.44464012 322 906 C318.08746404 909.96663765 314.10438804 913.74585151 309.859375 917.359375 C307.10917227 919.78602447 304.57611823 922.41486231 302.00390625 925.02734375 C299.41753849 927.57337829 296.6846472 929.92021557 293.93359375 932.28515625 C291.4689653 934.47095804 289.18183571 936.80504615 286.87573242 939.15551758 C285.06203011 940.93900332 283.193583 942.60705022 281.265625 944.265625 C277.16562852 947.83051165 273.19756457 951.51793523 269.25 955.25 C262.55045358 961.55710437 255.79576069 967.7967852 249 974 C247.98142282 974.93451665 246.96319948 975.86941912 245.9453125 976.8046875 C239.66462365 982.57510776 233.34876237 988.30448649 227 994 C225.33307353 995.49971128 223.66640851 996.99971321 222 998.5 C221.17757812 999.23992188 220.35515625 999.97984375 219.5078125 1000.7421875 C217.81407106 1002.26708244 216.12138831 1003.79315402 214.4296875 1005.3203125 C210.0045187 1009.31243726 205.55662865 1013.27325892 201.0625 1017.1875 C198.69035571 1019.27211164 196.34443935 1021.38428644 194 1023.5 C188.63983189 1028.33227276 183.22990426 1033.09818856 177.7421875 1037.78515625 C176.53643324 1038.81507479 175.33070477 1039.84502353 174.125 1040.875 C173.51648193 1041.39465332 172.90796387 1041.91430664 172.28100586 1042.44970703 C168.74376142 1045.47892533 165.25607423 1048.55148583 161.8125 1051.6875 C158.47772886 1054.71712868 155.06712361 1057.60608092 151.5625 1060.4375 C147.75912497 1063.51336588 144.09917348 1066.68753166 140.5 1070 C136.13230508 1074.01605847 131.63150764 1077.79385454 127.015625 1081.51953125 C123.45329519 1084.44968595 119.97534874 1087.46769057 116.5 1090.5 C111.32227942 1095.01379376 106.08486694 1099.43053123 100.74609375 1103.75390625 C97.61010122 1106.31890725 94.52257156 1108.93671651 91.4375 1111.5625 C86.94053601 1115.38397121 82.39343814 1119.12521708 77.76953125 1122.79296875 C74.28631357 1125.5687346 70.8302562 1128.377054 67.375 1131.1875 C66.69421387 1131.74074951 66.01342773 1132.29399902 65.31201172 1132.86401367 C61.82787729 1135.6963487 58.34711343 1138.53271151 54.87109375 1141.375 C47.82308128 1147.13172194 40.73204765 1152.80465841 33.49609375 1158.32421875 C28.44677359 1162.17690497 23.44758073 1166.0945684 18.44189453 1170.00366211 C17.00578813 1171.12311751 15.56752247 1172.23980922 14.12695312 1173.35351562 C12.67177609 1174.47997498 11.22281729 1175.61450067 9.77929688 1176.75585938 C8.7187207 1177.58053711 8.7187207 1177.58053711 7.63671875 1178.421875 C7.00596436 1178.9178418 6.37520996 1179.41380859 5.7253418 1179.92480469 C4 1181 4 1181 1.125 1181 C-1 1180 -1 1180 -3 1178 C-2.6795555 1174.28982978 -1.60573065 1172.04190048 0.703125 1169.171875 C1.26451172 1168.46345459 1.82589844 1167.75503418 2.40429688 1167.02514648 C3.01337891 1166.27434814 3.62246094 1165.5235498 4.25 1164.75 C5.53728348 1163.13216663 6.82372294 1161.51366138 8.109375 1159.89453125 C8.76228516 1159.07678223 9.41519531 1158.2590332 10.08789062 1157.41650391 C12.94946718 1153.80007327 15.72072313 1150.11725741 18.5 1146.4375 C24.61759112 1138.38487699 31.03446813 1130.59707042 37.49609375 1122.81982422 C40.087368 1119.68421411 42.61663234 1116.50001657 45.1484375 1113.31640625 C47.97629414 1109.77860248 50.84987449 1106.27869998 53.72265625 1102.77734375 C55.21300202 1100.95978656 56.70011494 1099.13957252 58.18359375 1097.31640625 C62.70034575 1091.76909408 67.28329098 1086.28472248 71.91577148 1080.83422852 C74.79520268 1077.4408462 77.63189727 1074.01750083 80.4375 1070.5625 C84.85262824 1065.13999847 89.40012477 1059.83872545 93.9609375 1054.5390625 C96.82597197 1051.20834623 99.66646647 1047.85752211 102.5 1044.5 C117.9188719 1026.25210514 117.9188719 1026.25210514 124.6875 1018.8125 C127.6791816 1015.52057795 130.52524423 1012.15408693 133.3125 1008.6875 C137.72138108 1003.23623899 142.4352398 998.12286502 147.21484375 993 C149.97346339 990.04123978 152.64611326 987.01604915 155.29296875 983.95703125 C157.33633431 981.6144085 159.41680859 979.30726578 161.5 977 C164.15113994 974.06321535 166.78290171 971.11397458 169.375 968.125 C172.82851561 964.15747276 176.3900394 960.2915236 179.95263672 956.42236328 C182.50525763 953.64541318 185.02968205 950.85036687 187.5 948 C190.86525491 944.11949075 194.33715616 940.33977721 197.81469727 936.56030273 C200.70967636 933.41251291 203.5836869 930.24779048 206.4375 927.0625 C211.39036123 921.54561186 216.4240376 916.10501172 221.46044922 910.66455078 C222.95596735 909.04760777 224.44916259 907.42855869 225.94140625 905.80859375 C233.003192 898.14349843 240.10544872 890.51692505 247.22216797 882.90283203 C249.55111289 880.41013817 251.87774001 877.91528721 254.2043457 875.42041016 C256.53147873 872.92576551 258.86053186 870.43291652 261.18945312 867.93994141 C263.07093966 865.92399049 264.94954843 863.90538129 266.828125 861.88671875 C273.24464628 855.00360029 279.69704498 848.19262284 286.4375 841.625 C288.38829918 839.62662035 290.19254208 837.62382556 291.99951172 835.50268555 C296.61726595 830.20884962 301.59169572 825.28319178 306.5703125 820.33203125 C307.57988176 819.32433301 308.58922607 818.31640936 309.59835815 817.30827332 C312.23437409 814.67604184 314.87337673 812.04682546 317.51306152 809.41827393 C320.19412004 806.74746861 322.87233514 804.07381536 325.55078125 801.40039062 C330.26476765 796.6959242 334.98120817 791.99393291 339.69949341 787.29377747 C343.38838643 783.61567469 347.07104113 779.93142903 350.74536133 776.23876953 C354.6006592 772.36555539 358.45910313 768.4954911 362.31860352 764.62646484 C363.97673365 762.96330269 365.63396559 761.29924456 367.2902832 759.63427734 C369.69763048 757.21471489 372.1082687 754.79847239 374.51953125 752.3828125 C375.25001175 751.64717072 375.98049225 750.91152893 376.73310852 750.15359497 C380.75829793 746.12797371 384.87070395 742.2757091 389.20024109 738.57833862 C392.28579435 735.87239404 395.13054036 732.93116845 398 730 C402.22816505 725.72253996 406.48420636 721.59028693 411.078125 717.703125 C414.39225334 714.76621452 417.44374844 711.56305586 420.5546875 708.4140625 C423.29123479 705.71248706 426.14979366 703.20921265 429.0703125 700.7109375 C431.75916548 698.32689376 434.25477545 695.77183972 436.75 693.1875 C438.70071569 691.29097086 440.69249012 689.50528958 442.74609375 687.72265625 C446.95492322 684.06631468 451.0175298 680.27335413 455.0625 676.4375 C456.56224934 675.02056798 458.0622541 673.60390626 459.5625 672.1875 C460.30757813 671.48367188 461.05265625 670.77984375 461.8203125 670.0546875 C465.05675261 667.00384969 468.30847621 663.96956 471.5625 660.9375 C478.7173212 654.26762299 485.85443212 647.57901436 492.98828125 640.88671875 C494.98120636 639.01762588 496.97484973 637.14930252 498.96875 635.28125 C502.28467391 632.17455966 505.59930632 629.06649696 508.91308594 625.95751953 C510.35610758 624.60396928 511.79949042 623.25080404 513.24316406 621.89794922 C515.51735143 619.76644268 517.79006385 617.63337329 520.0625 615.5 C520.7527124 614.85361572 521.4429248 614.20723145 522.15405273 613.54125977 C525.39762693 610.49347634 528.59980428 607.41787433 531.734375 604.2578125 C534.72171153 601.24888688 537.85173026 598.49040854 541.10546875 595.7734375 C543.32910215 593.69193324 545.14455603 591.41084294 547 589 C546.21496094 588.2265625 545.42992187 587.453125 544.62109375 586.65625 C535.07339815 577.20602648 535.07339815 577.20602648 531.6875 573.1875 C528.18553184 569.06295972 524.34134803 565.30429174 520.5 561.5 C516.15634691 557.19812787 511.93951233 552.89692089 508 548.21875 C504.96327156 544.84987939 501.72188306 541.69090341 498.5 538.5 C494.15635562 534.19812143 489.93951243 529.89692101 486 525.21875 C482.36927048 521.19090944 478.46278673 517.42461585 474.59179688 513.62890625 C471.44497522 510.52474224 468.41664009 507.38118135 465.53125 504.03125 C461.88933509 499.8076119 457.97965701 495.90341837 454 492 C449.37150901 487.46017742 444.94623154 482.85013162 440.71484375 477.9375 C437.9511452 474.81496132 434.97848181 471.91579429 432 469 C427.76593984 464.81461991 423.68167957 460.60320477 419.8359375 456.0546875 C416.83848548 452.70009226 413.60363209 449.58400679 410.40405273 446.42358398 C407.04906433 443.09385667 403.90259395 439.6605078 400.83984375 436.05859375 C398.04233133 432.92846838 395.03375494 430.01314342 392.04663086 427.06616211 C388.82001347 423.86614229 385.82069539 420.54927728 382.875 417.09375 C380.51654752 414.46014473 378.01554596 411.98173486 375.5 409.5 C371.78154495 405.83152419 368.26331805 402.06850771 364.875 398.09375 C362.06399689 394.95479653 359.04732203 392.02649319 356.04907227 389.06860352 C352.79999393 385.84633552 349.77556137 382.50659355 346.80859375 379.02734375 C343.82471996 375.68256946 340.59380268 372.58664843 337.40625 369.4375 C334.75040247 366.74716094 332.29864568 363.93426475 329.84375 361.0625 C327.65203687 358.61075311 325.33932896 356.31114427 323 354 C320.06881809 351.10408042 317.23596826 348.19757429 314.5625 345.0625 C311.69827665 341.71074927 308.63666284 338.59443244 305.5 335.5 C301.75969662 331.81005412 298.2176065 328.02496302 294.80859375 324.02734375 C292.63041508 321.58571366 290.32751992 319.29951968 288 317 C285.06881809 314.10408042 282.23596826 311.19757429 279.5625 308.0625 C276.25721383 304.19461192 272.67005004 300.6407893 269.05151367 297.07104492 C265.77995805 293.82651299 262.73044025 290.46391322 259.7421875 286.9609375 C257.03077636 283.90908012 254.09662853 281.08855234 251.19140625 278.22265625 C248.57898932 275.5729856 246.16697379 272.78827197 243.74609375 269.96484375 C241.90384325 267.89179676 239.97598338 265.94564198 238 264 C235.40017817 261.44009866 232.93731602 258.8322046 230.5625 256.0625 C227.99334729 253.07198284 225.30682744 250.26883316 222.5 247.5 C219.0711721 244.11758601 215.87951482 240.61929558 212.74609375 236.96484375 C210.27518611 234.18438168 207.6183306 231.60881782 204.96875 229 C202.44574541 226.43694772 200.12437183 223.72654176 197.78125 221 C195.9257479 218.91662922 193.98776899 216.95718793 192 215 C189.40017817 212.44009866 186.93731602 209.8322046 184.5625 207.0625 C181.99334729 204.07198284 179.30682744 201.26883316 176.5 198.5 C173.0711721 195.11758601 169.87951482 191.61929558 166.74609375 187.96484375 C164.27518611 185.18438168 161.6183306 182.60881782 158.96875 180 C156.44574541 177.43694772 154.12437183 174.72654176 151.78125 172 C149.9257479 169.91662922 147.98776899 167.95718793 146 166 C143.40017817 163.44009866 140.93731602 160.8322046 138.5625 158.0625 C135.99334729 155.07198284 133.30682744 152.26883316 130.5 149.5 C127.0928121 146.13885518 123.92541826 142.66298797 120.8125 139.03125 C118.07222917 135.96025683 115.12053098 133.11213124 112.19140625 130.22265625 C109.57898932 127.5729856 107.16697379 124.78827197 104.74609375 121.96484375 C102.90384325 119.89179676 100.97598338 117.94564198 99 116 C96.40017817 113.44009866 93.93731602 110.8322046 91.5625 108.0625 C88.28989507 104.25315804 84.76899563 100.75178891 81.1953125 97.2265625 C78.55993257 94.55366826 76.12233511 91.74631697 73.6796875 88.8984375 C71.47834607 86.41040974 69.11911485 84.10805923 66.75 81.78125 C64.29365151 79.28103815 62.03690632 76.62319484 59.75 73.96875 C57.54989828 71.49363556 55.20585486 69.19254273 52.84301758 66.87426758 C51.06882371 65.06999067 49.41067338 63.21170309 47.76171875 61.29296875 C44.05284026 57.02751351 40.20268209 52.91229268 36.3125 48.8125 C30.99162189 43.18259647 25.69622122 37.53238363 20.45410156 31.82910156 C17.75776678 28.89782406 15.04867124 25.97940714 12.32421875 23.07421875 C11.69854004 22.40664551 11.07286133 21.73907227 10.42822266 21.05126953 C9.22226425 19.76577657 8.01499654 18.48151009 6.80615234 17.19873047 C-3.02000976 6.72035149 -3.02000976 6.72035149 -2.9375 3.75 C-2 2 -2 2 0 0 Z " fill="#000000" transform="translate(3,0)"/>
</svg>
