<?xml version="1.0" encoding="UTF-8"?>
<svg version="1.1" xmlns="http://www.w3.org/2000/svg" width="1567" height="1181">
<path d="M0 0 C10.00574181 -0.12069905 20.01118098 -0.20934965 30.01752472 -0.26032257 C33.06291428 -0.27643081 36.10801658 -0.30149134 39.15326691 -0.33466339 C42.73069957 -0.37297508 46.30770116 -0.39103863 49.88533211 -0.39430428 C51.82724819 -0.40078033 53.76906759 -0.42698568 55.7108078 -0.45391083 C68.29142807 -0.42347689 77.88556284 3.05067023 86.8527298 11.90758514 C97.14593622 23.02948192 98.23413985 35.08064953 98.5089798 49.73180389 C98.54504893 51.32212954 98.58152648 52.91244596 98.6183548 54.50275421 C99.22417106 81.93895683 99.52464873 109.38356356 99.88256454 136.82391739 C99.94717452 141.77435235 100.0128058 146.72477351 100.07852936 151.67519379 C100.4467738 179.45094773 100.80637809 207.22684299 101.11884308 235.00328827 C101.13006132 235.9974752 101.14127956 236.99166214 101.15283775 238.01597595 C101.37055999 257.74948104 101.54887924 277.48336771 101.71088409 297.2173996 C101.71995804 298.31867726 101.72903199 299.41995493 101.73838091 300.55460465 C101.79791517 307.78525185 101.85689787 315.01590344 101.91568446 322.24655676 C101.9465825 326.0373725 101.97772432 329.82818618 102.00892067 333.61899948 C102.62571791 408.7133415 103.10291161 483.80568359 103.13479342 592.61230398 C103.13398922 597.76470787 103.1340426 602.91711131 103.13451004 608.06951523 C103.14157515 691.20524528 102.91462841 774.33834798 102.02572733 920.64557588 C102.0090317 923.20431853 101.99241247 925.76306167 101.97582197 928.321805 C101.49446967 1002.5581436 100.99739776 1076.7938488 99.9464798 1151.02477264 C100.75531931 1151.0503402 101.56415882 1151.07590776 102.39750862 1151.1022501 C117.94867791 1151.59742013 133.49359156 1152.12352953 149.0324173 1152.92711639 C150.68407081 1153.01074846 152.3357333 1153.0942034 153.98740387 1153.17749786 C157.39311918 1153.34980504 160.79873945 1153.523845 164.2042923 1153.69933319 C168.46106213 1153.91859518 172.71802349 1154.13384464 176.97505569 1154.34794426 C192.98907359 1155.15440015 209.0014694 1155.98980204 225.00631332 1156.96337318 C226.3918668 1157.04752831 227.7774836 1157.13064817 229.16316605 1157.21265221 C231.05941873 1157.32551054 232.9553524 1157.44369116 234.85126495 1157.56212616 C236.44462173 1157.6602636 236.44462173 1157.6602636 238.07016754 1157.76038361 C240.75839244 1158.00748376 243.31337427 1158.43940845 245.9464798 1159.02477264 C245.9464798 1161.66477264 245.9464798 1164.30477264 245.9464798 1167.02477264 C226.67447964 1168.69674843 207.3867715 1169.88088865 188.0714798 1170.89977264 C187.28412193 1170.94151989 186.49676407 1170.98326714 185.68554688 1171.02627945 C120.28683708 1174.49039105 54.8488616 1176.92661953 -10.6160202 1178.71227264 C-11.73796532 1178.7429546 -12.85991043 1178.77363655 -14.01585388 1178.80524826 C-21.61291488 1179.01240331 -29.21011939 1179.21358373 -36.80742645 1179.41149139 C-37.72686728 1179.43579853 -38.6463081 1179.46010567 -39.59361076 1179.48514938 C-46.34585802 1179.66250408 -53.09842949 1179.82218759 -59.85128236 1179.97465944 C-62.3170839 1180.03077019 -64.78285281 1180.08822417 -67.2486248 1180.14561844 C-97.48236679 1180.84360092 -127.70275232 1181.1991121 -157.94428992 1181.22496128 C-161.35548078 1181.22798883 -164.76666895 1181.23210793 -168.17785835 1181.23646545 C-179.17127254 1181.25010006 -190.16467972 1181.2597595 -201.15810174 1181.26366735 C-212.06330487 1181.26757779 -222.96841647 1181.27916779 -233.87358856 1181.30602264 C-306.08162657 1181.47936137 -378.24124394 1180.58988153 -450.43646608 1179.32833425 C-458.41679679 1179.18890087 -466.39713249 1179.04975564 -474.37747546 1178.91102506 C-476.40410367 1178.87579328 -478.4307314 1178.84053361 -480.45735864 1178.80524634 C-528.30011071 1177.97286455 -576.14486005 1177.32865088 -623.99085808 1176.71563029 C-630.66666911 1176.63006898 -637.34247174 1176.54386511 -644.0182724 1176.45749855 C-645.12604765 1176.44316891 -646.2338229 1176.42883926 -647.37516709 1176.41407539 C-649.61916514 1176.38504736 -651.86316318 1176.3560184 -654.10716121 1176.32698851 C-668.89942021 1176.13568201 -683.69168614 1175.94491723 -698.48396111 1175.75484943 C-751.7222236 1175.07062729 -804.96026634 1174.37021716 -858.19805145 1173.64977264 C-859.41740695 1173.63327312 -860.63676244 1173.6167736 -861.8930681 1173.59977409 C-962.86790951 1172.23252739 -1063.83805261 1170.63568151 -1164.80650672 1168.86027119 C-1171.37856798 1168.74478516 -1177.95064367 1168.63014705 -1184.52272797 1168.51597977 C-1206.41727073 1168.13556123 -1228.31169298 1167.74921725 -1250.20594906 1167.35262687 C-1255.7080813 1167.25312722 -1261.21024733 1167.15567098 -1266.71243095 1167.05905914 C-1273.22727001 1166.94458094 -1279.74203855 1166.82678939 -1286.25673508 1166.70445823 C-1289.52326764 1166.64317713 -1292.78981401 1166.58380062 -1296.05643559 1166.5274328 C-1299.55732477 1166.46673489 -1303.05805986 1166.40036814 -1306.558815 1166.33243561 C-1308.08576879 1166.30792674 -1308.08576879 1166.30792674 -1309.64357013 1166.28292274 C-1310.5707418 1166.26373063 -1311.49791348 1166.24453852 -1312.45318127 1166.22476482 C-1313.2513085 1166.2101704 -1314.04943572 1166.19557598 -1314.87174863 1166.18053931 C-1317.03914673 1166.02579883 -1318.96737117 1165.61864783 -1321.0535202 1165.02477264 C-1321.0535202 1163.37477264 -1321.0535202 1161.72477264 -1321.0535202 1160.02477264 C-1315.46897584 1159.87473415 -1309.88428237 1159.73317003 -1304.29936981 1159.59752655 C-1302.42431922 1159.55102093 -1300.54931226 1159.50269745 -1298.67436981 1159.45201874 C-1283.3360186 1159.0396296 -1268.00639027 1158.99704506 -1252.66362762 1159.01110077 C-1250.56054693 1159.01220046 -1248.45746617 1159.01319813 -1246.35438538 1159.01409149 C-1241.25409558 1159.01647678 -1236.15380852 1159.02023861 -1231.0535202 1159.02477264 C-1231.05810021 1157.66883483 -1231.05810021 1157.66883483 -1231.06277275 1156.28550434 C-1231.23752526 1101.45903414 -1231.00952629 1046.64118984 -1230.4675827 991.81774139 C-1230.46009115 991.05893396 -1230.45259959 990.30012654 -1230.44488102 989.51832494 C-1230.24883611 969.68536756 -1230.04307988 949.8525144 -1229.83396471 930.01969105 C-1229.71122605 918.37218526 -1229.59086703 906.7246566 -1229.47203827 895.07711029 C-1229.46350654 894.24100067 -1229.4549748 893.40489105 -1229.44618453 892.54344478 C-1229.41165913 889.1593464 -1229.37714797 885.77524789 -1229.34265573 882.39114917 C-1229.03713605 852.41613814 -1228.72691919 822.44117812 -1228.41310528 792.46625285 C-1228.12036901 764.50418384 -1227.83311057 736.54206344 -1227.54875004 708.57990783 C-1227.3741006 691.41634462 -1227.19679604 674.25280876 -1227.01899683 657.08927792 C-1226.95935128 651.32851384 -1226.9000939 645.56774594 -1226.84117711 639.80697435 C-1226.64496361 620.63131575 -1226.44184993 601.45579815 -1226.20899773 582.28054523 C-1226.11031344 574.11632651 -1226.02206706 565.95211722 -1225.94654024 557.78765064 C-1225.89307114 552.08066329 -1225.82931291 546.37385061 -1225.7574774 540.66706508 C-1225.71670587 537.40113343 -1225.68206564 534.13534478 -1225.65706253 530.86924934 C-1225.62950332 527.35853143 -1225.58417992 523.84846927 -1225.53447723 520.33800507 C-1225.53086811 519.32944395 -1225.52725899 518.32088284 -1225.5235405 517.28175926 C-1225.2895613 504.23927674 -1221.13708564 495.76389154 -1211.8660202 486.77477264 C-1198.17743027 475.14289906 -1177.13727869 477.73449966 -1160.2253952 477.15758514 C-1157.92807919 477.07753883 -1155.63076687 476.99738658 -1153.33345795 476.91713715 C-1147.11888718 476.70132139 -1140.90416633 476.49018406 -1134.68937683 476.28076935 C-1130.79504998 476.1494871 -1126.90075542 476.01727483 -1123.0064621 475.88500214 C-1082.80872678 474.52420941 -1042.60746332 473.36555241 -1002.39899445 472.37281799 C-998.44849565 472.27526591 -994.49801717 472.17691823 -990.54753876 472.07854462 C-984.30434241 471.92367981 -978.06107206 471.77222618 -971.81772232 471.6236763 C-969.53995788 471.56933601 -967.26220883 471.51434553 -964.984478 471.45861435 C-958.00783226 471.28890314 -951.0312247 471.1430874 -944.0535202 471.02477264 C-943.1178849 471.00714371 -942.1822496 470.98951477 -941.21826172 470.97135162 C-938.51181369 470.92463028 -935.80564869 470.89349698 -933.09893036 470.86754608 C-931.92077035 470.84531164 -931.92077035 470.84531164 -930.71880913 470.82262802 C-917.46070095 470.7565038 -906.90702311 475.46561761 -897.31523895 484.57555389 C-886.78414736 495.97968934 -885.60292859 509.30703426 -885.39946747 524.20055389 C-885.36775042 525.78881675 -885.33495823 527.37705845 -885.3011713 528.96527863 C-885.21639429 533.14821828 -885.1499226 537.33122521 -885.08996058 541.5145874 C-885.05443822 543.96153521 -885.01547507 546.40840232 -884.97531509 548.85527802 C-884.79855144 559.73165795 -884.66657712 570.60833235 -884.54830599 581.48548794 C-884.50722436 585.22674193 -884.46409072 588.96797142 -884.42106485 592.70920348 C-884.28253846 604.77385416 -884.15211371 616.83858566 -884.02417803 628.90335274 C-883.99086716 632.0391802 -883.95731098 635.17500496 -883.92369461 638.31082916 C-883.22660523 703.42555493 -882.67790588 768.52982725 -883.03517151 833.64875793 C-883.05409913 837.13129107 -883.07210976 840.61382806 -883.08995819 844.09636688 C-883.56208786 935.29053683 -884.6207757 1026.4800909 -886.0535202 1153.02477264 C-884.56452508 1152.98181863 -884.56452508 1152.98181863 -883.04544926 1152.93799686 C-846.9840633 1151.90110742 -846.9840633 1151.90110742 -831.36211395 1151.70836639 C-829.81589295 1151.68753264 -828.26967415 1151.66653573 -826.72345734 1151.64539337 C-823.55460744 1151.60262994 -820.3857421 1151.56161774 -817.21685028 1151.5220871 C-813.2775954 1151.47282606 -809.3384157 1151.41913867 -805.39923763 1151.3641119 C-802.22820999 1151.32030986 -799.05715435 1151.2788653 -795.88608742 1151.23801613 C-794.43852181 1151.21914171 -792.99096377 1151.19966989 -791.54341698 1151.17940331 C-774.38130294 1150.9422618 -757.21684209 1151.00763818 -740.0535202 1151.02477264 C-740.05518566 1150.21553408 -740.05685112 1149.40629551 -740.05856705 1148.57253456 C-740.17866127 1086.84259931 -739.85826601 1025.11916886 -739.39668924 963.39110231 C-739.32835454 954.25236704 -739.26101548 945.11362501 -739.19439746 935.97487706 C-738.52000177 843.49227881 -737.77418284 751.0102085 -736.22687213 563.1878974 C-736.10308557 548.30339618 -735.97965662 533.41889217 -735.8574295 518.53437805 C-735.8519401 517.8659258 -735.84645069 517.19747356 -735.84079494 516.50876518 C-735.81314149 513.14114178 -735.7854943 509.77351833 -735.75784836 506.40589486 C-735.55513099 481.71371539 -735.35004698 457.02155699 -735.14119607 432.32942855 C-735.03893578 420.23401153 -734.93761222 408.13858867 -734.83910942 396.04314041 C-734.7563022 385.87608815 -734.67124694 375.70905767 -734.58339126 365.54204773 C-734.53910746 360.41040995 -734.49574213 355.27876981 -734.45529795 350.14710021 C-734.36884372 339.25204276 -734.26107123 328.35758855 -734.1200645 317.46309566 C-734.07184546 313.68658895 -734.03335537 309.91011812 -734.00055623 306.13344669 C-733.95661506 301.18863604 -733.89250218 296.24442863 -733.815197 291.30003133 C-733.78912043 289.43548181 -733.76951316 287.57082826 -733.75702482 285.70613822 C-733.65590406 271.60237802 -732.67474532 260.79241931 -722.42461395 250.18883514 C-711.42845133 240.15279875 -698.81526823 239.95950256 -684.60845184 239.57579803 C-683.3844593 239.53981632 -682.16046677 239.50383461 -680.89938354 239.46676254 C-677.541975 239.36888694 -674.18450486 239.27433902 -670.82695889 239.18137383 C-667.24029259 239.08133239 -663.6537447 238.97719447 -660.06717682 238.87369537 C-652.34736018 238.65179204 -644.62738677 238.43572972 -636.90737152 238.22086334 C-632.11914284 238.0875381 -627.3309578 237.95268756 -622.54277802 237.81761932 C-584.45794094 236.74423383 -546.37232683 235.69833522 -508.28201675 234.83682632 C-505.60321655 234.77590288 -502.92445105 234.71361722 -500.24568939 234.65102386 C-490.71430903 234.43004078 -481.18309847 234.23779704 -471.65019989 234.09581757 C-468.47748458 234.04856345 -465.30508428 233.99219212 -462.13262177 233.93029022 C-458.0245726 233.85179651 -453.91673745 233.79617463 -449.80814362 233.75576782 C-448.27578535 233.737582 -446.74348839 233.71258288 -445.21137238 233.67982483 C-432.05938238 233.40796229 -420.07825138 234.86500721 -410.0535202 244.02477264 C-409.45023895 244.52621796 -408.8469577 245.02766327 -408.2253952 245.54430389 C-398.55584076 254.18384058 -395.90111521 265.60030578 -395.0535202 278.02477264 C-394.64104924 287.33333948 -394.57651628 296.65290257 -394.47980571 305.96903324 C-394.43871714 309.73840857 -394.38722916 313.50764485 -394.3371048 317.27690887 C-394.24247662 324.5107468 -394.15722836 331.74466438 -394.07525879 338.97865558 C-393.98596594 346.81612491 -393.88562127 354.6534375 -393.78445947 362.49076104 C-393.5951862 377.18730443 -393.42348475 391.88399637 -393.26198232 406.58086991 C-393.15621866 416.19996894 -393.04573611 425.81895397 -392.91866302 435.43779755 C-391.82159644 518.57296026 -391.85480894 601.70947204 -391.86520661 684.85031496 C-391.86600123 691.72642646 -391.86596267 698.60253762 -391.86548996 705.47864914 C-391.85967006 795.631085 -391.92858125 885.78221189 -392.95745039 1023.95932674 C-392.99114355 1027.96750958 -393.0241622 1031.97569782 -393.05712509 1035.98388672 C-393.19008913 1052.09781994 -393.33250092 1068.21163775 -393.48668242 1084.32538199 C-393.51786047 1087.62385086 -393.54779903 1090.92232893 -393.5774498 1094.22081184 C-393.62324716 1099.27144077 -393.67358035 1104.32200441 -393.72762144 1109.37255168 C-393.74636658 1111.17874647 -393.76374872 1112.98495609 -393.77956069 1114.79117894 C-393.87241424 1125.24032283 -394.22436443 1135.60569384 -395.0535202 1146.02477264 C-394.23363617 1145.99698227 -393.41375214 1145.96919189 -392.56902313 1145.94055939 C-346.58187373 1144.39902326 -300.51816911 1143.82446654 -254.50647736 1143.99401093 C-253.69107687 1143.99695663 -252.87567639 1143.99990234 -252.03556681 1144.00293732 C-250.04155103 1144.01015022 -248.04753558 1144.01745231 -246.0535202 1144.02477264 C-246.05462996 1143.1258544 -246.05573971 1142.22693616 -246.0568831 1141.30077797 C-246.08276398 1116.73241011 -246.00073227 1092.1658078 -245.8585519 1067.5978813 C-245.82901573 1062.45554919 -245.80067878 1057.31321042 -245.77214146 1052.17087269 C-245.71555535 1042.01309862 -245.65774912 1031.85533185 -245.59945102 1021.69756748 C-245.5508598 1013.23017341 -245.5026619 1004.76277718 -245.45467949 996.29537964 C-245.24541189 959.38766644 -245.03179238 922.47997939 -244.81586405 885.57230466 C-244.80354104 883.46583382 -244.7912222 881.35936295 -244.77890426 879.25289208 C-244.35003646 805.9194946 -243.91110118 732.58615798 -241.37858009 341.86222935 C-241.3676929 340.29166524 -241.35680587 338.72110113 -241.34591901 337.15053703 C-241.34053557 336.37395415 -241.33515213 335.59737128 -241.32960556 334.7972556 C-241.31874181 333.23011358 -241.30787834 331.66297155 -241.29701517 330.09582953 C-241.26993609 326.18942094 -241.24284941 322.28301241 -241.21574841 318.37660398 C-241.05374187 295.01642547 -240.89705848 271.65621516 -240.7430954 248.29598236 C-240.56769417 221.6839427 -240.38538113 195.0719605 -240.19381171 168.46003211 C-240.17382497 165.6800047 -240.15386609 162.8999771 -240.1339283 160.11994934 C-240.1290305 159.4374801 -240.1241327 158.75501086 -240.11908648 158.05186073 C-240.04631937 147.89084281 -239.97887602 137.72979936 -239.91441154 127.56872559 C-239.84256155 116.24394386 -239.76435565 104.91922998 -239.67742959 93.59455347 C-239.6337864 87.88382018 -239.59320123 82.1731097 -239.56103659 76.46229923 C-239.53169238 71.26424359 -239.49349326 66.06633123 -239.44822244 60.86839059 C-239.43348467 58.99830869 -239.42197136 57.1281979 -239.41407087 55.25807461 C-239.28936572 26.98822105 -239.28936572 26.98822105 -228.9753952 15.76305389 C-221.26540073 8.47090877 -213.15616561 5.06523005 -202.57671356 4.75939178 C-201.48349289 4.72580566 -200.39027222 4.69221954 -199.26392365 4.65761566 C-198.06913895 4.62537903 -196.87435425 4.5931424 -195.64336395 4.55992889 C-194.37014786 4.52237488 -193.09693176 4.48482086 -191.78513336 4.44612885 C-188.26262005 4.34266845 -184.73996783 4.2449789 -181.21725464 4.1485939 C-178.98008462 4.08697143 -176.74296363 4.02380181 -174.50585175 3.9601059 C-137.34255229 2.90245072 -100.1747653 2.01288633 -63.00579357 1.18127155 C-58.06037207 1.07048137 -53.11503244 0.9567241 -48.16973114 0.84069061 C-32.11382617 0.4663194 -16.05904095 0.19372826 0 0 Z M-227.7410202 20.77477264 C-237.67366034 32.70271135 -235.1759632 49.75503994 -235.04210663 64.36493683 C-235.02814681 66.32860691 -235.01466771 68.29228045 -235.00162369 70.25595683 C-234.96442134 75.6497298 -234.92045828 81.04342967 -234.87540759 86.43714201 C-234.8276526 92.30036326 -234.78626333 98.16362993 -234.74410534 104.02689362 C-234.66947147 114.28987977 -234.5909271 124.55283053 -234.50980186 134.81576729 C-234.42301647 145.79996853 -234.33883926 156.78418548 -234.25780678 167.76843071 C-234.25269205 168.46174527 -234.24757732 169.15505984 -234.24230759 169.86938393 C-234.21625507 173.40333511 -234.19025602 176.93728668 -234.16428401 180.47123846 C-234.11107937 187.70932114 -234.05755291 194.94740144 -234.00393581 202.18548107 C-233.99854056 202.91390175 -233.9931453 203.64232244 -233.98758655 204.39281647 C-233.86342442 221.14588325 -233.73599096 237.89892492 -233.60839422 254.65196582 C-233.13507749 316.80407374 -232.67982695 378.95631482 -232.22822333 441.10858388 C-232.18643441 446.85861244 -232.14454904 452.6086403 -232.10262084 458.35866785 C-231.51610504 538.80559898 -230.95876922 619.25261157 -230.17721242 752.63084909 C-230.15126418 757.14759495 -230.1252474 761.66434041 -230.09922266 766.18108582 C-229.7732487 822.76996064 -229.4549332 879.3588765 -229.14962281 935.94786669 C-229.03196751 957.75203098 -228.91163141 979.55617948 -228.78921741 1001.36031765 C-228.7147335 1014.65551352 -228.6430052 1027.95071818 -228.57523675 1041.24595001 C-228.52984559 1050.11326878 -228.481434 1058.98056772 -228.43063497 1067.84785715 C-228.40189335 1072.8833702 -228.3744886 1077.91888022 -228.35098886 1082.95442069 C-228.25508138 1103.33157407 -228.06877973 1123.66842552 -227.0535202 1144.02477264 C-226.05276063 1144.03944035 -226.05276063 1144.03944035 -225.0317837 1144.05440438 C-101.1986914 1145.86992115 -101.1986914 1145.86992115 -51.1785202 1147.02477264 C-50.30187336 1147.04496964 -49.42522652 1147.06516663 -48.52201462 1147.08597565 C-29.62039833 1147.52332222 -10.72092736 1148.01796794 8.17694855 1148.59508514 C8.94533302 1148.61852745 9.7137175 1148.64196976 10.50538635 1148.66612244 C18.31994431 1148.90528154 26.13414603 1149.15257177 33.94794464 1149.41539764 C35.20383896 1149.45639587 36.45973328 1149.4973941 37.753685 1149.5396347 C40.01037399 1149.61351233 42.26697594 1149.69015822 44.52342987 1149.77089691 C55.66217841 1150.13166828 66.80319607 1150.05902512 77.9464798 1150.02477264 C77.83432941 1130.28520281 77.72118599 1110.54563884 77.60714054 1090.80607986 C77.55408845 1081.62035336 77.50125547 1072.43462575 77.44916534 1063.24889374 C77.40393358 1055.27371711 77.35811707 1047.29854403 77.31176096 1039.32337385 C77.28408019 1034.55884804 77.25665583 1029.794321 77.22972679 1025.02979088 C77.0951563 1001.27229217 76.93893289 977.51511468 76.74507288 953.7580211 C75.98501512 860.52077949 75.76944417 767.28647553 75.76129196 642.51258872 C75.7616743 625.08752423 75.7538508 607.66247833 75.74066925 590.23741913 C75.66473066 487.87373708 75.87678072 385.52091261 76.8761673 283.16149139 C76.89745305 280.96861291 76.91873851 278.77573443 76.94002366 276.58285594 C77.6916234 199.42307926 78.64201612 122.25932413 80.2011829 45.11100608 C80.33919099 36.35019616 78.71620285 29.05804537 72.6261673 22.52867889 C66.8517365 17.35854899 61.09211194 15.94347934 53.52118683 15.73912811 C52.8770924 15.72074512 52.23299797 15.70236214 51.56938553 15.68342209 C49.40611992 15.62323373 47.24274618 15.56991977 45.0792923 15.51696014 C43.51541474 15.47568879 41.95154155 15.43425163 40.38767242 15.39266205 C23.02842344 14.94187332 5.66587516 14.63646759 -11.69626045 14.3221302 C-59.97995068 13.44772571 -108.25518223 12.32604868 -156.53070068 11.09063721 C-160.3766595 10.99224344 -164.22262703 10.89419631 -168.06859589 10.79619598 C-172.78449764 10.67601063 -177.50035108 10.55413317 -182.21617889 10.43108368 C-184.33041523 10.37682018 -186.44465264 10.32259816 -188.5588913 10.26842499 C-189.49638781 10.24351046 -190.43388432 10.21859592 -191.39978981 10.19292641 C-205.67564202 9.83096514 -217.23420284 9.58938999 -227.7410202 20.77477264 Z " fill="#000000" transform="translate(1321.0535202026367,-0.02477264404296875)"/>
</svg>
