<?xml version="1.0" encoding="UTF-8"?>
<svg version="1.1" xmlns="http://www.w3.org/2000/svg" viewBox="0 0 1194 1181" width="1194" height="1181">
<path d="M0 0 C0.14165171 5.46887992 0.28192943 10.93779285 0.42100996 16.40673876 C0.46837159 18.26184366 0.51608928 20.1169395 0.56418961 21.97202539 C0.91609183 35.55651704 1.14047031 49.12918578 1.09765625 62.71875 C1.09577512 64.58972128 1.09435935 66.46069308 1.09336853 68.33166504 C1.08967596 73.09209732 1.0799722 77.85249558 1.06866455 82.61291504 C1.05815225 87.53620951 1.05380935 92.45950987 1.04882812 97.3828125 C1.03832719 106.92188939 1.02142702 116.4609418 1 126 C1.59750565 125.83799606 2.19501129 125.67599213 2.81062317 125.50907898 C8.25023861 124.24424698 14.12184576 124.80306997 19.6875 124.8125 C20.73886139 124.81390488 20.73886139 124.81390488 21.8114624 124.81533813 C58.80262434 124.9229538 58.80262434 124.9229538 73.06640625 136.98828125 C90.04711171 154.65507582 86.15076471 184.35477591 86.09765625 206.84765625 C86.09578672 209.19990509 86.09436535 211.55215432 86.09336853 213.90440369 C86.08958547 220.03790397 86.07979211 226.17137984 86.06866455 232.30487061 C86.05835893 238.58670726 86.05385148 244.86854792 86.04882812 251.15039062 C86.03816525 263.43360436 86.02114065 275.71680014 86 288 C86.93538164 287.99631283 87.87076328 287.99262566 88.83448982 287.98882675 C111.6384525 287.89986308 134.44239257 287.83421864 157.24649239 287.79275131 C168.27457996 287.77216286 179.30255261 287.74411353 190.33056641 287.69824219 C199.94727753 287.65826041 209.56390538 287.6325402 219.18069732 287.62364602 C224.26847961 287.61845044 229.35602375 287.60631695 234.4437294 287.57707977 C239.24211638 287.54973117 244.04016933 287.54159393 248.83862686 287.54756927 C250.59045228 287.54647767 252.34229002 287.53864045 254.09404755 287.5231781 C272.27320423 287.37071901 287.18542198 291.01861138 300.8984375 303.73828125 C309.13459627 312.60210267 315.1237394 324.62072006 315.12572193 336.85988331 C315.12827321 337.81870968 315.13082448 338.77753604 315.13345307 339.76541775 C315.13113185 340.81283432 315.12881063 341.86025089 315.12641907 342.93940735 C315.12784843 344.06120354 315.1292778 345.18299974 315.13075048 346.33878976 C315.13418095 350.12471945 315.13025851 353.91060461 315.1262207 357.6965332 C315.12623624 360.42777484 315.12762244 363.15901555 315.12882805 365.89025688 C315.13071416 372.62438357 315.12646703 379.35849416 315.11988516 386.09261741 C315.11443842 391.68491185 315.11094043 397.2772046 315.10848427 402.86950111 C315.07333481 477.45909934 314.77165032 552.04787872 314.373106 626.63633537 C314.35215231 630.56248845 314.3312184 634.48864164 314.31030273 638.41479492 C314.30251225 639.87482662 314.30251225 639.87482662 314.29456438 641.36435391 C314.20884627 657.48573822 314.13603531 673.60715708 314.06784757 689.72862407 C313.99628468 706.59991007 313.91374824 723.47111416 313.82033139 740.34229356 C313.76882345 749.69230777 313.72189836 759.0422909 313.68758202 768.39238548 C313.65874459 776.24317232 313.61996832 784.09383009 313.56816455 791.94450041 C313.54218353 795.92690648 313.52080803 799.90918888 313.51236725 803.89167404 C313.50452513 807.54013001 313.48290247 811.18824876 313.45083228 814.83656982 C313.43735112 816.75886394 313.43810437 818.68124222 313.43959016 820.60358304 C313.25471024 837.34251846 309.33867201 851.31429121 297.6796875 863.640625 C284.47656281 875.26553362 269.84781665 877.46019021 252.84106445 877.32470703 C251.1273716 877.32221842 249.41367635 877.32107678 247.69998169 877.32116699 C244.01916073 877.31847119 240.33853919 877.30629582 236.65777016 877.28662491 C230.77324496 877.25523218 224.88879329 877.24526706 219.00419617 877.23776245 C209.62578306 877.22327583 200.24747715 877.19440351 190.86911982 877.15951526 C172.28758131 877.09076737 153.70596128 877.04986359 135.12433386 877.01386547 C132.11259293 877.00781112 129.10085427 877.00103457 126.08911514 876.99414825 C97.11997739 876.93049799 68.18378798 877.18733328 39.22136021 877.83870888 C26.48190927 878.11448059 13.74161493 878.10840379 1 878 C1.01030746 878.59272705 1.02061493 879.1854541 1.03123474 879.79614258 C1.77770358 923.19480601 2.21442622 966.59651518 2.5625 1010 C2.56798324 1010.6821608 2.57346647 1011.36432159 2.57911587 1012.06715393 C3.02261516 1067.37831366 3.12082215 1122.68709207 3 1178 C-9.92526669 1178.69647596 -22.84043932 1179.23338864 -35.78100586 1179.52856445 C-36.68119422 1179.54949276 -37.58138258 1179.57042106 -38.50884938 1179.59198356 C-45.76474571 1179.75874579 -53.02093501 1179.90820708 -60.27734375 1180.05078125 C-61.96429419 1180.08404617 -61.96429419 1180.08404617 -63.68532443 1180.1179831 C-143.16172024 1181.66118699 -222.66573237 1181.26559152 -302.15302674 1181.20319618 C-318.94292218 1181.19010008 -335.73280466 1181.18468507 -352.52270508 1181.18530273 C-354.18739305 1181.18536267 -354.18739305 1181.18536267 -355.88571108 1181.18542381 C-357.54833838 1181.18548435 -357.54833838 1181.18548435 -359.2445541 1181.1855461 C-380.03193391 1181.18624429 -400.81930754 1181.18030979 -421.6066853 1181.17139288 C-427.792916 1181.16885643 -433.97914559 1181.16746108 -440.16537679 1181.16706113 C-489.45269842 1181.16377655 -538.72041081 1180.91550155 -588 1180 C-588.17270634 1138.66896842 -587.63571988 1097.38454063 -586.77693725 1056.06368077 C-586.65867711 1050.35933345 -586.54438002 1044.6549176 -586.43261719 1038.95043945 C-585.7357741 1003.39209661 -584.95902341 967.83645405 -584.02510786 932.28348184 C-583.96189237 929.8685094 -583.89948876 927.45351717 -583.83726883 925.03851891 C-583.73920406 921.24298733 -583.63827913 917.44754151 -583.53518724 913.65214324 C-583.48087619 911.63625919 -583.42874557 909.62031675 -583.37673569 907.60437202 C-583.09290205 897.38389056 -582.5379224 887.22052562 -582 877 C-608.07 876.34 -634.14 875.68 -661 875 C-661 874.34 -661 873.68 -661 873 C-662.8488253 873.00245476 -662.8488253 873.00245476 -664.73500061 873.00495911 C-698.44949821 873.04515522 -732.16320233 872.98249024 -765.87700462 872.76428032 C-772.93223146 872.71885494 -779.98739593 872.67932362 -787.04272461 872.65356445 C-793.35976012 872.63049951 -799.67664164 872.59711829 -805.99355465 872.55129844 C-809.28914015 872.52770098 -812.58455102 872.51030482 -815.8802166 872.50238609 C-819.51469803 872.49271601 -823.14861747 872.4646569 -826.78295898 872.43237305 C-827.83271912 872.43380814 -828.88247925 872.43524323 -829.96405029 872.4367218 C-843.76861496 872.26413962 -856.11377286 869.02460596 -866.57421875 859.70703125 C-873.91799195 852.07193481 -879.11310214 842.76822328 -879.13371277 832.010849 C-879.13798342 830.99200686 -879.14225407 829.97316471 -879.14665413 828.92344856 C-879.14619528 827.79878622 -879.14573643 826.67412388 -879.14526367 825.51538086 C-879.1485713 824.31015211 -879.15187893 823.10492336 -879.15528679 821.86317253 C-879.16316048 818.4625124 -879.16627437 815.06191086 -879.16702962 811.66124558 C-879.16798389 809.42942537 -879.17065614 807.19761354 -879.17388725 804.96579552 C-879.18993761 793.87645818 -879.19124182 782.78715124 -879.18809986 771.69780445 C-879.18750263 768.94960578 -879.18744925 766.20140765 -879.18758392 763.45320892 C-879.19069356 678.49773425 -878.72834275 593.54342722 -878.2362553 508.58963624 C-878.16093813 495.58263308 -878.08945293 482.57561458 -878.02086347 469.56857427 C-877.93119376 452.56942972 -877.83463907 435.57034591 -877.72654384 418.57130784 C-877.67357011 410.21915425 -877.62352697 401.86700957 -877.58180046 393.51479149 C-877.5467305 386.50136245 -877.50506246 379.48801238 -877.45464436 372.47467616 C-877.42928589 368.92128547 -877.40697389 365.36794805 -877.39316499 361.81449211 C-877.37812983 357.96974439 -877.3479967 354.12519752 -877.31643677 350.2805481 C-877.31448049 349.1729747 -877.31252422 348.06540131 -877.31050867 346.92426509 C-877.17186361 333.79868684 -874.54874422 321.72655742 -865.5 311.6875 C-852.74793103 299.96342891 -837.09737875 298.70832739 -820.6875 298.40234375 C-818.97310154 298.36380535 -817.2587207 298.32447612 -815.5443573 298.28440857 C-810.97448201 298.17983665 -806.40444511 298.08624098 -801.83428574 297.99504852 C-797.08641538 297.89864578 -792.33875529 297.79279946 -787.59106445 297.68798828 C-780.100692 297.5237626 -772.61021873 297.36539986 -765.11962891 297.21142578 C-756.8228278 297.04062163 -748.52662661 296.85216423 -740.23046875 296.65234375 C-713.48434034 296.02063718 -686.753042 295.87676651 -660 296 C-660.00752792 295.43003799 -660.01505585 294.86007599 -660.02281189 294.27284241 C-660.25635844 273.22087628 -659.47673891 252.22594337 -658.66760254 231.19354248 C-658.52688781 227.50366242 -658.39117208 223.81360573 -658.25558567 220.1235342 C-658.12246937 216.50877419 -657.98729288 212.8940936 -657.85142326 209.27943611 C-657.78767755 207.58256481 -657.72429379 205.88567987 -657.66131783 204.18877983 C-657.34555548 195.73079773 -656.99277022 187.27565768 -656.52709961 178.82446289 C-656.45486679 177.50660294 -656.38263397 176.18874298 -656.30821228 174.83094788 C-655.37579915 163.24144832 -653.37156441 151.53024322 -644.9609375 142.91015625 C-631.43682383 131.6082026 -614.42251456 131.68102389 -597.6875 131.875 C-596.15690698 131.88506222 -594.62630746 131.89418227 -593.09570312 131.90234375 C-589.39698577 131.92234763 -585.69855559 131.96022278 -582 132 C-582.00458221 131.37001634 -582.00916443 130.74003267 -582.0138855 130.0909586 C-582.11264297 114.2626128 -581.79800101 98.49650647 -581.125 82.68359375 C-581.0348761 80.47731806 -580.94520456 78.27102384 -580.85595703 76.06471252 C-580.62369207 70.3520122 -580.38542576 64.6395787 -580.14575195 58.92718506 C-579.90071409 53.06033417 -579.66156909 47.19324309 -579.421875 41.32617188 C-578.9535668 29.88387704 -578.4788954 18.44185629 -578 7 C-577.34 7 -576.68 7 -576 7 C-576 6.34 -576 5.68 -576 5 C-518.94007917 4.35557791 -461.88008485 3.7180213 -404.81999109 3.08908865 C-398.01077148 3.0140338 -391.20155256 2.9389178 -384.39233398 2.86376953 C-383.37632939 2.85255821 -383.37632939 2.85255821 -382.33979946 2.8411204 C-360.00727929 2.59465821 -337.67481069 2.34382533 -315.34236205 2.09097296 C-292.95971195 1.83765403 -270.57701014 1.58931628 -248.19425815 1.34516478 C-235.69386943 1.20867895 -223.19351058 1.07021738 -210.69320869 0.92597961 C-140.45829198 0.11704534 -70.23916015 -0.14627632 0 0 Z M-574 9 C-573.47133737 26.23367365 -572.88119793 43.46459873 -572.25098991 60.69483948 C-570.32037328 113.54124368 -568.60469289 166.38440222 -567.3125 219.25 C-567.2820182 220.48863548 -567.25153641 221.72727097 -567.22013092 223.00344086 C-566.66436879 245.59418976 -566.12835741 268.18511734 -565.73193359 290.77929688 C-565.71040191 292.00189083 -565.68887022 293.22448479 -565.66668606 294.48412704 C-565.56543401 300.28014605 -565.46776984 306.07619008 -565.37654114 311.87237549 C-565.11905169 327.58997899 -564.61142025 343.29231663 -564 359 C-530.22304614 359.05470032 -496.44798134 359.04518903 -462.671875 358.78125 C-461.9664073 358.77575433 -461.2609396 358.77025867 -460.5340941 358.76459646 C-454.0421113 358.7138489 -447.55013978 358.66175078 -441.0581789 358.60827446 C-424.12090645 358.46878027 -407.18352242 358.34544101 -390.24609375 358.2265625 C-389.48401352 358.22121066 -388.72193328 358.21585881 -387.93675971 358.21034479 C-324.98524947 357.76948885 -262.04456039 357.99716564 -199.09356308 358.40616608 C-195.90252749 358.42687933 -192.71149019 358.44728255 -189.52045059 358.46736908 C-154.24199836 358.68956353 -118.96914801 358.97786178 -83.69622803 359.66746521 C-61.79704965 360.0893466 -39.90237219 360.1057614 -18 360 C-17.01241159 299.28609923 -16.53636022 238.56760549 -16.05364962 177.84803711 C-15.97050578 167.39224941 -15.88566883 156.93647659 -15.79956055 146.48071289 C-15.6870109 132.81390997 -15.575648 119.147098 -15.46542549 105.48027611 C-15.4239461 100.33794016 -15.38205956 95.19560778 -15.33982658 90.05327797 C-15.02332245 52.52716695 -15.02332245 52.52716695 -15 15 C-49.12901968 14.17124059 -83.25688761 13.71054448 -117.3939623 13.37915201 C-124.73551166 13.30775407 -132.07702701 13.23308822 -139.41854268 13.15831886 C-152.77539803 13.0223523 -166.13227452 12.88859649 -179.48916626 12.7562561 C-199.13627577 12.56156126 -218.78335181 12.36361922 -238.43041992 12.16479492 C-239.65349866 12.15241882 -239.65349866 12.15241882 -240.90128605 12.1397927 C-248.30263974 12.06489695 -255.70399319 11.98997807 -263.1053459 11.91498572 C-271.30072505 11.83195254 -279.49610526 11.74902778 -287.69148827 11.66637611 C-327.87356737 11.26109329 -368.05547599 10.84483153 -408.23710108 10.39635587 C-411.52467312 10.35966637 -414.81224604 10.32305723 -418.09981918 10.2864666 C-435.91138457 10.0881272 -453.72293922 9.88885964 -471.53442383 9.68338013 C-481.85235527 9.56437081 -492.17030139 9.44677225 -502.48828125 9.33203125 C-503.26807547 9.32334747 -504.04786969 9.31466368 -504.85129404 9.30571675 C-527.90098868 9.05007309 -550.94874839 8.87005192 -574 9 Z M-640.875 145.0625 C-655.04888714 160.64040426 -648.84899418 191.55320035 -648.125 210.72265625 C-648.03504733 213.16457639 -647.94537113 215.60650673 -647.85595703 218.04844666 C-647.62196904 224.4187747 -647.38427091 230.78895887 -647.14575195 237.15911865 C-646.90218184 243.68216692 -646.66218699 250.20534666 -646.421875 256.72851562 C-645.95137999 269.4858068 -645.47708 282.24295347 -645 295 C-637.72258248 295.02541267 -630.44517646 295.04289324 -623.16772461 295.05493164 C-620.6934364 295.05995179 -618.21915115 295.06676926 -615.74487305 295.07543945 C-612.18277252 295.08760656 -608.62071131 295.09325159 -605.05859375 295.09765625 C-603.40663246 295.10539818 -603.40663246 295.10539818 -601.72129822 295.11329651 C-600.68074783 295.11337204 -599.64019745 295.11344757 -598.56811523 295.11352539 C-597.6598851 295.115746 -596.75165497 295.11796661 -595.81590271 295.12025452 C-592.52569453 294.97974455 -589.26010869 294.46572981 -586 294 C-584.68 242.19 -583.36 190.38 -582 137 C-599.7419875 134.78225156 -626.44775153 132.36652134 -640.875 145.0625 Z M1 143 C1.10724224 161.16741919 1.22000424 179.33479533 1.33933926 197.50213909 C1.3946197 205.93752862 1.44809316 214.37292237 1.49731445 222.80834961 C1.54021976 230.16057356 1.58651371 237.51276703 1.63687855 244.8649438 C1.66342838 248.7579262 1.68828009 252.65090276 1.70907402 256.54392052 C1.72870258 260.20873671 1.75286472 263.87349515 1.78049088 267.53825951 C1.794278 269.52325867 1.80326987 271.50828933 1.81211853 273.49331665 C1.82190735 274.67817154 1.83169617 275.86302643 1.84178162 277.08378601 C1.84823417 278.11158519 1.85468672 279.13938437 1.8613348 280.19832897 C1.9503226 283.39035972 1.9503226 283.39035972 3 288 C23.79 288 44.58 288 66 288 C66.09016989 265.32168511 66.09016989 265.32168511 66.1507616 242.64334488 C66.16736491 234.53073081 66.18842102 226.41820961 66.22631836 218.30566406 C66.25631601 211.88108816 66.27559749 205.45658243 66.28226548 199.03193843 C66.28616029 195.63333687 66.29524806 192.23493601 66.31719017 188.83639908 C66.33904685 185.03290276 66.34196339 181.2298188 66.34057617 177.42626953 C66.351362 176.31208145 66.36214783 175.19789337 66.3732605 174.04994202 C66.34097879 165.84104548 65.30304736 158.6577811 60.875 151.625 C49.52069233 141.25802344 32.61160777 142.72415473 18.25 142.875 C16.57031787 142.88505603 14.89062988 142.89417722 13.2109375 142.90234375 C9.14047718 142.92413532 5.07030532 142.95851837 1 143 Z M-864.3984375 317.00390625 C-873.29306584 328.08965035 -873.31811225 342.00485561 -873.17131042 355.60919189 C-873.16555774 356.91865083 -873.15980505 358.22810977 -873.15387803 359.57724929 C-873.13777538 363.17878077 -873.10886854 366.78010838 -873.07770431 370.38153672 C-873.04621617 374.28727791 -873.02686398 378.19308261 -873.00596619 382.09889221 C-872.96799663 388.88756115 -872.92240704 395.67614453 -872.87163353 402.46472931 C-872.79706333 412.43750468 -872.73425398 422.41032907 -872.67398838 432.3831999 C-872.57460776 448.77587008 -872.46587237 465.16846451 -872.35131836 481.56103516 C-872.24262806 497.11732136 -872.13807963 512.67362488 -872.03979492 528.22998047 C-872.03384945 529.17040532 -872.02790397 530.11083017 -872.02177833 531.07975274 C-871.99185141 535.81692036 -871.96200741 540.55408849 -871.93220687 545.2912569 C-871.77804886 569.78865857 -871.62106845 594.28603401 -871.45016479 618.7833252 C-871.4371454 620.65211121 -871.4241266 622.52089723 -871.41110837 624.38968325 C-871.38515081 628.11394379 -871.35918467 631.83820427 -871.33321404 635.56246471 C-871.32681056 636.48088205 -871.32040707 637.39929939 -871.31380954 638.34554756 C-871.3009094 640.19475465 -871.28799658 642.04396165 -871.275071 643.89316857 C-871.09706026 669.37401402 -870.94205237 694.85486162 -870.81284189 720.33600123 C-870.78182116 726.42553161 -870.74905578 732.5150505 -870.71500492 738.60456467 C-870.70795778 739.8653727 -870.70795778 739.8653727 -870.70076828 741.15165161 C-870.67740377 745.31968916 -870.65380167 749.48772529 -870.63002688 753.65576053 C-870.58035916 762.42650968 -870.53667339 771.19724866 -870.50084285 779.96806538 C-870.47634444 785.84542004 -870.44492897 791.72271148 -870.40797974 797.60000098 C-870.38712962 800.95473164 -870.37055633 804.30933807 -870.36051965 807.6641283 C-870.34929437 811.28293508 -870.32612668 814.90147722 -870.30000305 818.52020264 C-870.2995568 820.0825465 -870.2995568 820.0825465 -870.29910153 821.67645288 C-870.18789434 833.12399761 -868.01608549 842.36330779 -860.14453125 851.046875 C-853.52302588 857.23223331 -845.45381882 861.12274364 -836.32237244 861.12698364 C-835.38402557 861.12980347 -834.44567871 861.13262329 -833.47889709 861.13552856 C-832.45453049 861.13350433 -831.43016388 861.1314801 -830.37475586 861.12939453 C-829.28876099 861.13114685 -828.20276611 861.13289917 -827.0838623 861.13470459 C-823.46084016 861.13913097 -819.83786649 861.13617123 -816.21484375 861.1328125 C-813.64905284 861.13348796 -811.083262 861.13445999 -808.51747131 861.13571167 C-803.09245142 861.1371918 -797.66744924 861.13513131 -792.24243164 861.13037109 C-785.48213868 861.12450416 -778.72189331 861.1279393 -771.96159935 861.13382339 C-734.9616859 861.16087831 -697.99152432 860.75884589 -661 860 C-660.16441755 854.80833845 -659.78958484 849.73954917 -659.64282227 844.48657227 C-659.61662811 843.66222687 -659.59043396 842.83788147 -659.56344604 841.98855591 C-659.50718328 840.20231427 -659.45270093 838.41601584 -659.3998127 836.6296711 C-659.31465619 833.75737739 -659.22456085 830.88527374 -659.13328552 828.01316833 C-658.93870966 821.86307597 -658.75017745 815.71280624 -658.5625 809.5625 C-657.15822725 763.55039456 -657.15822725 763.55039456 -656.20445061 742.53269768 C-656.12963516 740.85640053 -656.05854905 739.17993159 -655.99170113 737.50329781 C-654.72263987 706.10875472 -654.72263987 706.10875472 -644.5625 694.125 C-632.5154652 684.13477602 -619.12363092 682.93604475 -604.06109619 682.46556091 C-602.78413384 682.42393119 -601.50717148 682.38230147 -600.1915133 682.33941025 C-586.20621233 681.89925082 -572.21714514 681.72510256 -558.2262058 681.57508999 C-554.38703556 681.53316676 -550.54791182 681.4872966 -546.70878029 681.4419899 C-539.18156045 681.35376351 -531.65430488 681.26907765 -524.12703069 681.18563109 C-515.19648933 681.08648135 -506.26599194 680.98359572 -497.33549313 680.8806965 C-479.11016154 680.67087468 -460.88477817 680.46583104 -442.65937269 680.26254052 C-429.72216387 680.11822307 -416.78496705 679.97288311 -403.84777977 679.82664807 C-309.70214581 678.76254179 -215.55627355 677.71816432 -118.03755188 676.81205368 C-112.53354414 676.76090069 -107.02954394 676.70898241 -101.5255456 676.65682906 C-75.47614432 676.41024365 -49.42672669 676.18269959 -23.37668419 676.01537704 C-21.00696436 676.00004506 -18.63724834 675.98420528 -16.26753235 675.96829224 C-7.54892875 675.91056971 1.16958552 675.86546459 9.88834763 675.84085846 C12.42238023 675.83255312 14.95640499 675.82106154 17.49040604 675.80593109 C59.73661775 675.56713852 59.73661775 675.56713852 73.06640625 688.65234375 C82.33335412 699.90372894 84.37738614 714.64881975 84.65234375 728.79296875 C84.68464584 729.98311081 84.71694794 731.17325287 84.75022888 732.39945984 C85.31484702 754.74067387 85.3600718 777.09997064 85.53222656 799.44665527 C85.58316044 805.95078817 85.63846469 812.45488391 85.69335938 818.95898438 C85.79975817 831.63929074 85.90159658 844.31962918 86 857 C117.6870914 857.07005792 149.37427818 856.94072348 181.06083488 856.76428032 C189.24358817 856.7190163 197.42629153 856.67953237 205.60913086 856.65356445 C212.85991394 856.63054817 220.110562 856.5971785 227.36123782 856.55129844 C231.16610927 856.52755199 234.97084942 856.50869855 238.77579308 856.50238609 C242.32961126 856.49631546 245.88308361 856.47624585 249.4367733 856.44572449 C251.34290921 856.43287096 253.249126 856.4345045 255.15530396 856.4367218 C265.83135138 856.32083615 275.17060503 854.74538858 283 847 C289.07684551 839.58624847 291.33158923 832.47366773 291.20120907 822.86836338 C291.1988484 822.09188933 291.19648774 821.31541527 291.19405553 820.5154117 C291.18404695 817.96915525 291.15980168 815.42324701 291.13548279 812.87709045 C291.12569987 811.07503422 291.11686541 809.27297261 291.10893387 807.47090727 C291.09109171 803.7709855 291.06760469 800.0711675 291.03913951 796.37131238 C291.0019007 791.47788059 290.97911231 786.5845193 290.9630909 781.6909771 C290.93419224 773.27270395 290.89136107 764.8545454 290.84557307 756.43634903 C290.82229524 752.11292481 290.80026108 747.78949417 290.7780304 743.46606445 C290.72951938 734.07652132 290.67946432 724.68698684 290.62907338 715.29745364 C290.59731359 709.37743753 290.56591056 703.45741956 290.53457451 697.5374012 C290.44692501 680.98743917 290.35894657 664.43747899 290.26950932 647.88752651 C290.26098383 646.3098898 290.26098383 646.3098898 290.2522861 644.70038164 C290.24077316 642.57021208 290.2292599 640.44004253 290.21774632 638.30987298 C290.21203506 637.25314468 290.20632379 636.19641638 290.20043945 635.10766602 C290.19472053 634.04957023 290.18900161 632.99147445 290.1831094 631.90131516 C290.09121765 614.88777961 290.0018097 597.87423205 289.91354198 580.86067735 C289.82180174 563.18445572 289.72795521 545.5082462 289.63215441 527.83204609 C289.57886862 517.99243691 289.52635611 508.15282527 289.4761219 498.3132 C289.37830091 479.25168821 289.2692996 460.19037384 289.12775608 441.12913082 C289.04298216 429.69105322 288.98327578 418.25323312 288.95056592 406.81488476 C288.92631242 398.68775428 288.88428802 390.56082815 288.83013118 382.4338428 C288.79861565 377.59080264 288.77556599 372.74807709 288.77400029 367.90492713 C288.77240127 363.4111326 288.74767203 358.91805128 288.70549031 354.4244601 C288.6941605 352.78225324 288.69122608 351.13996241 288.69755439 349.49772866 C288.73041578 339.53711936 288.17067088 331.20385459 281.51391882 323.21697575 C273.97679999 315.89574039 263.80903138 314.40005523 253.73066711 314.51898193 C252.65137772 314.51556423 251.57208833 314.51214653 250.4600932 314.50862527 C246.87326462 314.50207982 243.28719813 314.52396797 239.70043945 314.54589844 C237.11756915 314.54702763 234.53469756 314.54639165 231.951828 314.54412842 C226.40635219 314.54203905 220.86106577 314.55450443 215.31563759 314.57707977 C207.29808145 314.60969773 199.28061616 314.62001675 191.26300087 314.62503174 C178.25251192 314.6337691 165.24212374 314.66034217 152.23168945 314.69824219 C139.59920757 314.73500276 126.96675314 314.76329467 114.33422852 314.78027344 C113.55452563 314.78132433 112.77482275 314.78237523 111.97149251 314.78345796 C108.05964299 314.78867841 104.14779328 314.79373317 100.23594344 314.79870558 C67.82387297 314.84011905 35.41199006 314.91383051 3 315 C3 337.11 3 359.22 3 382 C-3.93 382 -10.86 382 -18 382 C-25.40656349 382.12321979 -25.40656349 382.12321979 -32.8119812 382.27937317 C-38.5996727 382.41426083 -44.38757484 382.53798593 -50.17553711 382.66064453 C-51.23092052 382.68313294 -52.28630394 382.70562136 -53.37366867 382.72879124 C-102.89872144 383.77970132 -152.41839646 384.30413649 -201.95279264 384.60960627 C-204.41902133 384.62488552 -206.88524824 384.64042404 -209.35147476 384.65604782 C-273.88365775 385.06422634 -338.404827 385.00158551 -402.93681335 384.59614182 C-408.36505802 384.56207575 -413.79330759 384.52883468 -419.22155762 384.49563599 C-475.48286442 384.150617 -531.74185242 383.70204363 -588 383 C-587.97003433 382.34657623 -587.94006866 381.69315247 -587.90919495 381.01992798 C-587.1672773 364.46114709 -586.86954278 347.94886818 -586.9375 331.375 C-586.94253884 329.18099064 -586.94709742 326.98698012 -586.95117188 324.79296875 C-586.96195709 319.52861608 -586.97908174 314.26432175 -587 309 C-597.89142424 308.29298724 -608.7573986 307.81274739 -619.67211914 307.62695312 C-621.1533818 307.59916542 -622.63463879 307.57107433 -624.1158905 307.54270935 C-628.09313525 307.46737402 -632.07044406 307.39617548 -636.04777837 307.32575035 C-640.2800636 307.25003279 -644.5122726 307.17026203 -648.74449158 307.09094238 C-656.789868 306.94073493 -664.83530191 306.79389042 -672.88076442 306.64837503 C-682.73631282 306.46999945 -692.59179179 306.28791052 -702.44726562 306.10546875 C-703.31935197 306.08932793 -704.19143831 306.07318711 -705.08995152 306.05655718 C-705.95953212 306.04046262 -706.82911272 306.02436807 -707.72504425 306.0077858 C-709.02545001 305.98371772 -709.02545001 305.98371772 -710.3521266 305.95916343 C-712.09376397 305.92692618 -713.8354012 305.89468137 -715.57703829 305.8624289 C-720.74086575 305.76684045 -725.90470146 305.67171304 -731.06854391 305.57693791 C-752.54093601 305.18268882 -774.01273625 304.76993728 -795.48365784 304.30114746 C-806.28033187 304.06667076 -817.07656849 303.88168458 -827.875 303.75 C-829.14206787 303.73346375 -830.40913574 303.71692749 -831.71459961 303.69989014 C-844.74090955 303.58638349 -855.38305687 307.43278298 -864.3984375 317.00390625 Z M-640.875 695.75 C-651.75323902 712.38730674 -649.03602202 732.51760557 -648.25 751.5 C-648.149084 754.16109173 -648.04926613 756.82219518 -647.95141602 759.48339844 C-647.79749812 763.65404648 -647.64278979 767.82464986 -647.48243713 771.99505615 C-647.08764767 782.30265563 -646.75337819 792.6112277 -646.44921875 802.921875 C-646.40544461 804.3945318 -646.361652 805.86718806 -646.31784058 807.33984375 C-646.14864689 813.04282497 -645.98050557 818.74583377 -645.81677246 824.44897461 C-645.70344777 828.38798046 -645.58425675 832.32679889 -645.46484375 836.265625 C-645.43259201 837.42551941 -645.40034027 838.58541382 -645.36711121 839.78045654 C-645.17769267 845.90787771 -644.77329837 851.91784196 -644 858 C-636.15280806 857.88209715 -628.30574786 857.75727269 -620.45874023 857.62768555 C-617.79046812 857.58393674 -615.12219145 857.54275062 -612.45385742 857.50268555 C-608.61369 857.44475045 -604.77365214 857.38112308 -600.93359375 857.31640625 C-599.15038979 857.29133751 -599.15038979 857.29133751 -597.3311615 857.26576233 C-596.21052811 857.24581711 -595.08989471 857.22587189 -593.93530273 857.20532227 C-592.95601303 857.18977798 -591.97672333 857.1742337 -590.96775818 857.15821838 C-587.6034172 856.97885721 -584.32753838 856.51807143 -581 856 C-580.60343687 846.60138995 -580.21196322 837.2025844 -579.82654572 827.80351067 C-579.64732633 823.43661186 -579.46651654 819.0697924 -579.28173828 814.703125 C-578.49694145 796.13112084 -577.71544176 777.59377307 -578 759 C-568.19533084 757.75352513 -558.40870387 757.78118189 -548.54125977 757.69665527 C-546.54771313 757.67626532 -544.55417051 757.6554791 -542.56063175 757.63433218 C-537.09374781 757.57747917 -531.6268236 757.52621978 -526.15987635 757.47587848 C-520.255345 757.42051976 -514.35086686 757.35994752 -508.44638062 757.30000305 C-497.5357104 757.18998126 -486.62500597 757.08393185 -475.71427885 756.97971983 C-465.59441974 756.8830087 -455.47458445 756.78411167 -445.35476685 756.68315125 C-444.68133816 756.67643338 -444.00790948 756.66971551 -443.31407387 756.66279406 C-439.89197868 756.62864446 -436.46988386 756.59445676 -433.04778922 756.56025261 C-408.78221884 756.31776647 -384.51661092 756.07925177 -360.25097656 755.84326172 C-336.86489507 755.61580853 -313.47882467 755.38728316 -290.09277344 755.15673828 C-289.37697176 755.14968259 -288.66117009 755.1426269 -287.92367746 755.1353574 C-271.48037923 754.97326709 -255.03708533 754.8107419 -238.59379578 754.64777374 C-237.18520449 754.6338146 -235.7766132 754.61985548 -234.36802191 754.60589638 C-225.98820246 754.52284859 -225.98820246 754.52284859 -217.60838354 754.43974739 C-201.43195093 754.27928643 -185.25550731 754.12007905 -169.07904118 753.96302703 C-112.71770925 753.4157514 -56.35789336 752.83553728 0 752 C-0.00184089 752.90997551 -0.00368178 753.81995102 -0.00557846 754.75750154 C-0.01247896 758.18109244 -0.01933147 761.60468342 -0.02615303 765.02827448 C-0.02909722 766.50114018 -0.03205974 767.97400584 -0.03504199 769.44687146 C-0.15963871 812.23304944 -0.15963871 812.23304944 1 855 C18.2063213 855.57379839 35.40789295 856.09873272 52.625 856.125 C53.86209717 856.12951172 55.09919434 856.13402344 56.3737793 856.13867188 C57.50082275 856.13673828 58.62786621 856.13480469 59.7890625 856.1328125 C60.77600098 856.13168457 61.76293945 856.13055664 62.77978516 856.12939453 C64.97320417 856.24838532 64.97320417 856.24838532 66 855 C66.11030048 853.41236682 66.15128216 851.81987129 66.16494751 850.22846985 C66.17618149 849.19555817 66.18741547 848.16264648 66.19898987 847.09843445 C66.20631638 845.95518204 66.21364288 844.81192963 66.22119141 843.6340332 C66.2326973 842.43717896 66.24420319 841.24032471 66.25605774 840.00720215 C66.2865677 836.71098086 66.31256436 833.41478489 66.3362546 830.11851144 C66.35666876 827.36104789 66.38021754 824.60361487 66.40379179 821.8461768 C66.45950794 815.32676214 66.5101916 808.80732168 66.55761719 802.2878418 C66.60640842 795.59030927 66.66273297 788.89287189 66.72303832 782.19543391 C66.77470461 776.43221531 66.82196488 770.66897204 66.86572587 764.90568799 C66.89183034 761.47014831 66.91942494 758.03463913 66.9510994 754.59914589 C66.9853244 750.7488148 67.01233762 746.89849473 67.03759766 743.0480957 C67.04897263 741.93115829 67.0603476 740.81422089 67.07206726 739.66343689 C67.58320738 718.58786014 67.58320738 718.58786014 59 700 C51.70963513 693.45736486 41.02297659 692.89155753 31.63456726 692.43257141 C30.85080835 692.39200853 30.06704944 692.35144564 29.25954026 692.30965358 C21.03976176 691.91070597 12.82494551 691.81395772 4.59692383 691.76635742 C2.9099453 691.75329789 1.22296985 691.7398358 -0.46400261 691.72601509 C-4.12421792 691.69679856 -7.78443946 691.67020573 -11.4446888 691.64562416 C-17.51862184 691.60464479 -23.59249105 691.55678633 -29.66636658 691.50810242 C-38.6990522 691.43616361 -47.73175206 691.3664091 -56.76446533 691.29803467 C-81.41296098 691.11078658 -106.06131324 690.90619317 -130.70960295 690.69367218 C-132.09609484 690.68172085 -133.48258685 690.66978472 -134.86907899 690.65786362 C-187.98548602 690.20115738 -241.10032402 689.62730178 -294.21514454 689.01469913 C-297.18084667 688.98050043 -300.14654928 688.94634312 -303.112252 688.91219592 C-342.54215555 688.45809076 -381.97197529 687.99699642 -421.40168339 687.52622253 C-436.44600104 687.34666474 -451.49034458 687.1693746 -466.53470558 686.99348706 C-475.29222032 686.89098655 -484.04971559 686.78719025 -492.80717278 686.67987633 C-523.88651169 686.29957118 -554.96696773 685.92554509 -586.04876876 685.8369925 C-588.53252942 685.82894252 -591.01628222 685.81768184 -593.50001168 685.80285621 C-618.95733661 684.72129535 -618.95733661 684.72129535 -640.875 695.75 Z M-574 761 C-573.93917309 763.08018358 -573.87832288 765.16036648 -573.81746292 767.24054909 C-573.78357948 768.39895101 -573.74969603 769.55735294 -573.71478581 770.75085795 C-573.27263163 785.80683385 -572.77164419 800.86053194 -572.25097275 815.91398048 C-569.05931107 908.2399687 -566.60609441 1000.57523447 -564 1155 C-532.23487903 1155.08227461 -500.4716034 1154.95271806 -468.70703125 1154.78125 C-467.18031996 1154.77303411 -467.18031996 1154.77303411 -465.62276602 1154.76465225 C-450.76807091 1154.68459767 -435.91339206 1154.60169676 -421.05871582 1154.51822662 C-406.04622688 1154.43393556 -391.03373386 1154.35043697 -376.02122897 1154.26903296 C-371.00335868 1154.24176724 -365.98549173 1154.21406355 -360.96763039 1154.18519592 C-324.93160762 1153.97801389 -288.89837757 1153.93344899 -252.86226249 1154.1362555 C-250.62926375 1154.14880881 -248.39626369 1154.16110216 -246.16326332 1154.17336082 C-235.65395176 1154.23137253 -225.14467319 1154.29424457 -214.63540411 1154.35946894 C-212.11548415 1154.37505887 -209.59556304 1154.39044955 -207.07564163 1154.40580368 C-144.03904724 1154.79142063 -81.02408438 1155.66236306 -18 1157 C-17.03184061 1093.64753992 -16.53880405 1030.29105229 -16.05364962 966.93347064 C-15.97101449 956.14752479 -15.88609022 945.36159888 -15.79956055 934.57568359 C-15.69704159 921.79667736 -15.59610132 909.01766003 -15.49739558 896.23862374 C-15.48674102 894.85979786 -15.47608434 893.480972 -15.46542549 892.10214615 C-15.46019226 891.42511429 -15.45495903 890.74808243 -15.44956721 890.05053445 C-15.41383075 885.4401959 -15.3770457 880.82986651 -15.33982658 876.21953964 C-15.04697467 839.81189532 -14.94538679 803.40861364 -15 767 C-39.97114427 765.95982334 -64.94216343 765.70004806 -89.93154299 765.46121943 C-95.92968391 765.4031135 -101.92778272 765.3409169 -107.92588806 765.27926636 C-118.29071162 765.17329142 -128.65555801 765.06984275 -139.0204258 764.96829033 C-149.89483951 764.86174407 -160.76923855 764.75386077 -171.64362144 764.64421272 C-172.32439814 764.63734973 -173.00517484 764.63048673 -173.70658113 764.62341577 C-176.47115673 764.59554218 -179.23573223 764.5676598 -182.00030761 764.53976551 C-207.85767515 764.27887536 -233.71507872 764.02173843 -259.57250298 763.76653818 C-282.46315544 763.54060138 -305.35378125 763.31214174 -328.24438477 763.08129883 C-329.71409163 763.06647836 -331.1837985 763.0516579 -332.65350536 763.03683745 C-333.38015689 763.02950977 -334.10680842 763.02218209 -334.85547969 763.01463235 C-338.51462677 762.97773328 -342.17377388 762.94083732 -345.83292103 762.90394497 C-346.55507548 762.89666362 -347.27722993 762.88938226 -348.02126785 762.88188026 C-367.23911372 762.68813558 -386.45697605 762.49603864 -405.67484397 762.30449444 C-406.36001462 762.29766529 -407.04518527 762.29083614 -407.75111867 762.28380005 C-410.50534169 762.25634959 -413.25956471 762.22889962 -416.01378783 762.20145863 C-425.52847029 762.10665582 -435.04314737 762.01132863 -444.55782109 761.91565315 C-456.83188928 761.79224092 -469.10596871 761.67003164 -481.38006691 761.54963785 C-487.2839739 761.49170607 -493.18787489 761.43329137 -499.09176254 761.37341881 C-524.06197034 761.1205773 -549.02836985 760.92212508 -574 761 Z " fill="#000000" transform="translate(879,0)"/>
<path d="M0 0 C0 1.32 0 2.64 0 4 C-27.99868879 10.19265117 -56.44891648 12.91206187 -85 15 C-86.49635986 15.11021484 -86.49635986 15.11021484 -88.02294922 15.22265625 C-94.01369233 15.64095141 -99.99651547 15.86820124 -106 16 C-107.59811523 16.04084717 -107.59811523 16.04084717 -109.22851562 16.08251953 C-131.37538049 16.56862548 -153.4442938 15.53695614 -175.56043625 14.4496851 C-179.18217843 14.27163454 -182.80396217 14.09444808 -186.42578125 13.91796875 C-187.17731979 13.88132299 -187.92885834 13.84467724 -188.70317078 13.80692101 C-202.35518449 13.14467784 -216.01030277 12.58256245 -229.66796875 12.05078125 C-230.69737265 12.01066862 -231.72677654 11.97055599 -232.7873745 11.92922783 C-238.08520491 11.72303262 -243.38306723 11.51766725 -248.68093872 11.31253052 C-282.79679815 9.99022229 -316.902678 8.55192931 -351 6.8125 C-352.6837768 6.72705984 -354.36755365 6.64162078 -356.05133057 6.55618286 C-359.99517243 6.35551038 -363.93885834 6.15201267 -367.88241959 5.94589996 C-369.30285275 5.87170871 -370.7233102 5.79798057 -372.14379501 5.72478485 C-380.44429518 5.29523052 -388.72179004 4.74705768 -397 4 C-397 2.68 -397 1.36 -397 0 C-366.09815767 -1.98378812 -335.18208647 -3.57823935 -304.25 -5 C-303.32772739 -5.04240059 -302.40545479 -5.08480118 -301.45523453 -5.12848663 C-270.6816671 -6.5399834 -239.9029406 -7.77537281 -209.11763 -8.89968395 C-192.39713239 -9.51055726 -175.68401713 -10.16314459 -158.97561646 -11.0557251 C-107.31876498 -13.8053742 -50.43531942 -13.28463625 0 0 Z " fill="#000000" transform="translate(781,1055)"/>
<path d="M0 0 C1.17572571 -0.00701431 2.35145142 -0.01402863 3.56280518 -0.02125549 C7.3309725 -0.03860624 11.0989817 -0.04510752 14.8671875 -0.046875 C16.16698547 -0.04754974 17.46678345 -0.04822449 18.80596924 -0.04891968 C59.1866297 -0.01580302 99.09175024 3.43847006 138.7421875 11.203125 C139.0721875 12.523125 139.4021875 13.843125 139.7421875 15.203125 C133.39714054 17.44283056 127.05645556 18.50242202 120.4296875 19.578125 C119.77111755 19.68539917 119.11254761 19.79267334 118.434021 19.90319824 C106.12538042 21.88415155 93.77438826 23.25772563 81.3671875 24.453125 C80.51353607 24.53584656 79.65988464 24.61856812 78.78036499 24.70379639 C59.11503641 26.58836177 39.6267266 27.44142818 19.8671875 27.453125 C18.659487 27.45413208 17.4517865 27.45513916 16.20748901 27.45617676 C-9.70290541 27.44190788 -35.53617018 26.29496828 -61.40779686 25.01004601 C-74.71694312 24.35029362 -88.0289313 23.78604127 -101.34375 23.25390625 C-102.34596714 23.21379362 -103.34818428 23.17368099 -104.38077164 23.13235283 C-108.49004122 22.96797538 -112.59932094 22.80385377 -116.70861244 22.64002514 C-150.31415649 21.29936405 -183.91275423 19.85999482 -217.50152206 18.14634323 C-220.0574102 18.01628156 -222.61336707 17.88765058 -225.16934204 17.75930786 C-229.12422536 17.56022259 -233.07884937 17.35662541 -237.03329468 17.14902496 C-238.46923484 17.07407425 -239.90523892 17.00033677 -241.34130859 16.92790985 C-243.28869074 16.82922436 -245.23578698 16.72494406 -247.18286133 16.62036133 C-248.26706863 16.56358719 -249.35127594 16.50681305 -250.46833801 16.44831848 C-252.8535673 16.23865796 -254.96648518 15.87331057 -257.2578125 15.203125 C-257.2578125 14.213125 -257.2578125 13.223125 -257.2578125 12.203125 C-253.7839131 11.04515853 -250.52710097 10.89025857 -246.90478516 10.70996094 C-246.14667793 10.66897655 -245.38857071 10.62799217 -244.60749054 10.58576584 C-242.04582974 10.44863403 -239.48388664 10.31790265 -236.921875 10.1875 C-235.07053641 10.09064625 -233.21920814 9.99359493 -231.3678894 9.8963623 C-226.27712653 9.63078471 -221.18603516 9.37208094 -216.09481812 9.1153717 C-212.88533324 8.95325233 -209.67593696 8.78946498 -206.46655273 8.62536621 C-162.43738074 6.38074378 -118.39131135 4.59831721 -74.33861566 2.89332771 C-72.34267225 2.81604964 -70.34673493 2.73861475 -68.35079765 2.66117859 C-62.18454542 2.42206895 -56.01824305 2.18455983 -49.85177612 1.9510498 C-40.39046006 1.58917357 -30.93487208 1.21104513 -21.48291016 0.65234375 C-14.31957108 0.23111117 -7.17551225 0.02946095 0 0 Z " fill="#000000" transform="translate(641.2578125,958.796875)"/>
<path d="M0 0 C1.1520694 -0.00701431 2.30413879 -0.01402863 3.49111938 -0.02125549 C7.17771419 -0.03858126 10.86414725 -0.04510643 14.55078125 -0.046875 C16.46121719 -0.04788712 16.46121719 -0.04788712 18.4102478 -0.04891968 C58.61997562 -0.01529556 98.38209975 3.47161503 137.86328125 11.203125 C138.19328125 12.523125 138.52328125 13.843125 138.86328125 15.203125 C132.51823429 17.44283056 126.17754931 18.50242202 119.55078125 19.578125 C118.8922113 19.68539917 118.23364136 19.79267334 117.55511475 19.90319824 C105.24647417 21.88415155 92.89548201 23.25772563 80.48828125 24.453125 C79.63462982 24.53584656 78.78097839 24.61856812 77.90145874 24.70379639 C58.25714343 26.58634803 38.78916719 27.44142186 19.05078125 27.453125 C17.242146 27.45463562 17.242146 27.45463562 15.39697266 27.45617676 C-10.82495731 27.44172051 -36.9761642 26.29336473 -63.16028786 25.01004601 C-76.45980161 24.35879337 -89.76181973 23.79093689 -103.06640625 23.25390625 C-104.05846573 23.21379362 -105.05052521 23.17368099 -106.07264709 23.13235283 C-110.13630499 22.96807336 -114.1999691 22.80394879 -118.26364136 22.64002514 C-151.62160444 21.29313991 -184.97287012 19.84553723 -218.314888 18.14634323 C-220.87367187 18.01628813 -223.43252383 17.88765171 -225.99139404 17.75930786 C-229.95209937 17.56017393 -233.91254842 17.35656857 -237.87282181 17.14902496 C-239.31173957 17.07406393 -240.75072169 17.00032655 -242.18976974 16.92790985 C-244.14200955 16.82921449 -246.09396487 16.72493843 -248.04589844 16.62036133 C-249.13312195 16.56358719 -250.22034546 16.50681305 -251.34051514 16.44831848 C-253.72856105 16.23891553 -255.84291052 15.87444713 -258.13671875 15.203125 C-258.13671875 14.213125 -258.13671875 13.223125 -258.13671875 12.203125 C-254.63031122 11.03432249 -251.33275331 10.88921268 -247.67602539 10.70996094 C-246.52185875 10.64848436 -246.52185875 10.64848436 -245.34437561 10.58576584 C-242.74541569 10.44865949 -240.14617782 10.31793365 -237.546875 10.1875 C-235.67035358 10.09066313 -233.79384324 9.9936114 -231.91734314 9.8963623 C-226.76189911 9.63091042 -221.60613698 9.37218989 -216.45025635 9.1153717 C-213.20188235 8.95325793 -209.95359555 8.78948453 -206.70532227 8.62536621 C-162.11177391 6.37811251 -117.50233906 4.56187648 -72.88696289 2.81542969 C-71.58874068 2.76452682 -70.29051847 2.71362396 -68.9529562 2.66117859 C-62.85738436 2.42232874 -56.76176519 2.18492452 -50.66600037 1.9510498 C-41.0612199 1.57942709 -31.46129151 1.18589303 -21.86401367 0.65234375 C-14.57417314 0.25009184 -7.30209668 0.03075746 0 0 Z " fill="#000000" transform="translate(642.13671875,852.796875)"/>
<path d="M0 0 C10.42053194 7.57856868 16.45482328 17.26169607 19.44921875 29.78125 C20.7848803 44.59777469 18.14110456 57.15098703 8.44921875 68.78125 C7.87558594 69.49023438 7.30195312 70.19921875 6.7109375 70.9296875 C-1.06356392 79.61981543 -13.1785923 85.23058227 -24.7578125 85.9921875 C-39.74178338 86.41427119 -51.34012798 82.45636773 -62.22265625 72.19140625 C-70.68735861 63.42845096 -74.64436044 52.96032706 -75.05078125 40.78125 C-74.65195496 28.82975542 -70.82618706 18.30959923 -62.515625 9.6640625 C-44.87636457 -6.82413508 -21.39704313 -13.70485651 0 0 Z M-57.55078125 10.78125 C-64.21720792 19.36052714 -68.09210169 28.41362139 -67.48828125 39.40625 C-66.07009823 49.79630666 -61.47774785 58.73561672 -53.44921875 65.5703125 C-45.76821362 71.08000876 -37.01813942 73.94845854 -27.55078125 72.78125 C-17.63401182 70.8983191 -9.51378516 66.23901471 -3.765625 57.84765625 C1.31844816 49.19982762 2.30797992 40.29706214 0.2265625 30.54296875 C-2.58070351 20.56941564 -8.31607569 12.31621838 -17.4375 7.14453125 C-30.53047219 1.04380055 -46.94201281 -0.84810882 -57.55078125 10.78125 Z " fill="#000000" transform="translate(1067.55078125,380.21875)"/>
<path d="M0 0 C0.94584961 0.0817749 1.89169922 0.1635498 2.86621094 0.24780273 C15.22270977 1.45176411 28.25352177 3.37617392 40.0625 7.3125 C39.7325 8.6325 39.4025 9.9525 39.0625 11.3125 C-0.88569703 19.8745753 -38.63400238 18.23822966 -79.18170166 15.64770508 C-83.61904767 15.36661141 -88.05695516 15.09504634 -92.49490452 14.82367134 C-96.83390868 14.55762856 -101.17263047 14.28719652 -105.51127434 14.01534653 C-107.55254158 13.88764814 -109.59386699 13.7608755 -111.63525581 13.63513565 C-124.44457163 12.84172089 -137.18575358 11.76652858 -149.9375 10.3125 C-149.9375 9.3225 -149.9375 8.3325 -149.9375 7.3125 C-120.4203316 4.99128137 -90.89589906 2.92406625 -61.33846664 1.1960907 C-59.07839624 1.06343305 -56.81843917 0.92897752 -54.5585022 0.79406738 C-50.94946247 0.57906487 -47.34014891 0.36938851 -43.73056602 0.16371155 C-41.78382522 0.0519562 -39.83731712 -0.06383077 -37.89082336 -0.17980957 C-25.2672836 -0.88337167 -12.60722888 -1.10777272 0 0 Z " fill="#000000" transform="translate(204.9375,348.6875)"/>
<path d="M0 0 C4.33006381 2.37860372 6.67364916 5.26256849 9.0625 9.5625 C10.81387949 15.98422479 10.4259641 21.62043411 7.15234375 27.45703125 C4.03593373 31.77275941 -0.21812855 35.35324961 -5.1875 37.3125 C-10.97607199 37.95567467 -16.35660168 38.16255993 -21.6875 35.6875 C-27.05078321 30.59238096 -30.29877194 26.65725724 -30.5 19 C-30.41212137 13.85572039 -29.84902408 11.14838237 -26.1875 7.3125 C-18.22402334 0.97394859 -10.25338558 -4.70740937 0 0 Z M-18.1875 6.3125 C-18.50096682 10.30920192 -18.59145059 12.63924901 -16.5 16.125 C-14.06086542 18.43228947 -12.43384975 19.50091256 -9.1875 20.3125 C-7.03017868 20.39818503 -7.03017868 20.39818503 -5.1875 19.3125 C-3.16227807 17.18752253 -3.16227807 17.18752253 -2.1875 14.3125 C-2.80511541 10.88130326 -3.52814225 8.97185775 -6 6.5 C-10.62039425 3.99178598 -13.46674284 4.01956081 -18.1875 6.3125 Z " fill="#000000" transform="translate(83.1875,415.6875)"/>
<path d="M0 0 C4.11265975 3.80421027 7.17124016 6.97639602 7.73828125 12.73046875 C7.90798906 19.06324967 7.65282444 24.28077091 3.5 29.3125 C-2.64530183 34.39291198 -7.89582308 36.69442433 -15.8671875 36.58984375 C-21.51186001 35.99522691 -25.734944 33.49207131 -29.4375 29.25 C-33.19047257 23.90485725 -33.21212424 18.65214263 -32.5 12.3125 C-30.74076196 6.52085117 -27.09788167 3.71394658 -21.9375 0.8125 C-14.5757872 -2.50980196 -7.42425415 -3.57955111 0 0 Z M-18.5 4.3125 C-19.8269064 7.78287057 -19.48460731 9.35948821 -18.3125 12.9375 C-16.57825706 16.16677996 -15.73342387 17.69578807 -12.5 19.3125 C-10 19.97916667 -10 19.97916667 -7.5 19.3125 C-4.97616674 17.2828869 -4.97616674 17.2828869 -3.5 14.3125 C-3.17705523 11.24753351 -3.17705523 11.24753351 -4.5 8.3125 C-7.53105225 5.06997899 -9.29453881 3.45159168 -13.75 2.9375 C-16.45552088 3.15598386 -16.45552088 3.15598386 -18.5 4.3125 Z " fill="#000000" transform="translate(161.5,416.6875)"/>
<path d="M0 0 C3.96666924 4.25000276 5.73816539 8.35302037 6.125 14.125 C5.89631823 19.69911819 3.89439669 24.33076722 0.625 28.8125 C-6.08205361 34.51480044 -12.78517085 35.46661055 -21.375 34.8125 C-26.90050417 33.04016847 -30.00908238 29.36251893 -33.375 24.8125 C-35.78825518 19.98598964 -35.27456584 12.66280973 -33.6796875 7.609375 C-29.84020313 1.29555626 -21.65119531 -2.0300336 -14.77734375 -3.890625 C-9.50703426 -4.54191528 -4.24892653 -3.21053551 0 0 Z M-21.375 2.8125 C-21.66945076 7.81816288 -21.49263863 10.80410747 -18.375 14.8125 C-16.12661918 16.9859348 -14.91693616 17.73319227 -11.8125 18.1875 C-9.38350499 17.96712115 -9.38350499 17.96712115 -7.5625 16.75 C-5.65001179 13.62962449 -5.88216471 11.38555585 -6.375 7.8125 C-8.5477422 5.18233839 -10.32173788 3.33913106 -13.375 1.8125 C-17.52003661 1.56462983 -17.52003661 1.56462983 -21.375 2.8125 Z " fill="#000000" transform="translate(240.375,418.1875)"/>
</svg>
