<?xml version="1.0" encoding="UTF-8"?>
<svg version="1.1" xmlns="http://www.w3.org/2000/svg" viewBox="0 0 1181 1181">
<path d="M0 0 C11.12096838 -1.22059409 11.12096838 -1.22059409 15.36328125 1.53515625 C17.35791988 3.60974032 19.17042486 5.77949 21 8 C22.32896279 9.21564038 23.68318956 10.4043004 25.0625 11.5625 C28.23947387 14.2935828 31.19279063 17.16765954 34.12548828 20.15673828 C35.93239821 21.9335252 37.79353909 23.59444589 39.71484375 25.24609375 C43.93292779 28.91403503 48.00692347 32.71661251 52.0625 36.5625 C53.56095214 37.97812478 55.05965478 39.39348445 56.55859375 40.80859375 C57.67596924 41.86409424 57.67596924 41.86409424 58.81591797 42.94091797 C62.07510029 46.01356984 65.34864367 49.07068132 68.625 52.125 C69.23690186 52.69565186 69.84880371 53.26630371 70.47924805 53.85424805 C72.31920801 55.56981088 74.15953614 57.28497777 76 59 C85.97426631 68.29444412 95.91997671 77.6183934 105.84277344 86.96777344 C109.39394022 90.31316867 112.94704729 93.65650173 116.5 97 C120.76222139 101.01118523 125.02420438 105.02262244 129.28515625 109.03515625 C136.18341545 115.53059739 143.08573248 122.02159864 150 128.5 C157.63064102 135.64961563 165.24626716 142.81509103 172.85888672 149.98388672 C176.40529863 153.32325611 179.95269669 156.66157757 183.5 160 C184.91667145 161.33332826 186.33333811 162.66666159 187.75 164 C188.45125 164.66 189.1525 165.32 189.875 166 C235.5625 209 235.5625 209 281.25 252 C281.95205566 252.6607251 282.65411133 253.3214502 283.37744141 254.00219727 C284.78610401 255.32806408 286.19463388 256.65407191 287.60302734 257.98022461 C291.26604914 261.42899739 294.93173321 264.87487718 298.6015625 268.31640625 C299.35888672 269.02732422 300.11621094 269.73824219 300.89648438 270.47070312 C302.3318176 271.81797909 303.76795331 273.16440089 305.20507812 274.50976562 C309.00460372 278.07811302 312.73297165 281.69996941 316.38549805 285.41894531 C318.09154862 287.08965203 319.86725931 288.64263422 321.6875 290.1875 C325.30139738 293.29615348 328.65286514 296.6111498 332 300 C335.24450686 303.28469274 338.47922463 306.50734093 342 309.5 C346.08874765 312.9754355 349.80816684 316.78100237 353.57592773 320.59545898 C356.9058233 323.95060894 360.33931399 327.09725452 363.94140625 330.16015625 C367.07230281 332.95835792 369.98829695 335.96773656 372.93603516 338.95556641 C375.52022318 341.56120739 378.14209158 344.06053109 380.9375 346.4375 C385.04426535 349.93710497 388.78724806 353.75982009 392.57568359 357.59521484 C395.90566329 360.95044557 399.33922489 364.09717875 402.94140625 367.16015625 C406.07230281 369.95835792 408.98829695 372.96773656 411.93603516 375.95556641 C414.52022318 378.56120739 417.14209158 381.06053109 419.9375 383.4375 C424.04426535 386.93710497 427.78724806 390.75982009 431.57568359 394.59521484 C434.90566329 397.95044557 438.33922489 401.09717875 441.94140625 404.16015625 C444.56498809 406.50495141 447.02989224 408.99631388 449.5 411.5 C452.49178081 414.53228554 455.49151963 417.50154265 458.75 420.25 C463.56579537 424.34939606 467.94563808 428.89495101 472.37011719 433.40722656 C475.47461773 436.55436684 478.61846721 439.58305721 481.96875 442.46875 C486.91227222 446.73139913 491.4321549 451.38200168 496 456.0390625 C499.23997537 459.31700634 502.50697069 462.49135561 506 465.5 C510.93462131 469.75032812 515.44253389 474.39258338 520 479.0390625 C523.23997537 482.31700634 526.50697069 485.49135561 530 488.5 C534.93462131 492.75032812 539.44253389 497.39258338 544 502.0390625 C547.87539047 505.95986771 551.85496085 509.65675095 556.03125 513.25390625 C559.99672457 516.77090453 563.64859394 520.60961697 567.35546875 524.39453125 C570.46624598 527.54443775 573.61359379 530.5788596 576.96875 533.46875 C581.91227222 537.73139913 586.4321549 542.38200168 591 547.0390625 C594.23997537 550.31700634 597.50697069 553.49135561 601 556.5 C605.93462131 560.75032812 610.44253389 565.39258338 615 570.0390625 C618.97246903 574.0580839 623.04360929 577.87799202 627.3359375 581.5546875 C628.60166464 582.65402798 629.8145434 583.8145434 631 585 C630.37388065 593.22651253 618.31678354 601.72640333 612.65917969 607.32202148 C609.2500963 610.70564159 606.04359221 614.17856119 602.9375 617.84375 C599.6963345 621.45085354 596.20737621 624.81178895 592.76000977 628.22045898 C589.29613554 631.66036521 586.02875066 635.1855385 582.87109375 638.91015625 C579.86056104 642.27265103 576.61874836 645.40111968 573.40869141 648.57177734 C570.00881086 651.94600648 566.8122153 655.42506085 563.70703125 659.07421875 C561.009003 662.11798975 558.08202267 664.9258425 555.1875 667.78125 C553.20279658 669.79430632 551.33903084 671.85446403 549.5 674 C546.24955349 677.79218759 542.74550431 681.27135531 539.19140625 684.77734375 C536.57898932 687.4270144 534.16697379 690.21172803 531.74609375 693.03515625 C529.2764064 695.81424514 526.62096678 698.38860496 523.97265625 700.99609375 C521.42662171 703.58246151 519.07978443 706.3153528 516.71484375 709.06640625 C514.49830603 711.56569138 512.12837719 713.88281884 509.74609375 716.22265625 C507.93522357 718.06593574 506.24678646 719.97822799 504.5625 721.9375 C502.14382221 724.74576347 499.64100317 727.39970593 497 730 C494.37959391 732.58009215 491.89676588 735.21103607 489.5 738 C487.10323412 740.78896393 484.62040609 743.41990785 482 746 C479.40017817 748.55990134 476.93731602 751.1677954 474.5625 753.9375 C471.99334729 756.92801716 469.30682744 759.73116684 466.5 762.5 C463.79616607 765.16754086 461.20744465 767.85459492 458.75 770.75 C455.02878063 775.09721889 450.97204493 779.0846465 446.88183594 783.08105469 C444.07318523 785.84515084 441.40211919 788.65806431 438.84375 791.65625 C433.38848062 797.96938012 427.33126291 803.72416458 421.39746094 809.58203125 C419.82531785 811.13585998 418.25636916 812.69286677 416.6875 814.25 C415.76324219 815.16265625 414.83898437 816.0753125 413.88671875 817.015625 C411.7680478 819.15765385 409.7870904 821.38292443 407.82592773 823.66967773 C403.17065272 829.03868821 398.12513961 834.01921261 393.09765625 839.03515625 C392.05050864 840.08297946 391.00350934 841.1309509 389.95664978 842.17906189 C387.77390674 844.36326988 385.58938975 846.54568332 383.40356445 848.72680664 C380.62213576 851.50253881 377.84522224 854.28273782 375.06963444 857.06430912 C372.91198979 859.22559203 370.75193853 861.38445714 368.59118462 863.54263115 C367.5671423 864.56601321 366.54382326 865.59011961 365.52128792 866.6150074 C360.38836616 871.75714832 355.21492656 876.79350308 349.69700623 881.52537537 C347.40082183 883.52065978 345.25875239 885.6455231 343.125 887.8125 C342.28453125 888.66070313 341.4440625 889.50890625 340.578125 890.3828125 C339.72734375 891.24648438 338.8765625 892.11015625 338 893 C332.73753383 898.34220051 327.4676033 903.56687177 321.7734375 908.44921875 C319.21806514 910.68376243 316.87183 913.07101747 314.5 915.5 C310.76997377 919.28680573 306.93765921 922.87397309 302.89453125 926.32421875 C300.13339675 928.76654184 297.58531189 931.40554261 295 934.03125 C292.43694772 936.55425459 289.72654176 938.87562817 287 941.21875 C284.91662922 943.0742521 282.95718793 945.01223101 281 947 C278.55336563 949.47963329 276.07892226 951.85440376 273.4375 954.125 C269.44224992 957.56295587 265.59549861 961.146802 261.75 964.75 C256.18683992 969.96163606 250.59564723 975.13838694 244.96875 980.28125 C242.31919486 982.70410524 239.68195344 985.14005125 237.04663086 987.57836914 C231.0756782 993.10283023 225.06029473 998.57346158 219 1004 C213.77613326 1008.69149815 208.56356322 1013.39446167 203.375 1018.125 C199.62887742 1021.53486474 195.85059488 1024.89978972 192.02734375 1028.22265625 C189.66510827 1030.29359487 187.33204147 1032.39512848 185 1034.5 C179.65210014 1039.32121275 174.25697785 1044.07894027 168.77734375 1048.75 C163.21877521 1053.49079323 157.69062026 1058.24086217 152.3125 1063.1875 C147.92644354 1067.21393836 143.38258372 1070.98109722 138.75 1074.71875 C135.91900422 1077.06718968 133.20616402 1079.50909902 130.5 1082 C126.13230508 1086.01605847 121.63150764 1089.79385454 117.015625 1093.51953125 C113.45329519 1096.44968595 109.97534874 1099.46769057 106.5 1102.5 C101.32089986 1107.01499643 96.08163384 1111.43238564 90.7421875 1115.7578125 C87.62999637 1118.30253858 84.56280258 1120.89625916 81.5 1123.5 C75.72466035 1128.40564144 69.87824428 1133.21799217 64 1138 C62.27049133 1139.41624911 60.54133183 1140.83292473 58.8125 1142.25 C56.87543621 1143.83386697 54.93788964 1145.41714358 53 1147 C52.40026367 1147.49016602 51.80052734 1147.98033203 51.18261719 1148.48535156 C34.89259429 1161.79119312 34.89259429 1161.79119312 28.07226562 1167.0222168 C25.21435898 1169.21714424 22.47437274 1171.45005889 19.8359375 1173.90625 C12.96378612 1180.09331714 7.62960305 1181.97000862 -1.61645508 1181.51049805 C-3.41398434 1181.37585398 -5.20781531 1181.19316961 -7 1181 C-5.35728782 1177.28835842 -3.05107313 1174.31833704 -0.5625 1171.125 C-0.12075439 1170.55692627 0.32099121 1169.98885254 0.77612305 1169.40356445 C2.18070837 1167.59971617 3.5903114 1165.79986157 5 1164 C5.88301014 1162.86603929 6.76582581 1161.73192712 7.6484375 1160.59765625 C14.64262632 1151.63163973 21.80408596 1142.80446814 29 1134 C30.24136719 1132.48019531 30.24136719 1132.48019531 31.5078125 1130.9296875 C33.67020656 1128.2850871 35.8348209 1125.64232042 38 1123 C39.50014281 1121.16678352 41.00014082 1119.33344854 42.5 1117.5 C43.24507812 1116.58992188 43.99015625 1115.67984375 44.7578125 1114.7421875 C46.2340486 1112.93675589 47.70806736 1111.12950859 49.1796875 1109.3203125 C55.49110041 1101.57142476 61.94407987 1093.94855155 68.41601562 1086.33398438 C69.81980806 1084.68166437 71.22271798 1083.02860202 72.625 1081.375 C73.08229492 1080.83593018 73.53958984 1080.29686035 74.01074219 1079.74145508 C76.92393014 1076.29807526 79.78566776 1072.81730074 82.625 1069.3125 C86.19932521 1064.91773359 89.93857678 1060.71296517 93.75390625 1056.52734375 C96.06187598 1053.93037607 98.25555863 1051.26595987 100.4375 1048.5625 C104.30058217 1043.78571491 108.37911435 1039.26053118 112.5390625 1034.7421875 C114.91039895 1032.09984117 117.15252997 1029.39305833 119.375 1026.625 C123.75944247 1021.19108991 128.45500063 1016.10173982 133.21484375 1011 C135.97346339 1008.04123978 138.64611326 1005.01604915 141.29296875 1001.95703125 C143.33633431 999.6144085 145.41680859 997.30726578 147.5 995 C150.17048344 992.04130249 152.82298058 989.07073528 155.4375 986.0625 C159.0929977 981.86419058 162.84984457 977.76068087 166.6015625 973.6484375 C168.55237143 971.49428693 170.47393612 969.32281531 172.375 967.125 C175.98114909 962.97452652 179.71962635 958.95072736 183.45654297 954.91845703 C186.49726897 951.63515519 189.51404811 948.3334081 192.5 945 C196.9373979 940.04997852 201.44679088 935.16891213 205.9609375 930.2890625 C208.81666498 927.2012505 211.66016833 924.10242762 214.5 921 C228.00288143 906.25747803 241.63474019 891.63647158 255.31689453 877.06030273 C258.50419758 873.66466575 261.68667454 870.26475834 264.859375 866.85546875 C271.51648083 859.71131949 278.23340221 852.66851509 285.21875 845.84375 C287.28946887 843.72649812 289.21746504 841.61009648 291.13868713 839.36549377 C295.09807619 834.82463464 299.29790898 830.56143383 303.56225586 826.30834961 C304.38923477 825.47961838 305.21621368 824.65088715 306.06825256 823.79704285 C308.78128653 821.07963581 311.49792877 818.36587006 314.21484375 815.65234375 C316.11396153 813.75255162 318.01293108 811.85261224 319.91175842 809.95252991 C323.88330662 805.97916892 327.85694352 802.00790597 331.83178711 798.0378418 C336.40920647 793.46586333 340.9830126 788.89029391 345.55495924 784.31284326 C349.49983912 780.36340678 353.44668765 776.41594559 357.39515024 772.47009093 C359.74488847 770.12190151 362.09376913 767.77286712 364.44126701 765.42243767 C367.06120838 762.79994247 369.68435873 760.18069842 372.30834961 757.56225586 C373.0727536 756.79582764 373.83715759 756.02939941 374.62472534 755.23974609 C378.69917408 751.18115554 382.85655586 747.28735221 387.22902775 743.55066776 C390.13021631 741.01037976 392.8065199 738.25668 395.5 735.5 C399.52790431 731.4212704 403.60259775 727.51425254 407.9765625 723.8046875 C411.09483756 721.02352325 413.99445598 718.02614322 416.92749023 715.05297852 C420.19396614 711.75924885 423.57911693 708.68503056 427.10546875 705.67578125 C429.86660325 703.23345816 432.41468811 700.59445739 435 697.96875 C437.56305228 695.44574541 440.27345824 693.12437183 443 690.78125 C445.08337078 688.9257479 447.04281207 686.98776899 449 685 C452.20029522 681.74970017 455.54224576 678.75275755 459 675.78125 C461.78885533 673.29742572 464.37686983 670.63288563 466.99609375 667.97265625 C469.58246151 665.42662171 472.3153528 663.07978443 475.06640625 660.71484375 C476.95494597 659.03995701 478.73155648 657.30052413 480.5 655.5 C482.89053167 653.06610268 485.35046262 650.78644441 487.9375 648.5625 C490.74576347 646.14382221 493.39970593 643.64100317 496 641 C498.53972186 638.4207494 501.12451314 635.97782611 503.875 633.625 C507.06682509 630.88378551 510.04302977 627.99314112 513 625 C516.54232199 621.41441301 520.17555661 618.05108338 524.00390625 614.77734375 C526.26132626 612.76731223 528.37735713 610.65167047 530.5 608.5 C533.22829407 605.73439592 535.98516834 603.08712969 538.9375 600.5625 C543.89417863 596.31677931 548.43023998 591.65403839 553 587 C548.7507154 581.97752753 544.3811217 577.10524675 539.875 572.3125 C539.22337891 571.61769531 538.57175781 570.92289063 537.90039062 570.20703125 C532.96871553 564.97223857 527.9252223 559.86947006 522.78125 554.84375 C520.64665275 552.66118427 518.64571597 550.46529082 516.65625 548.15625 C512.96711197 543.89583869 509.02160197 539.94455978 505 536 C500.39197045 531.48024688 495.98982203 526.89067773 491.77734375 522 C488.67613415 518.51028722 485.33165868 515.2678338 482 512 C477.38174047 507.47021287 472.9680272 502.87040516 468.74609375 497.96875 C465.81387042 494.66261899 462.65589331 491.59082335 459.5 488.5 C455.70587028 484.78409976 451.99863434 481.05687536 448.53125 477.03125 C444.88933509 472.8076119 440.97965701 468.90341837 437 465 C432.35104166 460.44010217 427.90263782 455.80958178 423.65234375 450.875 C421.2250393 448.12061197 418.62759938 445.56146342 416 443 C412.09850621 439.15149764 408.39153636 435.2355232 404.83984375 431.05859375 C402.49504936 428.43501277 400.00369432 425.97009896 397.5 423.5 C394.40508867 420.44661717 391.38065743 417.37676339 388.5625 414.0625 C385.54647173 410.523209 382.30552099 407.26505555 379 404 C375.12271626 400.17012306 371.4375639 396.27948694 367.90625 392.125 C364.8799847 388.75145836 361.62789294 385.60796464 358.40454102 382.42407227 C355.04939106 379.0941767 351.90274548 375.66068601 348.83984375 372.05859375 C346.49504936 369.43501277 344.00369432 366.97009896 341.5 364.5 C338.40508867 361.44661717 335.38065743 358.37676339 332.5625 355.0625 C329.54647196 351.52320926 326.30552422 348.26505255 323 345 C319.10104317 341.14878063 315.39175703 337.23578271 311.83984375 333.05859375 C309.49504936 330.43501277 307.00369432 327.97009896 304.5 325.5 C301.40508867 322.44661717 298.38065743 319.37676339 295.5625 316.0625 C292.06423799 311.95731061 288.24316838 308.21562795 284.40917969 304.42871094 C281.00913777 301.05431359 277.81236685 297.57511725 274.70703125 293.92578125 C272.01021987 290.88338305 269.08465604 288.07674191 266.19140625 285.22265625 C263.57898932 282.5729856 261.16697379 279.78827197 258.74609375 276.96484375 C256.90384325 274.89179676 254.97598338 272.94564198 253 271 C250.40017817 268.44009866 247.93731602 265.8322046 245.5625 263.0625 C242.99334729 260.07198284 240.30682744 257.26883316 237.5 254.5 C234.0928121 251.13885518 230.92541826 247.66298797 227.8125 244.03125 C225.7890712 241.76361428 223.66346653 239.6342305 221.5 237.5 C218.0928121 234.13885518 214.92541826 230.66298797 211.8125 227.03125 C209.7890712 224.76361428 207.66346653 222.6342305 205.5 220.5 C202.0928121 217.13885518 198.92541826 213.66298797 195.8125 210.03125 C193.7890712 207.76361428 191.66346653 205.6342305 189.5 203.5 C186.0928121 200.13885518 182.92541826 196.66298797 179.8125 193.03125 C177.7890712 190.76361428 175.66346653 188.6342305 173.5 186.5 C170.0928121 183.13885518 166.92541826 179.66298797 163.8125 176.03125 C161.7890712 173.76361428 159.66346653 171.6342305 157.5 169.5 C154.0928121 166.13885518 150.92541826 162.66298797 147.8125 159.03125 C145.7890712 156.76361428 143.66346653 154.6342305 141.5 152.5 C138.0928121 149.13885518 134.92541826 145.66298797 131.8125 142.03125 C129.7890712 139.76361428 127.66346653 137.6342305 125.5 135.5 C122.0928121 132.13885518 118.92541826 128.66298797 115.8125 125.03125 C113.07222917 121.96025683 110.12053098 119.11213124 107.19140625 116.22265625 C104.57898932 113.5729856 102.16697379 110.78827197 99.74609375 107.96484375 C97.90384325 105.89179676 95.97598338 103.94564198 94 102 C91.40017817 99.44009866 88.93731602 96.8322046 86.5625 94.0625 C83.99334729 91.07198284 81.30682744 88.26883316 78.5 85.5 C75.0711721 82.11758601 71.87951482 78.61929558 68.74609375 74.96484375 C66.2764064 72.18575486 63.62096678 69.61139504 60.97265625 67.00390625 C58.42662171 64.41753849 56.07978443 61.6846472 53.71484375 58.93359375 C51.52866058 56.46853528 49.19412711 54.18103423 46.84326172 51.87451172 C45.0664748 50.06760179 43.40555411 48.20646091 41.75390625 46.28515625 C38.08596137 42.06706807 34.28331211 37.99315305 30.4375 33.9375 C29.02971889 32.44683084 27.62217146 30.95594097 26.21484375 29.46484375 C25.51214355 28.72089355 24.80944336 27.97694336 24.08544922 27.21044922 C0 1.68133926 0 1.68133926 0 0 Z " fill="#000000" transform="translate(550,0)"/>
<path d="M0 0 C11.0591668 -1.06208462 11.0591668 -1.06208462 15.3984375 1.3125 C17.4221329 3.10423031 19.2141676 4.97208809 21 7 C22.16020329 8.17309444 23.3267755 9.33992824 24.5 10.5 C25.03681396 11.0460791 25.57362793 11.5921582 26.12670898 12.15478516 C27.93247518 13.93348722 29.79315265 15.59411368 31.71484375 17.24609375 C35.93292917 20.91403623 40.00689798 24.71663762 44.0625 28.5625 C45.55835778 29.97551027 47.05445617 31.38826585 48.55078125 32.80078125 C49.29537598 33.50412598 50.0399707 34.2074707 50.80712891 34.93212891 C54.11179128 38.04841596 57.42895042 41.15119292 60.75 44.25 C61.36705811 44.82580811 61.98411621 45.40161621 62.61987305 45.99487305 C66.5256007 49.63541935 70.44661594 53.25893468 74.375 56.875 C81.57407397 63.50455514 88.69126005 70.22054963 95.81054688 76.93554688 C99.37125149 80.29296416 102.9357824 83.64631302 106.5 87 C107.91668579 88.33331302 109.33335244 89.66664637 110.75 91 C111.45125 91.66 112.1525 92.32 112.875 93 C204.25 179 204.25 179 206.37524414 181.00024414 C207.79107789 182.33278398 209.20693074 183.66530353 210.62280273 184.99780273 C214.17737038 188.34310987 217.73159931 191.68877549 221.28515625 195.03515625 C228.18341545 201.53059739 235.08573248 208.02159864 242 214.5 C249.63064102 221.64961563 257.24626716 228.81509103 264.85888672 235.98388672 C268.40529863 239.32325611 271.95269669 242.66157757 275.5 246 C276.91667145 247.33332826 278.33333811 248.66666159 279.75 250 C280.45125 250.66 281.1525 251.32 281.875 252 C284 254 286.125 256 288.25 258 C288.95189453 258.66056396 289.65378906 259.32112793 290.37695312 260.00170898 C291.78728156 261.32916279 293.19743907 262.65679822 294.60742188 263.98461914 C298.24465118 267.40945242 301.88519639 270.83065459 305.53125 274.24609375 C312.15244492 280.45386772 318.73556471 286.66937832 325.10546875 293.13671875 C326.96779435 294.96832558 328.89072523 296.67703342 330.875 298.375 C334.24557765 301.26214819 337.38503521 304.34247378 340.5 307.5 C343.55337286 310.59492241 346.62323732 313.61934317 349.9375 316.4375 C353.476791 319.45352827 356.73494445 322.69447901 360 326 C363.24451876 329.28467991 366.47922358 332.50734004 370 335.5 C374.08874765 338.9754355 377.80816684 342.78100237 381.57592773 346.59545898 C384.9058233 349.95060894 388.33931399 353.09725452 391.94140625 356.16015625 C395.07230281 358.95835792 397.98829695 361.96773656 400.93603516 364.95556641 C403.52022318 367.56120739 406.14209158 370.06053109 408.9375 372.4375 C413.04426535 375.93710497 416.78724806 379.75982009 420.57568359 383.59521484 C423.90566329 386.95044557 427.33922489 390.09717875 430.94140625 393.16015625 C433.56498752 395.50495089 436.02989811 397.99630842 438.5 400.5 C441.53285146 403.5740377 444.5793933 406.57999179 447.875 409.375 C452.18629664 413.04758602 456.12637923 417.07068451 460.08154297 421.11865234 C462.92666389 424.00964808 465.83223017 426.75851026 468.90625 429.40625 C473.86762954 433.69345165 478.41140699 438.36084853 483 443.0390625 C486.87539047 446.95986771 490.85496085 450.65675095 495.03125 454.25390625 C498.99672457 457.77090453 502.64859394 461.60961697 506.35546875 465.39453125 C509.46624598 468.54443775 512.61359379 471.5788596 515.96875 474.46875 C520.91227222 478.73139913 525.4321549 483.38200168 530 488.0390625 C533.23997537 491.31700634 536.50697069 494.49135561 540 497.5 C544.93462131 501.75032812 549.44253389 506.39258338 554 511.0390625 C557.23997537 514.31700634 560.50697069 517.49135561 564 520.5 C568.93462131 524.75032812 573.44253389 529.39258338 578 534.0390625 C581.87539047 537.95986771 585.85496085 541.65675095 590.03125 545.25390625 C593.99672457 548.77090453 597.64859394 552.60961697 601.35546875 556.39453125 C604.44618868 559.52412816 607.57101164 562.54094315 610.90625 565.41015625 C615.49460334 569.36644051 619.74196879 573.63150136 624 577.9375 C624.77472656 578.71673828 625.54945313 579.49597656 626.34765625 580.29882812 C628.23410757 582.1969242 630.11816245 584.09733149 632 586 C630.37915347 589.44401787 628.57463755 591.60671518 625.8125 594.25 C623.01809015 596.97808683 620.32932459 599.70198103 617.8125 602.6875 C614.40839957 606.66559394 610.71872828 610.31999839 607 614 C602.78988073 618.16645715 598.72758775 622.35285418 594.90234375 626.87890625 C591.67774715 630.47429836 588.19970021 633.81944864 584.76635742 637.21411133 C581.23543024 640.72052882 577.89303983 644.31414119 574.671875 648.109375 C571.98735673 651.14513865 569.06740015 653.94025449 566.18359375 656.78515625 C564.22025329 658.77659461 562.37920331 660.81302578 560.5625 662.9375 C557.05650315 667.02918541 553.24538109 670.76966883 549.4140625 674.5546875 C546.71248706 677.29123479 544.20921265 680.14979366 541.7109375 683.0703125 C539.25426881 685.84107582 536.60640023 688.402929 533.96875 691 C532.06013545 692.93891002 530.27289448 694.93699551 528.5 697 C525.48358077 700.51001511 522.26904868 703.75051276 518.97265625 706.99609375 C516.42662171 709.58246151 514.07978443 712.3153528 511.71484375 715.06640625 C509.49830603 717.56569138 507.12837719 719.88281884 504.74609375 722.22265625 C502.93522357 724.06593574 501.24678646 725.97822799 499.5625 727.9375 C497.14382221 730.74576347 494.64100317 733.39970593 492 736 C489.37959391 738.58009215 486.89676588 741.21103607 484.5 744 C482.10323412 746.78896393 479.62040609 749.41990785 477 752 C474.44130741 754.51955389 472.01829389 757.08118782 469.6875 759.8125 C466.77749511 763.20195649 463.67839292 766.36450761 460.5 769.5 C457.42594766 772.53283829 454.4200074 775.57939426 451.625 778.875 C447.95241398 783.18629664 443.92931549 787.12637923 439.88134766 791.08154297 C437.07784828 793.84055594 434.4076622 796.65077765 431.85301208 799.64280701 C427.78480436 804.31267996 423.45402478 808.68640833 419.07055664 813.05883789 C417.77156685 814.36045616 417.77156685 814.36045616 416.44633484 815.68836975 C414.09278194 818.04554498 411.737033 820.40047968 409.38007665 822.75424886 C406.89994292 825.23182976 404.42227389 827.71187363 401.94419861 830.19151306 C397.78433691 834.35318798 393.62238528 838.51276408 389.45922852 842.67114258 C384.66368299 847.46124713 379.87175022 852.25494316 375.0816775 857.05052 C370.94996205 861.18679079 366.81627938 865.32108798 362.68098158 869.45377725 C360.21946068 871.91374866 357.75859761 874.37436793 355.29951668 876.83677864 C352.55549811 879.58425391 349.80735929 882.32758559 347.05883789 885.07055664 C346.25703094 885.87438782 345.455224 886.67821899 344.62911987 887.50640869 C340.47275601 891.64731369 336.24330534 895.63220914 331.77942562 899.44087887 C328.69984982 902.13918311 325.86276732 905.07565037 323 908 C318.72900863 912.32090468 314.42837002 916.50108241 309.7890625 920.4296875 C307.05635945 922.82826092 304.54994772 925.44145935 302 928.03125 C299.43694772 930.55425459 296.72654176 932.87562817 294 935.21875 C291.29153337 937.63097809 288.76847355 940.20408097 286.25 942.8125 C284.30563876 944.7028512 282.32087883 946.48168855 280.2734375 948.2578125 C275.94613703 952.01641638 271.78051399 955.928449 267.625 959.875 C262.33795721 964.87483978 257.01985714 969.82360849 251.5859375 974.6640625 C248.18572165 977.73555657 244.84397892 980.86752413 241.5 984 C236.53512599 988.6492917 231.53724429 993.2529115 226.46484375 997.78515625 C223.58104492 1000.37646201 220.72770782 1002.99958542 217.875 1005.625 C213.98339114 1009.20342059 210.05318715 1012.728318 206.05859375 1016.19140625 C203.5104335 1018.4301125 201.00589407 1020.71410212 198.5 1023 C194.70990918 1026.45643771 190.88943967 1029.86843854 187.015625 1033.23046875 C184.71392236 1035.25114956 182.45235621 1037.31312618 180.1875 1039.375 C176.76770672 1042.46636801 173.28041476 1045.42459032 169.6875 1048.3125 C164.8749471 1052.20191158 160.3540148 1056.3274325 155.84106445 1060.5534668 C151.60505142 1064.49790439 147.19365192 1068.16480701 142.6796875 1071.7890625 C139.86746685 1074.1093495 137.18202737 1076.53071134 134.5 1079 C130.0301488 1083.11378909 125.40955107 1086.97087297 120.68359375 1090.78515625 C118.05291443 1092.95632827 115.52057576 1095.20241357 113 1097.5 C108.77635723 1101.34510875 104.4130207 1104.96758171 99.97265625 1108.55859375 C96.66249176 1111.27719139 93.4249179 1114.07070096 90.1875 1116.875 C84.99618794 1121.36234514 79.68327091 1125.64648545 74.25952148 1129.84838867 C69.3634166 1133.66286769 64.65693649 1137.67205004 59.96435547 1141.73266602 C55.96355442 1145.18994717 51.89609561 1148.53865437 47.74609375 1151.81640625 C44.89838169 1154.08080318 42.07969462 1156.37809514 39.26245117 1158.68017578 C32.51372291 1164.19255037 25.70308959 1169.60085735 18.76953125 1174.87890625 C15.98782244 1176.91619211 15.98782244 1176.91619211 13.71875 1179.26171875 C9.74992961 1181.79925478 6.28878853 1181.43884531 1.6875 1181.25 C0.85154297 1181.23195313 0.01558594 1181.21390625 -0.84570312 1181.1953125 C-2.89763228 1181.14841126 -4.94896756 1181.07667411 -7 1181 C-3.10122541 1174.91281242 1.08747289 1169.26922753 5.75 1163.75 C9.93456499 1158.73641742 14.05235347 1153.70252754 18 1148.5 C23.59659221 1141.14237136 29.49955482 1134.04598165 35.40039062 1126.93164062 C37.5482763 1124.33791788 39.68162295 1121.73271667 41.8125 1119.125 C42.51246094 1118.2690625 43.21242187 1117.413125 43.93359375 1116.53125 C45.34410774 1114.80343702 46.75288743 1113.07420714 48.16015625 1111.34375 C52.68592225 1105.78831237 57.27551534 1100.29387115 61.91577148 1094.83422852 C64.79520268 1091.4408462 67.63189727 1088.01750083 70.4375 1084.5625 C75.33572239 1078.54866823 80.38913246 1072.67366596 85.45166016 1066.79833984 C87.97292963 1063.86997797 90.48602111 1060.9346201 93 1058 C93.49258301 1057.42564209 93.98516602 1056.85128418 94.49267578 1056.25952148 C97.034167 1053.29610787 99.57245853 1050.33004236 102.10546875 1047.359375 C106.57540939 1042.12223205 111.0529519 1036.90567526 115.6875 1031.8125 C118.66024023 1028.54195395 121.48485914 1025.19764386 124.25 1021.75 C128.90658812 1015.99053574 133.92834177 1010.62051301 138.9921875 1005.22265625 C141.8422557 1002.18205669 144.60488811 999.07651576 147.328125 995.921875 C149.35758073 993.58894926 151.427647 991.29488755 153.5 989 C156.18983431 986.01937279 158.86310364 983.02754767 161.5 980 C167.85319444 972.71422656 174.37347252 965.58001436 180.91308594 958.46191406 C183.79365048 955.32404857 186.65500881 952.17013305 189.5 949 C194.16133582 943.8078359 198.87650194 938.66593865 203.59716797 933.52783203 C204.97356272 932.02879298 206.34841739 930.52835924 207.72265625 929.02734375 C213.46020317 922.76078115 219.21394226 916.50943622 224.98046875 910.26953125 C226.94416661 908.14445084 228.90509374 906.01687744 230.86328125 903.88671875 C237.81872834 896.32542121 244.84537585 888.83333034 251.89453125 881.359375 C254.62831608 878.45980774 257.35466475 875.55354328 260.07421875 872.640625 C265.70010849 866.61619726 271.31266487 860.60611527 277.19921875 854.83374023 C278.83936495 853.16357509 280.34030962 851.44873632 281.84375 849.65625 C288.1202012 842.43667068 295.09666189 835.85023336 301.89355469 829.12695312 C303.74366619 827.29510246 305.59062912 825.46011693 307.4375 823.625 C307.99187744 823.0789209 308.54625488 822.5328418 309.11743164 821.97021484 C312.0050905 819.10030355 314.75870362 816.16591317 317.42016602 813.08422852 C321.05399669 808.88464573 324.90833266 804.94719406 328.83984375 801.02734375 C329.56563126 800.30059952 330.29141876 799.57385529 331.03919983 798.8250885 C332.56323556 797.30037704 334.08851569 795.7769085 335.61499023 794.25463867 C337.93132463 791.94366109 340.24227078 789.62739229 342.55273438 787.31054688 C344.04395034 785.8199918 345.53547653 784.329747 347.02734375 782.83984375 C347.70780258 782.15736069 348.38826141 781.47487762 349.08934021 780.77171326 C352.96848299 776.9111675 356.95992733 773.25289507 361.10133362 769.67628479 C363.99331739 767.12302506 366.70088272 764.40444412 369.40625 761.65625 C369.97525024 761.08346313 370.54425049 760.51067627 371.13049316 759.92053223 C372.92282982 758.11614749 374.71184316 756.3085264 376.5 754.5 C390.07194277 740.77345414 390.07194277 740.77345414 396.28710938 735.49023438 C399.17533212 732.97744765 401.82608227 730.236678 404.5 727.5 C408.57064551 723.37785696 412.69001328 719.42276184 417.109375 715.671875 C420.14239108 712.9897864 422.93508434 710.07266751 425.77734375 707.19140625 C428.4270144 704.57898932 431.21172803 702.16697379 434.03515625 699.74609375 C436.81561832 697.27518611 439.39118218 694.6183306 442 691.96875 C444.56305228 689.44574541 447.27345824 687.12437183 450 684.78125 C452.08337078 682.9257479 454.04281207 680.98776899 456 679 C459.20029522 675.74970017 462.54224576 672.75275755 466 669.78125 C468.78885533 667.29742572 471.37686983 664.63288563 473.99609375 661.97265625 C476.58246151 659.42662171 479.3153528 657.07978443 482.06640625 654.71484375 C483.95494597 653.03995701 485.73155648 651.30052413 487.5 649.5 C489.87042357 647.08667283 492.30736308 644.82728147 494.875 642.625 C497.8846753 640.03365795 500.71088616 637.32745217 503.5 634.5 C506.86114482 631.0928121 510.33701203 627.92541826 513.96875 624.8125 C516.23638572 622.7890712 518.3657695 620.66346653 520.5 618.5 C523.20803565 615.75499458 525.94169249 613.1272909 528.875 610.625 C532.24555296 607.73787296 535.38534516 604.65781773 538.5 601.5 C542.33774952 597.61421189 546.24276008 593.92909764 550.44140625 590.4375 C552.24571097 588.88661937 552.24571097 588.88661937 554 586 C553.43079834 585.43603516 552.86159668 584.87207031 552.27514648 584.29101562 C549.65988156 581.69673231 547.04867381 579.09840077 544.4375 576.5 C543.54224609 575.613125 542.64699219 574.72625 541.72460938 573.8125 C537.20454871 569.30899633 532.84397683 564.75557197 528.69165039 559.91210938 C525.6257697 556.44667749 522.30184884 553.23859503 519 550 C514.38174047 545.47021287 509.9680272 540.87040516 505.74609375 535.96875 C502.81387042 532.66261899 499.65589331 529.59082335 496.5 526.5 C492.70587028 522.78409976 488.99863434 519.05687536 485.53125 515.03125 C481.88933509 510.8076119 477.97965701 506.90341837 474 503 C469.39197045 498.48024688 464.98982203 493.89067773 460.77734375 489 C457.67613415 485.51028722 454.33165868 482.2678338 451 479 C446.37150901 474.46017742 441.94623154 469.85013162 437.71484375 464.9375 C434.9511456 461.81496177 431.97848594 458.91578966 429 456 C424.74424556 451.79323266 420.63598044 447.55950092 416.76953125 442.98828125 C414.00000724 439.87638782 411.00807726 436.98784819 408.04394531 434.06347656 C405.43846374 431.479454 402.93931946 428.85773266 400.5625 426.0625 C397.54647173 422.523209 394.30552099 419.26505555 391 416 C387.12271626 412.17012306 383.4375639 408.27948694 379.90625 404.125 C376.8799847 400.75145836 373.62789294 397.60796464 370.40454102 394.42407227 C367.04939106 391.0941767 363.90274548 387.66068601 360.83984375 384.05859375 C358.49504936 381.43501277 356.00369432 378.97009896 353.5 376.5 C350.40508867 373.44661717 347.38065743 370.37676339 344.5625 367.0625 C341.54647173 363.523209 338.30552099 360.26505555 335 357 C331.12271626 353.17012306 327.4375639 349.27948694 323.90625 345.125 C320.8799847 341.75145836 317.62789294 338.60796464 314.40454102 335.42407227 C311.04939106 332.0941767 307.90274548 328.66068601 304.83984375 325.05859375 C302.04302058 321.92923959 299.03524652 319.01458371 296.04882812 316.06835938 C292.79982958 312.84617513 289.77548608 309.50650526 286.80859375 306.02734375 C283.8259411 302.6839383 280.59643308 299.5892363 277.41015625 296.44140625 C274.73145468 293.72797273 272.25391882 290.89222977 269.77734375 287.99609375 C267.05022777 284.93333273 264.10595363 282.09776507 261.1875 279.21875 C258.59803119 276.59228878 256.21163036 273.83023542 253.8125 271.03125 C251.7890712 268.76361428 249.66346653 266.6342305 247.5 264.5 C244.0928121 261.13885518 240.92541826 257.66298797 237.8125 254.03125 C235.7890712 251.76361428 233.66346653 249.6342305 231.5 247.5 C228.0928121 244.13885518 224.92541826 240.66298797 221.8125 237.03125 C219.7890712 234.76361428 217.66346653 232.6342305 215.5 230.5 C212.0928121 227.13885518 208.92541826 223.66298797 205.8125 220.03125 C203.7890712 217.76361428 201.66346653 215.6342305 199.5 213.5 C196.0928121 210.13885518 192.92541826 206.66298797 189.8125 203.03125 C187.7890712 200.76361428 185.66346653 198.6342305 183.5 196.5 C180.0928121 193.13885518 176.92541826 189.66298797 173.8125 186.03125 C171.7890712 183.76361428 169.66346653 181.6342305 167.5 179.5 C164.0928121 176.13885518 160.92541826 172.66298797 157.8125 169.03125 C155.7890712 166.76361428 153.66346653 164.6342305 151.5 162.5 C148.0928121 159.13885518 144.92541826 155.66298797 141.8125 152.03125 C139.07222917 148.96025683 136.12053098 146.11213124 133.19140625 143.22265625 C130.57898932 140.5729856 128.16697379 137.78827197 125.74609375 134.96484375 C123.90384325 132.89179676 121.97598338 130.94564198 120 129 C117.40017817 126.44009866 114.93731602 123.8322046 112.5625 121.0625 C109.99334729 118.07198284 107.30682744 115.26883316 104.5 112.5 C101.0928121 109.13885518 97.92541826 105.66298797 94.8125 102.03125 C92.7890712 99.76361428 90.66346653 97.6342305 88.5 95.5 C85.0928121 92.13885518 81.92541826 88.66298797 78.8125 85.03125 C76.07345159 81.96162678 73.1231636 79.11471392 70.1953125 76.2265625 C67.55993257 73.55366826 65.12233511 70.74631697 62.6796875 67.8984375 C60.47834607 65.41040974 58.11911485 63.10805923 55.75 60.78125 C53.29365151 58.28103815 51.03690632 55.62319484 48.75 52.96875 C46.55005105 50.49380743 44.20618555 48.19286326 41.84350586 45.87475586 C40.06663359 44.06776312 38.40563127 42.20655066 36.75390625 40.28515625 C33.08595836 36.06706461 29.2832492 31.99321689 25.4375 27.9375 C24.03625558 26.45331639 22.63521828 24.96893722 21.234375 23.484375 C20.53248047 22.74123047 19.83058594 21.99808594 19.10742188 21.23242188 C15.79465851 17.72316467 12.4879108 14.20837561 9.1875 10.6875 C8.60734131 10.07189209 8.02718262 9.45628418 7.42944336 8.82202148 C4.77605441 5.9881245 2.239558 3.1825298 0 0 Z " fill="#000000" transform="translate(12,0)"/>
</svg>
