<?xml version="1.0" encoding="UTF-8"?>
<svg version="1.1" xmlns="http://www.w3.org/2000/svg" width="1396" height="1181">
<path d="M0 0 C2.97 0 5.94 0 9 0 C10.45500446 33.26885012 11.6725176 66.54130223 12.73702717 99.82481742 C12.86215745 103.73139957 12.98810033 107.63795481 13.11425018 111.54450417 C15.1093151 173.35029095 16.96253934 235.16034235 18.78540367 296.9714141 C19.14433073 309.1397863 19.50693727 321.30804609 19.8709853 333.47626605 C20.25349234 346.26289689 20.63332628 359.04960479 21.0104177 371.83639652 C21.21884787 378.9022853 21.42828275 385.96814041 21.64069366 393.03391075 C21.83774561 399.5894154 22.03106231 406.14502313 22.22196198 412.7007103 C22.29168407 415.07574239 22.36257817 417.45074046 22.43482971 419.82569695 C22.90229411 435.22172518 23.09130448 450.59685998 23 466 C23.60433164 465.93185028 24.20866328 465.86370056 24.83130801 465.7934857 C30.93813132 465.13899841 36.99336723 464.79346625 43.13168335 464.65196228 C44.10148593 464.62660654 45.0712885 464.6012508 46.07047904 464.57512671 C49.29479031 464.49175407 52.51920735 464.41370904 55.74365234 464.33569336 C58.06780258 464.27673916 60.39194486 464.21747078 62.71607971 464.15791321 C69.02187352 463.9973624 75.32777735 463.84161593 81.63371992 463.68703151 C87.60393406 463.54021982 93.57407722 463.39057907 99.54422851 463.24123878 C112.13215179 462.92655598 124.7201914 462.61673996 137.30827196 462.30842281 C148.71409031 462.02891525 160.11975005 461.74345277 171.5253462 461.45503204 C183.31406158 461.1569787 195.1028753 460.86312608 206.89180148 460.5735274 C213.47823789 460.4116616 220.0646279 460.24824297 226.65092087 460.08061028 C257.77397763 459.29050389 288.86648352 458.79856196 320 459 C319.94790343 457.89751167 319.89580687 456.79502335 319.84213161 455.65912628 C318.46337007 426.31030986 317.38128474 396.9599125 316.48250318 367.59276772 C316.3030717 361.74891686 316.1203835 355.90516749 315.93821716 350.06140137 C315.63113181 340.19513181 315.32638804 330.32879219 315.02319336 320.46240234 C314.72016364 310.60197806 314.41493934 300.74162539 314.10717773 290.88134766 C312.49846557 239.33203878 310.92892106 187.78156198 309.47865105 136.2275238 C309.3468693 131.5441736 309.2133226 126.86087954 309.07809639 122.17762756 C308.69793523 108.97193617 308.34589625 95.76613085 308.05716085 82.55810165 C308.00249651 80.11172565 307.94302635 77.6655087 307.88261795 75.2192688 C307.78340228 71.08184594 307.72260788 66.94492008 307.67016602 62.80664062 C307.64145133 61.68053123 307.61273664 60.55442184 307.58315182 59.39418793 C307.49765435 44.7943227 312.37047869 32.04872344 322.1875 21.25 C336.06213878 8.27955116 351.9652504 6.9381999 369.95849609 6.56689453 C371.47732987 6.53251692 372.99615524 6.49776647 374.51497269 6.46267509 C377.79144499 6.38773074 381.06796005 6.31532442 384.34453201 6.24487305 C389.60742358 6.13162043 394.87016686 6.01227493 400.13290405 5.89208984 C407.64841014 5.72098669 415.16396507 5.55222445 422.67956543 5.38531494 C442.11210743 4.95353625 461.54442169 4.5119643 480.9765625 4.0625 C482.41417246 4.02932041 482.41417246 4.02932041 483.88082504 3.99547052 C508.45269011 3.4277982 533.02059512 2.80496351 557.5859375 2 C558.75957729 1.96185055 559.93321709 1.9237011 561.14242172 1.8843956 C571.65744769 1.54168694 582.17185076 1.18694015 592.68510628 0.79344559 C596.34230278 0.65856138 599.99977843 0.53287231 603.65736771 0.40914917 C606.04314921 0.32486034 608.42809736 0.22720607 610.81332397 0.12866211 C631.1370774 -0.61194256 648.18408281 3.19046092 663.4375 17.24609375 C680.40621992 34.7020911 680.46050909 55.81804271 680.3984375 78.64453125 C680.40165733 81.18339679 680.40586088 83.72226124 680.41098022 86.26112366 C680.4194662 93.041345 680.40651551 99.82133522 680.38652039 106.60152435 C680.37423536 110.82705857 680.36830726 115.05258951 680.36291504 119.27813721 C680.29779963 164.81567845 679.46220447 210.26629282 677.11531067 255.74799347 C676.96006747 258.77987858 676.80982233 261.81200374 676.65946293 264.84413433 C673.86297853 321.14188524 669.70186114 377.32732824 664.015625 433.41015625 C663.88313606 434.72413895 663.88313606 434.72413895 663.74797058 436.06466675 C663.26770505 440.72892833 662.69780671 445.3631759 662 450 C663.08821045 449.9498877 664.1764209 449.89977539 665.29760742 449.84814453 C730.50376777 446.90203926 795.78182236 445.81058702 861.04964447 445.81241608 C863.38292189 445.81247182 865.71619938 445.81204311 868.04947662 445.81111908 C874.71163428 445.80848328 881.37373066 445.81223661 888.03587532 445.82611275 C890.05236659 445.8299713 892.06886103 445.83248181 894.08535576 445.83344841 C907.08679824 445.84357649 920.02077021 446.23391849 933 447 C932.99188797 446.21510696 932.98377594 445.43021393 932.97541809 444.62153625 C932.91716643 434.24590643 933.27814633 423.90828876 933.69921875 413.54296875 C933.77508502 411.63342627 933.85086282 409.72388027 933.92655945 407.81433105 C934.17444957 401.60514738 934.43026575 395.39630266 934.6875 389.1875 C934.73161263 388.1186771 934.77572525 387.0498542 934.82117462 385.94864273 C938.56866741 295.28493341 943.86293435 204.66585459 959.3125 46.0625 C959.39850212 45.29032639 959.48450424 44.51815277 959.57311249 43.72257996 C960.14268163 38.61771294 960.71958815 33.51371171 961.30078125 28.41015625 C961.51443581 26.52324821 961.51443581 26.52324821 961.73240662 24.59822083 C962.67983939 16.37525269 963.78976961 8.1882789 965 0 C967.97 0 970.94 0 974 0 C976.54476516 15.93000065 978.47918322 31.90458113 980.25 47.9375 C980.32386303 48.60428268 980.39772606 49.27106537 980.47382736 49.95805359 C989.57468996 132.17445262 995.66127639 214.68550562 1008 522 C997.46161421 522.95970505 986.94968796 523.31221836 976.375 523.55200195 C975.04660599 523.58337405 975.04660599 523.58337405 973.69137573 523.61537993 C953.75481765 524.07975899 933.82151437 524.16446206 913.88032532 524.16725707 C910.93286973 524.16798534 907.98541837 524.17015165 905.03796387 524.17275429 C894.60538451 524.18192505 884.17281763 524.18610085 873.74023438 524.18530273 C865.30401691 524.18477358 856.86784621 524.19176144 848.43164062 524.20581055 C797.91113217 524.28793912 747.46109087 523.93040076 696.96814811 522.20292491 C690.05884541 521.96664183 683.14907758 521.74568344 676.23925781 521.52514648 C668.06204028 521.26252469 659.88498582 520.99550526 651.7080965 520.72285557 C593.45890739 518.78079467 535.2048819 517.2766927 476.9375 516 C475.99779358 515.97939089 475.05808716 515.95878179 474.08990479 515.93754816 C445.9886264 515.32141418 417.88703146 514.72029165 389.78534698 514.12300873 C358.67018466 513.46158245 327.55511238 512.79595542 296.44018984 512.12334108 C293.63229631 512.06265769 290.82440133 512.00204191 288.0165062 511.94143295 C224.9630111 510.57968368 161.91355376 509.07452566 98.86553192 507.47965622 C93.37681006 507.34086046 87.88806955 507.20281807 82.39932311 507.06499851 C71.0213842 506.7792677 59.64352932 506.4904302 48.26575851 506.19808197 C44.48514721 506.10099872 40.70451115 506.00499131 36.9238472 505.90998077 C32.53854566 505.79968228 28.15331687 505.68683042 23.76813006 505.57206333 C22.19325884 505.53123424 20.61836587 505.49123232 19.04344869 505.45221627 C7.68277479 505.16995799 -3.65409262 504.64252481 -15 504 C-15.19228208 486.99046606 -14.63802698 470.00056508 -14.1286633 453.00123334 C-13.99977289 448.6790431 -13.87414198 444.35675783 -13.74806213 440.03448486 C-13.50045798 431.56418407 -13.24982568 423.09397553 -12.99806777 414.62379728 C-12.7916619 407.67778616 -12.5863398 400.73174376 -12.38175201 393.78567886 C-12.35237793 392.78844448 -12.32300385 391.7912101 -12.29273964 390.76375649 C-12.23299379 388.73530933 -12.17324972 386.70686211 -12.11350742 384.67841484 C-11.552903 365.64870239 -10.98878725 346.61909525 -10.42351189 327.58952107 C-9.94660671 311.53193307 -9.47285692 295.47425465 -9.00146484 279.41650391 C-6.26653741 186.26785679 -3.51414347 93.12314351 0 0 Z M344.45703125 47.6484375 C340.08894951 53.25230707 339.85114585 58.75980197 339.67654419 65.71463013 C339.65366746 66.48853313 339.63079073 67.26243613 339.60722077 68.05979073 C339.53119367 70.66492521 339.46122593 73.27018841 339.39111328 75.87548828 C339.33711871 77.76190711 339.28270797 79.64831407 339.22791672 81.53470993 C339.10917843 85.6477505 338.99299713 89.76085272 338.87871933 93.87401962 C338.6922826 100.57745245 338.49968266 107.28069915 338.30569458 113.98391724 C338.27224044 115.14004434 338.2387863 116.29617144 338.2043184 117.4873327 C338.13530643 119.87139016 338.06626765 122.25544683 337.99720311 124.63950276 C337.89003382 128.34423433 337.78337985 132.04898047 337.67679405 135.75372887 C336.88603248 163.18794662 336.0379806 190.62037152 335.18777363 218.05279522 C334.96953341 225.09561031 334.75206723 232.13844924 334.53468218 239.18129078 C334.16037439 251.30788372 333.7857063 263.4344655 333.41064453 275.56103516 C333.38867104 276.27148968 333.36669754 276.98194421 333.34405819 277.71392766 C333.09693428 285.70365764 332.84968823 293.69338383 332.60229492 301.68310547 C332.5110672 304.62939452 332.41983959 307.57568357 332.32861328 310.52197266 C332.30607089 311.25000571 332.2835285 311.97803876 332.26030301 312.72813343 C331.88090455 324.98196073 331.50231395 337.23581286 331.12434113 349.48968422 C330.91535617 356.26403449 330.70596988 363.03837182 330.49560165 369.81267929 C329.58294767 399.20663982 328.70545692 428.60025639 328 458 C368.95766451 458.31979004 409.88498746 457.31941416 450.82953763 456.3931073 C457.9557546 456.23189195 465.08201976 456.07296746 472.20831299 455.91516113 C530.4838493 454.62287637 588.75030496 453.19705444 647 451 C646.88177887 449.78592216 646.88177887 449.78592216 646.76116943 448.5473175 C639.06689181 369.42219568 633.2028775 290.32911983 630.3125 210.875 C630.26448872 209.56100975 630.26448872 209.56100975 630.21550751 208.22047424 C629.33506089 183.87763026 628.89032349 159.5456231 628.734375 135.1875 C628.72580664 133.92569035 628.71723827 132.66388069 628.70841026 131.36383438 C628.62413967 118.82360519 628.55727705 106.28381812 628.55659294 93.74328232 C628.55319406 89.09057229 628.53468404 84.43799715 628.51317596 79.78533936 C628.50704617 77.60767429 628.50816104 75.42997556 628.51688385 73.25231934 C628.52854231 70.26275101 628.51616689 67.27418376 628.49829102 64.28466797 C628.50802602 63.41053694 628.51776102 62.53640591 628.52779102 61.63578606 C628.47938701 57.55612941 628.32234796 55.5103389 626.09385681 51.98220825 C622.19579157 48.29199551 618.30254571 48.7167271 613.17895508 48.51757812 C612.26262739 48.47867966 611.34629971 48.43978119 610.40220451 48.39970398 C607.33733812 48.27161016 604.27223337 48.15102534 601.20703125 48.03125 C600.14195658 47.98831314 599.0768819 47.94537628 597.97953224 47.90113831 C573.3983528 46.91134476 548.80995039 46.2240936 524.21739578 45.59119034 C520.62568622 45.49840312 517.03401514 45.40423936 513.44235229 45.30966187 C480.12880579 44.43291742 446.81394832 43.61602886 413.49704361 42.87759399 C410.5897674 42.81310484 407.68250259 42.74811804 404.77523804 42.68310547 C400.23242872 42.58187334 395.68957393 42.48298975 391.1466713 42.38603783 C389.51162629 42.35096578 387.87659274 42.31535371 386.24157333 42.27910805 C381.16125529 42.16703236 376.08100251 42.07455905 371 42 C370.230937 41.98719875 369.46187401 41.97439751 368.66950607 41.96120834 C366.34469807 41.92562861 364.02005457 41.90193901 361.69506836 41.8815918 C360.99182466 41.86974507 360.28858095 41.85789835 359.56402683 41.84569263 C353.13832893 41.81373234 348.85753504 42.94713979 344.45703125 47.6484375 Z " fill="#000000" transform="translate(211,657)"/>
<path d="M0 0 C3.3357168 1.3611875 5.68780408 3.96960853 8.24200439 6.43786621 C9.41186124 7.54409271 10.58243078 8.64956603 11.75372314 9.75427246 C12.31494873 10.28681641 12.87617432 10.81936035 13.45440674 11.36804199 C15.28146987 13.08486632 17.15472254 14.73955405 19.05450439 16.37536621 C22.42619547 19.29084539 25.71343307 22.29362263 28.99200439 25.31286621 C32.29227315 28.35176798 35.60149786 31.37442722 38.99200439 34.31286621 C42.3825122 37.25130631 45.6916947 40.27400763 48.99200439 43.31286621 C52.92485281 46.93376755 56.89414451 50.50245546 60.93341064 54.00427246 C63.48157089 56.24297871 65.98611032 58.52696833 68.49200439 60.81286621 C72.27863437 64.26614775 76.09676759 67.67385672 79.96466064 71.03552246 C82.32689612 73.10646108 84.65996293 75.20799469 86.99200439 77.31286621 C92.31535133 82.11194413 97.68063778 86.85364571 103.14434814 91.49255371 C110.28221859 97.56084728 117.25369702 103.76388804 124.11309814 110.14489746 C128.68339619 114.38032971 133.38365103 118.44812812 138.13262939 122.48083496 C144.65827971 128.03202964 151.05459067 133.674325 157.31158447 139.52697754 C160.56532104 142.55123641 163.89441358 145.41287119 167.36700439 148.18786621 C172.64280423 152.41773489 177.52044276 156.99989284 182.42706299 161.64465332 C187.00288437 165.95299576 191.72606442 169.93962245 196.63653564 173.86364746 C199.38517917 176.13822975 201.85691434 178.58811517 204.33575439 181.14880371 C206.67495871 183.49904201 209.18084809 185.6329567 211.69122314 187.79724121 C214.49973415 190.25766851 217.2466401 192.78259822 219.99200439 195.31286621 C223.27042104 198.33227375 226.55781819 201.33489125 229.92950439 204.25036621 C235.15774508 208.78726929 240.20686822 213.52162409 245.28204346 218.22790527 C248.03616822 220.78070053 250.79517596 223.32819819 253.55450439 225.87536621 C254.09292969 226.3725415 254.63135498 226.8697168 255.18609619 227.38195801 C258.7810666 230.69993446 262.38426058 234.00878853 265.99200439 237.31286621 C266.97901713 238.21777751 267.96599611 239.12272564 268.95294189 240.02770996 C270.50671212 241.4524211 272.06132528 242.87617096 273.61798096 244.29772949 C280.14349491 250.25805653 286.5268846 256.29923765 292.73809814 262.59020996 C294.7225736 264.54717102 296.74680813 266.38112812 298.86700439 268.18786621 C302.94417484 271.67079319 306.68853002 275.44990694 310.42901611 279.2869873 C313.0862749 281.99116543 315.81012487 284.54649102 318.69122314 287.01208496 C322.95716936 290.72895381 326.95451931 294.66418082 330.92950439 298.68786621 C331.65387695 299.41602539 332.37824951 300.14418457 333.12457275 300.89440918 C336.18742863 303.97343572 339.2442275 307.05844944 342.30157471 310.14294434 C344.55044557 312.4100208 346.80240678 314.67399587 349.05450439 316.93786621 C349.73182617 317.62348633 350.40914795 318.30910645 351.10699463 319.01550293 C354.93838969 322.86624132 358.88398211 326.49800254 362.99588013 330.04605103 C366.45612195 333.1087901 369.70298782 336.38133431 372.96466064 339.65270996 C374.05477699 340.74139122 374.05477699 340.74139122 375.16691589 341.85206604 C376.69162736 343.37610177 378.2150959 344.9013819 379.73736572 346.42785645 C382.04834331 348.74419084 384.3646121 351.05513699 386.68145752 353.36560059 C388.1720126 354.85681655 389.6622574 356.34834274 391.15216064 357.84020996 C391.83464371 358.52066879 392.51712677 359.20112762 393.22029114 359.90220642 C396.37335062 363.07045482 399.42796271 366.27225426 402.3394165 369.66467285 C406.73035495 374.74724426 411.50489622 379.43097894 416.27325439 384.15661621 C417.25568817 385.1346304 418.23781927 386.11294872 419.21966553 387.09155273 C422.3076101 390.16818016 425.39949253 393.24083057 428.49200439 396.31286621 C432.08130903 399.87840525 435.66888948 403.44564549 439.25224304 407.01716614 C440.67191597 408.4304525 442.09467438 409.84063732 443.51751709 411.25073242 C448.02118838 415.7374563 452.36950393 420.2800107 456.50897217 425.10498047 C458.43903504 427.32767449 460.4877603 429.40517432 462.58575439 431.46911621 C463.38884033 432.26446777 464.19192627 433.05981934 465.01934814 433.87927246 C465.83532471 434.6823584 466.65130127 435.48544434 467.49200439 436.31286621 C472.63278234 441.37243123 477.63100688 446.45425063 482.32989502 451.92810059 C485.07131858 455.03676538 488.0315529 457.91474001 490.99200439 460.81286621 C495.26946443 465.04103126 499.40171747 469.29707257 503.28887939 473.89099121 C506.2245744 477.20374796 509.42631693 480.25402519 512.57403564 483.36364746 C515.29850357 486.12332661 517.82747816 489.00467279 520.34747314 491.94958496 C522.53474181 494.42779673 524.88480319 496.71650788 527.24200439 499.03161621 C529.69835288 501.53182806 531.95509807 504.18967137 534.24200439 506.84411621 C536.44172418 509.31880097 538.7853228 511.61952217 541.14776611 513.93737793 C542.92865718 515.7484456 544.59393588 517.61404286 546.24981689 519.53942871 C549.85565676 523.68681196 553.59058841 527.6961025 557.36700439 531.68786621 C562.24680929 536.86892315 567.08032509 542.08098489 571.82012939 547.39099121 C574.35567054 550.21839321 576.92192356 553.01692176 579.49200439 555.81286621 C584.36160381 561.11397046 589.18426278 566.45566841 593.99200439 571.81286621 C594.75512939 572.65849121 595.51825439 573.50411621 596.30450439 574.37536621 C600.30295223 578.80607868 604.2707226 583.25890396 608.18731689 587.76208496 C610.22158581 590.07375418 612.29422749 592.34818051 614.36700439 594.62536621 C617.4772929 598.06664826 620.45678751 601.57607919 623.36700439 605.18786621 C627.04772286 609.74067128 630.91849088 614.04704032 634.90338135 618.32971191 C638.70585454 622.44047579 642.23463739 626.73553144 645.74591064 631.09802246 C648.08031029 633.91960116 650.51191038 636.61877333 652.99200439 639.31286621 C657.03155257 643.70665169 660.83880058 648.23125445 664.58575439 652.87536621 C667.2897927 656.17639998 670.07313372 659.4005024 672.86700439 662.62536621 C677.96856014 668.52899172 682.83504884 674.58999005 687.61700439 680.75427246 C689.14157837 682.71766296 690.70296673 684.65331241 692.30841064 686.55114746 C693.99200439 688.81286621 693.99200439 688.81286621 693.92950439 691.43786621 C692.95700193 693.90153911 692.01683205 695.1401825 689.99200439 696.81286621 C687.34801778 695.5471087 684.94332862 694.17611334 682.55059814 692.48474121 C681.8945459 692.02212891 681.23849365 691.5595166 680.56256104 691.08288574 C679.506698 690.33047607 679.506698 690.33047607 678.42950439 689.56286621 C677.68499023 689.03418945 676.94047607 688.5055127 676.17340088 687.96081543 C663.4317375 678.8810374 650.87642932 669.57781458 638.55963135 659.92932129 C633.66553482 656.09876097 628.7259638 652.33812308 623.74200439 648.62536621 C617.64677519 644.08057974 611.64245358 639.43566317 605.67950439 634.71911621 C602.27608118 632.02907428 598.8472565 629.37270692 595.4163208 626.71789551 C588.11799938 621.06785713 580.89574038 615.33907288 573.75030518 609.49694824 C569.53441153 606.05349615 565.28274966 602.66249827 560.99200439 599.31286621 C555.25312561 594.83192478 549.59634197 590.2567978 543.95733643 585.65100098 C539.63583253 582.12809262 535.26948475 578.67127946 530.86700439 575.25036621 C525.42699246 571.0157236 520.17340437 566.5968296 514.96246338 562.08435059 C510.90271065 558.57333681 506.75839636 555.19549068 502.54669189 551.86755371 C498.93348392 548.96151794 495.40978702 545.9539104 491.878479 542.94934082 C488.44609476 540.0326956 484.985987 537.15585933 481.49200439 534.31286621 C476.88587524 530.56369132 472.3481084 526.74101433 467.82354736 522.89440918 C464.4534945 520.03439683 461.05174132 517.22030888 457.61700439 514.43786621 C452.54754025 510.31155819 447.61100626 506.04500904 442.68218994 501.75305176 C438.62381137 498.22078784 434.54283257 494.71846644 430.42950439 491.25036621 C420.41886858 482.80618686 410.49427538 474.26329764 400.60675049 465.67541504 C396.92508939 462.47989382 393.22840958 459.30306041 389.51861572 456.14025879 C384.7099912 452.04000935 379.9580784 447.90269381 375.30450439 443.62536621 C371.85184743 440.4545588 368.33669473 437.4325159 364.67950439 434.50036621 C358.93221993 429.86466255 353.58232005 424.85518721 348.19903564 419.80895996 C343.55211548 415.45423149 338.74813918 411.30067716 333.89044189 407.18395996 C327.05498516 401.37797438 320.371588 395.4542237 313.82598877 389.32263184 C310.2900303 386.01092441 306.70644683 382.77576096 303.03887939 379.60974121 C299.82864129 376.79159326 296.69510379 373.88993427 293.55181885 370.99768066 C290.40415912 368.10290055 287.23962339 365.22902566 284.05450439 362.37536621 C278.53452365 357.41972855 273.09115745 352.38298674 267.64776611 347.34362793 C266.05785193 345.87374265 264.46502008 344.40710562 262.87091064 342.94177246 C256.01664206 336.63782307 249.2171118 330.27804843 242.44366455 323.8873291 C238.96030669 320.60184477 235.47141 317.32309521 231.96075439 314.06677246 C225.38951551 307.97098058 218.9089868 301.83012784 212.65216064 295.41052246 C210.64914129 293.45456376 208.64678307 291.64923038 206.51934814 289.84020996 C199.53935312 283.79077172 193.18165458 277.05593796 186.69171143 270.49206543 C184.92936544 268.71144682 183.16387507 266.93398686 181.39825439 265.15661621 C180.87404907 264.62411255 180.34984375 264.09160889 179.80975342 263.54296875 C177.12031228 260.83624843 174.37856634 258.26258931 171.47271729 255.78918457 C164.96129099 250.14948151 158.9766328 243.94098629 152.89434814 237.84802246 C151.53264181 236.48699108 150.17078717 235.12610806 148.80879211 233.7653656 C145.9654852 230.92352666 143.12397841 228.07990339 140.28375244 225.23498535 C136.66054409 221.60608029 133.03286397 217.98168401 129.40381527 214.35862064 C126.59401293 211.55244831 123.78661699 208.74387822 120.97992134 205.93459892 C119.6439387 204.59795375 118.30722546 203.26203837 116.96973991 201.92689705 C115.09442773 200.05415168 113.22239659 198.17818353 111.35113525 196.3013916 C110.80912476 195.76140533 110.26711426 195.22141907 109.7086792 194.66506958 C106.92941324 191.87072482 104.2761825 189.0151315 101.70648193 186.02635193 C97.43097938 181.09344715 92.82463376 176.51331859 88.20123291 171.90856934 C87.23448033 170.94209948 86.26794918 169.97540808 85.30162048 169.0085144 C82.70104541 166.40765469 80.09741845 163.80987034 77.49319577 161.21266365 C74.76344806 158.48920519 72.03656841 155.76287801 69.30937195 153.03686523 C64.15504741 147.88563769 58.99818113 142.73696261 53.84037679 137.58921957 C47.96409257 131.72414741 42.09067796 125.85620511 36.21749222 119.98803043 C24.1455001 107.9264657 12.06994308 95.86847625 -0.00799561 83.81286621 C-1.12385075 84.76745025 -2.23944066 85.72234434 -3.35491943 86.67736816 C-3.97619217 87.20909134 -4.5974649 87.74081451 -5.23756409 88.28865051 C-11.8090603 93.94624167 -18.1607561 99.85962363 -24.5458374 105.72570801 C-27.68376719 108.60637278 -30.83777695 111.46779818 -34.00799561 114.31286621 C-39.71461255 119.43605906 -45.36114914 124.6240656 -51.00799561 129.81286621 C-57.45896368 135.74056185 -63.92518277 141.64880341 -70.44549561 147.50036621 C-73.3139997 150.08901624 -76.16276211 152.69871767 -79.00799561 155.31286621 C-83.46135047 159.40452728 -87.94459415 163.46109567 -92.44549561 167.50036621 C-95.3139997 170.08901624 -98.16276211 172.69871767 -101.00799561 175.31286621 C-105.46135047 179.40452728 -109.94459415 183.46109567 -114.44549561 187.50036621 C-117.3139997 190.08901624 -120.16276211 192.69871767 -123.00799561 195.31286621 C-127.46135047 199.40452728 -131.94459415 203.46109567 -136.44549561 207.50036621 C-139.31400005 210.08901657 -142.16272542 212.6987573 -145.00799561 215.31286621 C-150.30922636 220.18230725 -155.64992244 225.00610604 -161.00799561 229.81286621 C-162.67492208 231.31257749 -164.34158709 232.81257942 -166.00799561 234.31286621 C-168.48301794 236.54115735 -170.95871314 238.76865461 -173.43768311 240.99255371 C-178.02830171 245.1138439 -182.59246667 249.26160409 -187.13299561 253.43786621 C-191.00167382 256.9953972 -194.91133685 260.49576196 -198.88299561 263.93786621 C-201.62622979 266.35836696 -204.31684129 268.83487263 -207.00799561 271.31286621 C-210.91781156 274.91299377 -214.86666028 278.45704226 -218.88299561 281.93786621 C-221.62622979 284.35836696 -224.31684129 286.83487263 -227.00799561 289.31286621 C-230.91781156 292.91299377 -234.86666028 296.45704226 -238.88299561 299.93786621 C-241.62622979 302.35836696 -244.31684129 304.83487263 -247.00799561 307.31286621 C-250.30828483 310.35174639 -253.61748844 313.37442666 -257.00799561 316.31286621 C-260.88616573 319.67609259 -264.66327372 323.14622292 -268.44110107 326.62097168 C-273.26384452 331.05510249 -278.13140681 335.43804861 -283.00799561 339.81286621 C-284.67492208 341.31257749 -286.34158709 342.81257942 -288.00799561 344.31286621 C-338.00799561 389.31286621 -338.00799561 389.31286621 -340.50018311 391.55505371 C-342.19392455 393.07994866 -343.88660729 394.60602023 -345.57830811 396.13317871 C-349.34536675 399.53159553 -353.11715147 402.92103231 -356.94549561 406.25036621 C-360.17359073 409.06109146 -363.34538003 411.92866521 -366.50799561 414.81286621 C-370.29733687 418.26862034 -374.11883258 421.67809511 -377.98846436 425.04333496 C-382.0346465 428.58863575 -386.01542748 432.2074562 -390.00799561 435.81286621 C-399.49671602 444.38146828 -399.49671602 444.38146828 -403.94549561 448.25036621 C-407.17359073 451.06109146 -410.34538003 453.92866521 -413.50799561 456.81286621 C-417.29733687 460.26862034 -421.11883258 463.67809511 -424.98846436 467.04333496 C-429.0346465 470.58863575 -433.01542748 474.2074562 -437.00799561 477.81286621 C-446.49671602 486.38146828 -446.49671602 486.38146828 -450.94549561 490.25036621 C-454.17359073 493.06109146 -457.34538003 495.92866521 -460.50799561 498.81286621 C-464.29733687 502.26862034 -468.11883258 505.67809511 -471.98846436 509.04333496 C-476.0346465 512.58863575 -480.01542748 516.2074562 -484.00799561 519.81286621 C-493.49671602 528.38146828 -493.49671602 528.38146828 -497.94549561 532.25036621 C-501.17359073 535.06109146 -504.34538003 537.92866521 -507.50799561 540.81286621 C-511.29733687 544.26862034 -515.11883258 547.67809511 -518.98846436 551.04333496 C-523.0346465 554.58863575 -527.01542748 558.2074562 -531.00799561 561.81286621 C-540.49671602 570.38146828 -540.49671602 570.38146828 -544.94549561 574.25036621 C-548.17359073 577.06109146 -551.34538003 579.92866521 -554.50799561 582.81286621 C-558.29733687 586.26862034 -562.11883258 589.67809511 -565.98846436 593.04333496 C-570.0346465 596.58863575 -574.01542748 600.2074562 -578.00799561 603.81286621 C-583.29539957 608.58755222 -588.59547598 613.34220669 -593.96893311 618.01989746 C-596.21089374 619.99127664 -598.42185363 621.99449312 -600.63299561 624.00036621 C-604.63529587 627.61653337 -608.71067857 631.13312152 -612.82049561 634.62536621 C-617.54944879 638.64552263 -622.16290837 642.76024763 -626.69549561 647.00036621 C-630.48692938 650.54686214 -634.32402371 653.94428601 -638.38299561 657.18786621 C-643.66493178 661.42265469 -648.54676439 666.01158146 -653.46063232 670.66003418 C-657.85849244 674.79873667 -662.41089855 678.64018166 -667.13299561 682.40661621 C-671.39537814 685.97404507 -675.3920103 689.81068405 -679.42816162 693.62976074 C-684.7467414 698.63540233 -690.26325758 703.29829038 -696.00799561 707.81286621 C-698.47599607 706.66113266 -700.05583126 705.76503056 -702.00799561 703.81286621 C-701.96535187 700.60037143 -700.70315134 699.47628737 -698.53143311 697.07849121 C-697.48937084 696.06559608 -696.43957709 695.0606066 -695.38299561 694.06286621 C-692.11695933 690.93739352 -688.96227873 687.80544552 -686.04168701 684.35095215 C-681.55029665 679.19093842 -676.7044722 674.39666307 -671.85165405 669.58135986 C-670.15806699 667.90072381 -668.46778784 666.21681992 -666.77825928 664.53210449 C-662.58438543 660.3514861 -658.38504161 656.17637641 -654.18585205 652.00109863 C-650.6259173 648.46100904 -647.0681174 644.91879899 -643.51303101 641.37384033 C-641.86067029 639.72788515 -640.20529096 638.08500976 -638.54974365 636.44226074 C-637.52135436 635.41750927 -636.49310818 634.39261415 -635.46502686 633.36755371 C-634.57791016 632.48567383 -633.69079346 631.60379395 -632.77679443 630.69519043 C-630.73823829 628.57305007 -628.81849888 626.44641467 -626.90960693 624.21447754 C-621.93126934 618.48013011 -616.5042417 613.18589681 -611.12518311 607.83239746 C-609.93332948 606.64246633 -608.74170578 605.45230487 -607.55029297 604.26193237 C-604.99760973 601.71239431 -602.44338523 599.16441434 -599.88793945 596.61764526 C-595.84168745 592.5849903 -591.7993191 588.54845712 -587.75750732 584.51135254 C-578.44862427 575.21447899 -569.13472226 565.92263891 -559.82077026 556.63084412 C-551.27975726 548.11004561 -542.73982429 539.58817196 -534.20394325 531.06223202 C-530.19144118 527.05469211 -526.17651841 523.0495985 -522.15968323 519.04640198 C-519.65576029 516.54997316 -517.15394215 514.051443 -514.65267181 511.55235672 C-513.49868039 510.40022673 -512.34383021 509.2489561 -511.18802643 508.09864426 C-509.601078 506.51899534 -508.01733134 504.93619937 -506.43426514 503.35266113 C-505.55013947 502.47075607 -504.66601379 501.58885101 -503.75509644 500.68022156 C-501.77564523 498.61411974 -499.92084105 496.55253581 -498.07228756 494.37799931 C-492.24613556 487.67154812 -485.8364891 481.50378259 -479.55305481 475.23094177 C-478.06757537 473.74430932 -476.58231386 472.25745908 -475.09725088 470.7704106 C-471.02619142 466.69518253 -466.95202611 462.62307206 -462.87733233 458.55147827 C-458.47941924 454.1558291 -454.08438631 449.75730178 -449.6889801 445.35914612 C-441.57921523 437.24519205 -433.46717721 429.13351636 -425.35394859 421.02302608 C-417.85831659 413.52991149 -410.36361699 406.03586586 -402.86984062 398.54089546 C-402.12367662 397.79461689 -402.12367662 397.79461689 -401.36243861 397.03326198 C-399.34306241 395.01357443 -397.32368975 392.99388337 -395.30432289 390.97418649 C-376.36833043 372.03513632 -357.42942523 353.09900126 -338.48921186 334.16417236 C-321.66888554 317.3485915 -304.85114616 300.53042749 -288.0355835 283.71008301 C-269.13496084 264.80410355 -250.23272081 245.89974357 -231.32787508 226.99798685 C-229.31190233 224.98233481 -227.29593351 222.96667883 -225.27996635 220.95102119 C-224.78359707 220.45473099 -224.28722778 219.95844078 -223.775817 219.44711147 C-216.28632671 211.95875776 -208.79806933 204.46917266 -201.31041145 196.97898674 C-192.79501366 188.46072821 -184.27778041 179.94431058 -175.7582894 171.43014544 C-171.41179628 167.08627996 -167.06610571 162.74161962 -162.72257996 158.39478683 C-158.74556589 154.41479061 -154.76624611 150.43711491 -150.78508382 146.46126825 C-149.34620086 145.02350127 -147.90815766 143.58489327 -146.47104657 142.14535522 C-133.69687604 129.35126994 -133.69687604 129.35126994 -127.53613085 124.11520869 C-125.54322927 122.41677238 -123.68258695 120.60763902 -121.8348999 118.7532959 C-121.11184662 118.03017212 -120.38879333 117.30704834 -119.64382935 116.56201172 C-118.8809964 115.79401245 -118.11816345 115.02601318 -117.33221436 114.23474121 C-116.09152695 112.9918634 -116.09152695 112.9918634 -114.82577515 111.72387695 C-113.04267257 109.93698948 -111.26072545 108.14894838 -109.47982788 106.35986328 C-106.65657244 103.523766 -103.83020297 100.69079391 -101.00286865 97.85876465 C-95.00159071 91.84644144 -89.00456549 85.8298846 -83.00799561 79.81286621 C-76.53152939 73.31431503 -70.05430932 66.81652569 -63.57217503 60.32362747 C-60.31901404 57.06472842 -57.06978276 53.80194184 -53.82122803 50.53845215 C-52.1088935 48.82248294 -50.39641721 47.10665518 -48.68377686 45.39099121 C-47.92094391 44.62299194 -47.15811096 43.85499268 -46.37216187 43.0637207 C-42.31359927 39.00476241 -38.17214556 35.11607782 -33.80441666 31.39063263 C-30.635143 28.60711284 -27.734615 25.5627511 -24.80487061 22.53161621 C-23.48254328 21.18208017 -22.15960955 19.83313808 -20.83612061 18.48474121 C-18.7805624 16.3856582 -16.7291855 14.28305047 -14.68768311 12.17028809 C-12.69634169 10.11269482 -10.68973955 8.07109311 -8.67987061 6.03161621 C-8.0693988 5.39220093 -7.458927 4.75278564 -6.82995605 4.09399414 C-2.52742171 -0.23554135 -2.52742171 -0.23554135 0 0 Z " fill="#000000" transform="translate(702.0079956054688,0.1871337890625)"/>
</svg>
