<?xml version="1.0" encoding="utf-8"?>
<!-- Generator: Adobe Illustrator 16.0.0, SVG Export Plug-In . SVG Version: 6.00 Build 0)  -->
<!DOCTYPE svg PUBLIC "-//W3C//DTD SVG 1.1//EN" "http://www.w3.org/Graphics/SVG/1.1/DTD/svg11.dtd">
<svg version="1.1" xmlns="http://www.w3.org/2000/svg" xmlns:xlink="http://www.w3.org/1999/xlink" x="0px" y="0px"
	 width="400.031px" height="232.302px" viewBox="0 0 400.031 232.302" enable-background="new 0 0 400.031 232.302"
	 xml:space="preserve">
<g id="Calque_1">
</g>
<g id="Calque_2">
</g>
<g id="Calque_3">
</g>
<g id="Calque_4">
</g>
<g id="Calque_5">
</g>
<g id="Calque_6">
</g>
<g id="Calque_7">
</g>
<g id="Calque_8">
</g>
<g id="Calque_9">
</g>
<g id="Calque_10">
</g>
<g id="Calque_11">
	<g>
		<g>
			<g>
				<g>
					<g>
						<g>
							<g>
								<path fill="#202020" d="M357.935,223.5c-0.43,0.261-1.406,0.113-1.213-0.606l1.654-0.511L357.935,223.5z"/>
								<path fill="#202020" d="M354.869,218.656c0.802-0.846,2.212-1.823,3.731-1.274c-1.59,0.838-0.926,1.042-2.819,1.944
									c-0.192,0.721,0.531,1.258,1.14,1.136c-0.424,0.254,0.364,1.119-0.675,1.507c-1.281-0.938-1.333-2.125-0.276-3.366
									C355.606,218.337,355.175,218.595,354.869,218.656z"/>
								<path fill="#202020" d="M352.288,148.259l0.197,0.454C352.377,148.588,352.317,148.433,352.288,148.259z"/>
								<path fill="#202020" d="M351.38,104.641c-0.038,0.333-0.203,0.471-0.354,0.488
									C351.136,104.821,351.236,104.567,351.38,104.641z"/>
								<path fill="#202020" d="M349.557,97.195c0.053,0.159,0.076,0.294,0.112,0.439C349.517,97.466,349.433,97.297,349.557,97.195
									z"/>
								<path fill="#202020" d="M352.288,148.259l-0.52-1.166C352.309,147.012,352.169,147.69,352.288,148.259z"/>
								<path fill="#202020" d="M358.86,208.949c-0.08,0.244-0.233,0.447-0.434,0.633c0.07-0.201,0.131-0.395,0.174-0.595
									C358.691,208.976,358.769,208.967,358.86,208.949z"/>
								<path fill="#202020" d="M350.947,167.486l-0.003,0.355c-0.188,0.104-0.416,0.201-0.672,0.294L350.947,167.486z"/>
								<path fill="#202020" d="M350.693,182.243c-0.062-0.333,1.344-0.45,1.958-0.577c-0.578,0.188-0.854,0.435-0.963,0.728
									C351.421,182.398,351.101,182.354,350.693,182.243z"/>
								<path fill="#202020" d="M353.167,205.641l-0.195,0.415C353.032,205.948,353.089,205.767,353.167,205.641z"/>
								<path fill="#202020" d="M350.644,156.925c-0.209-0.025-0.393-0.078-0.504-0.134
									C350.317,156.791,350.484,156.843,350.644,156.925z"/>
								<path fill="#202020" d="M271.838,206.397c0.101-0.012,0.164,0.005,0.251,0.001
									C271.947,206.484,271.847,206.51,271.838,206.397z"/>
								<path fill="#202020" d="M278.809,223.5l0.075-0.237c0.267-0.025,0.527-0.051,0.787-0.051L278.809,223.5z"/>
								<path fill="#202020" d="M347.757,83.565c0.016,0.026,0.016,0.036,0.026,0.061C347.623,83.985,347.651,83.782,347.757,83.565
									z"/>
								<path fill="#202020" d="M299.718,13.833c1.445-1.244-2.291-1.633-0.122-3.009C299.385,11.372,301.509,13.032,299.718,13.833
									z"/>
								<path fill="#202020" d="M358.677,208.566c0.016-0.199,0.028-0.402,0.015-0.605
									C358.736,208.237,358.73,208.422,358.677,208.566z"/>
								<path fill="#202020" d="M299.596,10.824c0-0.006,0-0.012,0-0.012l0.224-0.13C299.728,10.741,299.675,10.774,299.596,10.824z
									"/>
								<path fill="#202020" d="M348.601,52.163c0.248,0.065,0.437,0.19,0.615,0.32C349.072,52.473,348.896,52.4,348.601,52.163z"/>
								<path fill="#202020" d="M350.601,75.557l-0.188-0.579C350.541,75.208,350.585,75.394,350.601,75.557z"/>
								<path fill="#202020" d="M350.585,40.017c-0.107-0.315-0.302-0.422-0.113-0.852c0.071,0.04,0.121,0.079,0.172,0.13
									C350.45,39.451,350.361,39.658,350.585,40.017z"/>
								<path fill="#202020" d="M350.593,27.374c0.107,0.067,0.188,0.155,0.283,0.233c-0.023,0.125-0.051,0.271-0.075,0.4
									L350.593,27.374z"/>
								<path fill="#202020" d="M272.492,167.978c0.396,0.276,0.832,0.449,1.263,0.583
									C272.757,168.367,272.401,170.224,272.492,167.978z"/>
								<path fill="#202020" d="M358.071,208.942c0.355-0.074,0.529-0.182,0.605-0.375c-0.016,0.145-0.044,0.285-0.076,0.42
									C358.393,209.024,358.194,209.032,358.071,208.942z"/>
								<path fill="#202020" d="M361.673,39.502l-0.208-2.009C361.602,38.055,361.673,38.786,361.673,39.502z"/>
								<path fill="#202020" d="M272.641,77.286l-0.168,0.462C272.44,77.57,272.48,77.406,272.641,77.286z"/>
								<path fill="#202020" d="M361.673,31.533c-0.496-0.359-0.784-0.738-0.973-1.131c0.11-0.083,0.201-0.178,0.363-0.233
									L361.673,31.533z"/>
								<path fill="#202020" d="M273.771,168.565c-0.006-0.004-0.016-0.004-0.016-0.004S273.765,168.561,273.771,168.565z"/>
								<path fill="#202020" d="M270.44,181.797c-0.042-1.914,1.807-0.9,2.867-1.307c0.522-2.285-1.361-1.056-2.307-1.833
									c0.488-1.427,2.184-2.522,2.111-3.585c-0.305-0.079-0.416-0.286-0.797-0.043c1.468-1.509,0.07-4.477,1.913-6.235
									c-0.163-0.13-0.318-0.196-0.458-0.229c0.925,0.284,1.865,0.327,2.535,0.268c0.031-0.858,1.166-1.594-0.042-1.916
									c0.036,0.526-0.451,0.57-0.828,0.817l0.524-0.899c-1.736-0.808-0.6,1.228-1.886,1.229c0.564-1.754,2-3.798,1.509-5.141
									c-1.698-0.279-0.569,3.142-2.081,1.351l0.651,2.078c-2.681-1.586,0.188,1.262-2.68-0.194
									c-0.494-2.735,0.863-3.061,0.366-5.788c0.943-0.615,1.396,0.201,2.34-0.414c1.693-3.879-4.271-3.048-2.012-5.901
									c1.132-0.739,3.28-1.028,2.142-3.057l-1.919,0.694c-0.19-2.648,2.759-1.515,1.466-4.287
									c-0.754,0.494-0.635,2.082-0.863,1.682c-1.518-1.795,1.088-1.272,1.088-2.653l-1.701-0.284
									c0.266-2.819,1.492-5.927,1.801-9.05c-0.506,0.173-1.038,0.709-1.559-0.02c0.848-3.94-0.212-8.407-1.223-12.204l1.467-1.454
									c-0.018-0.337-0.663-0.625-0.947-0.26c-0.558-1.479,0.93-0.078,1.507-0.791c0.103-0.842-0.845-1.111-1.284-0.577
									c1.242-2.614,2.676-7.447,1.103-10.196l-0.436,0.537c-0.597-2.142,3.006-2.424,1.637-4.41l-0.26,0.381
									c-0.639-4.65,0.702-9.794-1.516-13.339c2.114-0.679-0.944-4.602,2.003-4.908c-1.463-2.653-1.988-1.891-2.973-5.63
									c-0.137-0.999,1.84-1.494,2.146-2.729l-1.542-0.027l1.616-1.681l-1.844-0.888l0.396-1.159
									c0.091,0.461,0.692,0.979,1.136,0.908c0.697-1.812-1.076-4.409-1.865-4.452l1.301-4.285
									c-0.62,0.097-0.832,0.814-1.227,1.382c1.57-2.29-1.624-0.411-0.184-2.509c0.35,0.28,0.918-0.154,1.229-0.202
									c-0.932-1.042-0.941-3.418-0.549-5.177l-1.063,0.34c-0.271-3.175,0.507-6.696,0.484-10.26
									c0.495,1.277,2.337,0.979,2.514-0.067l-1.626-0.413c1.004-0.678,0.613,1.089,1.844-0.299
									c-0.188-1.331-1.852-0.89-2.383-0.124l0.564-1.62c-0.486-0.093-0.742,0.287-1.362,0.388c1.012-0.667-1.636-2.79,0.12-3.753
									l-0.484-0.09c-0.016-3.563,0.544-5.18,0.624-8.083c1.406-0.061,1.093-1.195,2.229-2.063
									c-0.451-2.132-1.557-4.496-1.439-7.066c0.699-1.808,1.19-0.531,2.025-1.345c-1.28-0.129-1.162-2.696-2.08-1.362
									c0.103-1.542,0.166-2.528,0.332-3.615c0.048-0.272,0.096-0.55,0.147-0.845c0.065-0.319,0.136-0.656,0.211-1.023
									c0.177-0.843,0.395-1.807,0.825-2.993c0.457,0.596,0.622,1.177,1.09,0.926c0.152-0.407,0.074-0.892-0.116-1.289
									c-0.183-0.396-0.454-0.708-0.773-0.699l-0.177,0.213c0.732-1.295,1.066-2.71,1.499-4.279
									c0.372-1.569,0.893-3.281,1.663-4.952c0.807-1.642,1.92-3.215,3.283-4.258c0.66-0.56,1.4-0.899,2.116-1.184
									c0.725-0.245,1.461-0.305,2.162-0.236l-0.31-0.017c0,0,0.084-0.011,0.23-0.029c0.147-0.022,0.355-0.044,0.604-0.048
									c0.498-0.018,1.153-0.035,1.791-0.034c0.621,0.055,1.242,0.109,1.708,0.15c0.459,0.036,0.748,0.111,0.748,0.111
									c1.029-0.219,0.704-0.425,0.275-0.695c-0.423-0.27-0.967-0.596-0.186-1.078c1.391,0.36,2.486,0.621,3.521,0.704
									c0.834,0.098,1.557,0.045,2.288-0.033c1.449-0.155,2.812-0.399,4.396,0.326c2.524-3.757,8.76,0.34,12.108-2.043
									l-0.195,0.888c0.858,0.88,1.043-0.5,1.677-0.698c-0.092,0.69-0.936,0.792-0.401,1.279
									c7.292,1.142,15.161-1.327,22.693-2.135c2.76-0.248,1.562,4.598,5.041,2.462l-0.985-1.648
									c0.348,0.123,0.697,0.23,1.047,0.323c0.373,0.096,0.855,0.196,1.275,0.277c0.885,0.161,1.771,0.322,2.66,0.483
									c1.828,0.374,3.734,0.706,5.748,1.54c1.985,0.796,4.027,2.046,5.603,3.787c1.604,1.726,2.554,3.853,2.877,5.827
									c0.167-0.58,0.675-0.783,0.289-1.539c0.942,0.551,1.574,2.161,1.626,3.503c0.099,1.371-0.326,2.45-0.785,2.542
									c0.269,1.07,0.916,0.128,1.49,0.749c0.435,0.722,0.146,1.726-0.171,2.532c-0.148,0.414-0.284,0.8-0.308,1.127
									c-0.03,0.267,0.053,0.491,0.352,0.644c0.195,0.104,0.39-0.324,0.482-0.535c-0.581,0.751,0.147,3.501-1.236,2.782
									c0.66,2.043-0.615,3.908,0.203,5.538c-1.547,1.063,0.746,3.498-1.443,3.835c2.262-0.146,1.824,3.582,0.76,4.874
									c0.684-0.433,0.71,1.123,1.656,0.617c-0.032,1.474-0.452,2.825-1.614,2.568c2.706,2.716-2.178,5.459,1.29,6.988
									c-1.216,4.379-2.037,8.432-2.568,12.371c2.256-0.143,0.227-4.354,2.593-4.186c-0.929,3.737-2.864,5.893-2.32,9.598
									c0.309,0.959,0.978-0.544,1.363-0.869c-0.929,3.733,0.205,7.218-1.022,10.541c0.21-0.009,0.439-0.368,0.611-0.707
									c-0.074,0.655,0.328,1.522-0.693,1.449l0.277-0.638c-1.488-1.045-3.108,2.6-3.895,2.717
									c2.938-1.111,0.738,3.281,4.452,1.516c-0.194,0.431-0.68,0.971-1.366,0.873c0.2,0.639,0.601,0.842,1.381,0.194
									c-0.558,2.345-1.648,1.512-1.625,3.637c0.497-0.008,0.688-0.436,1.271-0.656c-0.966,1.076-1.936,2.157-1.516,3.952
									c0.299-0.108,0.688,0.1,0.682-0.435c-0.15,3.083-2.577,5.256-1.643,8.638c2.156-0.998,0.71,1.151,2.576,1.33l-0.557,1.819
									l-0.906-0.73c0.032,1.594-1.328,3.001-0.717,4.371l0.77-1.184l-0.354,2.986l-0.709-1.69
									c-0.961,1.612-2.361-0.173-1.842,1.948c0.188-0.431,0.023,1.594,1.123,2.424c0,0,0-0.005,0.006-0.005
									c-0.595,0.789-1.221,1.599-0.758,2.777c0.598,0.306,2.064-0.247,2.463-0.047c-1.561,0.778-0.434,3.732-2.096,4.717
									c0.391-0.328,1.37-0.346,1.569-0.237l-1.267,0.652c0.404,0.738,0.602,0.847,1.383,0.727c0.231,2.22-2.368-0.706-1.348,1.93
									c0.103-0.207,0.291-0.108,0.484-0.539c0.532,2.647-0.805,5.113-0.181,7.545c1.879,0.717,0.46-2.125,2.044-1.304
									c-0.34,3.506-2.25,7.261-1.809,10.654l-0.207-0.633c-2.651,0.471,1.31,2.527,0.06,4.244c0.196-0.42,1.472-0.551,1.177-0.438
									c0.426,2.324-0.652,4.75-1.486,8.271l0.682-0.436c0.608,1.37,0.351,3.606,0.66,5.085c-0.68,0.439-0.569,1.286-1.56,0.771
									c3.88,4.561-2.08,8.7,1.152,12.747c0.007-0.484,0.596-1.153,0.596-0.769l-0.625,3.447c-1.155-0.273-0.699-0.452-1.599-1.176
									c-0.686,0.436-1.217,1.409-1.217,2.263c0.766-1.55,1.855,0.013,2.5,0.683c-0.354-0.112-0.744,0.117-1.104,0.061
									c2.056,1.801-2.324,0.302-0.94,2.76l0.607-0.13c-0.311,0.92-1.112,1.768-0.939,2.76c1.338,0.411,0.625-0.979,1.725-1.043
									c-0.077,1.394-2.532,2.75-1.2,4.012c0.372-0.592,0.378-1.443,0.748-2.036c1.57,1.374,1.171,1.533,1.42,2.554l-0.036-0.1
									l0.711,2.359l-0.425-0.601c-3.485,1.744-0.637,3.551-2.92,5.9c2.161-2.283,1.25-0.377,2.765-0.552
									c0.42,0.6,0.892,1.512,1.317,1.252c-1.222,1.11,0.962,1.854-0.823,3.421c0.485,0.07,0.047,1.188,1.271,0.938
									c-0.383,1.443-0.849-0.341-1.46-0.22c-1.666,2.225,2.021,5.231-0.267,8.431c-0.939,2.761-2.584,3.271-3.402,5.832
									c0.779,0.865,1.775-0.708,1.775-0.708c0.718,1.395,0.586,2.444,0.028,3.758c0.425-0.266,0.785,0.008,1.331,0.409
									c-0.126,1.055-1.774,0.705-1.055,2.096c0.543-0.239,1.413-0.544,1.959-1.053c-0.449,1.243-1.36,2.47-1.8,3.757
									c0.85,0.341,1.289-0.776,1.843-1.23c-0.381,1.446-0.769,3.747-2.113,4.193l-0.48-0.928c-0.065,0.527,1.155,0.271,1.4-0.117
									c1.055-1.239-0.465-1.788-0.955-1.857l-0.313,0.916c-2.86-0.941,0.459-3.68,0.293-5.524l-2.08,0.769l1.726-1.892
									c-0.541-0.402-1.703-0.678-2.015,0.233c-1.026-1.322,0.74-1.17-0.406-2.307c-0.178-0.125-0.278-0.069-0.359,0.047
									l0.618-1.292c-0.437,0.253-1.468-0.215-1.168,0.579c-1.2-2.319,1.56-3.74-0.017-4.613l-0.127,0.194
									c0.703-3.218,1.527-0.311,3.318-2.725l-3.766-1.624l1.525-0.316c-0.055-0.333-0.169-0.989-0.779-0.868
									c1.045-1.235,0.664,0.211,1.65-0.506c-1.391-1.598,0.65-4.406-1.783-4.766c1.162-0.573,0.896,1.528,1.703-0.178
									c-2.615-0.487,0.448-1.972-0.752-3.432c-1.35,0.448-0.635,1.831-1.84,0.371c2.282-0.881-0.5-2.842-0.063-4.073
									c1.816-0.058,0.758-2.677,1.361-4.743c-0.608,0.13-0.996-3.887-1.653-5.81l-0.306,0.057c1.836-0.372,1.49-2.354,1.871-3.797
									c-1.101,0.057-1.533,0.316-2.025,1.098l0.008-1.356c0.589-0.321,0.898-0.744,1.109-1.625l-1.373,0.342
									c0.076-1.806,1.617-3.637,0.699-5.961c1.281-0.13,3.566,1.849,4.421-0.609c-0.692-0.091-1.876-0.182-2.159,0.461
									c0.089-0.211,0.574-0.751,0.279-1.176l-1.164,0.982c-0.512-1.059,0.973-0.554,0.863-1.4
									c-0.987,0.017-0.704-0.626-1.488-0.505c-0.095,0.216,0.41,0.738,0.021,1.063c-0.177-0.954-0.763-2.108-1.51-2.489
									c0.562,0.083,1.329,0,1.457-0.699c0.072-1.806-1.188-0.618-1.694-1.671c0.685-0.438-0.025-1.59,1.45-1.62
									c-0.007-0.529-0.695-0.626-1.096-0.831c0.651-0.935,0.187-4.366,1.756-3.313l0.104,0.24
									c0.031-0.045,0.032-0.098,0.065-0.153c0,0.008,0,0,0,0.008v-0.008c1.468-3.063-0.836-6.364-0.205-9.404l-0.493,0.005
									c0.564-1.815,0.333-4.039,1.395-5.335c0-0.537-0.901-1.267-1.488-1.038c0.371-1.387,0.925-1.542,0.111-3.546
									c-0.862,1.395-0.764-0.481-0.632,1.429c-0.426-1.802-1.217-2.211,0.134-4.146c-1.267,0.659-1.594-1.356-1.217-2.213
									l0.906,1.263c0.185-0.964,0.072-1.806-0.035-2.662l-1.664,0.462c-2.023-3.688,3.443-6.651,0.057-9.459
									c1.163-0.976,0.818,2.004,2.18,1.131c-0.225-1.696-2.612-3.464-2.617-3.996c-0.922-2.324,2.431-2.168,1.801-4.601
									c0.592,0.312,2.176,0.605,2.735-1.212c-0.22-1.698-2.489-2.087-2.966-1.015c-0.049,0.407,0.14,0.604,0.34,0.586
									c-0.216,0.548-0.47,1.268-1.113,0.596l0.594-0.22c-0.605-0.842-0.542-3.178-1.517-2.63c0.566-1.283,0.975-0.548,1.282,0.402
									c-0.859-2.178-0.025-3.402-0.604-5.643c0.327,0.356,1.024,0.684,1.018,0.33c-0.734-3.288,1.126-1.448,1.387-3.675
									c-0.905-1.266-2.16,0.454-1.402-1.789c-0.612-1.37-1.574-0.29-2.058,0.254c1.144-2.043-0.752-3.817-0.962-4.984
									l-0.479,1.076c0.284-0.644,0.275-1.171,0.273-1.707l1.187,0.614c-0.206-0.632-0.212-1.167-0.706-1.155
									c0.778-0.651,1.975,0.498,3.037-0.794c-0.603-0.842,0.647-2.565-0.928-2.856c0.535,2.65-1.582-0.292-1.836,1.95
									c0.188-0.433,0.182-0.96-0.027-1.594c-0.176-0.095-0.326,0.09-0.416,0.262c-1.408-2.535,1.78-1.165,1.744-3.792
									c-0.888,0.333-1.684-0.609-1.494-1.038c0.018,1.059,1.48,0.506,2.16-0.465c-0.69-1.685,0.514-1.831,0.434-2.713l0.326,1.007
									c0.886-0.341,0.77-1.184,1.049-2.358c-0.69-0.1-0.475,1.066-0.779,0.647c1.561-1.304-1.615-2.946-0.564-4.764
									c-0.602-0.842-1.667-0.082-2.075-0.821c1.151-2.038-1.216-2.207-0.265-4.349c1.193,0.617,0.901,0.725,2.064-0.783
									l-0.84,3.521l1.734-2.259c0.018,1.063-0.75,2.242-0.547,2.879c0.973-1.077,0.677-0.966,1.666-0.458
									c-1.789-1.454,1.043-2.883-0.166-4.564l-2.953,0.052c-1.316-2.527,1.516-4.49,0.771-7.771l0.515,1.055
									c1.175-0.44,0.163-2.026,0.64-3.089c-0.987,0.099-1.346-0.565-1.961-1.019c0.732,0.056-0.066-2.401,1.904-2.7l-1.3-1.464
									c-0.532-2.649,2.813-3.024,2.478-5.571c-1.073,0.767-1.773-0.39-2.541,1.315c-0.01-0.85-0.19-1.615,0.494-1.628
									c-0.618-0.497,1.33-2.358,0.393-3.14c0.434-0.358,1.467-0.476,1.385-1.43c-0.199-0.104-0.488,0.004-0.488,0.004
									c0.488-0.004,0.664-1.495,1.757-0.66c-3.079-2.62,0.224-7.322-2.421-9.602c0.329-1.849,0.652-4.107,0.717-5.761
									c-0.295,0.105-0.487-0.012-0.386,0.309c-0.483-1.053,0.213-1.337,0.896-1.758c0.64-0.379,1.335-0.905,0.626-2.032
									c-1.772-0.882-0.646,1.335-1.362,0.704c-1.654,0.076-1.6-0.529-1.512-1.271c0.045-0.369,0.131-0.812,0.011-1.142
									c-0.052-0.171-0.132-0.334-0.272-0.455c-0.156-0.103-0.361-0.17-0.63-0.178l-0.055,0.309
									c-0.348-0.046-0.472-0.214-0.536-0.422c-0.081-0.187-0.024-0.508-0.032-0.819c-0.013-0.303,0.011-0.707-0.128-1.013
									c-0.062-0.159-0.126-0.329-0.234-0.461c-0.119-0.122-0.259-0.228-0.418-0.304c0,0-0.102,0.279-0.258,0.418
									c0.088-0.952-0.424-1.812-1.214-2.514c-0.821-0.654-1.884-1.153-2.854-1.463c0.471,1.315,0.769,0.771,0.262,1.998
									c-0.81-0.259,0.55-2.033-1.223-2.562c-0.65,0.675-1.906,1.241-2.125,2.634c-0.019,0.005,0.495,0.006,0.854,0.046
									c0.388,0.031,0.774,0.063,0.774,0.063c-0.219,0.439-0.443,0.651-0.675,0.727c-0.223,0.073-0.472,0.011-0.783-0.084
									c-0.587-0.197-1.177-0.579-1.651-0.422l0.12,0.779c-2.763-0.243-2.8-2.207-5.771-2.057l0.307-0.59
									c-1.624-1.94-1.361,1.098-2.98-0.342l-0.489,1.976c-1.071-0.473-3.754-1.895-5.677-2.259c1.092,1.459,3.34,2.2,4.731,3.064
									c-1.062,0.018-3.607-0.133-4.163-1.105c0.429,0.189,0.969,0.67,1.391,0.365c-1.305-1.547-3.021-2.304-5.137-2.263
									c0.383,3.826-5.506,0.99-7.06,3.926c-3.764-1.447-7.479,0.541-11.875,0.276c1.599-2.962-1.28-0.095-0.964-3.15
									c-1.017-0.203-1.406-0.156-1.5,0.041l-3.129,1.799c-0.753,0.884,0.958,0.682,0.851,1.367
									c-2.246,0.215-0.967,1.287-2.472,2.087c0.33-1.091-0.743-1.573-2.032-1.166l1.834-1.394
									c-0.772-0.414-1.331-0.461-1.784-0.326c-0.412,0.141-0.605,0.473-0.852,0.795c-0.48,0.644-0.795,1.305-1.834,0.666
									c0,0,0.182,0.208,0.361,0.415c0.177,0.221,0.354,0.441,0.354,0.441c-0.268-0.143-0.553-0.104-0.932-0.118
									c-0.193-0.011-0.344,0.043-0.536,0.051c-0.188,0.013-0.386,0.018-0.556,0.046c-0.77,0.019-1.47-0.01-2.624-0.698
									c0.096,0.394,0.539,1.13,0.904,1.078c-0.114,0.197-0.298,0.31-0.481,0.447c-0.158,0.162-0.421,0.231-0.623,0.401
									c-0.22,0.148-0.493,0.275-0.723,0.478l-0.387,0.279l-0.351,0.346c-0.958,0.93-1.577,2.407-0.9,3.557
									c0,0,0.188-0.041,0.375-0.083c0.19-0.037,0.382-0.074,0.382-0.074c-0.127,0.24-0.474,0.452-0.716,0.694
									c-0.235,0.263-0.369,0.462,0.015,0.951c0.309-0.047,0.745-0.291,0.789,0.041c-0.257,0.381-1.309,1.909-0.872,2.858
									l0.841-0.815c0.98,3.747-2.045,5.761-2.557,8.907c2.201-0.015,2.918,2.934,3.275,4.405l0.312-0.052
									c0.274,4.366-1.819,7.422-2.682,11.468c2.391,2.503,1.005,8.499,2.348,12.53c-0.399-0.616-1.715,0.104-1.936,0.822
									c0.447,0.945-1.525,2.621,0.492,2.465l-0.038-0.337c1.98,0.708,1.455,2.656,1.51,4.174l-2.641,0.257
									c3.843,3.964-1.404,10.414,2.037,12.575c-0.66,0.96-0.652,2.148-1.311,3.1l1.416-0.054c0.362,2.656,0.54,3.981,0.205,7.266
									l1.012-0.672c0.095,1.852-4.081,2.347-4.163,4.056l2.113,0.51c-0.03,3.231,1.826,6.499-0.088,9.695
									c0.31-0.053,0.92-0.149,1.005-0.673c0.057,1.521,1.435,5.881-1.467,5.334c1.889,0.035,0.187,3.334-0.645,5.081l1.393-0.274
									c-1.779,1.476-2.266,1.524-2.758,3.581c0.182,0.488,1.115,0.426,0.759-0.221c0.731,1.623-1.319,1.268-0.575,3.236
									l0.889-0.735c0.109,1.671-0.369,1.539-1.406,2.461c-0.558,1.051,0.354,3.17,1.614,3.414
									c-0.769,0.227-1.796,1.144-1.431,2.127c0.476,0.132,0.771-0.227,0.915-0.407c0.95,2.793-1.618,4.158-0.248,6.078
									c0.462,0.039,0.692,0.164,0.831,0.323c-0.035-2.22-0.111-4.008-0.213-3.84c1.284-0.002,1.511,1.791,3.283,0.361
									c-0.967,1.441-3.069,3.905-2.465,5.653c0.125,0.084,0.247,0.167,0.445,0.23l0.144-0.181
									c0.128,0.403,0.009,0.765-0.207,1.105c0.212,0.557,0.368,0.912,0.387,1.447c1.063,0.206,0.575,2.056,0.627,2.95
									c-1.405-0.072-1.179,1.099-2.339,0.003c0.099,0.142,0.167-0.169,0.225-0.764c0.042-0.135,0.063-0.293,0.146-0.381
									c-0.035,0.018-0.078,0.039-0.123,0.061c0.04-0.587,0.071-1.353,0.093-2.223c-0.714,0.708-1.314,1.447-0.533,2.435
									c-0.903,0.46-1.832,0.966-2.268,1.251c1.961,1.221,3.021,3.578,4.23,3.905c-0.787,2.731-0.516,6.433-3.155,8.152
									c-0.339,0.777,0.757,0.892,1.173,1.181c0.264-0.448,0.224-0.981,0.604-1.224c-0.678,1.553-0.262,4.599-2.105,4.971
									c0.833,1.956,1.697-1.101,1.396,1.587l0.564-0.363c2.951,5.285-4.703,8.601-0.916,14.46
									c-0.232-0.406-0.34-0.609-0.648-0.692c1.672,6.683-1.559,13.774,1.092,20.368c0.535,1.875-0.644,2.078-1.539,3.223
									l1.511,0.406l-1.741,1.957c-1.273,2.774,3.708,4.803,1.298,8.315l-1.017-0.453c0.193,1.262-0.598,3.996,0.572,3.785
									c-0.186,0.129-1.058,0.414-0.527,0.907l0.79,0.038l-1.353,3.098c0.573,2.402,3.137-0.376,3.292,3.129
									c-0.304,1.302-2.298,3.709-2.827,3.221c-0.039-0.526-0.493-1.344-1.284-1.383l-0.411,1.191
									c-2.328,0.216-4.711,1.132-6.339-1.792l1.423-2.038l-1.13-0.656l-0.07,1.715c-1.063-0.973-0.124-1.589,0.521-2.28
									c-0.601-0.164-1.021-0.45-1.244-0.854l2.223-2.001c-0.912-0.243-1.808,0.897-2.312-0.445
									c1.033-0.938,2.043,0.898,2.72-0.653c-1.058-0.976-1.919-0.69-1.017-1.835c-0.6-0.161-0.981,0.082-1.244,0.536
									c0.718-1.019,0.302-2.696,1.539-3.222c-1.307-1.016,0.338-3.439-1.865-3.338c0.527-0.321,1.729-1.794,1.819-2.73
									c-2.637,1.71-0.157-3.502-2.985-3.049c2.371-1.266,1.051-4.57,2.365-6.812c-0.188,0.125-0.569,0.372-0.448,0.57
									c-0.197-1.261-0.913-1.627-1.361-2.438c1.959-0.163,2.405-2.127,3.614-3.187c-1.893-1.545-2.3,0.94-4.116,0.456
									c1.588,0.077,1.584-2.688,2.906-2.162c-1.17-1.182-0.568-1.019-2.193-1.626c2.451-0.208,0.414-1.101,1.919-2.083
									c-1.208-1.71-2.295-0.439-1.551-2.319C271.307,180.125,270.44,181.797,270.44,181.797z M274.65,137.093
									c-0.014,0-0.023,0-0.028,0c-0.033,0.385-0.061,0.713-0.079,0.923C274.565,137.824,274.597,137.558,274.65,137.093z
									 M274.67,133.336c0.056,0.458,0.065,1.027,0.056,1.629c0.486,0.131,0.985-0.012,0.959-0.39
									C275.361,134.782,275.08,133.896,274.67,133.336z M284.414,141.27c0.199-0.595-0.077-0.793-0.365-0.875
									c-0.024,0.281-0.071,0.609-0.168,1.041c-0.052,0.017-0.112,0.053-0.172,0.07
									C283.978,141.448,284.229,141.383,284.414,141.27z"/>
								<path fill="#202020" d="M282.571,142.341c-0.031,0.085-0.09,0.133-0.102,0.245c-0.124-0.121-0.23-0.237-0.316-0.354
									c0.15-0.073,0.304-0.146,0.44-0.211C282.586,142.129,282.579,142.241,282.571,142.341z"/>
								<path fill="#202020" d="M352.517,148.792l-0.031-0.079c0.057,0.066,0.111,0.126,0.2,0.166
									C352.617,148.826,352.573,148.826,352.517,148.792z"/>
								<polygon fill="#202020" points="271.951,81.471 272.305,81.476 271.995,81.804 								"/>
								<path fill="#202020" d="M357.341,169.482c0.124,0.04,0.252,0.117,0.36,0.271
									C357.608,169.742,357.48,169.625,357.341,169.482z"/>
								<path fill="#202020" d="M357.656,178.42l0.501,1.264C357.872,179.137,357.737,178.739,357.656,178.42z"/>
								<path fill="#202020" d="M358.353,185.292c-0.246,0.087-0.432,0.112-0.602,0.135c-0.004-0.005-0.004-0.009-0.011-0.013
									L358.353,185.292z"/>
								<path fill="#202020" d="M360.005,76.031c0.008-0.092,0.025-0.184,0.063-0.265C360.341,75.144,360.233,75.566,360.005,76.031
									z"/>
								<path fill="#202020" d="M356.722,108.546c0.255-0.345,0.505-0.686,0.664-1.045
									C357.493,108.079,357.521,108.529,356.722,108.546z"/>
								<path fill="#202020" d="M361.696,39.723c-0.008,0.004-0.012,0-0.023,0.004c0-0.078,0-0.146,0-0.224L361.696,39.723z"/>
								<path fill="#202020" d="M357.36,105.989c0.28,0.579,0.221,1.063,0.025,1.512
									C357.291,107.026,357.147,106.467,357.36,105.989z"/>
								<path fill="#202020" d="M358.99,215.076l0.059,0.331c-0.093-0.005-0.168,0.014-0.226,0.04L358.99,215.076z"/>
								<path fill="#202020" d="M358.823,215.446l-0.166,0.368C358.657,215.645,358.668,215.499,358.823,215.446z"/>
								<path fill="#202020" d="M358.304,216.588l0.354-0.774C358.661,216.082,358.705,216.413,358.304,216.588z"/>
								<path fill="#202020" d="M358.341,205.979l0.51-0.104C358.746,205.931,358.581,205.968,358.341,205.979z"/>
								<path fill="#202020" d="M358.489,203.214c0.115,0.659,1.087,1.654,0.768,2.574l-0.406,0.086
									C359.609,205.442,357.63,203.84,358.489,203.214z"/>
								<path fill="#202020" d="M352.188,191.676l0.408,2.316c-0.543-0.405-1.273-0.938-1.404,0.116
									C349.573,191.188,352.407,194.71,352.188,191.676z"/>
								<path fill="#202020" d="M351.401,184.493c-0.253,1.245-0.789-0.014-1.096,0.052
									C350.801,183.754,350.927,183.563,351.401,184.493z"/>
								<path fill="#202020" d="M351.396,132.585l-1.279,0.125C350.302,131.75,350.612,132.701,351.396,132.585z"/>
								<polygon fill="#202020" points="358.007,122.663 358.802,123.596 357.63,124.041 								"/>
								<polygon fill="#202020" points="348.896,116.801 348.714,117.22 349.177,115.62 								"/>
								<path fill="#202020" d="M349.351,29.623l1.576,0.29C350.644,30.561,348.873,30.697,349.351,29.623z"/>
								<path fill="#202020" d="M333.354,11.759c-0.41,0.789-1.468,1.299-2.12,0.527C332.079,12.175,332.923,11.558,333.354,11.759z
									"/>
								<polygon fill="#202020" points="284.577,71.459 285.104,70.702 284.665,72.129 								"/>
							</g>
						</g>
					</g>
				</g>
			</g>
			<g>
				<g>
					<g>
						<g>
							<g>
								<path fill="#202020" d="M125.347,223.5c-0.43,0.143-1.406,0.062-1.214-0.332l1.655-0.28L125.347,223.5z"/>
								<path fill="#202020" d="M122.281,220.851c0.802-0.463,2.212-0.997,3.731-0.697c-1.59,0.458-0.926,0.569-2.819,1.063
									c-0.193,0.395,0.531,0.688,1.14,0.622c-0.425,0.139,0.364,0.612-0.675,0.824c-1.281-0.513-1.333-1.162-0.275-1.84
									C123.019,220.676,122.587,220.818,122.281,220.851z"/>
								<path fill="#202020" d="M119.701,182.349l0.196,0.248C119.789,182.529,119.729,182.444,119.701,182.349z"/>
								<path fill="#202020" d="M118.793,158.492c-0.039,0.182-0.204,0.257-0.354,0.267
									C118.547,158.59,118.648,158.452,118.793,158.492z"/>
								<path fill="#202020" d="M116.969,154.418c0.053,0.087,0.076,0.161,0.112,0.24
									C116.929,154.567,116.845,154.474,116.969,154.418z"/>
								<path fill="#202020" d="M119.701,182.349l-0.521-0.638C119.721,181.667,119.581,182.038,119.701,182.349z"/>
								<path fill="#202020" d="M126.273,215.542c-0.081,0.133-0.234,0.245-0.435,0.346c0.07-0.11,0.13-0.216,0.174-0.325
									C126.101,215.556,126.175,215.55,126.273,215.542z"/>
								<path fill="#202020" d="M118.359,192.864l-0.003,0.194c-0.188,0.057-0.416,0.11-0.672,0.161L118.359,192.864z"/>
								<path fill="#202020" d="M118.105,200.935c-0.062-0.183,1.344-0.246,1.958-0.315c-0.579,0.103-0.854,0.238-0.963,0.397
									C118.833,201.02,118.513,200.997,118.105,200.935z"/>
								<path fill="#202020" d="M120.578,213.733l-0.195,0.227C120.444,213.901,120.5,213.801,120.578,213.733z"/>
								<path fill="#202020" d="M118.056,187.087c-0.209-0.014-0.393-0.042-0.503-0.073
									C117.729,187.014,117.896,187.043,118.056,187.087z"/>
								<path fill="#202020" d="M39.24,214.145c0.101-0.007,0.164,0.003,0.251,0C39.349,214.192,39.249,214.207,39.24,214.145z"/>
								<path fill="#202020" d="M46.2,223.5l0.075-0.13c0.267-0.014,0.527-0.028,0.788-0.028L46.2,223.5z"/>
								<path fill="#202020" d="M115.168,146.962c0.017,0.015,0.017,0.02,0.027,0.033
									C115.035,147.192,115.063,147.081,115.168,146.962z"/>
								<path fill="#202020" d="M74.604,127.089c0.773-1.257-1.266-1.613-0.101-3.008C74.396,124.631,75.569,126.272,74.604,127.089
									z"/>
								<path fill="#202020" d="M126.089,215.333c0.016-0.109,0.028-0.22,0.015-0.331
									C126.148,215.153,126.143,215.254,126.089,215.333z"/>
								<path fill="#202020" d="M74.504,124.082c0-0.006,0-0.012,0-0.012l0.12-0.132C74.574,123.997,74.546,124.031,74.504,124.082z
									"/>
								<path fill="#202020" d="M115.634,131.216c0.246-0.037,0.44-0.038,0.627-0.032
									C116.12,131.212,115.94,131.224,115.634,131.216z"/>
								<path fill="#202020" d="M118.013,142.584l-0.188-0.316C117.953,142.394,117.997,142.495,118.013,142.584z"/>
								<path fill="#202020" d="M115.552,126.794c-0.146,0.005-0.301,0.125-0.258-0.104c0.058-0.043,0.1-0.071,0.146-0.096
									C115.34,126.77,115.314,126.873,115.552,126.794z"/>
								<path fill="#202020" d="M112,125.298c0.034-0.106,0.075-0.185,0.113-0.279c0.049,0.025,0.104,0.055,0.154,0.081L112,125.298
									z"/>
								<path fill="#202020" d="M39.919,193.13c0.396,0.151,0.831,0.246,1.262,0.319C40.183,193.343,39.826,194.359,39.919,193.13z"
									/>
								<path fill="#202020" d="M125.483,215.539c0.355-0.041,0.529-0.1,0.605-0.206c-0.016,0.079-0.044,0.156-0.076,0.23
									C125.805,215.583,125.606,215.587,125.483,215.539z"/>
								<path fill="#202020" d="M123.198,118.758c0,0-0.385-0.3-0.769-0.601c-0.431-0.266-0.861-0.532-0.861-0.532
									c0.267,0.113,0.557,0.27,0.849,0.457C122.693,118.277,122.948,118.513,123.198,118.758z"/>
								<path fill="#202020" d="M40.124,143.523l-0.169,0.252C39.924,143.678,39.964,143.588,40.124,143.523z"/>
								<path fill="#202020" d="M116.422,114.855c-0.469,0.364-0.855,0.572-1.22,0.702c-0.046-0.12-0.107-0.224-0.122-0.391
									c0,0,0.325-0.093,0.65-0.186C116.06,114.891,116.422,114.855,116.422,114.855z"/>
								<path fill="#202020" d="M41.197,193.452c-0.011-0.001-0.017-0.002-0.017-0.002S41.187,193.451,41.197,193.452z"/>
								<path fill="#202020" d="M37.857,200.688c-0.04-1.047,1.808-0.491,2.869-0.713c0.523-1.249-1.361-0.578-2.306-1.004
									c0.489-0.78,2.185-1.378,2.113-1.96c-0.305-0.043-0.416-0.156-0.797-0.024c1.469-0.825,0.072-2.448,1.917-3.409
									c-0.163-0.071-0.318-0.107-0.457-0.125c0.924,0.156,1.865,0.18,2.534,0.148c0.031-0.469,1.167-0.871-0.041-1.047
									c0.036,0.288-0.451,0.312-0.828,0.446l0.524-0.492c-1.735-0.443-0.601,0.671-1.886,0.671
									c0.565-0.959,2.002-2.076,1.512-2.811c-1.698-0.154-0.572,1.718-2.082,0.737l0.649,1.137
									c-2.679-0.869,0.187,0.691-2.679-0.108c-0.492-1.496,0.865-1.673,0.37-3.166c0.943-0.336,1.395,0.111,2.34-0.225
									c1.695-2.121-4.271-1.671-2.008-3.23c1.132-0.403,3.28-0.56,2.144-1.67l-1.92,0.378c-0.189-1.448,2.76-0.826,1.469-2.343
									c-0.755,0.27-0.637,1.138-0.864,0.919c-1.517-0.983,1.089-0.695,1.089-1.45l-1.7-0.157c0.267-1.542,1.495-3.24,1.806-4.948
									c-0.506,0.094-1.038,0.387-1.558-0.013c0.85-2.154-0.207-4.599-1.216-6.677l1.468-0.793
									c-0.017-0.185-0.663-0.342-0.947-0.143c-0.557-0.81,0.931-0.042,1.508-0.431c0.103-0.46-0.844-0.608-1.284-0.317
									c1.244-1.428,2.681-4.07,1.109-5.576l-0.437,0.293c-0.596-1.172,3.008-1.322,1.64-2.41l-0.26,0.208
									c-0.636-2.544,0.709-5.355-1.507-7.298c2.114-0.368-0.942-2.519,2.006-2.681c-1.461-1.453-1.987-1.038-2.97-3.084
									c-0.136-0.547,1.841-0.814,2.148-1.489l-1.542-0.018l1.618-0.916l-1.844-0.489l0.396-0.633
									c0.091,0.252,0.692,0.537,1.136,0.499c0.698-0.99-1.073-2.414-1.863-2.438l1.305-2.341c-0.62,0.052-0.833,0.444-1.229,0.754
									c1.572-1.25-1.623-0.228-0.182-1.373c0.35,0.154,0.918-0.083,1.229-0.108c-0.932-0.571-0.94-1.871-0.547-2.833l-1.063,0.184
									c-0.135-0.868-0.007-1.784,0.152-2.726c0.092-0.585,0.185-1.178,0.278-1.776c0.081-0.616,0.221-1.293,0.277-1.943
									c0.392,1.008,2.251,0.935,2.497,0.28c0,0-0.395-0.125-0.79-0.249c-0.392-0.131-0.784-0.262-0.784-0.262
									c1.068-0.328,0.488,0.843,1.86,0.064c-0.025-0.922-1.707-0.974-2.337-0.463l0.777-1.107
									c-0.461-0.176-0.766,0.055-1.389,0.01c0.531-0.15,0.269-0.788,0.14-1.49c-0.065-0.348-0.111-0.7,0.001-0.991
									c0.123-0.296,0.381-0.515,0.868-0.558l-0.422-0.252c0.269-0.759,0.646-1.421,1.012-1.995c0.34-0.572,0.781-1.062,1.18-1.516
									c0.389-0.46,0.847-0.86,1.306-1.281c0.448-0.432,0.959-0.83,1.523-1.287c0.478,0.519,0.864,0.537,1.294,0.501
									c0.437-0.017,0.925-0.103,1.534,0.175c1.2-1.315,2.742-3.125,4.77-3.443c1.474,0.438,0.62,1.095,1.337,1.813
									c-0.122-1.313,1.723-1.385,0.669-2.196c0.563-0.005,1.025-0.014,1.436,0.007c0.399,0.035,0.759,0.081,1.134,0.153
									c0.188,0.037,0.378,0.08,0.579,0.132c0.174,0.055,0.335,0.123,0.522,0.199c0.37,0.153,0.8,0.351,1.333,0.61
									c-0.231,0.525-0.491,0.754-0.356,1.19c0.387,0.21,0.88-0.538,0.824-1.153l-0.103-0.132c2.396,1.917,5.521-3.739,7.43-1.071
									l-0.107-0.132l1.979,1.389c0.909-0.222-0.547-0.961,0.125-1.754c2.136,2.134,3.367-0.313,5.126,1.109
									c1.35-3.779,4.823,0.262,6.65-2.152l-0.104,0.89c0.477,0.873,0.572-0.509,0.921-0.713c-0.048,0.69-0.512,0.8-0.216,1.283
									c4.02,1.068,8.284-1.307,12.397-2.114c1.504-0.239,0.875,4.603,2.764,2.477l-0.547-1.651
									c3.049,1.981,6.213-0.074,9.197,1.604c-0.18-0.381-0.188-0.876-0.479-0.87c0.622-1.2,2.323-0.061,2.34,0.918
									c0.463-0.111,0.103-0.885,0.385-1.383c0.626-0.708,1.592,1.53,1.919,0.336c0.056-0.195-0.18-0.389-0.296-0.482
									c0.414,0.581,1.912-0.149,1.528,1.235c0.226-0.171,0.681-0.196,1.051-0.167c0.382,0.031,0.751,0.122,1.104,0.21
									c0.706,0.168,1.423,0.452,2.171,0.162c0.266,0.808,1.021,0.866,1.715,0.981c0.344,0.062,0.666,0.131,0.861,0.338
									c0.195,0.222,0.259,0.552,0.092,1.079c0.399-1.058,1.367-1.113,2.288-0.627c0.86,0.562,1.655,1.569,1.639,2.371
									c0.184-0.782,1.212,0.207,1.555-0.787c1.056,1.054,1.319,2.292,0.273,2.791c1.826,0.129,1.903,1.458,1.948,2.475
									c0.016,1.069-0.003,1.891,1.814,1.889c0.04,1.894-0.179,3.535-0.418,4.979c-0.237,1.455-0.537,2.71-0.784,3.883
									c2.287-0.084,0.128-2.692,2.472-2.782c-0.354,1.34-1.066,2.263-1.588,3.146c-0.525,0.875-0.879,1.624-0.604,2.654
									c0.309,0.525,0.978-0.297,1.363-0.474c-0.929,2.041,0.205,3.948-1.022,5.764c0.21-0.005,0.439-0.201,0.611-0.386
									c-0.074,0.358,0.328,0.833-0.693,0.792l0.277-0.349c-1.488-0.573-3.108,1.419-3.895,1.483
									c2.938-0.605,0.738,1.795,4.452,0.833c-0.194,0.235-0.68,0.531-1.366,0.476c0.2,0.35,0.601,0.461,1.381,0.107
									c-0.558,1.282-1.648,0.826-1.625,1.988c0.497-0.004,0.688-0.238,1.272-0.358c-0.967,0.587-1.937,1.178-1.517,2.16
									c0.299-0.059,0.688,0.055,0.682-0.237c-0.15,1.686-2.577,2.873-1.643,4.723c2.156-0.544,0.71,0.63,2.576,0.729l-0.557,0.995
									l-0.906-0.4c0.032,0.872-1.328,1.641-0.716,2.39l0.769-0.647l-0.354,1.633l-0.708-0.925
									c-0.962,0.881-2.362-0.096-1.843,1.064c0.188-0.235,0.023,0.872,1.123,1.327c0,0,0-0.003,0.005-0.003
									c-0.594,0.431-1.221,0.874-0.757,1.519c0.598,0.167,2.064-0.134,2.463-0.024c-1.561,0.424-0.434,2.041-2.097,2.578
									c0.391-0.179,1.371-0.188,1.57-0.129l-1.268,0.356c0.405,0.404,0.603,0.463,1.384,0.398
									c0.231,1.214-2.368-0.387-1.348,1.055c0.103-0.113,0.291-0.059,0.484-0.294c0.532,1.448-0.805,2.796-0.181,4.126
									c1.879,0.393,0.46-1.162,2.045-0.712c-0.341,1.917-2.251,3.97-1.81,5.826l-0.207-0.346c-2.651,0.256,1.31,1.383,0.06,2.321
									c0.196-0.23,1.472-0.301,1.177-0.239c0.426,1.271-0.652,2.598-1.487,4.523l0.683-0.239c0.608,0.75,0.351,1.973,0.66,2.782
									c-0.68,0.24-0.569,0.703-1.56,0.421c3.879,2.496-2.08,4.757,1.152,6.972c0.007-0.265,0.596-0.63,0.596-0.42l-0.625,1.885
									c-1.155-0.149-0.699-0.247-1.6-0.643c-0.685,0.238-1.216,0.77-1.216,1.237c0.766-0.848,1.855,0.008,2.5,0.374
									c-0.354-0.062-0.744,0.064-1.104,0.033c2.056,0.985-2.324,0.164-0.939,1.509l0.606-0.071
									c-0.311,0.503-1.112,0.966-0.938,1.509c1.336,0.226,0.623-0.535,1.724-0.57c-0.077,0.762-2.532,1.503-1.2,2.194
									c0.372-0.324,0.378-0.79,0.748-1.113c1.57,0.752,1.171,0.839,1.42,1.397l-0.035-0.055l0.71,1.291l-0.425-0.329
									c-3.485,0.953-0.637,1.942-2.92,3.227c2.161-1.248,1.25-0.206,2.765-0.302c0.42,0.328,0.892,0.827,1.317,0.686
									c-1.222,0.606,0.962,1.014-0.824,1.871c0.486,0.038,0.048,0.649,1.272,0.513c-0.384,0.79-0.849-0.187-1.46-0.121
									c-1.666,1.217,2.021,2.861-0.267,4.611c-0.939,1.509-2.584,1.788-3.403,3.189c0.78,0.473,1.776-0.387,1.776-0.387
									c0.718,0.763,0.586,1.337,0.028,2.056c0.425-0.146,0.785,0.004,1.332,0.224c-0.127,0.577-1.775,0.386-1.057,1.146
									c0.544-0.13,1.414-0.297,1.96-0.576c-0.449,0.68-1.36,1.351-1.8,2.055c0.85,0.187,1.289-0.425,1.844-0.673
									c-0.383,0.791-0.77,2.049-2.114,2.293l-0.48-0.508c-0.065,0.289,1.155,0.149,1.4-0.064c1.055-0.678-0.465-0.978-0.956-1.016
									l-0.313,0.501c-2.859-0.515,0.459-2.013,0.293-3.021l-2.08,0.42l1.727-1.034c-0.541-0.22-1.703-0.371-2.015,0.127
									c-1.026-0.723,0.74-0.64-0.406-1.262c-0.178-0.069-0.278-0.038-0.36,0.026l0.619-0.707
									c-0.437,0.138-1.469-0.118-1.168,0.316c-1.2-1.269,1.56-2.045-0.016-2.523l-0.129,0.106c0.703-1.76,1.528-0.17,3.319-1.49
									l-3.766-0.889l1.525-0.173c-0.055-0.182-0.169-0.541-0.779-0.475c1.045-0.675,0.664,0.116,1.65-0.276
									c-1.391-0.874,0.65-2.41-1.782-2.607c1.16-0.313,0.896,0.836,1.702-0.097c-2.615-0.267,0.448-1.079-0.752-1.877
									c-1.35,0.245-0.635,1.001-1.841,0.202c2.283-0.481-0.499-1.554-0.062-2.228c1.816-0.031,0.758-1.464,1.362-2.594
									c-0.609,0.071-0.998-2.126-1.654-3.178l-0.306,0.031c1.836-0.203,1.489-1.288,1.87-2.077c-1.1,0.031-1.533,0.172-2.024,0.6
									l0.008-0.742c0.589-0.175,0.898-0.406,1.108-0.888l-1.372,0.186c0.076-0.988,1.616-1.989,0.7-3.26
									c1.28-0.071,3.565,1.012,4.42-0.332c-0.692-0.05-1.876-0.1-2.159,0.252c0.089-0.115,0.574-0.411,0.279-0.643l-1.165,0.537
									c-0.511-0.579,0.974-0.302,0.864-0.765c-0.987,0.009-0.704-0.343-1.487-0.277c-0.096,0.118,0.408,0.404,0.021,0.581
									c-0.177-0.522-0.763-1.153-1.51-1.362c0.562,0.046,1.329,0,1.457-0.381c0.072-0.988-1.188-0.338-1.694-0.915
									c0.685-0.239-0.025-0.869,1.45-0.885c-0.007-0.289-0.695-0.343-1.096-0.455c0.651-0.511,0.187-2.388,1.756-1.812
									l0.104,0.131c0.03-0.024,0.031-0.053,0.064-0.083c0,0.004,0,0,0,0.004v-0.004c1.467-1.675-0.836-3.481-0.205-5.144
									l-0.493,0.002c0.563-0.992,0.333-2.209,1.396-2.917c-0.002-0.293-0.902-0.693-1.489-0.568
									c0.371-0.758,0.925-0.843,0.11-1.939c-0.861,0.762-0.763-0.264-0.631,0.781c-0.426-0.986-1.217-1.21,0.133-2.268
									c-1.266,0.36-1.593-0.743-1.216-1.211l0.906,0.691c0.185-0.527,0.072-0.988-0.035-1.456l-1.664,0.252
									c-2.024-2.018,3.443-3.636,0.056-5.174c1.164-0.533,0.819,1.097,2.181,0.62c-0.225-0.928-2.612-1.896-2.617-2.187
									c-0.922-1.271,2.431-1.185,1.801-2.515c0.592,0.17,2.176,0.332,2.735-0.662c-0.22-0.929-2.489-1.143-2.965-0.557
									c-0.051,0.223,0.139,0.331,0.339,0.321c-0.216,0.3-0.47,0.693-1.113,0.325l0.594-0.12c-0.605-0.461-0.542-1.739-1.517-1.439
									c0.566-0.701,0.975-0.299,1.282,0.221c-0.859-1.191-0.026-1.861-0.604-3.087c0.327,0.195,1.024,0.375,1.019,0.181
									c-0.735-1.799,1.125-0.791,1.385-2.009c-0.904-0.693-2.159,0.247-1.401-0.979c-0.612-0.75-1.574-0.16-2.058,0.138
									c1.144-1.117-0.752-2.088-0.962-2.727l-0.479,0.588c0.284-0.352,0.275-0.64,0.273-0.934l1.187,0.337
									c-0.206-0.345-0.213-0.638-0.706-0.632c0.778-0.356,1.975,0.274,3.037-0.432c-0.603-0.461,0.647-1.402-0.928-1.563
									c0.535,1.45-1.582-0.161-1.836,1.065c0.188-0.236,0.181-0.524-0.027-0.872c-0.176-0.052-0.326,0.049-0.417,0.143
									c-1.407-1.388,1.781-0.636,1.745-2.073c-0.888,0.182-1.684-0.334-1.494-0.568c0.018,0.579,1.48,0.278,2.16-0.253
									c-0.69-0.922,0.514-1.001,0.434-1.483l0.326,0.551c0.886-0.186,0.77-0.647,1.05-1.289c-0.691-0.056-0.476,0.583-0.78,0.353
									c1.56-0.712-1.615-1.612-0.564-2.606c-0.602-0.461-1.667-0.046-2.075-0.451c1.151-1.114-1.216-1.208-0.265-2.379
									c1.192,0.338,0.901,0.397,2.064-0.427l-0.84,1.925l1.734-1.234c0.018,0.581-0.751,1.226-0.547,1.574
									c0.973-0.588,0.677-0.528,1.666-0.249c-1.789-0.796,1.043-1.576-0.166-2.496l-2.954,0.026
									c-0.663-0.656-0.281-1.181,0.143-1.762c0.219-0.298,0.443-0.598,0.558-0.913c0.124-0.325,0.125-0.656-0.105-0.976
									l0.566,0.395c1.142-0.323,0.063-0.927,0.437-1.439c-0.968,0.227-1.355,0.011-1.999-0.005
									c0.713-0.159-0.26-0.784,1.553-1.502c0,0-0.353-0.031-0.705-0.062c-0.344-0.027-0.703-0.019-0.703-0.019
									c-0.422-0.313,0.119-0.835,0.595-1.442c0.485-0.583,1.006-1.337,0.516-1.664c-0.708,0.857-1.507,0.915-1.836,1.808
									c-0.154-0.251-0.446-0.282,0.106-0.706c-0.299,0.122-0.132-0.23-0.036-0.59c0.084-0.315,0.098-0.663-0.311-0.413
									c0.218-0.379,0.908-1.228,0.545-1.366c-0.156,0.134-0.304,0.383-0.304,0.383c0.321-0.366-0.066-0.873,0.85-1.553
									c-0.348,0.221-0.629,0.367-0.862,0.449c-0.243,0.099-0.455,0.157-0.634,0.155c-0.18,0.001-0.333-0.045-0.478-0.123
									c-0.162-0.051-0.322-0.12-0.478-0.202c-0.157-0.078-0.31-0.17-0.474-0.229c-0.177-0.038-0.354-0.056-0.527-0.03
									c-0.348,0.051-0.672,0.272-0.965,0.941c-0.184-0.086-0.377-0.177-0.574-0.269l-0.309-0.131l-0.409-0.103
									c-0.549-0.129-1.085-0.226-1.547-0.262c0.062,0.295,0.006,0.492,0.181,0.389c-1.267,0.919-0.8-2.833-2.24-1.807
									c-0.729,1.596,0.773,0.862,0.316,1.467c-0.181,3.249-1.749-0.441-2.712,1.455l0.237,0.191
									c-0.738,1.104-1.823-1.229-3.038-0.996c0,0,0.061,0.287,0.01,0.491c-0.84-1.656-2.417-2.203-3.589-2.662
									c0.37,1.271,0.534,0.672,0.319,1.964c-0.525-0.183,0.143-2.074-0.905-2.435c-0.337,0.696-1.089,1.305-1.183,2.683
									l0.987,0.073c-0.497,1.784-1.278-0.06-1.797,0.251l0.07,0.779c-1.515-0.251-1.544-2.215-3.17-2.074l0.165-0.59
									c-0.896-1.945-0.74,1.095-1.633-0.351l-0.26,1.974c-0.588-0.476-2.062-1.906-3.114-2.276c0.601,1.463,1.834,2.21,2.6,3.079
									c-0.581,0.015-1.977-0.144-2.283-1.117c0.235,0.19,0.532,0.673,0.763,0.369c-0.72-1.551-1.66-2.313-2.818-2.278
									c0.219,3.826-3.016,0.967-3.846,3.939c-2.055-1.413-4.064,0.608-6.453,0.383c0.84-2.977-0.697-0.083-0.559-3.142
									c-0.556-0.193-0.768-0.143-0.817,0.055l-1.681,1.828c-0.398,0.89,0.53,0.673,0.48,1.359
									c-1.218,0.235-0.509,1.296-1.313,2.109c0.163-1.094-0.427-1.566-1.12-1.147l0.975-1.411
									c-1.704-1.625-1.467,2.567-3.185,0.958l0.544,0.961c-0.882-0.567-3.248,0.022-4.114-2.433
									c-0.155,0.353-0.359,1.189,0.028,1.41c-2.104,0.371-4.686-2.609-6.319-1.095l0.16,0.747
									c-0.393-0.215-0.684-1.404-1.175-0.651c0.025,0.309,0.158,0.746-0.023,0.79c-0.181-0.254-0.819-1.283-1.21-0.837
									l0.376,0.831c-0.695,0.525-1.199,0.067-1.795-0.524c-0.313-0.312-0.617-0.637-0.942-0.895
									c-0.165-0.132-0.337-0.249-0.511-0.338c-0.158-0.075-0.319-0.122-0.477-0.13c0.409,1.036,0.417,1.768,0.501,2.319
									c0.033,0.271,0.028,0.47,0.046,0.638c0.024,0.143,0.047,0.279,0.064,0.388l0.188,0.25c-0.037,0.226-0.413-0.114-1.079-0.165
									c-0.648-0.07-1.572,0.052-2.166,0.654c0.259,0.187,0.457,0.363,0.606,0.533c0.165,0.188,0.283,0.374,0.364,0.559
									c0.145,0.348,0.223,0.788,0.229,1.21c0.017,0.229,0.034,0.463,0.052,0.698c0.019,0.237,0.035,0.443,0.087,0.8
									c0.096,0.639,0.26,1.257,0.595,1.809c-0.398-0.337-1.715,0.054-1.936,0.446c0.446,0.518-1.527,1.43,0.49,1.349l-0.038-0.185
									c1.98,0.391,1.454,1.455,1.508,2.286l-2.641,0.136c3.84,2.175-1.411,5.693,2.028,6.88c-0.66,0.523-0.653,1.173-1.313,1.693
									l1.416-0.028c0.361,1.453,0.538,2.178,0.201,3.974l1.012-0.366c0.095,1.013-4.082,1.277-4.165,2.211l2.113,0.282
									c-0.033,1.767,1.822,3.557-0.095,5.302c0.31-0.028,0.921-0.08,1.006-0.366c0.055,0.832,1.431,3.218-1.47,2.915
									c1.889,0.021,0.184,1.823-0.648,2.777l1.393-0.148c-1.78,0.805-2.267,0.831-2.76,1.955c0.182,0.267,1.115,0.234,0.759-0.12
									c0.729,0.888-1.319,0.691-0.577,1.769l0.89-0.401c0.107,0.914-0.37,0.841-1.407,1.344c-0.56,0.574,0.351,1.734,1.61,1.869
									c-0.768,0.123-1.796,0.623-1.432,1.162c0.476,0.073,0.771-0.123,0.915-0.222c0.949,1.528-1.619,2.272-0.251,3.323
									c0.461,0.022,0.691,0.09,0.831,0.178c-0.034-1.214-0.109-2.192-0.211-2.1c1.284,0,1.51,0.981,3.283,0.201
									c-0.968,0.787-3.072,2.132-2.469,3.088c0.125,0.046,0.247,0.092,0.445,0.126l0.144-0.099
									c0.128,0.221,0.009,0.418-0.208,0.604c0.212,0.305,0.368,0.499,0.386,0.792c1.063,0.113,0.574,1.125,0.625,1.613
									c-1.405-0.041-1.179,0.6-2.339,0c0.1,0.078,0.168-0.092,0.227-0.417c0.041-0.073,0.062-0.16,0.145-0.208
									c-0.036,0.01-0.079,0.021-0.123,0.033c0.04-0.321,0.072-0.74,0.094-1.216c-0.714,0.386-1.314,0.79-0.534,1.331
									c-0.903,0.25-1.833,0.526-2.269,0.682c1.961,0.669,3.02,1.959,4.229,2.139c-0.789,1.493-0.521,3.518-3.161,4.456
									c-0.339,0.424,0.757,0.488,1.172,0.647c0.265-0.245,0.225-0.537,0.604-0.669c-0.678,0.848-0.264,2.515-2.108,2.717
									c0.833,1.07,1.698-0.601,1.396,0.869l0.563-0.198c2.948,2.892-4.708,4.7-0.924,7.907c-0.232-0.222-0.34-0.333-0.648-0.379
									c1.668,3.656-1.567,7.533,1.079,11.14c0.533,1.025-0.645,1.136-1.541,1.762l1.51,0.223l-1.741,1.069
									c-1.276,1.517,3.704,2.627,1.292,4.548l-1.017-0.248c0.192,0.69-0.6,2.186,0.569,2.07c-0.186,0.07-1.057,0.226-0.527,0.496
									l0.79,0.021l-1.354,1.694c0.57,1.313,3.136-0.206,3.289,1.711c-0.304,0.712-2.3,2.029-2.828,1.761
									c-0.039-0.288-0.493-0.734-1.284-0.756l-0.412,0.651c-2.327,0.118-4.712,0.62-6.337-0.98l1.423-1.115l-1.129-0.359
									l-0.071,0.938c-1.063-0.532-0.123-0.87,0.522-1.248c-0.601-0.089-1.021-0.246-1.243-0.467l2.224-1.095
									c-0.911-0.133-1.808,0.491-2.311-0.244c1.033-0.513,2.042,0.492,2.72-0.357c-1.057-0.533-1.919-0.378-1.016-1.003
									c-0.6-0.088-0.981,0.044-1.245,0.292c0.72-0.557,0.305-1.474,1.542-1.762c-1.306-0.556,0.34-1.881-1.863-1.827
									c0.527-0.175,1.729-0.981,1.821-1.493c-2.639,0.935-0.155-1.916-2.983-1.669c2.372-0.692,1.054-2.5,2.369-3.725
									c-0.188,0.069-0.569,0.204-0.449,0.312c-0.196-0.69-0.911-0.891-1.359-1.334c1.959-0.088,2.407-1.163,3.616-1.742
									c-1.891-0.846-2.3,0.513-4.116,0.248c1.588,0.042,1.586-1.47,2.907-1.182c-1.169-0.647-0.567-0.558-2.192-0.891
									c2.451-0.113,0.416-0.602,1.921-1.138c-1.207-0.936-2.295-0.241-1.549-1.269C38.726,199.774,37.857,200.688,37.857,200.688z
									 M42.096,176.239c-0.014,0-0.023,0-0.028,0c-0.033,0.211-0.061,0.39-0.079,0.505
									C42.011,176.638,42.042,176.493,42.096,176.239z M42.118,174.184c0.055,0.25,0.064,0.562,0.055,0.891
									c0.486,0.072,0.985-0.005,0.959-0.212C42.809,174.975,42.528,174.491,42.118,174.184z M51.857,178.533
									c0.199-0.325-0.077-0.434-0.365-0.479c-0.024,0.154-0.071,0.333-0.168,0.569c-0.047,0.011-0.121,0.027-0.172,0.038
									C51.421,178.63,51.672,178.595,51.857,178.533z"/>
								<path fill="#202020" d="M50.015,179.117c-0.032,0.047-0.091,0.073-0.104,0.134c-0.123-0.066-0.229-0.13-0.315-0.194
									c0.15-0.04,0.302-0.079,0.44-0.115C50.028,179.001,50.021,179.062,50.015,179.117z"/>
								<path fill="#202020" d="M119.929,182.64l-0.031-0.043c0.056,0.036,0.111,0.069,0.2,0.091
									C120.029,182.659,119.985,182.659,119.929,182.64z"/>
								<polygon fill="#202020" points="39.432,145.811 39.785,145.814 39.476,145.994 								"/>
								<path fill="#202020" d="M124.753,193.958c0.124,0.021,0.252,0.064,0.36,0.148
									C125.021,194.1,124.893,194.036,124.753,193.958z"/>
								<path fill="#202020" d="M125.068,198.846l0.5,0.691C125.284,199.238,125.148,199.02,125.068,198.846z"/>
								<path fill="#202020" d="M125.766,202.604c-0.247,0.048-0.433,0.062-0.603,0.073c-0.005-0.002-0.005-0.005-0.011-0.007
									L125.766,202.604z"/>
								<path fill="#202020" d="M127.417,142.85c0.007-0.05,0.025-0.1,0.063-0.145C127.753,142.365,127.646,142.597,127.417,142.85z
									"/>
								<path fill="#202020" d="M124.133,160.631c0.256-0.189,0.506-0.375,0.664-0.571
									C124.904,160.376,124.933,160.622,124.133,160.631z"/>
								<path fill="#202020" d="M123.366,118.893c-0.004,0.009-0.009,0.008-0.015,0.02c-0.05-0.057-0.101-0.101-0.153-0.154
									L123.366,118.893z"/>
								<path fill="#202020" d="M124.772,159.232c0.28,0.317,0.22,0.582,0.024,0.827C124.703,159.8,124.56,159.494,124.772,159.232z
									"/>
								<path fill="#202020" d="M126.402,218.893l0.059,0.181c-0.093-0.003-0.168,0.008-0.226,0.022L126.402,218.893z"/>
								<path fill="#202020" d="M126.235,219.096l-0.166,0.201C126.069,219.205,126.08,219.125,126.235,219.096z"/>
								<path fill="#202020" d="M125.715,219.72l0.354-0.423C126.073,219.443,126.117,219.624,125.715,219.72z"/>
								<path fill="#202020" d="M125.753,213.918l0.511-0.057C126.158,213.892,125.993,213.912,125.753,213.918z"/>
								<path fill="#202020" d="M125.9,212.406c0.116,0.361,1.088,0.905,0.769,1.408l-0.405,0.047
									C127.021,213.625,125.041,212.749,125.9,212.406z"/>
								<path fill="#202020" d="M119.601,206.095l0.408,1.267c-0.544-0.221-1.273-0.513-1.404,0.063
									C116.984,205.828,119.819,207.754,119.601,206.095z"/>
								<path fill="#202020" d="M118.813,202.166c-0.253,0.68-0.789-0.008-1.095,0.028
									C118.213,201.762,118.339,201.657,118.813,202.166z"/>
								<path fill="#202020" d="M118.809,173.776l-1.279,0.067C117.714,173.319,118.024,173.839,118.809,173.776z"/>
								<polygon fill="#202020" points="125.419,168.352 126.213,168.863 125.041,169.105 								"/>
								<polygon fill="#202020" points="116.309,165.141 116.125,165.371 116.589,164.495 								"/>
								<path fill="#202020" d="M112.602,126.621l0.375-1.535C113.163,125.402,112.798,127.135,112.602,126.621z"/>
								<path fill="#202020" d="M92.95,124.911c-0.221,0.788-0.798,1.294-1.158,0.521C92.255,125.323,92.713,124.708,92.95,124.911z
									"/>
								<polygon fill="#202020" points="52.063,140.357 52.591,139.944 52.151,140.724 								"/>
							</g>
						</g>
					</g>
				</g>
			</g>
			<g>
				<g>
					<g>
						<g>
							<g>
								<path fill="#202020" d="M399.916,227.196c0.226-0.421,0.142-1.403-0.44-1.229l-0.468,1.641L399.916,227.196z"/>
								<path fill="#202020" d="M396.128,224.008c-0.704,0.792-1.496,2.19-1.089,3.716c0.689-1.579,0.831-0.92,1.604-2.792
									c0.585-0.173,0.994,0.564,0.878,1.17c0.217-0.417,0.884,0.394,1.229-0.634c-0.708-1.303-1.671-1.396-2.69-0.36
									C395.855,224.742,396.071,224.313,396.128,224.008z"/>
								<path fill="#202020" d="M339.381,221.775l0.369,0.191C339.647,221.859,339.521,221.801,339.381,221.775z"/>
								<path fill="#202020" d="M304.308,221.02c0.268-0.035,0.381-0.198,0.396-0.348
									C304.454,220.777,304.25,220.875,304.308,221.02z"/>
								<path fill="#202020" d="M298.356,219.11c0.127,0.055,0.234,0.079,0.35,0.118
									C298.575,219.073,298.441,218.987,298.356,219.11z"/>
								<path fill="#202020" d="M339.381,221.775l-0.948-0.506C338.378,221.809,338.921,221.662,339.381,221.775z"/>
								<path fill="#202020" d="M388.555,228.081c0.179-0.094,0.322-0.259,0.453-0.469c-0.147,0.082-0.29,0.152-0.438,0.208
									C388.564,227.905,388.561,227.978,388.555,228.081z"/>
								<path fill="#202020" d="M354.884,220.056l0.297-0.001c0.086-0.188,0.165-0.416,0.241-0.671L354.884,220.056z"/>
								<path fill="#202020" d="M367.104,220.363c-0.252-0.081-0.451,1.313-0.602,1.917c0.194-0.565,0.408-0.826,0.645-0.917
									C367.171,221.098,367.161,220.776,367.104,220.363z"/>
								<path fill="#202020" d="M385.507,222.593l0.323-0.219C385.747,222.441,385.603,222.508,385.507,222.593z"/>
								<path fill="#202020" d="M346.299,220.008c-0.026-0.208-0.074-0.39-0.123-0.499
									C346.182,219.686,346.229,219.852,346.299,220.008z"/>
								<path fill="#202020" d="M13.719,231.224c0.011-0.1-0.002-0.164,0.003-0.25C13.65,231.114,13.627,231.213,13.719,231.224z"/>
								<path fill="#202020" d="M0.036,224.105l0.191-0.075c0.019-0.266,0.039-0.527,0.037-0.787L0.036,224.105z"/>
								<path fill="#202020" d="M287.479,217.145c0.021,0.017,0.028,0.017,0.048,0.028
									C287.816,217.023,287.653,217.046,287.479,217.145z"/>
								<path fill="#202020" d="M186.542,218.411c1.121,1.272-1.874,1.587-0.18,3.005
									C186.211,220.865,187.948,219.248,186.542,218.411z"/>
								<path fill="#202020" d="M388.257,227.917c-0.148,0.027-0.3,0.05-0.453,0.048
									C388.014,227.995,388.152,227.979,388.257,227.917z"/>
								<path fill="#202020" d="M186.362,221.417c0,0.006,0,0.012,0,0.012l0.175,0.134
									C186.465,221.502,186.424,221.468,186.362,221.417z"/>
								<path fill="#202020" d="M261.781,218.499c0.058,0.246,0.16,0.432,0.267,0.608
									C262.034,218.963,261.972,218.789,261.781,218.499z"/>
								<path fill="#202020" d="M280.93,219.776l-0.47-0.202C280.645,219.708,280.796,219.757,280.93,219.776z"/>
								<path fill="#202020" d="M252.434,220.38c-0.237-0.126-0.308-0.326-0.65-0.165c0.025,0.074,0.053,0.126,0.089,0.18
									C252.005,220.212,252.17,220.136,252.434,220.38z"/>
								<path fill="#202020" d="M242.114,219.719c0.054,0.108,0.126,0.188,0.188,0.284c0.105-0.023,0.229-0.05,0.338-0.074
									L242.114,219.719z"/>
								<path fill="#202020" d="M44.599,229.455c-0.189-0.403-0.307-0.843-0.398-1.278C44.318,229.18,42.969,229.486,44.599,229.455
									z"/>
								<path fill="#202020" d="M388.505,227.292c-0.036,0.358-0.107,0.539-0.248,0.625c0.108-0.024,0.212-0.06,0.313-0.099
									C388.585,227.608,388.58,227.41,388.505,227.292z"/>
								<path fill="#202020" d="M251.343,231.416l-1.709-0.339C250.104,231.25,250.728,231.369,251.343,231.416z"/>
								<path fill="#202020" d="M117.859,229.501l-0.36,0.164C117.639,229.699,117.766,229.66,117.859,229.501z"/>
								<path fill="#202020" d="M244.89,230.944c-0.223-0.511-0.481-0.816-0.757-1.023c-0.067,0.105-0.141,0.191-0.188,0.351
									L244.89,230.944z"/>
								<path fill="#202020" d="M44.198,228.161c0.003,0.006,0.002,0.016,0.002,0.016S44.201,228.167,44.198,228.161z"/>
								<path fill="#202020" d="M34.284,232.238c1.656-0.114,0.62-1.876,0.873-2.965c1.875-0.719,1.023,1.263,1.785,2.135
									c0.589-0.307,1.068-0.906,1.51-1.43c0.439-0.524,0.872-0.98,1.201-0.966c0.088,0.297,0.237,0.396,0.118,0.789
									c0.422-0.762,1.178-0.875,1.972-0.977c0.814-0.069,1.625-0.216,2.292-1.126c0.095,0.167,0.142,0.324,0.163,0.464
									c-0.193-0.932-0.217-1.874-0.16-2.541c0.661-0.008,1.283-1.121,1.486,0.094c-0.407-0.05-0.459,0.435-0.659,0.806l0.711-0.5
									c0.542,1.756-0.964,0.567-0.998,1.851c1.298-0.54,3.01-1.855,4.03-1.288c0.082,1.708-2.479,0.399-1.198,2.002l-1.549-0.748
									c1.028,2.718-0.911-0.219,0.006,2.681c2.003,0.623,2.325-0.718,4.47-0.038c0.568-0.899-0.045-1.404,0.523-2.304
									c3.292-1.439,2.189,4.473,4.84,2.344c0.699-1.091,0.988-3.234,2.749-2.09l-0.62,1.917c1.207,0.102,1.557-0.586,1.837-1.143
									c0.302-0.555,0.622-0.972,1.743-0.334c-0.381,0.757-1.65,0.649-1.325,0.875c1.463,1.504,0.991-1.097,2.098-1.105
									l0.257,1.698c2.24-0.285,4.707-1.533,7.205-1.863c-0.137,0.506-0.562,1.042,0.021,1.558
									c3.127-0.899,6.752,0.225,9.795,1.241l1.176-1.459c0.271,0.019,0.501,0.666,0.205,0.949c1.189,0.564,0.066-0.93,0.643-1.504
									c0.68-0.098,0.892,0.85,0.459,1.288c2.103-1.221,6.02-2.655,8.256-1.089l-0.436,0.436c1.744,0.594,1.959-3.01,3.573-1.643
									l-0.308,0.26c1.889,0.314,3.873,0.142,5.749,0.152c1.888-0.036,3.663,0.128,5.149,1.192c0.486-2.13,3.81,0.827,3.941-2.126
									c2.209,1.396,1.675,1.934,4.709,2.83c0.761,0.117,1.056-1.868,2.007-2.201l0.065,1.541l1.254-1.651l0.707,1.824
									c0,0,0.221-0.105,0.44-0.21c0.225-0.098,0.448-0.196,0.448-0.196c-0.362-0.102-0.759-0.683-0.711-1.129
									c1.414-0.71,3.457,1.109,3.469,1.892c0,0,0.84-0.315,1.68-0.631c0.842-0.317,1.716-0.606,1.716-0.606
									c-0.093,0.618-0.671,0.812-1.133,1.193c1.864-1.514,0.286,1.633,1.995,0.246c-0.214-0.356,0.147-0.914,0.194-1.224
									c0.817,0.957,2.673,1.026,4.14,0.678l-0.31,1.054c1.294,0.175,2.667,0.09,4.078-0.026c1.403-0.116,2.8-0.264,4.226-0.211
									c-1.004-0.525-0.719-2.359,0.124-2.511l0.285,1.636c0.57-0.988-0.854-0.639,0.292-1.837c1.063,0.22,0.658,1.872,0.029,2.385
									l1.338-0.53c0.064,0.487-0.256,0.736-0.357,1.354c0.574-0.998,2.282,1.691,3.114-0.045l0.067,0.486
									c1.456,0.06,2.619-0.117,3.653-0.268c1.052-0.169,2-0.305,3.275-0.408c-0.01-1.408,1.008-1.167,1.681-2.355
									c0.935,0.158,1.944,0.474,3.012,0.711c0.939,0.253,1.816,0.441,2.748,0.313c1.269-0.793,0.314-1.216,0.874-2.094
									c0.146,1.235,2.069,1.094,1.095,2.026c1.157-0.107,1.898-0.174,2.719-0.346c0.412-0.084,0.838-0.202,1.361-0.352
									c0.536-0.137,1.158-0.315,1.934-0.551c-0.318-0.535-0.69-0.775-0.484-1.206c0.568-0.192,1.262,0.577,1.162,1.189
									l-0.152,0.127c1.736-0.91,3.775,0.102,5.719,1.013c1.944,0.908,3.789,1.652,5.239,0.347l-0.161,0.129l2.963-1.348
									c1.343,0.241-0.83,0.95,0.151,1.757c3.205-2.09,4.994,0.382,7.622-1.003c1.971,3.807,7.156-0.163,9.862,2.288l-0.153-0.893
									c0.707-0.862,0.85,0.521,1.368,0.733c-0.071-0.692-0.761-0.811-0.322-1.288c2.981-0.457,6.052-0.204,9.151,0.313
									c3.098,0.515,6.223,1.264,9.291,1.621c2.244,0.206,1.193-4.621,4.047-2.538l-0.77,1.663c2.239-1.024,4.543-1.041,6.84-1.019
									c2.293,0.031,4.583,0.082,6.771-0.853c-0.251,0.39-0.242,0.885-0.675,0.894c0.487,0.583,1.355,0.568,2.097,0.284
									c0.732-0.282,1.313-0.827,1.31-1.317c0.67,0.092,0.182,0.88,0.605,1.366c0.916,0.682,2.231-1.597,2.736-0.417
									c0.085,0.193-0.247,0.397-0.41,0.495c0.597-0.613,2.634,0.153,2.104-1.243c1.534,0.667,2.996-0.624,4.135,0.31
									c0.886-1.492,2.483,0.906,2.941-1.259c-0.377,2.238,2.885,2.056,4.04,1.075c-0.414,0.654,0.91,0.781,0.422,1.692
									c1.27,0.09,2.447-0.347,2.272-1.501c1.1,1.382,2.3,0.868,3.335,0.445c1.041-0.406,1.928-0.786,2.604,0.927
									c1.869-0.677,3.643-1.159,5.35-1.732c1.687-0.551,3.401-1.033,4.925-1.405c0.019,0.564-0.143,0.868-0.466,1.057
									c-0.331,0.19-0.78,0.257-1.221,0.327c-0.882,0.139-1.73,0.289-1.572,1.464c3.238-1.192,4.468-3.199,7.343-2.833
									c0.744,0.303-0.394,0.976-0.601,1.397c2.778-1.01,5.451,0.145,8.121-0.984c-0.014,0.209-0.304,0.431-0.575,0.595
									c0.519-0.06,1.188,0.363,1.164-0.66l-0.513,0.263c-0.792-1.513,2.172-3.047,2.307-3.824
									c-1.002,2.905,2.631,0.831,1.078,4.492c0.357-0.182,0.812-0.652,0.753-1.34c0.512,0.218,0.665,0.624,0.114,1.385
									c1.924-0.492,1.277-1.597,2.997-1.549c-0.02,0.497-0.372,0.683-0.566,1.264c0.899-0.954,1.798-1.91,3.24-1.469
									c-0.095,0.298,0.063,0.689-0.369,0.676c2.503-0.114,4.31-2.515,7.024-1.541c-0.846,2.144,0.918,0.723,1.031,2.591
									l1.483-0.535l-0.577-0.914c1.291,0.05,2.448-1.293,3.547-0.666l-0.968,0.755l2.421-0.319l-1.358-0.728
									c1.314-0.943-0.11-2.364,1.596-1.819c-0.351,0.183,1.285,0.042,1.946,1.151c0,0-0.005,0-0.005,0.005
									c0.643-0.585,1.302-1.202,2.249-0.725c0.244,0.601-0.213,2.062-0.055,2.462c0.639-1.551,3.022-0.39,3.823-2.041
									c-0.266,0.387-0.283,1.367-0.196,1.567l0.531-1.26c0.596,0.414,0.683,0.612,0.584,1.392
									c1.795,0.258-0.566-2.376,1.562-1.325c-0.167,0.1-0.087,0.291-0.436,0.479c2.141,0.563,4.131-0.847,6.098-0.238
									c0.59,1.87-1.716,0.485-1.046,2.06c2.842-0.381,5.859-2.335,8.605-1.933l-0.514-0.2c0.346-2.657,2.059,1.28,3.43,0.01
									c-0.337,0.202-0.423,1.479-0.336,1.182c1.888,0.399,3.835-0.707,6.661-1.583l-0.338,0.688
									c1.12,0.592,2.925,0.308,4.128,0.601c0.338-0.685,1.025-0.585,0.584-1.568c3.786,3.862,7.002-2.306,10.296,0.867
									c-0.386,0.018-0.901,0.622-0.596,0.613c0,0,0.681-0.176,1.36-0.352c0.687-0.185,1.355-0.334,1.356-0.334
									c-0.229-1.152-0.36-0.711-0.956-1.59c0.337-0.705,1.109-1.222,1.799-1.221c-1.239,0.759,0.025,1.855,0.541,2.502
									c-0.087-0.354,0.095-0.744,0.052-1.104c1.404,2.063,0.264-2.323,2.214-0.929l-0.12,0.606
									c0.738-0.324,1.444-1.036,2.234-0.825c0.25,1.355-0.813,0.572-0.91,1.667c1.065-0.007,2.339-2.384,3.236-0.991
									c-0.504,0.34-1.176,0.303-1.667,0.642c0.957,1.635,1.095,1.244,1.859,1.542l-0.072-0.04l1.873,0.855l-0.462-0.462
									c1.73-3.374,2.986-0.38,5.029-2.569c-1.963,2.07-0.372,1.246-0.585,2.75c0.476,0.432,1.221,0.923,0.986,1.343
									c0.968-1.197,1.536,1.002,2.885-0.75c0.052,0.487,0.991,0.072,0.772,1.292c1.217-0.354-0.283-0.855-0.173-1.464
									c0.932-0.787,2.004-0.333,3.207,0.068c1.195,0.388,2.527,0.735,3.795-0.485c2.232-1.114,2.516-2.786,4.491-3.759
									c0.778,0.722-0.399,1.812-0.399,1.812c1.236,0.621,1.977,0.442,2.982-0.192c-0.18,0.439,0.063,0.783,0.403,1.306
									c0.8-0.173,0.445-1.839,1.574-1.146c-0.166,0.551-0.376,1.41-0.73,1.99c0.921-0.5,1.856-1.407,2.863-1.875
									c0.275,0.844-0.591,1.302-0.924,1.863c0.552-0.202,1.27-0.413,1.901-0.734c0.639-0.303,1.185-0.729,1.369-1.398
									l-0.735-0.491c0.422-0.06,0.208,1.158-0.1,1.399c-0.979,1.032-1.398-0.447-1.468-0.946l0.723-0.328
									c-0.375-1.422-1.128-1.292-1.942-0.823c-0.819,0.465-1.691,1.268-2.411,1.255l0.498-2.122c0,0-0.355,0.458-0.712,0.917
									c-0.345,0.458-0.69,0.916-0.69,0.916c-0.354-0.517-0.678-1.658,0.041-2.022c-1.162-0.944-0.885,0.806-1.917-0.268
									c-0.12-0.17-0.084-0.273,0.003-0.361l-0.973,0.695c0.16-0.451-0.309-1.449,0.346-1.198
									c-1.922-1.056-2.833,1.783-3.638,0.265l0.145-0.14c-2.507,0.881-0.14,1.583-2.002,3.443c0,0-0.366-0.932-0.733-1.865
									c-0.354-0.933-0.709-1.865-0.709-1.865l-0.204,1.531c-0.268-0.048-0.793-0.149-0.71-0.762
									c-0.961,1.07,0.184,0.659-0.37,1.66c-0.655-0.686-1.529-0.478-2.289-0.458c-0.759,0.013-1.394-0.101-1.515-1.321
									c-0.479,1.149,1.208,0.927-0.173,1.699c-0.329-2.625-1.593,0.407-2.725-0.822c0.419-1.34,1.474-0.598,0.373-1.832
									c-0.804,2.292-2.208-0.626-3.183-0.261c-0.194,1.811-2.134,0.587-3.887,1.076c0.176-0.578-3.15-1.253-4.745-1.917
									l0.055-0.305c-0.354,1.834-1.973,1.479-3.157,1.854c0.038-1.1,0.248-1.532,0.902-2.021l-1.135,0.003
									c-0.262,0.588-0.611,0.889-1.321,1.125l0.253-1.38c-1.479,0.12-2.941,1.698-4.847,0.843
									c-0.063,1.284,1.617,3.511-0.335,4.435c-0.098-0.689-0.211-1.87,0.296-2.171c-0.166,0.095-0.585,0.596-0.937,0.313
									l0.75-1.191c-0.868-0.481-0.412,0.988-1.096,0.903c-0.02-0.988-0.527-0.687-0.455-1.473c0.17-0.102,0.606,0.388,0.854-0.009
									c-0.772-0.15-1.716-0.704-2.044-1.439c0.084,0.559,0.041,1.329-0.516,1.477c-1.448,0.114-0.531-1.174-1.391-1.664
									c-0.333,0.689-1.277-0.007-1.263,1.468c-0.425-0.001-0.521-0.688-0.695-1.086c-0.734,0.662-3.503,0.237-2.62,1.794
									l0.195,0.101c-0.035,0.031-0.077,0.033-0.121,0.066c0.006,0,0,0,0.006,0h-0.006c-2.435,1.502-5.139-0.762-7.571-0.096
									l-0.003-0.493c-1.451,0.585-3.243,0.38-4.274,1.457c-0.432,0.005-1.029-0.888-0.851-1.478
									c-1.111,0.387-1.232,0.943-2.851,0.152c1.114-0.878-0.393-0.757,1.144-0.647c-1.452-0.405-1.784-1.191-3.331,0.181
									c0.521-1.273-1.098-1.578-1.783-1.19l1.018,0.891c-0.773,0.196-1.451,0.093-2.139-0.004l0.367-1.669
									c-2.956-1.951-5.343,3.454-7.588,0.036c-0.789,1.152,1.604,0.842,0.898,2.193c-1.364-0.245-2.769-2.653-3.193-2.664
									c-1.855-0.949-1.76,2.405-3.708,1.747c0.243,0.596,0.465,2.184-1.006,2.721c-1.366-0.239-1.647-2.513-0.781-2.977
									c0.328-0.045,0.483,0.146,0.468,0.346c0.443-0.209,1.023-0.455,0.491-1.106l-0.184,0.591
									c-0.67-0.615-2.544-0.579-2.091-1.546c-1.037,0.552-0.454,0.968,0.305,1.286c-1.735-0.884-2.73-0.065-4.52-0.668
									c0.28,0.331,0.531,1.032,0.247,1.021c-2.626-0.772-1.184,1.109-2.98,1.343c-0.998-0.919,0.409-2.154-1.407-1.422
									c-1.086-0.628-0.197-1.578,0.249-2.055c-1.664,1.12-3.042-0.795-3.97-1.019l0.873-0.466
									c-0.521,0.277-0.943,0.262-1.373,0.254l0.461,1.193c-0.5-0.214-0.929-0.226-0.906-0.719
									c-0.543,0.77,0.348,1.979-0.719,3.027c-0.66-0.605-2.079,0.61-2.264-0.979c2.104,0.603-0.189-1.576,1.613-1.793
									c-0.353,0.185-0.774,0.17-1.273-0.06c-0.07-0.178,0.081-0.323,0.222-0.409c-1.977-1.478-0.983,1.748-3.082,1.638
									c0.296-0.877-0.428-1.699-0.775-1.522c0.842,0.048,0.354,1.494-0.452,2.146c-1.361-0.73-1.521,0.47-2.239,0.369l0.815,0.35
									c-0.306,0.877-0.989,0.742-1.954,0.994c-0.066-0.693,0.882-0.45,0.547-0.765c-0.552,0.764-1.142,0.344-1.789-0.143
									c-0.657-0.467-1.39-0.993-2.151-0.464c-0.713-0.598-0.078-1.667-0.712-2.071c-1.713,1.159-1.913-1.229-3.785-0.144
									c0.611,1.156,0.668,0.859-0.558,2.104c0,0,0.746-0.258,1.492-0.517c0.757-0.275,1.495-0.478,1.495-0.478
									c0,0-0.464,0.419-0.935,0.89c-0.464,0.464-0.927,0.928-0.927,0.928c0.449-0.018,0.919-0.244,1.343-0.424
									c0.419-0.167,0.798-0.31,1.066-0.209c-0.881,0.978-0.787,0.68-0.345,1.668c-0.618-0.905-1.226-0.607-1.836-0.229
									c-0.613,0.374-1.225,0.82-1.97,0.263l-0.18-2.949c-0.575-0.292-1.106-0.326-1.617-0.222
									c-0.534,0.104-0.891,0.343-1.355,0.603c-0.885,0.52-1.861,1.118-3.146,0.846l0.845,0.45
									c-0.265,1.183-1.557,0.32-2.359,0.788c0.032-0.989-0.497-1.333-0.866-1.939c0.065,0.731-1.835-0.021-2.035,1.957
									l-1.148-1.271c-2.022-0.534-2.367,2.765-4.38,2.39c0.638-1.057-0.232-1.778,1.107-2.513
									c-0.654-0.026-1.233-0.222-1.272,0.462c-0.179-0.314-0.646,0.007-1.146,0.287c-0.497,0.255-1.027,0.467-1.301-0.024
									c-0.305,0.411-0.466,1.436-1.209,1.296c-0.066-0.206,0.039-0.487,0.039-0.487c-0.037,0.487-1.226,0.572-0.656,1.711
									c-0.913-1.615-2.304-1.67-3.858-1.656c-1.507,0.03-2.968,0.041-3.885-1.257c-1.556,0.333-3.433,0.606-4.804,0.722
									c0.082-0.298-0.006-0.492,0.258-0.397c-1.924-0.863-1.101,2.866-3.272,1.904c-1.153-1.563,1.116-0.896,0.411-1.479
									c-0.42-3.242-2.582,0.522-4.057-1.32l0.338-0.204c-1.119-1.061-2.616,1.327-4.412,1.108c0,0,0.079-0.288-0.002-0.49
									c-1.176,1.673-3.479,2.254-5.19,2.739c0.509-1.278,0.767-0.684,0.412-1.97c-0.767,0.194,0.271,2.07-1.261,2.454
									c-0.516-0.688-1.639-1.28-1.811-2.656l1.447-0.095c-0.777-1.772-1.874,0.088-2.644-0.211l0.084-0.78
									c-2.214,0.285-2.216,2.249-4.608,2.143l0.256,0.586c-1.283,1.964-1.109-1.078-2.396,0.387l-0.415-1.968
									c-0.855,0.488-3,1.951-4.546,2.345c0.868-1.477,2.669-2.25,3.777-3.136c-0.853-0.002-2.896,0.187-3.335,1.167
									c0.344-0.195,0.773-0.685,1.115-0.386c-1.035,1.567-2.413,2.35-4.117,2.34c0.291-3.825-4.441-0.891-5.669-3.922
									c-3.01,1.372-5.955-0.69-9.451-0.514c1.206,2.994-1.022,0.069-0.846,3.13c-0.82,0.183-1.131,0.128-1.201-0.071l-2.446-1.862
									c-0.571-0.898,0.786-0.662,0.722-1.35c-1.779-0.26-0.727-1.306-1.891-2.135c0.223,1.097-0.647,1.557-1.655,1.125l1.405,1.43
									c-2.526,1.591-2.104-2.597-4.647-1.021l0.815-0.95c-1.301,0.549-4.745-0.088-6.077,2.349
									c-0.219-0.356-0.496-1.196,0.077-1.409c-1.54-0.193-3.244,0.364-4.886,0.825c-1.642,0.451-3.271,0.773-4.473-0.023
									l0.259-0.739c-0.608,0.205-1.044,1.356-1.805,0.613c0.043-0.309,0.259-0.747-0.026-0.79
									c-0.337,0.259-1.639,1.316-2.451,0.885l0.689-0.845c-1.619-0.483-2.859,0.019-4.034,0.833
									c-1.162,0.781-2.196,1.744-3.503,2.097c-0.264-2.186-2.467-2.751-3.531-3.028l0.019-0.313
									c-0.391-0.005-0.764,0.026-1.125,0.087c-0.375,0.043-0.746,0.104-1.104,0.194c-0.718,0.178-1.404,0.448-2.089,0.753
									c-1.35,0.634-2.79,1.315-4.396,1.712c-1.845-2.425-6.904-1.203-10.004-2.636c0.479,0.414-0.131,1.712-0.711,1.915
									c-0.734-0.469-2.146,1.461-1.962-0.552l0.273,0.046c-0.513-1.997-2.119-1.522-3.354-1.615l-0.279,2.633
									c-1.538-1.988-3.752-1.638-5.717-1.266c-1.967,0.352-3.778,0.925-4.745-0.792c-0.785,0.682-1.813,0.702-2.547,1.382
									l-0.032-1.416c-2.117-0.298-3.167-0.444-5.748-0.029l0.493-1.027c-1.456-0.05-1.716,4.136-3.081,4.26l-0.46-2.1
									c-1.28,0.055-2.575-0.36-3.859-0.543c-1.299-0.219-2.587-0.203-3.858,0.756c0.04-0.31,0.112-0.92,0.529-1.006
									c-1.218-0.054-4.701-1.427-4.258,1.473c-0.032-1.889-2.665-0.182-4.069,0.651l0.224-1.393
									c-1.188,1.78-1.228,2.272-2.891,2.752c-0.393-0.185-0.338-1.118,0.183-0.758c-1.307-0.738-1.029,1.313-2.614,0.561
									l0.598-0.886c-1.349-0.116-1.244,0.362-1.992,1.395c-0.85,0.554-2.556-0.368-2.75-1.629
									c-0.186,0.767-0.928,1.79-1.721,1.421c-0.105-0.477,0.186-0.771,0.331-0.914c-2.255-0.956-3.353,1.583-4.911,0.235
									c-0.032-0.461-0.134-0.691-0.264-0.829c1.811,0.01,3.241,0.119,3.109,0.212c0.004-1.284-1.443-1.52-0.285-3.286
									c-1.161,0.949-3.174,3.077-4.594,2.483c-0.069-0.124-0.138-0.246-0.189-0.443l0.146-0.146
									c-0.329-0.125-0.623-0.003-0.899,0.215c-0.455-0.208-0.745-0.361-1.182-0.376c-0.176-1.062-1.683-0.56-2.412-0.605
									c0.076,1.404-0.878,1.187,0.027,2.339c-0.116-0.098,0.136-0.168,0.618-0.231c0.108-0.042,0.237-0.064,0.309-0.148
									c-0.015,0.036-0.031,0.079-0.049,0.124c0.477-0.044,1.1-0.081,1.807-0.108c-0.57,0.718-1.162,1.324-1.974,0.55
									c-0.363,0.906-0.761,1.838-0.985,2.276c-1.013-1.952-2.949-2.996-3.24-4.202c-0.553,0.202-1.155,0.337-1.77,0.469
									c-0.623,0.133-1.114,0.243-1.67,0.422c-1.058,0.378-2.132,0.88-2.869,2.172c-0.625,0.309-0.643-0.792-0.841-1.225
									c0.376-0.231,0.768-0.18,0.977-0.547c-1.216,0.618-3.601-0.007-4.064,1.808c-1.511-0.963,1.029-1.617-1.168-1.5l0.339-0.537
									c-2.025-1.652-4.013-0.593-5.926,0.433c-0.965,0.518-1.927,1.068-2.948,1.219c-1.013,0.208-2.19,0.086-3.503-0.738
									c0.339,0.198,0.521,0.288,0.637,0.588c-1.391-0.281-2.692-0.255-4.025-0.091c-1.321,0.178-2.671,0.372-4.011,0.604
									c-1.34,0.235-2.7,0.358-4.049,0.301c-1.347-0.051-2.687-0.319-4.003-0.989c-1.489-0.53-1.646,0.649-2.566,1.547
									l-0.315-1.509l-1.581,1.723c-2.248,1.25-3.795-3.751-6.666-1.395l0.348,1.023c-1.011-0.213-3.233,0.544-3.046-0.621
									c-0.107,0.184-0.352,1.052-0.742,0.516l-0.02-0.79l-2.524,1.316c-1.944-0.584,0.343-3.137-2.528-3.3
									c-1.074,0.301-3.028,2.292-2.623,2.822c0.428,0.04,1.093,0.496,1.126,1.287l-0.961,0.409
									c-0.166,2.328-0.861,4.71,1.454,6.342l1.616-1.419l0.514,1.13l-1.356,0.067c0.766,1.065,1.254,0.126,1.807-0.518
									c0.126,0.602,0.346,1.02,0.665,1.247l1.625-2.2c0.182,0.915-0.739,1.797,0.326,2.315c0.764-1.021-0.692-2.053,0.56-2.711
									c0.767,1.068,0.523,1.927,1.453,1.037c0.119,0.601-0.082,0.98-0.448,1.239c0.821-0.708,2.168-0.269,2.615-1.499
									c0.798,1.321,2.782-0.289,2.664,1.913c0.265-0.521,1.483-1.706,2.247-1.79c-1.43,2.621,2.852,0.19,2.458,3.014
									c1.043-2.348,3.785-1.055,5.617-2.37c-0.101,0.188-0.3,0.571-0.465,0.45c1.039,0.2,1.365,0.887,2.053,1.323
									c0.098-1.962,1.717-2.454,2.543-3.685c1.351,1.855-0.694,2.319-0.233,4.124c-0.117-1.578,2.191-1.654,1.693-2.968
									c1.044,1.109,0.877,0.516,1.479,2.108c0.035-2.458,0.908-0.47,1.633-2.022c1.52,1.108,0.534,2.287,2.071,1.406
									c0.413,0.335,0.284,0.755,0.046,1.092C34.626,231.995,34.284,232.238,34.284,232.238z M69.647,228.004
									c0,0.014,0,0.023,0,0.028c-0.309,0.036-0.57,0.066-0.738,0.085C69.063,228.094,69.276,228.062,69.647,228.004z
									 M72.656,227.963c-0.369-0.06-0.823-0.061-1.306-0.049c-0.105-0.485,0.009-0.985,0.313-0.962
									C71.499,227.279,72.205,227.547,72.656,227.963z M66.207,218.27c0.483-0.203,0.647,0.072,0.717,0.359
									c-0.229,0.026-0.496,0.076-0.847,0.175c-0.014,0.053-0.042,0.113-0.055,0.173C66.065,218.708,66.116,218.456,66.207,218.27z
									"/>
								<path fill="#202020" d="M65.354,220.12c-0.069,0.032-0.107,0.091-0.198,0.104c0.1,0.123,0.195,0.228,0.291,0.314
									c0.058-0.151,0.115-0.305,0.167-0.442C65.526,220.104,65.436,220.113,65.354,220.12z"/>
								<path fill="#202020" d="M339.814,221.998l-0.064-0.031c0.055,0.056,0.104,0.11,0.139,0.198
									C339.845,222.097,339.844,222.053,339.814,221.998z"/>
								<polygon fill="#202020" points="114.663,230.252 114.649,229.898 114.409,230.215 								"/>
								<path fill="#202020" d="M356.532,226.457c0.031,0.124,0.091,0.252,0.211,0.361
									C356.734,226.726,356.644,226.597,356.532,226.457z"/>
								<path fill="#202020" d="M363.431,227.064l0.988,0.577C363.996,227.324,363.664,227.159,363.431,227.064z"/>
								<path fill="#202020" d="M369.071,228.196c0.086-0.244,0.115-0.429,0.143-0.598c-0.004-0.005-0.008-0.005-0.011-0.011
									L369.071,228.196z"/>
								<path fill="#202020" d="M281.051,229.188c-0.072,0.005-0.145,0.021-0.21,0.058
									C280.344,229.503,280.68,229.406,281.051,229.188z"/>
								<path fill="#202020" d="M307.396,226.406c-0.281,0.251-0.559,0.498-0.851,0.652
									C307.013,227.172,307.376,227.205,307.396,226.406z"/>
								<path fill="#202020" d="M251.53,231.454c0.004-0.008,0.001-0.012,0.006-0.024c-0.067,0-0.126-0.01-0.193-0.015
									L251.53,231.454z"/>
								<path fill="#202020" d="M305.323,227.016c0.465,0.286,0.857,0.232,1.223,0.042
									C306.163,226.958,305.713,226.808,305.323,227.016z"/>
								<path fill="#202020" d="M393.234,228.087l0.258,0.063c-0.003-0.093,0.013-0.168,0.032-0.226L393.234,228.087z"/>
								<path fill="#202020" d="M393.524,227.924l0.289-0.162C393.681,227.761,393.566,227.77,393.524,227.924z"/>
								<path fill="#202020" d="M394.422,227.417l-0.608,0.345C394.022,227.77,394.28,227.817,394.422,227.417z"/>
								<path fill="#202020" d="M386.28,227.724l-0.029,0.514C386.283,228.13,386.295,227.964,386.28,227.724z"/>
								<path fill="#202020" d="M384.034,228.043c0.54,0.076,1.521,0.971,2.191,0.602l0.025-0.408
									C386.042,229.009,384.455,227.15,384.034,228.043z"/>
								<path fill="#202020" d="M374.415,222.168c0,0,0.456,0.11,0.914,0.194c0.458,0.09,0.916,0.18,0.916,0.18
									c-0.329-0.535-0.75-1.254,0.069-1.406C374.021,219.569,376.803,222.352,374.415,222.168z"/>
								<path fill="#202020" d="M368.805,221.205c0.981-0.177,0.031-0.788,0.103-1.09
									C368.271,220.561,368.108,220.674,368.805,221.205z"/>
								<path fill="#202020" d="M326.765,221.064l0.087-1.28C326.083,219.979,326.849,220.28,326.765,221.064z"/>
								<polygon fill="#202020" points="318.806,227.79 319.563,228.574 319.919,227.396 								"/>
								<polygon fill="#202020" points="314.085,218.677 314.422,218.499 313.138,218.944 								"/>
								<path fill="#202020" d="M244.075,218.544l0.176,1.59C244.814,219.887,245.038,218.128,244.075,218.544z"/>
								<path fill="#202020" d="M213.452,220.58c-0.34-0.783-1.195-1.277-1.709-0.496
									C212.423,220.183,213.108,220.787,213.452,220.58z"/>
								<polygon fill="#202020" points="122.693,217.622 123.324,217.114 122.138,217.527 								"/>
							</g>
						</g>
					</g>
				</g>
			</g>
			<g>
				<g>
					<g>
						<g>
							<g>
								<path fill="#202020" d="M234.981,223.5c0.43,0.202,1.406,0.088,1.213-0.47l-1.654-0.396L234.981,223.5z"/>
								<path fill="#202020" d="M238.047,219.749c-0.802-0.656-2.212-1.412-3.731-0.987c1.59,0.649,0.926,0.807,2.819,1.506
									c0.193,0.559-0.53,0.974-1.14,0.88c0.425,0.197-0.364,0.867,0.675,1.167c1.282-0.726,1.333-1.646,0.276-2.606
									C237.31,219.501,237.741,219.702,238.047,219.749z"/>
								<path fill="#202020" d="M240.627,165.225l-0.196,0.351C240.539,165.48,240.599,165.36,240.627,165.225z"/>
								<path fill="#202020" d="M241.535,131.443c0.039,0.257,0.204,0.365,0.354,0.378
									C241.78,131.582,241.68,131.386,241.535,131.443z"/>
								<path fill="#202020" d="M243.359,125.676c-0.053,0.124-0.076,0.228-0.112,0.34
									C243.399,125.886,243.483,125.755,243.359,125.676z"/>
								<path fill="#202020" d="M240.627,165.225l0.521-0.902C240.607,164.259,240.747,164.785,240.627,165.225z"/>
								<path fill="#202020" d="M234.056,212.23c0.08,0.189,0.234,0.346,0.434,0.49c-0.07-0.155-0.13-0.306-0.174-0.461
									C234.229,212.25,234.157,212.242,234.056,212.23z"/>
								<path fill="#202020" d="M241.969,180.117l0.003,0.274c0.188,0.081,0.416,0.156,0.672,0.228L241.969,180.117z"/>
								<path fill="#202020" d="M242.223,191.546c0.062-0.258-1.344-0.348-1.958-0.447c0.578,0.146,0.854,0.337,0.963,0.564
									C241.495,191.667,241.815,191.633,242.223,191.546z"/>
								<path fill="#202020" d="M239.749,209.668l0.195,0.321C239.884,209.906,239.828,209.765,239.749,209.668z"/>
								<path fill="#202020" d="M242.272,171.937c0.209-0.02,0.393-0.06,0.503-0.104
									C242.599,171.833,242.432,171.874,242.272,171.937z"/>
								<path fill="#202020" d="M168.733,210.252c-0.1-0.009-0.164,0.004-0.25,0.001C168.625,210.32,168.725,210.34,168.733,210.252
									z"/>
								<path fill="#202020" d="M161.771,223.5l-0.075-0.184c-0.267-0.02-0.527-0.04-0.788-0.04L161.771,223.5z"/>
								<path fill="#202020" d="M245.159,115.12c-0.016,0.021-0.016,0.028-0.026,0.047
									C245.293,115.445,245.265,115.288,245.159,115.12z"/>
								<path fill="#202020" d="M187.129,58.87c1.098,1.256-1.786,1.613-0.134,3.008C186.841,61.329,188.497,59.687,187.129,58.87z"
									/>
								<path fill="#202020" d="M234.239,211.934c-0.016-0.154-0.027-0.311-0.015-0.468
									C234.18,211.679,234.186,211.823,234.239,211.934z"/>
								<path fill="#202020" d="M186.995,61.878c0,0.006,0,0.012,0,0.012l0.171,0.132C187.096,61.962,187.056,61.929,186.995,61.878
									z"/>
								<path fill="#202020" d="M244.315,90.798c-0.248,0.05-0.437,0.147-0.615,0.248C243.844,91.038,244.02,90.982,244.315,90.798z
									"/>
								<path fill="#202020" d="M242.315,108.917l0.188-0.448C242.375,108.647,242.331,108.791,242.315,108.917z"/>
								<path fill="#202020" d="M242.331,81.391c0.107-0.244,0.302-0.327,0.113-0.66c-0.071,0.031-0.121,0.062-0.172,0.102
									C242.466,80.953,242.555,81.113,242.331,81.391z"/>
								<path fill="#202020" d="M241.171,70.397c-0.079,0.1-0.121,0.21-0.19,0.313c0.058,0.111,0.124,0.241,0.183,0.355
									C241.163,71.065,241.185,70.401,241.171,70.397z"/>
								<path fill="#202020" d="M168.063,180.494c-0.396,0.215-0.831,0.348-1.263,0.453
									C167.799,180.795,168.155,182.233,168.063,180.494z"/>
								<path fill="#202020" d="M234.845,212.225c-0.355-0.057-0.529-0.141-0.605-0.291c0.016,0.113,0.044,0.221,0.076,0.326
									C234.524,212.288,234.722,212.294,234.845,212.225z"/>
								<path fill="#202020" d="M231.244,80.992l0.207-1.556C231.314,79.871,231.244,80.437,231.244,80.992z"/>
								<path fill="#202020" d="M167.871,110.251l0.169,0.357C168.071,110.47,168.031,110.344,167.871,110.251z"/>
								<path fill="#202020" d="M231.071,75.741c0.463-0.243,0.715-0.483,0.869-0.724c-0.115-0.025-0.211-0.058-0.375-0.057
									L231.071,75.741z"/>
								<path fill="#202020" d="M166.784,180.949c0.006-0.003,0.016-0.003,0.016-0.003S166.79,180.946,166.784,180.949z"/>
								<path fill="#202020" d="M170.121,191.197c0.04-1.482-1.808-0.696-2.868-1.011c-0.523-1.77,1.36-0.819,2.306-1.421
									c-0.489-1.104-2.185-1.952-2.112-2.776c0.304-0.062,0.415-0.222,0.796-0.034c-1.469-1.168-0.071-3.467-1.916-4.828
									c0.164-0.101,0.318-0.152,0.458-0.178c-0.924,0.221-1.865,0.254-2.534,0.209c-0.032-0.665-1.167-1.233,0.04-1.484
									c-0.035,0.408,0.452,0.441,0.829,0.632l-0.524-0.696c1.735-0.627,0.6,0.95,1.886,0.95c-0.565-1.358-2.002-2.94-1.511-3.98
									c1.698-0.218,0.57,2.433,2.081,1.044l-0.649,1.61c2.68-1.23-0.188,0.978,2.68-0.152c0.492-2.119-0.865-2.37-0.369-4.483
									c-0.944-0.476-1.396,0.157-2.341-0.318c-1.694-3.004,4.271-2.365,2.009-4.573c-1.132-0.572-3.28-0.793-2.144-2.365
									l1.92,0.536c0.189-2.051-2.76-1.171-1.469-3.319c0.755,0.382,0.637,1.612,0.864,1.302c1.517-1.392-1.089-0.984-1.089-2.054
									l1.701-0.222c-0.268-2.184-1.496-4.589-1.806-7.008c0.505,0.134,1.037,0.548,1.558-0.018
									c-0.85-3.051,0.207-6.512,1.216-9.454l-1.467-1.124c0.018-0.261,0.663-0.485,0.947-0.202c0.557-1.146-0.93-0.059-1.508-0.61
									c-0.102-0.652,0.844-0.861,1.285-0.448c-1.244-2.023-2.68-5.764-1.107-7.895l0.436,0.416
									c0.597-1.66-3.007-1.874-1.639-3.413l0.26,0.295c0.637-3.603-0.706-7.584,1.51-10.333c-2.113-0.524,0.943-3.565-2.005-3.799
									c1.462-2.056,1.988-1.466,2.972-4.363c0.135-0.774-1.841-1.155-2.148-2.112l1.542-0.022l-1.617-1.3l1.843-0.689
									l-0.395-0.897c-0.091,0.357-0.692,0.759-1.136,0.704c-0.698-1.402,1.073-3.416,1.863-3.45l-1.303-3.317
									c0.62,0.074,0.832,0.63,1.228,1.069c-1.572-1.772,1.624-0.32,0.183-1.944c-0.35,0.217-0.918-0.118-1.229-0.155
									c0.932-0.808,0.94-2.648,0.548-4.01l1.063,0.263c0.27-2.459-0.51-5.186-0.489-7.946c-0.495,0.99-2.337,0.759-2.514-0.05
									l1.626-0.321c-1.004-0.524-0.613,0.844-1.845-0.23c0.188-1.031,1.853-0.69,2.383-0.098l-0.564-1.254
									c0.485-0.073,0.742,0.222,1.362,0.299c-1.012-0.516,1.635-2.162-0.121-2.906l0.484-0.069
									c0.014-2.759-0.546-4.012-0.628-6.26c-1.406-0.046-1.093-0.925-2.229-1.596c0.112-0.413,0.266-0.837,0.431-1.272
									c0.083-0.217,0.167-0.438,0.253-0.661c0.082-0.234,0.168-0.448,0.257-0.604c0.328-0.715,0.624-1.374,0.658-2.023
									c-0.526-1.006-1.124-0.468-1.864-1.076c1.281,0.164,1.457-0.967,2.184-0.117c0.035-0.324,0.098-0.522,0.117-0.746
									c0.055-0.165,0.055-0.369,0.076-0.538c0.049-0.356-0.038-0.757,0.178-1.586c-0.446-0.349-0.729-0.358-0.937-0.772
									c0.04-0.2,0.297-0.192,0.54-0.069c0.246,0.121,0.487,0.364,0.635,0.636l0.017,0.151c0.057-0.635,0.606-0.873,1.2-0.863
									c0.335,0.034,0.658,0.1,1.002,0.22c0.367,0.142,0.688,0.275,1.043,0.453c0.362,0.185,0.68,0.336,1.018,0.492
									c0.343,0.16,0.663,0.279,0.972,0.329c0.849,0.125,1.632-0.022,2.307-0.689l-0.151,0.132l2.8-1.39
									c1.288,0.221-0.772,0.962,0.181,1.754c3.021-2.136,4.772,0.311,7.261-1.112c1.925,3.778,6.832-0.265,9.431,2.148l-0.15-0.89
									c0.672-0.873,0.813,0.509,1.308,0.713c-0.07-0.691-0.729-0.8-0.311-1.283c5.69-1.07,11.743,1.303,17.576,2.107
									c2.133,0.238,1.215-4.604,3.902-2.479l-0.765,1.651c2.153-0.991,4.354-0.974,6.544-0.918l1.667,0.032
									c0.33-0.001,0.684-0.007,0.935-0.021c0.296-0.015,0.519-0.029,0.728-0.051c0.239-0.025,0.347-0.039,0.528-0.076
									c0.078-0.019,0.133-0.074,0.208-0.114c0.143-0.086,0.314-0.222,0.529-0.356c-0.196,0.344-0.33,0.797-0.408,0.787
									c-0.031,0.335-0.043,0.516,0.005,0.538c-0.05,0.03,0.454,0.008,0.702-0.131c0.305-0.139,0.647-0.378,0.842-0.667
									c0.186,0.282-0.435,0.782-0.597,1.283c-0.063,0.367,0.26,0.177,0.63,0.056c0.328-0.107,0.665-0.142,0.246,0.292
									c-0.136,0.137-0.35,0.184-0.453,0.221c0.567-0.268,0.318,0.722,1.431-0.1c-0.063,0.23-0.04,0.41,0.052,0.557
									c0.068,0.182,0.216,0.31,0.335,0.489c0.244,0.341,0.459,0.758,0.13,1.246c0.81,0.143,0.702,0.68,0.638,1.159
									c-0.062,0.482-0.066,0.919,1.038,0.972c-1.136,0.021-1.559,0.6-1.591,1.323c-0.028,0.674,0.339,1.745,0.874,2.217
									c-0.684-0.335-0.709,0.87-1.655,0.478c0.031,1.142,0.451,2.188,1.613,1.989c-2.706,2.103,2.178,4.228-1.29,5.412
									c1.216,3.392,2.037,6.531,2.568,9.581c-2.256-0.11-0.226-3.372-2.593-3.242c0.929,2.895,2.865,4.564,2.32,7.434
									c-0.309,0.743-0.978-0.422-1.363-0.673c0.929,2.891-0.205,5.591,1.022,8.164c-0.209-0.007-0.439-0.285-0.611-0.547
									c0.074,0.508-0.328,1.179,0.693,1.122l-0.277-0.494c1.488-0.81,3.108,2.014,3.895,2.104
									c-2.938-0.861-0.738,2.542-4.452,1.174c0.194,0.334,0.681,0.752,1.366,0.676c-0.2,0.495-0.601,0.652-1.381,0.15
									c0.559,1.816,1.648,1.171,1.625,2.817c-0.497-0.006-0.688-0.338-1.271-0.508c0.967,0.833,1.936,1.67,1.516,3.061
									c-0.299-0.084-0.688,0.077-0.682-0.337c0.15,2.388,2.577,4.07,1.643,6.69c-2.156-0.773-0.709,0.891-2.576,1.03l0.557,1.409
									l0.906-0.565c-0.032,1.234,1.328,2.325,0.717,3.385l-0.77-0.917l0.354,2.313l0.709-1.309
									c0.961,1.249,2.361-0.134,1.842,1.509c-0.188-0.334-0.023,1.234-1.123,1.877c0,0,0-0.004-0.005-0.004
									c0.595,0.61,1.221,1.238,0.757,2.151c-0.598,0.237-2.064-0.191-2.463-0.037c1.561,0.603,0.434,2.89,2.097,3.653
									c-0.391-0.254-1.371-0.268-1.57-0.184l1.268,0.505c-0.405,0.572-0.603,0.655-1.384,0.563
									c-0.231,1.719,2.369-0.546,1.348,1.495c-0.102-0.16-0.291-0.083-0.484-0.417c-0.532,2.05,0.805,3.96,0.181,5.844
									c-1.878,0.555-0.46-1.646-2.044-1.01c0.34,2.716,2.25,5.624,1.809,8.251l0.207-0.49c2.651,0.365-1.31,1.958-0.06,3.287
									c-0.196-0.326-1.472-0.427-1.177-0.339c-0.426,1.8,0.652,3.68,1.487,6.407l-0.683-0.338
									c-0.607,1.061-0.351,2.793-0.66,3.938c0.68,0.34,0.57,0.996,1.56,0.598c-3.879,3.532,2.08,6.738-1.152,9.873
									c-0.007-0.375-0.596-0.893-0.596-0.595l0.625,2.67c1.155-0.211,0.7-0.35,1.6-0.911c0.685,0.338,1.216,1.091,1.216,1.753
									c-0.766-1.201-1.855,0.01-2.5,0.529c0.354-0.086,0.744,0.091,1.104,0.047c-2.056,1.395,2.324,0.234,0.94,2.138l-0.607-0.101
									c0.311,0.713,1.112,1.369,0.939,2.138c-1.337,0.318-0.624-0.759-1.725-0.808c0.077,1.079,2.532,2.129,1.2,3.107
									c-0.372-0.458-0.378-1.118-0.748-1.577c-1.569,1.064-1.171,1.188-1.42,1.978l0.036-0.078l-0.711,1.828l0.425-0.465
									c3.485,1.351,0.638,2.75,2.92,4.57c-2.161-1.769-1.25-0.292-2.765-0.428c-0.42,0.464-0.892,1.171-1.317,0.97
									c1.222,0.86-0.962,1.436,0.824,2.649c-0.486,0.054-0.048,0.92-1.272,0.726c0.384,1.118,0.849-0.265,1.46-0.17
									c1.667,1.723-2.021,4.051,0.267,6.53c0.939,2.138,2.584,2.533,3.402,4.517c-0.779,0.669-1.775-0.548-1.775-0.548
									c-0.718,1.08-0.586,1.893-0.028,2.911c-0.425-0.206-0.784,0.006-1.331,0.317c0.127,0.816,1.774,0.546,1.056,1.623
									c-0.544-0.185-1.414-0.421-1.96-0.815c0.449,0.962,1.36,1.913,1.8,2.91c-0.85,0.264-1.289-0.602-1.843-0.953
									c0.382,1.12,0.769,2.901,2.113,3.248l0.48-0.719c0.065,0.409-1.155,0.21-1.4-0.091c-1.055-0.959,0.465-1.384,0.956-1.438
									l0.313,0.709c2.86-0.729-0.459-2.851-0.293-4.279l2.079,0.595l-1.726-1.465c0.541-0.311,1.703-0.524,2.015,0.181
									c1.026-1.024-0.74-0.907,0.406-1.787c0.178-0.097,0.278-0.053,0.359,0.037l-0.618-1.001
									c0.437,0.196,1.468-0.166,1.168,0.448c1.2-1.796-1.56-2.896,0.016-3.572l0.128,0.15c-0.703-2.492-1.527-0.241-3.318-2.11
									l3.766-1.258l-1.525-0.245c0.055-0.257,0.169-0.766,0.779-0.672c-1.045-0.957-0.664,0.163-1.65-0.392
									c1.391-1.237-0.65-3.412,1.782-3.691c-1.161-0.444-0.896,1.183-1.702-0.138c2.615-0.377-0.448-1.527,0.752-2.658
									c1.35,0.347,0.635,1.418,1.84,0.287c-2.282-0.682,0.5-2.201,0.063-3.154c-1.816-0.045-0.758-2.074-1.362-3.674
									c0.609,0.101,0.997-3.011,1.654-4.5l0.306,0.044c-1.836-0.288-1.49-1.823-1.871-2.941c1.101,0.044,1.533,0.245,2.025,0.851
									l-0.008-1.051c-0.589-0.248-0.898-0.576-1.109-1.258l1.373,0.265c-0.076-1.399-1.617-2.817-0.7-4.617
									c-1.28-0.102-3.565,1.431-4.42-0.472c0.692-0.07,1.876-0.141,2.159,0.357c-0.089-0.163-0.574-0.582-0.279-0.911l1.164,0.761
									c0.512-0.82-0.973-0.429-0.863-1.084c0.987,0.013,0.704-0.485,1.487-0.391c0.096,0.168-0.409,0.572-0.021,0.823
									c0.177-0.739,0.763-1.633,1.51-1.928c-0.562,0.064-1.329,0-1.457-0.541c-0.072-1.399,1.188-0.479,1.694-1.294
									c-0.685-0.339,0.025-1.231-1.45-1.255c0.007-0.41,0.695-0.485,1.096-0.643c-0.651-0.724-0.187-3.382-1.756-2.566
									l-0.104,0.186c-0.03-0.035-0.031-0.075-0.064-0.118c0,0.006,0,0,0,0.006v-0.006c-1.468-2.373,0.836-4.929,0.205-7.284
									l0.493,0.004c-0.564-1.406-0.333-3.128-1.396-4.132c0.001-0.416,0.902-0.981,1.489-0.803
									c-0.371-1.074-0.925-1.195-0.111-2.747c0.862,1.08,0.764-0.373,0.632,1.107c0.426-1.396,1.217-1.712-0.134-3.211
									c1.267,0.511,1.594-1.05,1.217-1.714l-0.906,0.978c-0.185-0.747-0.072-1.399,0.035-2.062l1.664,0.358
									c2.023-2.856-3.443-5.152-0.057-7.326c-1.163-0.756-0.818,1.552-2.18,0.875c0.225-1.314,2.612-2.683,2.617-3.094
									c0.922-1.8-2.431-1.68-1.801-3.563c-0.592,0.241-2.176,0.469-2.735-0.939c0.22-1.315,2.489-1.616,2.965-0.786
									c0.05,0.315-0.139,0.467-0.339,0.454c0.216,0.425,0.47,0.982,1.113,0.461l-0.594-0.17c0.605-0.652,0.542-2.461,1.517-2.037
									c-0.566-0.994-0.975-0.425-1.282,0.311c0.859-1.687,0.025-2.635,0.604-4.371c-0.327,0.276-1.024,0.53-1.019,0.255
									c0.735-2.546-1.125-1.121-1.386-2.847c0.905-0.98,2.16,0.352,1.402-1.385c0.612-1.061,1.574-0.225,2.058,0.197
									c-1.144-1.583,0.752-2.957,0.962-3.86l0.479,0.833c-0.284-0.499-0.275-0.907-0.273-1.322l-1.187,0.476
									c0.206-0.489,0.212-0.903,0.706-0.894c-0.778-0.504-1.975,0.386-3.037-0.615c0.603-0.652-0.647-1.987,0.928-2.212
									c-0.535,2.052,1.582-0.227,1.836,1.51c-0.188-0.335-0.182-0.743,0.027-1.234c0.176-0.073,0.326,0.07,0.416,0.203
									c1.408-1.963-1.78-0.902-1.744-2.937c0.888,0.258,1.684-0.472,1.494-0.804c-0.018,0.82-1.48,0.392-2.16-0.36
									c0.69-1.305-0.514-1.418-0.434-2.101l-0.326,0.78c-0.886-0.264-0.77-0.917-1.05-1.827c0.691-0.077,0.476,0.826,0.78,0.501
									c-1.561-1.01,1.615-2.282,0.564-3.69c0.602-0.652,1.667-0.063,2.074-0.636c-1.15-1.579,1.217-1.709,0.266-3.368
									c-1.193,0.478-0.901,0.562-2.064-0.606l0.84,2.727l-1.734-1.75c-0.018,0.823,0.75,1.736,0.547,2.229
									c-0.973-0.834-0.677-0.749-1.666-0.354c1.789-1.126-1.043-2.233,0.166-3.535l2.953,0.04
									c1.316-1.957-1.516-3.478-0.772-6.019l-0.514,0.817c-1.175-0.341-0.163-1.569-0.64-2.392
									c0.987,0.077,1.346-0.438,1.961-0.789c-0.732,0.042,0.066-1.86-1.904-2.091l1.3-1.134c0.532-2.052-2.813-2.342-2.478-4.314
									c1.073,0.594,1.773-0.302,2.541,1.019c0.01-0.659,0.19-1.251-0.494-1.261c0.618-0.385-1.33-1.827-0.393-2.432
									c-0.434-0.278-1.467-0.369-1.385-1.108c0.199-0.081,0.488,0.003,0.488,0.003c-0.488,0-0.666-1.164-1.757-0.512
									c1.536-1.028,1.462-2.577,1.189-4.093c-0.267-1.54-0.743-2.945,0.172-4.414c-0.856-1.672-2.287-3.541-3.511-4.729
									c0.293-0.116,0.369-0.325,0.515-0.009c-0.471-1.24-1.305-0.963-2.026-0.691c-0.748,0.26-1.428,0.586-2.106-0.474
									c-0.104-0.985,0.263-1.021,0.657-0.895c0.387,0.116,0.744,0.445,0.58-0.054c0.537-1.021,0.298-1.501-0.243-1.789
									c-0.569-0.325-1.294-0.271-2.152-0.538c-0.72-0.176-1.364-0.442-1.883-1.128l0.553-0.069
									c-0.651-0.754-1.897-0.588-2.913-0.196c-0.968,0.392-1.793,0.967-2.506,0.85c0,0,0.074-0.288,0.012-0.491
									c-1.18,1.656-3.409,2.204-5.066,2.664c0.518-1.271,0.754-0.672,0.44-1.964c-0.742,0.183,0.216,2.074-1.267,2.435
									c-0.48-0.696-1.549-1.304-1.689-2.682l1.397-0.074c-0.714-1.784-1.81,0.061-2.546-0.25l0.095-0.778
									c-2.142,0.252-2.173,2.216-4.476,2.075l0.237,0.59c-1.26,1.945-1.054-1.094-2.31,0.352l-0.379-1.974
									c-0.83,0.476-2.909,1.907-4.398,2.278c0.845-1.463,2.587-2.211,3.666-3.08c-0.823-0.015-2.797,0.145-3.227,1.119
									c0.332-0.19,0.75-0.674,1.078-0.37c-1.012,1.551-2.34,2.314-3.979,2.279c0.292-3.826-4.274-0.965-5.462-3.937
									c-2.902,1.414-5.756-0.605-9.136-0.379c1.198,2.977-0.986,0.084-0.779,3.142c-0.787,0.194-1.087,0.144-1.158-0.054
									l-2.385-1.827c-0.565-0.89,0.748-0.674,0.676-1.36c-1.724-0.235-0.723-1.295-1.864-2.108
									c0.234,1.094-0.599,1.566-1.581,1.148l1.384,1.411c-2.408,1.626-2.083-2.566-4.511-0.956l0.768-0.961
									c-0.623,0.284-1.771,0.278-2.918,0.509c-0.573,0.116-1.145,0.29-1.65,0.589c-0.453,0.292-1.104,0.743-1.421,1.365
									c-0.274-0.344-0.69-1.167-0.003-1.411c-1.9-0.125-4.111,0.776-6.111,1.966c-2.038,1.189-3.726,2.636-5.579,3.369
									c0,0-0.057-0.2-0.114-0.399c-0.053-0.203-0.106-0.405-0.106-0.405c-0.609,0.803-0.133,2.087-1.425,2.464
									c-0.216-0.231-0.366-0.757-0.661-0.433c-0.043,0.281-0.133,0.98-0.297,1.676c-0.126,0.703-0.315,1.411-0.749,1.826
									c0,0-0.099-0.299-0.173-0.613c-0.073-0.318-0.146-0.637-0.146-0.637c-1.512,1.904-1.452,3.787-1.008,5.268
									c0.201,0.769,0.515,1.463,0.799,2.14c0.258,0.689,0.535,1.335,0.641,2.039c-2.227,0.095-2.927,2.32-3.288,3.476
									l-0.312-0.041c-0.272,3.382,1.823,5.748,2.687,8.881c-2.39,1.941-1.001,6.584-2.342,9.707
									c0.399-0.477,1.715,0.08,1.936,0.636c-0.446,0.732,1.527,2.028-0.491,1.91l0.038-0.261c-1.979,0.55-1.454,2.058-1.508,3.234
									l2.64,0.197c-3.841,3.074,1.41,8.065-2.03,9.741c0.66,0.743,0.652,1.663,1.312,2.4l-1.416-0.041
									c-0.361,2.057-0.539,3.084-0.202,5.628l-1.012-0.52c-0.095,1.435,4.081,1.814,4.164,3.138l-2.113,0.397
									c0.032,2.502-1.823,5.035,0.093,7.509c-0.311-0.041-0.921-0.115-1.006-0.521c-0.056,1.179-1.432,4.557,1.469,4.13
									c-1.889,0.029-0.185,2.582,0.647,3.934l-1.393-0.21c1.779,1.141,2.267,1.178,2.759,2.771
									c-0.182,0.378-1.115,0.331-0.759-0.17c-0.73,1.258,1.319,0.98,0.577,2.506l-0.89-0.569
									c-0.108,1.294,0.369,1.191,1.407,1.904c0.559,0.814-0.353,2.456-1.612,2.646c0.768,0.175,1.796,0.883,1.432,1.646
									c-0.476,0.103-0.771-0.175-0.915-0.314c-0.949,2.165,1.619,3.218,0.251,4.707c-0.461,0.031-0.692,0.127-0.831,0.251
									c0.034-1.72,0.109-3.104,0.211-2.975c-1.284,0-1.51,1.389-3.283,0.284c0.968,1.115,3.072,3.021,2.468,4.375
									c-0.124,0.065-0.246,0.129-0.444,0.179l-0.144-0.14c-0.129,0.313-0.009,0.592,0.207,0.855
									c-0.211,0.432-0.367,0.707-0.386,1.121c-1.063,0.16-0.573,1.593-0.625,2.285c1.405-0.057,1.18,0.849,2.339,0
									c-0.099,0.11-0.167-0.131-0.226-0.591c-0.042-0.104-0.063-0.227-0.146-0.295c0.036,0.014,0.079,0.03,0.123,0.047
									c-0.04-0.454-0.071-1.047-0.094-1.722c0.714,0.547,1.314,1.119,0.535,1.885c0.903,0.355,1.832,0.747,2.268,0.967
									c-1.96,0.947-3.02,2.774-4.229,3.028c0.789,2.115,0.521,4.981,3.16,6.311c0.34,0.601-0.757,0.691-1.172,0.916
									c-0.265-0.347-0.225-0.759-0.604-0.947c0.677,1.202,0.263,3.561,2.107,3.848c-0.833,1.515-1.698-0.852-1.396,1.23
									l-0.564-0.281c-2.948,4.095,4.707,6.658,0.923,11.198c0.231-0.314,0.339-0.472,0.648-0.536
									c-1.67,5.176,1.563,10.667-1.084,15.775c-0.533,1.452,0.645,1.609,1.541,2.495l-1.511,0.314l1.742,1.515
									c1.274,2.148-3.706,3.721-1.294,6.44l1.017-0.352c-0.193,0.978,0.599,3.095-0.57,2.932c0.186,0.1,1.057,0.32,0.527,0.702
									l-0.79,0.03l1.354,2.399c-0.572,1.86-3.137-0.291-3.29,2.424c0.304,1.008,2.299,2.873,2.827,2.494
									c0.039-0.408,0.494-1.041,1.285-1.071l0.411,0.923c2.327,0.167,4.712,0.877,6.338-1.389l-1.423-1.579l1.129-0.508
									l0.07,1.328c1.063-0.753,0.124-1.231-0.521-1.766c0.601-0.126,1.021-0.348,1.244-0.662l-2.225-1.55
									c0.912-0.188,1.808,0.695,2.311-0.345c-1.032-0.726-2.042,0.696-2.719-0.505c1.057-0.755,1.919-0.535,1.016-1.421
									c0.6-0.125,0.981,0.063,1.245,0.414c-0.719-0.789-0.304-2.088-1.542-2.495c1.307-0.787-0.338-2.664,1.865-2.586
									c-0.527-0.248-1.729-1.39-1.821-2.115c2.638,1.324,0.155-2.712,2.983-2.362c-2.371-0.98-1.053-3.54-2.368-5.275
									c0.188,0.097,0.57,0.288,0.449,0.441c0.196-0.977,0.912-1.261,1.36-1.889c-1.959-0.125-2.407-1.647-3.615-2.467
									c1.891-1.198,2.3,0.727,4.116,0.351c-1.588,0.061-1.585-2.081-2.907-1.673c1.169-0.916,0.567-0.789,2.192-1.261
									c-2.451-0.16-0.415-0.853-1.92-1.612c1.207-1.325,2.295-0.341,1.55-1.797C169.253,189.902,170.121,191.197,170.121,191.197z
									 M165.889,156.573c0.013,0,0.022,0,0.027,0c0.033,0.298,0.062,0.552,0.08,0.715
									C165.974,157.139,165.942,156.933,165.889,156.573z M165.866,153.664c-0.055,0.354-0.064,0.795-0.055,1.262
									c-0.486,0.103-0.985-0.008-0.96-0.301C165.176,154.784,165.456,154.098,165.866,153.664z M156.126,159.818
									c-0.198-0.46,0.077-0.614,0.365-0.678c0.024,0.217,0.072,0.472,0.169,0.806c0.045,0.014,0.124,0.039,0.172,0.054
									C156.563,159.956,156.312,159.906,156.126,159.818z"/>
								<path fill="#202020" d="M157.97,160.646c0.031,0.066,0.09,0.103,0.103,0.19c0.123-0.094,0.229-0.184,0.316-0.275
									c-0.151-0.056-0.304-0.112-0.441-0.163C157.955,160.481,157.963,160.568,157.97,160.646z"/>
								<path fill="#202020" d="M240.399,165.638l0.031-0.062c-0.057,0.051-0.111,0.098-0.2,0.129
									C240.299,165.664,240.343,165.664,240.399,165.638z"/>
								<polygon fill="#202020" points="168.563,113.492 168.209,113.495 168.519,113.75 								"/>
								<path fill="#202020" d="M235.575,181.663c-0.123,0.031-0.252,0.091-0.36,0.21
									C235.308,181.864,235.436,181.773,235.575,181.663z"/>
								<path fill="#202020" d="M235.26,188.585l-0.5,0.979C235.044,189.141,235.18,188.832,235.26,188.585z"/>
								<path fill="#202020" d="M234.563,193.907c0.246,0.067,0.432,0.087,0.602,0.104c0.005-0.004,0.005-0.007,0.011-0.01
									L234.563,193.907z"/>
								<path fill="#202020" d="M232.911,109.283c-0.007-0.071-0.025-0.142-0.063-0.205
									C232.575,108.596,232.683,108.924,232.911,109.283z"/>
								<path fill="#202020" d="M236.195,134.467c-0.255-0.268-0.506-0.531-0.664-0.81
									C235.424,134.105,235.396,134.454,236.195,134.467z"/>
								<path fill="#202020" d="M231.22,81.163c0.015,0.002,0.008,0.001,0.024,0.003c-0.005-0.061,0-0.113,0-0.174L231.22,81.163z"
									/>
								<path fill="#202020" d="M235.556,132.486c-0.279,0.448-0.22,0.823-0.024,1.171
									C235.625,133.29,235.769,132.857,235.556,132.486z"/>
								<path fill="#202020" d="M233.926,216.976l-0.059,0.256c0.093-0.004,0.169,0.011,0.226,0.03L233.926,216.976z"/>
								<path fill="#202020" d="M234.093,217.262l0.166,0.285C234.259,217.417,234.248,217.303,234.093,217.262z"/>
								<path fill="#202020" d="M234.613,218.146l-0.354-0.599C234.255,217.754,234.212,218.011,234.613,218.146z"/>
								<path fill="#202020" d="M234.575,209.93l-0.51-0.081C234.17,209.893,234.335,209.921,234.575,209.93z"/>
								<path fill="#202020" d="M234.428,207.789c-0.116,0.511-1.088,1.281-0.769,1.994l0.406,0.066
									C233.307,209.514,235.287,208.273,234.428,207.789z"/>
								<path fill="#202020" d="M240.728,198.852l-0.408,1.794c0.543-0.313,1.273-0.726,1.404,0.09
									C243.343,198.474,240.509,201.202,240.728,198.852z"/>
								<path fill="#202020" d="M241.515,193.289c0.253,0.964,0.789-0.011,1.095,0.04
									C242.115,192.717,241.989,192.569,241.515,193.289z"/>
								<path fill="#202020" d="M241.52,153.086l1.279,0.097C242.614,152.439,242.304,153.176,241.52,153.086z"/>
								<polygon fill="#202020" points="234.909,145.401 234.115,146.124 235.287,146.468 								"/>
								<polygon fill="#202020" points="244.02,140.861 244.202,141.186 243.739,139.946 								"/>
								<path fill="#202020" d="M242.967,72.282l-1.483,0.596C241.867,73.41,243.661,73.279,242.967,72.282z"/>
								<path fill="#202020" d="M213.106,61.037c-0.316-0.787-1.137-1.294-1.643-0.52C212.12,60.625,212.772,61.24,213.106,61.037z"
									/>
								<polygon fill="#202020" points="155.933,105.749 155.405,105.162 155.845,106.267 								"/>
							</g>
						</g>
					</g>
				</g>
			</g>
		</g>
		<path fill-rule="evenodd" clip-rule="evenodd" d="M354.426,223.5c0-51.459,0-104.782,0-156.24V42.098c0-6.709,0-13.419,0-20.129
			c0-9.416-4.428-13.874-13.895-13.888c-15.953-0.023-31.914,0.287-47.855-0.12c-9.115-0.233-14.557,5.421-14.527,14.522
			c0.213,66.384,0.115,134.633,0.115,201.017"/>
		<path fill-rule="evenodd" clip-rule="evenodd" d="M121.838,223.5c0-28.646-0.028-59.156,0-87.804
			c0.002-3.029-0.195-5.968-1.551-8.752c-1.893-3.89-4.819-5.731-9.273-5.703c-17.84,0.114-35.68,0.044-53.52,0.05
			c-7.967,0-11.826,3.836-11.83,11.833c-0.015,29.505-0.009,60.873-0.009,90.376"/>
		<path fill-rule="evenodd" clip-rule="evenodd" d="M161.952,223.5c0-16.296,0.009-34.454,0.009-50.75v-23.672
			c0-24.016-0.027-48.031,0.015-72.047c0.015-8.409,4.022-12.346,12.336-12.349c17.153-0.005,34.308-0.009,51.461,0.011
			c1.724,0.002,3.454-0.222,5.153,0.484c6.33,2.63,7.201,8.022,7.201,13.913c-0.006,47.516,0,96.896,0,144.41"/>
	</g>
</g>
<g id="Calque_12">
</g>
<g id="Calque_13">
</g>
<g id="Calque_14">
</g>
<g id="Calque_15">
</g>
<g id="Calque_16">
</g>
<g id="Calque_17">
</g>
<g id="Calque_18">
</g>
<g id="Calque_19">
</g>
<g id="Calque_20">
</g>
<g id="Calque_21">
</g>
<g id="Calque_22">
</g>
<g id="Calque_23">
</g>
<g id="Calque_24">
</g>
<g id="Calque_25">
</g>
<g id="Calque_26">
</g>
<g id="Calque_27">
</g>
</svg>
