<?xml version="1.0" encoding="UTF-8"?>
<svg version="1.1" xmlns="http://www.w3.org/2000/svg" viewBox="0 0 1550 1181" width="1550" height="1181">
<path d="M0 0 C10.00574181 -0.12069905 20.01118098 -0.20934965 30.01752472 -0.26032257 C33.06291428 -0.27643081 36.10801658 -0.30149134 39.15326691 -0.33466339 C42.73069957 -0.37297508 46.30770116 -0.39103863 49.88533211 -0.39430428 C51.82724819 -0.40078033 53.76906759 -0.42698568 55.7108078 -0.45391083 C68.3652584 -0.42329829 77.90333614 3.07406316 86.9464798 12.02477264 C96.55002749 23.25604029 98.03851341 34.77824439 98.2277298 49.05284882 C98.25482985 50.69823088 98.25482985 50.69823088 98.28247738 52.37685299 C98.34142282 56.02376221 98.39398834 59.67073401 98.4464798 63.31774139 C98.48682008 65.90111081 98.5275228 68.48447459 98.56856537 71.06783295 C98.66661023 77.28900051 98.75973685 83.51023216 98.85096854 89.73150301 C98.92522338 94.79004906 99.00128802 99.84856504 99.07852936 104.90706635 C99.37923055 124.61280892 99.66832644 144.31869884 99.9464798 164.02477264 C99.9620417 165.12711746 99.97760361 166.22946228 99.99363708 167.36521149 C100.33364116 191.53269873 100.6219403 215.7005231 100.86420631 239.86918449 C100.91993425 245.42785993 100.97742824 250.9865136 101.03622246 256.54515743 C101.7641515 325.4863272 102.1302768 394.42925225 102.45815074 463.37328976 C102.49146633 470.37756796 102.52530074 477.38184333 102.55964398 484.38611656 C103.00150295 574.58821736 103.079278 664.78385105 102.60252762 754.98587418 C102.5706618 761.02765482 102.54005113 767.06944154 102.5094986 773.11122894 C102.06463465 860.7326114 101.43456344 948.3527611 99.9464798 1151.02477264 C100.75664897 1151.0503402 101.56681814 1151.07590776 102.4015379 1151.1022501 C117.86700305 1151.59399126 133.3260027 1152.11428414 148.77851105 1152.92711639 C150.40534747 1153.01076941 152.03219413 1153.09422358 153.65904999 1153.17749786 C157.01349429 1153.34976323 160.36784029 1153.5237888 163.72211456 1153.69933319 C167.90931797 1153.91840922 172.09670294 1154.13375286 176.28415871 1154.34794426 C192.38206767 1155.17208908 208.47883577 1156.02348974 224.57044792 1156.96337318 C226.02582048 1157.04791125 227.48127641 1157.13102728 228.93681526 1157.21265221 C230.92815847 1157.32483593 232.91914443 1157.44330892 234.91010284 1157.56212616 C236.03273026 1157.62755112 237.15535767 1157.69297607 238.31200409 1157.76038361 C240.9464798 1158.02477264 240.9464798 1158.02477264 242.9464798 1159.02477264 C242.9464798 1161.66477264 242.9464798 1164.30477264 242.9464798 1167.02477264 C238.45188726 1167.85535609 234.04485757 1168.27316888 229.48285675 1168.53380585 C228.7511344 1168.57637953 228.01941204 1168.61895321 227.26551628 1168.662817 C224.82211577 1168.80386626 222.37846619 1168.93989142 219.93476105 1169.07555389 C218.1773336 1169.1751539 216.41991291 1169.27487321 214.66249847 1169.37470245 C208.86168548 1169.70218335 203.0603826 1170.02043619 197.2589798 1170.33727264 C196.25518028 1170.39228691 195.25138077 1170.44730118 194.21716309 1170.50398254 C125.97459072 1174.23952872 57.70213537 1176.84387721 -10.6160202 1178.71227264 C-11.73903282 1178.74302132 -12.86204544 1178.77376999 -14.01908875 1178.80545044 C-21.61506811 1179.01266882 -29.21119622 1179.21370226 -36.80742645 1179.41149139 C-37.72677664 1179.43579287 -38.64612682 1179.46009434 -39.59333611 1179.48513222 C-46.34567499 1179.66249208 -53.09833778 1179.82218552 -59.85128236 1179.97465944 C-62.3170839 1180.03077019 -64.78285281 1180.08822417 -67.2486248 1180.14561844 C-97.48236679 1180.84360092 -127.70275232 1181.1991121 -157.94428992 1181.22496128 C-161.35548078 1181.22798883 -164.76666895 1181.23210793 -168.17785835 1181.23646545 C-179.17127254 1181.25010006 -190.16467972 1181.2597595 -201.15810174 1181.26366735 C-212.06330487 1181.26757779 -222.96841647 1181.279168 -233.87358856 1181.30602264 C-305.99938962 1181.47915147 -378.07685555 1180.592871 -450.1898507 1179.33281817 C-458.17064197 1179.19338179 -466.15143814 1179.05422853 -474.13224146 1178.91548386 C-476.16134858 1178.8802071 -478.19045521 1178.84490235 -480.21956137 1178.80956993 C-528.74413434 1177.96526745 -577.27078226 1177.30953454 -625.79858661 1176.68277192 C-632.59375063 1176.59498899 -639.38890668 1176.50660022 -646.18406105 1176.41807365 C-664.60492875 1176.17814405 -683.02580289 1175.93871989 -701.44669628 1175.70077038 C-754.96817286 1175.00935974 -808.48946831 1174.30461511 -862.01055145 1173.58336639 C-863.21954593 1173.56707858 -864.42854041 1173.55079076 -865.67417109 1173.53400937 C-957.42345782 1172.29738255 -1049.16868555 1170.88173425 -1140.91182739 1169.25250471 C-1143.17741242 1169.21229231 -1145.44299863 1169.1721461 -1147.70858526 1169.13202381 C-1168.5971049 1168.7620905 -1189.48552859 1168.38716443 -1210.3738327 1168.00524139 C-1211.57435013 1167.98331702 -1212.77486755 1167.96139266 -1214.01176429 1167.93880391 C-1245.02738358 1167.37167085 -1276.04092863 1166.73890993 -1307.0535202 1166.02477264 C-1307.0535202 1164.04477264 -1307.0535202 1162.06477264 -1307.0535202 1160.02477264 C-1289.17413962 1159.22014702 -1271.33583269 1158.95548032 -1253.44023895 1158.99352264 C-1251.35344723 1158.99603826 -1249.26665521 1158.99831826 -1247.17986298 1159.00035858 C-1242.13774117 1159.00578998 -1237.09563412 1159.01437633 -1232.0535202 1159.02477264 C-1232.04305538 1157.29115715 -1232.04305538 1157.29115715 -1232.03237915 1155.52251911 C-1231.42402512 1055.6645138 -1230.41889385 955.81060222 -1229.06752777 825.53732872 C-1229.0605022 824.86425112 -1229.05347663 824.19117351 -1229.04623817 823.49769962 C-1228.98929773 818.04286108 -1228.93235127 812.5880226 -1228.87538192 807.13318437 C-1228.65107486 785.65542304 -1228.42961023 764.17763397 -1228.21025848 742.69982147 C-1227.96000879 718.19704032 -1227.70759911 693.69428285 -1227.45210314 669.1915558 C-1227.31817621 656.34361421 -1227.18514156 643.49566504 -1227.05466461 630.64768791 C-1226.94444838 619.79705105 -1226.83196335 608.94644049 -1226.71665943 598.09585645 C-1226.65823185 592.59199076 -1226.60075566 587.08812016 -1226.54614449 581.58421516 C-1226.44057031 571.00197841 -1226.32267606 560.42020932 -1226.163077 549.83863326 C-1226.08599779 544.66687934 -1226.03123495 539.49554875 -1225.99390176 534.32336181 C-1225.96565478 531.10056052 -1225.91713463 527.878295 -1225.86302108 524.65583406 C-1225.84231579 523.18771337 -1225.82965762 521.71945007 -1225.82627326 520.25118729 C-1225.78799156 507.04285963 -1222.83875993 496.74380781 -1213.49492645 487.15367889 C-1200.53283749 475.85073732 -1181.3893665 477.57160343 -1165.2253952 477.05992889 C-1162.92829276 476.9817623 -1160.63120964 476.90302651 -1158.33414459 476.82376862 C-1152.11980813 476.61180881 -1145.905168 476.41057585 -1139.69038773 476.2121048 C-1135.79399179 476.08696663 -1131.89769981 475.95897262 -1128.0014267 475.8300705 C-1087.9024124 474.50533946 -1047.79880664 473.37335539 -1007.69043732 472.37326431 C-1005.06497286 472.30778975 -1002.43951503 472.24204878 -999.81406403 472.17603683 C-992.3068515 471.98732642 -984.79956281 471.80246014 -977.29210854 471.62361336 C-975.03242647 471.56952992 -972.77276483 471.51458413 -970.51312828 471.45863152 C-964.3881372 471.30786819 -958.26333209 471.17645718 -952.13728714 471.07672882 C-950.00339887 471.04077647 -947.86958907 470.99995877 -945.73586655 470.95523834 C-942.38841264 470.88876614 -939.04128361 470.84444259 -935.69341278 470.80504608 C-934.68855929 470.78184422 -933.68370581 470.75864235 -932.64840221 470.7347374 C-919.3206463 470.63868927 -907.93427907 474.68753425 -898.1628952 483.75133514 C-888.70190682 493.94817818 -886.00012451 506.09739484 -885.7722702 519.57555389 C-885.75620318 520.4958265 -885.74013617 521.41609911 -885.72358227 522.36425877 C-885.55853954 531.92053204 -885.40625407 541.47698898 -885.25714588 551.03352261 C-885.24056733 552.09578492 -885.24056733 552.09578492 -885.22365385 553.17950708 C-885.20098982 554.63184371 -885.17834348 556.08418062 -885.15571445 557.5365178 C-885.08048696 562.34904847 -885.00208123 567.16151738 -884.92238617 571.97397614 C-883.81632062 639.66078649 -883.8547194 707.35223169 -883.86520659 775.0459706 C-883.86600151 780.59830085 -883.86596254 786.15063068 -883.86548996 791.70296097 C-883.85868379 876.85916137 -884.0555874 962.00756105 -884.95745039 1047.15983105 C-884.99101828 1050.3370905 -885.0241223 1053.5143545 -885.05712509 1056.69161987 C-885.19040057 1069.47541945 -885.3328428 1082.25908168 -885.48668242 1095.04265046 C-885.51771033 1097.64571897 -885.54769204 1100.24879772 -885.5774498 1102.85188103 C-885.77112456 1119.59210728 -885.98702569 1136.31207194 -887.0535202 1153.02477264 C-886.12971558 1152.99742538 -885.20591095 1152.97007813 -884.25411224 1152.94190216 C-861.88457469 1152.28795832 -839.51872312 1151.80263972 -817.14141083 1151.5220871 C-813.21003233 1151.47278315 -809.27872806 1151.41910133 -805.34742546 1151.3641119 C-802.18068902 1151.32031393 -799.01392458 1151.27886891 -795.8471489 1151.23801613 C-794.40237429 1151.21914671 -792.95760732 1151.1996758 -791.51285172 1151.17940331 C-774.36093877 1150.94182264 -757.20664616 1151.00765163 -740.0535202 1151.02477264 C-740.05473006 1150.48063257 -740.05593991 1149.93649249 -740.05718642 1149.37586331 C-740.21890306 1075.16770034 -740.06890657 1000.96542177 -739.50273895 926.75914764 C-739.49561478 925.82402707 -739.4884906 924.88890649 -739.48115054 923.92544892 C-739.29372625 899.3594255 -739.09540809 874.79349353 -738.89276117 850.22759145 C-738.77284765 835.68794333 -738.65497799 821.14827978 -738.538414 806.60860443 C-738.52139599 804.48682 -738.50437761 802.36503557 -738.48735887 800.24325114 C-738.46171067 797.04525689 -738.43606446 793.84726263 -738.41042371 790.64926832 C-738.17555438 761.35967486 -737.93884628 732.07009697 -737.69754791 702.78055573 C-737.67952929 700.59272339 -737.66151122 698.40489106 -737.64349371 696.21705872 C-737.63457147 695.13368924 -737.62564922 694.05031976 -737.61645661 692.9341209 C-737.25804125 649.41237566 -736.90976824 605.89057067 -736.5749946 562.36863696 C-736.53402113 557.04229455 -736.49302468 551.71595233 -736.45200348 546.38961029 C-736.43988495 544.81597192 -736.43988495 544.81597192 -736.42752161 543.21054287 C-736.22238447 516.59068833 -736.01001373 489.97089151 -735.79523647 463.35111313 C-735.75559836 458.43825623 -735.71602124 453.52539884 -735.67647552 448.6125412 C-735.66481404 447.16443863 -735.66481404 447.16443863 -735.65291696 445.68708147 C-735.5285221 430.22075254 -735.41021457 414.75438284 -735.29408173 399.28798992 C-735.17810039 383.86377169 -735.05503426 368.43962264 -734.92467844 353.01551908 C-734.84780137 343.89499738 -734.77624236 334.7744706 -734.71238161 325.65384827 C-734.66931773 319.57847284 -734.6193023 313.50318047 -734.56360565 307.42790779 C-734.53211841 303.97190146 -734.50364183 300.51594385 -734.4836601 297.05985022 C-734.46053215 293.33877561 -734.42561815 289.61799071 -734.38773346 285.89704132 C-734.38393307 284.82973945 -734.38013268 283.76243757 -734.37621713 282.66279322 C-734.2755803 274.67061605 -733.89167032 266.22971694 -729.6785202 259.21227264 C-729.27891083 258.52520233 -728.87930145 257.83813202 -728.4675827 257.13024139 C-725.36425873 252.5095463 -722.42721748 249.2968949 -717.6785202 246.33727264 C-716.76328583 245.75590546 -715.84805145 245.17453827 -714.9050827 244.57555389 C-705.27849726 239.34027387 -694.19118961 239.8656055 -683.49492645 239.57579803 C-682.27079072 239.53981632 -681.04665499 239.50383461 -679.78542423 239.46676254 C-676.43220627 239.36899216 -673.0789281 239.27441588 -669.72557759 239.18137383 C-666.14153937 239.08122917 -662.55761485 238.97715091 -658.97367096 238.87369537 C-651.26206374 238.65193083 -643.5503047 238.43580742 -635.83850479 238.22086334 C-631.05525812 238.08749189 -626.27205341 237.95265417 -621.48885345 237.81761932 C-583.40272244 236.74335592 -545.31583286 235.69715405 -507.2241745 234.83682632 C-504.53941785 234.77587147 -501.85469473 234.71359352 -499.16997528 234.65102386 C-488.89909515 234.41343576 -478.62829355 234.20775308 -468.35572815 234.05873871 C-466.78469215 234.03556013 -465.2136727 234.01123919 -463.64266968 233.98592377 C-458.78712671 233.90782377 -453.93191935 233.84694261 -449.07587624 233.81069946 C-447.57089158 233.79741341 -446.06594068 233.77913265 -444.56108665 233.75526428 C-430.03896579 233.53467739 -418.48663948 236.19493954 -407.3660202 246.02477264 C-399.88483424 253.95020956 -396.08088233 264.61340319 -395.75469208 275.32405853 C-395.71533539 276.57664019 -395.6759787 277.82922184 -395.63542938 279.11976051 C-395.59738784 280.4876658 -395.55967805 281.85558035 -395.5222702 283.22350311 C-395.48035197 284.6603931 -395.43839981 286.09728209 -395.39641571 287.53417015 C-394.9707597 302.53767333 -394.76013668 317.543573 -394.58119965 332.55170298 C-394.53295118 336.54933295 -394.48144414 340.5469215 -394.43047333 344.54451752 C-394.34442563 351.3300664 -394.26070485 358.11564077 -394.1785202 364.90123749 C-394.09744311 371.59397569 -394.01428046 378.28668264 -393.9285202 384.97936249 C-393.62523979 408.66402327 -393.34598385 432.34889032 -393.08638811 456.03407049 C-393.052893 459.08184276 -393.01908015 462.12961139 -392.98521805 465.17737961 C-392.17145204 538.62839529 -391.85208364 612.0736375 -391.86520662 685.52899713 C-391.86600725 690.38702261 -391.86595928 695.24504761 -391.86548996 700.10307312 C-391.85880496 773.91259543 -392.05115506 847.71914188 -392.95745039 971.4296155 C-392.98537948 974.93634558 -393.01306546 978.44307753 -393.04067022 981.94981018 C-393.18181842 999.87397994 -393.33017049 1017.79807625 -393.48668242 1035.72211957 C-393.517498 1039.27645439 -393.5475644 1042.83079481 -393.5774498 1046.38513756 C-393.85901855 1079.60298223 -394.38051539 1112.81257346 -395.0535202 1146.02477264 C-394.16239879 1145.9948844 -393.27127737 1145.96499615 -392.35315228 1145.93420219 C-390.59163562 1145.87527007 -390.59163562 1145.87527007 -388.79453278 1145.8151474 C-387.63270823 1145.77623571 -386.47088369 1145.73732403 -385.27385235 1145.6972332 C-366.14062925 1145.06832708 -347.00016762 1144.77723514 -327.85934448 1144.49567032 C-325.67281291 1144.46311815 -323.48630395 1144.42933024 -321.29979706 1144.39516449 C-303.16734702 1144.11389555 -285.03952606 1143.9987602 -266.90483856 1144.01329803 C-264.86880497 1144.01422194 -262.83277134 1144.01505909 -260.79673767 1144.01580811 C-255.8823308 1144.01780033 -250.96792598 1144.02095187 -246.0535202 1144.02477264 C-246.05535481 1142.6240679 -246.05535481 1142.6240679 -246.05722648 1141.19506609 C-246.13454015 1079.96110682 -245.94464116 1018.73178597 -245.56783075 957.49903361 C-245.51580655 949.03483838 -245.46510938 940.57063595 -245.41517448 932.10642815 C-245.40784934 930.86481284 -245.40052419 929.62319753 -245.39297707 928.34395752 C-245.37803692 925.81066347 -245.36309935 923.27736941 -245.34816431 920.74407534 C-245.19949986 895.55394873 -245.0467845 870.36384769 -244.8925094 845.17375499 C-244.87572028 842.43222639 -244.85893318 839.69069778 -244.84214783 836.94916916 C-244.83798105 836.26867873 -244.83381428 835.5881883 -244.82952124 834.88707695 C-244.74043388 820.33448777 -244.65250491 805.78189168 -244.56471583 791.22929462 C-244.14025449 720.87188618 -243.70769042 650.51452821 -241.5004009 324.13988757 C-241.4446662 316.35108747 -241.38915364 308.56228581 -241.33375931 300.77348328 C-241.24159593 287.81671651 -241.14909561 274.85995219 -241.05620575 261.90319061 C-241.04875354 260.86335282 -241.04130133 259.82351502 -241.03362329 258.75216699 C-240.8706147 236.02114301 -240.70404995 213.29015538 -240.52423859 190.55925751 C-240.51703753 189.64796961 -240.50983647 188.73668171 -240.5024172 187.79777902 C-240.4392152 179.80352339 -240.37584418 171.80926913 -240.31163585 163.81502151 C-240.15541238 144.3465877 -240.01826788 124.87833367 -239.92398643 105.40949726 C-239.88420064 97.26607209 -239.8324056 89.12274377 -239.77550805 80.97942132 C-239.73489102 75.04501888 -239.70959692 69.11087602 -239.69866276 63.17634821 C-239.68838528 59.73475719 -239.66220248 56.29343605 -239.63093901 52.85197759 C-239.62031253 51.33098659 -239.61620621 49.80993066 -239.61980867 48.28890681 C-239.64642508 35.09948668 -237.79688642 24.73477348 -228.3347702 15.14977264 C-227.5819577 14.44852264 -226.8291452 13.74727264 -226.0535202 13.02477264 C-225.20273895 12.22039764 -225.20273895 12.22039764 -224.3347702 11.39977264 C-216.16335914 4.6703753 -204.25544904 4.55887303 -194.1785202 4.36461639 C-192.9374501 4.32989227 -191.69638 4.29516815 -190.41770172 4.25939178 C-187.01201704 4.16688631 -183.60645316 4.08634695 -180.20036697 4.0112648 C-176.53959931 3.92772418 -172.87924001 3.82884917 -169.21880341 3.73204803 C-162.03995796 3.54474569 -154.86082628 3.37233595 -147.68149471 3.20482731 C-141.64047432 3.06342981 -135.59964997 2.91520731 -129.5588913 2.76305389 C-128.24048343 2.72986604 -128.24048343 2.72986604 -126.89544106 2.69600773 C-125.10913338 2.65103607 -123.32282573 2.60606365 -121.5365181 2.56109047 C-102.03076777 2.0711474 -82.52429633 1.61690917 -63.01726341 1.18126965 C-58.06655163 1.07056498 -53.11592432 0.95681266 -48.16533661 0.84069061 C-32.11089365 0.46636774 -16.05757883 0.19371063 0 0 Z M-227.9128952 19.84508514 C-234.36157961 27.73035767 -235.50997131 36.8484823 -235.35828209 46.72837925 C-235.3549757 47.74488804 -235.35166932 48.76139684 -235.34826274 49.80870893 C-235.33388682 53.14979093 -235.29801194 56.49027154 -235.26198578 59.83118439 C-235.24748616 62.20963534 -235.2343701 64.58809508 -235.22255981 66.9665609 C-235.19548039 71.89641462 -235.15948267 76.82607957 -235.11568594 81.75581288 C-235.05579164 88.51590742 -235.01622507 95.27595597 -234.98360825 102.03623009 C-234.92201852 114.19750733 -234.83535577 126.35853569 -234.7446766 138.51962619 C-234.69818122 144.81537631 -234.65397661 151.11114265 -234.60946941 157.40690708 C-234.53203897 168.32020742 -234.45330446 179.23349765 -234.37364388 190.14678192 C-234.25661742 206.18237488 -234.14204819 222.21798481 -234.02807794 238.25359975 C-233.9739792 245.86519141 -233.91978105 253.47678237 -233.86556339 261.08837318 C-233.86012454 261.85200125 -233.85468569 262.61562932 -233.84908202 263.40239763 C-233.73093966 279.98723615 -233.61183878 296.57206776 -233.49267843 313.15689899 C-233.02484843 378.27251906 -232.56423523 443.38819017 -232.10719886 508.50388685 C-232.08441451 511.75000535 -232.06162174 514.9961238 -232.03882107 518.24224219 C-231.44939647 602.15912168 -230.87408712 686.07602993 -230.37773895 769.99352264 C-230.36888294 771.49066456 -230.36888294 771.49066456 -230.35984802 773.01805177 C-230.1182031 813.90417305 -229.88811453 854.79035783 -229.66273266 895.67657162 C-229.64118201 899.58521425 -229.61960455 903.49385673 -229.59802628 907.4024992 C-229.59380561 908.16709668 -229.58958495 908.93169417 -229.58523639 909.71946127 C-229.56417656 913.53424527 -229.54310661 917.34902921 -229.52201962 921.16381305 C-229.51789719 921.90961348 -229.51377476 922.6554139 -229.5095274 923.42381434 C-229.50125667 924.92005464 -229.4929852 926.41629494 -229.484713 927.91253524 C-229.46052898 932.28848397 -229.43643804 936.6644332 -229.41241263 941.04038281 C-229.04076195 1008.70240667 -228.55535901 1076.36360448 -228.0535202 1144.02477264 C-227.22686859 1144.03746846 -226.40021698 1144.05016428 -225.54851532 1144.06324482 C-198.71665795 1144.47597191 -171.8850199 1144.90192302 -145.0535202 1145.33727264 C-144.03244187 1145.35381535 -143.01136353 1145.37035806 -141.95934343 1145.38740206 C-86.25816098 1146.29033702 -30.57175532 1147.30347791 25.10858917 1149.10997772 C26.0785744 1149.14117203 27.04855963 1149.17236633 28.04793835 1149.20450592 C32.42171345 1149.3453721 36.79529318 1149.48931109 41.16860199 1149.64400482 C53.09615887 1150.05092481 65.01268185 1150.08526546 76.9464798 1150.02477264 C77.06316368 1086.98160784 76.9912587 1023.94345162 76.52559566 960.90183735 C76.49770537 957.12167027 76.47005558 953.34150143 76.44239044 949.5613327 C76.43684344 948.80379098 76.43129643 948.04624925 76.42558134 947.26575172 C76.3679576 939.39526906 76.31043754 931.52478566 76.25319624 923.65430021 C76.24141148 922.03457233 76.22961162 920.41484456 76.2177968 918.7951169 C75.4999256 820.33365141 74.82850178 721.86421075 77.41996169 207.14705873 C77.45428884 204.53284871 77.48852818 201.91863755 77.52275276 199.30442619 C77.93080828 168.15929917 77.93080828 168.15929917 78.14884186 152.75722504 C78.16026602 151.9498693 78.17169018 151.14251356 78.18346053 150.31069249 C78.19481935 149.50802144 78.20617818 148.70535039 78.2178812 147.87835598 C78.43505795 132.52580431 78.6372741 117.17323318 78.80288029 101.82002926 C78.81843356 100.38255982 78.8340123 98.94509065 78.849617 97.50762177 C78.85726875 96.80273544 78.86492049 96.09784911 78.87280411 95.37160259 C78.92730158 90.46596864 78.99429204 85.56060293 79.06678009 80.65520477 C79.16272147 74.1492082 79.2322094 67.6433119 79.28323936 61.13678169 C79.30578266 58.77801583 79.33693541 56.41931341 79.37752724 54.06078911 C79.43131474 50.85423687 79.45346315 47.64894614 79.46772003 44.44200897 C79.49054235 43.52482653 79.51336468 42.60764408 79.53687859 41.66266823 C79.51655628 34.91002099 77.7375729 29.64167951 73.9464798 24.02477264 C67.89487871 18.17680396 61.76211175 15.83255995 53.32587433 15.64147186 C52.68460979 15.62450382 52.04334526 15.60753578 51.38264847 15.59005356 C49.23997359 15.53582587 47.09726526 15.49507686 44.9542923 15.45446014 C43.39951726 15.41827977 41.84475873 15.38138417 40.29001617 15.34383392 C36.05644194 15.24463219 31.82270451 15.15829292 27.58876801 15.07614899 C24.96069992 15.02504914 22.33267762 14.97200449 19.70465851 14.9184494 C9.23783911 14.70638741 -1.22926308 14.5116001 -11.69651318 14.32214546 C-60.00747092 13.44701684 -108.30999932 12.32491617 -156.61283207 11.09063721 C-160.46253782 10.99229172 -164.31225082 10.89423366 -168.16196442 10.79619598 C-172.88450543 10.67589083 -177.60700252 10.55403192 -182.3294754 10.43108368 C-184.44378827 10.3768294 -186.55810199 10.32260788 -188.67241669 10.26842499 C-189.61350847 10.24351046 -190.55460026 10.21859592 -191.52420998 10.19292641 C-205.25578617 9.84422129 -217.38630068 9.53963757 -227.9128952 19.84508514 Z M-721.5535202 254.24742889 C-727.3525481 261.11867289 -729.20493509 267.66379692 -729.19680023 276.47840118 C-729.19990955 277.24664532 -729.20301887 278.01488945 -729.20622241 278.80641371 C-729.21513529 281.43984296 -729.21630711 284.07321384 -729.21709442 286.70665741 C-729.22076032 288.66045605 -729.22461378 290.61425435 -729.22863388 292.56805229 C-729.23760536 298.13560322 -729.23763344 303.70312371 -729.23493814 309.27068019 C-729.23318286 312.95583241 -729.23290723 316.64098303 -729.23265457 320.32613564 C-729.20863523 409.24687679 -728.20530114 498.16712083 -727.42292094 587.08351556 C-727.15158119 617.92643833 -726.88742202 648.76942102 -726.62480927 679.61241913 C-726.61912022 680.28052396 -726.61343117 680.94862878 -726.60756972 681.63697921 C-726.47017291 697.77303933 -726.33305749 713.90910182 -726.19613585 730.04516598 C-726.11114773 740.06042225 -726.02589217 750.07567621 -725.94049835 760.09092903 C-725.1620797 851.41332855 -724.45500746 942.73603694 -723.83430767 1034.05964136 C-723.80342447 1038.60316807 -723.77243035 1043.14669401 -723.74142456 1047.69021988 C-723.506446 1082.13503352 -723.2759001 1116.57987511 -723.0535202 1151.02477264 C-700.257145 1151.13664774 -677.46772629 1150.77309141 -654.67421222 1150.45191693 C-648.82614091 1150.36984203 -642.97804459 1150.28958684 -637.12995148 1150.20908356 C-627.27462468 1150.07315933 -617.41931588 1149.935988 -607.56401825 1149.797966 C-597.58519177 1149.65821968 -587.606352 1149.51948645 -577.62749481 1149.38195038 C-576.4086278 1149.36514839 -575.18976079 1149.3483464 -573.93395841 1149.33103526 C-571.48100074 1149.29722285 -569.02804307 1149.26341053 -566.5750854 1149.22959828 C-544.27844328 1148.9221262 -521.98188334 1148.60926657 -499.68540764 1148.28994942 C-488.95343261 1148.13636222 -478.2214363 1147.98511162 -467.48934191 1147.84008962 C-461.2675488 1147.75585689 -455.04580576 1147.66853091 -448.82410032 1147.57805079 C-445.43848873 1147.52891508 -442.05288347 1147.48187605 -438.66719627 1147.43807411 C-435.11628332 1147.3919273 -431.56550724 1147.33994916 -428.01470184 1147.28624725 C-426.48681251 1147.2686287 -426.48681251 1147.2686287 -424.92805672 1147.25065422 C-423.56867517 1147.22820357 -423.56867517 1147.22820357 -422.18183136 1147.20529938 C-421.40098207 1147.19446792 -420.62013277 1147.18363646 -419.81562138 1147.17247677 C-418.02703555 1147.21347838 -418.02703555 1147.21347838 -417.0535202 1146.02477264 C-416.9674781 1144.46796213 -416.95217552 1142.90719829 -416.96450043 1141.34806061 C-416.97009476 1140.3310759 -416.97568909 1139.31409119 -416.98145294 1138.26628876 C-416.99282791 1137.13688873 -417.00420288 1136.00748871 -417.01592255 1134.84386444 C-417.0239238 1133.65789169 -417.03192505 1132.47191895 -417.04016876 1131.25000763 C-417.06349483 1127.94427612 -417.09137618 1124.63863816 -417.12112379 1121.3329618 C-417.15231666 1117.74481107 -417.17771467 1114.15661874 -417.20381927 1110.56842804 C-417.25525995 1103.61878804 -417.31190852 1096.66920009 -417.3703419 1089.71961576 C-417.43233304 1082.32119577 -417.48896551 1074.92273965 -417.54485786 1067.52427149 C-417.59631107 1060.73667114 -417.64918308 1053.94908158 -417.7019577 1047.16149139 C-417.71120588 1045.9697561 -417.71120588 1045.9697561 -417.7206409 1044.75394535 C-417.7669518 1038.79571234 -417.81404095 1032.83748586 -417.86186981 1026.87926483 C-417.87258099 1025.54452645 -417.87258099 1025.54452645 -417.88350856 1024.18282366 C-417.9813605 1012.06944748 -418.09104846 999.9562232 -418.20923001 987.84302884 C-419.07386971 899.16519328 -419.25306537 810.4923516 -419.24183381 716.07097812 C-419.24103593 709.27422954 -419.24107929 702.47748132 -419.24155045 695.68073273 C-419.24765913 601.84432703 -419.25061745 508.01217994 -417.58867645 384.00914764 C-417.57821564 383.30431071 -417.56775484 382.59947377 -417.55697703 381.87327814 C-417.33540508 366.96256556 -417.09587554 352.05239165 -416.80996162 337.14276195 C-416.67478901 330.0621367 -416.55067293 322.98136301 -416.43332833 315.90042043 C-416.34849682 310.82825837 -416.25006264 305.75661538 -416.14083719 300.68492317 C-416.07686385 297.55925426 -416.02620816 294.43347086 -415.97916722 291.30750561 C-415.95476941 289.86299126 -415.92497175 288.41855577 -415.8891952 286.97427845 C-415.65275771 277.27488061 -415.68218773 268.16588281 -421.7410202 260.14977264 C-430.21748946 251.34089283 -441.35399815 251.99901151 -452.82234383 251.74331379 C-453.88041426 251.72356338 -454.93848469 251.70381296 -456.02861786 251.68346405 C-457.18035177 251.65881671 -458.33208569 251.63416937 -459.51872063 251.60877514 C-462.01948186 251.55575 -464.52028087 251.50448325 -467.02111053 251.45479012 C-471.06291864 251.37443989 -475.10460827 251.28952913 -479.14629364 251.20328522 C-484.96227417 251.07964068 -490.77829559 250.95814258 -496.59435272 250.83815765 C-511.89348016 250.52215116 -527.19229812 250.19180983 -542.4910202 249.85680389 C-543.26124276 249.8399733 -544.03146531 249.82314271 -544.82502794 249.80580211 C-579.39891112 249.0495965 -613.96577196 248.09502708 -648.53178024 247.0365591 C-652.65472756 246.91066241 -656.7777358 246.7868293 -660.90074921 246.66311836 C-663.63828509 246.57986615 -666.37568314 246.49291389 -669.11309052 246.40555573 C-677.88153587 246.13385063 -686.64961125 245.95018531 -695.42217255 245.88878632 C-696.7273455 245.87146564 -696.7273455 245.87146564 -698.05888557 245.85379505 C-707.12572211 245.82803579 -714.83260683 247.89810449 -721.5535202 254.24742889 Z " fill="#000000" transform="translate(1307.0535202026367,-0.02477264404296875)"/>
</svg>
