<?xml version="1.0" encoding="UTF-8"?>
<svg version="1.1" xmlns="http://www.w3.org/2000/svg" viewBox="0 0 1382 1181" width="1382" height="1181">
<path d="M0 0 C0.71038325 0.00001163 1.42076649 0.00002325 2.15267651 0.00003523 C4.30868535 0.00007161 6.4646942 0.000111 8.62070304 0.00015163 C9.68951 0.00017169 9.68951 0.00017169 10.77990903 0.00019215 C16.72909495 0.00030608 16.72909495 0.00030608 19.42875303 0.00037833 C42.13438895 0.00097281 64.84001016 -0.00668433 87.5456419 -0.02018738 C113.39373801 -0.03555519 139.2418245 -0.0441549 165.08992547 -0.04322416 C167.83990109 -0.04314956 170.58987671 -0.04310084 173.33985233 -0.04306984 C174.35466912 -0.04305236 174.35466912 -0.04305236 175.38998726 -0.04303452 C185.53117995 -0.04300585 195.67236082 -0.04827518 205.81355 -0.05640221 C217.27157557 -0.06549639 228.72957655 -0.06768804 240.18760417 -0.06089278 C246.01316954 -0.05763398 251.83868762 -0.05755026 257.66424847 -0.06624603 C262.99951151 -0.07412966 268.33468984 -0.07266115 273.66995087 -0.0639619 C275.59020473 -0.06243212 277.51046499 -0.06422321 279.43071131 -0.06982198 C308.29132765 -0.14836581 335.15720041 5.16514972 357.7787962 24.18562317 C359.06850323 25.23169739 359.06850323 25.23169739 360.38426495 26.29890442 C380.1309514 43.04531913 391.96264957 67.88060951 394.31941509 93.49225998 C394.91804163 100.96424885 394.87646083 108.41608832 394.81639385 115.9044342 C394.8078291 117.46896316 394.79973946 119.03349478 394.79207897 120.59802842 C394.76982385 124.87303733 394.74099376 129.14798002 394.71109152 133.42294133 C394.67994506 138.05057676 394.6551284 142.67824663 394.62959576 147.30591583 C394.58439745 155.35380998 394.53548811 163.40167453 394.48411846 171.44953156 C394.40156911 184.39963708 394.32683326 197.34978197 394.25340557 210.29994202 C394.22797676 214.77293028 394.20251559 219.24591835 394.17705059 223.7189064 C394.17069096 224.83738023 394.16433133 225.95585406 394.15777898 227.10822104 C394.11188261 235.16652125 394.06499112 243.22481534 394.01774883 251.28310776 C393.83314772 282.8410254 393.66827103 314.39899408 393.5209837 345.95710754 C393.51594279 347.03688146 393.51090188 348.11665537 393.50570822 349.2291497 C393.45478405 360.15087596 393.40437716 371.07260456 393.35431302 381.99433479 C393.28870014 396.30806196 393.22177571 410.62178267 393.15428448 424.9355011 C393.14383619 427.15264845 393.13338837 429.3697958 393.12294102 431.58694315 C393.10725352 434.9158207 393.09156466 438.24469824 393.07587183 441.57357576 C393.01834513 453.77775354 392.96100647 465.98193219 392.9037962 478.18611145 C392.89864065 479.28576192 392.89348511 480.38541238 392.88817334 481.51838559 C392.81453942 497.2309833 392.74173896 512.94358472 392.66942334 528.65618855 C392.4461885 577.14229099 392.21598168 625.62833774 391.95723248 674.11426544 C391.93646664 678.01085396 391.91572783 681.90744262 391.89500713 685.80403137 C391.88742724 687.22749452 391.88742724 687.22749452 391.87969422 688.6797145 C391.80414523 702.90523297 391.73719929 717.13077338 391.67521429 731.35635683 C391.61872115 744.27738735 391.55236929 757.19833126 391.47390652 770.11924767 C391.43364437 776.7903722 391.39803323 783.46145343 391.37523174 790.13266754 C391.35470961 796.11257303 391.32088585 802.09224643 391.27616787 808.07201862 C391.26263773 810.18855613 391.25390365 812.30513161 391.25075436 814.42171001 C391.19513762 846.58221037 382.85769993 872.27701267 360.41551495 895.64656067 C340.0673461 915.13976443 313.92581313 922.36100025 286.30565166 922.31843567 C284.87927124 922.31950487 283.45289103 922.3208961 282.02651119 922.3225708 C277.98507892 922.32546126 273.94368455 922.32078863 269.90225744 922.3143959 C267.22595991 922.31055861 264.54966611 922.30852856 261.87336636 922.30693054 C220.13559202 922.27815256 178.39847537 922.00312243 136.6616087 921.74812317 C135.7719206 921.74269107 134.8822325 921.73725898 133.96558416 921.73166227 C99.34481616 921.52012523 64.72408768 921.30200077 30.10340858 921.07638454 C-49.39615502 920.5583494 -128.89660304 920.07666508 -208.39794981 919.96261883 C-210.29149954 919.95990031 -212.18504926 919.95717822 -214.07859898 919.95445251 C-215.00907108 919.95312382 -215.93954318 919.95179512 -216.89821141 919.95042616 C-223.38832538 919.94044875 -229.87839085 919.92286411 -236.36847782 919.90190125 C-244.19010919 919.87678541 -252.01167011 919.86227047 -259.83334342 919.86178452 C-263.80958589 919.8612998 -267.78567003 919.85613336 -271.76187468 919.83802223 C-275.40369519 919.82161569 -279.04524831 919.81930261 -282.6870928 919.82804215 C-284.61922483 919.8291344 -286.55134809 919.81549505 -288.48342788 919.80124569 C-305.80977362 919.88449551 -315.17946394 928.26709484 -327.13136005 940.07234192 C-328.25908063 941.21547553 -329.38542408 942.35996964 -330.5102663 943.50593567 C-332.98711211 945.93754229 -335.6237413 948.17088624 -338.2524538 950.43562317 C-340.72756824 952.63572489 -343.02866107 954.97976831 -345.34693623 957.34260559 C-347.15121313 959.11679946 -349.00950071 960.77494979 -350.92823505 962.42390442 C-355.19369029 966.13278291 -359.30891112 969.98294108 -363.4087038 973.87312317 C-368.52972102 978.71304774 -373.66019837 983.54034261 -378.8462038 988.31062317 C-383.48988144 992.58251613 -388.11192437 996.87663017 -392.7212038 1001.18562317 C-397.35211495 1005.51453119 -401.99491468 1009.82965973 -406.6587038 1014.12312317 C-411.53874029 1018.61662211 -416.38578414 1023.14416395 -421.2212038 1027.68562317 C-426.57661435 1032.71546138 -431.95259235 1037.72121907 -437.35792255 1042.69734192 C-441.495714 1046.50900202 -445.61135523 1050.34386511 -449.7212038 1054.18562317 C-454.37378896 1058.53440478 -459.03720494 1062.87069285 -463.7212038 1067.18562317 C-470.9196551 1073.81827663 -478.07057439 1080.50149761 -485.2212038 1087.18562317 C-492.89715895 1094.36080244 -500.57960502 1101.5279423 -508.30762959 1108.64704895 C-512.46128386 1112.47641671 -516.5939133 1116.32787 -520.7212038 1120.18562317 C-525.37380837 1124.53438417 -530.03720478 1128.8706927 -534.7212038 1133.18562317 C-541.9196551 1139.81827663 -549.07057439 1146.50149761 -556.2212038 1153.18562317 C-558.76244702 1155.56107682 -561.30402421 1157.93617162 -563.8462038 1160.31062317 C-564.76768208 1161.17131409 -564.76768208 1161.17131409 -565.70777607 1162.0493927 C-570.51667156 1166.53701657 -575.34505588 1171.00319747 -580.18653584 1175.4556427 C-582.23034938 1177.33694719 -584.25669878 1179.22111815 -586.2212038 1181.18562317 C-588.5937624 1181.64021301 -588.5937624 1181.64021301 -591.2212038 1181.18562317 C-593.26661396 1178.99275208 -593.26661396 1178.99275208 -595.2602663 1175.91218567 C-595.6228252 1175.36188187 -595.9853841 1174.81157806 -596.35892963 1174.24459839 C-597.53874165 1172.44393469 -598.69250206 1170.62810463 -599.8462038 1168.81062317 C-600.65776508 1167.55955801 -601.47059837 1166.30931711 -602.28468037 1165.05989075 C-607.51397798 1157.00093679 -612.5858324 1148.84595531 -617.5337038 1140.61140442 C-620.59189743 1135.53852242 -623.78040127 1130.55079014 -626.9712038 1125.56062317 C-638.9030084 1106.88304368 -650.58173021 1088.04640224 -662.2212038 1069.18562317 C-662.83044697 1068.19900696 -663.43969013 1067.21239075 -664.06739521 1066.19587708 C-677.71355913 1044.08971511 -691.22074723 1021.90186558 -704.56177998 999.61018372 C-707.80144378 994.20164666 -711.05611864 988.80278593 -714.3383913 983.41999817 C-714.6872086 982.84773499 -715.03602589 982.2754718 -715.3954134 981.68586731 C-717.5252604 978.19183484 -717.5252604 978.19183484 -719.65635395 974.69856262 C-723.81853667 967.87414116 -727.92202401 961.0202516 -731.93604755 954.10749817 C-732.51663929 953.10906891 -732.51663929 953.10906891 -733.10896015 952.09046936 C-734.97811698 948.8736779 -736.83960743 945.65280845 -738.68946552 942.42488098 C-739.36261439 941.2616845 -740.03594472 940.09859301 -740.70948505 938.93562317 C-741.29254414 937.91984192 -741.87560322 936.90406067 -742.47633076 935.85749817 C-744.60105177 932.60397267 -746.71057091 929.94093962 -750.2212038 928.18562317 C-751.90195319 928.09893687 -753.58620129 928.07685681 -755.26916218 928.08555603 C-756.3382935 928.08851685 -757.40742481 928.09147766 -758.50895405 928.0945282 C-760.27678745 928.10699081 -760.27678745 928.10699081 -762.08033466 928.1197052 C-763.93693966 928.12671448 -763.93693966 928.12671448 -765.83105183 928.13386536 C-768.52986368 928.14439521 -771.2286084 928.1566816 -773.92739391 928.1715889 C-778.21318829 928.19468767 -782.49897802 928.2079708 -786.7848177 928.21928406 C-798.97518101 928.25267332 -811.16547726 928.29380234 -823.35572529 928.35700989 C-830.08400038 928.39181405 -836.81222313 928.41544356 -843.5405789 928.42721832 C-847.09315261 928.43392066 -850.64550523 928.44609231 -854.19799328 928.47224808 C-886.27558579 928.70195833 -914.49914113 925.3157416 -940.2212038 904.18562317 C-941.07327412 903.49855286 -941.92534443 902.81148254 -942.80323505 902.10359192 C-957.12971581 889.94300432 -966.97615859 874.26173127 -972.5962038 856.43562317 C-972.9545229 855.33129944 -972.9545229 855.33129944 -973.32008076 854.20466614 C-977.96397738 838.26112528 -977.47152147 821.16462565 -977.22047138 804.73323059 C-977.19505788 802.52611218 -977.17062736 800.31898227 -977.14708424 798.11184311 C-977.08022137 792.10361928 -976.99964744 786.09564841 -976.91669583 780.08762813 C-976.82970342 773.60676458 -976.75575649 767.1257504 -976.68023396 760.64474487 C-976.54829214 749.43850234 -976.40766951 738.23238988 -976.26173115 727.02632141 C-976.10772187 715.19687229 -975.95833742 703.3673789 -975.8149538 691.53779602 C-975.8059641 690.79620932 -975.79697441 690.05462262 -975.78771229 689.2905636 C-975.74209597 685.52493777 -975.69657786 681.75931077 -975.65111375 677.9936831 C-975.55904884 670.36945604 -975.46643021 662.74523571 -975.37363911 655.12101746 C-975.36438492 654.36045311 -975.35513074 653.59988876 -975.34559612 652.81627701 C-975.2034867 641.14441054 -975.0586881 629.47257921 -974.91227436 617.80076599 C-974.89261807 616.23329659 -974.87296193 614.6658272 -974.85330594 613.0983578 C-974.84358021 612.32284789 -974.83385447 611.54733799 -974.82383402 610.74832778 C-974.3667185 574.29851341 -973.93338171 537.84849352 -973.52059257 501.39815113 C-972.38698178 401.29938697 -971.19792193 301.20116524 -969.79927456 201.10571218 C-969.69017213 193.27110614 -969.58534101 185.43645051 -969.48243427 177.60176086 C-969.3592423 168.23135198 -969.22979939 158.86105537 -969.0920611 149.49084854 C-969.02277344 144.76936463 -968.95607083 140.04788678 -968.89696789 135.32626343 C-968.84289958 131.01589594 -968.78052431 126.70572697 -968.71183777 122.39556837 C-968.68864823 120.85463502 -968.6683005 119.31365521 -968.65134048 117.77264071 C-968.5605594 109.68478274 -968.18551172 101.69116033 -967.32558918 93.645401 C-967.24990033 92.92034764 -967.17421147 92.19529428 -967.09622902 91.44826961 C-965.10864849 74.34103789 -957.50840172 58.12858773 -946.2212038 45.18562317 C-945.49417255 44.31550598 -944.7671413 43.44538879 -944.0180788 42.54890442 C-928.1442879 24.19163332 -906.20358662 12.29084606 -881.92750263 10.09944153 C-881.02393685 10.01651069 -880.12037107 9.93357985 -879.18942451 9.84813595 C-867.0172205 8.81612573 -854.81610209 8.6606551 -842.60792255 8.43952942 C-839.85112376 8.38477104 -837.09437179 8.32777891 -834.33761311 8.27104187 C-827.57987862 8.13359138 -820.82199744 8.00543812 -814.06401521 7.8808248 C-808.4331688 7.77690153 -802.80239287 7.66969019 -797.17164326 7.56065369 C-698.05520029 5.64475739 -598.92897833 4.14784926 -429.25968647 2.09104776 C-426.60098285 2.06137407 -423.94228185 2.03147685 -421.28358173 2.00149155 C-400.25213885 1.76441554 -379.22058942 1.54666846 -358.18869209 1.35384369 C-348.01719181 1.2603843 -337.84577774 1.16197169 -327.67442036 1.05400085 C-238.28931991 0.11141816 -148.90238016 0.03508528 0 0 Z M-940.2915163 43.81843567 C-957.64104382 65.1014593 -962.54021366 88.1233436 -962.14625263 115.07453918 C-962.12558889 116.7691867 -962.10540935 118.46384019 -962.08567333 120.15849876 C-962.03060268 124.76250811 -961.96848844 129.36639853 -961.90507197 133.97029948 C-961.83815132 138.91527921 -961.77768958 143.8603388 -961.71627522 148.8053894 C-961.57264988 160.25520081 -961.418703 171.7048621 -961.26247978 183.15450764 C-961.2097304 187.02817646 -961.15754878 190.90185281 -961.10538554 194.77552956 C-960.84753079 213.91539145 -960.58183532 233.05514143 -960.31315947 252.19485414 C-959.15389429 334.79476639 -958.10666462 417.39540241 -957.17042255 499.99812317 C-957.15927924 500.98096886 -957.14813593 501.96381455 -957.13665494 502.97644344 C-956.66444787 544.63125481 -956.19878553 586.28613861 -955.73855479 627.94108396 C-955.64364082 636.53131066 -955.54854547 645.1215353 -955.45306778 653.71175575 C-955.44274198 654.64086282 -955.43241618 655.56996989 -955.42177748 656.52723172 C-955.38051015 660.23995394 -955.3392359 663.95267608 -955.29792412 667.66539781 C-955.18974076 677.38849336 -955.08206655 687.11159373 -954.97638226 696.8347168 C-954.78791114 714.16042624 -954.59478449 731.48605408 -954.38297743 748.81149614 C-954.36486318 750.29385458 -954.34675355 751.77621307 -954.32864857 753.25857162 C-954.31969946 753.99091503 -954.31075036 754.72325843 -954.30153007 755.47779406 C-954.23701095 760.79306208 -954.17707536 766.10837182 -954.11864185 771.42370987 C-954.04426261 778.17672059 -953.96303849 784.92961114 -953.87370018 791.68244107 C-953.82785744 795.15950006 -953.78480732 798.63652879 -953.74978518 802.11371505 C-953.44486442 831.14295862 -951.4379386 855.36052321 -930.2212038 877.18562317 C-929.64628193 877.82242004 -929.07136005 878.45921692 -928.4790163 879.11531067 C-923.74352903 884.21332329 -918.21466215 887.70958404 -912.2212038 891.18562317 C-911.03204365 891.88365051 -911.03204365 891.88365051 -909.81886005 892.59577942 C-895.66020684 900.29940604 -880.1876381 901.31947115 -864.39429951 901.35920715 C-863.26747257 901.36589417 -862.14064564 901.37258118 -860.97967243 901.37947083 C-858.55115836 901.39343422 -856.12263184 901.40535529 -853.69409847 901.41541862 C-849.83681039 901.43197521 -845.97961407 901.45521841 -842.12237263 901.48031616 C-831.16130433 901.55068494 -820.20019973 901.61108503 -809.23902607 901.66242981 C-802.51541236 901.69400541 -795.79191953 901.73573964 -789.06839275 901.7826252 C-786.52221031 901.79852138 -783.97600315 901.81089917 -781.42978573 901.81953239 C-739.9387512 901.96224589 -739.9387512 901.96224589 -730.26905537 911.01277161 C-724.85568209 916.95833519 -721.13249935 923.242028 -717.4712038 930.37312317 C-716.24401383 932.70811326 -715.01613905 935.04274356 -713.78761005 937.37702942 C-712.88292988 939.10977112 -712.88292988 939.10977112 -711.95997334 940.8775177 C-709.50165088 945.55461251 -706.95741691 950.18238488 -704.4087038 954.81062317 C-698.75083402 965.1414282 -693.22938767 975.54340374 -687.71461201 985.95100403 C-684.26745692 992.45558494 -680.81509027 998.9569622 -677.32667255 1005.43952942 C-669.94642689 1019.15570064 -662.69423473 1032.92839108 -655.56139851 1046.77416992 C-652.45607577 1052.80190047 -649.32721026 1058.81588517 -646.1587038 1064.81062317 C-628.84808445 1097.59972907 -611.89068062 1130.59336062 -595.42506123 1163.81477356 C-595.08735203 1164.49445694 -594.74964283 1165.17414032 -594.40170002 1165.87442017 C-593.49663419 1167.69641692 -592.59393529 1169.5195889 -591.69141865 1171.34284973 C-590.24103431 1174.27556691 -590.24103431 1174.27556691 -588.2212038 1177.18562317 C-579.53520738 1169.07491909 -570.90685394 1160.94021664 -562.55323505 1152.48640442 C-560.54213244 1150.50225126 -558.49644371 1148.64033041 -556.3462038 1146.81062317 C-552.60577158 1143.62432905 -549.17316612 1140.17682348 -545.7212038 1136.68562317 C-541.73344098 1132.6526348 -537.70625469 1128.7915985 -533.3774538 1125.12312317 C-530.37505677 1122.42531714 -527.55859798 1119.55518279 -524.7212038 1116.68562317 C-521.33114263 1113.25717489 -517.96926398 1109.86301597 -514.2837038 1106.74812317 C-510.37850425 1103.43989679 -506.81839212 1099.82048824 -503.2212038 1096.18562317 C-499.05473686 1091.97551688 -494.86834979 1087.91321106 -490.34229755 1084.08796692 C-486.74382919 1080.86061131 -483.3959685 1077.37937344 -479.99830341 1073.94319153 C-476.58064566 1070.50174152 -473.07842172 1067.25953665 -469.3774538 1064.12312317 C-466.37505677 1061.42531714 -463.55859798 1058.55518279 -460.7212038 1055.68562317 C-457.33114263 1052.25717489 -453.96926398 1048.86301597 -450.2837038 1045.74812317 C-446.37850425 1042.43989679 -442.81839212 1038.82048824 -439.2212038 1035.18562317 C-435.05473686 1030.97551688 -430.86834979 1026.91321106 -426.34229755 1023.08796692 C-422.74382919 1019.86061131 -419.3959685 1016.37937344 -415.99830341 1012.94319153 C-412.58064566 1009.50174152 -409.07842172 1006.25953665 -405.3774538 1003.12312317 C-402.37505677 1000.42531714 -399.55859798 997.55518279 -396.7212038 994.68562317 C-393.33114263 991.25717489 -389.96926398 987.86301597 -386.2837038 984.74812317 C-382.37850425 981.43989679 -378.81839212 977.82048824 -375.2212038 974.18562317 C-371.05473686 969.97551688 -366.86834979 965.91321106 -362.34229755 962.08796692 C-358.79054209 958.90250668 -355.47239629 955.47788667 -352.13892841 952.0662384 C-349.2909765 949.17234466 -346.38239866 946.42348014 -343.30323505 943.77546692 C-339.82092151 940.76767375 -336.59182955 937.58634971 -333.38770771 934.28620911 C-318.92953917 919.39640021 -306.70743177 911.25475601 -285.5628984 910.93731534 C-283.62366024 910.91550276 -283.62366024 910.91550276 -281.64524555 910.89324951 C-280.23691867 910.87443156 -278.82859586 910.85530718 -277.42027688 910.83590662 C-273.51396407 910.78369892 -269.60759869 910.73815995 -265.70118418 910.69429822 C-263.16475339 910.66547822 -260.628346 910.63506502 -258.09193873 910.60424793 C-209.7242784 910.0204865 -161.35313011 909.81839577 -112.9828401 909.57522789 C-97.62212242 909.49791456 -82.26143854 909.41464174 -66.9007561 909.33065923 C-61.13039196 909.29912627 -55.36002714 909.2677175 -49.58966242 909.23629145 C-48.13504853 909.22836941 -46.68043465 909.22044599 -45.22582077 909.21252121 C-28.25732765 909.12008837 -11.28882829 909.02883495 5.6796751 908.93830872 C6.4178876 908.93436859 7.1561001 908.93042847 7.91668267 908.92636895 C25.2144606 908.83406983 42.51224498 908.74318332 59.8100462 908.65534973 C60.55951618 908.6515441 61.30898616 908.64773847 62.08116736 908.64381752 C68.12914748 908.6131196 74.17712787 908.58247388 80.22510832 908.55184049 C105.18902525 908.4253592 130.15290113 908.29247077 155.11674426 908.15215284 C158.63954296 908.13235826 162.16234211 908.11264477 165.68514156 908.09298515 C166.37804251 908.08911705 167.07094346 908.08524894 167.78484141 908.08126362 C178.88143781 908.01952033 189.97805777 907.96461215 201.07470294 907.912454 C212.193642 907.86006981 223.31252999 907.80068175 234.43139707 907.73460335 C240.44085136 907.69910711 246.45028 907.66669903 252.45979214 907.6427021 C257.96567906 907.62065434 263.4714434 907.58969017 268.97724368 907.55183708 C270.96036138 907.53974421 272.94350185 907.53083847 274.92664944 907.52557523 C300.95983752 907.45188305 324.1240145 904.44248329 344.7787962 887.18562317 C345.44524151 886.66484192 346.11168682 886.14406067 346.79832745 885.60749817 C355.17911024 878.79707901 361.11860083 869.98085546 366.0912962 860.49812317 C366.56115948 859.6377948 366.56115948 859.6377948 367.04051495 858.76008606 C373.27940808 846.22730955 374.37333381 832.24095753 374.24777508 818.50279236 C374.24816085 816.89579551 374.2503078 815.28879831 374.25403494 813.68180573 C374.25911034 809.3161463 374.23939163 804.95091578 374.21513709 800.58533412 C374.19328307 795.85954643 374.1947563 791.13375468 374.19314289 786.40792465 C374.18628436 777.14427493 374.15777805 767.88081197 374.12202542 758.61723366 C374.08063415 747.65847046 374.0620286 736.69969846 374.04354014 725.74087699 C373.99732364 699.164815 373.90536743 672.58897287 373.80444145 646.01307106 C373.77921371 639.34314967 373.75540389 632.67322376 373.73195934 626.0032959 C373.53021173 568.75950578 373.25547299 511.51622291 372.94457757 454.27293038 C372.8630268 439.23375133 372.78488431 424.19455703 372.70872784 409.15534973 C372.70330765 408.08588815 372.69788746 407.01642657 372.69230302 405.91455707 C372.67043289 401.59923983 372.6485714 397.28392254 372.62671993 392.96860521 C372.42285146 352.72344232 372.20626432 312.47836895 371.97323322 272.23336411 C371.95098186 268.38668073 371.92875384 264.53999721 371.90654278 260.6933136 C371.90109774 259.75114614 371.89565269 258.80897867 371.89004265 257.83826068 C371.80534757 243.15413262 371.72757487 228.46997765 371.65324018 213.78579383 C371.5816422 199.66360152 371.50342189 185.54146011 371.41766995 171.41934645 C371.36799346 163.20666064 371.32345115 154.99398651 371.28655781 146.7812331 C371.25865499 140.70266156 371.22071992 134.62419647 371.17882943 128.54570341 C371.16357498 126.10832667 371.15154009 123.67092711 371.14312148 121.23351717 C371.04728223 94.57775352 368.19287699 72.00314824 349.7787962 51.18562317 C349.26059307 50.57331848 348.74238995 49.96101379 348.2084837 49.33015442 C336.43648878 36.40462231 317.82028417 28.45546886 300.7787962 26.18562317 C297.05208812 26.04319026 293.32825911 26.05940264 289.59924603 26.07209778 C287.8985385 26.07187715 287.8985385 26.07187715 286.16347325 26.07165205 C282.34911236 26.07235245 278.53479917 26.08020907 274.72044659 26.08796692 C271.97313655 26.09043001 269.22582654 26.09134773 266.47851562 26.09230614 C260.51724621 26.09514824 254.55598919 26.10156421 248.59472561 26.11028671 C239.816895 26.12304557 231.03906764 26.12964953 222.26122952 26.13458346 C208.55201968 26.14231237 194.84281418 26.15286635 181.13360798 26.16542555 C144.88319958 26.19843291 108.63278182 26.20624979 72.38235989 26.20885712 C69.63925379 26.20906117 66.8961477 26.20930473 64.1530416 26.20955229 C-35.21354718 26.21788296 -134.57674312 25.88199929 -233.94116879 25.20781994 C-237.23277019 25.1855449 -240.52437295 25.16348031 -243.81597614 25.14147186 C-342.69294396 24.47935085 -441.56484635 23.48401076 -598.25992723 21.28352199 C-603.47529627 21.20809908 -608.69066961 21.13297977 -613.90604496 21.05799484 C-676.44329346 20.15832714 -738.9783701 19.20604478 -801.50729084 17.82795715 C-805.14003044 17.74813595 -808.77277603 17.66859718 -812.40552998 17.58943176 C-813.69618923 17.56130248 -813.69618923 17.56130248 -815.01292241 17.53260493 C-831.58137879 17.17452892 -848.1494602 16.95008913 -864.7212038 16.81062317 C-865.84870391 16.80033396 -866.97620401 16.79004475 -868.13787079 16.77944374 C-869.21305623 16.77044737 -870.28824167 16.761451 -871.39600849 16.75218201 C-872.33876133 16.74415369 -873.28151417 16.73612537 -874.25283527 16.72785378 C-898.85997841 16.69884201 -923.21834325 25.57285588 -940.2915163 43.81843567 Z " fill="#000000" transform="translate(978.2212038040161,-0.1856231689453125)"/>
<path d="M0 0 C1.4587571 1.37455041 2.9171366 2.74950176 4.375 4.125 C5.64266191 5.19128181 6.91345141 6.25385756 8.1875 7.3125 C47.51644226 41.90301548 68.68826626 94.75952563 72.375 146.125 C74.73515481 194.15892956 61.65407024 243.88779004 33.375 283.125 C32.776875 283.98351562 32.17875 284.84203125 31.5625 285.7265625 C22.72464039 298.2100392 12.70501201 309.86752739 2.77392578 321.48779297 C1.29354166 323.22033326 -0.18331358 324.95584661 -1.66015625 326.69140625 C-6.90129734 332.83973159 -12.19472788 338.92716001 -17.625 344.91015625 C-19.42103529 346.89912502 -21.18453303 348.91063194 -22.9375 350.9375 C-26.56512996 355.10380355 -30.32071248 359.14772097 -34.07470703 363.19970703 C-39.40449539 368.95601174 -44.65762875 374.77958669 -49.86328125 380.6484375 C-54.19147744 385.50737969 -58.61616477 390.19689535 -63.2890625 394.7265625 C-65.22160766 396.71081456 -67.02355126 398.72801397 -68.8269043 400.8269043 C-72.30764921 404.81670702 -75.9622078 408.5761785 -79.73046875 412.29296875 C-80.37695877 412.93567215 -81.02344879 413.57837555 -81.68952942 414.24055481 C-83.72807158 416.26702101 -85.7698537 418.29017132 -87.8125 420.3125 C-90.51725271 422.99055793 -93.21860204 425.67198328 -95.91796875 428.35546875 C-96.83838203 429.26343452 -96.83838203 429.26343452 -97.77738953 430.18974304 C-100.96136476 433.35551351 -103.86660435 436.57150932 -106.625 440.125 C-107.8226143 441.24311528 -109.05187366 442.32844229 -110.3125 443.375 C-113.39305335 446.00404368 -116.28333958 448.73916869 -119.125 451.625 C-122.41354528 454.95269463 -125.78881624 458.07836441 -129.33984375 461.12109375 C-131.68978084 463.18180781 -133.97533126 465.29974187 -136.25927734 467.43286133 C-141.66425322 472.48007403 -147.17560795 477.28157508 -152.9453125 481.9140625 C-155.75753315 484.2343495 -158.44297263 486.65571134 -161.125 489.125 C-165.53656385 493.18038943 -170.07687882 497.0097374 -174.73828125 500.7734375 C-177.92511771 503.36948019 -181.05835825 506.02254397 -184.1875 508.6875 C-188.68154943 512.50675545 -193.22508675 516.24656389 -197.84765625 519.91015625 C-200.68459388 522.17252424 -203.49896038 524.46073067 -206.31079102 526.75415039 C-214.34388359 533.3050875 -222.44811823 539.75476005 -230.625 546.125 C-231.68920166 546.95499512 -231.68920166 546.95499512 -232.77490234 547.80175781 C-242.36390993 555.27891292 -251.96960197 562.73371204 -261.625 570.125 C-262.38119629 570.70475586 -263.13739258 571.28451172 -263.91650391 571.88183594 C-273.61044348 579.31027221 -283.33011943 586.705004 -293.125 594 C-293.90762207 594.5887793 -294.69024414 595.17755859 -295.49658203 595.78417969 C-297.51201509 597.276601 -299.55387694 598.71142036 -301.625 600.125 C-302.45128906 600.70894531 -303.27757812 601.29289063 -304.12890625 601.89453125 C-307.95517315 602.24781724 -309.84203544 600.22002662 -312.75244141 597.88256836 C-313.51476074 597.2406958 -314.27708008 596.59882324 -315.0625 595.9375 C-316.26011963 594.96598999 -316.26011963 594.96598999 -317.48193359 593.97485352 C-319.10881693 592.65498143 -320.73027967 591.32839921 -322.34619141 589.99511719 C-324.8901407 587.90741079 -327.47421856 585.8788102 -330.07446289 583.86206055 C-336.35204656 578.99311433 -342.51247092 573.98170495 -348.66674805 568.95849609 C-352.92831022 565.48573145 -357.22668301 562.06693258 -361.5625 558.6875 C-372.62628374 550.04863341 -383.40146835 541.04952676 -394.09399414 531.95703125 C-397.40804071 529.14214765 -400.75304856 526.37017661 -404.125 523.625 C-410.36351256 518.54210192 -416.49967867 513.34318875 -422.625 508.125 C-423.21249023 507.62532715 -423.79998047 507.1256543 -424.40527344 506.61083984 C-431.9121438 500.2224891 -439.33116986 493.75684886 -446.625 487.125 C-453.52110277 480.8908756 -453.52110277 480.8908756 -460.5 474.75 C-470.99832058 465.57105735 -480.97455559 455.93550113 -490.81762695 446.06274414 C-492.94824634 443.92672643 -495.08421223 441.79615882 -497.22070312 439.66601562 C-498.6018835 438.28417493 -499.98275389 436.90202433 -501.36328125 435.51953125 C-501.98946854 434.89536819 -502.61565582 434.27120514 -503.26081848 433.62812805 C-507.0374782 429.83167355 -510.62326212 425.91730876 -514.11405945 421.85612488 C-516.01953284 419.67297321 -518.04570738 417.64222418 -520.125 415.625 C-523.5538279 412.24258601 -526.74548518 408.74429558 -529.87890625 405.08984375 C-531.72115675 403.01679676 -533.64901662 401.07064198 -535.625 399.125 C-538.83854954 395.95462675 -541.83999834 392.66932165 -544.78515625 389.25 C-548.33391341 385.15122316 -551.99155081 381.14861823 -555.625 377.125 C-560.39597975 371.84170028 -565.14861592 366.54715589 -569.8203125 361.17578125 C-571.85458141 358.86411203 -573.9272231 356.5896857 -576 354.3125 C-579.12922827 350.84969918 -582.13000349 347.31820997 -585.0625 343.6875 C-588.13836588 339.88412497 -591.31253166 336.22417348 -594.625 332.625 C-598.74200099 328.15165889 -602.60238931 323.52792622 -606.41796875 318.796875 C-608.54123338 316.2264095 -610.74311849 313.76580637 -613 311.3125 C-617.61725856 306.24399104 -621.81660093 300.90025257 -626.0078125 295.48046875 C-628.12791145 292.74143522 -630.33272661 290.0882472 -632.5625 287.4375 C-660.47180226 252.53654501 -674.11245172 207.51414873 -674 163.25 C-673.99912384 162.40049774 -673.99824768 161.55099548 -673.99734497 160.67575073 C-673.81284982 106.12710929 -652.27087845 56.88256107 -614.0625 18.3125 C-608.54965683 12.85153479 -602.75692755 7.88469312 -596.625 3.125 C-595.33561448 2.09545649 -594.0465762 1.06547803 -592.7578125 0.03515625 C-551.02508988 -32.98905932 -498.35580795 -47.50888985 -445.47265625 -42.10351562 C-412.33230511 -38.1623832 -379.66551666 -26.71492582 -352.625 -6.875 C-352.1000293 -6.48989258 -351.57505859 -6.10478516 -351.03417969 -5.70800781 C-335.33728232 5.88764982 -319.02497034 19.6159516 -307.7890625 35.71875 C-307.21285156 36.41484375 -307.21285156 36.41484375 -306.625 37.125 C-305.965 37.125 -305.305 37.125 -304.625 37.125 C-303.25149652 35.42245942 -301.95267455 33.65951383 -300.6875 31.875 C-296.23023114 25.75398731 -291.33483111 20.13773738 -286.10058594 14.66796875 C-285.10910187 13.63120844 -284.12283023 12.5894404 -283.14160156 11.54296875 C-270.1043231 -2.32970814 -255.03463891 -13.30586391 -238.625 -22.875 C-237.74158936 -23.39803711 -237.74158936 -23.39803711 -236.84033203 -23.93164062 C-164.1046355 -66.56629379 -62.69611922 -56.2731223 0 0 Z M-610.625 21.125 C-611.28242187 21.74117187 -611.93984375 22.35734375 -612.6171875 22.9921875 C-626.24745108 36.11995288 -636.93147365 52.41778182 -645.625 69.125 C-646.00543457 69.85315918 -646.38586914 70.58131836 -646.77783203 71.33154297 C-670.89760057 118.1439347 -673.12676634 172.06118141 -657.35107422 221.88916016 C-653.79734275 232.8323588 -648.98124456 242.97325462 -643.625 253.125 C-643.31191895 253.7245752 -642.99883789 254.32415039 -642.67626953 254.94189453 C-632.8354093 273.60775065 -618.73002428 289.36509421 -604.6328125 304.90234375 C-602.79477581 306.93705752 -600.98563935 308.99254889 -599.1875 311.0625 C-595.53321138 315.25942081 -591.77755027 319.3615276 -588.02734375 323.47265625 C-586.05558156 325.64960996 -584.11134663 327.84338674 -582.1875 330.0625 C-578.79688928 333.9636968 -575.30402401 337.76842064 -571.80395508 341.57104492 C-568.97012108 344.65142488 -566.16172043 347.75176994 -563.375 350.875 C-558.78135766 355.99456919 -554.07305839 361.00330639 -549.36010742 366.01269531 C-545.27393297 370.35774796 -541.21930096 374.72950566 -537.1875 379.125 C-533.40151768 383.24972811 -529.52974277 387.26071016 -525.53443909 391.18312073 C-523.77982396 392.96754568 -522.15372386 394.79969577 -520.53491211 396.70678711 C-516.04577392 401.86824715 -511.21935267 406.67407432 -506.37890625 411.50390625 C-505.39901947 412.48446881 -504.41928099 413.46517959 -503.43968201 414.44602966 C-501.3981736 416.48900213 -499.35489434 418.53018169 -497.31030273 420.57006836 C-494.71047596 423.16419866 -492.11516627 425.76279434 -489.52118015 428.3627634 C-487.50250604 430.38507825 -485.48142267 432.4049719 -483.4596386 434.42417717 C-482.04267676 435.84016246 -480.62770183 437.25813515 -479.21278381 438.67616272 C-474.71604722 443.15675045 -470.175359 447.51666236 -465.34771729 451.64039612 C-462.41617465 454.16674192 -459.62692469 456.84489003 -456.8125 459.5 C-451.78811299 464.20653274 -446.63516609 468.65358064 -441.2578125 472.95703125 C-438.51530846 475.21532463 -435.9156241 477.58281334 -433.3125 480 C-428.61959055 484.32365334 -423.71947026 488.26114992 -418.67651367 492.15966797 C-415.38605228 494.71233952 -412.20628027 497.31862949 -409.125 500.125 C-405.02749031 503.84590035 -400.70757919 507.24383892 -396.33984375 510.63671875 C-391.53135803 514.38345815 -386.81817061 518.23510293 -382.125 522.125 C-375.27053741 527.799224 -368.33042451 533.34575928 -361.30908203 538.81152344 C-359.06239032 540.56379966 -356.82432169 542.32691043 -354.58618164 544.09008789 C-351.60255769 546.43944166 -348.61384222 548.78229085 -345.625 551.125 C-344.61228027 551.91946533 -344.61228027 551.91946533 -343.57910156 552.72998047 C-339.09739559 556.24253034 -334.60356065 559.7388428 -330.09570312 563.21777344 C-328.37390398 564.54689349 -326.65399451 565.87846359 -324.93554688 567.21191406 C-322.21482624 569.31830943 -319.48384193 571.41067387 -316.75 573.5 C-315.89970215 574.1609668 -315.0494043 574.82193359 -314.17333984 575.50292969 C-313.37621582 576.10782227 -312.5790918 576.71271484 -311.7578125 577.3359375 C-310.70424561 578.14490479 -310.70424561 578.14490479 -309.62939453 578.97021484 C-307.4328856 580.45780308 -307.4328856 580.45780308 -303.625 580.125 C-301.88263122 579.2406607 -301.88263122 579.2406607 -300.26171875 577.921875 C-299.62991699 577.44226318 -298.99811523 576.96265137 -298.34716797 576.46850586 C-297.67572754 575.94264893 -297.00428711 575.41679199 -296.3125 574.875 C-295.25506592 574.06397827 -295.25506592 574.06397827 -294.17626953 573.23657227 C-288.1444445 568.58919982 -282.19529011 563.83621017 -276.26953125 559.0546875 C-272.76830782 556.23175051 -269.23183584 553.45597881 -265.6875 550.6875 C-259.92907082 546.18306709 -254.25002308 541.58646396 -248.58837891 536.96118164 C-244.29038121 533.45666842 -239.94452795 530.02351026 -235.5625 526.625 C-229.88290759 522.20798916 -224.43413765 517.56134012 -219.02148438 512.82250977 C-214.56496106 508.92305187 -210.022202 505.15113417 -205.421875 501.421875 C-200.35283665 497.25903345 -195.40048565 492.95973527 -190.43212891 488.67773438 C-188.64075856 487.13854018 -186.84304113 485.60712881 -185.04296875 484.078125 C-178.33297894 478.3717307 -171.75557365 472.55492646 -165.2890625 466.57421875 C-163.09409223 464.55626221 -160.8783379 462.57696555 -158.625 460.625 C-150.22742276 453.31824207 -142.11836835 445.76841588 -134.34106445 437.80419922 C-131.57281402 434.98904443 -128.73937132 432.33265042 -125.73828125 429.765625 C-121.37340893 425.99099418 -117.4712685 421.86360638 -113.5625 417.625 C-109.15340452 412.87151037 -104.71092061 408.18136452 -100.10571289 403.6171875 C-98.43954145 401.93810426 -96.89076096 400.19058181 -95.375 398.375 C-92.44218399 394.9665922 -89.32400193 391.78129812 -86.125 388.625 C-82.46461927 385.00818062 -78.96351201 381.3225814 -75.625 377.40625 C-72.90658921 374.30556269 -70.07267079 371.31809562 -67.25 368.3125 C-62.58861144 363.33489489 -58.19627684 358.22874225 -53.93359375 352.90234375 C-51.27219042 349.70055396 -48.47017976 346.66285458 -45.625 343.625 C-41.22124749 338.91751667 -37.06423295 334.0882803 -33.02734375 329.05859375 C-30.17539267 325.5759673 -27.21678752 322.19719356 -24.25 318.8125 C-19.61534101 313.5080926 -15.16250709 308.10580176 -10.85986328 302.52929688 C-8.37429701 299.31784143 -5.83874507 296.16631534 -3.21484375 293.06640625 C4.8434671 283.53863872 11.91383311 273.79919475 18.375 263.125 C18.76494141 262.49867676 19.15488281 261.87235352 19.55664062 261.22705078 C45.27056222 219.77594634 53.37909817 167.71351811 42.6953125 120.296875 C33.31347499 81.96664189 12.64015958 44.93768762 -18.625 20.125 C-19.52863281 19.38378906 -20.43226563 18.64257812 -21.36328125 17.87890625 C-59.75673579 -13.06278355 -109.06430274 -27.96608533 -158.125 -23.125 C-195.7141185 -18.89444055 -231.12727654 -3.86741243 -259.625 21.125 C-260.47320313 21.86363281 -261.32140625 22.60226563 -262.1953125 23.36328125 C-264.70420131 25.58445345 -267.1708679 27.84358096 -269.625 30.125 C-270.34042969 30.7746875 -271.05585937 31.424375 -271.79296875 32.09375 C-284.227744 43.8716792 -294.86846501 59.14896169 -303.2734375 74.046875 C-303.71945312 74.73265625 -304.16546875 75.4184375 -304.625 76.125 C-305.285 76.125 -305.945 76.125 -306.625 76.125 C-307.76318359 74.54296875 -307.76318359 74.54296875 -309.0234375 72.3125 C-309.73342896 71.08152588 -309.73342896 71.08152588 -310.45776367 69.82568359 C-310.96670166 68.93445801 -311.47563965 68.04323242 -312 67.125 C-319.3865323 54.51143824 -327.70233981 42.93413518 -337.67578125 32.2265625 C-339.42027706 30.34572333 -341.05967568 28.41881969 -342.6875 26.4375 C-345.98256396 22.5752529 -349.73611455 19.37368364 -353.625 16.125 C-354.39199219 15.45855469 -355.15898438 14.79210937 -355.94921875 14.10546875 C-368.8975541 3.10037515 -383.16449019 -5.86758824 -398.625 -12.875 C-399.3473584 -13.20983398 -400.0697168 -13.54466797 -400.81396484 -13.88964844 C-470.43926046 -45.92721155 -555.30857648 -31.61106557 -610.625 21.125 Z " fill="#000000" transform="translate(1003.625,202.875)"/>
<path d="M0 0 C0.66 0 1.32 0 2 0 C8.03731781 12.07463562 1.34415427 33.75075699 -2.47265625 45.81640625 C-13.89254339 79.62190702 -36.89913836 106.46552064 -61.05029297 131.93701172 C-63.03292229 134.03483513 -65.00442853 136.14256986 -66.97265625 138.25390625 C-83.59742698 156.08681249 -83.59742698 156.08681249 -90.62890625 162.12109375 C-95.66562286 166.50320639 -100.31710307 171.24615008 -105 176 C-110.21101145 181.28996617 -115.42293998 186.47966349 -121.06103516 191.31494141 C-124.53441681 194.33348588 -127.84987932 197.5206016 -131.1875 200.6875 C-137.9247843 207.05351912 -144.6933323 213.3818029 -151.52539062 219.64599609 C-152.9732145 220.97540524 -154.41634221 222.30992306 -155.859375 223.64453125 C-161.20075718 228.5558869 -166.67041983 233.22832465 -172.31640625 237.78515625 C-174.94708557 239.95632827 -177.47942424 242.20241357 -180 244.5 C-184.30341176 248.42209679 -188.76589526 252.09816428 -193.29296875 255.7578125 C-195.87303591 257.89483782 -198.34714485 260.10735745 -200.8125 262.375 C-205.18394828 266.35405056 -209.74010512 270.01028043 -214.40551758 273.63232422 C-218.98915487 277.19280075 -223.50536738 280.8279393 -228 284.5 C-235.26409492 290.42400663 -242.60581821 296.23952632 -250 302 C-250.70946777 302.55333008 -251.41893555 303.10666016 -252.14990234 303.67675781 C-256.73762877 307.25409799 -261.33001404 310.82536784 -265.92675781 314.39111328 C-267.20543525 315.38339829 -268.48355104 316.37640815 -269.76074219 317.37060547 C-273.48824644 320.27216729 -277.23514457 323.14715257 -281 326 C-281.77649902 326.58942383 -282.55299805 327.17884766 -283.35302734 327.78613281 C-285.93724751 329.74114727 -288.52995718 331.68438046 -291.125 333.625 C-291.95572021 334.2540625 -292.78644043 334.883125 -293.64233398 335.53125 C-294.42294189 336.11132812 -295.2035498 336.69140625 -296.0078125 337.2890625 C-297.05412842 338.07337646 -297.05412842 338.07337646 -298.12158203 338.87353516 C-300 340 -300 340 -303 340 C-301.5045292 336.40278644 -299.47293692 334.36902779 -296.5625 331.8125 C-295.66402344 331.02230469 -294.76554688 330.23210937 -293.83984375 329.41796875 C-291.13226301 327.11261459 -288.39034457 324.86055432 -285.625 322.625 C-281.06898641 318.94168761 -276.75922509 315.06847694 -272.47436523 311.07983398 C-269.30684144 308.14879145 -266.05920397 305.37986806 -262.6875 302.6875 C-256.65398983 297.83445921 -251.07590425 292.53733038 -245.4453125 287.23046875 C-242.31956818 284.2871576 -239.13126839 281.43169781 -235.87890625 278.62890625 C-231.86421955 275.14839824 -227.94386283 271.56026523 -224 268 C-222.33359149 266.49971321 -220.66692647 264.99971128 -219 263.5 C-217.75089844 262.37464844 -217.75089844 262.37464844 -216.4765625 261.2265625 C-214.89115379 259.80119505 -213.30287399 258.37901062 -211.7109375 256.9609375 C-204.54575186 250.56259447 -197.54598996 243.99152356 -190.55932617 237.3996582 C-188.65076958 235.6101702 -186.73421216 233.83160787 -184.80981445 232.05932617 C-172.84163545 220.99411189 -161.3267831 209.48079251 -149.81518555 197.94555664 C-146.98141914 195.10603827 -144.14310765 192.27111178 -141.30349636 189.43743992 C-139.08390017 187.22147553 -136.86671326 185.0031128 -134.65022469 182.78404045 C-133.60451338 181.73766999 -132.55808089 180.69201968 -131.51086235 179.64715767 C-125.79150498 173.93787624 -120.2592171 168.13817049 -115 162 C-113.7215678 160.60735373 -112.43491611 159.22210208 -111.1328125 157.8515625 C-110.15296387 156.81660645 -110.15296387 156.81660645 -109.15332031 155.76074219 C-108.48397461 155.05594727 -107.81462891 154.35115234 -107.125 153.625 C-102.08279985 148.29256814 -97.0860609 142.93245001 -92.203125 137.453125 C-88.98868091 133.8739213 -85.71491734 130.35033389 -82.44482422 126.82202148 C-79.38556626 123.51636396 -76.36681368 120.17961186 -73.375 116.8125 C-69.51462839 112.49755564 -65.44700938 108.43010606 -61.33203125 104.359375 C-58.72444019 101.72120917 -56.29274184 98.9812043 -53.88671875 96.16015625 C-51.61696569 93.56145347 -49.24198485 91.07293847 -46.875 88.5625 C-24.90229632 64.83198003 -8.74935976 37.08977602 -1.796875 5.421875 C-1 2 -1 2 0 0 Z " fill="#000000" transform="translate(1003,384)"/>
</svg>
