<?xml version="1.0" encoding="UTF-8"?>
<svg version="1.1" xmlns="http://www.w3.org/2000/svg" viewBox="0 0 1564 1181" width="1564" height="1181">
<path d="M0 0 C8.50924222 -0.11678823 17.01819496 -0.21266781 25.52808475 -0.26716423 C29.33863223 -0.2917276 33.14868928 -0.3237881 36.95895386 -0.37701416 C40.52411296 -0.4261758 44.08862127 -0.45021985 47.65410614 -0.45609283 C49.58533315 -0.46523469 51.51639379 -0.49919624 53.44732666 -0.53411865 C65.58103836 -0.50545813 76.06024003 3.45125213 84.77075195 12.05786133 C95.03078741 24.38367574 95.857242 37.61656763 96.05200195 53.00561523 C96.07910201 54.74454387 96.07910201 54.74454387 96.10674953 56.51860237 C96.16550408 60.35716059 96.21817449 64.19577642 96.27075195 68.03442383 C96.31064885 70.75963527 96.35178623 73.48482771 96.39283752 76.21002197 C96.49071358 82.76176236 96.58389121 89.31356122 96.6752407 95.86539555 C96.74955369 101.19017338 96.82561379 106.51492374 96.90280151 111.83966064 C97.26589847 136.90370996 97.6130956 161.96796301 97.94311523 187.0324707 C97.95433348 187.88068642 97.96555172 188.72890213 97.97710991 189.60282135 C98.19084533 205.99387963 98.37311955 222.38521284 98.53515625 238.77685547 C98.64849344 250.20985505 98.76396309 261.64279826 98.8966217 273.07559204 C100.10076727 377.39865111 99.96893479 481.7280224 99.95906557 593.80930099 C99.95827189 602.93279884 99.9583089 612.05629644 99.9587822 621.17979431 C99.96440724 736.61109275 99.93840627 852.0420067 98.86682177 1024.57502604 C98.83305587 1029.32249873 98.80006571 1034.06997666 98.76714706 1038.81745529 C98.63542943 1057.76568473 98.49320831 1076.71380146 98.33758974 1095.66184974 C98.30628485 1099.52698329 98.27639411 1103.39212556 98.24682236 1107.25727272 C98.20157723 1113.1134862 98.15131507 1118.96963373 98.09665072 1124.82576668 C98.0776866 1126.93043434 98.06033435 1129.03511724 98.04471147 1131.13981235 C98.02334961 1133.96967656 97.99600113 1136.79941745 97.9669342 1139.62921143 C97.95963053 1140.86166115 97.95963053 1140.86166115 97.95217931 1142.11900884 C97.91339067 1145.35218352 97.80038898 1147.96895024 96.77075195 1151.05786133 C97.50625275 1151.07800797 98.24175354 1151.0981546 98.99954224 1151.11891174 C120.72848174 1151.72993474 142.42658881 1152.7254112 164.13366699 1153.86419678 C167.47575126 1154.03869843 170.818003 1154.20986201 174.16025925 1154.38103294 C190.22122809 1155.20427447 206.28091959 1156.05629622 222.33551407 1156.99646187 C223.78429685 1157.08089345 225.23315686 1157.16401124 226.68209457 1157.24574089 C228.66647068 1157.35817924 230.65050842 1157.4765427 232.63452148 1157.59521484 C234.31120407 1157.69335228 234.31120407 1157.69335228 236.02175903 1157.79347229 C238.77075195 1158.05786133 238.77075195 1158.05786133 241.77075195 1159.05786133 C241.77075195 1161.69786133 241.77075195 1164.33786133 241.77075195 1167.05786133 C223.21311936 1168.83515285 204.63437921 1169.95616104 186.02075195 1170.93286133 C185.23061455 1170.97460857 184.44047714 1171.01635582 183.62639618 1171.05936813 C118.18842521 1174.51601776 52.71198069 1176.9586486 -12.79174805 1178.74536133 C-13.91369316 1178.77604328 -15.03563828 1178.80672523 -16.19158173 1178.83833694 C-23.78864272 1179.045492 -31.38584723 1179.24667241 -38.9831543 1179.44458008 C-39.90259512 1179.46888721 -40.82203594 1179.49319435 -41.76933861 1179.51823807 C-48.52185961 1179.69559995 -55.27470548 1179.85524771 -62.02783155 1180.00774813 C-64.49199598 1180.06384254 -66.95612715 1180.12130246 -69.42026138 1180.17870712 C-99.73365993 1180.87912701 -130.03365817 1181.23228492 -160.35487843 1181.25804996 C-163.78482256 1181.26107674 -167.21476404 1181.26519575 -170.64470673 1181.26955414 C-181.69525 1181.28318829 -192.7457863 1181.29284834 -203.79633737 1181.29675603 C-214.76343543 1181.30066808 -225.73044254 1181.31226918 -236.69750977 1181.33911133 C-308.82565945 1181.51120684 -380.9044989 1180.62940116 -453.01968895 1179.36142293 C-461.95802374 1179.20428672 -470.8963672 1179.04764928 -479.8347168 1178.89135742 C-480.83383179 1178.87386003 -481.83294678 1178.85636264 -482.86233798 1178.83833502 C-530.58498969 1178.00326196 -578.30968838 1177.36039679 -626.03565574 1176.74871898 C-632.70969807 1176.66315549 -639.38373202 1176.57695039 -646.05776405 1176.49058723 C-648.29729635 1176.46161204 -650.53682864 1176.43263685 -652.77636093 1176.40366167 C-653.88799018 1176.38927879 -654.99961943 1176.37489592 -656.14493441 1176.36007719 C-670.93800136 1176.16873776 -685.73107567 1175.97797333 -700.52415943 1175.78793812 C-753.77114077 1175.10376598 -807.01789873 1174.40314244 -860.2644043 1173.68286133 C-861.48426359 1173.66636181 -862.70412288 1173.64986228 -863.9609476 1173.63286278 C-965.16892951 1172.26305844 -1066.37228753 1170.66612777 -1167.57397822 1168.89335987 C-1174.17324535 1168.77784222 -1180.77252744 1168.66320849 -1187.37181854 1168.54906845 C-1209.35747899 1168.16874277 -1231.34301753 1167.78243112 -1253.32838863 1167.38571555 C-1258.85704852 1167.28613124 -1264.38574361 1167.18869363 -1269.91445732 1167.09214783 C-1276.45826073 1166.97779283 -1283.00199142 1166.86002713 -1289.54564801 1166.73754691 C-1292.82812901 1166.67616904 -1296.11062364 1166.61678778 -1299.39319682 1166.56052148 C-1302.90792719 1166.49998181 -1306.42249631 1166.43357678 -1309.93708801 1166.36552429 C-1311.4786168 1166.34101542 -1311.4786168 1166.34101542 -1313.05128759 1166.31601143 C-1313.97796053 1166.29681931 -1314.90463346 1166.2776272 -1315.8593874 1166.25785351 C-1316.66131183 1166.24325909 -1317.46323626 1166.22866467 -1318.28946143 1166.21362799 C-1320.22924805 1166.05786133 -1320.22924805 1166.05786133 -1322.22924805 1165.05786133 C-1322.22924805 1163.40786133 -1322.22924805 1161.75786133 -1322.22924805 1160.05786133 C-1292.8894104 1159.22483415 -1263.58027942 1158.93039638 -1234.22924805 1159.05786133 C-1234.23080273 1158.35124202 -1234.23235741 1157.64462271 -1234.2339592 1156.91659069 C-1234.27363396 1135.68594842 -1234.14374838 1114.45896668 -1233.95672441 1093.22925496 C-1233.93167096 1090.37233145 -1233.90706578 1087.51540439 -1233.88258934 1084.65847588 C-1233.76173037 1070.55657175 -1233.63685718 1056.45470521 -1233.51043463 1042.35284996 C-1233.47925815 1038.87149006 -1233.44820952 1035.39012904 -1233.41719437 1031.9087677 C-1232.5646617 936.28576921 -1231.59939915 840.66384682 -1230.40259998 725.53688886 C-1230.2335369 709.28857665 -1230.06650683 693.04024446 -1229.9005127 676.79190063 C-1229.70928898 658.07730261 -1229.51502474 639.36273868 -1229.31692392 620.64821213 C-1229.21427721 610.94545017 -1229.11283225 601.24267948 -1229.01483727 591.53986931 C-1228.93257605 583.39575616 -1228.84760693 575.25167692 -1228.7591191 567.10762895 C-1228.71444323 562.98878814 -1228.67097273 558.86994498 -1228.63102579 554.75105536 C-1228.53753886 545.18570423 -1228.41131374 535.62201812 -1228.22924805 526.05786133 C-1228.21176994 524.99730687 -1228.19429183 523.93675241 -1228.17628407 522.84405994 C-1228.12309182 520.07026422 -1228.04349081 517.29891664 -1227.95118713 514.52618408 C-1227.93258807 513.39996852 -1227.93258807 513.39996852 -1227.91361326 512.25100112 C-1227.49867221 502.57298769 -1222.36825307 493.94838699 -1215.4519043 487.36645508 C-1200.87540909 475.4727504 -1180.0894077 477.79440371 -1162.3659668 477.19067383 C-1160.06588878 477.11063228 -1157.76581463 477.0304799 -1155.46574402 476.95022583 C-1149.24568383 476.73444774 -1143.02547494 476.52330671 -1136.80519867 476.31385803 C-1132.90837944 476.1825794 -1129.01159249 476.05037072 -1125.11480713 475.91809082 C-1085.09407578 474.56390393 -1045.06991372 473.40318637 -1005.03873062 472.40590668 C-1001.12438845 472.30836322 -997.21006702 472.21001541 -993.29574585 472.1116333 C-987.11097533 471.95677479 -980.92613019 471.80532413 -974.74120522 471.65676498 C-972.48579572 471.60243672 -970.23040203 471.54744709 -967.97502708 471.49170303 C-957.36421606 471.23094688 -946.75403818 471.00757753 -936.13989258 470.95532227 C-934.93064778 470.94408514 -934.93064778 470.94408514 -933.6969738 470.932621 C-922.69594339 470.91941647 -914.26112695 473.8191746 -905.22924805 480.05786133 C-904.34237305 480.63536133 -903.45549805 481.21286133 -902.54174805 481.80786133 C-890.25724916 493.76034673 -888.2004419 507.98402092 -887.93212891 524.27661133 C-887.91248707 525.28243413 -887.89284523 526.28825693 -887.87260818 527.32455921 C-887.80801018 530.73558837 -887.75052873 534.14668779 -887.6940918 537.55786133 C-887.67286066 538.78446661 -887.65162952 540.01107189 -887.62975502 541.27484703 C-887.45893204 551.20228715 -887.30929143 561.12997882 -887.16674805 571.05786133 C-887.15573626 571.81766564 -887.14472446 572.57746995 -887.13337898 573.36029863 C-886.09215052 645.3184217 -885.97899278 717.2810389 -885.97924805 789.24536133 C-885.97924427 790.30986924 -885.97924427 790.30986924 -885.97924042 791.39588237 C-885.98011989 874.03676441 -886.30543942 956.67088686 -887.16674805 1039.30786133 C-887.17764906 1040.36224128 -887.18855007 1041.41662124 -887.19978142 1042.5029521 C-887.34389268 1056.44161463 -887.49686317 1070.38014671 -887.66238236 1084.31857181 C-887.69333089 1086.94637822 -887.72336422 1089.5741937 -887.75319481 1092.20201302 C-887.98604549 1112.50063237 -888.41457113 1132.77311404 -889.22924805 1153.05786133 C-888.3383548 1153.03018677 -887.44746155 1153.00251221 -886.52957153 1152.97399902 C-869.11584789 1152.44132601 -851.70480991 1151.98701068 -834.28393555 1151.77661133 C-833.49826454 1151.76706421 -832.71259354 1151.75751709 -831.90311432 1151.74768066 C-825.50085047 1151.67094158 -819.09851499 1151.6010902 -812.69616699 1151.53179932 C-807.87044836 1151.47934319 -803.04477278 1151.42419175 -798.21912003 1151.36598206 C-796.06120727 1151.34088246 -793.90328388 1151.31925428 -791.74533081 1151.29797363 C-775.5684735 1151.11610222 -759.39872909 1150.5577936 -743.22924805 1150.05786133 C-743.22262775 1148.97997093 -743.21600746 1147.90208054 -743.20918655 1146.79152679 C-742.97495988 1108.71357948 -742.73003101 1070.6357028 -742.47924805 1032.55786133 C-742.47413249 1031.78080662 -742.46901694 1031.00375191 -742.46374637 1030.20315009 C-741.81396338 931.53135772 -741.06844178 832.86043075 -739.26760743 615.0495783 C-739.18933785 605.6984483 -739.11121173 596.34731711 -739.03315735 586.9961853 C-738.76463392 554.83018953 -738.49480133 522.66420507 -738.22314819 490.49823556 C-738.1631459 483.39191551 -738.10330439 476.28559413 -738.04362659 469.17927134 C-738.00561819 464.65435525 -737.96753967 460.12943975 -737.92944128 455.60452441 C-737.91070013 453.37765573 -737.89198148 451.15078686 -737.87328552 448.92391779 C-737.77364425 437.06319262 -737.67172658 425.20249586 -737.56309795 413.34184933 C-737.52478674 409.13975549 -737.48659821 404.93766056 -737.44845581 400.73556519 C-737.43428514 399.1817628 -737.43428514 399.1817628 -737.41982818 397.59657047 C-737.29784067 384.13157382 -737.19788107 370.66661481 -737.12037427 357.20128728 C-737.06538312 347.66118844 -737.00133451 338.12117855 -736.93116968 328.58117937 C-736.88213022 321.81373696 -736.84533828 315.04637968 -736.81798664 308.27881685 C-736.79807332 304.11657945 -736.76596418 299.95450107 -736.73046927 295.79237013 C-736.71655215 293.87311716 -736.70761281 291.95382022 -736.70417829 290.03451987 C-736.67294282 274.80350475 -736.12969735 261.79388515 -725.22924805 250.05786133 C-713.78464064 240.28807451 -701.16986726 239.99742228 -686.78417969 239.60888672 C-685.56018715 239.57290501 -684.33619461 239.53692329 -683.07511139 239.49985123 C-679.71770284 239.40197562 -676.36023271 239.3074277 -673.00268674 239.21446252 C-669.41602043 239.11442107 -665.82947254 239.01028315 -662.24290466 238.90678406 C-654.52308803 238.68488073 -646.80311461 238.46881841 -639.08309937 238.25395203 C-634.29487068 238.12062678 -629.50668565 237.98577624 -624.71850586 237.85070801 C-586.63366879 236.77732251 -548.54805468 235.7314239 -510.4577446 234.86991501 C-507.77894439 234.80899156 -505.10017889 234.7467059 -502.42141724 234.68411255 C-492.13592281 234.44558052 -481.85051288 234.23956805 -471.56329346 234.09182739 C-469.96623223 234.06858625 -468.36918648 234.04426297 -466.77215576 234.01901245 C-461.78785107 233.94060099 -456.80387382 233.87991486 -451.81907654 233.84378815 C-450.26625862 233.8304925 -448.71347353 233.81220348 -447.16078186 233.78835297 C-433.05448958 233.58099182 -421.58006641 235.59797423 -410.77612305 245.24926758 C-402.31416478 253.97741327 -398.28382194 264.15327306 -397.94799805 276.22412109 C-397.89289063 278.18610695 -397.89289063 278.18610695 -397.83666992 280.18772888 C-397.80035995 281.68739636 -397.76457936 283.18707672 -397.72924805 284.68676758 C-397.70934814 285.48217012 -397.68944824 286.27757267 -397.66894531 287.09707832 C-396.9002346 318.16534345 -396.63270644 349.24763538 -396.26124477 380.32263136 C-396.22899349 383.01662457 -396.19655878 385.71061551 -396.16407013 388.40460587 C-395.83599696 415.62217677 -395.52445074 442.83991414 -395.22924805 470.05786133 C-395.21659944 471.22151278 -395.21659944 471.22151278 -395.2036953 472.40867233 C-394.23413708 561.68239745 -393.94927168 650.9608703 -395.15000051 944.76466817 C-395.17221923 947.72409691 -395.19430731 950.68352663 -395.21639847 953.64295633 C-395.69540286 1017.78347006 -396.17714809 1081.9236569 -397.22924805 1146.05786133 C-395.77384818 1146.01490732 -395.77384818 1146.01490732 -394.28904629 1145.97108555 C-390.59924417 1145.86244092 -386.90940625 1145.75505318 -383.21955776 1145.64799595 C-381.63942297 1145.60198533 -380.05929735 1145.55565872 -378.47918224 1145.50897694 C-364.46052327 1145.09518674 -350.44223797 1144.80432143 -336.41870117 1144.61450195 C-334.97867757 1144.59478636 -333.5386548 1144.57500917 -332.09863281 1144.55517578 C-331.38672791 1144.54542725 -330.674823 1144.53567871 -329.94134521 1144.52563477 C-327.13545668 1144.48611858 -324.32963751 1144.44253451 -321.52380902 1144.39899486 C-304.04201282 1144.13141737 -286.56442095 1144.03237063 -269.08056641 1144.04638672 C-267.04453281 1144.04731063 -265.00849918 1144.04814778 -262.97246552 1144.04889679 C-258.05805864 1144.05088902 -253.14365382 1144.05404055 -248.22924805 1144.05786133 C-248.2321626 1143.12773444 -248.23507715 1142.19760756 -248.23808002 1141.23929501 C-248.45526845 1068.70966153 -248.10629346 996.18373539 -247.6784668 923.65551758 C-247.67133848 922.44672114 -247.66421016 921.2379247 -247.65686584 919.99249807 C-247.46684319 887.81440585 -247.26898195 855.63636273 -247.0682385 823.45833582 C-246.95355621 805.07320778 -246.84023167 786.68807183 -246.72780271 768.30292988 C-246.30288576 698.82908714 -245.868858 629.35530379 -243.72439543 311.70435673 C-243.65244304 301.55942347 -243.58073443 291.41448857 -243.50948715 281.26955032 C-243.34419416 257.73755977 -243.17758777 234.20558006 -243.00631779 210.67363214 C-242.99172228 208.66805554 -242.97712766 206.66247893 -242.96253395 204.65690231 C-242.95539284 203.67570889 -242.94825173 202.69451548 -242.94089422 201.68358892 C-242.89280948 195.06340428 -242.84577176 188.44321278 -242.79923058 181.82301712 C-242.67351161 164.00066208 -242.53939476 146.17846363 -242.3767271 128.35640287 C-242.282856 118.07074855 -242.20749124 107.78522038 -242.15365683 97.49927592 C-242.11511964 90.29415341 -242.06248845 83.08921463 -242.00005019 75.88426018 C-241.96369775 71.62306323 -241.93390802 67.36207282 -241.92128253 63.10073411 C-241.90950427 59.16295307 -241.87934433 55.22573262 -241.83538052 51.28818344 C-241.82259456 49.85542051 -241.8164033 48.42257962 -241.81762889 46.98976018 C-241.82215776 34.06882359 -239.52933031 23.48660086 -230.22924805 14.05786133 C-220.7012569 5.96438186 -210.23060275 4.62076232 -198.0769043 4.39770508 C-196.78583267 4.36298096 -195.49476105 4.32825684 -194.16456604 4.29248047 C-190.61866279 4.19746093 -187.07256674 4.11937897 -183.52619171 4.04435349 C-179.72888571 3.96109419 -175.93198371 3.86219097 -172.13500977 3.76513672 C-165.60004019 3.60014797 -159.06489624 3.44503023 -152.52954102 3.29614258 C-142.95164299 3.07761056 -133.37434603 2.83796704 -123.79706192 2.59417915 C-103.78664532 2.0854378 -83.77550506 1.61276356 -63.76373291 1.16070557 C-59.60880605 1.0667439 -55.45393809 0.970401 -51.29907227 0.8737793 C-36.85948261 0.5415401 -22.42041953 0.27727613 -7.97802734 0.10400391 C-5.31864285 0.07127036 -2.65932794 0.03676559 0 0 Z " fill="#000000" transform="translate(1322.229248046875,-0.05786132812500001)"/>
</svg>
