<?xml version="1.0" encoding="UTF-8"?>
<svg version="1.1" xmlns="http://www.w3.org/2000/svg" viewBox="0 0 1181 1181">
<path d="M0 0 C1.06154297 0.70890381 1.06154297 0.70890381 2.14453125 1.43212891 C17.81783914 12.00455168 32.38795317 23.8882428 46 37 C46.55316895 37.53125488 47.10633789 38.06250977 47.67626953 38.60986328 C55.00367216 45.68510408 61.69151895 52.98855039 68 61 C68.94157034 62.14264008 69.885728 63.28315149 70.83203125 64.421875 C99.66354894 99.33573492 119.07391366 141.99461805 129 186 C129.28931396 187.27520508 129.28931396 187.27520508 129.58447266 188.57617188 C146.63037167 265.6765416 131.80150536 348.43662573 90.01171875 415.33984375 C82.70148158 426.7708728 74.79654718 437.66517716 66 448 C65.16855469 449.01578125 64.33710937 450.0315625 63.48046875 451.078125 C51.44620516 465.64852614 38.00665887 479.48834174 23 491 C21.84215275 491.94306607 20.68742977 492.88997555 19.53515625 493.83984375 C11.04128985 500.81500551 2.29228524 507.1331352 -7 513 C-7.57621094 513.36657715 -8.15242188 513.7331543 -8.74609375 514.11083984 C-77.45597911 557.52193238 -162.71100618 573.82829095 -242.34912109 556.26123047 C-289.75637788 545.19795449 -337.92783583 523.98668728 -373.69921875 490.16015625 C-375.67546369 488.30470048 -377.69006538 486.53159554 -379.7421875 484.76171875 C-390.7761934 475.14045533 -401.06240237 464.59381823 -410 453 C-410.85046581 451.948576 -411.70347291 450.89920407 -412.55859375 449.8515625 C-449.25075337 404.59987272 -471.83869894 347.9746142 -477 290 C-477.16628906 288.25589844 -477.16628906 288.25589844 -477.3359375 286.4765625 C-483.32629934 213.13510544 -461.25095435 139.27481697 -415 82 C-411.01598345 77.40013161 -406.81055417 73.02377692 -402.56738281 68.66455078 C-400.92489617 66.9202402 -399.37322329 65.11995097 -397.828125 63.2890625 C-395.77148219 60.85995682 -393.69779278 58.67204795 -391.25 56.625 C-388.25983955 54.09010834 -385.36876075 51.48391311 -382.5 48.8125 C-378.25780685 44.96780882 -373.79878819 41.56594881 -369.1875 38.1875 C-364.02558595 34.40077233 -359.18920152 30.48724811 -354.5625 26.0625 C-286.48251917 -38.65903796 -182.98977145 -61.06475483 0 0 Z M-228 -22 C-229.02109863 -21.79632813 -230.04219727 -21.59265625 -231.09423828 -21.3828125 C-266.26811284 -14.19609621 -300.13329388 -1.05501144 -330 19 C-330.60763184 19.40637695 -331.21526367 19.81275391 -331.84130859 20.23144531 C-335.98747946 23.03464922 -340.01200786 25.9770543 -344 29 C-344.65774414 29.49226074 -345.31548828 29.98452148 -345.99316406 30.49169922 C-354.92668659 37.23069165 -362.38046705 43.95959668 -368.75634766 53.21191406 C-370.09994257 55.14369442 -371.48920891 57.03658395 -372.88671875 58.9296875 C-380.3918248 69.18646418 -386.87462419 79.87329092 -393 91 C-393.46293457 91.83015625 -393.92586914 92.6603125 -394.40283203 93.515625 C-429.66457539 157.04766416 -438.2236322 233.46294356 -418.68359375 303.35546875 C-407.72002045 340.89779311 -389.17182504 375.85585855 -363 405 C-362.5452832 405.50966309 -362.09056641 406.01932617 -361.62207031 406.54443359 C-352.91363185 416.2858184 -343.99576273 425.64073638 -333.7578125 433.796875 C-331.9800802 435.21704641 -330.2228031 436.66340172 -328.4921875 438.140625 C-315.54509705 449.14763156 -300.98525728 458.05713829 -286 466 C-285.36416992 466.3398291 -284.72833984 466.6796582 -284.07324219 467.02978516 C-225.12032524 498.30085297 -152.93790779 506.64155956 -88.86328125 487.1796875 C-76.52053306 483.27280562 -64.67252499 478.58239132 -53 473 C-52.33629395 472.69126953 -51.67258789 472.38253906 -50.98876953 472.06445312 C-34.45592249 464.36946011 -19.09358005 454.56030364 -5 443 C-4.46665039 442.56816406 -3.93330078 442.13632812 -3.38378906 441.69140625 C11.01072579 429.98579016 24.84001107 416.85872812 36 402 C36.4017041 401.48002441 36.8034082 400.96004883 37.21728516 400.42431641 C79.97308275 345.06782256 98.60601355 275.33921242 90 206 C82.41313409 149.76235643 57.41683994 97.80271412 18 57 C17.3198584 56.29262695 16.6397168 55.58525391 15.93896484 54.85644531 C6.50741137 45.09333823 -3.01360716 35.98346663 -14 28 C-14.8655249 27.35925537 -14.8655249 27.35925537 -15.74853516 26.70556641 C-50.17523195 1.22012916 -89.08191905 -14.89920768 -131 -23 C-131.89187012 -23.18079102 -132.78374023 -23.36158203 -133.70263672 -23.54785156 C-163.69982506 -29.41319101 -198.17866867 -28.16894579 -228 -22 Z " fill="#000000" transform="translate(760,343)"/>
<path d="M0 0 C22.10651929 48.38200997 26.57852377 99.9431597 7.96630859 150.47021484 C-1.96208832 176.46264758 -17.12837756 199.22602235 -35.921875 219.67578125 C-38.03618354 221.98358012 -38.03618354 221.98358012 -39.94140625 224.51953125 C-43.67722698 229.02094712 -48.43600787 232.37639086 -53 236 C-53.7115625 236.60070312 -54.423125 237.20140625 -55.15625 237.8203125 C-81.59807583 259.68566848 -118.46509254 267.64457091 -152.04296875 264.6875 C-165.66130346 263.0802782 -178.54197726 259.75711657 -191 254 C-190.9375 251.1875 -190.9375 251.1875 -190 248 C-185.43100932 245.72303478 -180.69803212 244.17282511 -175.8359375 242.6171875 C-174.46261392 242.17288518 -173.08949324 241.72795536 -171.71655273 241.2824707 C-171.00747772 241.05306793 -170.29840271 240.82366516 -169.56784058 240.58731079 C-155.71285776 236.0867311 -142.19845233 231.20723654 -129 225 C-128.31309082 224.67999023 -127.62618164 224.35998047 -126.91845703 224.03027344 C-101.84667757 212.24111188 -76.30865315 197.74631696 -55 180 C-53.89398437 179.12021484 -53.89398437 179.12021484 -52.765625 178.22265625 C-47.023592 173.4932686 -42.52553929 167.87590182 -38 162 C-37.55720703 161.42685059 -37.11441406 160.85370117 -36.65820312 160.26318359 C-7.58758751 122.39595462 4.48854593 75.13573911 -1.2890625 27.8125 C-2.21661802 21.06056434 -3.68482966 14.42280591 -5.1953125 7.78125 C-6 4 -6 4 -6 1 C-4 0 -4 0 0 0 Z " fill="#000000" transform="translate(764,521)"/>
<path d="M0 0 C4.52907808 1.03946054 4.91095918 1.80073101 7.375 5.5625 C8.56170926 7.64388716 9.70641013 9.74967259 10.8125 11.875 C11.33972656 12.885625 11.86695313 13.89625 12.41015625 14.9375 C24.12992529 38.91656709 25.47265409 61.68459564 21.00683594 87.65332031 C19.21067246 98.13231153 17.73796879 108.63076036 16.36199951 119.17266846 C14.12148942 136.28493729 11.51487528 153.30832181 8.5625 170.3125 C8.3898764 171.31620636 8.21725281 172.31991272 8.03939819 173.35403442 C7.54886391 176.19433183 7.04977921 179.03296322 6.546875 181.87109375 C6.32844688 183.13208389 6.32844688 183.13208389 6.10560608 184.41854858 C5.37615287 188.45871347 4.54214819 192.11685147 2.8125 195.875 C1.1625 195.875 -0.4875 195.875 -2.1875 195.875 C-3.79324135 191.39685239 -4.85996663 186.94062722 -5.703125 182.26953125 C-5.83944336 181.52913101 -5.97576172 180.78873077 -6.11621094 180.02589417 C-6.56296496 177.58086033 -7.00114971 175.13441086 -7.4375 172.6875 C-7.66560364 171.41836761 -7.66560364 171.41836761 -7.89831543 170.12359619 C-11.14562479 151.97280584 -13.71379204 133.74213936 -16.16197205 115.46913147 C-17.00264491 109.20524712 -17.86784237 102.94512662 -18.75390625 96.6875 C-18.87223816 95.84311371 -18.99057007 94.99872742 -19.11248779 94.12875366 C-19.80364783 89.27830203 -20.5926273 84.45682653 -21.48454285 79.63916016 C-24.56361026 62.77016885 -22.95480758 6.30131973 0 0 Z " fill="#000000" transform="translate(590.1875,985.125)"/>
<path d="M0 0 C10.53425502 1.86054703 21.09394892 3.29816963 31.7052002 4.64459229 C48.85930895 6.82665849 65.90222011 9.40418235 82.92602539 12.4440918 C83.89968048 12.61671539 84.87333557 12.78933899 85.87649536 12.9671936 C88.63251317 13.45819362 91.38697981 13.95692838 94.14086914 14.4597168 C95.35654068 14.67814491 95.35654068 14.67814491 96.59677124 14.90098572 C100.86841805 15.69595587 104.89193611 16.70145047 108.98852539 18.1940918 C108.98852539 19.8440918 108.98852539 21.4940918 108.98852539 23.1940918 C104.15654699 25.46755592 99.13643637 26.20919006 93.91821289 27.11206055 C92.90895248 27.29012741 91.89969208 27.46819427 90.85984802 27.6516571 C87.52896561 28.23560488 84.19645438 28.80944743 80.86352539 29.3815918 C79.72136566 29.57940247 78.57920593 29.77721313 77.4024353 29.98101807 C57.65221959 33.39086295 37.8543516 36.29881985 17.98217773 38.89794922 C15.98035513 39.1604802 13.97856386 39.42325024 11.97680664 39.6862793 C10.55068306 39.87298439 10.55068306 39.87298439 9.0957489 40.0634613 C1.92423825 41.0214823 -5.17384614 42.23394617 -12.27612305 43.61108398 C-36.47630603 47.38821058 -60.38535303 39.48589741 -81.01147461 27.1940918 C-81.8094043 26.76483398 -82.60733398 26.33557617 -83.42944336 25.89331055 C-85.01147461 24.1940918 -85.01147461 24.1940918 -85.61303711 20.76049805 C-85.01147461 17.1940918 -85.01147461 17.1940918 -82.65991211 14.97143555 C-81.57967773 14.36428711 -80.49944336 13.75713867 -79.38647461 13.1315918 C-78.79817871 12.79925537 -78.20988281 12.46691895 -77.60375977 12.12451172 C-52.49538649 -1.72735125 -27.9445985 -4.97589767 0 0 Z " fill="#000000" transform="translate(1072.011474609375,569.805908203125)"/>
<path d="M0 0 C0.875 3.1875 0.875 3.1875 0 7 C-3.28536384 10.0066057 -7.06813743 11.94978197 -11 14 C-12.12277344 14.60070312 -13.24554688 15.20140625 -14.40234375 15.8203125 C-37.60110116 27.6943461 -60.96484489 28.70168325 -86.17236328 24.19628906 C-96.60586529 22.34017876 -107.0635309 20.86704082 -117.57067871 19.49237061 C-133.48529193 17.40753064 -149.32020178 15.05312911 -165.125 12.25 C-166.38313507 12.02694183 -166.38313507 12.02694183 -167.66668701 11.79937744 C-172.78200214 10.88826452 -177.89234083 9.95308533 -183 9 C-184.08635742 8.79826172 -185.17271484 8.59652344 -186.29199219 8.38867188 C-192.87196655 7.12803345 -192.87196655 7.12803345 -194 6 C-194.04063832 4.33382885 -194.042721 2.66611905 -194 1 C-189.52185285 -0.60574119 -185.06562797 -1.67246984 -180.39453125 -2.515625 C-179.6543576 -2.65189804 -178.91418396 -2.78817108 -178.15158081 -2.92857361 C-175.70631603 -3.37536027 -173.25963531 -3.81358085 -170.8125 -4.25 C-169.96475006 -4.40240143 -169.11700012 -4.55480286 -168.24356079 -4.71182251 C-149.99406109 -7.97766559 -131.66184382 -10.52412599 -113.29187012 -13.00180054 C-105.86967361 -14.00696825 -98.46382794 -15.10029517 -91.0625 -16.25 C-89.60106567 -16.47659302 -89.60106567 -16.47659302 -88.11010742 -16.70776367 C-84.37439694 -17.29312953 -80.64247208 -17.88753558 -76.91772461 -18.53955078 C-49.19461613 -23.36902979 -23.1298035 -15.419869 0 0 Z " fill="#000000" transform="translate(194,587)"/>
<path d="M0 0 C1.65 0 3.3 0 5 0 C7.57140512 7.23618444 8.80006467 14.72076221 10.1875 22.25 C10.41418365 23.4711853 10.41418365 23.4711853 10.64544678 24.71704102 C13.7816933 41.72821909 16.18481678 58.82640979 18.49902344 75.96582031 C20.08677877 87.69349976 21.85523868 99.35071508 23.9375 111 C28.87401525 139.49988941 23.85881684 164.06740904 9 189 C8.58105469 189.77988281 8.16210938 190.55976563 7.73046875 191.36328125 C6 193 6 193 2.5703125 193.61328125 C-1 193 -1 193 -3.2578125 190.54296875 C-4.18207031 188.88201172 -4.18207031 188.88201172 -5.125 187.1875 C-5.45991455 186.59291992 -5.7948291 185.99833984 -6.13989258 185.38574219 C-7.12612365 183.6059126 -8.06816852 181.80878901 -9 180 C-9.47566406 179.10410156 -9.95132813 178.20820313 -10.44140625 177.28515625 C-21.5227151 154.74042445 -22.50922609 132.21533345 -18.19433594 107.91699219 C-16.36150945 97.54702369 -14.90842335 87.15373212 -13.54949951 76.71185303 C-11.33960289 59.77527385 -8.74782895 42.94053232 -5.75 26.125 C-5.5773764 25.14957245 -5.40475281 24.1741449 -5.22689819 23.16915894 C-4.73568771 20.40586176 -4.23692514 17.64406772 -3.734375 14.8828125 C-3.51594688 13.66237495 -3.51594688 13.66237495 -3.29310608 12.4172821 C-2.49968086 8.13598494 -1.49706227 4.1050333 0 0 Z " fill="#000000" transform="translate(588,0)"/>
<path d="M0 0 C3.14949542 3.14949542 1.9748914 13.64814227 2 18 C1.38000826 41.50089388 -7.34677656 61.57365405 -22.6875 79.0703125 C-29.06948998 86.37265716 -34.94367385 93.88887231 -40.63598633 101.74194336 C-46.27802082 109.48178674 -52.32394288 116.84310633 -58.47802734 124.17822266 C-60.55220626 126.66098221 -62.58840885 129.17386948 -64.625 131.6875 C-72.24995901 141.01319336 -80.11326235 150.13624743 -88.2578125 159.01171875 C-90.15162781 161.08536952 -90.15162781 161.08536952 -92 164 C-93.65 163.67 -95.3 163.34 -97 163 C-98.26974928 159.19075215 -97.5153678 157.84508158 -96.21875 154.078125 C-95.79650146 152.84449219 -95.37425293 151.61085938 -94.93920898 150.33984375 C-94.46024126 148.97629227 -93.98048029 147.61301922 -93.5 146.25 C-93.25790802 145.55471191 -93.01581604 144.85942383 -92.76638794 144.14306641 C-84.42307718 120.18891335 -75.31230591 96.46006371 -65.36401367 73.12646484 C-62.2128185 65.68568114 -59.43129948 58.13748092 -56.86157227 50.47631836 C-53.65418612 41.22194259 -48.74445577 33.29679875 -42.3125 25.9375 C-41.79631104 25.34316162 -41.28012207 24.74882324 -40.74829102 24.13647461 C-33.03920588 15.46037162 -23.9734554 8.86584687 -14 3 C-13.25492187 2.55269531 -12.50984375 2.10539063 -11.7421875 1.64453125 C-7.46212006 -0.73961278 -4.72234664 -1.49732942 0 0 Z " fill="#000000" transform="translate(402,920)"/>
<path d="M0 0 C0.52529297 0.36996094 1.05058594 0.73992187 1.59179688 1.12109375 C1.08810394 4.98710058 0.45158438 6.74706323 -2.59570312 9.18359375 C-3.31757812 9.77785156 -4.03945312 10.37210937 -4.78320312 10.984375 C-5.64945313 11.68949219 -6.51570313 12.39460938 -7.40820312 13.12109375 C-9.05030569 14.51886062 -10.68313393 15.92701734 -12.31567383 17.3359375 C-14.73981108 19.42659379 -17.17454516 21.50473975 -19.60888672 23.58349609 C-20.76902572 24.57488761 -21.92827407 25.56732279 -23.08642578 26.56103516 C-30.78122908 33.16286609 -38.63266873 39.52023323 -46.63769531 45.74169922 C-48.41213154 47.12415436 -50.18069026 48.51376721 -51.94726562 49.90625 C-52.82088745 50.59485107 -52.82088745 50.59485107 -53.7121582 51.29736328 C-54.29247803 51.75481934 -54.87279785 52.21227539 -55.47070312 52.68359375 C-58.90267625 55.38873409 -62.34231366 58.08061461 -65.82617188 60.71875 C-70.87140643 64.54232124 -75.8063676 68.39121481 -80.47070312 72.68359375 C-100.47722416 90.97711702 -124.57443531 99.98626023 -151.71679688 99.29296875 C-155.00197392 99.08317515 -158.17229627 98.72312293 -161.40820312 98.12109375 C-162.61132812 96.08984375 -162.61132812 96.08984375 -163.40820312 93.12109375 C-162.47158059 90.37204579 -161.51533209 88.14972244 -160.15820312 85.62109375 C-159.79122314 84.91766846 -159.42424316 84.21424316 -159.04614258 83.48950195 C-145.59668334 58.54333338 -124.86967232 44.81825528 -98.70922852 35.55908203 C-91.3564199 32.91961227 -84.1791914 29.9553029 -77.00091553 26.8755188 C-63.7825574 21.20769518 -50.42212282 16.04290068 -36.90820312 11.12109375 C-35.61274063 10.64843582 -35.61274063 10.64843582 -34.29110718 10.16622925 C-29.4253942 8.39455356 -24.55177275 6.64735476 -19.66845703 4.92480469 C-17.4394977 4.13222161 -15.21879631 3.31916228 -12.99804688 2.50390625 C-11.64548919 2.02127449 -10.29264097 1.53945588 -8.93945312 1.05859375 C-7.76962891 0.63449219 -6.59980469 0.21039063 -5.39453125 -0.2265625 C-2.40820312 -0.87890625 -2.40820312 -0.87890625 0 0 Z " fill="#000000" transform="translate(1081.408203125,303.87890625)"/>
<path d="M0 0 C4 0 4 0 5.5 1.2578125 C5.995 1.87398438 6.49 2.49015625 7 3.125 C7.90685547 4.22328125 7.90685547 4.22328125 8.83203125 5.34375 C9.90517578 6.65859375 9.90517578 6.65859375 11 8 C12.38188494 9.6256247 13.77355531 11.24252445 15.16625977 12.85888672 C16.72208701 14.66515446 18.27164483 16.47665421 19.8203125 18.2890625 C21.88970698 20.7082138 23.96777307 23.11938733 26.0546875 25.5234375 C32.42333604 32.87354524 38.54752911 40.36925842 44.49902344 48.06054688 C46.13402995 50.17318379 47.77365279 52.28218103 49.4140625 54.390625 C50.00243896 55.14698242 50.59081543 55.90333984 51.19702148 56.68261719 C52.39700858 58.22497027 53.59704098 59.76728809 54.79711914 61.30957031 C55.38356201 62.06334961 55.97000488 62.81712891 56.57421875 63.59375 C57.15091309 64.33496094 57.72760742 65.07617188 58.32177734 65.83984375 C59.89087689 67.85954011 61.45555477 69.88258597 63.01953125 71.90625 C67.10554776 77.17265566 71.20365163 82.30381718 75.75 87.1875 C92.07698245 105.03055939 98.51503753 129.32783075 98.13671875 153.1328125 C97.97654511 156.49188262 97.6147476 159.69573164 97 163 C94.28201937 164.3398496 92.14304112 165.30498915 89.12060547 164.49853516 C86.98715333 163.53898449 84.97119382 162.46880548 82.9375 161.3125 C82.19306641 160.90257812 81.44863281 160.49265625 80.68164062 160.0703125 C73.33892052 155.87986555 67.14414773 150.76746293 61 145 C59.73542969 143.83791016 59.73542969 143.83791016 58.4453125 142.65234375 C46.0209844 130.79275784 39.99042071 116.25041866 34.3125 100.3125 C31.0478776 91.3124789 27.56756952 82.46651408 23.75 73.6875 C19.02206586 62.75618135 14.795621 51.67626397 10.6875 40.5 C10.25153503 39.31741104 10.25153503 39.31741104 9.8067627 38.1109314 C8.1209413 33.52897215 6.46197332 28.93836651 4.83148193 24.33642578 C4.25792456 22.72475609 3.67850034 21.11516638 3.09429932 19.50732422 C2.20023297 17.0411808 1.32653186 14.56864552 0.45703125 12.09375 C0.17985764 11.34017212 -0.09731598 10.58659424 -0.38288879 9.81018066 C-2.19084644 4.56499794 -2.19084644 4.56499794 -1.15356445 1.49414062 C-0.77288818 1.00107422 -0.39221191 0.50800781 0 0 Z " fill="#000000" transform="translate(305,98)"/>
<path d="M0 0 C1.17369141 -0.01611328 2.34738281 -0.03222656 3.55664062 -0.04882812 C5.23209961 -0.04979492 5.23209961 -0.04979492 6.94140625 -0.05078125 C8.45456421 -0.05525269 8.45456421 -0.05525269 9.99829102 -0.05981445 C10.80322998 0.06304932 11.60816895 0.18591309 12.4375 0.3125 C14.54178319 3.46892479 14.76589479 4.54876171 14.08984375 8.1796875 C8.35884369 26.91696914 -10.22373738 44.84048386 -26.5625 54.3125 C-31.46183518 56.61968133 -36.465982 58.50279591 -41.5625 60.3125 C-44.43965392 61.34827541 -47.31412385 62.39129322 -50.1875 63.4375 C-51.3643335 63.86385742 -51.3643335 63.86385742 -52.56494141 64.29882812 C-59.82261132 66.96369854 -66.93600959 69.94239243 -74.0625 72.9375 C-90.08457013 79.64949148 -106.33656616 85.68811 -122.66125488 91.61932373 C-125.47292851 92.64443376 -128.27888892 93.68496063 -131.0859375 94.72265625 C-132.89014813 95.37891667 -134.69479036 96.03399261 -136.5 96.6875 C-137.28576416 96.97987549 -138.07152832 97.27225098 -138.88110352 97.57348633 C-142.57184624 98.88462153 -144.82664903 99.49062344 -148.5625 98.3125 C-149.296875 96.57421875 -149.296875 96.57421875 -149.5625 94.3125 C-145.13677519 88.22130506 -138.49286267 83.50936127 -132.65234375 78.83203125 C-129.03258692 75.88039642 -125.51631802 72.82336928 -122 69.75 C-117.15109044 65.5239693 -112.26568779 61.37842361 -107.2109375 57.3984375 C-105.1431048 55.7697905 -103.08786649 54.12889405 -101.0390625 52.4765625 C-95.19513855 47.76754117 -89.33764146 43.10081937 -83.3125 38.625 C-76.49860731 33.55779275 -69.82717441 28.3028787 -63.546875 22.58203125 C-45.73202717 6.54173635 -23.7892256 -0.0673153 0 0 Z " fill="#000000" transform="translate(247.5625,778.6875)"/>
<path d="M0 0 C17.52089043 3.95869491 34.20914627 20.84085003 44.06640625 35.03125 C48.67612554 42.80407879 51.9404375 50.81189064 54.859375 59.34375 C57.97763034 68.23679726 61.37246767 76.94296188 65.109375 85.59375 C73.19979689 104.3889227 80.2637621 123.57348308 87.17529297 142.82778931 C87.66941841 144.20341885 88.1653238 145.57841046 88.66308594 146.95272827 C89.35359507 148.86325203 90.03443635 150.77726162 90.71484375 152.69140625 C91.10567139 153.78461182 91.49649902 154.87781738 91.89916992 156.00415039 C92.734375 158.84375 92.734375 158.84375 92.734375 162.84375 C90.171875 163.84375 90.171875 163.84375 86.734375 163.84375 C83.93388792 161.61333663 81.92515492 158.65463895 79.734375 155.84375 C77.8597661 153.61707521 75.95096009 151.4202246 74.046875 149.21875 C73.0019536 147.99795237 71.95769274 146.77658909 70.9140625 145.5546875 C68.84466802 143.1355362 66.76660193 140.72436267 64.6796875 138.3203125 C58.31103896 130.97020476 52.18684589 123.47449158 46.23535156 115.78320312 C44.60034505 113.67056621 42.96072221 111.56156897 41.3203125 109.453125 C40.73193604 108.69676758 40.14355957 107.94041016 39.53735352 107.16113281 C38.33736642 105.61877973 37.13733402 104.07646191 35.93725586 102.53417969 C35.35081299 101.78040039 34.76437012 101.02662109 34.16015625 100.25 C33.58346191 99.50878906 33.00676758 98.76757812 32.41259766 98.00390625 C30.84349811 95.98420989 29.27882023 93.96116403 27.71484375 91.9375 C23.62882724 86.67109434 19.53072337 81.53993282 14.984375 76.65625 C-0.61282956 59.58288144 -6.41679608 37.2255726 -6.515625 14.59375 C-6.5465625 12.799375 -6.5465625 12.799375 -6.578125 10.96875 C-6.58328125 9.82921875 -6.5884375 8.6896875 -6.59375 7.515625 C-6.6030957 6.4750293 -6.61244141 5.43443359 -6.62207031 4.36230469 C-6.50444336 3.53118164 -6.38681641 2.70005859 -6.265625 1.84375 C-3.265625 -0.15625 -3.265625 -0.15625 0 0 Z " fill="#000000" transform="translate(785.265625,919.15625)"/>
<path d="M0 0 C1.40427246 0.00277954 1.40427246 0.00277954 2.83691406 0.00561523 C4.39949951 0.0011438 4.39949951 0.0011438 5.99365234 -0.00341797 C7.65630127 0.03005737 7.65630127 0.03005737 9.35253906 0.06420898 C10.48546387 0.07814697 11.61838867 0.09208496 12.78564453 0.10644531 C21.39280173 0.29516101 29.29510524 1.13223473 37.60253906 3.50170898 C38.86195313 3.85362305 40.12136719 4.20553711 41.41894531 4.56811523 C53.35818455 8.11518254 62.89255114 13.55345845 71.93847656 22.06811523 C74.88832881 24.76277499 77.95167111 27.23626184 81.10253906 29.68920898 C81.68648437 30.14408691 82.27042969 30.59896484 82.87207031 31.06762695 C84.77982609 32.5487817 86.69086661 34.02561339 88.60253906 35.50170898 C99.46199654 43.90171613 110.24451521 52.37428339 120.86279297 61.07788086 C122.42202233 62.35397203 123.98655006 63.6235828 125.55175781 64.89233398 C135.85599202 73.25606277 145.9393387 81.87741064 155.71191406 90.85717773 C157.51018641 92.5595255 157.51018641 92.5595255 159.60253906 93.50170898 C159.27253906 95.15170898 158.94253906 96.80170898 158.60253906 98.50170898 C154.60768773 99.83332609 152.88639818 98.82706902 148.91894531 97.46655273 C148.24439804 97.23701904 147.56985077 97.00748535 146.87486267 96.77099609 C144.634508 96.00416211 142.3996563 95.22259334 140.16503906 94.43920898 C139.39289063 94.17149689 138.62074219 93.90378479 137.82519531 93.62796021 C113.82139748 85.30121173 90.22514317 75.89357283 66.7434082 66.20385742 C60.22956623 63.52673003 53.67523396 61.04703988 47.04003906 58.68920898 C23.69021325 50.2381475 6.21680346 31.72355129 -4.39746094 9.50170898 C-5.29589844 6.84936523 -5.29589844 6.84936523 -5.39746094 4.50170898 C-3.87982628 1.74913009 -3.13026267 0.65506006 0 0 Z " fill="#000000" transform="translate(924.3974609375,777.498291015625)"/>
<path d="M0 0 C9.47801014 2.37396968 18.6666946 5.5122186 27.875 8.75 C29.06887329 9.16818497 29.06887329 9.16818497 30.28686523 9.59481812 C46.71540767 15.36807128 62.81354771 21.87077715 78.90774536 28.50823975 C84.90300822 30.97505455 90.93452521 33.33592883 97 35.625 C97.81903809 35.9353418 98.63807617 36.24568359 99.48193359 36.56542969 C102.89759611 37.85357317 106.319181 39.11380362 109.7578125 40.33984375 C121.76498233 44.69975577 130.81098101 51.2111728 140 60 C140.67675781 60.60199219 141.35351562 61.20398438 142.05078125 61.82421875 C150.23610187 69.38620834 159.02346572 81.10966428 162 92 C162.0625 94.9375 162.0625 94.9375 161 97 C156.55334857 99.44264798 152.18920096 99.3473884 147.25 99.3125 C146.41162598 99.30686035 145.57325195 99.3012207 144.70947266 99.29541016 C120.49287304 98.83470634 100.68454751 90.75488171 82.45703125 74.96484375 C74.59671124 68.17423137 66.40594151 61.74659553 58.0625 55.5625 C47.56914104 47.76300067 37.53135719 39.36375458 27.58447266 30.88330078 C24.24246742 28.03640744 20.85600199 25.25433589 17.4375 22.5 C12.74547598 18.6911805 8.2877241 14.67435064 3.88256836 10.54101562 C1.16066079 7.96881952 1.16066079 7.96881952 -2 6 C-1.125 1.125 -1.125 1.125 0 0 Z " fill="#000000" transform="translate(99,304)"/>
<path d="M0 0 C1.65 0.66 3.3 1.32 5 2 C-1.93363124 28.75593443 -12.70406353 54.40571502 -23 80 C-23.44182617 81.09860352 -23.88365234 82.19720703 -24.33886719 83.32910156 C-24.71946289 84.27495117 -25.10005859 85.22080078 -25.4921875 86.1953125 C-25.83765625 87.05447266 -26.183125 87.91363281 -26.5390625 88.79882812 C-27.16525023 90.35538827 -27.7927881 91.91140617 -28.421875 93.46679688 C-30.29547305 98.13006635 -32.03603563 102.82931955 -33.72753906 107.56152344 C-38.71433446 121.45834935 -44.71452905 131.47216155 -55 142 C-55.59683594 142.65871094 -56.19367187 143.31742188 -56.80859375 143.99609375 C-64.27080071 152.05378855 -76.43138441 160.92685646 -87 164 C-90.34765625 163.14453125 -90.34765625 163.14453125 -93 162 C-96.28112315 140.6726995 -92.60300588 114.71992533 -80.08984375 96.67578125 C-77.14582292 92.90633401 -74.05365765 89.28032017 -70.90039062 85.68481445 C-63.2959532 76.99620554 -56.37057026 67.74859217 -49.3828125 58.5625 C-39.48211131 45.57797385 -28.99528077 33.06452803 -18.40039062 20.64306641 C-16.87353642 18.85162135 -15.3509408 17.05659747 -13.828125 15.26171875 C-12.76063863 14.00762353 -11.69293515 12.75371308 -10.625 11.5 C-9.89289307 10.63628784 -9.89289307 10.63628784 -9.14599609 9.75512695 C-6.23262083 6.34516502 -3.2123469 3.13057807 0 0 Z " fill="#000000" transform="translate(872,97)"/>
</svg>
