<?xml version="1.0" encoding="UTF-8"?>
<svg version="1.1" xmlns="http://www.w3.org/2000/svg" width="1171" height="1181">
<path d="M0 0 C0.80760467 8.44662921 1.20418855 16.84295084 1.35717773 25.32495117 C1.38341437 26.6119202 1.40965101 27.89888924 1.4366827 29.22485733 C1.50847796 32.75537159 1.5754745 36.28596204 1.64150763 39.81658816 C1.71329055 43.61394705 1.78932489 47.41122148 1.86465454 51.20851135 C2.0276238 59.47109047 2.18439517 67.73378023 2.33974075 75.99650574 C2.43801771 81.22307119 2.5376674 86.44961001 2.63742065 91.67614746 C3.87504201 156.61632925 4.96454131 221.55744697 5.78654134 286.50426698 C5.92851189 297.70353908 6.08174708 308.90261147 6.24205887 320.10163522 C7.55773382 412.17034829 8.13304115 504.2442942 8.5 672.5 C8.50089483 673.44035831 8.50178965 674.38071662 8.50271159 675.34957063 C8.58474338 763.10362806 8.37199977 850.84039397 5.0625 998.8125 C5.04510065 999.4930106 5.02770129 1000.1735212 5.00977468 1000.87465334 C4.31421644 1028.06566139 3.58023673 1055.25578583 2.75148487 1082.44309139 C2.69477816 1084.30653456 2.63873626 1086.16999812 2.58346653 1088.03348446 C0.87304221 1145.34761047 0.87304221 1145.34761047 -17.0625 1164.75 C-31.52661247 1178.21237495 -48.01291675 1181.30328957 -67.1875 1181.5 C-68.44626953 1181.51869141 -69.70503906 1181.53738281 -71.00195312 1181.55664062 C-85.58395024 1181.45733944 -98.44793766 1177.29777123 -109.25 1167.3125 C-113.55609698 1162.7459536 -116.37352486 1157.66848216 -119 1152 C-119.38027344 1151.18144531 -119.76054688 1150.36289063 -120.15234375 1149.51953125 C-125.76586321 1135.85643672 -126.28778924 1121.22900117 -126.296875 1106.65649414 C-126.29789719 1105.8829843 -126.29891937 1105.10947445 -126.29997253 1104.31252491 C-126.27228125 1079.46059601 -124.45209942 1054.65517294 -122.90330768 1029.86226588 C-122.44510807 1022.51632368 -122.00201019 1015.16948953 -121.55994892 1007.82256127 C-120.76910676 994.68209154 -119.97007722 981.54213536 -119.1640625 968.40258789 C-119.11621266 967.62249802 -119.06836283 966.84240815 -119.019063 966.03867919 C-118.72814162 961.29655578 -118.4370203 956.55444467 -118.14582825 951.81233788 C-117.70892266 944.6972558 -117.2722015 937.58216246 -116.8359375 930.46704102 C-116.78814557 929.6876405 -116.74035364 928.90823998 -116.69111347 928.10522126 C-115.88783321 915.00071838 -115.09324529 901.89570142 -114.30452728 888.79031426 C-113.8642539 881.48092592 -113.4194706 874.17186701 -112.96313477 866.86346245 C-110.55116632 829.72669019 -110.55116632 829.72669019 -109.65625 792.53149414 C-109.65350571 791.79835837 -109.65076141 791.0652226 -109.64793396 790.3098706 C-109.64004435 783.75299885 -109.67161568 778.19170133 -112 772 C-117.72020349 770.45994521 -123.17013575 769.87211707 -129.09375 769.90625 C-129.77876587 769.90983521 -130.46378174 769.91342041 -131.16955566 769.91711426 C-140.28195437 769.98568964 -149.39123362 770.248059 -158.5 770.5 C-160.30598438 770.54837168 -162.11197396 770.59654982 -163.91796875 770.64453125 C-168.2787087 770.76079858 -172.63937079 770.8796538 -177 771 C-177.3309668 771.73299316 -177.66193359 772.46598633 -178.00292969 773.22119141 C-188.51817862 796.41914768 -199.94174194 818.70880134 -214 840 C-214.68594238 841.03930664 -214.68594238 841.03930664 -215.38574219 842.09960938 C-227.92028086 860.96007433 -241.98893669 878.56453356 -257.37890625 895.16015625 C-259.80502606 897.78875401 -262.1879045 900.44992844 -264.5625 903.125 C-270.9441085 910.22453945 -277.63463626 916.96980902 -284.89453125 923.171875 C-287.35727028 925.3102087 -289.73487343 927.53084599 -292.125 929.75 C-315.05108147 950.60046915 -341.6481494 967.7180525 -368.66943359 982.70556641 C-370.68890817 983.82721466 -372.69887813 984.96375223 -374.70703125 986.10546875 C-417.51181445 1009.83154858 -466.07091844 1024.21525788 -514.3125 1031.25 C-515.34705322 1031.40114258 -516.38160645 1031.55228516 -517.44750977 1031.70800781 C-536.42328849 1034.30113497 -555.2905389 1035.33144921 -574.43310547 1035.26074219 C-577.86574034 1035.2500289 -581.29784961 1035.26071141 -584.73046875 1035.2734375 C-604.4943379 1035.28649157 -624.18849381 1034.16596231 -643.75 1031.25 C-644.89863525 1031.08081055 -646.04727051 1030.91162109 -647.23071289 1030.73730469 C-720.12261879 1019.60907121 -789.50903524 991.07560587 -848 946 C-848.53802246 945.58814453 -849.07604492 945.17628906 -849.63037109 944.75195312 C-870.48032851 928.76438128 -891.13967844 911.04721777 -908.23828125 891.0390625 C-910.19605739 888.7730777 -912.22228948 886.57856506 -914.25 884.375 C-919.83621393 878.17439706 -924.92805608 871.62170457 -930 865 C-930.49435547 864.35724121 -930.98871094 863.71448242 -931.49804688 863.05224609 C-943.01051619 848.0467721 -953.09484309 832.44278686 -962.71655273 816.16552734 C-964.13537978 813.77157721 -965.56751931 811.3858 -967 809 C-967.05281899 823.99990015 -966.91207646 838.98799396 -966.6328125 853.98510742 C-966.59322296 856.19128602 -966.55382039 858.39746798 -966.5145874 860.60365295 C-966.43051872 865.31335069 -966.3453087 870.02302583 -966.25921631 874.732687 C-966.12218533 882.23811209 -965.98877302 889.74359902 -965.85595703 897.24909973 C-965.66854697 907.82583208 -965.48043493 918.40255151 -965.29101562 928.97924805 C-965.27905317 929.64725181 -965.26709071 930.31525557 -965.25476575 931.00350187 C-965.07420533 941.08235625 -964.89187925 951.16117798 -964.70898438 961.23999023 C-964.49464289 973.05346393 -964.28368861 984.86699366 -964.07613182 996.68058854 C-963.9668486 1002.89202376 -963.85598264 1009.10342022 -963.74078369 1015.31474876 C-963.29486008 1039.40892913 -962.90978516 1063.50326466 -962.83230972 1087.60186446 C-962.82445725 1089.78336048 -962.81342052 1091.96484793 -962.79882431 1094.14630926 C-962.64675707 1118.65032945 -963.81698404 1147.63155575 -982.109375 1166.3359375 C-999.6596976 1181.78312227 -1019.83917372 1182.15248557 -1042 1181 C-1047.26051262 1180.38579961 -1052.09870746 1179.01044976 -1057 1177 C-1057.92039062 1176.62617187 -1058.84078125 1176.25234375 -1059.7890625 1175.8671875 C-1073.65848635 1169.54004852 -1083.52602125 1158.52240087 -1088.94140625 1144.28125 C-1093.4883157 1130.18750853 -1095.1845152 1116.87657437 -1095.1341095 1102.0736084 C-1095.13292887 1101.35229443 -1095.13174823 1100.63098047 -1095.13053183 1099.8878085 C-1095.09803637 1084.26771569 -1094.58094948 1068.67356759 -1093.94491827 1053.06804514 C-1093.78668714 1049.14887296 -1093.63617847 1045.22940186 -1093.48461914 1041.30996704 C-1093.22191461 1034.54160662 -1092.95465392 1027.77343932 -1092.68414879 1021.00538635 C-1092.28925773 1011.12377862 -1091.9022473 1001.24187311 -1091.5169904 991.35988563 C-1090.8863555 975.18797445 -1090.25038061 959.01627819 -1089.6105957 942.84472656 C-1088.14607139 905.82549785 -1086.69325182 868.80580976 -1085.24454239 831.78595901 C-1085.13659491 829.02808622 -1085.02858468 826.2702159 -1084.92055678 823.51234627 C-1082.83244878 770.19942875 -1080.79748386 716.88657868 -1079.14175034 663.55813599 C-1078.99653948 658.88140396 -1078.84924337 654.20473866 -1078.70181274 649.52807617 C-1078.11775219 630.97572364 -1077.55309762 612.42284507 -1077.00238532 593.86947489 C-1076.8294971 588.05282273 -1076.6533215 582.23627289 -1076.47659093 576.41973639 C-1076.30059148 570.62329906 -1076.12657917 564.82680432 -1075.95412081 559.03026056 C-1075.85356898 555.65125623 -1075.75210794 552.27228682 -1075.64908791 548.89335632 C-1073.34608853 526.15757438 -1073.34608853 526.15757438 -1076 504 C-1077.67918826 502.75621155 -1077.67918826 502.75621155 -1079.83203125 501.921875 C-1080.62480469 501.56996094 -1081.41757813 501.21804688 -1082.234375 500.85546875 C-1083.08515625 500.49066406 -1083.9359375 500.12585938 -1084.8125 499.75 C-1115.91309718 485.70606416 -1137.89096132 460.39266858 -1150.23168945 428.8671875 C-1158.56860637 406.4586496 -1163.03759371 382.36249935 -1163.24253845 358.45916748 C-1163.25263242 357.44560448 -1163.2627264 356.43204148 -1163.27312624 355.38776445 C-1163.54565472 320.45614803 -1161.68395943 285.8143873 -1159.35443908 250.97887476 C-1158.81188436 242.85510039 -1158.2901355 234.73002062 -1157.76894998 226.60485205 C-1156.8389136 212.11422937 -1155.89327333 197.62467229 -1154.93725586 183.13574219 C-1154.01339753 169.13372268 -1153.09801983 155.13118734 -1152.19311523 141.12792969 C-1152.13692772 140.25847423 -1152.08074021 139.38901878 -1152.02285004 138.49321619 C-1151.7969009 134.99635293 -1151.57100496 131.49948624 -1151.34518055 128.00261493 C-1149.62167674 101.31610879 -1147.89061303 74.63007601 -1146.13473511 47.94567871 C-1145.95234146 45.17346747 -1145.77055313 42.40121768 -1145.5893383 39.62892914 C-1145.34144449 35.84117166 -1145.09176529 32.0535361 -1144.84156799 28.26593018 C-1144.77055282 27.17598542 -1144.69953764 26.08604067 -1144.62637049 24.96306729 C-1144.18351995 18.29821388 -1143.63683903 11.64913021 -1143 5 C-1141.68 5 -1140.36 5 -1139 5 C-1140.28672318 38.12815036 -1141.79693974 71.24167889 -1143.43381119 104.35425186 C-1143.83298823 112.43826824 -1144.22654246 120.52255184 -1144.61886597 128.60690308 C-1144.68679275 130.00614173 -1144.75472015 131.40538036 -1144.82264817 132.80461895 C-1144.95982587 135.63068389 -1145.09697272 138.45675032 -1145.23410201 141.2828176 C-1145.58163745 148.44474819 -1145.92941949 155.60666671 -1146.27783203 162.76855469 C-1146.31258841 163.48304358 -1146.34734478 164.19753247 -1146.38315438 164.93367253 C-1146.94564181 176.49143817 -1147.51643403 188.04878071 -1148.08993591 199.60600437 C-1148.68757594 211.6544068 -1149.27463074 223.70329606 -1149.85294521 235.75264156 C-1150.17444157 242.44479634 -1150.50056836 249.13663889 -1150.83877945 255.82797623 C-1152.1979475 282.78025564 -1153.24381003 309.69751125 -1153.34716797 336.68701172 C-1153.35575089 337.80162096 -1153.36433381 338.91623021 -1153.37317681 340.06461549 C-1153.50018133 359.83184874 -1152.15690364 379.59351266 -1147.25 398.8125 C-1146.99395996 399.84036621 -1146.73791992 400.86823242 -1146.47412109 401.92724609 C-1137.89079912 435.2723396 -1120.53851052 464.51587916 -1090.390625 482.57421875 C-1085.10937945 485.59567748 -1079.57292727 488.02637747 -1073.93945312 490.31274414 C-1068.86856772 492.40795836 -1065.23850947 494.19605919 -1062.91601562 499.45410156 C-1061.6627074 504.30566039 -1061.7154697 508.89077272 -1061.734375 513.8828125 C-1061.73146454 515.01502731 -1061.72855408 516.14724213 -1061.72555542 517.31376648 C-1061.72173655 520.54571511 -1061.7284191 523.77742297 -1061.74164581 527.00934219 C-1061.75020595 529.17715546 -1061.75604355 531.3449635 -1061.76141357 533.51278687 C-1061.79483025 545.6755857 -1061.88865662 557.83769073 -1062 570 C-1062.00851486 570.94471916 -1062.01702972 571.88943832 -1062.02580261 572.86278534 C-1063.01134533 680.70943937 -1066.34998877 788.52479877 -1069.81951904 917.30859375 C-1070.10268467 927.80598018 -1070.38543179 938.30337788 -1070.66796875 948.80078125 C-1070.69417541 949.77431624 -1070.72038208 950.74785123 -1070.74738288 951.75088727 C-1071.1622004 967.16368625 -1071.57383579 982.57656836 -1071.98286629 997.98952198 C-1072.19652948 1006.0339857 -1072.41219218 1014.07838567 -1072.63323975 1022.12265015 C-1073.72011799 1059.8782666 -1073.72011799 1059.8782666 -1074.2265625 1097.64453125 C-1074.23722748 1098.95217941 -1074.24789246 1100.25982758 -1074.25888062 1101.60710144 C-1074.22974596 1118.03331603 -1072.35117293 1137.44407859 -1060.22265625 1149.8125 C-1048.03762894 1159.7798025 -1031.9557065 1160.0400433 -1017 1159 C-1008.92833006 1157.61006514 -1002.14854175 1154.49115716 -997 1148 C-986.95614381 1132.42797296 -986.52102765 1115.47817086 -986.72338867 1097.52880859 C-986.73530416 1095.55123413 -986.74663035 1093.57365604 -986.757411 1091.59607506 C-986.90870201 1070.32460906 -987.58578647 1049.06675116 -988.31470895 1027.80868196 C-988.50719669 1022.1424479 -988.69057477 1016.47591743 -988.87504578 1010.80941772 C-989.22699861 1000.03593361 -989.58600683 989.26269825 -989.94805259 978.48954904 C-990.62311181 958.39392323 -991.28344146 938.29780627 -991.94425774 918.20170784 C-992.098473 913.51195319 -992.25302292 908.82220976 -992.40783882 904.1324749 C-993.56556502 869.04211489 -994.65178806 833.95009864 -995.671875 798.85546875 C-995.7340105 796.72425457 -995.79614744 794.59304042 -995.8582859 792.46182632 C-996.58027997 767.65458063 -997.24765629 742.84662381 -997.83434296 718.03580666 C-998.41333339 693.57484242 -999.10936393 669.12106758 -999.94286752 644.66728234 C-1000.03489447 641.96366176 -1000.12634543 639.26002182 -1000.21780521 636.556382 C-1000.79971245 619.35864181 -1000.79971245 619.35864181 -1001.40499878 602.16171265 C-1002.29932589 577.22823188 -1003.16846936 552.29596506 -1003.28899765 527.34448242 C-1003.29932566 525.30750671 -1003.31421174 523.27054817 -1003.33401871 521.23364258 C-1003.35827071 518.45240611 -1003.36200917 515.67194873 -1003.35888672 512.890625 C-1003.36840237 512.08622986 -1003.37791801 511.28183472 -1003.38772202 510.45306396 C-1003.33083401 502.99430883 -1000.94935359 497.24397742 -995.90966797 491.68310547 C-992.10747013 488.33199937 -987.58755094 486.27299218 -983.0625 484.0625 C-980.99342483 483.01445075 -978.92441443 481.96627361 -976.85546875 480.91796875 C-974.90425752 479.94408599 -972.95248363 478.97132927 -971 478 C-945.23190553 465.1294779 -925.6371497 446.61939171 -916 419 C-910.81307521 402.6965612 -909.67540401 386.47021164 -909.79736328 369.49462891 C-909.80461537 367.56460446 -909.81168581 365.63457933 -909.81859016 363.7045536 C-909.93265736 340.72268819 -910.54045893 317.74916504 -911.14571142 294.77607298 C-911.31176629 288.42460241 -911.47116377 282.07296409 -911.63137817 275.72134399 C-911.90190766 265.0294675 -912.17619327 254.33769555 -912.45361328 243.64599609 C-912.83677368 228.87844126 -913.21447742 214.1107525 -913.59031439 199.34300947 C-913.75806332 192.75212663 -913.92605083 186.16124987 -914.09405518 179.57037354 C-914.12702989 178.2766219 -914.1600046 176.98287026 -914.19397855 175.64991403 C-914.45667823 165.34615935 -914.72037412 155.04243034 -914.98431182 144.7387073 C-916.4395233 87.92730123 -916.4395233 87.92730123 -917.06418228 62.74449539 C-917.149858 59.29335543 -917.2365607 55.84224395 -917.32427597 52.39115524 C-918.15304448 19.74427571 -918.15304448 19.74427571 -918 5 C-916.68 5 -915.36 5 -914 5 C-912.03137241 26.82232251 -910.11023897 48.64865254 -908.21869659 70.4777832 C-908.00472481 72.94550898 -907.79022192 75.41318811 -907.57562256 77.88085938 C-906.56969602 89.46038085 -905.58531962 101.04160487 -904.625 112.625 C-904.55416325 113.478946 -904.48332649 114.332892 -904.41034317 115.21271515 C-900.98831012 156.58854179 -898.33751778 198.01824191 -895.70447397 239.45027471 C-895.49613917 242.72524043 -895.28679264 246.00014156 -895.07763672 249.27505493 C-894.76599921 254.15500925 -894.45874784 259.03521147 -894.15429688 263.9156189 C-894.01526674 266.10521252 -893.87611383 268.29479836 -893.73681641 270.484375 C-893.67658609 271.46868311 -893.61635578 272.45299122 -893.55430031 273.46712685 C-893.26025537 278.03834373 -892.87316156 282.49372323 -892 287 C-891.18917969 286.24976563 -890.37835937 285.49953125 -889.54296875 284.7265625 C-887.2212624 282.5792931 -884.89656313 280.43531373 -882.5703125 278.29296875 C-880.43251703 276.32412625 -878.30273172 274.34812176 -876.1796875 272.36328125 C-869.7108691 266.36755553 -862.94676684 260.90021287 -855.96582031 255.52441406 C-853.88937157 253.91421213 -851.8304407 252.28339556 -849.7734375 250.6484375 C-828.23896313 233.59286697 -805.24507662 218.8954038 -781 206 C-780.12698242 205.53480957 -779.25396484 205.06961914 -778.35449219 204.59033203 C-697.86048781 162.10028704 -603.93743477 148.38683462 -448.859375 176.12890625 C-425.47718601 183.4918585 -402.74533062 192.64640371 -380.99414062 203.96826172 C-378.88460927 205.05970142 -376.76333969 206.12585566 -374.640625 207.19140625 C-349.12109556 220.14279168 -325.717987 236.31900406 -303.73535156 254.56884766 C-302.19839635 255.83638163 -300.64341834 257.08199207 -299.0859375 258.32421875 C-287.14402066 267.8530934 -276.31239715 278.60431504 -265.5 289.375 C-264.663479 290.20684814 -263.82695801 291.03869629 -262.96508789 291.89575195 C-258.10431738 296.76919977 -253.44881471 301.74824148 -249 307 C-248.46294434 307.63035156 -247.92588867 308.26070313 -247.37255859 308.91015625 C-226.16268271 333.97232121 -208.49491084 360.96453745 -192.42578125 389.54296875 C-191.21648574 391.86907901 -191.21648574 391.86907901 -190 393 C-189.88519287 392.142854 -189.77038574 391.28570801 -189.65209961 390.40258789 C-186.70512726 368.70267867 -182.9849873 347.32661122 -178 326 C-177.70786621 324.74751465 -177.41573242 323.4950293 -177.11474609 322.20458984 C-161.29572142 255.5829989 -134.23727786 192.75349882 -104.90913391 131.12617493 C-102.92778145 126.96104708 -100.96138757 122.78946494 -99.01171875 118.609375 C-85.68230563 90.088997 -68.73798407 63.36002932 -47.16015625 40.30859375 C-45.21365697 38.22833864 -43.34906414 36.10403687 -41.5 33.9375 C-34.05080849 25.40922 -25.86438192 18.02079252 -17 11 C-16.09507813 10.26265625 -15.19015625 9.5253125 -14.2578125 8.765625 C-3.47673358 0 -3.47673358 0 0 0 Z M-43.75 51.5625 C-48.8893368 56.753975 -53.45882622 62.28664598 -58 68 C-59.41647599 69.68766006 -60.83314679 71.37515663 -62.25 73.0625 C-73.98855013 87.49113454 -83.86533609 102.81386902 -93 119 C-93.51981445 119.91861816 -94.03962891 120.83723633 -94.57519531 121.78369141 C-135.85504136 195.11688499 -164.95503191 280.44811624 -180 376 C-180.16193848 377.05525879 -180.32387695 378.11051758 -180.49072266 379.19775391 C-185.41361971 411.83473806 -186.02317786 445.37435978 -187.078125 478.3125 C-187.09969359 478.98584531 -187.12126217 479.65919061 -187.14348435 480.35294032 C-188.48921693 522.87721196 -188.26683174 565.42395352 -188.20059639 607.96432632 C-188.18718555 617.00527517 -188.18489904 626.04619985 -188.1855461 635.08715731 C-188.18622821 646.12377484 -188.17927177 657.16037844 -188.1700995 668.19699168 C-188.16800481 671.29433864 -188.16726357 674.39168324 -188.16686058 677.48903084 C-188.16208535 695.91332878 -188.14964185 714.33867568 -187.67031157 732.75790298 C-187.63370082 734.17345073 -187.59977125 735.5890709 -187.56879842 737.00475323 C-187.52500132 738.9251231 -187.46692772 740.84515149 -187.40815735 742.76512146 C-187.37780553 743.83201926 -187.34745371 744.89891706 -187.31618214 745.9981451 C-186.95989108 749.38079689 -186.50840193 753.49159807 -184 756 C-181.83855315 756.07850448 -179.67450029 756.08570209 -177.51171875 756.06591797 C-176.83352585 756.06124512 -176.15533295 756.05657227 -175.45658875 756.05175781 C-173.97785879 756.04122726 -172.49914293 756.02855558 -171.02044678 756.01403427 C-168.6739477 755.99206059 -166.32752896 755.97794731 -163.98095703 755.96633911 C-157.30669106 755.93271652 -150.63255588 755.89147981 -143.95849609 755.82861328 C-139.87896056 755.79075344 -135.79956457 755.76787364 -131.71987915 755.75430679 C-130.16985201 755.74629562 -128.61984254 755.73274841 -127.06991577 755.71337509 C-108.24082144 755.48236734 -108.24082144 755.48236734 -102.17016602 760.51779175 C-93.53311672 769.15228227 -94.13450071 782.61105614 -94 794 C-94.10982695 803.36499237 -94.57805124 812.72145127 -95.01089263 822.07600021 C-95.15137903 825.14467906 -95.28500703 828.21364356 -95.41879946 831.28262043 C-95.92380544 842.85610531 -96.45883494 854.42815677 -97 866 C-97.04647643 866.99387222 -97.09295286 867.98774445 -97.14083767 869.01173401 C-97.91208726 885.48739923 -98.69462365 901.96252526 -99.48046875 918.4375 C-99.53498152 919.58042511 -99.5894943 920.72335022 -99.64565897 921.90090942 C-100.03598528 930.08240458 -100.42701094 938.26386618 -100.81835938 946.4453125 C-100.87427364 947.61469109 -100.93018791 948.78406967 -100.98779655 949.98888397 C-101.61782335 963.16177107 -102.2514628 976.33447175 -102.89233398 989.50683594 C-103.41261256 1000.20144521 -103.92589798 1010.89636709 -104.43168145 1021.59167194 C-104.69597164 1027.17456478 -104.96341673 1032.75725765 -105.23973656 1038.33956909 C-106.2455519 1058.69877627 -107.18349839 1079.05399589 -107.30233824 1099.44101524 C-107.3122895 1101.11425786 -107.32661884 1102.78748205 -107.34601247 1104.46064186 C-107.5205687 1121.62648085 -106.36609203 1141.2851468 -93.8984375 1154.37890625 C-86.23181086 1160.9255113 -78.09122569 1161.2031088 -68.4375 1161.25 C-67.40302734 1161.270625 -66.36855469 1161.29125 -65.30273438 1161.3125 C-53.37768617 1161.37223725 -41.8457307 1158.69066716 -32.875 1150.5 C-19.74762048 1136.49574248 -19.55072839 1117.44412818 -19.34594727 1099.40112305 C-19.31416318 1097.47503639 -19.28136873 1095.54896619 -19.2476511 1093.62291241 C-19.16207999 1088.47073635 -19.09569021 1083.31850974 -19.03644037 1078.16596937 C-19.00031663 1075.02750875 -18.96136091 1071.88909414 -18.92179489 1068.7506752 C-18.74216122 1054.24271131 -18.61254999 1039.73446203 -18.49474788 1025.22588181 C-18.44333439 1018.96109251 -18.38870023 1012.69633099 -18.33460999 1006.43156433 C-18.23848098 995.23632137 -18.14540174 984.04105553 -18.05365706 972.84577587 C-17.97174616 962.86029377 -17.88675403 952.87484193 -17.79956055 942.8894043 C-17.18720638 872.69023265 -16.70023489 802.52028582 -17.42236519 732.32105446 C-17.43384944 731.20378983 -17.4453337 730.0865252 -17.45716596 728.93540406 C-17.48052261 726.66509768 -17.50393647 724.39479189 -17.52740741 722.12448668 C-18.10796354 665.77290993 -18.15412856 609.42310377 -18.12946078 553.06930888 C-18.12499678 542.66322679 -18.12582417 532.25715611 -18.13037109 521.85107422 C-18.17046506 427.16090218 -17.54789931 332.49038788 -15.64836872 209.76868224 C-15.49708044 200.22629582 -15.35023942 190.68384308 -15.20367336 181.14138317 C-13.98516349 101.82182574 -13.98516349 101.82182574 -13.28466797 71.28805542 C-12.9357392 55.85820463 -12.88661064 40.43316442 -13 25 C-21.13013188 25 -37.85618295 45.79215678 -43.75 51.5625 Z M-811 229 C-811.76135254 229.45616699 -812.52270508 229.91233398 -813.30712891 230.38232422 C-829.20969431 239.91506739 -844.07772195 250.76106994 -858 263 C-858.71027344 263.61101562 -859.42054688 264.22203125 -860.15234375 264.8515625 C-862.11917357 266.54890848 -864.06312249 268.2685489 -866 270 C-866.86625 270.7734375 -867.7325 271.546875 -868.625 272.34375 C-870.8230261 274.33112792 -870.8230261 274.33112792 -872.97741699 276.36521912 C-875.82746777 279.10808056 -878.67826893 281.51300282 -881.94726562 283.74438477 C-887.57699226 287.91578322 -892.26319264 292.14667767 -893.62521362 299.26971436 C-894.14636358 308.14191624 -893.16975576 316.95112352 -892.17572021 325.75982666 C-891.78607152 329.32177279 -891.46969685 332.8898147 -891.15429688 336.45898438 C-891.09217703 337.16092202 -891.03005718 337.86285967 -890.96605492 338.58606815 C-890.84083969 340.00396244 -890.71603967 341.42189346 -890.59165573 342.83986092 C-890.402439 344.96377458 -890.20354635 347.08663169 -890.0038147 349.20957947 C-889.08161855 359.28370656 -888.7196881 369.29121574 -888.73828125 379.40625 C-888.73908188 380.70388779 -888.73988251 382.00152557 -888.7407074 383.33848572 C-888.83840325 394.07146218 -889.82122152 404.49115035 -892 415 C-892.13921875 415.68255859 -892.2784375 416.36511719 -892.421875 417.06835938 C-898.72940454 446.64950487 -916.95461029 473.10412992 -942.05664062 489.74560547 C-952.50153664 496.48754966 -963.41831542 502.40711656 -974.43829346 508.14537048 C-975.10591328 508.49305449 -975.7735331 508.84073851 -976.46138382 509.1989584 C-976.96912716 509.46330213 -977.4768705 509.72764585 -978 510 C-978.15449788 526.22393796 -977.72488738 542.36897022 -976.9765625 558.57421875 C-976.86876413 560.99508023 -976.76146668 563.41596406 -976.65463257 565.83686829 C-976.37371127 572.17741719 -976.08704116 578.51769179 -975.79876709 584.85791016 C-971.08597479 688.72142968 -971.08597479 688.72142968 -970.68079758 717.16007042 C-970.64900783 719.35131286 -970.61308099 721.54244503 -970.57559204 723.7335968 C-970.56370157 724.43538213 -970.5518111 725.13716745 -970.53956032 725.860219 C-970.51595055 727.25129394 -970.49216829 728.64236595 -970.46820641 730.03343487 C-970.40996928 733.55459702 -970.3670187 737.07507347 -970.34814453 740.59667969 C-970.21090308 763.47584818 -970.21090308 763.47584818 -961 784 C-960.12528407 785.67035631 -959.27243771 787.35256311 -958.453125 789.05078125 C-946.2204163 812.88394019 -931.00060659 835.30769011 -914 856 C-913.55060059 856.5470459 -913.10120117 857.0940918 -912.63818359 857.65771484 C-902.8330919 869.52886701 -892.40538881 880.78166391 -881.52050781 891.66479492 C-879.99513287 893.19237416 -878.47799328 894.72783582 -876.9609375 896.26367188 C-870.63183124 902.62840329 -864.02655867 908.40059951 -857 914 C-855.89819441 914.93480613 -854.8018506 915.87615116 -853.71484375 916.828125 C-809.60682223 955.29081606 -754.15763611 982.38998781 -698 998 C-697.05560059 998.2686084 -696.11120117 998.5372168 -695.13818359 998.81396484 C-670.17395117 1005.83583206 -643.86690886 1010.16672014 -618 1012 C-616.64712083 1012.11049863 -615.29425609 1012.22117408 -613.94140625 1012.33203125 C-517.15826322 1019.67999222 -417.52346254 988.37462885 -311.625 909.8125 C-309.40505413 907.88796401 -307.19999316 905.94728659 -305 904 C-304.07832031 903.19046875 -303.15664063 902.3809375 -302.20703125 901.546875 C-295.36777767 895.41180409 -288.83583979 888.9676576 -282.3125 882.5 C-281.43327881 881.63383057 -280.55405762 880.76766113 -279.64819336 879.87524414 C-274.46943577 874.70330134 -269.71445837 869.35648467 -265.14428711 863.64086914 C-263.12711007 861.1565467 -261.0387038 858.77359284 -258.890625 856.40234375 C-254.91573011 851.97432656 -251.30030528 847.33490127 -247.75 842.5625 C-247.10377686 841.69560547 -246.45755371 840.82871094 -245.79174805 839.93554688 C-230.33906435 819.04027694 -216.89626203 796.8776174 -205.34814453 773.59667969 C-204 771 -204 771 -202.50732422 768.66113281 C-199.36085233 763.46506452 -198.8072251 759.81890079 -199.36401367 753.75732422 C-200.06697486 745.01090467 -200.12696978 736.33271542 -200.0859375 727.5625 C-200.0816214 725.8716641 -200.07759197 724.18082744 -200.07382202 722.48999023 C-200.05881922 716.99326835 -200.03075999 711.49665359 -200 706 C-199.99492935 705.06510742 -199.9898587 704.13021484 -199.9846344 703.16699219 C-199.90568611 688.88935022 -199.78948576 674.6121248 -199.65604782 660.33489609 C-199.62441294 656.93694341 -199.59369904 653.53898314 -199.5630188 650.14102173 C-199.29090561 620.42548932 -198.83953221 590.72018158 -198.14048672 561.01167107 C-197.98047218 554.17402708 -197.83438678 547.33620158 -197.69799805 540.49804688 C-197.67883992 539.53897997 -197.6596818 538.57991306 -197.63994312 537.59178352 C-197.54452505 532.79102648 -197.45088614 527.99023839 -197.35847473 523.18942261 C-197.15067324 512.54818714 -196.89183748 501.91003766 -196.58223629 491.27127934 C-196.36324617 483.58538034 -196.20396755 475.89950492 -196.08606815 468.21140194 C-196.01550024 463.736738 -195.92064446 459.26647938 -195.75387573 454.79428101 C-194.84076005 429.7002501 -199.21875908 412.61013146 -212 391 C-213.30271316 388.70266246 -214.58495899 386.39462942 -215.86889648 384.08666992 C-228.79332499 360.91523769 -244.03119976 338.7323404 -261.51171875 318.75927734 C-262.62951535 317.43794494 -263.71558356 316.08966654 -264.78515625 314.72900391 C-271.10034553 306.74450356 -278.10547348 299.58902051 -285.31933594 292.41992188 C-287.37148541 290.37849623 -289.41271421 288.32658861 -291.453125 286.2734375 C-298.66699368 279.05230487 -305.97183813 272.31399426 -314 266 C-315.10238802 265.06588078 -316.1986899 264.12446565 -317.28515625 263.171875 C-335.42932339 247.3499571 -355.82878004 234.22214036 -376.70410156 222.31103516 C-378.26388014 221.42034918 -379.82042364 220.5239788 -381.37402344 219.62255859 C-436.80009615 187.57832973 -500.8145374 170.34708237 -564.5 166.75 C-565.22644714 166.70880035 -565.95289429 166.66760071 -566.70135498 166.62515259 C-652.40691253 161.91352677 -737.78946357 184.56287536 -811 229 Z " fill="#000000" transform="translate(1163,0)"/>
<path d="M0 0 C1.03995117 0.15065918 2.07990234 0.30131836 3.15136719 0.45654297 C58.54369792 8.80629917 111.21417378 30.92488191 155 66 C155.93070313 66.73734375 156.86140625 67.4746875 157.8203125 68.234375 C174.6106314 81.72403292 190.82820072 96.92361482 204 114 C204.82113281 115.00417969 205.64226563 116.00835937 206.48828125 117.04296875 C218.58273903 131.88596526 229.11366652 148.04621018 238 165 C238.33692871 165.64211426 238.67385742 166.28422852 239.02099609 166.94580078 C241.43651555 171.58872231 243.73694029 176.28123154 246 181 C246.31791504 181.65033203 246.63583008 182.30066406 246.96337891 182.97070312 C266.73550909 223.69868311 275.22129518 269.54994302 275.25 314.5625 C275.25101212 315.99237747 275.25101212 315.99237747 275.25204468 317.45114136 C275.23444443 333.15664493 274.52479584 348.46942657 272 364 C271.82839355 365.06879395 271.65678711 366.13758789 271.47998047 367.23876953 C260.21085833 435.22611853 225.93277058 507.56143512 171.953125 552.35546875 C169.57217133 554.36023174 167.33193281 556.49485872 165.0625 558.625 C120.35696577 599.26639475 62.22498877 624.47786639 3 634 C1.4840625 634.2477417 1.4840625 634.2477417 -0.0625 634.50048828 C-81.36471145 647.16466974 -166.93824782 625.45919865 -233.27636719 577.34912109 C-241.02118132 571.63429147 -248.58809604 565.7702846 -255.62890625 559.1953125 C-257.6261861 557.34610117 -259.65733875 555.56536061 -261.71875 553.7890625 C-273.09267339 543.86451024 -283.80790946 532.97757252 -293 521 C-293.87255304 519.91469483 -294.74771347 518.83148253 -295.625 517.75 C-302.28282973 509.49848504 -308.32014124 500.9507227 -314 492 C-314.36802734 491.42233887 -314.73605469 490.84467773 -315.11523438 490.24951172 C-336.84486773 455.85076088 -351.50604106 417.94821456 -359 378 C-359.16580566 377.12263184 -359.33161133 376.24526367 -359.50244141 375.34130859 C-363.22104317 355.00682786 -364.8817909 333.65441377 -364 313 C-363.95891113 311.99517578 -363.91782227 310.99035156 -363.87548828 309.95507812 C-360.03554645 225.1083124 -324.94010829 151.74706098 -265.38427734 92.19897461 C-263.49677187 90.30926811 -261.61745383 88.41166062 -259.73828125 86.51367188 C-252.80055804 79.54373172 -245.76260125 73.05408998 -238 67 C-236.79529388 66.02408398 -235.59195051 65.0464807 -234.390625 64.06640625 C-226.24388176 57.5353473 -217.81499869 51.5937324 -209 46 C-208.42233887 45.63197266 -207.84467773 45.26394531 -207.24951172 44.88476562 C-146.65000198 6.60415669 -71.22146289 -10.38380899 0 0 Z M-195 49 C-195.78165527 49.38124023 -196.56331055 49.76248047 -197.36865234 50.15527344 C-226.68034961 64.60022321 -255.58565866 85.2723648 -277 110 C-277.92380422 111.03836129 -278.84831712 112.07609241 -279.7734375 113.11328125 C-325.14453629 164.43382277 -353.03319742 233.40585405 -355 302 C-355.02723145 302.87833496 -355.05446289 303.75666992 -355.08251953 304.66162109 C-357.02712151 378.3975038 -333.04684174 452.57951241 -285 509 C-284.13571486 510.04865258 -283.27248595 511.09817633 -282.41015625 512.1484375 C-271.65369367 525.12096108 -259.84109376 537.66169016 -246.51953125 548.02734375 C-244.81016912 549.36568154 -243.14092947 550.75657546 -241.51171875 552.19140625 C-226.74825858 565.16017662 -209.48656269 576.06007046 -192 585 C-190.66195312 585.68739258 -190.66195312 585.68739258 -189.296875 586.38867188 C-173.94593159 594.19612921 -158.37571374 600.6725656 -142 606 C-141.10893555 606.29100586 -140.21787109 606.58201172 -139.29980469 606.88183594 C-118.84808999 613.43163065 -97.39942532 617.31110396 -76 619 C-75.29230469 619.05639648 -74.58460938 619.11279297 -73.85546875 619.17089844 C1.74029415 624.92571102 77.95710448 601.58793908 137 554 C137.57411621 553.53770996 138.14823242 553.07541992 138.73974609 552.59912109 C145.51833012 547.09466166 151.98050819 541.25650934 158.375 535.3125 C159.02927979 534.70680176 159.68355957 534.10110352 160.35766602 533.47705078 C164.29797082 529.77225036 167.92881847 525.90598851 171.45019531 521.80151367 C173.30497108 519.64549754 175.24561269 517.5775481 177.1875 515.5 C224.66626626 462.77273067 249.19323392 390.70240433 249.25 320.375 C249.25067474 319.61365753 249.25134949 318.85231506 249.25204468 318.06790161 C249.15362132 247.44500201 223.07298635 175.92821869 176 123 C174.79143568 121.60436666 173.58307387 120.2085579 172.375 118.8125 C171.25242098 117.53952761 170.12727475 116.26881598 169 115 C168.28070312 114.18789063 167.56140625 113.37578125 166.8203125 112.5390625 C159.93747364 104.82194014 152.80596177 97.77103624 145 91 C144.08238892 90.19840454 144.08238892 90.19840454 143.14624023 89.38061523 C104.27860381 55.65110872 55.64019752 31.62763101 5 22 C4.04818848 21.81888672 3.09637695 21.63777344 2.11572266 21.45117188 C-65.20887666 9.0113457 -133.57131696 18.82252369 -195 49 Z " fill="#000000" transform="translate(628,275)"/>
<path d="M0 0 C1.32 0 2.64 0 4 0 C5.91522648 24.0210984 7.09864374 48.07577004 8.27602768 72.14214325 C8.43925158 75.47324653 8.60372276 78.80428634 8.76846313 82.13531494 C10.39387584 115.05158089 11.82478224 147.97095564 13.04003906 180.90478516 C13.15140745 183.91700283 13.26306722 186.9292095 13.375 189.94140625 C13.40155418 190.65740494 13.42810837 191.37340363 13.45546722 192.11109924 C13.87645175 203.40157659 14.41581531 214.68173734 15.05471802 225.96188354 C17.75825127 273.82206488 19.3759607 331.87211791 4 378 C2.68 378 1.36 378 0 378 C-6.99117678 346.69074841 -10.18170926 314.77025024 -11.625 282.75 C-11.66520264 281.87722412 -11.70540527 281.00444824 -11.74682617 280.10522461 C-12.45338482 262.00315902 -11.83114076 243.98856383 -10.89019775 225.90753174 C-10.52912139 218.94683616 -10.18681232 211.98523162 -9.84765625 205.0234375 C-9.79395748 203.92443682 -9.79395748 203.92443682 -9.73917389 202.8032341 C-9.19373322 191.59250163 -8.7234792 180.38035327 -8.30859375 169.1640625 C-8.28078135 168.4136393 -8.25296894 167.66321609 -8.22431374 166.8900528 C-8.08165194 163.03487888 -7.93983738 159.17967409 -7.79818726 155.32446289 C-6.59752679 122.7014557 -5.06560205 90.10124654 -3.375 57.5 C-3.31961311 56.42824776 -3.26422623 55.35649551 -3.20716095 54.25226593 C-2.88685709 48.05474395 -2.56415035 41.85735551 -2.23758698 35.66016006 C-2.13811475 33.7717817 -2.03903606 31.88338256 -1.94039154 29.99496078 C-1.41605161 19.98478218 -0.83965648 9.98959901 0 0 Z " fill="#000000" transform="translate(96,5)"/>
<path d="M0 0 C1.32 0 2.64 0 4 0 C6.06373166 23.29732912 7.13809413 46.64814755 8.27602768 70.00481415 C8.4390905 73.34508076 8.60359939 76.68527348 8.76846313 80.02545166 C10.39282437 112.9810746 11.8246005 145.93996936 13.04003906 178.91308594 C13.15139524 181.92774546 13.26305451 184.94239355 13.375 187.95703125 C13.40155418 188.67352718 13.42810837 189.39002312 13.45546722 190.12823105 C13.87321392 201.33727219 14.41379783 212.53526804 15.05471802 223.73364258 C21.81848357 342.36303285 21.81848357 342.36303285 4 378 C2.68 378 1.36 378 0 378 C-11.51093687 323.77780295 -13.17239293 268.79479522 -10.45404053 213.59790802 C-10.20981229 208.5759977 -9.98165407 203.55335384 -9.75195312 198.53076172 C-9.41627915 191.21785705 -9.07581939 183.90520524 -8.72935295 176.59280396 C-8.11151972 163.54115514 -7.53661926 150.48800188 -6.98046875 137.43359375 C-5.02060632 91.59918545 -2.73782619 45.79472393 0 0 Z " fill="#000000" transform="translate(172,5)"/>
<path d="M0 0 C1.3092041 0.00128906 2.6184082 0.00257813 3.96728516 0.00390625 C13.34963272 0.09704284 22.11498972 0.87770491 31.1875 3.3125 C31.5175 4.6325 31.8475 5.9525 32.1875 7.3125 C26.04547594 10.15264162 19.73069782 12.02136328 13.25 13.9375 C-14.76915255 22.41898389 -40.36064595 33.94283839 -65.8125 48.3125 C-66.91198975 48.9317334 -66.91198975 48.9317334 -68.03369141 49.56347656 C-101.05076132 68.31119064 -124.92695249 96.54798547 -141.8125 130.3125 C-142.16924805 131.01938965 -142.52599609 131.7262793 -142.89355469 132.45458984 C-153.44633757 153.73480046 -157.40037649 177.03822598 -160.8125 200.3125 C-162.1325 200.3125 -163.4525 200.3125 -164.8125 200.3125 C-165.5430438 145.24635582 -151.42496138 98.29252902 -114.8125 56.3125 C-114.1628125 55.55066406 -113.513125 54.78882813 -112.84375 54.00390625 C-106.34934906 46.43202515 -99.37895487 39.76025601 -91.58203125 33.53125 C-89.84842828 32.14241152 -88.13380171 30.72915601 -86.44921875 29.28125 C-62.69839228 9.16290287 -30.67986834 -0.12578549 0 0 Z " fill="#000000" transform="translate(547.8125,392.6875)"/>
</svg>
