<?xml version="1.0" encoding="UTF-8"?>
<svg version="1.1" xmlns="http://www.w3.org/2000/svg" width="1181" height="1181">
<path d="M0 0 C2.33294775 -0.04241723 4.66702567 -0.04092937 7 0 C8.58487053 1.58487053 8.23048546 3.26726747 8.33889771 5.47001648 C8.41410865 6.92906969 8.41410865 6.92906969 8.490839 8.41759872 C8.54171858 9.5001305 8.59259815 10.58266228 8.64501953 11.69799805 C8.73101441 13.41061262 8.73101441 13.41061262 8.81874657 15.15782547 C8.97778155 18.34811131 9.13242448 21.53857502 9.28505898 24.72917247 C9.41688021 27.47007379 9.55204526 30.21080617 9.68720984 32.95154434 C10.09690036 41.26056086 10.49700421 49.57002347 10.89466095 57.87962341 C11.08658435 61.889452 11.27976762 65.89921865 11.47341073 69.90896451 C15.57976481 154.93982576 19.17412258 239.99302199 28.71437073 495.24477768 C28.8106404 498.31568062 28.90778959 501.38655485 29.00500488 504.45742798 C30.23180477 543.40410592 30.23180477 543.40410592 30 562 C30.92104019 561.950215 31.84208038 561.90042999 32.79103088 561.84913635 C57.30093094 560.52942387 81.814612 559.3194635 106.33422852 558.19506836 C110.08234933 558.02312346 113.83039067 557.84958078 117.57836914 557.67456055 C130.05123464 557.09233903 142.52471939 556.52815098 155 556 C156.06574438 555.95460775 156.06574438 555.95460775 157.15301895 555.90829849 C181.20416543 554.89194001 205.24405003 554.79777217 229.3125 554.8125 C230.78386854 554.81290031 230.78386854 554.81290031 232.2849617 554.81330872 C262.13833952 554.82347972 291.91301237 555.09185567 321.72460938 556.81317139 C325.31734624 557.01810146 328.91054912 557.21299553 332.50390625 557.40673828 C420.15845039 562.16084671 507.61050843 570.04835257 594 586 C594 588.97 594 591.94 594 595 C507.42113681 611.51324559 419.46962208 618.96988549 331.55096436 623.80145264 C328.34348217 623.98079466 325.13678524 624.16954123 321.93017578 624.36376953 C255.82127478 628.33397971 189.07377626 627.03695097 122.96472168 623.64848328 C112.16234222 623.09549134 101.35794638 622.61724419 90.55078125 622.16796875 C88.93396846 622.10037672 87.31715733 622.03274495 85.7003479 621.96507263 C82.53058644 621.83253489 79.3608169 621.70019259 76.19104004 621.56802368 C75.03942635 621.51998785 75.03942635 621.51998785 73.86454773 621.4709816 C72.33799008 621.40733329 70.81142964 621.34375174 69.28486633 621.28023911 C64.99404166 621.10144867 60.70336525 620.91965426 56.41286278 620.7332859 C54.50940938 620.65136425 52.60581858 620.57265474 50.70222473 620.49406433 C44.42547042 620.21926195 38.23443363 619.78268322 32 619 C32.23027893 620.8920517 32.23027893 620.8920517 32.46520996 622.82232666 C33.05575457 628.1562397 33.32669117 633.48285472 33.55664062 638.84277344 C33.60394821 639.88990509 33.6512558 640.93703674 33.69999695 642.01589966 C33.85499326 645.46360169 34.00570096 648.91147613 34.15625 652.359375 C34.26430721 654.78811604 34.37258756 657.21684717 34.4810791 659.64556885 C34.70814647 664.74279938 34.93321569 669.84011282 35.15673828 674.9375 C35.4395098 681.38477125 35.72612449 687.83186412 36.01401138 694.27890873 C36.65224183 708.57742059 37.27317248 722.87659941 37.87940979 737.17650223 C37.98474151 739.64273799 38.09234006 742.10885369 38.20153809 744.57492065 C39.22976721 768.06131925 39.24400666 791.55768583 39.25 815.0625 C39.25088371 816.65590588 39.25088371 816.65590588 39.25178528 818.28150177 C39.2663595 855.66235889 38.46857899 892.89139444 36.22784424 930.20501709 C36.00106414 933.9822756 35.78109753 937.75988589 35.56201172 941.53759766 C30.87036793 1021.45845989 23.95938424 1102.45547735 8 1181 C5.03 1181 2.06 1181 -1 1181 C-17.05998715 1093.45954516 -25.33038674 1004.81701728 -29.84570312 915.97888184 C-29.99574329 913.08218074 -30.15466072 910.18610781 -30.31640625 907.29003906 C-33.62389054 847.38847114 -33.29982434 786.88345367 -30.38134766 726.97216797 C-29.93993065 717.86948161 -29.54342979 708.76487451 -29.14365005 699.66028023 C-28.45072168 683.90305702 -27.75017524 668.14613695 -27.02497292 652.39036369 C-26.94455615 650.63839451 -26.86474056 648.88639761 -26.78558922 647.1343708 C-26.33053174 637.07620998 -25.78089026 627.0391257 -25 617 C-25.82577907 617.00466404 -25.82577907 617.00466404 -26.66824055 617.0094223 C-40.83738812 617.07800221 -54.97531508 616.85759122 -69.13671875 616.40625 C-71.3234016 616.33869252 -73.51008794 616.27124796 -75.69677734 616.2039032 C-83.02723982 615.97602914 -90.35737365 615.73840452 -97.6875 615.5 C-98.97846714 615.45830814 -100.26943428 615.41661629 -101.59952164 615.37366104 C-198.24809135 612.25068336 -294.88278206 608.44858126 -459.5 601.1875 C-460.27605953 601.15180641 -461.05211905 601.11611281 -461.85169554 601.0793376 C-482.21497566 600.14261078 -502.57706524 599.18316178 -522.93798828 598.19646454 C-526.43272328 598.02723549 -529.92752194 597.85935506 -533.42233419 597.69173008 C-540.49945965 597.35220717 -547.57639107 597.00903787 -554.65301275 596.65916067 C-557.96208256 596.4955565 -561.27122092 596.33375323 -564.58052063 596.17485619 C-568.17696787 596.00170301 -571.77306933 595.82261524 -575.36914062 595.6418457 C-576.43992859 595.59151751 -577.51071655 595.54118931 -578.61395264 595.48933601 C-579.58008484 595.43950506 -580.54621704 595.38967411 -581.54162598 595.33833313 C-582.80509731 595.27614326 -582.80509731 595.27614326 -584.09409332 595.21269703 C-586 595 -586 595 -587 594 C-587.04092937 591.66702567 -587.04241723 589.33294775 -587 587 C-584.19891777 586.06630592 -582.21207839 585.80514774 -579.29620361 585.66110229 C-577.83519793 585.58589135 -577.83519793 585.58589135 -576.34467697 585.509161 C-575.27090427 585.45828142 -574.19713158 585.40740185 -573.09082031 585.35498047 C-571.38014311 585.26898559 -571.38014311 585.26898559 -569.63490677 585.18125343 C-566.45704334 585.02256972 -563.27901709 584.86782375 -560.10087013 584.71494102 C-557.36773291 584.58285627 -554.63474527 584.44780601 -551.90175152 584.31279016 C-543.61580724 583.90357855 -535.3294479 583.50323447 -527.04295349 583.10533905 C-523.04334081 582.91328123 -519.04378258 582.72011537 -515.04424071 582.52658927 C-429.68343454 578.396954 -344.29858159 574.83179052 -88.69738007 565.28562927 C-85.62052129 565.18931621 -82.54368931 565.0921781 -79.46685791 564.99499512 C-41.64179537 563.80617346 -41.64179537 563.80617346 -23 564 C-23.01094444 562.12369652 -23.01094444 562.12369652 -23.02210999 560.20948792 C-23.07560274 546.84456534 -22.80108706 533.50955652 -22.37109375 520.15234375 C-22.30074547 517.90084759 -22.23053977 515.64934698 -22.16046143 513.39784241 C-21.92557151 505.91086112 -21.68182205 498.42417844 -21.4375 490.9375 C-21.37278925 488.94134797 -21.30807874 486.94519594 -21.24339861 484.94904292 C-18.40485268 397.42971237 -15.04090603 309.92308918 -5 83 C-4.94179329 81.76014091 -4.88358658 80.52028183 -4.82361603 79.24285126 C-4.14616463 64.82117557 -3.45881256 50.40003003 -2.74972153 35.97987366 C-2.6268609 33.47543342 -2.50517277 30.97093844 -2.38369751 28.46643066 C-2.20265726 24.74403543 -2.01713424 21.02189435 -1.82732201 17.29993629 C-1.73045524 15.38552719 -1.63740264 13.47092624 -1.54450989 11.55632019 C-1.48679916 10.4516188 -1.42908844 9.34691742 -1.36962891 8.20874023 C-1.32190338 7.26473862 -1.27417786 6.320737 -1.2250061 5.34812927 C-1 3 -1 3 0 0 Z " fill="#000000" transform="translate(587,0)"/>
</svg>
