<?xml version="1.0" encoding="UTF-8"?>
<svg version="1.1" xmlns="http://www.w3.org/2000/svg" width="1181" height="1181">
<path d="M0 0 C3.07828838 1.381594 5.28031114 2.98977536 7.72265625 5.30859375 C8.42076416 5.96802979 9.11887207 6.62746582 9.83813477 7.30688477 C10.57217529 8.00998779 11.30621582 8.71309082 12.0625 9.4375 C13.19933228 10.51632446 13.19933228 10.51632446 14.35913086 11.61694336 C19.54998515 16.56064039 24.62962602 21.60044612 29.66796875 26.69921875 C31.67907136 28.68337191 33.7247601 30.54529275 35.875 32.375 C40.23236511 36.08682954 44.19444137 40.16819337 48.21557617 44.23510742 C51.70003039 47.74388239 55.27104005 51.06153503 59.04296875 54.26171875 C62.36769147 57.21481578 65.43446242 60.42755509 68.55859375 63.58984375 C71.27202727 66.26854532 74.10777023 68.74608118 77.00390625 71.22265625 C80.06666727 73.94977223 82.90223493 76.89404637 85.78125 79.8125 C87.79430632 81.79720342 89.85446403 83.66096916 92 85.5 C95.79078785 88.74924673 99.26878424 92.25186032 102.7734375 95.8046875 C105.44633174 98.44006743 108.25368303 100.87766489 111.1015625 103.3203125 C113.59096719 105.5228722 115.8945103 107.88352636 118.22265625 110.25390625 C120.06593574 112.06477643 121.97822799 113.75321354 123.9375 115.4375 C126.74576347 117.85617779 129.39970593 120.35899683 132 123 C134.58009215 125.62040609 137.21103607 128.10323412 140 130.5 C143.51001511 133.51641923 146.75051276 136.73095132 149.99609375 140.02734375 C152.58246151 142.57337829 155.3153528 144.92021557 158.06640625 147.28515625 C159.95494597 148.96004299 161.73155648 150.69947587 163.5 152.5 C165.81019441 154.851726 168.17782188 157.05039265 170.6875 159.1875 C174.30139763 162.29615369 177.65286202 165.61115314 181 169 C184.22396615 172.26384204 187.43517979 175.46830253 190.9375 178.4375 C195.23094262 182.08558173 199.1472711 186.09207511 203.08178711 190.11889648 C205.85377094 192.93558279 208.67885477 195.61812527 211.68296814 198.18714905 C216.11092741 202.04435427 220.2708494 206.13005913 224.41625977 210.28686523 C225.21573029 211.08458344 226.01520081 211.88230164 226.83889771 212.70419312 C229.45890712 215.31983142 232.07527693 217.93907506 234.69140625 220.55859375 C236.52393749 222.39045059 238.3566171 224.22215903 240.18943787 226.0537262 C244.02139298 229.88421076 247.85159109 233.71643963 251.68041992 237.55004883 C256.08880385 241.96387357 260.50077828 246.37408469 264.91463429 250.78243679 C269.18412916 255.04682345 273.45077911 259.31404385 277.71626091 263.58244514 C279.52114516 265.38799387 281.32676533 267.19280727 283.1331501 268.99685478 C285.66224712 271.52339677 288.18809022 274.05314901 290.71313477 276.58374023 C291.45151077 277.32009201 292.18988678 278.05644379 292.95063782 278.81510925 C296.92812895 282.80870499 300.73617294 286.88996602 304.39692593 291.17662144 C307.26904058 294.4434401 310.39563316 297.45605879 313.5 300.5 C317.99772809 304.94946567 322.38018345 309.40927094 326.46484375 314.24609375 C328.84856857 316.96948419 331.4534663 319.46187451 334.03125 322 C336.55425459 324.56305228 338.87562817 327.27345824 341.21875 330 C343.63097809 332.70846663 346.20408097 335.23152645 348.8125 337.75 C350.70532164 339.69690226 352.48689757 341.68446948 354.265625 343.734375 C357.98333185 348.01429098 361.84776499 352.13865728 365.75 356.25 C372.2325916 363.10887009 378.64253975 370.02512328 385 377 C386.83198671 379.00123558 388.66603663 381.00057597 390.5 383 C391.41408466 383.99737552 392.32814718 384.99477134 393.2421875 385.9921875 C395.10032595 388.01936769 396.95984479 390.0452699 398.8203125 392.0703125 C404.58451305 398.34670858 410.30940476 404.65672 416 411 C417.49971128 412.66692647 418.99971321 414.33359149 420.5 416 C421.23992188 416.82242187 421.97984375 417.64484375 422.7421875 418.4921875 C424.26708244 420.18592894 425.79315402 421.87861169 427.3203125 423.5703125 C431.31556007 427.99894286 435.28113611 432.44881779 439.1953125 436.94921875 C441.22958141 439.26088797 443.3022231 441.5353143 445.375 443.8125 C448.46636801 447.23229328 451.42459032 450.71958524 454.3125 454.3125 C458.20191158 459.1250529 462.3274325 463.6459852 466.5534668 468.15893555 C470.49790439 472.39494858 474.16480701 476.80634808 477.7890625 481.3203125 C480.1093495 484.13253315 482.53071134 486.81797263 485 489.5 C489.01851651 493.87036819 492.79787076 498.37474475 496.52734375 502.9921875 C499.41680589 506.50701506 502.38688094 509.9440512 505.375 513.375 C514.42681156 523.77411306 523.29974695 534.30398998 532 545 C533.49943092 546.83379879 534.99943458 548.66712943 536.5 550.5 C545.5 561.5 545.5 561.5 547.7578125 564.26171875 C549.22892613 566.05832268 550.70279528 567.85267457 552.1796875 569.64453125 C556.76472937 575.21674406 561.26202512 580.84932274 565.70703125 586.53320312 C568.57541637 590.19792169 571.46926096 593.84015942 574.38867188 597.46435547 C576.39487949 599.95893359 578.38759965 602.46412163 580.37939453 604.97021484 C581.51829304 606.39666893 582.663031 607.81847076 583.81201172 609.23681641 C585.66003864 611.52165846 587.48760606 613.82166108 589.3125 616.125 C589.89435059 616.83567627 590.47620117 617.54635254 591.07568359 618.27856445 C595.00482151 623.29220199 595.00482151 623.29220199 594.98046875 626.8671875 C594 629 594 629 592 631 C586.69587432 630.99039108 583.31155061 627.31737928 579.5 624.0625 C578.06625288 622.86711047 576.63134253 621.67311483 575.1953125 620.48046875 C574.48536133 619.8879834 573.77541016 619.29549805 573.04394531 618.68505859 C570.20470669 616.34434849 567.30068116 614.107 564.375 611.875 C563.31495146 611.06530405 562.25505582 610.25540788 561.1953125 609.4453125 C560.67098633 609.04473633 560.14666016 608.64416016 559.60644531 608.23144531 C549.1870679 600.24431162 539.02745911 591.95471225 528.91552734 583.58349609 C526.32581981 581.44268 523.72649871 579.31397469 521.125 577.1875 C519.84109375 576.13755859 519.84109375 576.13755859 518.53125 575.06640625 C516.80343702 573.65589226 515.07420714 572.24711257 513.34375 570.83984375 C505.58758134 564.52124083 497.95631737 558.06252062 490.33398438 551.58398438 C488.68166437 550.18019194 487.02860202 548.77728202 485.375 547.375 C484.83593018 546.91770508 484.29686035 546.46041016 483.74145508 545.98925781 C480.29807526 543.07606986 476.81730074 540.21433224 473.3125 537.375 C468.91773359 533.80067479 464.71296517 530.06142322 460.52734375 526.24609375 C457.93037607 523.93812402 455.26595987 521.74444137 452.5625 519.5625 C447.78427379 515.69825236 443.25773982 511.6185129 438.73828125 507.45703125 C436.11839954 505.10623867 433.43447781 502.88749541 430.6875 500.6875 C424.9451666 496.05578982 419.599357 491.05176537 414.22265625 486.0078125 C411.18205669 483.1577443 408.07651576 480.39511189 404.921875 477.671875 C402.58894926 475.64241927 400.29488755 473.572353 398 471.5 C395.01937279 468.81016569 392.02754767 466.13689636 389 463.5 C384.28295535 459.38916189 379.64499871 455.19182811 375 451 C374.195625 450.278125 373.39125 449.55625 372.5625 448.8125 C367.49870694 444.26807033 362.46923468 439.68778195 357.45922852 435.08422852 C354.34402807 432.22426613 351.2116546 429.38499999 348.0625 426.5625 C342.5502507 421.61380335 337.11379978 416.58472523 331.67773438 411.55273438 C328.93282499 409.01233512 326.185325 406.47474479 323.4375 403.9375 C322.89601318 403.43726318 322.35452637 402.93702637 321.79663086 402.42163086 C318.29185866 399.18585032 314.77327338 395.96564788 311.25 392.75 C304.9024681 386.94657263 298.64990959 381.0430068 292.39453125 375.140625 C289.48228609 372.39344375 286.56311903 369.65397231 283.63671875 366.921875 C271.6012352 355.68322346 271.6012352 355.68322346 265.85131836 349.81835938 C264.08458888 348.08308294 262.26190764 346.47768724 260.375 344.875 C254.64262617 339.89147353 249.39124124 334.4376496 244.06640625 329.02734375 C243.27105469 328.22425781 242.47570312 327.42117188 241.65625 326.59375 C240.95306641 325.87896484 240.24988281 325.16417969 239.52539062 324.42773438 C237.52557429 322.50525046 235.50208595 320.69801559 233.39868164 318.89428711 C228.010335 314.21204129 223.00364169 309.14804649 217.96484375 304.09765625 C216.91702054 303.05050864 215.8690491 302.00350934 214.82093811 300.95664978 C212.63673012 298.77390674 210.45431668 296.58938975 208.27319336 294.40356445 C205.49746119 291.62213576 202.71726218 288.84522224 199.93569088 286.06963444 C197.77440797 283.91198979 195.61554286 281.75193853 193.45736885 279.59118462 C192.43398679 278.5671423 191.40988039 277.54382326 190.3849926 276.52128792 C185.2648274 271.41030248 180.25359119 266.25811061 175.54176331 260.7641449 C173.1802335 258.06199163 170.65180819 255.54587623 168.09375 253.03125 C167.56535522 252.50664185 167.03696045 251.98203369 166.49255371 251.44152832 C164.83083649 249.79183919 163.16587863 248.14548606 161.5 246.5 C148.89850796 234.05276697 148.89850796 234.05276697 143.52539062 227.74804688 C140.99725038 224.85088232 138.24877929 222.18573199 135.5 219.5 C131.35613152 215.40796669 127.37702698 211.26627622 123.60546875 206.82421875 C121.19218534 204.08211814 118.5705291 201.56175172 115.96875 199 C113.44574541 196.43694772 111.12437183 193.72654176 108.78125 191 C106.9257479 188.91662922 104.98776899 186.95718793 103 185 C99.74970017 181.79970478 96.75275755 178.45775424 93.78125 175 C91.29742572 172.21114467 88.63288563 169.62313017 85.97265625 167.00390625 C83.42662171 164.41753849 81.07978443 161.6846472 78.71484375 158.93359375 C77.03995701 157.04505403 75.30052413 155.26844352 73.5 153.5 C71.06610268 151.10946833 68.78644441 148.64953738 66.5625 146.0625 C64.14382221 143.25423653 61.64100317 140.60029407 59 138 C56.40017817 135.44009866 53.93731602 132.8322046 51.5625 130.0625 C48.99334729 127.07198284 46.30682744 124.26883316 43.5 121.5 C40.0928121 118.13885518 36.92541826 114.66298797 33.8125 111.03125 C31.7890712 108.76361428 29.66346653 106.6342305 27.5 104.5 C24.79616607 101.83245914 22.20744465 99.14540508 19.75 96.25 C15.8730492 91.71157892 11.6165461 87.56432395 7.35449219 83.39160156 C3.10218297 79.20436594 3.10218297 79.20436594 2 77 C-0.93262558 78.33257416 -3.09550637 79.81109751 -5.43359375 82.01953125 C-6.39749023 82.92541992 -6.39749023 82.92541992 -7.38085938 83.84960938 C-8.05955078 84.49736328 -8.73824219 85.14511719 -9.4375 85.8125 C-10.14326172 86.47958984 -10.84902344 87.14667969 -11.57617188 87.83398438 C-16.63710029 92.63981648 -21.61141633 97.52791254 -26.48608398 102.52270508 C-29.18493157 105.26967341 -31.95688062 107.8607529 -34.875 110.375 C-39.12619575 114.05236514 -43.06572309 117.98888175 -47 122 C-51.51975312 126.60802955 -56.10932227 131.01017797 -61 135.22265625 C-64.48971278 138.32386585 -67.7321662 141.66834132 -71 145 C-75.52978713 149.61825953 -80.12959484 154.0319728 -85.03125 158.25390625 C-88.33738101 161.18612958 -91.40917665 164.34410669 -94.5 167.5 C-98.21590024 171.29412972 -101.94312464 175.00136566 -105.96875 178.46875 C-110.1923881 182.11066491 -114.09658163 186.02034299 -118 190 C-122.55989783 194.64895834 -127.19041822 199.09736218 -132.125 203.34765625 C-134.87938803 205.7749607 -137.43853658 208.37240062 -140 211 C-143.84850236 214.90149379 -147.7644768 218.60846364 -151.94140625 222.16015625 C-154.56498723 224.50495064 -157.02990104 226.99630568 -159.5 229.5 C-162.55338283 232.59491133 -165.62323661 235.61934257 -168.9375 238.4375 C-172.476791 241.45352827 -175.73494445 244.69447901 -179 248 C-182.82987694 251.87728374 -186.72051306 255.5624361 -190.875 259.09375 C-194.24854164 262.1200153 -197.39203536 265.37210706 -200.57592773 268.59545898 C-203.9058233 271.95060894 -207.33931399 275.09725452 -210.94140625 278.16015625 C-213.56498723 280.50495064 -216.02990104 282.99630568 -218.5 285.5 C-221.55338283 288.59491133 -224.62323661 291.61934257 -227.9375 294.4375 C-231.47679074 297.45352804 -234.73494745 300.69447578 -238 304 C-241.85121937 307.89895683 -245.76421729 311.60824297 -249.94140625 315.16015625 C-253.07153162 317.95766867 -255.98685658 320.96624506 -258.93383789 323.95336914 C-262.13385771 327.17998653 -265.45072272 330.17930461 -268.90625 333.125 C-272.04443273 335.93531289 -274.9720669 338.95118637 -277.92919922 341.94873047 C-281.17364737 345.22020631 -284.53617507 348.26963506 -288.0390625 351.2578125 C-291.09229171 353.97044244 -293.9140315 356.90600453 -296.78125 359.8125 C-299.40771122 362.40196881 -302.16976458 364.78836964 -304.96875 367.1875 C-307.23638572 369.2109288 -309.3657695 371.33653347 -311.5 373.5 C-314.86114482 376.9071879 -318.33701203 380.07458174 -321.96875 383.1875 C-324.23638572 385.2109288 -326.3657695 387.33653347 -328.5 389.5 C-331.86114482 392.9071879 -335.33701203 396.07458174 -338.96875 399.1875 C-341.23638572 401.2109288 -343.3657695 403.33653347 -345.5 405.5 C-348.86114482 408.9071879 -352.33701203 412.07458174 -355.96875 415.1875 C-358.23638572 417.2109288 -360.3657695 419.33653347 -362.5 421.5 C-365.86114482 424.9071879 -369.33701203 428.07458174 -372.96875 431.1875 C-375.23638572 433.2109288 -377.3657695 435.33653347 -379.5 437.5 C-382.86114482 440.9071879 -386.33701203 444.07458174 -389.96875 447.1875 C-392.23638572 449.2109288 -394.3657695 451.33653347 -396.5 453.5 C-399.86114482 456.9071879 -403.33701203 460.07458174 -406.96875 463.1875 C-410.03974317 465.92777083 -412.88786876 468.87946902 -415.77734375 471.80859375 C-418.4270144 474.42101068 -421.21172803 476.83302621 -424.03515625 479.25390625 C-426.10820324 481.09615675 -428.05435802 483.02401662 -430 485 C-432.55990134 487.59982183 -435.1677954 490.06268398 -437.9375 492.4375 C-440.92801716 495.00665271 -443.73116684 497.69317256 -446.5 500.5 C-449.86114482 503.9071879 -453.33701203 507.07458174 -456.96875 510.1875 C-459.23638572 512.2109288 -461.3657695 514.33653347 -463.5 516.5 C-466.86114482 519.9071879 -470.33701203 523.07458174 -473.96875 526.1875 C-476.23638572 528.2109288 -478.3657695 530.33653347 -480.5 532.5 C-483.86114482 535.9071879 -487.33701203 539.07458174 -490.96875 542.1875 C-494.03837322 544.92654841 -496.88528608 547.8768364 -499.7734375 550.8046875 C-502.44633174 553.44006743 -505.25368303 555.87766489 -508.1015625 558.3203125 C-510.55679876 560.49264088 -512.83080336 562.81793999 -515.12573242 565.15698242 C-516.93255954 566.93368398 -518.79362885 568.59452305 -520.71484375 570.24609375 C-524.93292917 573.91403623 -529.00689798 577.71663762 -533.0625 581.5625 C-534.55835778 582.97551027 -536.05445617 584.38826585 -537.55078125 585.80078125 C-538.66767334 586.85579834 -538.66767334 586.85579834 -539.80712891 587.93212891 C-553.40983113 600.75943773 -567.14292336 613.44809892 -581 626 C-582.65 624.68 -584.3 623.36 -586 622 C-585.47288169 617.82209935 -583.20570871 615.739362 -580.375 612.75 C-579.89281006 612.23622803 -579.41062012 611.72245605 -578.91381836 611.19311523 C-577.85269555 610.06382393 -576.78832363 608.93757923 -575.72119141 607.81396484 C-573.29298695 605.25487844 -570.88404401 602.67791754 -568.47314453 600.10253906 C-566.54791495 598.04692721 -564.61969511 595.99414807 -562.69140625 593.94140625 C-559.44232275 590.47789497 -556.21545039 586.99472275 -553 583.5 C-547.89051502 577.94734099 -542.73245745 572.4414244 -537.56640625 566.94140625 C-533.69098206 562.81237556 -529.83461908 558.66693543 -526 554.5 C-514.44471233 541.94870101 -502.71204056 529.5611415 -491.01611328 517.14111328 C-487.67674389 513.59470137 -484.33842243 510.04730331 -481 506.5 C-479.66667174 505.08332855 -478.33333841 503.66666189 -477 502.25 C-476.34 501.54875 -475.68 500.8475 -475 500.125 C-453 476.75 -453 476.75 -450.99975586 474.62475586 C-449.66721602 473.20892211 -448.33469647 471.79306926 -447.00219727 470.37719727 C-443.65689013 466.82262962 -440.31122451 463.26840069 -436.96484375 459.71484375 C-430.46940261 452.81658455 -423.97840136 445.91426752 -417.5 439 C-410.35038437 431.36935898 -403.18490897 423.75373284 -396.01611328 416.14111328 C-392.67674389 412.59470137 -389.33842243 409.04730331 -386 405.5 C-384.66667174 404.08332855 -383.33333841 402.66666189 -382 401.25 C-381.34 400.54875 -380.68 399.8475 -380 399.125 C-362 380 -344 360.875 -326 341.75 C-325.33935547 341.0480249 -324.67871094 340.3460498 -323.99804688 339.62280273 C-322.67138657 338.21330721 -321.34456496 336.8039635 -320.01757812 335.39477539 C-316.58077497 331.74465051 -313.14723906 328.09153025 -309.71875 324.43359375 C-309.01234375 323.68078125 -308.3059375 322.92796875 -307.578125 322.15234375 C-306.24373122 320.73016091 -304.91031274 319.30706199 -303.578125 317.8828125 C-299.73311504 313.78739222 -295.81265013 309.78478037 -291.80981445 305.84326172 C-290.0188731 304.0192219 -288.34406939 302.13365169 -286.6875 300.1875 C-283.7774953 296.79804373 -280.67839675 293.63548893 -277.5 290.5 C-274.40507389 287.44663047 -271.38065663 284.37676245 -268.5625 281.0625 C-265.54647173 277.523209 -262.30552099 274.26505555 -259 271 C-255.71532009 267.75548124 -252.49265996 264.52077642 -249.5 261 C-246.0245645 256.91125235 -242.21899763 253.19183316 -238.40454102 249.42407227 C-235.04939106 246.0941767 -231.90274548 242.66068601 -228.83984375 239.05859375 C-226.04164208 235.92769719 -223.03226344 233.01170305 -220.04443359 230.06396484 C-217.43879261 227.47977682 -214.93946891 224.85790842 -212.5625 222.0625 C-209.06289503 217.95573465 -205.24017991 214.21275194 -201.40478516 210.42431641 C-198.04955443 207.09433671 -194.90282125 203.66077511 -191.83984375 200.05859375 C-189.04164208 196.92769719 -186.03226344 194.01170305 -183.04443359 191.06396484 C-180.43879261 188.47977682 -177.93946891 185.85790842 -175.5625 183.0625 C-172.103562 179.00345709 -168.34164971 175.28271102 -164.52563477 171.56274414 C-161.76270969 168.8477657 -159.15357005 166.0606641 -156.625 163.125 C-152.32556548 158.1546647 -147.64972314 153.59896216 -142.9609375 149 C-139.68299366 145.76002463 -136.50864439 142.49302931 -133.5 139 C-129.24967188 134.06537869 -124.60741662 129.55746611 -119.9609375 125 C-116.04013229 121.12460953 -112.34324905 117.14503915 -108.74609375 112.96875 C-105.22909547 109.00327543 -101.39038303 105.35140606 -97.60546875 101.64453125 C-94.45556225 98.53375402 -91.4211404 95.38640621 -88.53125 92.03125 C-84.26860087 87.08772778 -79.61799832 82.5678451 -74.9609375 78 C-71.68299366 74.76002463 -68.50864439 71.49302931 -65.5 68 C-61.24967188 63.06537869 -56.60741662 58.55746611 -51.9609375 54 C-48.68299366 50.76002463 -45.50864439 47.49302931 -42.5 44 C-38.24967188 39.06537869 -33.60741662 34.55746611 -28.9609375 30 C-25.69297298 26.76988835 -22.52663086 23.51379602 -19.52734375 20.03125 C-15.74588246 15.64084564 -11.68243953 11.5709375 -7.5625 7.5 C-6.83095703 6.77296875 -6.09941406 6.0459375 -5.34570312 5.296875 C-3.56610176 3.52890501 -1.78419082 1.76333622 0 0 Z " fill="#000000" transform="translate(586,275)"/>
</svg>
