<?xml version="1.0" encoding="UTF-8"?>
<svg version="1.1" xmlns="http://www.w3.org/2000/svg" width="942" height="1181">
<path d="M0 0 C0.75164932 -0.00988449 1.50329865 -0.01976898 2.27772522 -0.029953 C18.90837161 -0.20343081 34.81516325 -0.04094892 50.99609375 4.23828125 C52.48786133 4.61702393 52.48786133 4.61702393 54.00976562 5.00341797 C78.05522878 11.2209298 102.05753808 20.39624449 123.96630859 32.16455078 C126.34086253 33.42065954 128.73922229 34.62415317 131.140625 35.828125 C152.02760024 46.38200124 171.96348257 58.6264716 190.99609375 72.23828125 C191.71700195 72.74955566 192.43791016 73.26083008 193.18066406 73.78759766 C203.341953 80.99834616 213.29390918 88.4206716 222.99609375 96.23828125 C224.39021484 97.35783203 224.39021484 97.35783203 225.8125 98.5 C235.99349792 106.75446265 245.94953875 115.293628 255.6484375 124.109375 C257.21411223 125.52916323 258.78971698 126.9380771 260.375 128.3359375 C267.03753606 134.22848544 273.31149903 140.46201533 279.56005859 146.78564453 C283.04645423 150.31234532 286.56834027 153.80165816 290.10546875 157.27734375 C304.62654574 171.59723731 304.62654574 171.59723731 310.9375 179.6796875 C313.28539214 182.59784566 315.80991249 185.32196712 318.37109375 188.05078125 C323.82070372 193.89601925 328.70570115 200.10193908 333.58251953 206.42626953 C335.4808225 208.8596382 337.42889672 211.25083729 339.3762207 213.64501953 C393.77542023 280.72226212 432.18450072 360.9243715 478.99609375 705.23828125 C460.84609375 705.23828125 442.69609375 705.23828125 423.99609375 705.23828125 C423.99609375 729.65828125 423.99609375 754.07828125 423.99609375 779.23828125 C437.19609375 779.23828125 450.39609375 779.23828125 463.99609375 779.23828125 C462.59798522 857.88188593 437.60606007 931.17948032 398.99609375 999.23828125 C398.05636719 1000.89754639 398.05636719 1000.89754639 397.09765625 1002.59033203 C386.82243844 1020.67231422 375.78261219 1038.10417574 363.99609375 1055.23828125 C363.13177734 1056.49850098 363.13177734 1056.49850098 362.25 1057.78417969 C340.81540746 1088.92722765 316.43271153 1117.77406747 289.81924438 1144.59036255 C288.82988678 1145.58775478 287.84201457 1146.58662316 286.85580444 1147.58712769 C280.24350932 1154.28521403 273.37972101 1160.40587175 265.99609375 1166.23828125 C264.57858046 1167.38176378 263.16183357 1168.52619748 261.74609375 1169.671875 C260.49658554 1170.67379072 259.24660019 1171.67511172 257.99609375 1172.67578125 C257.35542969 1173.19076172 256.71476563 1173.70574219 256.0546875 1174.23632812 C255.12849609 1174.97786133 255.12849609 1174.97786133 254.18359375 1175.734375 C253.64089844 1176.16935303 253.09820313 1176.60433105 252.5390625 1177.05249023 C249.40459324 1179.46136953 247.58312679 1180.48929603 243.67807674 1180.55446339 C242.33963445 1180.58345744 242.33963445 1180.58345744 240.97415292 1180.61303723 C239.98736004 1180.62405968 239.00056716 1180.63508213 237.98387146 1180.6464386 C236.92860154 1180.66538992 235.87333162 1180.68434124 234.78608382 1180.70386684 C231.18225859 1180.76448273 227.57843471 1180.80920708 223.97436523 1180.8527832 C222.02022908 1180.88092207 220.06609299 1180.90906676 218.11196191 1180.93755636 C180.29706798 1181.47898297 142.47449187 1181.40319389 104.65668416 1181.40553832 C98.27599411 1181.40603993 91.89530547 1181.40834682 85.51461601 1181.41103554 C64.34234763 1181.41977298 43.17008421 1181.42446337 21.99781401 1181.42370506 C20.8693972 1181.42366511 19.7409804 1181.42362515 18.57836914 1181.42358398 C17.44854169 1181.4235431 16.31871425 1181.42350222 15.15464961 1181.4234601 C-3.28896786 1181.42305075 -21.73256521 1181.43271046 -40.17617684 1181.44672235 C-59.23463319 1181.46108524 -78.29307968 1181.46799327 -97.35154158 1181.46712857 C-108.00506519 1181.46679763 -118.65856742 1181.46950266 -129.31208611 1181.48030663 C-138.34119591 1181.48940815 -147.37027452 1181.49158797 -156.39938693 1181.4847972 C-160.99663542 1181.48153652 -165.59382398 1181.48146029 -170.19106674 1181.49015045 C-174.40279013 1181.49803077 -178.61440618 1181.49656871 -182.826127 1181.48786632 C-184.34340995 1181.48633529 -185.86070098 1181.48813243 -187.37797438 1181.4937264 C-200.35828687 1181.53839363 -211.66759156 1180.56154767 -223.37890625 1174.67578125 C-224.73508057 1174.0108667 -224.73508057 1174.0108667 -226.11865234 1173.33251953 C-233.79933325 1169.49422872 -240.97827974 1165.16161031 -248.00390625 1160.23828125 C-248.92945313 1159.59375 -249.855 1158.94921875 -250.80859375 1158.28515625 C-253.57527262 1156.31239392 -256.29454188 1154.28901561 -259.00390625 1152.23828125 C-259.7918457 1151.64756836 -259.7918457 1151.64756836 -260.59570312 1151.04492188 C-269.68440238 1144.20453562 -278.00799648 1136.74722185 -286.23730469 1128.90332031 C-288.38038678 1126.88344471 -290.5678955 1124.91749225 -292.76171875 1122.953125 C-299.30029164 1117.08210275 -305.15880256 1110.77963993 -311.00390625 1104.23828125 C-312.71183312 1102.38374017 -314.4201563 1100.52956398 -316.12890625 1098.67578125 C-320.48879277 1093.86487199 -324.66607478 1088.9433901 -328.70654297 1083.86132812 C-329.61082367 1082.73004131 -330.52184718 1081.60412545 -331.43798828 1080.48242188 C-339.66685531 1070.40199447 -347.10570595 1059.87112328 -354.31640625 1049.05078125 C-354.73234039 1048.42819427 -355.14827454 1047.8056073 -355.57681274 1047.16415405 C-363.55158059 1035.1991448 -371.07934248 1022.96914866 -378.00390625 1010.36328125 C-378.41995117 1009.60611816 -378.83599609 1008.84895508 -379.26464844 1008.06884766 C-380.11223456 1006.52266265 -380.95830066 1004.97564329 -381.80273438 1003.42773438 C-382.90217748 1001.42370881 -384.02063108 999.43177693 -385.14453125 997.44140625 C-420.12947123 934.55307003 -440.27610553 857.32957381 -439.00390625 785.23828125 C-430.28730992 785.13007523 -421.63317393 785.24708026 -412.9296875 785.7421875 C-411.63254822 785.8133075 -411.63254822 785.8133075 -410.3092041 785.88586426 C-408.20732991 786.00138379 -406.10560144 786.11954973 -404.00390625 786.23828125 C-404.00612686 785.24935883 -404.00834747 784.2604364 -404.01063538 783.24154663 C-404.03092352 773.91338196 -404.04590574 764.58522177 -404.05571842 755.25704002 C-404.06093282 750.46155247 -404.06800429 745.66608276 -404.0793457 740.87060547 C-404.09022583 736.24110362 -404.09619396 731.61161891 -404.09878349 726.98210526 C-404.1006285 725.21751257 -404.10423132 723.45292079 -404.10963631 721.68833542 C-404.11691475 719.21326432 -404.11789432 716.7382637 -404.11743164 714.26318359 C-404.12102692 713.53669617 -404.12462219 712.81020874 -404.12832642 712.06170654 C-404.11997929 707.92428382 -403.69410165 704.37945367 -403.00390625 700.23828125 C-422.80390625 700.23828125 -442.60390625 700.23828125 -463.00390625 700.23828125 C-463.45845668 611.8282227 -457.92305268 524.34153873 -368.00390625 282.23828125 C-367.4428418 281.30870605 -366.88177734 280.37913086 -366.30371094 279.42138672 C-359.24467274 267.75533259 -351.8704183 256.37446318 -344.00390625 245.23828125 C-343.22237478 244.11868601 -342.44111734 242.99889943 -341.66015625 241.87890625 C-327.92311906 222.29736319 -313.24841427 203.15156004 -297.05078125 185.53515625 C-294.90997314 183.1328754 -292.93119818 180.64166347 -290.94140625 178.11328125 C-286.30513883 172.3649638 -281.13274163 167.22664995 -275.85131836 162.07177734 C-272.61074451 158.89872377 -269.49138963 155.70200954 -266.54296875 152.25390625 C-262.808282 147.91649283 -258.70795977 144.05268571 -254.50390625 140.17578125 C-249.78065595 135.79473424 -245.10003221 131.39762652 -240.58422852 126.80175781 C-237.53494462 123.78497826 -234.26028286 121.02721025 -231.00390625 118.23828125 C-229.9255793 117.30752559 -228.84747159 116.37651588 -227.76953125 115.4453125 C-209.57403208 99.75292458 -190.84146359 84.80992531 -171.00390625 71.23828125 C-170.27703613 70.74086426 -169.55016602 70.24344727 -168.80126953 69.73095703 C-153.31599928 59.1803669 -137.4221959 49.33215423 -120.98828125 40.32666016 C-119.66571315 39.6012654 -118.34538677 38.87176831 -117.02734375 38.13818359 C-82.98150984 19.2210499 -39.64593633 0.42773481 0 0 Z M-214.00390625 113.23828125 C-215.10605469 114.18767578 -215.10605469 114.18767578 -216.23046875 115.15625 C-221.20037322 119.46145531 -226.04004913 123.90795575 -230.875 128.36328125 C-232.87815444 130.20834086 -234.89165816 132.03904539 -236.9140625 133.86328125 C-247.0867115 143.0638467 -257.22718815 152.53362723 -266.078125 163.03125 C-268.32684345 165.60838169 -270.66681481 168.08752524 -273.01416016 170.57470703 C-278.50551992 176.39390917 -283.81645793 182.26297764 -288.8125 188.51953125 C-290.79120826 190.97439925 -292.82220885 193.37448865 -294.87939453 195.76367188 C-301.94459192 203.98590514 -308.50582691 212.5643243 -315.00390625 221.23828125 C-315.59139648 222.02074219 -316.17888672 222.80320313 -316.78417969 223.609375 C-324.07572904 233.34195684 -331.16328458 243.16174433 -337.78417969 253.36376953 C-339.04820987 255.30636837 -340.32600105 257.23941472 -341.60546875 259.171875 C-395.67993802 341.24603767 -427.63261726 434.83619171 -439.73498535 532.07775879 C-439.91396673 533.51570315 -440.09454428 534.95344975 -440.2767334 536.39099121 C-446.48169577 585.35665989 -448.37453597 634.90762826 -448.00390625 684.23828125 C-406.98930216 684.33119367 -365.97710441 684.07649184 -324.96355438 683.81784678 C-322.23353623 683.80065296 -319.50351747 683.78355948 -316.77349854 683.76649094 C-238.97714434 683.27962358 -161.1955041 682.63374419 -83.41227561 681.0523656 C-16.84663174 679.70081181 49.69804679 679.08908147 116.27681571 679.16650468 C126.39037682 679.17793363 136.50393817 679.18219813 146.61750456 679.18604982 C164.68665639 679.19301601 182.7558035 679.20373737 200.82495117 679.21777344 C201.89239568 679.21860125 202.95984018 679.21942906 204.05963149 679.22028196 C210.55532789 679.22534039 217.05102421 679.23049268 223.5467205 679.23567772 C233.36146917 679.24351156 243.1762179 679.2512568 252.9909668 679.25878906 C254.0682443 679.25961719 255.14552181 679.26044532 256.25544409 679.26129854 C274.32923193 679.27506528 292.40301987 679.28477552 310.47681159 679.29169941 C321.51802928 679.2961209 332.55923306 679.30403219 343.60044428 679.31684422 C351.15770458 679.32538139 358.71496175 679.33018581 366.27222655 679.33226943 C370.59761928 679.33358915 374.92299403 679.33642661 379.24838066 679.34402847 C403.51210934 679.3852267 427.74285892 678.9505615 451.99609375 678.23828125 C452.00451705 676.79568716 452.01284757 675.35309252 452.02113914 673.91049767 C452.0257882 673.10715284 452.03043725 672.30380801 452.03522718 671.4761194 C452.09922979 658.94350852 451.71269518 646.44565322 451.18359375 633.92578125 C451.13974548 632.87057281 451.09589722 631.81536438 451.05072021 630.72817993 C447.6709945 550.48338394 437.01983322 471.57395813 339.99609375 254.23828125 C339.18954346 253.02543457 339.18954346 253.02543457 338.36669922 251.78808594 C331.13431985 240.95799455 323.55777619 230.46452961 315.53515625 220.20654297 C314.0575791 218.31691306 312.58846981 216.4209939 311.12109375 214.5234375 C305.78756464 207.65182376 300.28168864 200.9545623 294.62890625 194.34375 C292.11271158 191.39407776 289.67716406 188.38357707 287.24609375 185.36328125 C284.22910901 181.65378577 281.10515016 178.22517976 277.66796875 174.90625 C275.8878349 173.13027534 274.25674519 171.27279176 272.62109375 169.36328125 C270.0297517 166.35360595 267.32354592 163.52739509 264.49609375 160.73828125 C261.73048967 158.00998718 259.08322344 155.25311291 256.55859375 152.30078125 C251.19631371 146.06961324 245.37441687 140.27846597 239.16796875 134.890625 C235.06271715 131.32651364 231.12136958 127.61021408 227.18359375 123.86328125 C221.84246657 118.81932956 216.4295974 113.97395429 210.6796875 109.39453125 C208.23516235 107.43037131 205.84860688 105.41095169 203.47265625 103.36474609 C133.14398865 42.92068696 34.89901305 -16.71911995 -214.00390625 113.23828125 Z M-400.00390625 700.23828125 C-399.67390625 728.28828125 -399.34390625 756.33828125 -399.00390625 785.23828125 C-356.17561509 785.35360589 -313.37480724 784.94910199 -270.5517648 784.36553642 C-260.80604374 784.23294526 -251.06026092 784.10516572 -241.31447194 783.97768063 C-224.59294645 783.75891271 -207.87145008 783.53801769 -191.14997604 783.31535416 C-147.12842566 782.72920983 -103.10669447 782.15697042 -59.08489525 781.58984751 C-55.7455381 781.54681751 -52.40618147 781.50374749 -49.06682491 781.46067095 C12.21262797 780.6704476 73.49233165 779.92377846 134.7734375 779.2734375 C135.60399488 779.26462121 136.43455226 779.25580492 137.29027805 779.24672148 C171.92665195 778.87932079 206.56318486 778.52780035 241.19977653 778.18161619 C252.06238933 778.07304697 262.9249991 777.96417607 273.78760791 777.85520911 C277.60967142 777.81691211 281.43173632 777.77875599 285.25380135 777.74061012 C324.16970704 777.35139908 363.08346191 776.87856229 401.99609375 776.23828125 C402.088991 752.54298904 401.88294932 728.91877835 400.99609375 705.23828125 C370.98168126 704.49523191 340.99435811 704.12876605 310.97265625 704.359375 C310.24631139 704.36493503 309.51996653 704.37049505 308.77161121 704.37622356 C299.72809929 704.44644125 290.68470206 704.52796923 281.64131093 704.61213779 C272.83451108 704.6934232 264.02761799 704.76210513 255.22070312 704.82958984 C254.4175437 704.83574751 253.61438428 704.84190517 252.78688669 704.84824944 C248.75186986 704.87911806 244.71685135 704.90975571 240.68183136 704.94020844 C237.48689815 704.96433099 234.2919673 704.9887351 231.09703827 705.01340485 C140.55452643 705.71196143 50.0282228 704.97640793 -59.22344542 703.27073574 C-61.23289739 703.23861705 -63.24235086 703.20659212 -65.25180435 703.17456818 C-74.15360151 703.0323945 -83.05534354 702.88715212 -91.95703125 702.73828125 C-93.18013126 702.71783564 -94.40323128 702.69739002 -95.66339493 702.67632484 C-107.54150411 702.47596298 -119.41892864 702.26546746 -131.29516602 701.97290039 C-132.18248193 701.95105588 -133.06979784 701.92921137 -133.98400211 701.9067049 C-134.86465053 701.88499824 -135.74529894 701.86329157 -136.65263367 701.84092712 C-166.29014089 701.11183692 -195.93123512 700.91284361 -225.57604247 700.72062105 C-230.97008753 700.68564092 -236.36411948 700.64901279 -241.75814819 700.61160278 C-273.21226482 700.39434268 -304.66615884 700.20689973 -336.12109375 700.17578125 C-337.692488 700.17422531 -337.692488 700.17422531 -339.29562759 700.17263794 C-359.53177081 700.15630837 -379.76777403 700.20516156 -400.00390625 700.23828125 Z M-432.00390625 791.23828125 C-431.46116988 802.30660704 -430.35935414 813.06532715 -428.50390625 823.98828125 C-428.37485901 824.75462891 -428.24581177 825.52097656 -428.112854 826.31054688 C-421.4981432 865.16412903 -410.17309394 903.27688585 -394.00390625 939.23828125 C-393.50777832 940.35106445 -393.01165039 941.46384766 -392.50048828 942.61035156 C-379.04520558 972.65178608 -363.24973126 1001.48722816 -344.00390625 1028.23828125 C-343.46797852 1028.98529297 -342.93205078 1029.73230469 -342.37988281 1030.50195312 C-334.29513154 1041.72744348 -325.88457613 1052.63172473 -317.00390625 1063.23828125 C-316.46958984 1063.87701172 -315.93527344 1064.51574219 -315.38476562 1065.17382812 C-310.31668289 1071.21017818 -305.25130787 1077.20012306 -299.5703125 1082.67578125 C-297.82641385 1084.41533102 -296.23210439 1086.24349208 -294.62890625 1088.11328125 C-288.93653572 1094.69707446 -282.7442587 1100.72879686 -276.1328125 1106.3828125 C-274.61507105 1107.70561468 -273.125555 1109.06109615 -271.65625 1110.4375 C-253.07040007 1127.84596578 -222.14715213 1155.60506108 -195.38343716 1155.51231003 C-194.6324593 1155.51761368 -193.88148145 1155.52291734 -193.10774669 1155.52838171 C-190.58906852 1155.54371163 -188.07058627 1155.54488385 -185.55186462 1155.54608154 C-183.72866094 1155.55411448 -181.90546081 1155.56299155 -180.08226496 1155.57264066 C-175.07002431 1155.59654179 -170.05782213 1155.60786143 -165.04553568 1155.61700296 C-159.64040842 1155.62892647 -154.23532701 1155.65214306 -148.83023071 1155.67358398 C-135.77659138 1155.72260232 -122.7229369 1155.75188014 -109.66923389 1155.77770412 C-105.9819925 1155.78512958 -102.29475261 1155.7930759 -98.60751271 1155.80120945 C-75.70655489 1155.85167963 -52.80559463 1155.89578244 -29.90459347 1155.92066574 C-24.601516 1155.92652504 -19.29843861 1155.93244839 -13.99536133 1155.93847656 C-12.67732203 1155.93996866 -11.35928273 1155.94146077 -10.00130285 1155.94299808 C11.3518772 1155.96830741 32.70468566 1156.03475847 54.0577162 1156.11808023 C75.98360176 1156.2029357 97.90931686 1156.25005753 119.83536619 1156.26050687 C132.14487181 1156.26733281 144.45385683 1156.29081564 156.76320076 1156.35671234 C167.2459211 1156.41273892 177.7280141 1156.43470127 188.21087254 1156.41232142 C193.55770478 1156.40195436 198.90322356 1156.40767603 204.24986458 1156.4572525 C209.15034632 1156.50231197 214.04857418 1156.50070802 218.94909637 1156.46284476 C220.71632785 1156.45725449 222.48371333 1156.46838973 224.25069762 1156.49847063 C237.01505448 1156.7023836 243.75347652 1154.0349381 252.99609375 1145.23828125 C254.31680878 1144.13958864 255.64374676 1143.04818118 256.984375 1141.97387695 C258.09710466 1141.02185484 259.20523054 1140.0644244 260.30859375 1139.1015625 C260.92412109 1138.56582108 261.53964844 1138.03007965 262.17382812 1137.47810364 C269.05174678 1131.41540877 275.53728667 1124.96366337 281.98779297 1118.45239258 C284.01726877 1116.40441316 286.05488172 1114.36479691 288.09375 1112.32617188 C289.41584051 1110.99917192 290.7374721 1109.67171453 292.05859375 1108.34375 C292.65349609 1107.74773483 293.24839844 1107.15171967 293.86132812 1106.53764343 C298.09261573 1102.25913696 302.07171721 1097.79848233 305.99609375 1093.23828125 C306.96951308 1092.12062408 307.94337837 1091.00335492 308.91796875 1089.88671875 C371.29236465 1017.87778402 423.93593234 927.69974527 445.01245117 802.00195312 C445.01008957 801.107948 445.00772797 800.21394287 445.0052948 799.29284668 C445.00225845 798.61484009 444.99922211 797.9368335 444.99609375 797.23828125 C444.14745833 797.2330725 443.29882291 797.22786375 442.42447126 797.22249717 C373.40662548 796.79871501 304.38883445 796.36634848 235.37109375 795.92578125 C234.06921881 795.91747131 232.76734387 795.90916136 231.42601818 795.9005996 C4.05379473 794.44877213 4.05379473 794.44877213 -199.78926024 792.68516194 C-205.92332894 792.62929623 -212.05740095 792.57380541 -218.19147491 792.51852036 C-238.78488927 792.33284271 -259.37827055 792.14396644 -279.9716079 791.94992742 C-285.04883161 791.90212867 -290.1260616 791.85504719 -295.20329475 791.80826378 C-303.19113717 791.73452414 -311.17894761 791.65775896 -319.16674805 791.57958984 C-320.42674232 791.56745551 -321.6867366 791.55532118 -322.98491251 791.54281914 C-337.23647759 791.40361384 -351.4865284 791.22446776 -365.7366237 790.97958218 C-368.02029505 790.94044114 -370.30397736 790.9020127 -372.58766419 790.86378586 C-384.92022182 790.65657291 -384.92022182 790.65657291 -390.21851099 790.55311847 C-411.13158958 790.09653531 -411.13158958 790.09653531 -432.00390625 791.23828125 Z " fill="#000000" transform="translate(463.00390625,-0.23828125)"/>
<path d="M0 0 C0.33 1.32 0.66 2.64 1 4 C0.02897339 4.64678711 0.02897339 4.64678711 -0.96166992 5.30664062 C-20.18713201 18.14960869 -38.98329615 31.442214 -56.43896484 46.64941406 C-58.14120499 48.1221686 -59.85997439 49.57391325 -61.58203125 51.0234375 C-67.64290888 56.13898893 -73.47811807 61.32263772 -79.015625 67.01171875 C-80.82115839 68.82080634 -82.67301057 70.47748755 -84.625 72.125 C-93.39562504 79.66032574 -101.75058499 88.08922155 -109.20703125 96.92578125 C-111.18241267 99.21102642 -113.23223685 101.41387758 -115.29443359 103.62060547 C-120.31998869 109.0001385 -125.13463079 114.47169002 -129.7421875 120.21875 C-131.72722356 122.66398473 -133.76545207 125.05121965 -135.83007812 127.42919922 C-147.34252241 140.75133349 -157.46052177 155.21900939 -167 170 C-167.43957031 170.67337402 -167.87914062 171.34674805 -168.33203125 172.04052734 C-176.79960156 185.03109208 -184.50464023 198.43809065 -192.13130188 211.93188477 C-194.61153247 216.31982909 -197.11492972 220.69396372 -199.62744141 225.06347656 C-202.09909469 229.36763494 -204.55120155 233.68280763 -207 238 C-207.83168701 239.46397217 -207.83168701 239.46397217 -208.68017578 240.95751953 C-222.53700389 265.41729901 -235.68094112 290.3288827 -247.56542969 315.81152344 C-250.15271096 321.3458495 -252.96305089 326.69870802 -256 332 C-256.99 331.67 -257.98 331.34 -259 331 C-262.98477228 266.65330683 -222.60429494 198.14483901 -183.38964844 150.69384766 C-181.47737024 148.36296464 -179.61443338 145.99423056 -177.75 143.625 C-174.41471218 139.43666163 -170.86338936 135.48424902 -167.25 131.53515625 C-165.08125366 129.09155143 -163.07414097 126.573486 -161.0625 124 C-156.01428765 117.73664273 -150.3021633 112.16777487 -144.55883789 106.54492188 C-140.35593714 102.41895064 -136.37578249 98.20565048 -132.53710938 93.73950195 C-130.60050586 91.5479041 -128.51702057 89.60731809 -126.3125 87.6875 C-122.63261658 84.44964462 -119.0191973 81.15868843 -115.4375 77.8125 C-83.84552328 48.66219076 -47.42205856 24.09809329 -9.5625 3.875 C-8.83401855 3.48417236 -8.10553711 3.09334473 -7.35498047 2.69067383 C-2.24533151 0 -2.24533151 0 0 0 Z " fill="#000000" transform="translate(366,100)"/>
<path d="M0 0 C0.99 0 1.98 0 3 0 C4.69140625 2.03417969 4.69140625 2.03417969 6.5625 4.921875 C7.26608643 5.994375 7.96967285 7.066875 8.69458008 8.171875 C9.25576035 9.04295898 9.25576035 9.04295898 9.82827759 9.93164062 C11.43238913 12.42101116 13.05955235 14.89502134 14.68501282 17.3704834 C15.53477036 18.66534032 16.38329261 19.96100867 17.2306366 21.25744629 C21.3496126 27.55665763 25.57203517 33.78185889 29.8125 40 C31.38776438 42.3156962 32.96155983 44.63238887 34.53515625 46.94921875 C34.95187592 47.56264633 35.36859558 48.17607391 35.79794312 48.80809021 C65.66576867 92.79000871 65.66576867 92.79000871 78.3125 112.0625 C79.21790527 113.43402222 79.21790527 113.43402222 80.14160156 114.83325195 C80.66850586 115.64238037 81.19541016 116.45150879 81.73828125 117.28515625 C82.40404175 118.30428101 82.40404175 118.30428101 83.08325195 119.34399414 C84 121 84 121 84 123 C72.97570034 123.76015849 61.96803725 124.2490119 50.921875 124.53515625 C49.31500941 124.57858644 47.7081471 124.62213815 46.10128784 124.665802 C40.98432277 124.80329958 35.86718058 124.93331396 30.75 125.0625 C29.87994072 125.08471745 29.00988144 125.10693489 28.11345673 125.12982559 C-70.09014704 127.63661765 -70.09014704 127.63661765 -81 124 C-79.4708482 119.59537796 -77.11557734 115.94396272 -74.5 112.125 C-73.58834036 110.77747992 -72.67688749 109.42981994 -71.765625 108.08203125 C-71.30220703 107.39963379 -70.83878906 106.71723633 -70.36132812 106.01416016 C-69.09865373 104.14596364 -67.85033189 102.26938916 -66.609375 100.38671875 C-54.4971214 82.01663554 -42.1093444 63.42370945 -28.09765625 46.4375 C-20.06159547 36.69021422 -14.00938646 26.09130654 -8 15 C-7.56929199 14.20625977 -7.13858398 13.41251953 -6.69482422 12.59472656 C-4.4329022 8.4121014 -2.20129393 4.21483043 0 0 Z M1 10 C-9.96217353 25.79474967 -19.11607522 41.4370901 -26.76123047 59.14550781 C-28.4811364 63.10868089 -30.28542147 67.02868678 -32.125 70.9375 C-32.43219971 71.59226318 -32.73939941 72.24702637 -33.0559082 72.92163086 C-37.73197737 82.77490725 -42.77146923 92.52484481 -48.296875 101.9296875 C-50.16169202 104.70631609 -50.16169202 104.70631609 -50 107 C-39.56257705 107.31509385 -29.12507441 107.627466 -18.6875 107.9375 C-17.91665573 107.96039848 -17.14581146 107.98329697 -16.35160828 108.00688934 C9.43017457 108.77187262 35.21239311 109.46001436 61 110 C55.77469774 100.78129737 50.44544921 91.63080744 45.02093506 82.52798462 C43.34879255 79.72181042 41.67954705 76.91391637 40.0100708 74.1061554 C39.17194573 72.69664304 38.33369032 71.28720817 37.49530029 69.87785339 C34.11414132 64.19396477 30.74046596 58.50569696 27.375 52.8125 C26.87991943 51.97614014 26.38483887 51.13978027 25.87475586 50.27807617 C23.13237166 45.63775745 20.40793346 40.98744546 17.70101929 36.32637024 C16.14533303 33.64810685 14.58645339 30.97170697 13.02764893 28.29525757 C12.26543787 26.98412136 11.50495026 25.67198157 10.74627686 24.35879517 C9.68654141 22.52452462 8.62117273 20.69363318 7.5546875 18.86328125 C6.94093262 17.80407471 6.32717773 16.74486816 5.69482422 15.65356445 C4.27018924 13.42303181 2.9664034 11.74436588 1 10 Z " fill="#000000" transform="translate(467,858)"/>
<path d="M0 0 C0.99 0 1.98 0 3 0 C5.08646017 11.70165661 6.01511741 23.47848305 7 35.3125 C7.17520191 37.39080917 7.35065902 39.46909685 7.52636719 41.54736328 C7.78525597 44.61187558 8.04366151 47.67642213 8.29998779 50.7411499 C8.74060285 55.99833645 9.20131811 61.25221173 9.703125 66.50390625 C14.5706297 117.95863001 14.5706297 117.95863001 4 137 C1.87109375 137.80859375 1.87109375 137.80859375 0 138 C-3.15158438 129.19300332 -5.48032564 120.52156464 -6.8125 111.25 C-6.9360083 110.41251221 -7.0595166 109.57502441 -7.18676758 108.7121582 C-8.7728168 96.75337036 -7.80129863 84.89272594 -6.7578125 72.9296875 C-6.62770844 71.39815386 -6.49798628 69.86658774 -6.36862183 68.33499146 C-6.09765711 65.13939347 -5.82336304 61.94410588 -5.54638672 58.74902344 C-5.19622237 54.70867332 -4.85250192 50.66780877 -4.51097488 46.62672043 C-1.83362471 14.97778994 -1.83362471 14.97778994 0 0 Z " fill="#000000" transform="translate(468,496)"/>
<path d="M0 0 C0.99 0 1.98 0 3 0 C5.38536813 13.43974695 7.47478827 26.90485279 9.25 40.4375 C9.42499023 41.74533447 9.59998047 43.05316895 9.78027344 44.40063477 C11.02501238 54.10246066 11.75154327 62.62286922 9.25 72.125 C9.01410156 73.12080078 9.01410156 73.12080078 8.7734375 74.13671875 C7.54772683 78.95470453 5.61320999 82.77274854 3 87 C1.68 87 0.36 87 -1 87 C-9.94268404 68.43198429 -8.41088021 52.35469204 -5.54638672 32.43359375 C-5.12185522 29.4781068 -4.71397603 26.52066862 -4.30859375 23.5625 C-4.04262255 21.65611639 -3.77572873 19.74986123 -3.5078125 17.84375 C-3.3868924 16.97278687 -3.26597229 16.10182373 -3.14138794 15.20446777 C-2.39230458 10.03049186 -1.35165537 5.05103777 0 0 Z " fill="#000000" transform="translate(348,547)"/>
<path d="M0 0 C0.99 0 1.98 0 3 0 C5.0367783 7.26511544 6.01358072 14.59109223 7 22.0625 C7.34893136 24.67187861 7.69788938 27.28125365 8.046875 29.890625 C8.2934082 31.7478418 8.2934082 31.7478418 8.54492188 33.64257812 C8.90830019 36.32346796 9.29158562 38.99810118 9.703125 41.671875 C12.18050676 58.16415928 11.81590133 71.90568052 4 87 C1.66796875 86.83984375 1.66796875 86.83984375 -1 86 C-8.79972064 73.76632964 -8.65298249 59.53961525 -6.7578125 45.76171875 C-6.62937958 44.80030472 -6.50094666 43.83889069 -6.36862183 42.8483429 C-6.09703175 40.82344603 -5.8229093 38.79888738 -5.54638672 36.7746582 C-5.12779402 33.7079695 -4.71752785 30.64025561 -4.30859375 27.57226562 C-4.04215928 25.5936836 -3.77524755 23.61516578 -3.5078125 21.63671875 C-3.3868924 20.73426926 -3.26597229 19.83181976 -3.14138794 18.90202332 C-2.27189297 12.56576029 -1.1888509 6.28390595 0 0 Z " fill="#000000" transform="translate(709,547)"/>
<path d="M0 0 C0.99 0 1.98 0 3 0 C5.26186295 12.74388859 7.29414593 25.51147568 8.98254395 38.34371948 C9.24458934 40.33390701 9.51237132 42.32333653 9.78027344 44.31274414 C11.71271599 59.33583252 11.90770072 73.95658108 3 87 C1.1640625 86.78125 1.1640625 86.78125 -1 86 C-12.10816117 70.53449384 -8.04901986 49.98804218 -5.54638672 32.5090332 C-5.12244025 29.54460101 -4.71434603 26.57830013 -4.30859375 23.61132812 C-4.0425807 21.70039337 -3.77568512 19.78958122 -3.5078125 17.87890625 C-3.3868924 17.00480606 -3.26597229 16.13070587 -3.14138794 15.2301178 C-2.39384904 10.04669827 -1.35483928 5.05964911 0 0 Z " fill="#000000" transform="translate(107,547)"/>
<path d="M0 0 C0.99 0 1.98 0 3 0 C7.91298512 30.53340072 7.91298512 30.53340072 9.8125 45.5 C9.9360083 46.45197266 10.0595166 47.40394531 10.18676758 48.38476562 C11.19967657 56.63072175 11.35241052 63.97449533 9.25 72.0625 C9.01410156 73.06506836 9.01410156 73.06506836 8.7734375 74.08789062 C7.5501349 78.92934593 5.62760568 82.75498158 3 87 C1.68 87 0.36 87 -1 87 C-9.94268404 68.43198429 -8.41088021 52.35469204 -5.54638672 32.43359375 C-5.12185522 29.4781068 -4.71397603 26.52066862 -4.30859375 23.5625 C-4.04262255 21.65611639 -3.77572873 19.74986123 -3.5078125 17.84375 C-3.3868924 16.97278687 -3.26597229 16.10182373 -3.14138794 15.20446777 C-2.39230458 10.03049186 -1.35165537 5.05103777 0 0 Z " fill="#000000" transform="translate(589,547)"/>
<path d="M0 0 C0.99 0 1.98 0 3 0 C7.90131816 31.74367067 7.90131816 31.74367067 9.8125 46.0625 C9.99776245 47.41323608 9.99776245 47.41323608 10.18676758 48.79125977 C11.24128756 56.89241806 11.31640614 64.11300472 9.25 72.0625 C9.01410156 73.06506836 9.01410156 73.06506836 8.7734375 74.08789062 C7.5501349 78.92934593 5.62760568 82.75498158 3 87 C1.68 87 0.36 87 -1 87 C-9.94268404 68.43198429 -8.41088021 52.35469204 -5.54638672 32.43359375 C-5.12185522 29.4781068 -4.71397603 26.52066862 -4.30859375 23.5625 C-4.04262255 21.65611639 -3.77572873 19.74986123 -3.5078125 17.84375 C-3.3868924 16.97278687 -3.26597229 16.10182373 -3.14138794 15.20446777 C-2.39230458 10.03049186 -1.35165537 5.05103777 0 0 Z " fill="#000000" transform="translate(830,547)"/>
<path d="M0 0 C0.99 0 1.98 0 3 0 C5.0367783 7.26511544 6.01358072 14.59109223 7 22.0625 C7.34893136 24.67187861 7.69788938 27.28125365 8.046875 29.890625 C8.2934082 31.7478418 8.2934082 31.7478418 8.54492188 33.64257812 C8.90830019 36.32346796 9.29158562 38.99810118 9.703125 41.671875 C12.18050676 58.16415928 11.81590133 71.90568052 4 87 C1.66796875 86.83984375 1.66796875 86.83984375 -1 86 C-9.15837003 73.20379688 -8.53396983 58.56691098 -6.50390625 44.23828125 C-6.35090561 43.12946091 -6.19790497 42.02064056 -6.04026794 40.8782196 C-5.71743406 38.5456603 -5.39203401 36.21345487 -5.06420898 33.8815918 C-4.56276329 30.314373 -4.0687697 26.7461847 -3.57617188 23.17773438 C-3.26084782 20.90619011 -2.94510695 18.63470365 -2.62890625 16.36328125 C-2.48095108 15.29862137 -2.33299591 14.23396149 -2.18055725 13.13703918 C-1.97045265 11.64475044 -1.97045265 11.64475044 -1.75610352 10.12231445 C-1.63396988 9.25153763 -1.51183624 8.3807608 -1.38600159 7.4835968 C-0.9955432 4.97132423 -0.51696084 2.48904682 0 0 Z " fill="#000000" transform="translate(227,547)"/>
</svg>
