<?xml version="1.0" encoding="UTF-8"?>
<svg version="1.1" xmlns="http://www.w3.org/2000/svg" width="1181" height="1181">
<path d="M0 0 C1.84765625 0.85546875 1.84765625 0.85546875 3.84765625 2.85546875 C3.65082965 6.97093394 0.93557721 9.24049618 -1.77734375 12.10546875 C-2.25953369 12.61924072 -2.74172363 13.1330127 -3.23852539 13.66235352 C-4.2996482 14.79164482 -5.36402012 15.91788952 -6.43115234 17.04150391 C-8.8593568 19.60059031 -11.26829974 22.17755121 -13.67919922 24.75292969 C-15.6044288 26.80854154 -17.53264864 28.86132068 -19.4609375 30.9140625 C-22.710021 34.37757378 -25.93689336 37.860746 -29.15234375 41.35546875 C-34.26182873 46.90812776 -39.4198863 52.41404435 -44.5859375 57.9140625 C-48.46136169 62.04309319 -52.31772467 66.18853332 -56.15234375 70.35546875 C-67.70763142 82.90676774 -79.44030319 95.29432725 -91.13623047 107.71435547 C-94.47559986 111.26076738 -97.81393407 114.80815345 -101.15234375 118.35546875 C-105.16354429 122.61767573 -109.17496618 126.87967313 -113.1875 131.140625 C-119.68294114 138.0388842 -126.17394239 144.94120123 -132.65234375 151.85546875 C-139.80195938 159.48610977 -146.96743478 167.10173591 -154.13623047 174.71435547 C-157.47559986 178.26076738 -160.81392132 181.80816544 -164.15234375 185.35546875 C-165.48567201 186.7721402 -166.81900534 188.18880686 -168.15234375 189.60546875 C-168.81234375 190.30671875 -169.47234375 191.00796875 -170.15234375 191.73046875 C-198.81901042 222.18880208 -227.48567708 252.64713542 -256.15234375 283.10546875 C-256.81298828 283.80744385 -257.47363281 284.50941895 -258.15429688 285.23266602 C-259.48095718 286.64216154 -260.80777879 288.05150525 -262.13476562 289.46069336 C-265.57156878 293.11081824 -269.00510469 296.7639385 -272.43359375 300.421875 C-273.14 301.1746875 -273.84640625 301.9275 -274.57421875 302.703125 C-275.90861253 304.12530784 -277.24203101 305.54840676 -278.57421875 306.97265625 C-282.41922871 311.06807653 -286.33969362 315.07068838 -290.3425293 319.01220703 C-292.13347065 320.83624685 -293.80827436 322.72181706 -295.46484375 324.66796875 C-298.37484845 328.05742502 -301.473947 331.21997982 -304.65234375 334.35546875 C-307.74726986 337.40883828 -310.77168712 340.4787063 -313.58984375 343.79296875 C-317.08944872 347.8997341 -320.91216384 351.64271681 -324.74755859 355.43115234 C-328.10278932 358.76113204 -331.2495225 362.19469364 -334.3125 365.796875 C-337.11070167 368.92777156 -340.12008031 371.8437657 -343.10791016 374.79150391 C-345.71355114 377.37569193 -348.21287484 379.99756033 -350.58984375 382.79296875 C-354.08944872 386.8997341 -357.91216384 390.64271681 -361.74755859 394.43115234 C-365.10278932 397.76113204 -368.2495225 401.19469364 -371.3125 404.796875 C-374.11070167 407.92777156 -377.12008031 410.8437657 -380.10791016 413.79150391 C-382.71355114 416.37569193 -385.21287484 418.99756033 -387.58984375 421.79296875 C-390.60587202 425.33225975 -393.84682276 428.5904132 -397.15234375 431.85546875 C-400.43702366 435.09998751 -403.65968379 438.33469233 -406.65234375 441.85546875 C-410.08717843 445.89645073 -413.83201785 449.59353516 -417.62695312 453.29296875 C-420.38979931 456.00786166 -422.99884976 458.79489296 -425.52734375 461.73046875 C-429.82677827 466.70080405 -434.50262061 471.25650659 -439.19140625 475.85546875 C-443.11221146 479.73085922 -446.8090947 483.7104296 -450.40625 487.88671875 C-453.92324828 491.85219332 -457.76196072 495.50406269 -461.546875 499.2109375 C-464.6967815 502.32171473 -467.73120335 505.46906254 -470.62109375 508.82421875 C-474.88374288 513.76774097 -479.53434543 518.28762365 -484.19140625 522.85546875 C-487.46935009 526.09544412 -490.64369936 529.36243944 -493.65234375 532.85546875 C-497.90267187 537.79009006 -502.54492713 542.29800264 -507.19140625 546.85546875 C-510.46935009 550.09544412 -513.64369936 553.36243944 -516.65234375 556.85546875 C-520.90267187 561.79009006 -525.54492713 566.29800264 -530.19140625 570.85546875 C-538.54383967 578.43189693 -538.54383967 578.43189693 -544.15234375 587.85546875 C-543.51232422 588.38720703 -543.51232422 588.38720703 -542.859375 588.9296875 C-538.23547189 592.86715551 -533.91869458 597.03990263 -529.65234375 601.35546875 C-525.57909062 605.47522684 -521.46259522 609.43248221 -517.04296875 613.18359375 C-514.00857888 615.86689719 -511.21467438 618.78543496 -508.37109375 621.66796875 C-506.35803743 623.65267217 -504.29787972 625.51643791 -502.15234375 627.35546875 C-498.36015616 630.60591526 -494.88098844 634.10996444 -491.375 637.6640625 C-488.72532935 640.27647943 -485.94061572 642.68849496 -483.1171875 645.109375 C-480.33809861 647.57906235 -477.76373879 650.23450197 -475.15625 652.8828125 C-472.56988224 655.42884704 -469.83699095 657.77568432 -467.0859375 660.140625 C-464.58665237 662.35716272 -462.26952491 664.72709156 -459.9296875 667.109375 C-458.08640801 668.92024518 -456.17411576 670.60868229 -454.21484375 672.29296875 C-451.40658028 674.71164654 -448.75263782 677.21446558 -446.15234375 679.85546875 C-443.5722516 682.47587484 -440.94130768 684.95870287 -438.15234375 687.35546875 C-434.64092727 690.37309228 -431.39926973 693.58905956 -428.15234375 696.88671875 C-426.21343373 698.7953333 -424.21534824 700.58257427 -422.15234375 702.35546875 C-419.36337982 704.75223463 -416.7324359 707.23506266 -414.15234375 709.85546875 C-411.67309048 712.37308571 -409.15794191 714.75637597 -406.46484375 717.04296875 C-402.09956187 720.78832895 -398.08854042 724.8620826 -394.0715332 728.97338867 C-391.30735222 731.78211868 -388.49436787 734.45327409 -385.49609375 737.01171875 C-379.18296363 742.46698813 -373.42817917 748.52420584 -367.5703125 754.45800781 C-366.01648377 756.0301509 -364.45947698 757.59909959 -362.90234375 759.16796875 C-361.9896875 760.09222656 -361.07703125 761.01648438 -360.13671875 761.96875 C-357.99917602 764.08299761 -355.77880439 766.05939906 -353.49633789 768.01586914 C-348.04491091 772.74269002 -342.99156734 777.87196944 -337.8984375 782.9765625 C-336.82819408 784.04613039 -335.75780241 785.11554996 -334.68727112 786.18482971 C-332.45598462 788.41465099 -330.22649318 790.64624715 -327.99829102 792.87915039 C-325.16202487 795.72111307 -322.32129144 798.55856117 -319.47918606 801.39468288 C-317.27158042 803.59865101 -315.06639154 805.80502494 -312.86189461 808.01210213 C-311.81618396 809.05847324 -310.7697484 810.10412049 -309.72253227 811.14898491 C-304.51194937 816.35042823 -299.39939511 821.58671733 -294.60585022 827.17958069 C-292.68669746 829.39235736 -290.64611049 831.45808416 -288.55859375 833.51171875 C-287.75550781 834.30707031 -286.95242188 835.10242188 -286.125 835.921875 C-285.30902344 836.72496094 -284.49304688 837.52804687 -283.65234375 838.35546875 C-278.48085436 843.44526005 -273.44795342 848.55756341 -268.72070312 854.06445312 C-266.47885805 856.62456761 -264.08733393 858.97777246 -261.65234375 861.35546875 C-257.86553802 865.08549498 -254.27837066 868.91780954 -250.828125 872.9609375 C-248.38580191 875.722072 -245.74680114 878.27015686 -243.12109375 880.85546875 C-240.59808916 883.41852103 -238.27671558 886.12892699 -235.93359375 888.85546875 C-234.07809165 890.93883953 -232.14011274 892.89828082 -230.15234375 894.85546875 C-227.67271046 897.30210312 -225.29793999 899.77654649 -223.02734375 902.41796875 C-219.58938699 906.41321987 -216.00552622 910.25995431 -212.40234375 914.10546875 C-206.2734305 920.64826791 -200.20013566 927.2376346 -194.15234375 933.85546875 C-193.21645114 934.87528027 -192.28024891 935.89480773 -191.34375 936.9140625 C-186.35585071 942.34372004 -181.39617342 947.79693461 -176.47265625 953.28515625 C-173.84154519 956.19975402 -171.18576073 959.09080652 -168.52734375 961.98046875 C-164.92824056 965.89521785 -161.37861616 969.84574794 -157.89453125 973.86328125 C-155.83733976 976.2156751 -153.7463746 978.53581841 -151.65234375 980.85546875 C-148.3853004 984.47570598 -145.15713599 988.1253044 -141.95703125 991.8046875 C-139.92276234 994.11635672 -137.85012065 996.39078305 -135.77734375 998.66796875 C-132.66705524 1002.1092508 -129.68756063 1005.61868173 -126.77734375 1009.23046875 C-123.09662528 1013.78327382 -119.22585727 1018.08964286 -115.2409668 1022.37231445 C-111.43849361 1026.48307832 -107.90971076 1030.77813398 -104.3984375 1035.140625 C-102.06403785 1037.9622037 -99.63243777 1040.66137587 -97.15234375 1043.35546875 C-93.13628528 1047.72316367 -89.35848921 1052.22396111 -85.6328125 1056.83984375 C-82.7026578 1060.40217356 -79.68465318 1063.88012001 -76.65234375 1067.35546875 C-72.13426175 1072.53810831 -67.7130718 1077.78021712 -63.38671875 1083.125 C-60.89075556 1086.17513683 -58.33687065 1089.1712528 -55.77734375 1092.16796875 C-51.47288154 1097.21763628 -47.34886329 1102.38543606 -43.27783203 1107.62426758 C-40.16127835 1111.61759399 -36.94696298 1115.50813957 -33.65234375 1119.35546875 C-28.93519822 1124.86953676 -24.43168948 1130.52621705 -19.97265625 1136.25 C-17.04782018 1140.00186576 -14.07042537 1143.71034629 -11.08984375 1147.41796875 C-6.42042241 1153.23815511 -1.80471806 1159.09557479 2.70703125 1165.0390625 C3.99305586 1166.73107663 5.29135026 1168.41401276 6.61328125 1170.078125 C9.91231004 1174.34692325 9.91231004 1174.34692325 9.5859375 1176.9140625 C8.84765625 1178.85546875 8.84765625 1178.85546875 6.84765625 1180.85546875 C2.17038493 1180.64470782 -0.52280328 1178.33230186 -4.08984375 1175.48046875 C-4.65195557 1175.03566162 -5.21406738 1174.59085449 -5.79321289 1174.13256836 C-6.9835218 1173.1898358 -8.17088685 1172.24337583 -9.35546875 1171.29345703 C-11.67386282 1169.43811178 -14.01228084 1167.60905438 -16.35107422 1165.77954102 C-18.11324919 1164.39964073 -19.87148481 1163.01485401 -21.62890625 1161.62890625 C-23.93078683 1159.81457236 -26.23795004 1158.00738284 -28.55078125 1156.20703125 C-37.23860566 1149.4344659 -45.75177912 1142.4633478 -54.23681641 1135.43896484 C-56.82652394 1133.29814875 -59.42584504 1131.16944344 -62.02734375 1129.04296875 C-63.31125 1127.99302734 -63.31125 1127.99302734 -64.62109375 1126.921875 C-66.34890673 1125.51136101 -68.07813661 1124.10258132 -69.80859375 1122.6953125 C-75.36403138 1118.1695465 -80.8584726 1113.57995341 -86.31811523 1108.93969727 C-89.71149755 1106.06026607 -93.13484292 1103.22357148 -96.58984375 1100.41796875 C-102.60367552 1095.51974636 -108.47867779 1090.46633629 -114.35400391 1085.40380859 C-117.28236578 1082.88253912 -120.21772365 1080.36944764 -123.15234375 1077.85546875 C-124.01388062 1077.11659424 -124.01388062 1077.11659424 -124.89282227 1076.36279297 C-127.85623588 1073.82130175 -130.82230139 1071.28301022 -133.79296875 1068.75 C-139.0301117 1064.28005936 -144.24666849 1059.80251685 -149.33984375 1055.16796875 C-152.6103898 1052.19522852 -155.95469989 1049.37060961 -159.40234375 1046.60546875 C-165.16180801 1041.94888063 -170.53183074 1036.92712698 -175.9296875 1031.86328125 C-178.97028706 1029.01321305 -182.07582799 1026.25058064 -185.23046875 1023.52734375 C-187.56339449 1021.49788802 -189.8574562 1019.42782175 -192.15234375 1017.35546875 C-195.0891284 1014.70432881 -198.03836917 1012.07256704 -201.02734375 1009.48046875 C-204.99564924 1006.02627571 -208.86246934 1002.46416317 -212.73217773 998.90063477 C-215.48672467 996.36836175 -218.2595945 993.86526672 -221.08984375 991.41796875 C-226.33585171 986.867084 -231.39594684 982.11247214 -236.48974609 977.39306641 C-239.05747563 975.0183879 -241.63548968 972.65500682 -244.21484375 970.29296875 C-244.95214722 969.61754028 -244.95214722 969.61754028 -245.7043457 968.9284668 C-247.18682783 967.57059981 -248.66954408 966.21298897 -250.15234375 964.85546875 C-266.89935456 949.5233869 -283.5371991 934.07804174 -300.09204102 918.53857422 C-303.487678 915.35127117 -306.88758541 912.16879421 -310.296875 908.99609375 C-317.44102426 902.33898792 -324.48382866 895.62206654 -331.30859375 888.63671875 C-333.43118537 886.5607775 -335.55425761 884.62651528 -337.80406189 882.6995697 C-342.24126048 878.83067613 -346.41284486 874.73578635 -350.56860352 870.56860352 C-351.36807404 869.77088531 -352.16754456 868.97316711 -352.99124146 868.15127563 C-355.61125087 865.53563733 -358.22762068 862.91639369 -360.84375 860.296875 C-362.67628124 858.46501816 -364.50896085 856.63330972 -366.34178162 854.80174255 C-370.17373673 850.97125799 -374.00393484 847.13902912 -377.83276367 843.30541992 C-382.2411476 838.89159518 -386.65312203 834.48138406 -391.06697804 830.07303196 C-395.33647291 825.8086453 -399.60312286 821.5414249 -403.86860466 817.27302361 C-405.67348891 815.46747488 -407.47910908 813.66266148 -409.28549385 811.85861397 C-411.81459087 809.33207198 -414.34043397 806.80231974 -416.86547852 804.27172852 C-417.60385452 803.53537674 -418.34223053 802.79902496 -419.10298157 802.0403595 C-423.09450446 798.0326752 -426.91541295 793.93536946 -430.59199429 789.6361227 C-433.13644328 786.732425 -435.89234417 784.05220186 -438.65234375 781.35546875 C-442.70938572 777.34891747 -446.59233575 773.29657545 -450.28125 768.9453125 C-453.29040404 765.58435757 -456.53061591 762.45723686 -459.73925781 759.28808594 C-463.18401686 755.86937422 -466.43052569 752.34477083 -469.578125 748.6484375 C-471.73814398 746.188267 -474.07164649 743.92581951 -476.40625 741.6328125 C-478.21712018 739.78953301 -479.90555729 737.87724076 -481.58984375 735.91796875 C-484.00852154 733.10970528 -486.51134058 730.45576282 -489.15234375 727.85546875 C-492.40264358 724.65517353 -495.3995862 721.31322299 -498.37109375 717.85546875 C-500.85491803 715.06661342 -503.51945812 712.47859892 -506.1796875 709.859375 C-508.72572204 707.27300724 -511.07255932 704.54011595 -513.4375 701.7890625 C-515.11238674 699.90052278 -516.85181962 698.12391227 -518.65234375 696.35546875 C-521.06567092 693.98504518 -523.32506228 691.54810567 -525.52734375 688.98046875 C-528.1186858 685.97079345 -530.82489158 683.14458259 -533.65234375 680.35546875 C-537.05953165 676.99432393 -540.22692549 673.51845672 -543.33984375 669.88671875 C-545.36327255 667.61908303 -547.48887722 665.48969925 -549.65234375 663.35546875 C-552.41794783 660.62717468 -555.06521406 657.87030041 -557.58984375 654.91796875 C-560.30853623 651.74510955 -563.1798605 648.79208493 -566.15234375 645.85546875 C-569.02160616 643.02056876 -571.79721086 640.18426216 -574.40234375 637.10546875 C-577.78263759 633.14569596 -581.4545638 629.51478525 -585.15234375 625.85546875 C-589.36245977 621.68900915 -593.42475596 617.50261461 -597.25 612.9765625 C-599.93389602 609.98404599 -602.79503713 607.18153484 -605.65234375 604.35546875 C-618.21243259 591.90602576 -618.21243259 591.90602576 -621.15234375 585.85546875 C-618.16904356 582.84715379 -615.18224634 579.84236481 -612.19238281 576.84057617 C-611.17908223 575.82229583 -610.16668663 574.80311401 -609.15527344 573.78295898 C-603.92728901 568.51097667 -598.6758148 563.34118354 -593.02929688 558.51196289 C-589.57279105 555.46144364 -586.37907562 552.14522273 -583.15234375 548.85546875 C-578.63259063 544.2474392 -574.04302148 539.84529078 -569.15234375 535.6328125 C-565.66263097 532.5316029 -562.42017755 529.18712743 -559.15234375 525.85546875 C-554.63259063 521.2474392 -550.04302148 516.84529078 -545.15234375 512.6328125 C-541.66263097 509.5316029 -538.42017755 506.18712743 -535.15234375 502.85546875 C-530.62255662 498.23720922 -526.02274891 493.82349595 -521.12109375 489.6015625 C-517.81496274 486.66933917 -514.7431671 483.51136206 -511.65234375 480.35546875 C-507.93644351 476.56133903 -504.20921911 472.85410309 -500.18359375 469.38671875 C-495.95995565 465.74480384 -492.05576212 461.83512576 -488.15234375 457.85546875 C-483.63259063 453.2474392 -479.04302148 448.84529078 -474.15234375 444.6328125 C-470.66263097 441.5316029 -467.42017755 438.18712743 -464.15234375 434.85546875 C-459.59244592 430.20651041 -454.96192553 425.75810657 -450.02734375 421.5078125 C-447.27295572 419.08050805 -444.71380717 416.48306813 -442.15234375 413.85546875 C-438.30384139 409.95397496 -434.38786695 406.24700511 -430.2109375 402.6953125 C-427.58735652 400.35051811 -425.12244271 397.85916307 -422.65234375 395.35546875 C-419.59896092 392.26055742 -416.52910714 389.23612618 -413.21484375 386.41796875 C-409.67555301 383.40194071 -406.4173963 380.16099297 -403.15234375 376.85546875 C-399.30112438 372.95651192 -395.38812646 369.24722578 -391.2109375 365.6953125 C-388.58735652 363.35051811 -386.12244271 360.85916307 -383.65234375 358.35546875 C-380.59896092 355.26055742 -377.52910714 352.23612618 -374.21484375 349.41796875 C-370.67555275 346.40194048 -367.4173993 343.16098974 -364.15234375 339.85546875 C-360.32246681 335.97818501 -356.43183069 332.29303265 -352.27734375 328.76171875 C-348.90380211 325.73545345 -345.76030839 322.48336169 -342.57641602 319.26000977 C-339.24652045 315.90485981 -335.81302976 312.75821423 -332.2109375 309.6953125 C-329.08081213 306.89780008 -326.16548717 303.88922369 -323.21850586 300.90209961 C-320.01848604 297.67548222 -316.70162103 294.67616414 -313.24609375 291.73046875 C-310.10791102 288.92015586 -307.18027685 285.90428238 -304.22314453 282.90673828 C-300.97869638 279.63526244 -297.61616868 276.58583369 -294.11328125 273.59765625 C-291.06005204 270.88502631 -288.23831225 267.94946422 -285.37109375 265.04296875 C-282.74463253 262.45349994 -279.98257917 260.06709911 -277.18359375 257.66796875 C-274.91595803 255.64453995 -272.78657425 253.51893528 -270.65234375 251.35546875 C-267.29119893 247.94828085 -263.81533172 244.78088701 -260.18359375 241.66796875 C-257.91595803 239.64453995 -255.78657425 237.51893528 -253.65234375 235.35546875 C-250.29119893 231.94828085 -246.81533172 228.78088701 -243.18359375 225.66796875 C-240.91595803 223.64453995 -238.78657425 221.51893528 -236.65234375 219.35546875 C-233.29119893 215.94828085 -229.81533172 212.78088701 -226.18359375 209.66796875 C-223.91595803 207.64453995 -221.78657425 205.51893528 -219.65234375 203.35546875 C-216.29119893 199.94828085 -212.81533172 196.78088701 -209.18359375 193.66796875 C-206.91595803 191.64453995 -204.78657425 189.51893528 -202.65234375 187.35546875 C-199.29119893 183.94828085 -195.81533172 180.78088701 -192.18359375 177.66796875 C-189.91595803 175.64453995 -187.78657425 173.51893528 -185.65234375 171.35546875 C-182.29119893 167.94828085 -178.81533172 164.78088701 -175.18359375 161.66796875 C-172.91595803 159.64453995 -170.78657425 157.51893528 -168.65234375 155.35546875 C-165.29119893 151.94828085 -161.81533172 148.78088701 -158.18359375 145.66796875 C-155.11260058 142.92769792 -152.26447499 139.97599973 -149.375 137.046875 C-146.72532935 134.43445807 -143.94061572 132.02244254 -141.1171875 129.6015625 C-139.04414051 127.759312 -137.09798573 125.83145213 -135.15234375 123.85546875 C-132.59244241 121.25564692 -129.98454835 118.79278477 -127.21484375 116.41796875 C-124.22432659 113.84881604 -121.42117691 111.16229619 -118.65234375 108.35546875 C-115.29119893 104.94828085 -111.81533172 101.78088701 -108.18359375 98.66796875 C-105.91595803 96.64453995 -103.78657425 94.51893528 -101.65234375 92.35546875 C-98.29119893 88.94828085 -94.81533172 85.78088701 -91.18359375 82.66796875 C-88.11397053 79.92892034 -85.26705767 76.97863235 -82.37890625 74.05078125 C-79.70601201 71.41540132 -76.89866072 68.97780386 -74.05078125 66.53515625 C-71.59554499 64.36282787 -69.32154039 62.03752876 -67.02661133 59.69848633 C-65.21978421 57.92178477 -63.3587149 56.2609457 -61.4375 54.609375 C-57.21941458 50.94143252 -53.14544577 47.13883113 -49.08984375 43.29296875 C-47.59398597 41.87995848 -46.09788758 40.4672029 -44.6015625 39.0546875 C-43.85696777 38.35134277 -43.11237305 37.64799805 -42.34521484 36.92333984 C-33.34323684 28.43450064 -24.29292142 19.99331426 -15.16796875 11.63671875 C-13.17325446 9.80801782 -11.20828811 7.95403333 -9.26171875 6.07421875 C-8.38 5.23890625 -7.49828125 4.40359375 -6.58984375 3.54296875 C-5.44322266 2.43501953 -5.44322266 2.43501953 -4.2734375 1.3046875 C-2.15234375 -0.14453125 -2.15234375 -0.14453125 0 0 Z " fill="#000000" transform="translate(896.15234375,0.14453125)"/>
</svg>
