<?xml version="1.0" encoding="UTF-8"?>
<svg version="1.1" xmlns="http://www.w3.org/2000/svg" width="1287" height="1181">
<path d="M0 0 C7.75288978 -0.01306168 15.50571864 -0.03524336 23.25857478 -0.06123829 C32.54374074 -0.09193615 41.82878882 -0.10763254 51.11400723 -0.10382497 C55.811622 -0.10211433 60.50900758 -0.10633477 65.20657855 -0.12783146 C69.50613093 -0.14719984 73.80526618 -0.14744783 78.10483426 -0.13306284 C79.64638617 -0.13105057 81.18796583 -0.13560987 82.72947019 -0.14788389 C96.21786178 -0.24840846 109.47407603 1.66225693 121.50231868 8.16837597 C122.49848201 8.68984203 122.49848201 8.68984203 123.51476985 9.22184277 C128.83708289 12.07998934 133.60035026 15.26547958 138.06481868 19.35587597 C138.96845149 20.17958691 139.87208431 21.00329784 140.80309993 21.85196972 C156.43661913 36.76622011 165.47741886 56.51357857 166.19065982 78.17830658 C166.19607197 79.52632936 166.196192 80.87438085 166.19180232 82.22240734 C166.19414231 83.34916576 166.19414231 83.34916576 166.19652957 84.49868697 C166.2004932 86.99773458 166.19736685 89.49672056 166.19421321 91.99576855 C166.19557026 93.8000139 166.1973519 95.60425898 166.19952327 97.40850353 C166.20408853 102.32308098 166.2023046 107.23763742 166.19914418 112.15221524 C166.196584 117.39471916 166.19897109 122.63722146 166.20053035 127.87972546 C166.20235476 136.77159976 166.19995246 145.66346581 166.19518977 154.55533886 C166.19046091 163.48210229 166.19026484 172.40884897 166.19518977 181.3356123 C166.22789103 242.01575311 165.88280103 302.68109073 165.06481868 363.35587597 C165.73042591 363.34405474 166.39603315 363.33223351 167.0818103 363.32005405 C204.56870281 362.65538099 242.05481605 362.18192005 279.54597789 361.82677364 C283.04370605 361.79357635 286.54142993 361.75995512 290.0391534 361.72626781 C295.65334774 361.67239892 301.26755387 361.61997028 306.88177234 361.56867886 C308.95659033 361.54963935 311.03140563 361.53030315 313.10621768 361.51062679 C318.80178028 361.45696679 324.49731799 361.4103964 330.19302303 361.37474728 C332.1776346 361.36170588 334.16223402 361.34672233 336.14681941 361.33016872 C339.24317862 361.30549188 342.33949204 361.28891409 345.43591243 361.27408886 C346.36834773 361.26535213 347.30078304 361.25661539 348.26147395 361.24761391 C367.65387139 361.18966224 384.12052106 366.68049361 399.06481868 379.35587597 C399.79313899 379.97075878 400.52145931 380.58564159 401.27184993 381.21915722 C416.089267 394.8675473 422.23441659 413.66822635 423.27459842 433.31895733 C423.40311459 437.6954897 423.43171002 442.07248821 423.45959407 446.45060253 C423.47719689 448.12939284 423.49561614 449.80817475 423.51477557 451.48694801 C423.56437931 456.03674226 423.60253749 460.58656784 423.63860899 465.13648677 C423.67913675 469.99319725 423.73043627 474.84979533 423.78041011 479.70641613 C423.87523317 489.08637368 423.96023271 498.46639431 424.04157698 507.84647745 C424.13657379 518.76624479 424.24078046 529.68591861 424.34531671 540.60559809 C424.52165715 559.05403552 424.68998318 577.50253475 424.8533929 595.95109081 C425.01016552 613.64261096 425.18417472 631.33385813 425.3732236 649.0250597 C425.67548719 677.47227974 425.88794168 705.91948749 426.02952588 734.36794835 C426.05440797 739.35178136 426.08066849 744.33560561 426.10758537 749.31942803 C426.23396243 772.77926501 426.33466392 796.23901634 426.38984424 819.69913673 C426.4144444 830.03753424 426.44639774 840.37576743 426.49969417 850.71406078 C426.54489179 859.51672083 426.57207512 868.31921922 426.57693464 877.12199748 C426.57992931 881.66485391 426.59097772 886.20730951 426.62386256 890.75005627 C426.65410903 894.96764991 426.66024902 899.18462204 426.64861113 903.40230167 C426.64841877 904.92402417 426.65649933 906.44577863 426.67431504 907.96739686 C426.89868633 928.23635963 420.36947532 946.42546442 406.26013118 961.23112011 C382.66408164 985.08102059 354.55180777 985.43435135 322.92077571 985.63712597 C320.64057553 985.65497125 318.36037842 985.67321174 316.08018428 985.69181347 C311.20446311 985.73081014 306.32873225 985.76716629 301.45297557 985.80143261 C293.73621872 985.85579586 286.01952361 985.91687209 278.30282527 985.97892284 C267.48131984 986.06533351 256.65979983 986.14940005 245.83825618 986.23087597 C245.15394188 986.23602939 244.46962758 986.2411828 243.76457648 986.24649239 C237.51436494 986.29353141 231.26415181 986.34035662 225.01393825 986.38712597 C220.84567662 986.41832009 216.6774154 986.44956896 212.50915462 986.48087597 C211.82387038 986.48602183 211.13858615 986.4911677 210.43253572 986.4964695 C198.98602232 986.58253196 187.53954092 986.67221545 176.09307498 986.7643919 C168.42821526 986.8258608 160.76333945 986.88295843 153.09842163 986.93667126 C148.32877417 986.97100605 143.55916231 987.00912505 138.78955203 987.04825878 C136.58496661 987.06557416 134.38036828 987.08133013 132.17575961 987.09537792 C129.1567243 987.11483198 126.1377852 987.13996433 123.11880428 987.16642284 C122.25585061 987.17060978 121.39289695 987.17479671 120.50379318 987.17911053 C106.28933774 987.00989891 106.28933774 987.00989891 94.45153743 993.80900097 C93.56079524 994.73196972 92.67005306 995.65493847 91.75231868 996.60587597 C87.94272355 1000.50782492 84.04051924 1004.20588769 79.89294368 1007.74650097 C77.45698094 1009.89098099 75.20999005 1012.19831049 72.9381097 1014.51383495 C71.13416412 1016.28768734 69.27616264 1017.94551122 67.35778743 1019.59415722 C63.09233219 1023.30303571 58.97711136 1027.15319388 54.87731868 1031.04337597 C49.2428869 1036.36853378 43.58664735 1041.66652088 37.88073665 1046.914958 C33.73599325 1050.72966895 29.61647951 1054.57071948 25.50231868 1058.41837597 C20.03745127 1063.52708094 14.54282562 1068.60088435 9.02184993 1073.64884472 C5.88148709 1076.52078256 2.75343054 1079.40594131 -0.37268132 1082.29337597 C-0.91295964 1082.79240429 -1.45323796 1083.29143261 -2.00988835 1083.805583 C-3.10466438 1084.81692269 -4.19939082 1085.82831605 -5.29406804 1086.83976269 C-8.00695718 1089.34601701 -10.72112991 1091.85088042 -13.43518132 1094.35587597 C-14.51852089 1095.35586921 -15.60185423 1096.35586921 -16.68518132 1097.35587597 C-27.51851465 1107.35587597 -38.35184799 1117.35587597 -49.18518132 1127.35587597 C-49.72151189 1127.85095654 -50.25784245 1128.3460371 -50.81042546 1128.85612011 C-51.89292003 1129.85533335 -52.97543953 1130.85451958 -54.05798405 1131.8536787 C-56.7793564 1134.36549432 -59.50028327 1136.8777893 -62.22033757 1139.39103222 C-68.45311484 1145.14900187 -74.6956834 1150.89598026 -80.95471257 1156.62540722 C-82.9966146 1158.49473516 -85.03531629 1160.36747438 -87.07190007 1162.24259472 C-101.70280424 1175.70558138 -101.70280424 1175.70558138 -108.93518132 1181.35587597 C-112.94058169 1179.8660127 -114.15858537 1177.76050899 -116.15002507 1174.06290722 C-116.74694157 1172.96962109 -117.34385808 1171.87633495 -117.95886296 1170.74991894 C-118.59684397 1169.55609349 -119.23478235 1168.36224525 -119.87268132 1167.16837597 C-120.54124827 1165.93737745 -121.21110537 1164.70707882 -121.8822028 1163.477458 C-123.24957286 1160.97129794 -124.61266032 1158.4628812 -125.97326726 1155.95304394 C-128.75130614 1150.84312784 -131.62230056 1145.78647583 -134.49768132 1140.73087597 C-147.07322406 1118.54043915 -159.45530735 1096.24232582 -171.83068913 1073.93986034 C-173.71930371 1070.53665285 -175.60832649 1067.13367255 -177.49768132 1063.73087597 C-178.11965398 1062.61068066 -178.74162663 1061.49048534 -179.38244694 1060.33634472 C-184.0907443 1051.8623914 -188.82714253 1043.40444419 -193.57360905 1034.95182323 C-196.81716927 1029.16667075 -200.03531759 1023.36834463 -203.22815007 1017.55509472 C-203.58970692 1016.8973103 -203.95126378 1016.23952587 -204.3237769 1015.56180859 C-206.08839161 1012.35075071 -207.85004952 1009.13813089 -209.60681218 1005.9227705 C-210.25002402 1004.75067857 -210.89332998 1003.57863828 -211.53674382 1002.40665722 C-212.09700261 1001.38225536 -212.6572614 1000.35785351 -213.23449773 999.30240917 C-214.94409405 996.25684948 -214.94409405 996.25684948 -217.14758366 993.10270214 C-218.93518132 990.35587597 -218.93518132 990.35587597 -218.93518132 988.35587597 C-231.54907753 987.7469655 -244.15495685 987.28446508 -256.78283757 987.10978222 C-257.94729405 987.09313519 -259.11175053 987.07648815 -260.31149358 987.05933666 C-265.08207792 986.99329547 -269.85265092 986.93078927 -274.62341374 986.87906933 C-303.34120091 986.55513346 -328.47683405 984.74352028 -349.93518132 963.35587597 C-350.70732976 962.60693066 -351.47947819 961.85798534 -352.27502507 961.08634472 C-367.72888856 945.15697774 -372.14273135 925.13925353 -372.08361882 903.54337597 C-372.08279679 902.79513561 -372.08197476 902.04689526 -372.08112782 901.27598095 C-372.04431574 879.74998163 -371.32959746 858.23675299 -370.66370076 836.72299862 C-370.52357399 832.16516853 -370.38768933 827.60721578 -370.25181359 823.04925728 C-369.63639962 802.4145458 -368.99882138 781.78059829 -368.29065007 761.14884472 C-368.26670674 760.45016403 -368.24276341 759.75148335 -368.21809453 759.03163052 C-367.98518187 752.24941739 -367.74586545 745.46749968 -367.49426335 738.68595409 C-367.06453483 726.90229277 -366.82607746 715.14748495 -366.93518132 703.35587597 C-367.85299382 704.28529003 -368.77080632 705.21470409 -369.71643132 706.17228222 C-381.21552308 717.77170689 -381.21552308 717.77170689 -387.21252507 722.85196972 C-389.65219874 724.98184356 -391.88574967 727.29645466 -394.15393132 729.60587597 C-396.65414317 732.06222446 -399.31198648 734.31896965 -401.96643132 736.60587597 C-404.44137388 738.80582492 -406.74231806 741.14969042 -409.06042546 743.51237011 C-410.8674182 745.28924238 -412.72863066 746.9502447 -414.65002507 748.60196972 C-418.86810911 752.269911 -422.94210479 756.07248848 -426.99768132 759.91837597 C-428.49613346 761.33400075 -429.9948361 762.74936042 -431.49377507 764.16446972 C-432.23869206 764.86813671 -432.98360905 765.5718037 -433.75109929 766.29679394 C-437.01028139 769.36944561 -440.2837958 772.42658888 -443.56018132 775.48087597 C-444.17063298 776.05007763 -444.78108464 776.61927929 -445.41003484 777.20572948 C-446.6373963 778.34995706 -447.86485352 779.49408191 -449.09240788 780.63810253 C-452.20812038 783.54246834 -455.32152243 786.44930896 -458.43518132 789.35587597 C-459.6851705 790.52255423 -460.93517049 791.6892209 -462.18518132 792.85587597 C-462.80393132 793.43337597 -463.42268132 794.01087597 -464.06018132 794.60587597 C-544.68518132 869.85587597 -544.68518132 869.85587597 -546.56286687 871.60831738 C-547.80400177 872.76675311 -549.04505095 873.9252807 -550.2860114 875.08390331 C-553.54592474 878.12728947 -556.80762327 881.16873245 -560.07190007 884.20743847 C-560.74994694 884.83907909 -561.42799382 885.47071972 -562.12658757 886.12150097 C-563.42160907 887.32782237 -564.71715101 888.53358539 -566.01330632 889.73868847 C-566.59982976 890.28525097 -567.18635319 890.83181347 -567.79065007 891.39493847 C-568.61315251 892.1591914 -568.61315251 892.1591914 -569.45227116 892.93888378 C-570.73669593 894.1662136 -571.96137399 895.45549603 -573.17346257 896.75431347 C-574.93518132 898.35587597 -574.93518132 898.35587597 -577.93518132 898.35587597 C-578.37833684 897.53687817 -578.37833684 897.53687817 -578.83044499 896.70133495 C-585.62698747 884.15517569 -592.54226573 871.68411217 -599.58361882 859.27384472 C-603.05819877 853.1479338 -606.49862487 847.00317674 -609.93518132 840.85587597 C-614.41537835 832.84457139 -618.91317397 824.84365537 -623.43518132 816.85587597 C-628.55252935 807.81647288 -633.63451312 798.75773301 -638.70471257 789.69181347 C-642.59676187 782.73617768 -646.50857874 775.79205794 -650.43518132 768.85587597 C-654.93363049 760.90827419 -659.4121915 752.94984616 -663.87268132 744.98087597 C-664.44824773 743.95276806 -665.02381413 742.92466015 -665.61682194 741.86539745 C-668.65521686 736.43600253 -671.68954367 731.00436125 -674.72033757 725.57071972 C-675.34239079 724.45680859 -675.96444402 723.34289745 -676.60534734 722.19523144 C-677.78555705 720.08171912 -678.96452423 717.96751224 -680.14196843 715.852458 C-681.72799176 713.0134644 -683.32930628 710.18367775 -684.93518132 707.35587597 C-685.46240788 706.4082539 -685.98963444 705.46063183 -686.53283757 704.48429394 C-687.04717351 703.58468945 -687.56150944 702.68508495 -688.09143132 701.75821972 C-688.54324773 700.95763134 -688.99506413 700.15704296 -689.46057194 699.33219433 C-691.15922598 697.05560419 -692.32968399 696.42723645 -694.93518132 695.35587597 C-697.01395276 695.04567916 -697.01395276 695.04567916 -699.21881169 695.06635571 C-700.06784566 695.05255871 -700.91687962 695.03876171 -701.79164189 695.02454662 C-702.71525014 695.01931988 -703.63885838 695.01409313 -704.59045476 695.008708 C-705.56995595 694.99533398 -706.54945714 694.98195995 -707.55864018 694.96818066 C-709.68712206 694.9400836 -711.81566414 694.91629418 -713.94423741 694.89628506 C-717.32646712 694.863378 -720.70826004 694.81688808 -724.09027165 694.76648998 C-733.70713381 694.62526285 -743.32418508 694.50542905 -752.94152898 694.40226269 C-758.82736553 694.3381688 -764.71271525 694.25547157 -770.59815282 694.16187191 C-772.8288719 694.13010868 -775.05970313 694.10534 -777.29058141 694.08805752 C-799.58999942 693.91297476 -819.66455609 690.86483451 -836.93518132 675.35587597 C-837.75631413 674.62755566 -838.57744694 673.89923534 -839.42346257 673.14884472 C-851.18480564 662.10139197 -860.22771687 646.30511978 -861.06381577 629.81956005 C-861.06549162 628.91018688 -861.06716746 628.00081371 -861.06889409 627.06388378 C-861.07316442 626.00241792 -861.07743476 624.94095205 -861.0818345 623.84732056 C-861.08137596 622.67967509 -861.08091742 621.51202963 -861.08044499 620.30900097 C-861.08375545 619.05404922 -861.08706591 617.79909746 -861.09047669 616.50611687 C-861.09933892 612.96774133 -861.10147516 609.42938885 -861.10222358 605.89100337 C-861.10316563 603.56749601 -861.10581065 601.24399652 -861.10900563 598.92049122 C-861.1248871 587.35975285 -861.12598289 575.79904321 -861.12315673 564.23829603 C-861.12268305 561.36636519 -861.12283118 558.49443509 -861.12321156 555.62250423 C-861.13490287 464.82117569 -860.60889859 374.02172785 -860.08190478 283.22224914 C-860.03120827 274.48694848 -859.98096507 265.75164555 -859.93157643 257.01633739 C-859.81460755 236.33756058 -859.69518394 215.65880351 -859.56763667 194.98008889 C-859.55662696 193.1947951 -859.54561853 191.4095013 -859.5346114 189.6242075 C-859.52920596 188.74792134 -859.52380052 187.87163517 -859.51823127 186.96879489 C-859.48107428 180.91760155 -859.44577421 174.8663992 -859.41125172 168.81519032 C-859.3004043 149.5101741 -859.16808334 130.20563732 -858.97078246 110.90129042 C-858.93751465 107.58824566 -858.90776844 104.27518549 -858.87846059 100.96210384 C-858.83639509 96.50451936 -858.7745493 92.04776477 -858.69112545 87.5907644 C-858.66575322 86.12153875 -858.64617188 84.65219589 -858.63374215 83.18280375 C-858.45766417 64.12575111 -852.66079594 47.71297965 -839.93518132 33.35587597 C-839.41568913 32.74228222 -838.89619694 32.12868847 -838.36096257 31.49650097 C-827.00998462 19.03043954 -809.06101275 11.04043663 -792.36546391 9.96337414 C-790.73666102 9.8896369 -789.10740917 9.82537749 -787.47790593 9.76920605 C-786.57315243 9.73233338 -785.66839892 9.69546072 -784.73622864 9.6574707 C-773.24538305 9.21231526 -761.74829539 8.97508278 -750.25158757 8.74259472 C-748.30016035 8.70192478 -746.34873318 8.66125255 -744.39730811 8.6204797 C-735.56010003 8.43632363 -726.72271042 8.26181736 -717.88525742 8.08986712 C-715.48408179 8.04311116 -713.08291087 7.99611893 -710.68174046 7.94909573 C-627.27013649 6.3186319 -543.85069039 5.1181706 0 0 Z M-836.93518132 36.35587597 C-837.48561101 36.87279003 -838.03604069 37.38970409 -838.60315007 37.92228222 C-842.31492514 41.73356868 -844.68954394 46.29788944 -847.12268132 50.98087597 C-847.45606511 51.60744091 -847.7894489 52.23400585 -848.13293523 52.87955761 C-854.6173019 65.93150754 -854.35244123 79.40969725 -854.26110905 93.60978222 C-854.25822452 95.78188481 -854.25661652 97.9539894 -854.25615948 100.12609386 C-854.2507768 106.11697557 -854.22591343 112.10764129 -854.19755167 118.09845257 C-854.17258479 123.95788114 -854.16171875 129.81732823 -854.14960059 135.67679501 C-854.11493438 151.84216666 -854.04508462 168.0073401 -853.96884232 184.17256117 C-853.94219168 189.82320085 -853.91660993 195.47384461 -853.89157933 201.12449169 C-853.6806123 248.62237969 -853.4109749 296.11985113 -853.11829494 343.61729884 C-853.03118968 357.75654235 -852.94706263 371.89580089 -852.86511296 386.03507519 C-852.85416232 387.9219281 -852.84320957 389.808781 -852.83225471 391.69563389 C-852.82683936 392.62837293 -852.82142401 393.56111197 -852.81584456 394.52211583 C-852.60780823 430.34805971 -852.38687638 466.17386762 -852.13764185 501.9995507 C-852.02061115 518.84223339 -851.9134519 535.68482086 -851.83810139 552.5277462 C-851.79630361 561.78689708 -851.74281613 571.04591509 -851.67768133 580.30493164 C-851.63648315 586.24516832 -851.61026471 592.18516618 -851.59741801 598.12552834 C-851.58572692 601.63248498 -851.55787762 605.13916594 -851.52496904 608.64598179 C-851.5134676 610.20305614 -851.50838043 611.76019661 -851.51096672 613.31731129 C-851.53470761 632.08726797 -846.75099402 649.13632121 -833.44299382 663.00821972 C-820.02201011 675.57210011 -805.70809528 681.69195779 -787.43347234 681.61124706 C-786.42409611 681.61486752 -785.41471989 681.61848797 -784.37475652 681.62221813 C-782.197744 681.62907563 -780.02071442 681.63162446 -777.84369153 681.63027096 C-774.39140017 681.62930006 -770.93941534 681.6423142 -767.48716801 681.65925121 C-757.67681278 681.70535666 -747.86649091 681.73012735 -738.05603093 681.73673534 C-732.04141575 681.74176197 -726.02712342 681.76606605 -720.01261777 681.80206203 C-717.72942041 681.81182864 -715.44617848 681.81420923 -713.16296643 681.80889034 C-709.96372343 681.80178515 -706.7654375 681.81917243 -703.56628484 681.84171581 C-702.63454945 681.83354336 -701.70281407 681.8253709 -700.74284428 681.8169508 C-693.43992717 681.90798669 -686.11215672 683.32704968 -680.67346257 688.51212597 C-680.20295476 689.28556347 -679.73244694 690.05900097 -679.24768132 690.85587597 C-678.69596257 691.73759472 -678.14424382 692.61931347 -677.57580632 693.52775097 C-677.03440007 694.46103222 -676.49299382 695.39431347 -675.93518132 696.35587597 C-675.37315007 697.28915722 -674.81111882 698.22243847 -674.23205632 699.18400097 C-672.42920338 702.2212397 -670.67760615 705.283601 -668.93518132 708.35587597 C-667.94849125 710.08113746 -666.96179336 711.80639453 -665.97462529 713.53138256 C-664.95991874 715.30574602 -663.94720618 717.08123671 -662.93469304 718.85685253 C-660.42106036 723.26076986 -657.88201287 727.64992597 -655.34338444 732.03946972 C-649.16925905 742.71515321 -643.03729656 753.41457124 -636.92520207 764.12583447 C-632.11819113 772.5491862 -627.28762671 780.95859153 -622.43518132 789.35587597 C-617.24285541 798.3413326 -612.07866322 807.34241027 -606.93518132 816.35587597 C-596.05201689 835.42373833 -585.11876331 854.46220099 -573.93518132 873.35587597 C-570.00527574 872.02821095 -567.66714886 870.43945116 -564.79065007 867.46915722 C-564.03074773 866.69507519 -563.27084538 865.92099316 -562.48791569 865.12345409 C-561.31712468 863.90819042 -561.31712468 863.90819042 -560.12268132 862.66837597 C-555.15599633 857.56014253 -550.17901739 852.60058386 -544.76843327 847.96207714 C-542.02253037 845.55625809 -539.48220356 842.96865014 -536.93518132 840.35587597 C-533.10799728 836.47606815 -529.21441509 832.79322467 -525.06018132 829.26212597 C-522.241242 826.73337158 -519.59579295 824.04941596 -516.93518132 821.35587597 C-513.10530119 817.47859633 -509.2146683 813.79343991 -505.06018132 810.26212597 C-502.241242 807.73337158 -499.59579295 805.04941596 -496.93518132 802.35587597 C-493.10530119 798.47859633 -489.2146683 794.79343991 -485.06018132 791.26212597 C-481.68663968 788.23586067 -478.54314596 784.98376891 -475.35925359 781.76041698 C-472.02935802 778.40526703 -468.59586733 775.25862145 -464.99377507 772.19571972 C-462.37019409 769.85092533 -459.90528028 767.35957029 -457.43518132 764.85587597 C-454.38179849 761.76096464 -451.31194471 758.7365334 -447.99768132 755.91837597 C-444.45839032 752.9023477 -441.20023687 749.66139696 -437.93518132 746.35587597 C-434.10530438 742.47859223 -430.21466826 738.79343987 -426.06018132 735.26212597 C-423.241242 732.73337158 -420.59579295 730.04941596 -417.93518132 727.35587597 C-414.10530119 723.47859633 -410.2146683 719.79343991 -406.06018132 716.26212597 C-402.68971725 713.23862143 -399.5489208 709.98972748 -396.36804265 706.76920605 C-392.94832843 703.323441 -389.42822388 700.07085756 -385.72033757 696.93400097 C-383.88324947 695.30996685 -382.23607984 693.58203797 -380.56018132 691.79337597 C-369.3345164 680.38789491 -356.07232032 679.3437146 -340.86871117 679.20438671 C-337.73643821 679.18337791 -334.60420786 679.17442789 -331.47187871 679.16642284 C-329.72059576 679.15842924 -327.96931469 679.15001619 -326.21803558 679.14122295 C-321.43231018 679.118379 -316.64657951 679.1013905 -311.86082703 679.08538342 C-306.68887027 679.06703254 -301.51693863 679.04316291 -296.34500188 679.01993847 C-287.38926591 678.98043287 -278.43352152 678.94427903 -269.47776288 678.91031933 C-256.51085419 678.86106297 -243.54397707 678.80567629 -230.57710054 678.74863815 C-209.51279916 678.65606101 -188.44848454 678.56702466 -167.38415593 678.48087597 C-166.12438995 678.47572255 -164.86462396 678.47056913 -163.56668326 678.46525955 C-154.6270163 678.42871157 -145.68734884 678.39228658 -136.74768132 678.35587597 C-126.54447453 678.31430831 -116.34126806 678.27266526 -106.13806218 678.23087597 C-104.88135359 678.2257301 -103.62464501 678.22058424 -102.32985435 678.21528244 C-81.34843765 678.12925564 -60.36703799 678.03958849 -39.38564765 677.94736004 C-26.45776295 677.89070993 -13.52987265 677.83733875 -0.60195699 677.78824806 C8.26258094 677.75438051 17.12710119 677.717225 25.9916149 677.67752457 C31.09949589 677.65476674 36.20737135 677.63351423 41.31527454 677.61637402 C46.00159652 677.60062464 50.68787995 677.58052068 55.3741698 677.55712318 C57.05915639 677.54945744 58.74415091 677.54332753 60.42914935 677.53899002 C68.70910312 677.51684438 76.96953057 677.3866595 85.23892623 676.94559765 C85.91894218 676.91232388 86.59895812 676.87905011 87.29958062 676.84476805 C102.84159608 675.91230558 116.17516358 669.32148861 126.81091243 658.01993847 C135.86704654 647.31580768 141.19878091 634.89284276 141.18528682 620.75210094 C141.18660295 619.65437044 141.18791908 618.55663994 141.18927509 617.42564487 C141.18550672 616.23013823 141.18173835 615.03463158 141.17785579 613.80289745 C141.17766256 612.52512243 141.17746932 611.24734741 141.17727023 609.93085194 C141.1763304 606.38565444 141.16874371 602.84049837 141.15980583 599.29531312 C141.15282705 596.23449309 141.14948738 593.1736727 141.14599085 590.11284703 C141.09650964 548.495453 140.8382478 506.87845385 140.61000663 465.26175737 C140.51776353 448.42856195 140.42817162 431.59535445 140.34216243 414.76212597 C140.33612247 413.58519593 140.3300825 412.4082659 140.32385951 411.19567132 C140.12261756 371.82693801 140.00076164 332.45839094 139.91386914 293.08927113 C139.88907083 281.88658354 139.86169696 270.68390444 139.83271724 259.48122692 C139.82861087 257.88665825 139.82450588 256.29208959 139.82040226 254.69752091 C139.80399737 248.33211173 139.78754603 241.96670269 139.7707991 235.6012944 C139.72314544 217.45822807 139.68289245 199.31518894 139.65836238 181.17207573 C139.64095838 168.42491356 139.6130022 155.67780873 139.57474458 142.93069184 C139.5521557 135.27896656 139.53818865 127.62733335 139.53624424 119.97557444 C139.53388298 114.21019759 139.51599395 108.4449501 139.49227732 102.67962539 C139.48509777 100.34272764 139.48293801 98.00580786 139.48634475 95.66890156 C139.51239355 74.47067323 137.53311041 56.75027623 121.93200618 40.98868847 C117.95786818 37.33941189 113.89710406 34.71692746 109.06481868 32.35587597 C107.93946712 31.77579784 107.93946712 31.77579784 106.79138118 31.18400097 C96.80343276 26.34773121 86.69748301 26.05222084 75.76063472 26.01493359 C74.32549073 26.00307985 72.89035354 25.99037779 71.4552238 25.97690821 C67.52834692 25.94247269 63.60147986 25.91995493 59.67450899 25.89943385 C55.42266656 25.87508521 51.1709157 25.83953771 46.91914302 25.80535412 C39.52158994 25.7473725 32.124015 25.69636791 24.72638065 25.64995861 C13.85332961 25.58164971 2.98038711 25.50164118 -7.89256258 25.41890353 C-25.77024569 25.28310127 -43.64797655 25.15532428 -61.52575749 25.03312206 C-101.14574193 24.76223671 -140.76561765 24.47663994 -180.38543838 24.18281341 C-184.50438917 24.15228036 -188.62334114 24.12191525 -192.74229425 24.09169793 C-272.97403386 23.50287875 -353.19990654 22.60792245 -433.42652565 21.53550678 C-444.39210904 21.38904054 -455.35773327 21.24590031 -466.32338017 21.1042738 C-467.94863925 21.08326798 -469.57389834 21.06226209 -471.19915742 21.04125613 C-477.41738409 20.96091657 -483.63561155 20.88063891 -489.8538422 20.80060756 C-517.25676823 20.44779611 -544.65978308 20.09056807 -572.06164616 19.66202831 C-572.78996545 19.65065358 -573.51828474 19.63927885 -574.26867431 19.62755942 C-594.1127177 19.31605798 -613.95559756 18.94110441 -633.79846257 18.56290722 C-635.62104036 18.52824711 -637.44361815 18.4935874 -639.26619595 18.45892811 C-655.23831396 18.15482654 -671.21038879 17.84852643 -687.18209904 17.5236311 C-707.10391543 17.11842582 -727.0257327 16.7287842 -746.94928044 16.41805553 C-749.56359207 16.37727259 -752.17789129 16.33568461 -754.79217595 16.29320812 C-761.71707319 16.18251805 -768.64145331 16.09371069 -775.56707829 16.04513454 C-777.5560392 16.02873385 -779.54496027 16.00573906 -781.5337531 15.97511959 C-803.30069288 15.65476698 -821.10135421 20.34836885 -836.93518132 36.35587597 Z M165.06481868 367.35587597 C164.94991205 378.89049234 164.83785976 390.42513408 164.72831184 401.95980263 C164.67226364 407.85766482 164.61556915 413.7555193 164.55743343 419.65336132 C164.26635781 449.27433242 164.03735501 478.89442101 163.91386914 508.51655728 C163.88899312 514.45720474 163.86165202 520.39783667 163.83271724 526.33846569 C163.8286533 527.17630555 163.82458936 528.01414541 163.82040226 528.87737435 C163.80398958 532.25523986 163.78752957 535.63310509 163.7707991 539.01096904 C163.72130052 549.03145098 163.68092677 559.05187461 163.65517449 569.07244653 C163.63806233 575.44037459 163.61029202 581.80820374 163.57474458 588.17605525 C163.55447411 591.87855772 163.53903577 595.58091405 163.53675967 599.28347492 C163.51284912 628.5165643 161.21063008 653.40420257 140.37731868 675.60587597 C119.93512281 695.09727203 96.09973092 697.82206519 69.04919368 697.68400097 C66.349276 697.68125181 63.64937912 697.67967153 60.94946223 697.67942333 C54.26854447 697.67596022 47.58777012 697.65581252 40.90690356 697.6304791 C35.35810464 697.60993498 29.80932723 697.59665506 24.26049739 697.5880537 C23.45812263 697.58680555 22.65574786 697.5855574 21.82905871 697.58427143 C20.18687025 697.5817363 18.54468178 697.57920785 16.9024933 697.57668591 C-6.71018899 697.53876416 -30.32266423 697.44918786 -53.93518132 697.35587597 C-56.18558822 697.347036 -58.43599512 697.33819608 -60.68640202 697.32935619 C-107.35698761 697.14543153 -154.02751494 696.94652689 -200.69787663 696.71232128 C-224.08831695 696.59496734 -247.47878107 696.48746789 -270.86932653 696.39326262 C-276.81989441 696.36916613 -282.77044932 696.34311195 -288.72100157 696.31543303 C-297.64435816 696.2740281 -306.56768308 696.23892247 -315.49111456 696.21846724 C-319.44051562 696.20934448 -323.38983826 696.19724443 -327.33919591 696.17629528 C-331.55643648 696.15407548 -335.77354887 696.14761807 -339.99084538 696.14298534 C-341.20216885 696.13425396 -342.41349232 696.12552258 -343.66152257 696.1165266 C-349.78375512 696.12442624 -355.0761011 696.54416826 -360.93518132 698.35587597 C-361.05667229 714.12178733 -360.67800601 729.84253605 -360.13049382 745.59806347 C-360.04597404 748.11206905 -359.96182589 750.62608715 -359.8780219 753.14011669 C-359.65525903 759.80034944 -359.42862561 766.46044257 -359.20074528 773.12050152 C-358.80035897 784.82250938 -358.40420747 796.52466096 -358.01179093 808.22693872 C-357.96590462 809.59478976 -357.91995845 810.9626388 -357.87395257 812.33048582 C-357.31709373 828.89081327 -356.79651663 845.45063757 -356.42358083 862.01625729 C-356.36601517 864.57063352 -356.30641965 867.12495472 -356.24624699 869.67927074 C-355.95204049 882.27271237 -355.95204049 882.27271237 -355.86346501 887.77036572 C-355.47564528 911.74939172 -354.04981711 931.75278305 -335.93518132 949.35587597 C-320.85626409 962.92690148 -304.73063711 964.81516816 -285.26721257 964.57853222 C-283.37779133 964.56783162 -281.48836009 964.55878253 -279.59892339 964.55129528 C-274.65562526 964.52865892 -269.71261686 964.48967189 -264.76947087 964.44529247 C-256.84954166 964.37474593 -248.92962389 964.3196445 -241.00946683 964.28293705 C-238.25918873 964.26636056 -235.5092632 964.23680583 -232.75911015 964.20623302 C-231.05974711 964.19576434 -229.36038084 964.18580434 -227.6610114 964.17643261 C-226.90805791 964.16452892 -226.15510442 964.15262524 -225.37933415 964.14036083 C-218.65263247 964.1255141 -211.1944323 964.67637961 -205.74768132 968.98087597 C-205.15600163 969.42689159 -204.56432194 969.87290722 -203.95471257 970.33243847 C-197.22099639 977.07917925 -192.72939166 985.54172256 -187.99768132 993.73087597 C-187.24766997 995.02041275 -186.49725611 996.3097155 -185.74646062 997.59879589 C-183.46876371 1001.51363014 -181.20090799 1005.43410494 -178.93518132 1009.35587597 C-178.26005241 1010.52368271 -177.58492225 1011.69148873 -176.90979069 1012.85929394 C-174.40030341 1017.20258841 -171.8931208 1021.5471932 -169.39050359 1025.89445019 C-165.26365738 1033.06296529 -161.10913178 1040.21469551 -156.93518132 1047.35587597 C-151.4348569 1056.76716297 -145.97858874 1066.20314509 -140.5384528 1075.649333 C-135.82517237 1083.82795614 -131.07108556 1091.98202525 -126.30139226 1100.12784863 C-123.02423037 1105.73694448 -119.78194131 1111.36444612 -116.57190007 1117.01212597 C-116.20560994 1117.65602276 -115.83931981 1118.29991955 -115.46192998 1118.96332836 C-113.66601972 1122.12142973 -111.87397761 1125.28163272 -110.08776921 1128.44523144 C-109.44444646 1129.57847851 -108.8011237 1130.71172558 -108.13830632 1131.87931347 C-107.5675739 1132.8891328 -106.99684148 1133.89895214 -106.40881413 1134.93937206 C-105.02331002 1137.4247837 -105.02331002 1137.4247837 -102.93518132 1139.35587597 C-102.45049382 1138.85958691 -101.96580632 1138.36329784 -101.46643132 1137.85196972 C-97.50556363 1133.83778265 -93.46605543 1130.00671663 -89.19299382 1126.32853222 C-86.44071644 1123.92386081 -83.74891812 1121.45595802 -81.06018132 1118.98087597 C-75.71906145 1114.06768213 -70.33722344 1109.20208096 -64.93518132 1104.35587597 C-63.26825485 1102.85616469 -61.60158983 1101.35616276 -59.93518132 1099.85587597 C-49.93518132 1090.85587597 -49.93518132 1090.85587597 -47.44299382 1088.61368847 C-45.74925238 1087.08879352 -44.05656963 1085.56272195 -42.36486882 1084.03556347 C-38.61953876 1080.65674889 -34.86999925 1077.28691632 -31.06018132 1073.98087597 C-27.6318594 1070.99670911 -24.27897331 1067.93399113 -20.93518132 1064.85587597 C-16.97653483 1061.21175881 -12.98341444 1057.61673942 -8.91955632 1054.09025097 C-4.88143441 1050.56086883 -0.91603451 1046.94953371 3.06481868 1043.35587597 C5.5616986 1041.1079062 8.05935019 1038.8607959 10.55700618 1036.61368847 C12.25074762 1035.08879352 13.94343037 1033.56272195 15.63513118 1032.03556347 C20.06302874 1028.04097698 24.5143942 1024.07853505 29.01013118 1020.16056347 C33.06450871 1016.59949423 37.05994798 1012.97239557 41.06481868 1009.35587597 C46.34467444 1004.58800622 51.63773674 999.84075379 57.00231868 995.16837597 C59.37446297 993.08376432 61.72037933 990.97158953 64.06481868 988.85587597 C67.7264086 985.55260678 71.40626862 982.2744705 75.13513118 979.04728222 C76.45932644 977.88660095 77.76592875 976.70563075 79.05700618 975.50821972 C94.52154931 961.33740296 114.92730417 964.11004172 134.646689 964.354954 C138.20367166 964.39664518 141.76075997 964.42559601 145.31785518 964.4558363 C151.41741733 964.50909491 157.51687878 964.56916148 163.61633235 964.63361645 C173.17912818 964.73411885 182.74203923 964.81518666 192.30505306 964.89176464 C193.10279856 964.89818049 193.90054406 964.90459634 194.72246367 964.9112066 C197.95610909 964.93720154 201.18975503 964.96312822 204.42340249 964.98886818 C210.11871303 965.03421411 215.81401184 965.08086634 221.50930721 965.12807751 C248.45308881 965.35078668 275.39686156 965.56484698 302.34154922 965.63550854 C308.26042084 965.65104677 314.17905241 965.67331181 320.09780818 965.71421337 C325.59569027 965.75206117 331.09330172 965.77087614 336.59130985 965.77470112 C338.57271605 965.77924091 340.55412144 965.79045358 342.5354436 965.80925846 C361.66404721 965.98262161 377.49422102 962.8423221 391.87731868 949.10587597 C404.22234684 936.06710703 409.09528946 922.02603926 409.34606868 904.31070995 C409.37313899 902.73454875 409.37313899 902.73454875 409.40075618 901.12654591 C409.46102939 897.47258601 409.51332516 893.81856348 409.56481868 890.16446972 C409.58478522 888.83002493 409.60488895 887.49558218 409.62512141 886.1611414 C410.35301182 837.74696079 410.60826116 789.32563533 410.97106868 740.90762937 C411.15005738 717.0226344 411.33356795 693.13767371 411.51813157 669.25272123 C411.54925021 665.22428792 411.58024976 661.19585372 411.61115576 657.16741877 C411.92740957 615.95247389 412.28834753 574.73813369 412.7072373 533.52409947 C413.03170362 501.5894554 413.25301116 469.65512571 413.39294368 437.71915722 C413.40012857 436.48287547 413.40731345 435.24659372 413.41471606 433.97284889 C413.4494381 417.09865092 408.25356945 401.80180323 396.36559993 389.59415722 C395.22671321 388.486208 395.22671321 388.486208 394.06481868 387.35587597 C393.37774837 386.64818066 392.69067806 385.94048534 391.98278743 385.21134472 C378.81734939 372.43671745 362.15001404 368.96891063 344.37341243 368.70353222 C342.90427205 368.67177468 341.43515097 368.63911398 339.96604854 368.60564709 C334.99927147 368.49919378 330.03221948 368.42616149 325.06481868 368.35587597 C323.71437339 368.33573563 323.71437339 368.33573563 322.33664638 368.31518841 C308.033049 368.10193277 293.72907215 367.9524994 279.42449504 367.82344723 C276.0917527 367.7930516 272.75902558 367.76131272 269.42629939 367.7291975 C234.63823852 367.39533012 199.85445144 367.2110955 165.06481868 367.35587597 Z " fill="#000000" transform="translate(860.9351813197136,-0.35587596893310547)"/>
<path d="M0 0 C15.79530391 13.16275326 26.7913798 32.46543804 29.390625 52.9921875 C30.95543568 79.18646625 25.65502382 101.37453731 8.09472656 121.47558594 C-7.11533009 138.40308018 -28.39096718 149.35997532 -51.30078125 150.90234375 C-52.06261719 150.93199219 -52.82445312 150.96164062 -53.609375 150.9921875 C-54.38152344 151.03214844 -55.15367187 151.07210937 -55.94921875 151.11328125 C-76.90380085 151.69063602 -97.58072531 144.68554353 -113.046875 130.4921875 C-114.93603977 128.68929714 -116.77312658 126.85039405 -118.609375 124.9921875 C-119.27582031 124.33605469 -119.94226563 123.67992187 -120.62890625 123.00390625 C-136.4272667 106.34965269 -141.30773284 84.17923717 -140.9140625 61.984375 C-140.21894343 43.68723258 -132.45315185 26.06494579 -119.609375 12.9921875 C-116.08468979 9.78697599 -112.41239848 6.85900075 -108.609375 3.9921875 C-107.73410156 3.31414062 -106.85882813 2.63609375 -105.95703125 1.9375 C-73.40877436 -22.62902576 -33.08179556 -25.45515407 0 0 Z M-103.9987793 6.55517578 C-105.30620508 8.2828366 -106.50227738 10.04351344 -107.671875 11.8671875 C-108.09597656 12.51703613 -108.52007812 13.16688477 -108.95703125 13.83642578 C-119.91523499 31.20501166 -123.92006577 52.14865725 -119.609375 72.3671875 C-113.44066109 92.47370312 -100.72268693 108.34760365 -82.15234375 118.265625 C-67.33448183 125.48667789 -49.50428217 127.9011456 -33.50390625 123.08984375 C-22.96087795 119.0917453 -14.55011932 114.14116813 -6.609375 105.9921875 C-5.91328125 105.32832031 -5.2171875 104.66445313 -4.5 103.98046875 C7.38744176 91.88568789 12.20728388 75.66689075 12.828125 59.0546875 C12.28022873 38.80535443 3.19924749 21.14120231 -11.359375 7.3046875 C-34.82000308 -12.91138563 -81.15328027 -19.14450525 -103.9987793 6.55517578 Z " fill="#000000" transform="translate(290.609375,288.0078125)"/>
<path d="M0 0 C21.80178609 -0.67756922 41.99862639 7.5334424 57.94921875 22.05859375 C63.07421624 26.93303241 67.39770202 31.97027854 70.94921875 38.12109375 C71.27760742 38.68779785 71.60599609 39.25450195 71.94433594 39.83837891 C83.29066073 59.8068648 86.63770263 82.64309055 80.92895508 105.10571289 C75.05592487 125.3317723 61.20427294 144.90675488 42.8671875 155.5703125 C41.90425781 156.08207031 40.94132813 156.59382812 39.94921875 157.12109375 C38.83160156 157.72566406 37.71398437 158.33023438 36.5625 158.953125 C16.70242219 169.21586448 -7.49461297 171.78582832 -29.0546875 165.51171875 C-51.36815731 158.17068032 -68.7815559 143.09085937 -79.73828125 122.43359375 C-84.6691481 112.25052267 -87.57962617 101.46650798 -88.05078125 90.12109375 C-88.11394531 89.34507812 -88.17710937 88.5690625 -88.2421875 87.76953125 C-89.24574439 66.85670055 -81.1866921 47.55545445 -67.73828125 31.99609375 C-58.9979957 22.61163305 -49.30903601 16.78458786 -37.96582031 11.09472656 C-36.38115917 10.28906253 -34.81817655 9.44091692 -33.26171875 8.58203125 C-23.05542367 3.01806437 -11.51314497 0.6798238 0 0 Z M-45.7109375 21.703125 C-47.98849021 24.42173967 -50.04120268 27.2003398 -52.05078125 30.12109375 C-52.60121094 30.84039062 -53.15164063 31.5596875 -53.71875 32.30078125 C-65.04344068 47.7303084 -67.65304438 66.51776818 -66.05078125 85.12109375 C-63.64114837 100.55856501 -55.97687849 113.13915615 -45.05078125 124.12109375 C-44.05498047 125.16910156 -44.05498047 125.16910156 -43.0390625 126.23828125 C-30.41912599 138.59380004 -12.42682666 144.12519891 4.91601562 144.17822266 C21.10223003 143.72342268 36.06063448 136.3611787 47.328125 124.9765625 C60.41583674 110.71856357 67.49914385 93.6175836 66.94921875 74.12109375 C65.6998613 54.55866407 56.74502996 38.24088325 42.63671875 24.87109375 C19.93093691 5.69470805 -22.44364166 -0.8808435 -45.7109375 21.703125 Z " fill="#000000" transform="translate(506.05078125,269.87890625)"/>
<path d="M0 0 C2.69114168 2.15733109 5.25616923 4.39082467 7.79296875 6.7265625 C8.42332031 7.26539063 9.05367187 7.80421875 9.703125 8.359375 C24.2054948 21.50730935 32.7387778 43.5194418 33.76171875 62.6484375 C33.98440016 84.5825566 28.48716162 105.01232538 13.79296875 121.7265625 C13.20128906 122.46003906 12.60960937 123.19351563 12 123.94921875 C-0.96709115 139.5364644 -20.71784623 149.50500347 -40.6875 152.41015625 C-66.26019472 154.70914434 -88.57054018 149.38619774 -108.99609375 133.56640625 C-123.1374449 121.50466557 -134.98637113 102.48265884 -137.20703125 83.7265625 C-138.96502233 60.14672228 -135.77377237 37.34239021 -120.03125 18.734375 C-119.42925781 18.07179688 -118.82726562 17.40921875 -118.20703125 16.7265625 C-117.55347656 15.98148437 -116.89992188 15.23640625 -116.2265625 14.46875 C-87.22256684 -16.70129998 -34.97265672 -24.79182242 0 0 Z M-73.20703125 -5.2734375 C-74.79257812 -4.7784375 -74.79257812 -4.7784375 -76.41015625 -4.2734375 C-83.68538216 -1.74870157 -88.92026877 1.14546206 -94.20703125 6.7265625 C-94.86058594 7.37238281 -95.51414062 8.01820313 -96.1875 8.68359375 C-109.77183772 22.84598839 -116.68743601 42.10775757 -116.41796875 61.6171875 C-115.26669315 78.58784261 -109.1110396 92.81188595 -98.20703125 105.7265625 C-97.665625 106.38140625 -97.12421875 107.03625 -96.56640625 107.7109375 C-84.67359221 120.80504589 -66.93749977 127.42749756 -49.7265625 128.9453125 C-34.34683172 129.5474553 -20.17563476 123.97413259 -8.20703125 114.7265625 C-7.51738281 114.21480469 -6.82773437 113.70304687 -6.1171875 113.17578125 C6.62878365 103.00424387 14.53320709 86.63180805 16.79296875 70.7265625 C18.52430321 52.17197015 13.96764101 34.71545161 2.58984375 19.84765625 C0.41569996 17.35803355 -1.83785637 15.03026796 -4.20703125 12.7265625 C-4.88121094 12.03175781 -5.55539062 11.33695312 -6.25 10.62109375 C-19.23231309 -1.97150638 -36.29071209 -7.58747253 -54.08203125 -7.6484375 C-60.61737867 -7.54169306 -66.93338647 -7.24163978 -73.20703125 -5.2734375 Z " fill="#000000" transform="translate(825.20703125,285.2734375)"/>
</svg>
