<?xml version="1.0" encoding="utf-8"?>
<!-- Generator: Adobe Illustrator 16.0.0, SVG Export Plug-In . SVG Version: 6.00 Build 0)  -->
<!DOCTYPE svg PUBLIC "-//W3C//DTD SVG 1.1//EN" "http://www.w3.org/Graphics/SVG/1.1/DTD/svg11.dtd">
<svg version="1.1" xmlns="http://www.w3.org/2000/svg" xmlns:xlink="http://www.w3.org/1999/xlink" x="0px" y="0px"
	 width="328.29px" height="6.526px" viewBox="0 0 328.29 6.526" enable-background="new 0 0 328.29 6.526" xml:space="preserve">
<g id="flatware">
</g>
<g id="cutting">
</g>
<g id="timer">
</g>
<g id="heat">
</g>
<g id="cost-1">
</g>
<g id="cost-2">
</g>
<g id="cost-3">
</g>
<g id="difficulty-0">
</g>
<g id="difficulty-1">
</g>
<g id="difficulty-2">
</g>
<g id="difficulty-3">
</g>
<g id="hourglass">
</g>
<g id="hourglass-wait">
</g>
<g id="aroow-up">
</g>
<g id="search">
</g>
<g id="plus">
</g>
<g id="minus">
</g>
<g id="grill">
</g>
<g id="steam">
</g>
<g id="kettle">
</g>
<g id="oven">
</g>
<g id="pizza-oven">
</g>
<g id="microwave">
</g>
<g id="fryer">
</g>
<g id="pot">
</g>
<g id="pan">
</g>
<g id="wok">
</g>
<g id="menu">
</g>
<g id="line">
	<g>
		<path d="M73.751,3.761l1.359,0.034c-4.4-0.048-9.027-0.157-13.586-0.273c4.957,0.309,10.36,0.571,15.487,0.718
			c5.127,0.162,9.976,0.134,13.823-0.271c0.82,0.551,10.441,1.031,10.641,0.905c2.001-0.049,4.027-0.079,6.076-0.095
			c-1.407,0.01-2.81,0.02-4.204,0.028c1.395-0.009,2.797-0.019,4.204-0.028c12.957-0.097,27.004,0.544,41.56,1.055
			c2.022,0.049,4.91,0.118,8.235,0.198c3.326,0.084,7.09,0.296,10.855,0.289c7.532,0.03,15.087,0.206,19.236,0.206
			c1.201,0,2.395,0,3.606,0c-2.01,0-2.01-0.146-4.019-0.166c5.05-0.207,9.629-0.459,14.047-0.641
			c-0.781-0.063-0.918-0.159-2.771-0.239l2.261-0.003c2.054-0.26,6.799-0.348,9.027-0.483c-0.478,0.125,1.28,0.11,2.831,0.099
			l-0.615-0.066c5.886-0.116,12.711-0.253,17.969-0.356c0.733-0.013,1.283,0.021,1.615,0.054l5.039-0.16
			c-0.386,0.157,4.18,0.098,1.777,0.217c3.769-0.217,7.595-0.14,11.189-0.361c3.211,0.008,6.473,0.016,9.768,0.023
			c3.293,0.018,6.623-0.03,9.955,0.106c6.682,0.179,13.419,0.357,20.072,0.535l-0.324-0.071c2.33,0.083,4.526-0.052,6.844-0.071
			c2.318-0.047,4.758-0.021,7.591-0.038c2.02-0.142,4.467-0.209,6.604-0.39s3.968-0.364,4.762-0.558
			c4.642-0.315,6.488-0.593,10.993-1.18c-0.591-0.008,0.499-0.189,1.448-0.355c0.92-0.174,1.77-0.373,0.643-0.242
			c-2.961,0.189-3.129,0.372-5.683,0.439l0.08,0.046c-11.906,0.788-23.907,0.632-36.013,0.065c-4.066-0.146-8.293-0.298-12.563-0.45
			c-2.145-0.085-4.3-0.17-6.448-0.255c-2.149-0.1-4.286-0.06-6.404-0.084c-9.119-0.087-18.965,0.16-26.771,0.365
			c-1.861,0.078-3.206-0.031-4.795-0.078c-7.179,0.162-16.297,0.368-24.395,0.551c0.151-0.001,0.3-0.002,0.396-0.002
			c-4.299,0.114-7.521,0.001-11.715,0.083c0.021,0.046-0.629,0.058-0.944,0.086c-0.365-0.109-6.539,0.117-12.807,0.287
			c-6.267,0.142-12.63,0.295-13.37,0.236c-0.437,0.01-0.888,0.02-1.349,0.029c-4.427-0.06-8.926-0.289-13.267-0.45
			c-2.173-0.082-4.305-0.162-6.364-0.239c-2.065-0.091-4.063-0.164-5.964-0.207c-1.653,0.055-3.515,0.091-4.908,0.166
			c-1.342-0.128-1.604,0.041-3.226-0.027c-4.102-0.537-6.517-0.425-4.396-0.217c-3.387-0.035-6.782-0.165-9.79-0.232
			c-1.396-0.005-2.781-0.01-4.19-0.015c-1.195,0.004-1.859-0.079-2.459-0.194c-3.061-0.014-2.156-0.097-5.361-0.218
			c-0.771-0.167-8.047,0.041-8.952-0.026l0.524-0.009c-3.707-0.116-6.164-0.463-9.787-0.564C76.766,0.862,65.757,0.858,56.424,0.686
			c-0.094,0.154,2.06-0.007,2.165,0.2c-5.494-0.154-11.063-0.31-16.608-0.465c-1.001-0.055-2.227-0.149-2.683-0.205
			c-1.775-0.074-1.049,0.072-2.349,0.053l-0.175-0.14c-1.901,0.124-2.777-0.143-4.567-0.076c-0.095,0.058-0.748,0.067-1.384,0.066
			c-0.031-0.148-1.958,0.02-1.865-0.117l-0.019,0.012C28.556,0.013,28.283,0.023,27.814,0c-0.733,0.05-7.53,0.512-8.288,0.563
			L19.183,0.54c-1.021,0.009-1.456,0.122-0.86,0.146l-1.258-0.002l0.146-0.011L15.958,0.67c-0.23-0.013-0.492-0.08-0.137-0.147
			c-0.709,0.056-1.505,0.088-2.214,0.064c1.973,0.082,4.423,0.2,6.484,0.342c-0.847,0.055-2.378-0.018-3.296,0.003
			c-1.098-0.093-3.354-0.166-5.108-0.226c-0.386,0.011-0.649,0.178-1.524,0.108c-0.429-0.112-0.988,0.009-1.717-0.07
			c0.836-0.065,1.652-0.041,2.5-0.039C10.8,0.57,8.884,0.622,8.214,0.588C7.9,0.632,6.266,0.595,5.238,0.638
			c0.446-0.132-0.829-0.079-1.44-0.146C3.105,0.479,2.663,0.533,2.945,0.578C2.724,0.721,5.703,0.649,4.739,0.803
			C4.485,0.735,3.128,0.766,2.398,0.774C2.391,0.853,2.897,0.831,2.426,0.907c-0.813-0.014-1.673,0.084-2.14,0.006
			c0.151-0.021,0.486-0.01,0.725-0.01c-1.059-0.002,5.725-0.53,4.357-0.479c0.355,0.066-6.018,0.486-5.313,0.487
			c0.645,0.035-0.459,0.142,0.208,0.165l0.74-0.097C1.915,1.005,2.29,1.138,1.971,1.192C0.442,1.188,6.303,0.646,4.997,0.729
			l0.531,0.034C4.976,0.816,3.496,0.867,2.925,0.789C2.921,0.865,2.177,0.896,1.558,0.926L1.339,0.914
			C0.7,0.956-0.194,0.941,0.224,1.04C3.971,1.011-2.229,1.827,1.4,1.854c-1.524-0.162,0.51-0.176,2.106-0.202
			c0.155,0.056,0.867,0.137,2.017,0.175C6.518,1.81,6.108,1.763,6.298,1.72C6.85,1.755,7.904,1.781,7.767,1.871
			c0.774-0.109,1.24,0.062,2.169,0.021c0.818-0.053-0.056-0.045,0.525-0.1c1.229,0.01,2.951,0.021,3.932,0.028
			c0.379,0.081,1.533,0.224,0.694,0.356C13.224,2.168,15.796,1.963,13.856,2c0.837,0.187-1.716,0.061-2.067,0.206
			c0.619,0.082,1.871,0.077,2.918,0.049l-0.21-0.024c0.923-0.029,2.77-0.077,3.77,0.02c-0.235,0.067,0.201,0.116-0.477,0.136
			l1.271,0.006c0.161-0.021,0.327-0.044-0.039-0.058c0.599-0.055,1.199-0.028,1.66,0.009c0.139,0.07,6.76-0.328,6.555-0.283
			c0.916-0.006,1.138,0.099,2.03,0.022c0.023-0.015-0.512-0.004-1.309,0.02c-0.796,0.026-1.855,0.063-2.881,0.097
			c-2.049,0.074-3.958,0.152-3.353,0.138c0.781,0.074,10.377-0.401,10.946-0.271c0.679-0.008,1.498-0.026,1.339-0.098
			c1.146,0.029-0.345,0.139,0.472,0.201c0.019-0.011-0.066-0.035,0.194-0.034l0.784,0.087c1.781-0.133,4.391,0.021,6.256-0.087
			c-0.541,0.07-1.157,0.198-2.357,0.253l-0.209-0.041c-0.171,0.016-1.158,0.039-1.131,0.113c1.139,0.043,2.114,0.058,3.314-0.002
			c0.221,0.023,0.473,0.049,0.652,0.067c-0.005-0.01-0.023-0.018-0.019-0.028c0.392,0.05,0.351,0.057,0.207,0.082
			c-0.019,0.006-0.042,0.011-0.083,0.016c0.713,0.219,4.475-0.074,6.555,0.063c0.613-0.021,0.058-0.035,0.821-0.065
			c2.126,0.111,3.591,0.194,5.813,0.272c0.712-0.081,0.768-0.116-0.09-0.222l1.68,0.052c-1.53,0.22,3.133,0.271,1.446,0.488
			c0.49,0.061,1.495,0.086,2.437,0.059c0.096-0.059,0.244-0.154,1.428-0.138c1.645,0.102,1.244,0.077,2.615,0.162
			c0.321,0.083-0.18,0.107-0.123,0.171c2.104-0.073,1.832,0.195,3.815,0.207c1.243-0.008,3.696,0.016,3.759-0.121
			C73.921,3.551,73.919,3.651,73.751,3.761z"/>
	</g>
</g>
<g id="home">
</g>
</svg>
